ply
format ascii 1.0
comment written by koba@oshima.lab
element vertex 300
property float x
property float y
property float z
property int label
property int attribute
property float radius
property float curvature
property float torsion
element edge 300
property int vertex1
property int vertex2
property int label
element vertex_seq 1
property int label
property list int int vertex_indices
end_header
3.32746 24.8831 -14.9472 0 0 1.5 0.0209864 0.00678777 
3.1699 24.7271 -14.6339 0 0 1.5 0.0209084 0.00703363 
3.01234 24.5711 -14.3206 0 0 1.5 0.0208261 0.0075063 
2.85477 24.4151 -14.0072 0 0 1.5 0.0207382 0.00820868 
2.69721 24.2591 -13.6939 0 0 1.5 0.0205394 0.0103165 
2.53965 24.1032 -13.3805 0 0 1.5 0.0204218 0.0117376 
2.38209 23.9472 -13.0672 0 0 1.5 0.0202851 0.0134258 
2.22452 23.7912 -12.7538 0 0 1.5 0.0201246 0.0154051 
2.06696 23.6352 -12.4405 0 0 1.5 0.0197028 0.0202172 
1.9094 23.4792 -12.1271 0 0 1.5 0.0194177 0.0231645 
1.75184 23.3232 -11.8138 0 0 1.5 0.0190679 0.0266314 
1.59428 23.1672 -11.5005 0 0 1.5 0.0186417 0.0306957 
1.43671 23.0113 -11.1871 0 0 1.5 0.0174938 0.041559 
1.27915 22.8553 -10.8738 0 0 1.5 0.0167425 0.0493574 
1.12159 22.6993 -10.5604 0 0 1.5 0.0158581 0.0596773 
0.964026 22.5433 -10.2471 0 0 1.5 0.0136681 0.0940746 
0.806464 22.3873 -9.93373 0 0 1.5 0.0123814 0.124435 
0.648902 22.2313 -9.62038 0 0 1.5 0.0110239 0.170719 
0.49134 22.0753 -9.30704 0 0 1.5 0.00970889 0.239898 
0.333777 21.9194 -8.99369 0 0 1.5 0.00825345 0.400595 
0.176215 21.7634 -8.68035 0 0 1.5 0.00888468 0.382662 
0.0186528 21.6074 -8.367 0 0 1.5 0.0106633 0.294997 
-0.138909 21.4514 -8.05366 0 0 1.5 0.0133978 0.208486 
-0.296472 21.2954 -7.74031 0 0 1.5 0.0209155 0.108127 
-0.454034 21.1394 -7.42697 0 0 1.5 0.0254656 0.0823943 
-0.611596 20.9834 -7.11362 0 0 1.5 0.030465 0.0652942 
-0.769159 20.8275 -6.80028 0 0 1.5 0.0417298 0.0452396 
-0.926721 20.6715 -6.48693 0 0 1.5 0.0479618 0.0390059 
-1.08428 20.5155 -6.17359 0 0 1.5 0.0545661 0.0343292 
-1.24185 20.3595 -5.86024 0 0 1.5 0.061527 0.0308047 
-1.39941 20.2035 -5.5469 0 0 1.5 0.0764409 0.0257319 
-1.55697 20.0475 -5.23356 0 0 1.5 0.0843294 0.0238664 
-1.71453 19.8916 -4.92021 0 0 1.5 0.0924541 0.0223672 
-1.87209 19.7356 -4.60687 0 0 1.5 0.100768 0.0210753 
-2.06123 19.5542 -4.32746 0 0 1.5 0.117721 0.0187744 
-2.25745 19.3672 -4.05567 0 0 1.5 0.126205 0.0177705 
-2.47943 19.1576 -3.82363 0 0 1.5 0.13457 0.0167863 
-2.70407 18.9457 -3.59569 0 0 1.5 0.14272 0.0157507 
-2.94806 18.7137 -3.41132 0 0 1.5 0.157923 0.0135261 
-3.19312 18.4803 -3.23061 0 0 1.5 0.164729 0.0123369 
-3.44928 18.2316 -3.08976 0 0 1.5 0.170857 0.0110908 
-3.70641 17.9804 -2.95626 0 0 1.5 0.180679 0.0083571 
-3.96828 17.7173 -2.85845 0 0 1.5 0.1842 0.0069388 
-4.23014 17.4507 -2.77332 0 0 1.5 0.186732 0.00559261 
-4.49197 17.1752 -2.71948 0 0 1.5 0.188261 0.00429303 
-4.75123 16.8951 -2.68622 0 0 1.5 0.188373 0.00191408 
-5.00729 16.6092 -2.67848 0 0 1.5 0.18706 0.00112186 
-5.25567 16.3185 -2.70261 0 0 1.5 0.184946 0.000627542 
-5.5 16.0253 -2.74354 0 0 1.5 0.18213 0.00042313 
-5.72828 15.7296 -2.83035 0 0 1.5 0.174856 0.00164594 
-5.95038 15.4342 -2.9318 0 0 1.5 0.170661 0.00329254 
-6.15507 15.1412 -3.07169 0 0 1.5 0.16626 0.00566818 
-6.34728 14.8526 -3.23446 0 0 1.5 0.157286 0.0131806 
-6.52818 14.5681 -3.41793 0 0 1.5 0.152918 0.0185302 
-6.69091 14.2936 -3.63068 0 0 1.5 0.148745 0.0250243 
-6.84826 14.0225 -3.85195 0 0 1.5 0.144837 0.0326354 
-6.98949 13.7635 -4.09761 0 0 1.5 0.138027 0.0510997 
-7.12707 13.5083 -4.34888 0 0 1.5 0.135207 0.061969 
-7.2559 13.262 -4.61359 0 0 1.5 0.132817 0.0735952 
-7.38122 13.0206 -4.88431 0 0 1.5 0.130861 0.085626 
-7.50218 12.7854 -5.16247 0 0 1.5 0.128236 0.110605 
-7.62032 12.5556 -5.44621 0 0 1.5 0.127546 0.12292 
-7.73616 12.3301 -5.73446 0 0 1.5 0.127229 0.134454 
-7.84905 12.1104 -6.02824 0 0 1.5 0.127524 0.155312 
-7.9602 11.8942 -6.32524 0 0 1.5 0.128031 0.16441 
-8.0664 11.6845 -6.6287 0 0 1.5 0.128686 0.172362 
-8.17056 11.4777 -6.93479 0 0 1.5 0.129407 0.179461 
-8.26459 11.2792 -7.24952 0 0 1.5 0.130725 0.19204 
-8.35642 11.0826 -7.56613 0 0 1.5 0.131164 0.19752 
-8.42726 10.8973 -7.89479 0 0 1.5 0.131354 0.202915 
-8.48962 10.7154 -8.2266 0 0 1.5 0.131232 0.208693 
-8.5272 10.543 -8.56749 0 0 1.5 0.129921 0.221528 
-8.53643 10.3786 -8.9134 0 0 1.5 0.128744 0.228894 
-8.52491 10.22 -9.26254 0 0 1.5 0.127262 0.237383 
-8.45802 10.0727 -9.61065 0 0 1.5 0.125547 0.246832 
-8.36001 9.92936 -9.95158 0 0 1.5 0.121961 0.267033 
-8.23323 9.78966 -10.2859 0 0 1.5 0.120418 0.277403 
-8.05516 9.65041 -10.5961 0 0 1.5 0.119304 0.28686 
-7.86144 9.50795 -10.8944 0 0 1.5 0.119383 0.297541 
-7.64619 9.36098 -11.1762 0 0 1.5 0.121094 0.296927 
-7.41467 9.2026 -11.4377 0 0 1.5 0.124259 0.291252 
-7.17783 9.04043 -11.6925 0 0 1.5 0.129132 0.280176 
-6.93253 8.85751 -11.9243 0 0 1.5 0.144861 0.245542 
-6.6876 8.67001 -12.1524 0 0 1.5 0.1561 0.224949 
-6.4443 8.46194 -12.3642 0 0 1.5 0.169855 0.20405 
-6.20448 8.2445 -12.5698 0 0 1.5 0.18634 0.183768 
-5.97178 8.00781 -12.7626 0 0 1.5 0.228454 0.147287 
-5.748 7.7557 -12.9449 0 0 1.5 0.254628 0.131689 
-5.53358 7.48736 -13.1163 0 0 1.5 0.284578 0.117629 
-5.33793 7.19456 -13.2673 0 0 1.5 0.356439 0.092959 
-5.15177 6.89004 -13.4077 0 0 1.5 0.398235 0.0820228 
-4.99929 6.55261 -13.5089 0 0 1.5 0.443265 0.0714333 
-4.87311 6.19893 -13.5766 0 0 1.5 0.490243 0.0607147 
-4.78021 5.82951 -13.6014 0 0 1.5 0.580766 0.0384624 
-4.73877 5.4504 -13.5577 0 0 1.5 0.617743 0.0266557 
-4.76388 5.0917 -13.427 0 0 1.5 0.644073 0.0142935 
-4.84186 4.77487 -13.2319 0 0 1.5 0.656462 0.00175039 
-4.96225 4.50703 -12.9899 0 0 1.5 0.63491 -0.0221266 
-5.1137 4.28481 -12.7173 0 0 1.5 0.603645 -0.032985 
-5.29635 4.12272 -12.4211 0 0 1.5 0.562991 -0.0428328 
-5.49477 3.99897 -12.1184 0 0 1.5 0.468846 -0.059647 
-5.70272 3.89876 -11.8119 0 0 1.5 0.421499 -0.0673171 
-5.92709 3.84876 -11.5044 0 0 1.5 0.376579 -0.0748737 
-6.15505 3.81436 -11.1984 0 0 1.5 0.335102 -0.0825707 
-6.39019 3.8111 -10.895 0 0 1.5 0.263836 -0.10044 
-6.62788 3.83142 -10.5951 0 0 1.5 0.233903 -0.11157 
-6.86764 3.87101 -10.2979 0 0 1.5 0.207436 -0.124721 
-7.10615 3.93848 -10.0054 0 0 1.5 0.184134 -0.140598 
-7.34415 4.01732 -9.71473 0 0 1.5 0.145878 -0.183667 
-7.57536 4.12519 -9.42826 0 0 1.5 0.130479 -0.212021 
-7.80522 4.23891 -9.14264 0 0 1.5 0.117393 -0.245375 
-8.02195 4.37978 -8.859 0 0 1.5 0.106584 -0.283126 
-8.2375 4.52294 -8.57549 0 0 1.5 0.0920352 -0.358653 
-8.43387 4.68796 -8.28992 0 0 1.5 0.0885357 -0.384547 
-8.62824 4.85411 -8.00375 0 0 1.5 0.0876621 -0.394652 
-8.8007 5.03277 -7.71103 0 0 1.5 0.0935138 -0.365734 
-8.96847 5.21216 -7.41628 0 0 1.5 0.09986 -0.335782 
-9.11268 5.39522 -7.11126 0 0 1.5 0.108144 -0.303377 
-9.24801 5.57671 -6.80172 0 0 1.5 0.118116 -0.272632 
-9.35942 5.75399 -6.48001 0 0 1.5 0.142366 -0.22238 
-9.45525 5.92437 -6.15042 0 0 1.5 0.156324 -0.203228 
-9.52889 6.08492 -5.80962 0 0 1.5 0.171297 -0.187693 
-9.5768 6.22837 -5.45782 0 0 1.5 0.18714 -0.175216 
-9.60776 6.36055 -5.09878 0 0 1.5 0.220639 -0.156941 
-9.59953 6.45884 -4.72852 0 0 1.5 0.237751 -0.15029 
-9.57782 6.54415 -4.35564 0 0 1.5 0.254673 -0.14482 
-9.51511 6.58542 -3.9792 0 0 1.5 0.286322 -0.135639 
-9.4324 6.60008 -3.60645 0 0 1.5 0.300112 -0.131368 
-9.32567 6.5828 -3.23814 0 0 1.5 0.311937 -0.127054 
-9.19014 6.51659 -2.88649 0 0 1.5 0.321393 -0.122404 
-9.04388 6.43025 -2.54307 0 0 1.5 0.331942 -0.111413 
-8.87475 6.29055 -2.22808 0 0 1.5 0.332736 -0.105039 
-8.6995 6.12776 -1.92983 0 0 1.5 0.330582 -0.0979999 
-8.51579 5.93296 -1.65479 0 0 1.5 0.32565 -0.0902792 
-8.32907 5.70593 -1.40982 0 0 1.5 0.308606 -0.073681 
-8.14093 5.46374 -1.17896 0 0 1.5 0.297245 -0.0650175 
-7.95588 5.1867 -0.989191 0 0 1.5 0.284497 -0.0561152 
-7.77182 4.90348 -0.807416 0 0 1.5 0.270705 -0.0471887 
-7.59603 4.5918 -0.668499 0 0 1.5 0.241236 -0.0296647 
-7.42281 4.27534 -0.539152 0 0 1.5 0.226054 -0.0208214 
-7.25926 3.94082 -0.445938 0 0 1.5 0.210813 -0.0119101 
-7.10013 3.60131 -0.367064 0 0 1.5 0.180686 0.00652071 
-6.95032 3.25125 -0.318452 0 0 1.5 0.165977 0.0168156 
-6.8062 2.89755 -0.287364 0 0 1.5 0.151566 0.0283624 
-6.67012 2.53868 -0.281098 0 0 1.5 0.137494 0.0417306 
-6.54002 2.17833 -0.29361 0 0 1.5 0.11046 0.0790857 
-6.41616 1.81643 -0.325684 0 0 1.5 0.0975279 0.107364 
-6.29739 1.45523 -0.375559 0 0 1.5 0.0850404 0.147022 
-6.18278 1.09459 -0.439949 0 0 1.5 0.0730914 0.205372 
-6.07114 0.736154 -0.51902 0 0 1.5 0.051704 0.433115 
-5.9615 0.379188 -0.607873 0 0 1.5 0.043331 0.633591 
-5.85149 0.025017 -0.706592 0 0 1.5 0.0379636 0.850128 
-5.74128 -0.327621 -0.810725 0 0 1.5 0.0410695 0.779163 
-5.62606 -0.677526 -0.918487 0 0 1.5 0.0490388 0.569137 
-5.50871 -1.02627 -1.02779 0 0 1.5 0.0596002 0.40249 
-5.37972 -1.37222 -1.13256 0 0 1.5 0.071798 0.290331 
-5.24764 -1.71744 -1.23614 0 0 1.5 0.0990458 0.16772 
-5.09427 -2.05822 -1.3235 0 0 1.5 0.113477 0.133669 
-4.935 -2.39737 -1.40552 0 0 1.5 0.128093 0.109141 
-4.74965 -2.72864 -1.46246 0 0 1.5 0.142606 0.0909182 
-4.54933 -3.05243 -1.50264 0 0 1.5 0.170053 0.0657883 
-4.32865 -3.36602 -1.52003 0 0 1.5 0.182234 0.0565139 
-4.0813 -3.65778 -1.50306 0 0 1.5 0.192838 0.0485936 
-3.82209 -3.93817 -1.47007 0 0 1.5 0.207924 0.0352705 
-3.53673 -4.18452 -1.39781 0 0 1.5 0.211868 0.0292264 
-3.24184 -4.41143 -1.30848 0 0 1.5 0.213224 0.0233676 
-2.93544 -4.61482 -1.19851 0 0 1.5 0.212044 0.0175768 
-2.61956 -4.78737 -1.06712 0 0 1.5 0.202884 0.00554041 
-2.30035 -4.94912 -0.928247 0 0 1.5 0.195515 -0.000896148 
-1.97488 -5.07558 -0.769033 0 0 1.5 0.186799 -0.00766676 
-1.6489 -5.19704 -0.607152 0 0 1.5 0.177137 -0.0149538 
-1.32102 -5.29178 -0.431468 0 0 1.5 0.156411 -0.0318252 
-0.99334 -5.38105 -0.252956 0 0 1.5 0.145945 -0.0416921 
-0.666307 -5.45158 -0.0647605 0 0 1.5 0.135722 -0.0528288 
-0.340155 -5.5164 0.126713 0 0 1.5 0.125922 -0.0655135 
-0.0160425 -5.56803 0.325782 0 0 1.5 0.108096 -0.0953199 
0.306525 -5.6142 0.528471 0 0 1.5 0.100247 -0.112301 
0.626427 -5.65096 0.737405 0 0 1.5 0.0931931 -0.130457 
0.944307 -5.68237 0.950121 0 0 1.5 0.0815944 -0.167128 
1.2596 -5.70696 1.16767 0 0 1.5 0.0770452 -0.183653 
1.57283 -5.72585 1.38865 0 0 1.5 0.0732987 -0.197495 
1.88421 -5.73968 1.61268 0 0 1.5 0.070303 -0.207514 
2.19428 -5.74657 1.83878 0 0 1.5 0.0661838 -0.213908 
2.50361 -5.74956 2.06604 0 0 1.5 0.0648223 -0.210531 
2.81344 -5.74335 2.29251 0 0 1.5 0.0637453 -0.203875 
3.12341 -5.73447 2.51874 0 0 1.5 0.0628053 -0.195187 
3.43658 -5.71282 2.7396 0 0 1.5 0.0607703 -0.175627 
3.75052 -5.68873 2.95909 0 0 1.5 0.0594174 -0.166839 
4.0695 -5.65041 3.16914 0 0 1.5 0.0577002 -0.160189 
4.39013 -5.60772 3.37558 0 0 1.5 0.0528569 -0.156416 
4.71549 -5.55246 3.57162 0 0 1.5 0.0496146 -0.162109 
5.04325 -5.49017 3.76108 0 0 1.5 0.0458006 -0.176219 
5.37441 -5.41797 3.94126 0 0 1.5 0.0414286 -0.203193 
5.708 -5.33732 4.1128 0 0 1.5 0.0311903 -0.340729 
6.04357 -5.24981 4.27736 0 0 1.5 0.0255753 -0.510298 
6.38106 -5.15418 4.43301 0 0 1.5 0.0200677 -0.850259 
6.7195 -5.05449 4.5842 0 0 1.5 0.0155998 -1.46579 
7.05929 -4.94914 4.72828 0 0 1.5 0.0173878 -1.30961 
7.39952 -4.84197 4.87008 0 0 1.5 0.0238885 -0.732845 
7.74074 -4.73341 5.00835 0 0 1.5 0.0320924 -0.428225 
8.08216 -4.62457 5.14594 0 0 1.5 0.0510984 -0.184973 
8.42449 -4.52071 5.28508 0 0 1.5 0.0614226 -0.132382 
8.76692 -4.41787 5.42471 0 0 1.5 0.0721436 -0.0981724 
9.10984 -4.32815 5.57202 0 0 1.5 0.0831883 -0.0746158 
9.45251 -4.24358 5.72248 0 0 1.5 0.105957 -0.0447582 
9.7943 -4.17739 5.88415 0 0 1.5 0.117512 -0.0345945 
10.1338 -4.12687 6.05492 0 0 1.5 0.129044 -0.0263744 
10.4706 -4.09452 6.23621 0 0 1.5 0.140442 -0.0195967 
10.7982 -4.09561 6.43509 0 0 1.5 0.162273 -0.00859674 
11.1202 -4.11355 6.64231 0 0 1.5 0.172378 -0.00396709 
11.4249 -4.17255 6.86819 0 0 1.5 0.181731 0.00014753 
11.7139 -4.25836 7.10399 0 0 1.5 0.190176 0.00391788 
11.9903 -4.36567 7.34774 0 0 1.5 0.203726 0.0107738 
12.235 -4.51496 7.60283 0 0 1.5 0.208607 0.0137673 
12.4666 -4.67871 7.86031 0 0 1.5 0.212144 0.0165181 
12.675 -4.86752 8.12156 0 0 1.5 0.215134 0.021397 
12.8603 -5.07792 8.38284 0 0 1.5 0.214672 0.0234167 
13.0342 -5.29885 8.64412 0 0 1.5 0.213029 0.0251568 
13.1756 -5.54699 8.90048 0 0 1.5 0.21032 0.0266349 
13.3084 -5.80175 9.1544 0 0 1.5 0.202245 0.0287103 
13.416 -6.07592 9.40059 0 0 1.5 0.197187 0.029265 
13.5086 -6.36045 9.64009 0 0 1.5 0.191636 0.0294859 
13.5838 -6.65714 9.87174 0 0 1.5 0.185708 0.0294241 
13.6375 -6.96698 10.091 0 0 1.5 0.173144 0.0285574 
13.6807 -7.28327 10.3042 0 0 1.5 0.166667 0.0277015 
13.6965 -7.6136 10.4985 0 0 1.5 0.16013 0.0266424 
13.7066 -7.94672 10.6887 0 0 1.5 0.147035 0.0241345 
13.6871 -8.29138 10.8566 0 0 1.5 0.140523 0.022608 
13.6607 -8.63784 11.0189 0 0 1.5 0.134048 0.0209776 
13.6115 -8.99039 11.1625 0 0 1.5 0.127618 0.0193407 
13.551 -9.34439 11.2969 0 0 1.5 0.114908 0.0158725 
13.4737 -9.70062 11.4171 0 0 1.5 0.108629 0.014058 
13.3827 -10.0569 11.5259 0 0 1.5 0.102402 0.0122915 
13.2806 -10.4134 11.6253 0 0 1.5 0.0962357 0.0105354 
13.1639 -10.7682 11.7128 0 0 1.5 0.0841103 0.00693136 
13.0411 -11.1224 11.7952 0 0 1.5 0.0781668 0.00510283 
12.905 -11.474 11.8673 0 0 1.5 0.0723172 0.00322601 
12.7663 -11.825 11.9373 0 0 1.5 0.0665749 0.00126146 
12.6176 -12.1731 12.0006 0 0 1.5 0.0554704 -0.00312395 
12.468 -12.521 12.0634 0 0 1.5 0.0501409 -0.00565837 
12.3136 -12.8671 12.1243 0 0 1.5 0.0449878 -0.00850769 
12.159 -13.2131 12.1857 0 0 1.5 0.0352985 -0.015955 
12.0042 -13.5585 12.2492 0 0 1.5 0.0308016 -0.0210851 
11.8493 -13.9039 12.3127 0 0 1.5 0.0265719 -0.0275877 
11.6945 -14.2494 12.3762 0 0 1.5 0.0226413 -0.0361798 
11.5396 -14.5948 12.4397 0 0 1.5 0.0157997 -0.0644885 
11.3848 -14.9403 12.5032 0 0 1.5 0.0129831 -0.0869466 
11.2299 -15.2857 12.5667 0 0 1.5 0.0106637 -0.115954 
11.0751 -15.6312 12.6302 0 0 1.5 0.00892673 -0.147723 
10.9202 -15.9766 12.6937 0 0 1.5 0.00742321 -0.165677 
10.7654 -16.3221 12.7572 0 0 1.5 0.00751162 -0.140698 
10.6106 -16.6675 12.8207 0 0 1.5 0.00789531 -0.11017 
10.4557 -17.013 12.8842 0 0 1.5 0.00885093 -0.0644673 
10.3009 -17.3584 12.9477 0 0 1.5 0.00922434 -0.0505168 
10.146 -17.7038 13.0112 0 0 1.5 0.00946925 -0.0407192 
9.99117 -18.0493 13.0747 0 0 1.5 0.00957398 -0.0337835 
9.83632 -18.3947 13.1382 0 0 1.5 0.0093765 -0.0252615 
9.68147 -18.7402 13.2017 0 0 1.5 0.00909488 -0.0227464 
9.52663 -19.0856 13.2652 0 0 1.5 0.00871017 -0.0210284 
9.37178 -19.4311 13.3287 0 0 1.5 0.00823951 -0.0199386 
9.21694 -19.7765 13.3921 0 0 1.5 0.0071107 -0.0194379 
9.06209 -20.122 13.4556 0 0 1.5 0.00648642 -0.0200288 
8.90724 -20.4674 13.5191 0 0 1.5 0.00584581 -0.0212008 
8.7524 -20.8129 13.5826 0 0 1.5 0.00458132 -0.0258608 
8.59755 -21.1583 13.6461 0 0 1.5 0.00398566 -0.0297984 
8.4427 -21.5038 13.7096 0 0 1.5 0.00343478 -0.0350612 
8.28786 -21.8492 13.7731 0 0 1.5 0.00294476 -0.0418034 
8.13301 -22.1946 13.8366 0 0 1.5 0.00220542 -0.0580265 
7.97816 -22.5401 13.9001 0 0 1.5 0.00198234 -0.0634547 
7.82332 -22.8855 13.9636 0 0 1.5 0.00186112 -0.0636737 
7.66847 -23.231 14.0271 0 0 1.5 0.00182643 -0.058719 
7.51362 -23.5764 14.0906 0 0 1.5 0.00191148 -0.0423621 
7.35878 -23.9219 14.1541 0 0 1.5 0.00198006 -0.0350717 
7.20393 -24.2673 14.2176 0 0 1.5 0.00204246 -0.0293882 
7.04908 -24.6128 14.2811 0 0 1.5 0.0020893 -0.0250756 
6.89424 -24.9582 14.3446 0 0 1.5 0.0021185 -0.0193982 
6.73939 -25.3037 14.4081 0 0 1.5 0.00209844 -0.0177335 
6.58455 -25.6491 14.4716 0 0 1.5 0.00205664 -0.0166175 
6.4297 -25.9946 14.5351 0 0 1.5 0.00191726 -0.0155647 
6.27485 -26.34 14.5986 0 0 1.5 0.00182499 -0.015599 
6.12001 -26.6854 14.6621 0 0 1.5 0.00172141 -0.0159737 
5.96516 -27.0309 14.7256 0 0 1.5 0.00160963 -0.0166579 
5.81031 -27.3763 14.7891 0 0 1.5 0.00137372 -0.0192046 
5.65547 -27.7218 14.8526 0 0 1.5 0.0012553 -0.0211801 
5.50062 -28.0672 14.9161 0 0 1.5 0.00114063 -0.0236076 
5.34577 -28.4127 14.9796 0 0 1.5 0.00103272 -0.0265024 
5.19093 -28.7581 15.0431 0 0 1.5 0.000846251 -0.0335086 
5.03608 -29.1036 15.1066 0 0 1.5 0.000772065 -0.0369196 
4.88123 -29.449 15.1701 0 0 1.5 0.000712927 -0.0395581 
4.72639 -29.7945 15.2336 0 0 1.5 0.000640385 -0.0405809 
4.57154 -30.1399 15.2971 0 0 1.5 0.000624979 -0.0383919 
4.4167 -30.4854 15.3606 0 0 1.5 0.000620702 -0.0348484 
4.26185 -30.8308 15.4241 0 0 1.5 0.000624708 -0.0306939 
4.107 -31.1762 15.4876 0 0 1.5 0.000647509 -0.0223995 
3.95216 -31.5217 15.551 0 0 1.5 0.000662537 -0.0188179 
3.79731 -31.8671 15.6145 0 0 1.5 0.000678241 -0.0158118 
3.64246 -32.2126 15.678 0 0 1.5 0.000693882 -0.0133526 
3.48762 -32.558 15.7415 0 0 1.5 0.000723808 -0.00984591 
3.33277 -32.9035 15.805 0 0 1.5 0.000738021 -0.0086913 
3.17792 -33.2489 15.8685 0 0 1.5 0.000751898 -0.00787335 
0 1 0 
1 2 0 
2 3 0 
3 4 0 
4 5 0 
5 6 0 
6 7 0 
7 8 0 
8 9 0 
9 10 0 
10 11 0 
11 12 0 
12 13 0 
13 14 0 
14 15 0 
15 16 0 
16 17 0 
17 18 0 
18 19 0 
19 20 0 
20 21 0 
21 22 0 
22 23 0 
23 24 0 
24 25 0 
25 26 0 
26 27 0 
27 28 0 
28 29 0 
29 30 0 
30 31 0 
31 32 0 
32 33 0 
33 34 0 
34 35 0 
35 36 0 
36 37 0 
37 38 0 
38 39 0 
39 40 0 
40 41 0 
41 42 0 
42 43 0 
43 44 0 
44 45 0 
45 46 0 
46 47 0 
47 48 0 
48 49 0 
49 50 0 
50 51 0 
51 52 0 
52 53 0 
53 54 0 
54 55 0 
55 56 0 
56 57 0 
57 58 0 
58 59 0 
59 60 0 
60 61 0 
61 62 0 
62 63 0 
63 64 0 
64 65 0 
65 66 0 
66 67 0 
67 68 0 
68 69 0 
69 70 0 
70 71 0 
71 72 0 
72 73 0 
73 74 0 
74 75 0 
75 76 0 
76 77 0 
77 78 0 
78 79 0 
79 80 0 
80 81 0 
81 82 0 
82 83 0 
83 84 0 
84 85 0 
85 86 0 
86 87 0 
87 88 0 
88 89 0 
89 90 0 
90 91 0 
91 92 0 
92 93 0 
93 94 0 
94 95 0 
95 96 0 
96 97 0 
97 98 0 
98 99 0 
99 100 0 
100 101 0 
101 102 0 
102 103 0 
103 104 0 
104 105 0 
105 106 0 
106 107 0 
107 108 0 
108 109 0 
109 110 0 
110 111 0 
111 112 0 
112 113 0 
113 114 0 
114 115 0 
115 116 0 
116 117 0 
117 118 0 
118 119 0 
119 120 0 
120 121 0 
121 122 0 
122 123 0 
123 124 0 
124 125 0 
125 126 0 
126 127 0 
127 128 0 
128 129 0 
129 130 0 
130 131 0 
131 132 0 
132 133 0 
133 134 0 
134 135 0 
135 136 0 
136 137 0 
137 138 0 
138 139 0 
139 140 0 
140 141 0 
141 142 0 
142 143 0 
143 144 0 
144 145 0 
145 146 0 
146 147 0 
147 148 0 
148 149 0 
149 150 0 
150 151 0 
151 152 0 
152 153 0 
153 154 0 
154 155 0 
155 156 0 
156 157 0 
157 158 0 
158 159 0 
159 160 0 
160 161 0 
161 162 0 
162 163 0 
163 164 0 
164 165 0 
165 166 0 
166 167 0 
167 168 0 
168 169 0 
169 170 0 
170 171 0 
171 172 0 
172 173 0 
173 174 0 
174 175 0 
175 176 0 
176 177 0 
177 178 0 
178 179 0 
179 180 0 
180 181 0 
181 182 0 
182 183 0 
183 184 0 
184 185 0 
185 186 0 
186 187 0 
187 188 0 
188 189 0 
189 190 0 
190 191 0 
191 192 0 
192 193 0 
193 194 0 
194 195 0 
195 196 0 
196 197 0 
197 198 0 
198 199 0 
199 200 0 
200 201 0 
201 202 0 
202 203 0 
203 204 0 
204 205 0 
205 206 0 
206 207 0 
207 208 0 
208 209 0 
209 210 0 
210 211 0 
211 212 0 
212 213 0 
213 214 0 
214 215 0 
215 216 0 
216 217 0 
217 218 0 
218 219 0 
219 220 0 
220 221 0 
221 222 0 
222 223 0 
223 224 0 
224 225 0 
225 226 0 
226 227 0 
227 228 0 
228 229 0 
229 230 0 
230 231 0 
231 232 0 
232 233 0 
233 234 0 
234 235 0 
235 236 0 
236 237 0 
237 238 0 
238 239 0 
239 240 0 
240 241 0 
241 242 0 
242 243 0 
243 244 0 
244 245 0 
245 246 0 
246 247 0 
247 248 0 
248 249 0 
249 250 0 
250 251 0 
251 252 0 
252 253 0 
253 254 0 
254 255 0 
255 256 0 
256 257 0 
257 258 0 
258 259 0 
259 260 0 
260 261 0 
261 262 0 
262 263 0 
263 264 0 
264 265 0 
265 266 0 
266 267 0 
267 268 0 
268 269 0 
269 270 0 
270 271 0 
271 272 0 
272 273 0 
273 274 0 
274 275 0 
275 276 0 
276 277 0 
277 278 0 
278 279 0 
279 280 0 
280 281 0 
281 282 0 
282 283 0 
283 284 0 
284 285 0 
285 286 0 
286 287 0 
287 288 0 
288 289 0 
289 290 0 
290 291 0 
291 292 0 
292 293 0 
293 294 0 
294 295 0 
295 296 0 
296 297 0 
297 298 0 
298 299 0 
-1 -1 0 
-1 300 0 1 2 3 4 5 6 7 8 9 10 11 12 13 14 15 16 17 18 19 20 21 22 23 24 25 26 27 28 29 30 31 32 33 34 35 36 37 38 39 40 41 42 43 44 45 46 47 48 49 50 51 52 53 54 55 56 57 58 59 60 61 62 63 64 65 66 67 68 69 70 71 72 73 74 75 76 77 78 79 80 81 82 83 84 85 86 87 88 89 90 91 92 93 94 95 96 97 98 99 100 101 102 103 104 105 106 107 108 109 110 111 112 113 114 115 116 117 118 119 120 121 122 123 124 125 126 127 128 129 130 131 132 133 134 135 136 137 138 139 140 141 142 143 144 145 146 147 148 149 150 151 152 153 154 155 156 157 158 159 160 161 162 163 164 165 166 167 168 169 170 171 172 173 174 175 176 177 178 179 180 181 182 183 184 185 186 187 188 189 190 191 192 193 194 195 196 197 198 199 200 201 202 203 204 205 206 207 208 209 210 211 212 213 214 215 216 217 218 219 220 221 222 223 224 225 226 227 228 229 230 231 232 233 234 235 236 237 238 239 240 241 242 243 244 245 246 247 248 249 250 251 252 253 254 255 256 257 258 259 260 261 262 263 264 265 266 267 268 269 270 271 272 273 274 275 276 277 278 279 280 281 282 283 284 285 286 287 288 289 290 291 292 293 294 295 296 297 298 299 
