ply
format ascii 1.0
comment written by koba@oshima.lab
element vertex 300
property float x
property float y
property float z
property int label
property int attribute
property float radius
property float curvature
property float torsion
element edge 300
property int vertex1
property int vertex2
property int label
element vertex_seq 1
property int label
property list int int vertex_indices
end_header
-3.26439 28.7191 -0.433271 0 0 1.5 0.031654 0.00981635 
-3.30955 28.4013 -0.638434 0 0 1.5 0.0311709 0.010311 
-3.35471 28.0835 -0.843598 0 0 1.5 0.0306725 0.0111673 
-3.39988 27.7656 -1.04876 0 0 1.5 0.0301489 0.0124158 
-3.44504 27.4478 -1.25392 0 0 1.5 0.0289852 0.0162603 
-3.4902 27.1299 -1.45909 0 0 1.5 0.0283204 0.0189899 
-3.53536 26.8121 -1.66425 0 0 1.5 0.0275811 0.0224066 
-3.58053 26.4943 -1.86942 0 0 1.5 0.026753 0.0266837 
-3.62569 26.1764 -2.07458 0 0 1.5 0.0247675 0.0386078 
-3.67085 25.8586 -2.27974 0 0 1.5 0.0235714 0.0471459 
-3.71601 25.5408 -2.48491 0 0 1.5 0.0222148 0.0585405 
-3.76118 25.2229 -2.69007 0 0 1.5 0.0206802 0.0741001 
-3.80634 24.9051 -2.89523 0 0 1.5 0.0170115 0.129836 
-3.8515 24.5873 -3.1004 0 0 1.5 0.0148553 0.185069 
-3.89667 24.2694 -3.30556 0 0 1.5 0.01249 0.28414 
-3.94183 23.9516 -3.51072 0 0 1.5 0.00745179 0.939647 
-3.98699 23.6338 -3.71589 0 0 1.5 0.00552013 1.86842 
-4.03215 23.3159 -3.92105 0 0 1.5 0.00558575 1.99851 
-4.07732 22.9981 -4.12621 0 0 1.5 0.00811501 1.04088 
-4.12248 22.6802 -4.33138 0 0 1.5 0.0165566 0.308854 
-4.16764 22.3624 -4.53654 0 0 1.5 0.021654 0.202869 
-4.2128 22.0446 -4.7417 0 0 1.5 0.0271814 0.145392 
-4.25797 21.7267 -4.94687 0 0 1.5 0.0330876 0.111558 
-4.30313 21.4089 -5.15203 0 0 1.5 0.0458994 0.0765371 
-4.34829 21.0911 -5.3572 0 0 1.5 0.0527141 0.0671118 
-4.39345 20.7732 -5.56236 0 0 1.5 0.059715 0.0607778 
-4.43862 20.4554 -5.76752 0 0 1.5 0.0739654 0.0540858 
-4.48378 20.1376 -5.97269 0 0 1.5 0.0810031 0.0525504 
-4.52894 19.8197 -6.17785 0 0 1.5 0.0877977 0.0520339 
-4.5741 19.5019 -6.38301 0 0 1.5 0.0941908 0.0525305 
-4.61927 19.184 -6.58818 0 0 1.5 0.105075 0.0558369 
-4.66443 18.8662 -6.79334 0 0 1.5 0.109196 0.0587516 
-4.70959 18.5484 -6.9985 0 0 1.5 0.112187 0.0628523 
-4.75475 18.2305 -7.20367 0 0 1.5 0.113881 0.0681552 
-4.79992 17.9127 -7.40883 0 0 1.5 0.112943 0.0832735 
-4.88379 17.5683 -7.54799 0 0 1.5 0.110169 0.0946268 
-4.96838 17.2234 -7.68592 0 0 1.5 0.10583 0.109672 
-5.08456 16.8701 -7.76206 0 0 1.5 0.100008 0.129704 
-5.20762 16.515 -7.82473 0 0 1.5 0.0844276 0.198481 
-5.35859 16.1661 -7.82702 0 0 1.5 0.07501 0.26062 
-5.51462 15.8189 -7.81836 0 0 1.5 0.0649028 0.358965 
-5.69323 15.4873 -7.76081 0 0 1.5 0.044889 0.798094 
-5.87694 15.1606 -7.69464 0 0 1.5 0.0373652 1.19488 
-6.07332 14.8461 -7.60704 0 0 1.5 0.0346236 1.45181 
-6.27823 14.5388 -7.51446 0 0 1.5 0.0386135 1.22791 
-6.48907 14.2363 -7.41842 0 0 1.5 0.0615291 0.553166 
-6.7119 13.9384 -7.33631 0 0 1.5 0.0767648 0.386642 
-6.93887 13.6395 -7.2739 0 0 1.5 0.0932137 0.288587 
-7.16962 13.3391 -7.24019 0 0 1.5 0.110371 0.229106 
-7.3979 13.0351 -7.26576 0 0 1.5 0.145299 0.167226 
-7.60696 12.7341 -7.36514 0 0 1.5 0.162356 0.151078 
-7.78607 12.4432 -7.52811 0 0 1.5 0.178572 0.140579 
-7.9315 12.1654 -7.74125 0 0 1.5 0.206558 0.129679 
-8.04608 11.9002 -7.98943 0 0 1.5 0.217435 0.127229 
-8.11597 11.6506 -8.26867 0 0 1.5 0.225683 0.126114 
-8.16547 11.4056 -8.55545 0 0 1.5 0.231002 0.125918 
-8.19578 11.1651 -8.84934 0 0 1.5 0.232601 0.126872 
-8.19524 10.9273 -9.14678 0 0 1.5 0.229137 0.127756 
-8.1858 10.6898 -9.4443 0 0 1.5 0.22322 0.128917 
-8.14858 10.4519 -9.73954 0 0 1.5 0.215286 0.130373 
-8.10061 10.2134 -10.0324 0 0 1.5 0.195262 0.134213 
-8.03187 9.97379 -10.3205 0 0 1.5 0.18407 0.136869 
-7.94775 9.73379 -10.6037 0 0 1.5 0.172616 0.140314 
-7.84794 9.49337 -10.8819 0 0 1.5 0.150132 0.149758 
-7.72912 9.25388 -11.1529 0 0 1.5 0.139551 0.156016 
-7.59906 9.01495 -11.4196 0 0 1.5 0.129622 0.163573 
-7.44773 8.7793 -11.6776 0 0 1.5 0.120459 0.172401 
-7.28928 8.54474 -11.9326 0 0 1.5 0.104811 0.193166 
-7.10926 8.31597 -12.1781 0 0 1.5 0.0985035 0.204308 
-6.92562 8.08818 -12.4221 0 0 1.5 0.0933337 0.214855 
-6.7223 7.86763 -12.657 0 0 1.5 0.0894113 0.223536 
-6.51777 7.64753 -12.8912 0 0 1.5 0.0857724 0.229271 
-6.2972 7.4343 -13.1171 0 0 1.5 0.0862688 0.224235 
-6.07629 7.2212 -13.3428 0 0 1.5 0.0884214 0.21392 
-5.84408 7.01254 -13.5612 0 0 1.5 0.0922863 0.199363 
-5.61165 6.80392 -13.7794 0 0 1.5 0.105268 0.16433 
-5.37134 6.59656 -13.9901 0 0 1.5 0.114452 0.14705 
-5.13093 6.38917 -14.2007 0 0 1.5 0.125518 0.131246 
-4.88474 6.17964 -14.4022 0 0 1.5 0.153726 0.105572 
-4.63844 5.96999 -14.6036 0 0 1.5 0.171184 0.0957947 
-4.38731 5.75475 -14.7927 0 0 1.5 0.191157 0.0878585 
-4.13574 5.53874 -14.9802 0 0 1.5 0.21388 0.0815639 
-3.87944 5.31445 -15.151 0 0 1.5 0.268451 0.0732261 
-3.62155 5.08692 -15.3143 0 0 1.5 0.300609 0.0708449 
-3.35921 4.85021 -15.4568 0 0 1.5 0.336035 0.0693953 
-3.09321 4.60422 -15.5722 0 0 1.5 0.374448 0.0687418 
-2.82457 4.34989 -15.6597 0 0 1.5 0.456965 0.0691781 
-2.55466 4.08213 -15.6842 0 0 1.5 0.498094 0.0696316 
-2.29969 3.81075 -15.6117 0 0 1.5 0.536167 0.0698764 
-2.08983 3.56093 -15.4231 0 0 1.5 0.591796 0.0685914 
-1.95404 3.36154 -15.1335 0 0 1.5 0.604321 0.0661883 
-1.88802 3.2147 -14.7915 0 0 1.5 0.604815 0.0623683 
-1.87106 3.10473 -14.4289 0 0 1.5 0.593498 0.0571934 
-1.8876 3.01916 -14.0584 0 0 1.5 0.542438 0.0432102 
-1.94465 2.95968 -13.6864 0 0 1.5 0.507936 0.0347649 
-2.02313 2.91137 -13.3174 0 0 1.5 0.470907 0.0256254 
-2.11855 2.87187 -12.9506 0 0 1.5 0.433396 0.0161231 
-2.2485 2.84688 -12.5935 0 0 1.5 0.362387 -0.00339897 
-2.39102 2.8267 -12.2413 0 0 1.5 0.330337 -0.0136381 
-2.5608 2.81669 -11.9004 0 0 1.5 0.300929 -0.02406 
-2.75349 2.81589 -11.5725 0 0 1.5 0.249827 -0.0454704 
-2.96135 2.82117 -11.2532 0 0 1.5 0.227779 -0.0572109 
-3.20321 2.84384 -10.96 0 0 1.5 0.207761 -0.0697732 
-3.45604 2.87423 -10.6775 0 0 1.5 0.189552 -0.0831929 
-3.7306 2.92098 -10.4175 0 0 1.5 0.157799 -0.115172 
-4.0187 2.98526 -10.1777 0 0 1.5 0.143944 -0.13491 
-4.31461 3.05965 -9.94956 0 0 1.5 0.131306 -0.157703 
-4.62045 3.164 -9.74794 0 0 1.5 0.119847 -0.184437 
-4.92658 3.27767 -9.5524 0 0 1.5 0.100542 -0.252357 
-5.23234 3.41611 -9.37214 0 0 1.5 0.0928878 -0.292548 
-5.5334 3.56973 -9.19718 0 0 1.5 0.0868033 -0.333987 
-5.82928 3.74004 -9.02807 0 0 1.5 0.0825277 -0.371814 
-6.1141 3.92872 -8.86023 0 0 1.5 0.080404 -0.408546 
-6.39278 4.12761 -8.69309 0 0 1.5 0.0829152 -0.398565 
-6.65476 4.34388 -8.52122 0 0 1.5 0.0878447 -0.372734 
-6.91097 4.56615 -8.34772 0 0 1.5 0.104515 -0.301741 
-7.14661 4.80184 -8.16366 0 0 1.5 0.116005 -0.267635 
-7.37658 5.04123 -7.9767 0 0 1.5 0.129478 -0.238059 
-7.58354 5.28876 -7.77466 0 0 1.5 0.144914 -0.213742 
-7.78404 5.53857 -7.5684 0 0 1.5 0.181863 -0.179515 
-7.95917 5.79095 -7.34371 0 0 1.5 0.203531 -0.168313 
-8.12647 6.04412 -7.11335 0 0 1.5 0.227436 -0.16042 
-8.26402 6.29389 -6.86148 0 0 1.5 0.253639 -0.155406 
-8.39268 6.54264 -6.60317 0 0 1.5 0.312702 -0.152356 
-8.48222 6.77959 -6.31938 0 0 1.5 0.345042 -0.153816 
-8.56381 7.01408 -6.03046 0 0 1.5 0.378572 -0.156937 
-8.58823 7.22154 -5.71184 0 0 1.5 0.445284 -0.166817 
-8.59181 7.41549 -5.38632 0 0 1.5 0.475602 -0.172887 
-8.54657 7.57779 -5.04461 0 0 1.5 0.501626 -0.179066 
-8.44639 7.69304 -4.69862 0 0 1.5 0.521605 -0.184843 
-8.30887 7.77193 -4.35514 0 0 1.5 0.537853 -0.193486 
-8.11514 7.78632 -4.0274 0 0 1.5 0.532973 -0.195437 
-7.88396 7.73872 -3.73209 0 0 1.5 0.519971 -0.195645 
-7.634 7.6526 -3.46065 0 0 1.5 0.500042 -0.194355 
-7.36505 7.5095 -3.23186 0 0 1.5 0.44595 -0.187769 
-7.09467 7.3292 -3.03682 0 0 1.5 0.415236 -0.182951 
-6.82344 7.12689 -2.86173 0 0 1.5 0.383954 -0.177693 
-6.56529 6.88031 -2.72968 0 0 1.5 0.353085 -0.172321 
-6.31226 6.62445 -2.60646 0 0 1.5 0.29517 -0.161893 
-6.08118 6.33607 -2.51376 0 0 1.5 0.268754 -0.157259 
-5.86199 6.03708 -2.42982 0 0 1.5 0.244127 -0.153432 
-5.66683 5.71666 -2.36357 0 0 1.5 0.200031 -0.149019 
-5.49214 5.38423 -2.30502 0 0 1.5 0.180314 -0.148753 
-5.34033 5.03838 -2.25508 0 0 1.5 0.161929 -0.150538 
-5.21695 4.68176 -2.2089 0 0 1.5 0.144726 -0.155178 
-5.1124 4.31801 -2.16522 0 0 1.5 0.11332 -0.176622 
-5.04122 3.94717 -2.11922 0 0 1.5 0.0988637 -0.197847 
-4.98265 3.57364 -2.07235 0 0 1.5 0.0851376 -0.23219 
-4.95708 3.19799 -2.0161 0 0 1.5 0.0721409 -0.287629 
-4.93762 2.82194 -1.95812 0 0 1.5 0.0488836 -0.532894 
-4.94453 2.44837 -1.88395 0 0 1.5 0.0395882 -0.781294 
-4.95354 2.07524 -1.80771 0 0 1.5 0.0334775 -1.07947 
-4.97504 1.70711 -1.71199 0 0 1.5 0.0370143 -0.92877 
-4.99609 1.34016 -1.61212 0 0 1.5 0.0457767 -0.642198 
-5.01509 0.97858 -1.49358 0 0 1.5 0.057034 -0.443842 
-5.02776 0.619666 -1.36726 0 0 1.5 0.0697725 -0.321419 
-5.02778 0.266083 -1.22538 0 0 1.5 0.0977793 -0.195192 
-5.00904 -0.0813709 -1.0717 0 0 1.5 0.112526 -0.160726 
-4.97401 -0.423501 -0.907777 0 0 1.5 0.127469 -0.135598 
-4.90062 -0.751194 -0.729208 0 0 1.5 0.142355 -0.116564 
-4.81191 -1.07249 -0.545613 0 0 1.5 0.170852 -0.0890031 
-4.67307 -1.36891 -0.350653 0 0 1.5 0.183797 -0.0778715 
-4.51189 -1.65034 -0.153314 0 0 1.5 0.195373 -0.067889 
-4.31924 -1.91065 0.0473766 0 0 1.5 0.213115 -0.050324 
-4.0944 -2.14188 0.248326 0 0 1.5 0.218748 -0.0418596 
-3.85673 -2.36151 0.44938 0 0 1.5 0.222001 -0.0336752 
-3.58683 -2.54205 0.648419 0 0 1.5 0.222875 -0.0259954 
-3.31241 -2.71564 0.847087 0 0 1.5 0.218027 -0.011335 
-3.01855 -2.85711 1.04403 0 0 1.5 0.212785 -0.00442791 
-2.72091 -2.98971 1.2408 0 0 1.5 0.206093 0.00184024 
-2.41265 -3.09741 1.43709 0 0 1.5 0.1983 0.00755972 
-2.10163 -3.19503 1.63372 0 0 1.5 0.180715 0.0174484 
-1.78496 -3.27209 1.83104 0 0 1.5 0.171467 0.0213611 
-1.46674 -3.33863 2.02919 0 0 1.5 0.162196 0.0245271 
-1.14584 -3.38704 2.22877 0 0 1.5 0.15305 0.0269085 
-0.824437 -3.42425 2.42945 0 0 1.5 0.135505 0.028995 
-0.502265 -3.44461 2.63179 0 0 1.5 0.127193 0.0284536 
-0.180542 -3.45229 2.83522 0 0 1.5 0.119198 0.0266135 
0.140623 -3.44416 3.04001 0 0 1.5 0.104051 0.0191852 
0.460281 -3.42105 3.24549 0 0 1.5 0.0968069 0.013274 
0.778526 -3.38388 3.45162 0 0 1.5 0.08971 0.00526953 
1.09395 -3.32879 3.65758 0 0 1.5 0.0827041 -0.00505564 
1.40763 -3.26256 3.86342 0 0 1.5 0.0687765 -0.0352495 
1.71704 -3.17606 4.06784 0 0 1.5 0.0617814 -0.058749 
2.02497 -3.08252 4.27176 0 0 1.5 0.0547375 -0.0916535 
2.32765 -2.96843 4.4729 0 0 1.5 0.0476602 -0.139388 
2.62948 -2.85106 4.67356 0 0 1.5 0.0337013 -0.335623 
2.92679 -2.71737 4.87075 0 0 1.5 0.0272287 -0.54605 
3.22372 -2.58197 5.06731 0 0 1.5 0.0218128 -0.888751 
3.51902 -2.43927 5.26117 0 0 1.5 0.0191904 -1.21659 
3.8149 -2.29654 5.45413 0 0 1.5 0.0232645 -0.846184 
4.11191 -2.15377 5.64533 0 0 1.5 0.0295152 -0.537451 
4.41169 -2.01555 5.83545 0 0 1.5 0.0368488 -0.353854 
4.71433 -1.88202 6.02447 0 0 1.5 0.0526951 -0.186947 
5.02278 -1.76056 6.21199 0 0 1.5 0.0606853 -0.149246 
5.33431 -1.64552 6.39872 0 0 1.5 0.0684976 -0.125863 
5.65453 -1.55261 6.58271 0 0 1.5 0.0759983 -0.111522 
5.97663 -1.46449 6.76611 0 0 1.5 0.0896168 -0.0985174 
6.30878 -1.40977 6.94452 0 0 1.5 0.0955621 -0.096943 
6.64224 -1.36149 7.12176 0 0 1.5 0.100837 -0.097746 
6.98196 -1.34419 7.29335 0 0 1.5 0.109221 -0.103843 
7.3229 -1.33938 7.46233 0 0 1.5 0.11234 -0.108474 
7.66633 -1.36015 7.62595 0 0 1.5 0.114783 -0.11406 
8.00953 -1.39745 7.78607 0 0 1.5 0.116614 -0.120137 
8.35244 -1.45437 7.94203 0 0 1.5 0.118848 -0.132188 
8.69292 -1.52922 8.09482 0 0 1.5 0.119493 -0.137921 
9.0314 -1.6188 8.24501 0 0 1.5 0.12 -0.14289 
9.36521 -1.72565 8.39364 0 0 1.5 0.120512 -0.146537 
9.69594 -1.84391 8.54123 0 0 1.5 0.122095 -0.149007 
10.0199 -1.97795 8.68985 0 0 1.5 0.123406 -0.147375 
10.3397 -2.12147 8.8391 0 0 1.5 0.12519 -0.143592 
10.6504 -2.27934 8.99244 0 0 1.5 0.127515 -0.13774 
10.9558 -2.44559 9.14817 0 0 1.5 0.133918 -0.120788 
11.249 -2.62551 9.31122 0 0 1.5 0.137993 -0.110562 
11.5354 -2.81302 9.47834 0 0 1.5 0.142603 -0.0995983 
11.8049 -3.01462 9.65616 0 0 1.5 0.153149 -0.0766231 
12.0664 -3.22285 9.83901 0 0 1.5 0.158888 -0.0653912 
12.3028 -3.44665 10.036 0 0 1.5 0.164775 -0.0544579 
12.5315 -3.67534 10.2374 0 0 1.5 0.170659 -0.0437901 
12.7225 -3.9217 10.4559 0 0 1.5 0.181769 -0.0242855 
12.9049 -4.1716 10.6777 0 0 1.5 0.186663 -0.015506 
13.0406 -4.43777 10.9141 0 0 1.5 0.190883 -0.00717554 
13.1585 -4.70838 11.1534 0 0 1.5 0.194258 0.000580721 
13.2369 -4.98878 11.3991 0 0 1.5 0.197963 0.0141176 
13.2822 -5.27454 11.6452 0 0 1.5 0.198091 0.0201411 
13.3014 -5.56453 11.8916 0 0 1.5 0.196987 0.025668 
13.2753 -5.85855 12.1314 0 0 1.5 0.191154 0.0351097 
13.2369 -6.15359 12.3692 0 0 1.5 0.186544 0.0391518 
13.1499 -6.45006 12.5921 0 0 1.5 0.180928 0.0428177 
13.0541 -6.74635 12.8108 0 0 1.5 0.174446 0.0461359 
12.9255 -7.04195 13.0139 0 0 1.5 0.159486 0.0517806 
12.7849 -7.33678 13.209 0 0 1.5 0.151297 0.0542725 
12.6228 -7.6302 13.3901 0 0 1.5 0.142825 0.056745 
12.4486 -7.92234 13.5609 0 0 1.5 0.134203 0.0591739 
12.2604 -8.213 13.7198 0 0 1.5 0.116932 0.0639623 
12.0617 -8.50209 13.8678 0 0 1.5 0.108452 0.0667271 
11.854 -8.78986 14.0064 0 0 1.5 0.100164 0.0697853 
11.6379 -9.07597 14.1346 0 0 1.5 0.0921168 0.0730843 
11.416 -9.36095 14.2558 0 0 1.5 0.0768785 0.0815057 
11.1878 -9.64438 14.3684 0 0 1.5 0.0697371 0.0870124 
10.9559 -9.92692 14.476 0 0 1.5 0.0629406 0.093405 
10.7199 -10.2082 14.5775 0 0 1.5 0.050433 0.110891 
10.4818 -10.4888 14.676 0 0 1.5 0.0447368 0.123066 
10.2437 -10.7695 14.7744 0 0 1.5 0.0394281 0.138041 
10.0055 -11.0501 14.8729 0 0 1.5 0.0345212 0.156793 
9.76742 -11.3307 14.9713 0 0 1.5 0.0259543 0.211272 
9.52929 -11.6114 15.0698 0 0 1.5 0.0223337 0.248803 
9.29117 -11.892 15.1682 0 0 1.5 0.0191926 0.293819 
9.05304 -12.1726 15.2667 0 0 1.5 0.0165564 0.345179 
8.81492 -12.4533 15.3651 0 0 1.5 0.0128901 0.436142 
8.5768 -12.7339 15.4636 0 0 1.5 0.011853 0.451551 
8.33867 -13.0145 15.562 0 0 1.5 0.0112666 0.438704 
8.10055 -13.2952 15.6605 0 0 1.5 0.0109874 0.356253 
7.86242 -13.5758 15.7589 0 0 1.5 0.0110553 0.30941 
7.6243 -13.8564 15.8574 0 0 1.5 0.0111353 0.269132 
7.38617 -14.1371 15.9558 0 0 1.5 0.0111699 0.236589 
7.14805 -14.4177 16.0543 0 0 1.5 0.0109871 0.191579 
6.90993 -14.6983 16.1527 0 0 1.5 0.0107464 0.177806 
6.6718 -14.979 16.2512 0 0 1.5 0.0104062 0.168522 
6.43368 -15.2596 16.3496 0 0 1.5 0.00997525 0.162716 
6.19555 -15.5402 16.4481 0 0 1.5 0.00889227 0.16162 
5.95743 -15.8209 16.5465 0 0 1.5 0.00827005 0.166347 
5.7193 -16.1015 16.645 0 0 1.5 0.00761757 0.174125 
5.48118 -16.3821 16.7434 0 0 1.5 0.00629102 0.201592 
5.24306 -16.6628 16.8419 0 0 1.5 0.00564714 0.22267 
5.00493 -16.9434 16.9403 0 0 1.5 0.00503751 0.248368 
4.76681 -17.2241 17.0388 0 0 1.5 0.00447753 0.278757 
4.52868 -17.5047 17.1372 0 0 1.5 0.00355319 0.349553 
4.29056 -17.7853 17.2357 0 0 1.5 0.00320907 0.37965 
4.05243 -18.066 17.3341 0 0 1.5 0.00295033 0.397468 
3.81431 -18.3466 17.4326 0 0 1.5 0.00277237 0.399235 
3.57619 -18.6272 17.531 0 0 1.5 0.00260948 0.353698 
3.33806 -18.9079 17.6295 0 0 1.5 0.0025896 0.317571 
3.09994 -19.1885 17.7279 0 0 1.5 0.00258714 0.282142 
2.86181 -19.4691 17.8264 0 0 1.5 0.00258861 0.250155 
2.62369 -19.7498 17.9248 0 0 1.5 0.00256747 0.199908 
2.38556 -20.0304 18.0233 0 0 1.5 0.00253475 0.182885 
2.14744 -20.311 18.1217 0 0 1.5 0.00248501 0.170301 
1.90932 -20.5917 18.2202 0 0 1.5 0.0023375 0.155123 
1.67119 -20.8723 18.3186 0 0 1.5 0.00224299 0.15229 
1.43307 -21.1529 18.4171 0 0 1.5 0.00213764 0.15213 
1.19494 -21.4336 18.5155 0 0 1.5 0.00202431 0.154121 
0.956819 -21.7142 18.614 0 0 1.5 0.00178564 0.165341 
0.718694 -21.9948 18.7124 0 0 1.5 0.00166621 0.174468 
0.48057 -22.2755 18.8109 0 0 1.5 0.00155099 0.184957 
0.242446 -22.5561 18.9093 0 0 1.5 0.00144301 0.196339 
0.00432138 -22.8367 19.0078 0 0 1.5 0.00125692 0.219213 
-0.233803 -23.1174 19.1062 0 0 1.5 0.00118229 0.227053 
-0.471927 -23.398 19.2047 0 0 1.5 0.00112145 0.230431 
-0.710052 -23.6786 19.3031 0 0 1.5 0.00103953 0.221833 
-0.948176 -23.9593 19.4016 0 0 1.5 0.00101638 0.209074 
-1.1863 -24.2399 19.5 0 0 1.5 0.00100305 0.192188 
-1.42442 -24.5206 19.5985 0 0 1.5 0.000997414 0.173418 
-1.66255 -24.8012 19.6969 0 0 1.5 0.00100172 0.13483 
-1.90067 -25.0818 19.7954 0 0 1.5 0.00100879 0.116956 
-2.1388 -25.3625 19.8938 0 0 1.5 0.00101757 0.10124 
-2.37692 -25.6431 19.9923 0 0 1.5 0.00102728 0.0878227 
-2.61505 -25.9237 20.0907 0 0 1.5 0.00104791 0.0677572 
-2.85317 -26.2044 20.1892 0 0 1.5 0.00105849 0.0609655 
-3.09129 -26.485 20.2876 0 0 1.5 0.00106923 0.0561985 
0 1 0 
1 2 0 
2 3 0 
3 4 0 
4 5 0 
5 6 0 
6 7 0 
7 8 0 
8 9 0 
9 10 0 
10 11 0 
11 12 0 
12 13 0 
13 14 0 
14 15 0 
15 16 0 
16 17 0 
17 18 0 
18 19 0 
19 20 0 
20 21 0 
21 22 0 
22 23 0 
23 24 0 
24 25 0 
25 26 0 
26 27 0 
27 28 0 
28 29 0 
29 30 0 
30 31 0 
31 32 0 
32 33 0 
33 34 0 
34 35 0 
35 36 0 
36 37 0 
37 38 0 
38 39 0 
39 40 0 
40 41 0 
41 42 0 
42 43 0 
43 44 0 
44 45 0 
45 46 0 
46 47 0 
47 48 0 
48 49 0 
49 50 0 
50 51 0 
51 52 0 
52 53 0 
53 54 0 
54 55 0 
55 56 0 
56 57 0 
57 58 0 
58 59 0 
59 60 0 
60 61 0 
61 62 0 
62 63 0 
63 64 0 
64 65 0 
65 66 0 
66 67 0 
67 68 0 
68 69 0 
69 70 0 
70 71 0 
71 72 0 
72 73 0 
73 74 0 
74 75 0 
75 76 0 
76 77 0 
77 78 0 
78 79 0 
79 80 0 
80 81 0 
81 82 0 
82 83 0 
83 84 0 
84 85 0 
85 86 0 
86 87 0 
87 88 0 
88 89 0 
89 90 0 
90 91 0 
91 92 0 
92 93 0 
93 94 0 
94 95 0 
95 96 0 
96 97 0 
97 98 0 
98 99 0 
99 100 0 
100 101 0 
101 102 0 
102 103 0 
103 104 0 
104 105 0 
105 106 0 
106 107 0 
107 108 0 
108 109 0 
109 110 0 
110 111 0 
111 112 0 
112 113 0 
113 114 0 
114 115 0 
115 116 0 
116 117 0 
117 118 0 
118 119 0 
119 120 0 
120 121 0 
121 122 0 
122 123 0 
123 124 0 
124 125 0 
125 126 0 
126 127 0 
127 128 0 
128 129 0 
129 130 0 
130 131 0 
131 132 0 
132 133 0 
133 134 0 
134 135 0 
135 136 0 
136 137 0 
137 138 0 
138 139 0 
139 140 0 
140 141 0 
141 142 0 
142 143 0 
143 144 0 
144 145 0 
145 146 0 
146 147 0 
147 148 0 
148 149 0 
149 150 0 
150 151 0 
151 152 0 
152 153 0 
153 154 0 
154 155 0 
155 156 0 
156 157 0 
157 158 0 
158 159 0 
159 160 0 
160 161 0 
161 162 0 
162 163 0 
163 164 0 
164 165 0 
165 166 0 
166 167 0 
167 168 0 
168 169 0 
169 170 0 
170 171 0 
171 172 0 
172 173 0 
173 174 0 
174 175 0 
175 176 0 
176 177 0 
177 178 0 
178 179 0 
179 180 0 
180 181 0 
181 182 0 
182 183 0 
183 184 0 
184 185 0 
185 186 0 
186 187 0 
187 188 0 
188 189 0 
189 190 0 
190 191 0 
191 192 0 
192 193 0 
193 194 0 
194 195 0 
195 196 0 
196 197 0 
197 198 0 
198 199 0 
199 200 0 
200 201 0 
201 202 0 
202 203 0 
203 204 0 
204 205 0 
205 206 0 
206 207 0 
207 208 0 
208 209 0 
209 210 0 
210 211 0 
211 212 0 
212 213 0 
213 214 0 
214 215 0 
215 216 0 
216 217 0 
217 218 0 
218 219 0 
219 220 0 
220 221 0 
221 222 0 
222 223 0 
223 224 0 
224 225 0 
225 226 0 
226 227 0 
227 228 0 
228 229 0 
229 230 0 
230 231 0 
231 232 0 
232 233 0 
233 234 0 
234 235 0 
235 236 0 
236 237 0 
237 238 0 
238 239 0 
239 240 0 
240 241 0 
241 242 0 
242 243 0 
243 244 0 
244 245 0 
245 246 0 
246 247 0 
247 248 0 
248 249 0 
249 250 0 
250 251 0 
251 252 0 
252 253 0 
253 254 0 
254 255 0 
255 256 0 
256 257 0 
257 258 0 
258 259 0 
259 260 0 
260 261 0 
261 262 0 
262 263 0 
263 264 0 
264 265 0 
265 266 0 
266 267 0 
267 268 0 
268 269 0 
269 270 0 
270 271 0 
271 272 0 
272 273 0 
273 274 0 
274 275 0 
275 276 0 
276 277 0 
277 278 0 
278 279 0 
279 280 0 
280 281 0 
281 282 0 
282 283 0 
283 284 0 
284 285 0 
285 286 0 
286 287 0 
287 288 0 
288 289 0 
289 290 0 
290 291 0 
291 292 0 
292 293 0 
293 294 0 
294 295 0 
295 296 0 
296 297 0 
297 298 0 
298 299 0 
-1 -1 0 
-1 300 0 1 2 3 4 5 6 7 8 9 10 11 12 13 14 15 16 17 18 19 20 21 22 23 24 25 26 27 28 29 30 31 32 33 34 35 36 37 38 39 40 41 42 43 44 45 46 47 48 49 50 51 52 53 54 55 56 57 58 59 60 61 62 63 64 65 66 67 68 69 70 71 72 73 74 75 76 77 78 79 80 81 82 83 84 85 86 87 88 89 90 91 92 93 94 95 96 97 98 99 100 101 102 103 104 105 106 107 108 109 110 111 112 113 114 115 116 117 118 119 120 121 122 123 124 125 126 127 128 129 130 131 132 133 134 135 136 137 138 139 140 141 142 143 144 145 146 147 148 149 150 151 152 153 154 155 156 157 158 159 160 161 162 163 164 165 166 167 168 169 170 171 172 173 174 175 176 177 178 179 180 181 182 183 184 185 186 187 188 189 190 191 192 193 194 195 196 197 198 199 200 201 202 203 204 205 206 207 208 209 210 211 212 213 214 215 216 217 218 219 220 221 222 223 224 225 226 227 228 229 230 231 232 233 234 235 236 237 238 239 240 241 242 243 244 245 246 247 248 249 250 251 252 253 254 255 256 257 258 259 260 261 262 263 264 265 266 267 268 269 270 271 272 273 274 275 276 277 278 279 280 281 282 283 284 285 286 287 288 289 290 291 292 293 294 295 296 297 298 299 
