ply
format ascii 1.0
comment written by koba@oshima.lab
element vertex 300
property float x
property float y
property float z
property int label
property int attribute
property float radius
property float curvature
property float torsion
element edge 300
property int vertex1
property int vertex2
property int label
element vertex_seq 1
property int label
property list int int vertex_indices
end_header
4.06413 28.3268 -7.94362 0 0 1.5 0.00128096 -0.00149507 
3.77071 28.054 -7.83367 0 0 1.5 0.00128132 -0.00185312 
3.47729 27.7811 -7.72372 0 0 1.5 0.00128059 -0.0218622 
3.18388 27.5083 -7.61377 0 0 1.5 0.00127676 -0.0619348 
2.89046 27.2354 -7.50382 0 0 1.5 0.00125677 -0.214619 
2.59704 26.9626 -7.39387 0 0 1.5 0.00124565 -0.343836 
2.30363 26.6897 -7.28392 0 0 1.5 0.00124973 -0.501094 
2.01021 26.4169 -7.17397 0 0 1.5 0.00129915 -0.644019 
1.71679 26.144 -7.06402 0 0 1.5 0.00171037 -0.632558 
1.42338 25.8712 -6.95407 0 0 1.5 0.00214011 -0.504976 
1.12996 25.5983 -6.84412 0 0 1.5 0.00273638 -0.37868 
0.836543 25.3254 -6.73417 0 0 1.5 0.00349991 -0.278403 
0.543127 25.0526 -6.62422 0 0 1.5 0.00550186 -0.156201 
0.24971 24.7797 -6.51427 0 0 1.5 0.00672868 -0.121649 
-0.0437065 24.5069 -6.40432 0 0 1.5 0.00809773 -0.0972708 
-0.337123 24.234 -6.29437 0 0 1.5 0.0111853 -0.0678825 
-0.63054 23.9612 -6.18442 0 0 1.5 0.0128615 -0.0594186 
-0.923956 23.6883 -6.07447 0 0 1.5 0.0145942 -0.0535306 
-1.21737 23.4155 -5.96452 0 0 1.5 0.0163436 -0.0496652 
-1.51079 23.1426 -5.85457 0 0 1.5 0.0197217 -0.0468422 
-1.80421 22.8698 -5.74462 0 0 1.5 0.0212641 -0.0474924 
-2.09762 22.5969 -5.63467 0 0 1.5 0.0226385 -0.0495139 
-2.39104 22.3241 -5.52472 0 0 1.5 0.0237884 -0.0531165 
-2.68446 22.0512 -5.41477 0 0 1.5 0.0252027 -0.0665783 
-2.97787 21.7784 -5.30482 0 0 1.5 0.0253624 -0.077845 
-3.27129 21.5055 -5.19487 0 0 1.5 0.0250904 -0.0940567 
-3.56471 21.2327 -5.08492 0 0 1.5 0.0230979 -0.154179 
-3.85812 20.9598 -4.97497 0 0 1.5 0.0213489 -0.211264 
-4.15154 20.687 -4.86502 0 0 1.5 0.0191364 -0.306727 
-4.44496 20.4141 -4.75507 0 0 1.5 0.0165805 -0.475586 
-4.73837 20.1413 -4.64512 0 0 1.5 0.0122384 -1.1619 
-5.03099 19.8682 -4.53396 0 0 1.5 0.0126199 -1.24981 
-5.3011 19.5879 -4.38849 0 0 1.5 0.0159292 -0.894538 
-5.5712 19.3077 -4.24303 0 0 1.5 0.0216444 -0.547879 
-5.82309 19.0235 -4.07467 0 0 1.5 0.0377671 -0.22129 
-6.07447 18.7391 -3.90569 0 0 1.5 0.0476204 -0.151635 
-6.31391 18.4517 -3.7248 0 0 1.5 0.0585442 -0.10721 
-6.55269 18.1642 -3.54327 0 0 1.5 0.0704688 -0.0767258 
-6.78582 17.8732 -3.36001 0 0 1.5 0.0970504 -0.0378206 
-7.01902 17.5815 -3.17797 0 0 1.5 0.111537 -0.0242565 
-7.25346 17.2851 -3.00524 0 0 1.5 0.126616 -0.0127502 
-7.49092 16.9859 -2.84248 0 0 1.5 0.157495 0.00749622 
-7.73342 16.6818 -2.69633 0 0 1.5 0.172561 0.0170151 
-7.9855 16.3705 -2.588 0 0 1.5 0.186778 0.0262462 
-8.24349 16.055 -2.5155 0 0 1.5 0.199615 0.0356622 
-8.50781 15.7353 -2.49372 0 0 1.5 0.218871 0.0560509 
-8.76797 15.4197 -2.56674 0 0 1.5 0.224374 0.0664675 
-9.01026 15.117 -2.70944 0 0 1.5 0.226781 0.0772328 
-9.22992 14.8288 -2.90835 0 0 1.5 0.226023 0.0886751 
-9.42726 14.5543 -3.14976 0 0 1.5 0.21583 0.112414 
-9.58308 14.2985 -3.43777 0 0 1.5 0.207347 0.124393 
-9.72098 14.0474 -3.73766 0 0 1.5 0.197362 0.136575 
-9.83688 13.8018 -4.05214 0 0 1.5 0.175179 0.160631 
-9.9251 13.5573 -4.37585 0 0 1.5 0.164053 0.171565 
-10.0041 13.3132 -4.70262 0 0 1.5 0.153469 0.180871 
-10.0512 13.0638 -5.03146 0 0 1.5 0.143722 0.187956 
-10.0951 12.8137 -5.3603 0 0 1.5 0.12746 0.192022 
-10.1077 12.5534 -5.68392 0 0 1.5 0.121103 0.186675 
-10.1182 12.2922 -6.00675 0 0 1.5 0.115902 0.176254 
-10.1004 12.0189 -6.3192 0 0 1.5 0.111745 0.161579 
-10.0799 11.7445 -6.63028 0 0 1.5 0.105956 0.120422 
-10.0327 11.458 -6.92746 0 0 1.5 0.10398 0.0962122 
-9.98241 11.1702 -7.22275 0 0 1.5 0.102376 0.0720615 
-9.90658 10.8726 -7.50252 0 0 1.5 0.0996952 0.0249774 
-9.82664 10.5739 -7.77979 0 0 1.5 0.0983958 0.00331533 
-9.72225 10.2691 -8.04221 0 0 1.5 0.0970151 -0.0156259 
-9.61196 9.96412 -8.30156 0 0 1.5 0.095505 -0.0319616 
-9.47866 9.6581 -8.54898 0 0 1.5 0.0920102 -0.0565894 
-9.33689 9.35375 -8.7933 0 0 1.5 0.0900081 -0.0637706 
-9.17448 9.05344 -9.0301 0 0 1.5 0.0878317 -0.0673386 
-9.0008 8.75834 -9.26491 0 0 1.5 0.0854813 -0.0672578 
-8.81009 8.47109 -9.49674 0 0 1.5 0.0802497 -0.0565155 
-8.60618 8.19392 -9.72905 0 0 1.5 0.0773612 -0.0456441 
-8.38972 7.92634 -9.96182 0 0 1.5 0.0742947 -0.0305591 
-8.16023 7.67359 -10.1981 0 0 1.5 0.0710682 -0.011584 
-7.92254 7.43018 -10.4366 0 0 1.5 0.0643457 0.0388361 
-7.67424 7.20415 -10.6809 0 0 1.5 0.0610643 0.0728494 
-7.42091 6.98638 -10.9279 0 0 1.5 0.0580972 0.112399 
-7.16052 6.78501 -11.1811 0 0 1.5 0.0545154 0.195883 
-6.89688 6.59119 -11.4372 0 0 1.5 0.0548864 0.228016 
-6.62921 6.40965 -11.6978 0 0 1.5 0.0574595 0.241045 
-6.35908 6.23555 -11.9611 0 0 1.5 0.0627027 0.23151 
-6.08653 6.06853 -12.2264 0 0 1.5 0.082348 0.175423 
-5.81153 5.90861 -12.4937 0 0 1.5 0.0972309 0.145289 
-5.53464 5.75143 -12.7606 0 0 1.5 0.115917 0.119243 
-5.25416 5.59947 -13.0268 0 0 1.5 0.138962 0.0982368 
-4.97194 5.44781 -13.2913 0 0 1.5 0.201969 0.0691115 
-4.68332 5.29725 -13.5495 0 0 1.5 0.244865 0.0592562 
-4.39234 5.14567 -13.8043 0 0 1.5 0.298212 0.0515629 
-4.09098 4.98949 -14.0439 0 0 1.5 0.449477 0.0403709 
-3.78309 4.82854 -14.2708 0 0 1.5 0.556217 0.0358848 
-3.46273 4.65844 -14.4735 0 0 1.5 0.690254 0.0313464 
-3.12374 4.46997 -14.6185 0 0 1.5 0.854499 0.0259843 
-2.7754 4.26235 -14.6654 0 0 1.5 1.24332 0.00949331 
-2.47626 4.05487 -14.5063 0 0 1.5 1.40987 -0.00296007 
-2.33714 3.91537 -14.1541 0 0 1.5 1.49259 -0.0176391 
-2.32342 3.84297 -13.7497 0 0 1.5 1.45937 -0.0321126 
-2.36811 3.80434 -13.3403 0 0 1.5 1.13996 -0.0524649 
-2.45597 3.79157 -12.9344 0 0 1.5 0.948299 -0.0584505 
-2.57736 3.8 -12.5379 0 0 1.5 0.77675 -0.0626508 
-2.71187 3.81672 -12.1452 0 0 1.5 0.519222 -0.0690101 
-2.87644 3.85447 -11.766 0 0 1.5 0.428152 -0.0728584 
-3.0475 3.89675 -11.3897 0 0 1.5 0.355969 -0.0776054 
-3.2432 3.95952 -11.0291 0 0 1.5 0.298473 -0.0834191 
-3.44589 4.0281 -10.673 0 0 1.5 0.214887 -0.100427 
-3.66753 4.11729 -10.3338 0 0 1.5 0.184241 -0.112726 
-3.89817 4.21624 -10.0027 0 0 1.5 0.158886 -0.128338 
-4.14209 4.33654 -9.68963 0 0 1.5 0.137726 -0.148469 
-4.39528 4.47172 -9.3892 0 0 1.5 0.10503 -0.208684 
-4.65582 4.62984 -9.10819 0 0 1.5 0.0926089 -0.251249 
-4.92235 4.80658 -8.84295 0 0 1.5 0.0825795 -0.302621 
-5.18897 5.00867 -8.59814 0 0 1.5 0.0750041 -0.359814 
-5.45565 5.22929 -8.36826 0 0 1.5 0.0682252 -0.446827 
-5.71256 5.47726 -8.15729 0 0 1.5 0.0696213 -0.448842 
-5.9644 5.73944 -7.95612 0 0 1.5 0.0743362 -0.421062 
-6.19393 6.02873 -7.76672 0 0 1.5 0.0930857 -0.326751 
-6.41718 6.32566 -7.58064 0 0 1.5 0.106785 -0.282097 
-6.60295 6.64541 -7.39155 0 0 1.5 0.123284 -0.245413 
-6.77908 6.96808 -7.19891 0 0 1.5 0.142694 -0.216775 
-6.91324 7.29922 -6.98682 0 0 1.5 0.191361 -0.178546 
-7.02345 7.62629 -6.75814 0 0 1.5 0.2214 -0.166675 
-7.10021 7.9477 -6.50627 0 0 1.5 0.255864 -0.1586 
-7.12904 8.2423 -6.21711 0 0 1.5 0.295261 -0.153606 
-7.13206 8.5179 -5.90847 0 0 1.5 0.390075 -0.150115 
-7.08212 8.74115 -5.56163 0 0 1.5 0.44509 -0.150847 
-6.99681 8.9119 -5.19623 0 0 1.5 0.503761 -0.152762 
-6.8855 9.04144 -4.81874 0 0 1.5 0.620367 -0.156473 
-6.73236 9.08315 -4.43476 0 0 1.5 0.668727 -0.156796 
-6.5598 9.06723 -4.06088 0 0 1.5 0.702839 -0.155412 
-6.37136 9.00165 -3.69752 0 0 1.5 0.717896 -0.151624 
-6.16327 8.84436 -3.37412 0 0 1.5 0.685094 -0.137216 
-5.95136 8.63408 -3.0906 0 0 1.5 0.64266 -0.128381 
-5.73784 8.3785 -2.84467 0 0 1.5 0.590037 -0.119533 
-5.53345 8.05857 -2.67585 0 0 1.5 0.532739 -0.111403 
-5.34401 7.71076 -2.56088 0 0 1.5 0.42014 -0.099472 
-5.16523 7.34409 -2.48325 0 0 1.5 0.369526 -0.0961583 
-5.01764 6.95572 -2.47883 0 0 1.5 0.32391 -0.0948523 
-4.88123 6.56469 -2.49304 0 0 1.5 0.283304 -0.0956493 
-4.76605 6.16858 -2.54266 0 0 1.5 0.215839 -0.104176 
-4.66672 5.77149 -2.61047 0 0 1.5 0.18804 -0.112856 
-4.58061 5.37357 -2.69341 0 0 1.5 0.163532 -0.125429 
-4.51036 4.97508 -2.78668 0 0 1.5 0.122726 -0.167197 
-4.44883 4.57626 -2.88562 0 0 1.5 0.105807 -0.200709 
-4.40081 4.17603 -2.98589 0 0 1.5 0.0909485 -0.246887 
-4.35939 3.77512 -3.0868 0 0 1.5 0.0780933 -0.309595 
-4.32839 3.3718 -3.18124 0 0 1.5 0.0589696 -0.486966 
-4.30283 2.96722 -3.27232 0 0 1.5 0.0533875 -0.57612 
-4.28467 2.55977 -3.35073 0 0 1.5 0.0509807 -0.622517 
-4.27092 2.1506 -3.42161 0 0 1.5 0.0518328 -0.602368 
-4.26184 1.73891 -3.47482 0 0 1.5 0.0615127 -0.446902 
-4.25588 1.32554 -3.51631 0 0 1.5 0.0690284 -0.370911 
-4.25211 0.910938 -3.53591 0 0 1.5 0.0776109 -0.31082 
-4.24986 0.495478 -3.54023 0 0 1.5 0.0966212 -0.233196 
-4.24729 0.0810726 -3.51908 0 0 1.5 0.106609 -0.209694 
-4.24448 -0.332611 -3.4805 0 0 1.5 0.116712 -0.192906 
-4.23848 -0.74203 -3.41378 0 0 1.5 0.126791 -0.18112 
-4.23045 -1.14875 -3.32924 0 0 1.5 0.146354 -0.167576 
-4.21569 -1.54728 -3.21508 0 0 1.5 0.155607 -0.164024 
-4.19717 -1.94122 -3.08434 0 0 1.5 0.164346 -0.161868 
-4.16732 -2.32249 -2.92364 0 0 1.5 0.172452 -0.160585 
-4.13216 -2.6978 -2.74891 0 0 1.5 0.186379 -0.158785 
-4.07941 -3.05504 -2.54472 0 0 1.5 0.192022 -0.157719 
-4.02039 -3.40582 -2.33002 0 0 1.5 0.196682 -0.15626 
-3.93508 -3.73126 -2.08716 0 0 1.5 0.202881 -0.151377 
-3.844 -4.05112 -1.83812 0 0 1.5 0.20436 -0.147717 
-3.7149 -4.33501 -1.56396 0 0 1.5 0.204733 -0.143321 
-3.57841 -4.61173 -1.2865 0 0 1.5 0.204027 -0.138256 
-3.40005 -4.84747 -0.994522 0 0 1.5 0.199519 -0.125894 
-3.20648 -5.06704 -0.701519 0 0 1.5 0.195795 -0.118926 
-2.97911 -5.25072 -0.406232 0 0 1.5 0.191188 -0.111831 
-2.72783 -5.406 -0.116183 0 0 1.5 0.185794 -0.104509 
-2.45532 -5.53608 0.169216 0 0 1.5 0.172988 -0.0891594 
-2.15593 -5.63004 0.440062 0 0 1.5 0.165781 -0.0815555 
-1.84686 -5.71102 0.705672 0 0 1.5 0.158193 -0.0738522 
-1.5138 -5.75572 0.949482 0 0 1.5 0.150323 -0.0658252 
-1.1779 -5.7961 1.19063 0 0 1.5 0.134087 -0.0495382 
-0.824238 -5.80674 1.40844 0 0 1.5 0.125904 -0.0411623 
-0.469817 -5.81601 1.62494 0 0 1.5 0.117782 -0.0322028 
-0.104718 -5.80597 1.82301 0 0 1.5 0.10194 -0.012798 
0.260927 -5.79485 2.01993 0 0 1.5 0.0943103 -0.00212641 
0.632834 -5.77135 2.20368 0 0 1.5 0.0869263 0.00968391 
1.00499 -5.74723 2.38683 0 0 1.5 0.0798177 0.0227082 
1.38033 -5.71514 2.56208 0 0 1.5 0.0664691 0.0527658 
1.75573 -5.68271 2.73717 0 0 1.5 0.0602533 0.0705039 
2.1319 -5.64482 2.90948 0 0 1.5 0.0543593 0.0905144 
2.50799 -5.60665 3.08189 0 0 1.5 0.0487767 0.113285 
2.88283 -5.56392 3.25597 0 0 1.5 0.0385138 0.169884 
3.25742 -5.52077 3.43045 0 0 1.5 0.0338285 0.206604 
3.62914 -5.47273 3.60975 0 0 1.5 0.029425 0.253504 
4.00033 -5.42389 3.7899 0 0 1.5 0.0214588 0.403081 
4.36757 -5.36903 3.97633 0 0 1.5 0.0179568 0.532299 
4.73391 -5.31275 4.16404 0 0 1.5 0.0149078 0.727968 
5.09594 -5.24963 4.35789 0 0 1.5 0.0125667 0.990083 
5.45677 -5.18444 4.55323 0 0 1.5 0.011716 1.16247 
5.81364 -5.11247 4.75346 0 0 1.5 0.0136214 0.90351 
6.16931 -5.03832 4.95498 0 0 1.5 0.0166963 0.642994 
6.52201 -4.95881 5.15972 0 0 1.5 0.0205742 0.457756 
6.87387 -4.87798 5.36535 0 0 1.5 0.0299935 0.250155 
7.22404 -4.79449 5.5728 0 0 1.5 0.0353674 0.190967 
7.57404 -4.71163 5.7808 0 0 1.5 0.0411457 0.147662 
7.92373 -4.62995 5.9898 0 0 1.5 0.0538889 0.0889828 
8.27388 -4.55172 6.19928 0 0 1.5 0.0608269 0.0683777 
8.62486 -4.47958 6.40962 0 0 1.5 0.0681352 0.0514954 
8.97654 -4.41426 6.62081 0 0 1.5 0.0758112 0.0376901 
9.32943 -4.36071 6.83348 0 0 1.5 0.092169 0.0171507 
9.68254 -4.31805 7.0478 0 0 1.5 0.100787 0.00920479 
10.036 -4.29294 7.26477 0 0 1.5 0.109645 0.00263831 
10.3878 -4.28413 7.4847 0 0 1.5 0.118678 -0.00256928 
10.7376 -4.2973 7.70861 0 0 1.5 0.136914 -0.0102847 
11.0816 -4.33429 7.93739 0 0 1.5 0.145888 -0.0129964 
11.42 -4.39434 8.17089 0 0 1.5 0.15459 -0.0148435 
11.7442 -4.488 8.41156 0 0 1.5 0.162862 -0.0159939 
12.0604 -4.60086 8.65632 0 0 1.5 0.177383 -0.0165621 
12.3484 -4.75778 8.91004 0 0 1.5 0.18328 -0.0159418 
12.6295 -4.92551 9.16595 0 0 1.5 0.188058 -0.0147343 
12.8641 -5.14426 9.43004 0 0 1.5 0.193705 -0.0106737 
13.0872 -5.37214 9.69479 0 0 1.5 0.194422 -0.00797568 
13.2674 -5.63432 9.96205 0 0 1.5 0.193728 -0.00479973 
13.4252 -5.9098 10.2282 0 0 1.5 0.191661 -0.00108048 
13.5491 -6.20539 10.4926 0 0 1.5 0.183778 0.00738075 
13.6439 -6.5141 10.7524 0 0 1.5 0.178277 0.0120761 
13.7149 -6.83355 11.0084 0 0 1.5 0.171963 0.0172272 
13.7559 -7.16377 11.256 0 0 1.5 0.165008 0.0227103 
13.781 -7.49968 11.4993 0 0 1.5 0.149889 0.0343592 
13.779 -7.84383 11.7312 0 0 1.5 0.142041 0.0407511 
13.766 -8.19132 11.9586 0 0 1.5 0.13417 0.0475078 
13.7307 -8.54516 12.1729 0 0 1.5 0.118767 0.0619078 
13.6873 -8.9013 12.3825 0 0 1.5 0.111391 0.0696571 
13.6267 -9.26268 12.5778 0 0 1.5 0.104303 0.0777963 
13.5597 -9.62598 12.768 0 0 1.5 0.0975359 0.0863028 
13.48 -9.99388 12.9434 0 0 1.5 0.0850447 0.104131 
13.3953 -10.3635 13.1132 0 0 1.5 0.0793387 0.113378 
13.3014 -10.7373 13.268 0 0 1.5 0.0739877 0.122914 
13.204 -11.1127 13.417 0 0 1.5 0.0689827 0.132513 
13.1003 -11.4919 13.5511 0 0 1.5 0.0599589 0.151005 
12.9943 -11.8725 13.6797 0 0 1.5 0.0559014 0.160181 
12.8844 -12.2565 13.7941 0 0 1.5 0.0521174 0.169056 
12.7733 -12.6415 13.9038 0 0 1.5 0.0485846 0.177215 
12.6606 -13.0295 14.0005 0 0 1.5 0.0421793 0.192278 
12.5474 -13.4182 14.0938 0 0 1.5 0.0392638 0.199211 
12.4345 -13.8094 14.1764 0 0 1.5 0.0365141 0.205226 
12.3216 -14.2011 14.2567 0 0 1.5 0.0314413 0.216339 
12.2108 -14.5949 14.3292 0 0 1.5 0.0290886 0.22193 
12.1002 -14.989 14.4005 0 0 1.5 0.0268453 0.227193 
11.9934 -15.385 14.4668 0 0 1.5 0.0247042 0.232616 
11.8869 -15.7812 14.5327 0 0 1.5 0.0207061 0.246372 
11.7853 -16.179 14.5964 0 0 1.5 0.0188476 0.254455 
11.6839 -16.5769 14.66 0 0 1.5 0.017086 0.263827 
11.5826 -16.9748 14.7236 0 0 1.5 0.0154214 0.275564 
11.4812 -17.3727 14.7871 0 0 1.5 0.0123993 0.306401 
11.3798 -17.7705 14.8507 0 0 1.5 0.011055 0.325607 
11.2785 -18.1684 14.9143 0 0 1.5 0.00982619 0.348373 
11.1771 -18.5663 14.9779 0 0 1.5 0.00772834 0.40208 
11.0758 -18.9642 15.0415 0 0 1.5 0.00686764 0.430015 
10.9744 -19.3621 15.105 0 0 1.5 0.00613064 0.457057 
10.873 -19.76 15.1686 0 0 1.5 0.00551292 0.479836 
10.7717 -20.1579 15.2322 0 0 1.5 0.00460749 0.496212 
10.6703 -20.5558 15.2958 0 0 1.5 0.00429276 0.4884 
10.5689 -20.9536 15.3593 0 0 1.5 0.00404646 0.471171 
10.4676 -21.3515 15.4229 0 0 1.5 0.00385139 0.446127 
10.3662 -21.7494 15.4865 0 0 1.5 0.00355076 0.389453 
10.2649 -22.1473 15.5501 0 0 1.5 0.00341899 0.363748 
10.1635 -22.5452 15.6137 0 0 1.5 0.0032887 0.340237 
10.0621 -22.9431 15.6772 0 0 1.5 0.00301522 0.305093 
9.96078 -23.341 15.7408 0 0 1.5 0.00286774 0.294145 
9.85942 -23.7389 15.8044 0 0 1.5 0.00271374 0.286026 
9.75806 -24.1367 15.868 0 0 1.5 0.00255493 0.280976 
9.65669 -24.5346 15.9316 0 0 1.5 0.00222857 0.282282 
9.55533 -24.9325 15.9951 0 0 1.5 0.00206568 0.286603 
9.45397 -25.3304 16.0587 0 0 1.5 0.00190647 0.293209 
9.35261 -25.7283 16.1223 0 0 1.5 0.00175254 0.303238 
9.25125 -26.1262 16.1859 0 0 1.5 0.00146777 0.329378 
9.14989 -26.5241 16.2494 0 0 1.5 0.00134055 0.343643 
9.04852 -26.9219 16.313 0 0 1.5 0.00122455 0.359396 
8.94716 -27.3198 16.3766 0 0 1.5 0.00112025 0.374955 
8.8458 -27.7177 16.4402 0 0 1.5 0.000947907 0.396723 
8.74444 -28.1156 16.5038 0 0 1.5 0.000878869 0.403007 
8.64308 -28.5135 16.5673 0 0 1.5 0.000819915 0.405068 
8.54172 -28.9114 16.6309 0 0 1.5 0.000727794 0.392778 
8.44035 -29.3093 16.6945 0 0 1.5 0.000691786 0.381971 
8.33899 -29.7072 16.7581 0 0 1.5 0.000660659 0.369055 
8.23763 -30.105 16.8217 0 0 1.5 0.000633408 0.353747 
8.13627 -30.5029 16.8852 0 0 1.5 0.000587198 0.321685 
8.03491 -30.9008 16.9488 0 0 1.5 0.000566961 0.306166 
7.93355 -31.2987 17.0124 0 0 1.5 0.000548263 0.289825 
7.83218 -31.6966 17.076 0 0 1.5 0.000530991 0.272999 
7.73082 -32.0945 17.1395 0 0 1.5 0.000500009 0.239682 
7.62946 -32.4924 17.2031 0 0 1.5 0.000486298 0.221419 
7.5281 -32.8903 17.2667 0 0 1.5 0.000473885 0.201974 
7.42674 -33.2881 17.3303 0 0 1.5 0.000452477 0.161913 
7.32538 -33.686 17.3939 0 0 1.5 0.000443453 0 
7.22401 -34.0839 17.4574 0 0 1.5 0.000435637 0 
7.12265 -34.4818 17.521 0 0 1.5 0.000428893 0 
7.02129 -34.8797 17.5846 0 0 1.5 0.000418371 0 
6.91993 -35.2776 17.6482 0 0 1.5 0.000414664 0 
6.81857 -35.6755 17.7118 0 0 1.5 0.000411873 0 
6.7172 -36.0734 17.7753 0 0 1.5 0.000409856 0 
6.61584 -36.4712 17.8389 0 0 1.5 0.000407757 0 
6.51448 -36.8691 17.9025 0 0 1.5 0.000407429 0 
6.41312 -37.267 17.9661 0 0 1.5 0.000407362 0 
0 1 0 
1 2 0 
2 3 0 
3 4 0 
4 5 0 
5 6 0 
6 7 0 
7 8 0 
8 9 0 
9 10 0 
10 11 0 
11 12 0 
12 13 0 
13 14 0 
14 15 0 
15 16 0 
16 17 0 
17 18 0 
18 19 0 
19 20 0 
20 21 0 
21 22 0 
22 23 0 
23 24 0 
24 25 0 
25 26 0 
26 27 0 
27 28 0 
28 29 0 
29 30 0 
30 31 0 
31 32 0 
32 33 0 
33 34 0 
34 35 0 
35 36 0 
36 37 0 
37 38 0 
38 39 0 
39 40 0 
40 41 0 
41 42 0 
42 43 0 
43 44 0 
44 45 0 
45 46 0 
46 47 0 
47 48 0 
48 49 0 
49 50 0 
50 51 0 
51 52 0 
52 53 0 
53 54 0 
54 55 0 
55 56 0 
56 57 0 
57 58 0 
58 59 0 
59 60 0 
60 61 0 
61 62 0 
62 63 0 
63 64 0 
64 65 0 
65 66 0 
66 67 0 
67 68 0 
68 69 0 
69 70 0 
70 71 0 
71 72 0 
72 73 0 
73 74 0 
74 75 0 
75 76 0 
76 77 0 
77 78 0 
78 79 0 
79 80 0 
80 81 0 
81 82 0 
82 83 0 
83 84 0 
84 85 0 
85 86 0 
86 87 0 
87 88 0 
88 89 0 
89 90 0 
90 91 0 
91 92 0 
92 93 0 
93 94 0 
94 95 0 
95 96 0 
96 97 0 
97 98 0 
98 99 0 
99 100 0 
100 101 0 
101 102 0 
102 103 0 
103 104 0 
104 105 0 
105 106 0 
106 107 0 
107 108 0 
108 109 0 
109 110 0 
110 111 0 
111 112 0 
112 113 0 
113 114 0 
114 115 0 
115 116 0 
116 117 0 
117 118 0 
118 119 0 
119 120 0 
120 121 0 
121 122 0 
122 123 0 
123 124 0 
124 125 0 
125 126 0 
126 127 0 
127 128 0 
128 129 0 
129 130 0 
130 131 0 
131 132 0 
132 133 0 
133 134 0 
134 135 0 
135 136 0 
136 137 0 
137 138 0 
138 139 0 
139 140 0 
140 141 0 
141 142 0 
142 143 0 
143 144 0 
144 145 0 
145 146 0 
146 147 0 
147 148 0 
148 149 0 
149 150 0 
150 151 0 
151 152 0 
152 153 0 
153 154 0 
154 155 0 
155 156 0 
156 157 0 
157 158 0 
158 159 0 
159 160 0 
160 161 0 
161 162 0 
162 163 0 
163 164 0 
164 165 0 
165 166 0 
166 167 0 
167 168 0 
168 169 0 
169 170 0 
170 171 0 
171 172 0 
172 173 0 
173 174 0 
174 175 0 
175 176 0 
176 177 0 
177 178 0 
178 179 0 
179 180 0 
180 181 0 
181 182 0 
182 183 0 
183 184 0 
184 185 0 
185 186 0 
186 187 0 
187 188 0 
188 189 0 
189 190 0 
190 191 0 
191 192 0 
192 193 0 
193 194 0 
194 195 0 
195 196 0 
196 197 0 
197 198 0 
198 199 0 
199 200 0 
200 201 0 
201 202 0 
202 203 0 
203 204 0 
204 205 0 
205 206 0 
206 207 0 
207 208 0 
208 209 0 
209 210 0 
210 211 0 
211 212 0 
212 213 0 
213 214 0 
214 215 0 
215 216 0 
216 217 0 
217 218 0 
218 219 0 
219 220 0 
220 221 0 
221 222 0 
222 223 0 
223 224 0 
224 225 0 
225 226 0 
226 227 0 
227 228 0 
228 229 0 
229 230 0 
230 231 0 
231 232 0 
232 233 0 
233 234 0 
234 235 0 
235 236 0 
236 237 0 
237 238 0 
238 239 0 
239 240 0 
240 241 0 
241 242 0 
242 243 0 
243 244 0 
244 245 0 
245 246 0 
246 247 0 
247 248 0 
248 249 0 
249 250 0 
250 251 0 
251 252 0 
252 253 0 
253 254 0 
254 255 0 
255 256 0 
256 257 0 
257 258 0 
258 259 0 
259 260 0 
260 261 0 
261 262 0 
262 263 0 
263 264 0 
264 265 0 
265 266 0 
266 267 0 
267 268 0 
268 269 0 
269 270 0 
270 271 0 
271 272 0 
272 273 0 
273 274 0 
274 275 0 
275 276 0 
276 277 0 
277 278 0 
278 279 0 
279 280 0 
280 281 0 
281 282 0 
282 283 0 
283 284 0 
284 285 0 
285 286 0 
286 287 0 
287 288 0 
288 289 0 
289 290 0 
290 291 0 
291 292 0 
292 293 0 
293 294 0 
294 295 0 
295 296 0 
296 297 0 
297 298 0 
298 299 0 
-1 -1 0 
-1 300 0 1 2 3 4 5 6 7 8 9 10 11 12 13 14 15 16 17 18 19 20 21 22 23 24 25 26 27 28 29 30 31 32 33 34 35 36 37 38 39 40 41 42 43 44 45 46 47 48 49 50 51 52 53 54 55 56 57 58 59 60 61 62 63 64 65 66 67 68 69 70 71 72 73 74 75 76 77 78 79 80 81 82 83 84 85 86 87 88 89 90 91 92 93 94 95 96 97 98 99 100 101 102 103 104 105 106 107 108 109 110 111 112 113 114 115 116 117 118 119 120 121 122 123 124 125 126 127 128 129 130 131 132 133 134 135 136 137 138 139 140 141 142 143 144 145 146 147 148 149 150 151 152 153 154 155 156 157 158 159 160 161 162 163 164 165 166 167 168 169 170 171 172 173 174 175 176 177 178 179 180 181 182 183 184 185 186 187 188 189 190 191 192 193 194 195 196 197 198 199 200 201 202 203 204 205 206 207 208 209 210 211 212 213 214 215 216 217 218 219 220 221 222 223 224 225 226 227 228 229 230 231 232 233 234 235 236 237 238 239 240 241 242 243 244 245 246 247 248 249 250 251 252 253 254 255 256 257 258 259 260 261 262 263 264 265 266 267 268 269 270 271 272 273 274 275 276 277 278 279 280 281 282 283 284 285 286 287 288 289 290 291 292 293 294 295 296 297 298 299 
