ply
format ascii 1.0
comment written by koba@oshima.lab
element vertex 300
property float x
property float y
property float z
property int label
property int attribute
property float radius
property float curvature
property float torsion
element edge 300
property int vertex1
property int vertex2
property int label
element vertex_seq 1
property int label
property list int int vertex_indices
end_header
2.47145 32.5726 -5.23348 0 0 1.5 0.00820537 -9.46236e-05 
2.22676 32.2295 -5.28452 0 0 1.5 0.00819379 -0.000116483 
1.98208 31.8864 -5.33556 0 0 1.5 0.00817675 -0.00137058 
1.7374 31.5433 -5.3866 0 0 1.5 0.00814357 -0.0038715 
1.49271 31.2003 -5.43763 0 0 1.5 0.00798465 -0.0133743 
1.24803 30.8572 -5.48867 0 0 1.5 0.00782643 -0.0217732 
1.00334 30.5141 -5.53971 0 0 1.5 0.00758746 -0.0337774 
0.75866 30.171 -5.59074 0 0 1.5 0.007247 -0.0511283 
0.513975 29.828 -5.64178 0 0 1.5 0.00618158 -0.118211 
0.269291 29.4849 -5.69282 0 0 1.5 0.00542155 -0.190942 
0.0246071 29.1418 -5.74385 0 0 1.5 0.00450373 -0.337358 
-0.220077 28.7987 -5.79489 0 0 1.5 0.00347098 -0.679369 
-0.464761 28.4556 -5.84593 0 0 1.5 0.00237905 -1.98273 
-0.709445 28.1126 -5.89696 0 0 1.5 0.00357406 -1.01834 
-0.95413 27.7695 -5.948 0 0 1.5 0.00560754 -0.476826 
-1.19881 27.4264 -5.99904 0 0 1.5 0.0110007 -0.163459 
-1.4435 27.0833 -6.05008 0 0 1.5 0.0142104 -0.113015 
-1.68818 26.7402 -6.10111 0 0 1.5 0.0177276 -0.0840465 
-1.93287 26.3972 -6.15215 0 0 1.5 0.0215153 -0.0662919 
-2.17755 26.0541 -6.20319 0 0 1.5 0.0297448 -0.0477917 
-2.42223 25.711 -6.25422 0 0 1.5 0.0341043 -0.0430725 
-2.66692 25.3679 -6.30526 0 0 1.5 0.0385409 -0.0401379 
-2.9116 25.0248 -6.3563 0 0 1.5 0.042975 -0.0386113 
-3.15629 24.6818 -6.40733 0 0 1.5 0.0515001 -0.0388759 
-3.40097 24.3387 -6.45837 0 0 1.5 0.0553868 -0.0404604 
-3.64566 23.9956 -6.50941 0 0 1.5 0.0588628 -0.0431306 
-3.89034 23.6525 -6.56044 0 0 1.5 0.0640956 -0.052482 
-4.13502 23.3095 -6.61148 0 0 1.5 0.0656164 -0.0596633 
-4.37971 22.9664 -6.66252 0 0 1.5 0.0662601 -0.0693722 
-4.62439 22.6233 -6.71356 0 0 1.5 0.0659293 -0.0827534 
-4.86908 22.2802 -6.76459 0 0 1.5 0.0621211 -0.127191 
-5.11145 21.9349 -6.78549 0 0 1.5 0.0586649 -0.164892 
-5.34934 21.5854 -6.74798 0 0 1.5 0.0542625 -0.221943 
-5.58394 21.2372 -6.69444 0 0 1.5 0.0491027 -0.30969 
-5.80564 20.8945 -6.57785 0 0 1.5 0.03861 -0.635653 
-6.02301 20.5548 -6.44831 0 0 1.5 0.0353325 -0.847943 
-6.22476 20.2255 -6.27202 0 0 1.5 0.0354768 -0.931969 
-6.42049 19.9003 -6.08322 0 0 1.5 0.0401182 -0.798199 
-6.60419 19.5829 -5.86942 0 0 1.5 0.0606265 -0.405988 
-6.78097 19.2676 -5.64708 0 0 1.5 0.0744921 -0.284016 
-6.95209 18.9541 -5.41774 0 0 1.5 0.0897965 -0.20213 
-7.1183 18.6328 -5.19574 0 0 1.5 0.122704 -0.105071 
-7.28435 18.3013 -4.99022 0 0 1.5 0.139345 -0.0745598 
-7.45129 17.9533 -4.81524 0 0 1.5 0.155454 -0.0507345 
-7.62056 17.577 -4.71569 0 0 1.5 0.170479 -0.0308416 
-7.78243 17.1862 -4.72905 0 0 1.5 0.194826 0.00283075 
-7.92324 16.8076 -4.85049 0 0 1.5 0.203134 0.0169713 
-8.03866 16.4513 -5.04561 0 0 1.5 0.208448 0.0301419 
-8.13279 16.1127 -5.28213 0 0 1.5 0.210623 0.0429269 
-8.2068 15.7885 -5.54603 0 0 1.5 0.206017 0.0662183 
-8.2566 15.4725 -5.82467 0 0 1.5 0.200022 0.0764946 
-8.29631 15.1579 -6.10661 0 0 1.5 0.192244 0.0860041 
-8.31314 14.8433 -6.39111 0 0 1.5 0.173489 0.102698 
-8.31691 14.5266 -6.67327 0 0 1.5 0.163503 0.109567 
-8.30384 14.2071 -6.95241 0 0 1.5 0.153648 0.115041 
-8.27216 13.8841 -7.22551 0 0 1.5 0.144211 0.119276 
-8.22787 13.5587 -7.49451 0 0 1.5 0.12723 0.124371 
-8.16129 13.2308 -7.75523 0 0 1.5 0.119846 0.124493 
-8.08548 12.9018 -8.0125 0 0 1.5 0.113219 0.12342 
-7.98565 12.5731 -8.26158 0 0 1.5 0.107282 0.121989 
-7.87941 12.2446 -8.50847 0 0 1.5 0.0971433 0.118338 
-7.74911 11.9207 -8.74961 0 0 1.5 0.0927588 0.117039 
-7.61473 11.5975 -8.98978 0 0 1.5 0.088694 0.117353 
-7.45743 11.2836 -9.22824 0 0 1.5 0.0811827 0.124352 
-7.29787 10.9707 -9.46653 0 0 1.5 0.0776153 0.131919 
-7.11731 10.6714 -9.70732 0 0 1.5 0.0741223 0.142925 
-6.9358 10.3727 -9.94823 0 0 1.5 0.0706961 0.157959 
-6.73569 10.0908 -10.1945 0 0 1.5 0.0641707 0.201611 
-6.53535 9.80909 -10.4408 0 0 1.5 0.06122 0.22912 
-6.31902 9.54455 -10.6926 0 0 1.5 0.0586382 0.25941 
-6.10269 9.28001 -10.9444 0 0 1.5 0.0565999 0.290507 
-5.87267 9.03006 -11.1989 0 0 1.5 0.0550346 0.334437 
-5.64241 8.78038 -11.4535 0 0 1.5 0.0559575 0.33752 
-5.40053 8.53995 -11.7062 0 0 1.5 0.0582751 0.325653 
-5.15768 8.30029 -11.9587 0 0 1.5 0.0621164 0.300506 
-4.90519 8.06338 -12.2042 0 0 1.5 0.0745048 0.23126 
-4.65066 7.82706 -12.4482 0 0 1.5 0.0830544 0.19746 
-4.38871 7.58765 -12.681 0 0 1.5 0.0932041 0.167456 
-4.12359 7.34693 -12.9089 0 0 1.5 0.118496 0.120762 
-3.85348 7.09904 -13.1223 0 0 1.5 0.133841 0.103644 
-3.57974 6.84592 -13.3253 0 0 1.5 0.151207 0.0897695 
-3.30366 6.58279 -13.5104 0 0 1.5 0.170786 0.0784641 
-3.02517 6.30946 -13.6775 0 0 1.5 0.217389 0.0617309 
-2.7478 6.02281 -13.8199 0 0 1.5 0.244807 0.0554402 
-2.47155 5.72265 -13.9372 0 0 1.5 0.275148 0.0499757 
-2.20442 5.40355 -14.0124 0 0 1.5 0.308369 0.0450684 
-1.94284 5.07294 -14.0619 0 0 1.5 0.381958 0.0359119 
-1.71298 4.71865 -14.0312 0 0 1.5 0.420717 0.0310439 
-1.50797 4.35922 -13.9567 0 0 1.5 0.458929 0.02562 
-1.34576 3.99477 -13.8116 0 0 1.5 0.525032 0.0123296 
-1.26461 3.65408 -13.5761 0 0 1.5 0.548212 0.00427342 
-1.24241 3.34577 -13.2938 0 0 1.5 0.56218 -0.0047655 
-1.27584 3.07171 -12.9718 0 0 1.5 0.565846 -0.0147175 
-1.39825 2.87579 -12.6157 0 0 1.5 0.543581 -0.0356038 
-1.553 2.71698 -12.2576 0 0 1.5 0.520889 -0.0459698 
-1.74539 2.60134 -11.8974 0 0 1.5 0.493339 -0.0562235 
-1.97681 2.54372 -11.5482 0 0 1.5 0.463013 -0.0659479 
-2.21919 2.50241 -11.2022 0 0 1.5 0.400936 -0.0829335 
-2.4938 2.52824 -10.8798 0 0 1.5 0.371424 -0.0906391 
-2.77067 2.56152 -10.5605 0 0 1.5 0.343688 -0.0977702 
-3.06321 2.6533 -10.2669 0 0 1.5 0.294239 -0.110256 
-3.35607 2.75525 -9.9782 0 0 1.5 0.272436 -0.116322 
-3.65055 2.91057 -9.71488 0 0 1.5 0.252352 -0.122525 
-3.94203 3.0789 -9.45789 0 0 1.5 0.233814 -0.128951 
-4.22203 3.29712 -9.22517 0 0 1.5 0.200731 -0.144239 
-4.49391 3.53079 -9.00022 0 0 1.5 0.185885 -0.154106 
-4.74236 3.80907 -8.7977 0 0 1.5 0.172057 -0.166055 
-4.97633 4.10353 -8.60403 0 0 1.5 0.159227 -0.180694 
-5.17823 4.43386 -8.42997 0 0 1.5 0.136645 -0.220759 
-5.3608 4.77772 -8.26434 0 0 1.5 0.127128 -0.246648 
-5.50737 5.14681 -8.11443 0 0 1.5 0.119099 -0.275705 
-5.6344 5.52415 -7.97039 0 0 1.5 0.112879 -0.305971 
-5.72492 5.91693 -7.8373 0 0 1.5 0.10755 -0.352001 
-5.80046 6.31284 -7.7063 0 0 1.5 0.109405 -0.356551 
-5.84037 6.7162 -7.58026 0 0 1.5 0.1148 -0.345527 
-5.87148 7.11967 -7.4533 0 0 1.5 0.137093 -0.290888 
-5.86867 7.52357 -7.3228 0 0 1.5 0.154277 -0.258132 
-5.86149 7.92649 -7.19011 0 0 1.5 0.175695 -0.227194 
-5.82337 8.32243 -7.04193 0 0 1.5 0.201601 -0.199979 
-5.78173 8.7162 -6.8898 0 0 1.5 0.268256 -0.157229 
-5.7138 9.09375 -6.70807 0 0 1.5 0.309628 -0.140166 
-5.63885 9.46154 -6.51225 0 0 1.5 0.356451 -0.125323 
-5.54451 9.80242 -6.27757 0 0 1.5 0.408233 -0.112215 
-5.43538 10.0977 -5.99735 0 0 1.5 0.519787 -0.0867844 
-5.31414 10.3369 -5.67436 0 0 1.5 0.572684 -0.0735411 
-5.18098 10.474 -5.29535 0 0 1.5 0.617098 -0.0603471 
-5.05045 10.4405 -4.89378 0 0 1.5 0.660021 -0.033222 
-4.93182 10.292 -4.52041 0 0 1.5 0.65278 -0.0204408 
-4.82253 10.0703 -4.17961 0 0 1.5 0.627855 -0.00968396 
-4.72222 9.78921 -3.87781 0 0 1.5 0.589692 -0.00115831 
-4.62709 9.46545 -3.62245 0 0 1.5 0.494539 0.0091186 
-4.53337 9.12964 -3.3804 0 0 1.5 0.446216 0.010918 
-4.43973 8.76127 -3.19141 0 0 1.5 0.401027 0.0106947 
-4.3457 8.39074 -3.00768 0 0 1.5 0.360144 0.00857092 
-4.24828 8.00121 -2.87001 0 0 1.5 0.292142 0.000173723 
-4.15024 7.60976 -2.73974 0 0 1.5 0.264471 -0.00589795 
-4.04838 7.20638 -2.65555 0 0 1.5 0.240357 -0.0134423 
-3.94626 6.80163 -2.58204 0 0 1.5 0.21923 -0.0220673 
-3.843 6.39071 -2.55638 0 0 1.5 0.183831 -0.0419347 
-3.74132 5.97965 -2.54819 0 0 1.5 0.168654 -0.0541317 
-3.64377 5.56823 -2.58559 0 0 1.5 0.154657 -0.0680472 
-3.55308 5.15978 -2.64967 0 0 1.5 0.129185 -0.102514 
-3.47142 4.75523 -2.74892 0 0 1.5 0.11736 -0.125786 
-3.40615 4.35796 -2.8804 0 0 1.5 0.106001 -0.155282 
-3.35064 3.96503 -3.03108 0 0 1.5 0.0951097 -0.193214 
-3.32288 3.58124 -3.20938 0 0 1.5 0.0751334 -0.310766 
-3.3016 3.19943 -3.39351 0 0 1.5 0.0665269 -0.399452 
-3.3156 2.82283 -3.58884 0 0 1.5 0.0594825 -0.506571 
-3.33639 2.44581 -3.78223 0 0 1.5 0.0547557 -0.610937 
-3.38551 2.06707 -3.96749 0 0 1.5 0.055205 -0.648564 
-3.44505 1.68557 -4.1426 0 0 1.5 0.060798 -0.56651 
-3.52473 1.29873 -4.29813 0 0 1.5 0.0693655 -0.467404 
-3.61516 0.906942 -4.43158 0 0 1.5 0.092769 -0.314008 
-3.71741 0.509709 -4.5408 0 0 1.5 0.106625 -0.265216 
-3.82658 0.107286 -4.61467 0 0 1.5 0.121469 -0.229999 
-3.94024 -0.298507 -4.66558 0 0 1.5 0.137008 -0.204751 
-4.05239 -0.706875 -4.66879 0 0 1.5 0.168966 -0.173328 
-4.16399 -1.11618 -4.65476 0 0 1.5 0.184732 -0.16341 
-4.26124 -1.52241 -4.58303 0 0 1.5 0.199806 -0.15587 
-4.35604 -1.92808 -4.50188 0 0 1.5 0.213708 -0.149957 
-4.42009 -2.32183 -4.35686 0 0 1.5 0.236175 -0.140336 
-4.47682 -2.71196 -4.20208 0 0 1.5 0.243888 -0.135716 
-4.49692 -3.08389 -3.99852 0 0 1.5 0.248815 -0.131071 
-4.49854 -3.44469 -3.77811 0 0 1.5 0.250027 -0.121263 
-4.46508 -3.78431 -3.52569 0 0 1.5 0.246531 -0.115703 
-4.40097 -4.10182 -3.25423 0 0 1.5 0.240655 -0.109959 
-4.31005 -4.4 -2.96614 0 0 1.5 0.23282 -0.104279 
-4.17999 -4.66499 -2.66299 0 0 1.5 0.213083 -0.0925574 
-4.03426 -4.91669 -2.35382 0 0 1.5 0.202019 -0.0867155 
-3.84779 -5.12848 -2.03753 0 0 1.5 0.190662 -0.0812738 
-3.65497 -5.33405 -1.72014 0 0 1.5 0.179319 -0.07605 
-3.42597 -5.49918 -1.4033 0 0 1.5 0.157555 -0.0658881 
-3.19512 -5.66213 -1.08663 0 0 1.5 0.147432 -0.0613407 
-2.93732 -5.7909 -0.774975 0 0 1.5 0.137948 -0.0570429 
-2.67869 -5.91849 -0.46359 0 0 1.5 0.129157 -0.0528214 
-2.40112 -6.01861 -0.158451 0 0 1.5 0.113726 -0.0451418 
-2.12319 -6.11812 0.146532 0 0 1.5 0.107074 -0.0417954 
-1.83205 -6.1951 0.445675 0 0 1.5 0.101109 -0.0386994 
-1.5409 -6.27207 0.744819 0 0 1.5 0.0910949 -0.0336473 
-1.24071 -6.33015 1.03925 0 0 1.5 0.0869388 -0.0319026 
-0.940497 -6.38818 1.33367 0 0 1.5 0.0832784 -0.0307779 
-0.634442 -6.43059 1.62471 0 0 1.5 0.080055 -0.03029 
-0.328208 -6.47252 1.91564 0 0 1.5 0.0746075 -0.0314747 
-0.0178151 -6.50043 2.20381 0 0 1.5 0.0722371 -0.0334092 
0.292765 -6.52771 2.49187 0 0 1.5 0.0700119 -0.0361993 
0.607173 -6.54091 2.77672 0 0 1.5 0.0678533 -0.0397801 
0.921718 -6.5536 3.06147 0 0 1.5 0.0634573 -0.0501903 
1.24092 -6.5509 3.34125 0 0 1.5 0.0611068 -0.0572915 
1.5605 -6.54717 3.62056 0 0 1.5 0.0585862 -0.0657451 
1.88571 -6.52799 3.89268 0 0 1.5 0.0528756 -0.0892248 
2.21202 -6.50629 4.16318 0 0 1.5 0.0496349 -0.10594 
2.54464 -6.47 4.42438 0 0 1.5 0.046124 -0.127625 
2.87932 -6.42968 4.68215 0 0 1.5 0.0423488 -0.15693 
3.22021 -6.37721 4.92957 0 0 1.5 0.0341179 -0.258454 
3.56404 -6.3202 5.17165 0 0 1.5 0.0298129 -0.348817 
3.91317 -6.25501 5.40411 0 0 1.5 0.0255909 -0.487753 
4.26573 -6.18654 5.63022 0 0 1.5 0.0217615 -0.69621 
4.62231 -6.11423 5.84884 0 0 1.5 0.017725 -1.12281 
4.98224 -6.04206 6.06187 0 0 1.5 0.018918 -1.02234 
5.34498 -5.97002 6.27023 0 0 1.5 0.0222834 -0.766894 
5.71034 -5.90314 6.47562 0 0 1.5 0.0330165 -0.380227 
6.07738 -5.83953 6.67913 0 0 1.5 0.0394522 -0.278118 
6.44561 -5.78675 6.88344 0 0 1.5 0.0462656 -0.211474 
6.81444 -5.73951 7.08816 0 0 1.5 0.053322 -0.166403 
7.18205 -5.70872 7.29783 0 0 1.5 0.0677992 -0.111545 
7.54914 -5.68504 7.50963 0 0 1.5 0.0750744 -0.094279 
7.91151 -5.68298 7.73021 0 0 1.5 0.0822882 -0.0809546 
8.27215 -5.68885 7.95401 0 0 1.5 0.0893839 -0.0703227 
8.6235 -5.72089 8.18944 0 0 1.5 0.102978 -0.0543462 
8.97203 -5.76087 8.4284 0 0 1.5 0.109349 -0.0481217 
9.30565 -5.8308 8.68075 0 0 1.5 0.115358 -0.0426666 
9.63572 -5.90785 8.93628 0 0 1.5 0.120952 -0.0377575 
9.94439 -6.01763 9.20566 0 0 1.5 0.130658 -0.0290185 
10.2495 -6.13288 9.47735 0 0 1.5 0.134682 -0.025072 
10.5264 -6.28241 9.76179 0 0 1.5 0.138112 -0.021275 
10.8007 -6.43524 10.0475 0 0 1.5 0.143101 -0.0138682 
11.0403 -6.62257 10.3434 0 0 1.5 0.144649 -0.0102837 
11.2777 -6.81194 10.6398 0 0 1.5 0.145586 -0.00670785 
11.4777 -7.0326 10.9423 0 0 1.5 0.145928 -0.00307504 
11.674 -7.25584 11.245 0 0 1.5 0.144953 0.00417556 
11.834 -7.50505 11.5491 0 0 1.5 0.143729 0.00779966 
11.9882 -7.75786 11.8527 0 0 1.5 0.142076 0.0114924 
12.1085 -8.03189 12.1538 0 0 1.5 0.140041 0.015218 
12.2211 -8.31012 12.4534 0 0 1.5 0.135027 0.02268 
12.3027 -8.60547 12.7471 0 0 1.5 0.13214 0.0264963 
12.3752 -8.90529 13.0382 0 0 1.5 0.129052 0.0303625 
12.4197 -9.21867 13.321 0 0 1.5 0.122416 0.0381883 
12.4535 -9.53658 13.5996 0 0 1.5 0.118928 0.0422093 
12.4626 -9.86501 13.8683 0 0 1.5 0.115356 0.0463072 
12.4597 -10.1977 14.1312 0 0 1.5 0.111721 0.0504661 
12.4351 -10.5382 14.3835 0 0 1.5 0.104328 0.0590461 
12.3977 -10.8825 14.6283 0 0 1.5 0.100594 0.0634809 
12.3422 -11.2322 14.8624 0 0 1.5 0.0968504 0.0679854 
12.274 -11.585 15.0878 0 0 1.5 0.0931087 0.0725507 
12.1914 -11.9413 15.3032 0 0 1.5 0.0856658 0.0818115 
12.0973 -12.3002 15.5089 0 0 1.5 0.0819788 0.0864831 
11.9928 -12.6614 15.7059 0 0 1.5 0.078324 0.0911196 
11.8788 -13.0248 15.8927 0 0 1.5 0.0747075 0.0956442 
11.7578 -13.39 16.072 0 0 1.5 0.0676064 0.104333 
11.6301 -13.7577 16.2411 0 0 1.5 0.0641296 0.108352 
11.498 -14.1269 16.4037 0 0 1.5 0.0607058 0.111937 
11.3619 -14.4991 16.5556 0 0 1.5 0.0540189 0.118366 
11.2236 -14.8728 16.7017 0 0 1.5 0.0507536 0.121253 
11.0833 -15.2501 16.8362 0 0 1.5 0.0475392 0.123681 
10.942 -15.6291 16.9651 0 0 1.5 0.0443745 0.125959 
10.8001 -16.0122 17.0799 0 0 1.5 0.0381983 0.131307 
10.658 -16.3969 17.1894 0 0 1.5 0.0351929 0.134181 
10.516 -16.7863 17.2804 0 0 1.5 0.0322491 0.137635 
10.374 -17.1769 17.3667 0 0 1.5 0.0293754 0.142374 
10.2321 -17.5675 17.453 0 0 1.5 0.0238863 0.156271 
10.0902 -17.9581 17.5393 0 0 1.5 0.0212989 0.166224 
9.94822 -18.3488 17.6256 0 0 1.5 0.0188327 0.179535 
9.80628 -18.7394 17.7119 0 0 1.5 0.0143176 0.219911 
9.66434 -19.13 17.7981 0 0 1.5 0.0122994 0.249888 
9.5224 -19.5206 17.8844 0 0 1.5 0.0104555 0.290174 
9.38046 -19.9113 17.9707 0 0 1.5 0.00879695 0.344148 
9.23853 -20.3019 18.057 0 0 1.5 0.00610024 0.50429 
9.09659 -20.6925 18.1433 0 0 1.5 0.00509449 0.608964 
8.95465 -21.0831 18.2295 0 0 1.5 0.00433615 0.709876 
8.81271 -21.4738 18.3158 0 0 1.5 0.00383015 0.769298 
8.67077 -21.8644 18.4021 0 0 1.5 0.00345691 0.681412 
8.52883 -22.255 18.4884 0 0 1.5 0.00346708 0.578928 
8.38689 -22.6456 18.5747 0 0 1.5 0.00352462 0.479254 
8.24496 -23.0363 18.6609 0 0 1.5 0.00362226 0.335497 
8.10302 -23.4269 18.7472 0 0 1.5 0.00362177 0.290424 
7.96108 -23.8175 18.8335 0 0 1.5 0.00357946 0.257385 
7.81914 -24.2081 18.9198 0 0 1.5 0.00349591 0.233911 
7.6772 -24.5988 19.0061 0 0 1.5 0.00321791 0.209874 
7.53526 -24.9894 19.0923 0 0 1.5 0.00303483 0.205631 
7.39333 -25.38 19.1786 0 0 1.5 0.00283142 0.205854 
7.25139 -25.7706 19.2649 0 0 1.5 0.00261333 0.211337 
7.10945 -26.1613 19.3512 0 0 1.5 0.00215713 0.237091 
6.96751 -26.5519 19.4375 0 0 1.5 0.0019314 0.257958 
6.82557 -26.9425 19.5237 0 0 1.5 0.00171361 0.286723 
6.68363 -27.3331 19.61 0 0 1.5 0.00150808 0.324156 
6.54169 -27.7238 19.6963 0 0 1.5 0.0011522 0.423102 
6.39976 -28.1144 19.7826 0 0 1.5 0.00100922 0.483037 
6.25782 -28.505 19.8689 0 0 1.5 0.000893181 0.54108 
6.11588 -28.8956 19.9552 0 0 1.5 0.000746858 0.594327 
5.97394 -29.2863 20.0414 0 0 1.5 0.000712614 0.575007 
5.832 -29.6769 20.1277 0 0 1.5 0.0006978 0.529641 
5.69006 -30.0675 20.214 0 0 1.5 0.000696305 0.469578 
5.54812 -30.4581 20.3003 0 0 1.5 0.000711217 0.352891 
5.40619 -30.8488 20.3866 0 0 1.5 0.000719982 0.305924 
5.26425 -31.2394 20.4728 0 0 1.5 0.000726819 0.265989 
5.12231 -31.63 20.5591 0 0 1.5 0.000730797 0.232624 
4.98037 -32.0206 20.6454 0 0 1.5 0.000729152 0.182099 
4.83843 -32.4112 20.7317 0 0 1.5 0.000724162 0.161367 
4.69649 -32.8019 20.818 0 0 1.5 0.000717207 0.142524 
4.55456 -33.1925 20.9042 0 0 1.5 0.000699274 0.109593 
4.41262 -33.5831 20.9905 0 0 1.5 0.000689478 0.0940953 
4.27068 -33.9737 21.0768 0 0 1.5 0.000679987 0.0791274 
4.12874 -34.3644 21.1631 0 0 1.5 0.000671061 0.0651626 
3.9868 -34.755 21.2494 0 0 1.5 0.000655917 0.0402024 
3.84486 -35.1456 21.3356 0 0 1.5 0.000650288 0.029484 
3.70292 -35.5362 21.4219 0 0 1.5 0.000645962 0.0203941 
3.56099 -35.9269 21.5082 0 0 1.5 0.000642796 0.0131014 
3.41905 -36.3175 21.5945 0 0 1.5 0.000639468 0.00395094 
3.27711 -36.7081 21.6808 0 0 1.5 0.00063894 0.00140672 
3.13517 -37.0987 21.767 0 0 1.5 0.000638824 0.000119537 
0 1 0 
1 2 0 
2 3 0 
3 4 0 
4 5 0 
5 6 0 
6 7 0 
7 8 0 
8 9 0 
9 10 0 
10 11 0 
11 12 0 
12 13 0 
13 14 0 
14 15 0 
15 16 0 
16 17 0 
17 18 0 
18 19 0 
19 20 0 
20 21 0 
21 22 0 
22 23 0 
23 24 0 
24 25 0 
25 26 0 
26 27 0 
27 28 0 
28 29 0 
29 30 0 
30 31 0 
31 32 0 
32 33 0 
33 34 0 
34 35 0 
35 36 0 
36 37 0 
37 38 0 
38 39 0 
39 40 0 
40 41 0 
41 42 0 
42 43 0 
43 44 0 
44 45 0 
45 46 0 
46 47 0 
47 48 0 
48 49 0 
49 50 0 
50 51 0 
51 52 0 
52 53 0 
53 54 0 
54 55 0 
55 56 0 
56 57 0 
57 58 0 
58 59 0 
59 60 0 
60 61 0 
61 62 0 
62 63 0 
63 64 0 
64 65 0 
65 66 0 
66 67 0 
67 68 0 
68 69 0 
69 70 0 
70 71 0 
71 72 0 
72 73 0 
73 74 0 
74 75 0 
75 76 0 
76 77 0 
77 78 0 
78 79 0 
79 80 0 
80 81 0 
81 82 0 
82 83 0 
83 84 0 
84 85 0 
85 86 0 
86 87 0 
87 88 0 
88 89 0 
89 90 0 
90 91 0 
91 92 0 
92 93 0 
93 94 0 
94 95 0 
95 96 0 
96 97 0 
97 98 0 
98 99 0 
99 100 0 
100 101 0 
101 102 0 
102 103 0 
103 104 0 
104 105 0 
105 106 0 
106 107 0 
107 108 0 
108 109 0 
109 110 0 
110 111 0 
111 112 0 
112 113 0 
113 114 0 
114 115 0 
115 116 0 
116 117 0 
117 118 0 
118 119 0 
119 120 0 
120 121 0 
121 122 0 
122 123 0 
123 124 0 
124 125 0 
125 126 0 
126 127 0 
127 128 0 
128 129 0 
129 130 0 
130 131 0 
131 132 0 
132 133 0 
133 134 0 
134 135 0 
135 136 0 
136 137 0 
137 138 0 
138 139 0 
139 140 0 
140 141 0 
141 142 0 
142 143 0 
143 144 0 
144 145 0 
145 146 0 
146 147 0 
147 148 0 
148 149 0 
149 150 0 
150 151 0 
151 152 0 
152 153 0 
153 154 0 
154 155 0 
155 156 0 
156 157 0 
157 158 0 
158 159 0 
159 160 0 
160 161 0 
161 162 0 
162 163 0 
163 164 0 
164 165 0 
165 166 0 
166 167 0 
167 168 0 
168 169 0 
169 170 0 
170 171 0 
171 172 0 
172 173 0 
173 174 0 
174 175 0 
175 176 0 
176 177 0 
177 178 0 
178 179 0 
179 180 0 
180 181 0 
181 182 0 
182 183 0 
183 184 0 
184 185 0 
185 186 0 
186 187 0 
187 188 0 
188 189 0 
189 190 0 
190 191 0 
191 192 0 
192 193 0 
193 194 0 
194 195 0 
195 196 0 
196 197 0 
197 198 0 
198 199 0 
199 200 0 
200 201 0 
201 202 0 
202 203 0 
203 204 0 
204 205 0 
205 206 0 
206 207 0 
207 208 0 
208 209 0 
209 210 0 
210 211 0 
211 212 0 
212 213 0 
213 214 0 
214 215 0 
215 216 0 
216 217 0 
217 218 0 
218 219 0 
219 220 0 
220 221 0 
221 222 0 
222 223 0 
223 224 0 
224 225 0 
225 226 0 
226 227 0 
227 228 0 
228 229 0 
229 230 0 
230 231 0 
231 232 0 
232 233 0 
233 234 0 
234 235 0 
235 236 0 
236 237 0 
237 238 0 
238 239 0 
239 240 0 
240 241 0 
241 242 0 
242 243 0 
243 244 0 
244 245 0 
245 246 0 
246 247 0 
247 248 0 
248 249 0 
249 250 0 
250 251 0 
251 252 0 
252 253 0 
253 254 0 
254 255 0 
255 256 0 
256 257 0 
257 258 0 
258 259 0 
259 260 0 
260 261 0 
261 262 0 
262 263 0 
263 264 0 
264 265 0 
265 266 0 
266 267 0 
267 268 0 
268 269 0 
269 270 0 
270 271 0 
271 272 0 
272 273 0 
273 274 0 
274 275 0 
275 276 0 
276 277 0 
277 278 0 
278 279 0 
279 280 0 
280 281 0 
281 282 0 
282 283 0 
283 284 0 
284 285 0 
285 286 0 
286 287 0 
287 288 0 
288 289 0 
289 290 0 
290 291 0 
291 292 0 
292 293 0 
293 294 0 
294 295 0 
295 296 0 
296 297 0 
297 298 0 
298 299 0 
-1 -1 0 
-1 300 0 1 2 3 4 5 6 7 8 9 10 11 12 13 14 15 16 17 18 19 20 21 22 23 24 25 26 27 28 29 30 31 32 33 34 35 36 37 38 39 40 41 42 43 44 45 46 47 48 49 50 51 52 53 54 55 56 57 58 59 60 61 62 63 64 65 66 67 68 69 70 71 72 73 74 75 76 77 78 79 80 81 82 83 84 85 86 87 88 89 90 91 92 93 94 95 96 97 98 99 100 101 102 103 104 105 106 107 108 109 110 111 112 113 114 115 116 117 118 119 120 121 122 123 124 125 126 127 128 129 130 131 132 133 134 135 136 137 138 139 140 141 142 143 144 145 146 147 148 149 150 151 152 153 154 155 156 157 158 159 160 161 162 163 164 165 166 167 168 169 170 171 172 173 174 175 176 177 178 179 180 181 182 183 184 185 186 187 188 189 190 191 192 193 194 195 196 197 198 199 200 201 202 203 204 205 206 207 208 209 210 211 212 213 214 215 216 217 218 219 220 221 222 223 224 225 226 227 228 229 230 231 232 233 234 235 236 237 238 239 240 241 242 243 244 245 246 247 248 249 250 251 252 253 254 255 256 257 258 259 260 261 262 263 264 265 266 267 268 269 270 271 272 273 274 275 276 277 278 279 280 281 282 283 284 285 286 287 288 289 290 291 292 293 294 295 296 297 298 299 
