ply
format ascii 1.0
comment written by koba@oshima.lab
element vertex 300
property float x
property float y
property float z
property int label
property int attribute
property float radius
property float curvature
property float torsion
element edge 300
property int vertex1
property int vertex2
property int label
element vertex_seq 1
property int label
property list int int vertex_indices
end_header
-1.55672 28.4625 -10.4708 0 0 1.5 0.0177839 0.027987 
-1.58091 28.0948 -10.2867 0 0 1.5 0.0176775 0.030104 
-1.6051 27.7271 -10.1025 0 0 1.5 0.0175638 0.0342636 
-1.62929 27.3594 -9.9184 0 0 1.5 0.0174381 0.0405478 
-1.65348 26.9917 -9.73428 0 0 1.5 0.0171341 0.0601114 
-1.67767 26.6239 -9.55015 0 0 1.5 0.0169452 0.0740962 
-1.70186 26.2562 -9.36602 0 0 1.5 0.0167241 0.0913907 
-1.72605 25.8885 -9.1819 0 0 1.5 0.0164685 0.11247 
-1.75024 25.5208 -8.99777 0 0 1.5 0.015853 0.167069 
-1.77443 25.1531 -8.81364 0 0 1.5 0.0154973 0.202009 
-1.79862 24.7854 -8.62951 0 0 1.5 0.0151252 0.243241 
-1.82281 24.4176 -8.44539 0 0 1.5 0.014761 0.290111 
-1.847 24.0499 -8.26126 0 0 1.5 0.014202 0.394534 
-1.87119 23.6822 -8.07713 0 0 1.5 0.0141173 0.445511 
-1.89538 23.3145 -7.89301 0 0 1.5 0.0142603 0.485291 
-1.91957 22.9468 -7.70888 0 0 1.5 0.015507 0.503632 
-1.94376 22.5791 -7.52475 0 0 1.5 0.0167107 0.481882 
-1.96795 22.2113 -7.34062 0 0 1.5 0.0183303 0.445783 
-1.99214 21.8436 -7.1565 0 0 1.5 0.0203492 0.403363 
-2.01633 21.4759 -6.97237 0 0 1.5 0.0254551 0.3256 
-2.04052 21.1082 -6.78824 0 0 1.5 0.0284783 0.294444 
-2.06471 20.7405 -6.60412 0 0 1.5 0.0317665 0.268455 
-2.0889 20.3728 -6.41999 0 0 1.5 0.0352831 0.247832 
-2.11309 20.005 -6.23586 0 0 1.5 0.0428871 0.220225 
-2.13728 19.6373 -6.05173 0 0 1.5 0.0469167 0.211342 
-2.16147 19.2696 -5.86761 0 0 1.5 0.0510568 0.205425 
-2.18566 18.9019 -5.68348 0 0 1.5 0.059584 0.200791 
-2.20985 18.5342 -5.49935 0 0 1.5 0.0639379 0.200242 
-2.23404 18.1665 -5.31523 0 0 1.5 0.0683309 0.200906 
-2.25823 17.7987 -5.1311 0 0 1.5 0.0727536 0.202946 
-2.28242 17.431 -4.94697 0 0 1.5 0.0817016 0.207649 
-2.30661 17.0633 -4.76284 0 0 1.5 0.0862522 0.209844 
-2.39519 16.7245 -4.54833 0 0 1.5 0.0908737 0.212264 
-2.49492 16.3906 -4.32855 0 0 1.5 0.095589 0.21399 
-2.65541 16.0901 -4.09738 0 0 1.5 0.105436 0.213184 
-2.82495 15.7944 -3.8669 0 0 1.5 0.110611 0.211299 
-3.03758 15.5206 -3.64436 0 0 1.5 0.115972 0.208103 
-3.26345 15.2505 -3.43165 0 0 1.5 0.121533 0.203181 
-3.51324 14.9873 -3.23669 0 0 1.5 0.133221 0.189646 
-3.77944 14.7206 -3.07203 0 0 1.5 0.139285 0.181665 
-4.05469 14.4514 -2.9262 0 0 1.5 0.145456 0.173051 
-4.33902 14.1651 -2.84322 0 0 1.5 0.157941 0.154487 
-4.61754 13.8674 -2.80183 0 0 1.5 0.16413 0.14516 
-4.88977 13.5585 -2.80171 0 0 1.5 0.170224 0.136257 
-5.13212 13.2347 -2.87979 0 0 1.5 0.17618 0.127646 
-5.35507 12.9085 -2.99035 0 0 1.5 0.187464 0.111359 
-5.55939 12.5801 -3.1321 0 0 1.5 0.192693 0.104278 
-5.73466 12.2539 -3.31203 0 0 1.5 0.197582 0.0978387 
-5.90292 11.9291 -3.5009 0 0 1.5 0.202068 0.0919274 
-6.05419 11.6086 -3.7109 0 0 1.5 0.209522 0.082647 
-6.20118 11.2907 -3.92761 0 0 1.5 0.21232 0.0794233 
-6.34121 10.9772 -4.15525 0 0 1.5 0.214361 0.0770655 
-6.47794 10.6689 -4.3915 0 0 1.5 0.215686 0.0751876 
-6.61175 10.3651 -4.63542 0 0 1.5 0.214727 0.0757892 
-6.74057 10.0713 -4.89361 0 0 1.5 0.212548 0.0775003 
-6.86713 9.78207 -5.15826 0 0 1.5 0.209083 0.0802527 
-6.97995 9.51338 -5.44921 0 0 1.5 0.19825 0.0890272 
-7.0848 9.25435 -5.75092 0 0 1.5 0.190976 0.0955529 
-7.16681 9.02158 -6.08077 0 0 1.5 0.182607 0.103603 
-7.21954 8.81776 -6.43305 0 0 1.5 0.173317 0.113237 
-7.25011 8.63535 -6.80044 0 0 1.5 0.152807 0.139701 
-7.22892 8.49916 -7.18865 0 0 1.5 0.142027 0.157689 
-7.17894 8.38559 -7.57992 0 0 1.5 0.131238 0.179365 
-7.10304 8.29237 -7.97394 0 0 1.5 0.110697 0.237841 
-6.98886 8.22213 -8.3631 0 0 1.5 0.101505 0.275633 
-6.86623 8.15596 -8.75064 0 0 1.5 0.0934756 0.317433 
-6.715 8.09728 -9.12931 0 0 1.5 0.0869997 0.35957 
-6.56 8.03729 -9.50612 0 0 1.5 0.080368 0.414051 
-6.38757 7.97129 -9.87438 0 0 1.5 0.0809222 0.409075 
-6.21315 7.9023 -10.241 0 0 1.5 0.0842722 0.380864 
-6.02749 7.81653 -10.5986 0 0 1.5 0.0903372 0.337623 
-5.84149 7.72932 -10.9556 0 0 1.5 0.109815 0.244215 
-5.64878 7.61389 -11.301 0 0 1.5 0.122848 0.204847 
-5.45608 7.49845 -11.6463 0 0 1.5 0.137932 0.172215 
-5.26145 7.34853 -11.9768 0 0 1.5 0.155063 0.146003 
-5.06665 7.19543 -12.3059 0 0 1.5 0.195804 0.108878 
-4.87356 7.00656 -12.6163 0 0 1.5 0.219674 0.0957292 
-4.6809 6.80881 -12.922 0 0 1.5 0.246084 0.0852905 
-4.49327 6.5721 -13.2008 0 0 1.5 0.307144 0.0705621 
-4.30723 6.32301 -13.4711 0 0 1.5 0.34189 0.0652782 
-4.13198 6.02643 -13.6951 0 0 1.5 0.37927 0.0610062 
-3.96064 5.71642 -13.9035 0 0 1.5 0.418931 0.0575232 
-3.81093 5.35544 -14.0339 0 0 1.5 0.501864 0.0518726 
-3.68011 4.97734 -14.1076 0 0 1.5 0.542373 0.049239 
-3.56985 4.5806 -14.1198 0 0 1.5 0.579812 0.0463707 
-3.51327 4.1904 -14.0014 0 0 1.5 0.611988 0.04307 
-3.48659 3.82518 -13.8248 0 0 1.5 0.651656 0.0345887 
-3.48761 3.48347 -13.5947 0 0 1.5 0.655902 0.0290208 
-3.53667 3.20598 -13.2951 0 0 1.5 0.649015 0.0226311 
-3.59997 2.95073 -12.9807 0 0 1.5 0.605135 0.00817206 
-3.69439 2.74525 -12.6363 0 0 1.5 0.571748 0.000459795 
-3.8092 2.57461 -12.2818 0 0 1.5 0.533726 -0.00740782 
-3.94406 2.43822 -11.9172 0 0 1.5 0.493131 -0.01541 
-4.1064 2.35202 -11.5506 0 0 1.5 0.410722 -0.0314304 
-4.28133 2.28881 -11.183 0 0 1.5 0.371265 -0.0397766 
-4.48958 2.29664 -10.8289 0 0 1.5 0.333872 -0.0489145 
-4.70565 2.32391 -10.4805 0 0 1.5 0.298831 -0.0590466 
-4.94694 2.42576 -10.1626 0 0 1.5 0.23632 -0.084256 
-5.19281 2.55645 -9.86217 0 0 1.5 0.20878 -0.101648 
-5.44634 2.73523 -9.59113 0 0 1.5 0.183548 -0.124054 
-5.69726 2.94987 -9.34748 0 0 1.5 0.139693 -0.193058 
-5.94651 3.18745 -9.12135 0 0 1.5 0.121038 -0.247896 
-6.18423 3.45506 -8.91851 0 0 1.5 0.104737 -0.322847 
-6.41883 3.73084 -8.72199 0 0 1.5 0.091225 -0.41964 
-6.63606 4.02525 -8.53289 0 0 1.5 0.0757685 -0.615483 
-6.85144 4.32165 -8.34458 0 0 1.5 0.0755912 -0.635614 
-7.04535 4.62334 -8.14189 0 0 1.5 0.0808121 -0.579916 
-7.23616 4.92372 -7.93487 0 0 1.5 0.0907395 -0.486209 
-7.40503 5.21459 -7.69701 0 0 1.5 0.120774 -0.318149 
-7.56363 5.49567 -7.44292 0 0 1.5 0.139307 -0.261782 
-7.7005 5.75604 -7.15451 0 0 1.5 0.159419 -0.220451 
-7.81143 5.98391 -6.83254 0 0 1.5 0.180568 -0.190161 
-7.90592 6.1912 -6.48931 0 0 1.5 0.223434 -0.152169 
-7.94902 6.32806 -6.10341 0 0 1.5 0.24364 -0.140398 
-7.96952 6.4334 -5.70863 0 0 1.5 0.261775 -0.131586 
-7.95486 6.48963 -5.3008 0 0 1.5 0.287946 -0.120415 
-7.89969 6.48952 -4.8944 0 0 1.5 0.294539 -0.116944 
-7.82782 6.46612 -4.49008 0 0 1.5 0.296323 -0.114323 
-7.71614 6.38662 -4.10161 0 0 1.5 0.293423 -0.112344 
-7.59296 6.28946 -3.72194 0 0 1.5 0.276098 -0.10945 
-7.449 6.16043 -3.35816 0 0 1.5 0.263456 -0.10818 
-7.29382 6.00928 -3.00871 0 0 1.5 0.249424 -0.106816 
-7.12967 5.84042 -2.67071 0 0 1.5 0.234879 -0.105137 
-6.9594 5.64791 -2.34932 0 0 1.5 0.206967 -0.099718 
-6.78659 5.44557 -2.03484 0 0 1.5 0.194538 -0.095485 
-6.61518 5.21854 -1.73719 0 0 1.5 0.183495 -0.0900103 
-6.44406 4.98646 -1.44298 0 0 1.5 0.16599 -0.074154 
-6.28273 4.72789 -1.16593 0 0 1.5 0.159524 -0.0637143 
-6.12311 4.46594 -0.891118 0 0 1.5 0.154452 -0.0520172 
-5.97908 4.17866 -0.633386 0 0 1.5 0.150618 -0.0391697 
-5.8392 3.88589 -0.38008 0 0 1.5 0.145886 -0.0110422 
-5.71539 3.57192 -0.143863 0 0 1.5 0.144548 0.00308806 
-5.59894 3.24872 0.0825515 0 0 1.5 0.143589 0.0171054 
-5.49555 2.90912 0.291568 0 0 1.5 0.142787 0.0311413 
-5.40148 2.557 0.482245 0 0 1.5 0.140836 0.0583828 
-5.31563 2.19386 0.656778 0 0 1.5 0.139345 0.0717721 
-5.23854 1.8164 0.801056 0 0 1.5 0.137327 0.0855484 
-5.16488 1.43333 0.93346 0 0 1.5 0.134682 0.0999114 
-5.09635 1.03696 1.02122 0 0 1.5 0.127369 0.13156 
-5.02816 0.638523 1.09873 0 0 1.5 0.122718 0.150085 
-4.95892 0.233641 1.13003 0 0 1.5 0.117473 0.171317 
-4.88748 -0.171071 1.14548 0 0 1.5 0.10572 0.224747 
-4.81115 -0.575405 1.1257 0 0 1.5 0.0995525 0.258697 
-4.72919 -0.976378 1.0848 0 0 1.5 0.0934726 0.298304 
-4.64109 -1.37368 1.02084 0 0 1.5 0.0877664 0.342977 
-4.54363 -1.76457 0.936786 0 0 1.5 0.078798 0.435909 
-4.44012 -2.15133 0.83978 0 0 1.5 0.0762316 0.4719 
-4.32344 -2.53029 0.728905 0 0 1.5 0.0753763 0.489769 
-4.20102 -2.90585 0.611981 0 0 1.5 0.0764304 0.484157 
-4.06129 -3.27353 0.490081 0 0 1.5 0.0842226 0.413958 
-3.91591 -3.63865 0.366559 0 0 1.5 0.0905975 0.365246 
-3.7482 -3.99556 0.248033 0 0 1.5 0.098265 0.317009 
-3.57503 -4.35046 0.130729 0 0 1.5 0.116328 0.234815 
-3.37314 -4.69473 0.0295124 0 0 1.5 0.126205 0.202351 
-3.16693 -5.03739 -0.0692927 0 0 1.5 0.136334 0.174816 
-2.9245 -5.36299 -0.138916 0 0 1.5 0.146482 0.151287 
-2.67641 -5.68496 -0.202933 0 0 1.5 0.165921 0.113875 
-2.39462 -5.98403 -0.232056 0 0 1.5 0.174791 0.0985864 
-2.1023 -6.27224 -0.247221 0 0 1.5 0.182808 0.084702 
-1.78603 -6.53567 -0.230565 0 0 1.5 0.18977 0.0720213 
-1.45671 -6.77744 -0.19034 0 0 1.5 0.199959 0.0493446 
-1.11451 -6.99783 -0.126829 0 0 1.5 0.202979 0.0386486 
-0.761677 -7.18644 -0.0334326 0 0 1.5 0.204545 0.028314 
-0.404015 -7.36062 0.0735369 0 0 1.5 0.203471 0.00868783 
-0.0414783 -7.49712 0.211975 0 0 1.5 0.201006 -0.000978316 
0.322004 -7.62632 0.356514 0 0 1.5 0.197415 -0.0104645 
0.6842 -7.7162 0.530566 0 0 1.5 0.192855 -0.0196102 
1.04626 -7.80336 0.706638 0 0 1.5 0.181468 -0.0373447 
1.40214 -7.85316 0.908061 0 0 1.5 0.174935 -0.0458811 
1.75755 -7.9012 1.11054 0 0 1.5 0.168019 -0.053952 
2.10407 -7.91645 1.33278 0 0 1.5 0.160835 -0.061627 
2.44963 -7.9289 1.55645 0 0 1.5 0.146011 -0.0759047 
2.78477 -7.91146 1.79535 0 0 1.5 0.138489 -0.0823108 
3.11825 -7.88979 2.03592 0 0 1.5 0.130941 -0.0882646 
3.44073 -7.84042 2.28746 0 0 1.5 0.123383 -0.0938534 
3.7605 -7.78454 2.54069 0 0 1.5 0.108257 -0.103893 
4.06975 -7.70346 2.80049 0 0 1.5 0.10069 -0.108395 
4.37504 -7.61267 3.06128 0 0 1.5 0.0931117 -0.112693 
4.67155 -7.50036 3.32428 0 0 1.5 0.0778715 -0.122184 
4.9633 -7.3749 3.5862 0 0 1.5 0.0701891 -0.128234 
5.24912 -7.23307 3.84676 0 0 1.5 0.062446 -0.135989 
5.53092 -7.07607 4.10262 0 0 1.5 0.0546253 -0.147317 
5.81004 -6.90894 4.35533 0 0 1.5 0.0387347 -0.19711 
6.08824 -6.72754 4.59887 0 0 1.5 0.0306725 -0.257576 
6.36614 -6.5416 4.8395 0 0 1.5 0.0225877 -0.397313 
6.64826 -6.34612 5.06725 0 0 1.5 0.0147422 -0.816861 
6.93109 -6.14961 5.29328 0 0 1.5 0.00949531 -1.88246 
7.22315 -5.95183 5.50609 0 0 1.5 0.0169191 -0.656706 
7.51671 -5.75501 5.71763 0 0 1.5 0.0261297 -0.3239 
7.82117 -5.56511 5.91998 0 0 1.5 0.0467837 -0.154068 
8.12794 -5.37818 6.12143 0 0 1.5 0.0580585 -0.125425 
8.44528 -5.20484 6.31881 0 0 1.5 0.0700006 -0.107493 
8.765 -5.03686 6.51665 0 0 1.5 0.08266 -0.0953744 
9.09339 -4.88835 6.71616 0 0 1.5 0.110341 -0.080158 
9.42347 -4.74807 6.91824 0 0 1.5 0.125437 -0.0746767 
9.75867 -4.63274 7.12811 0 0 1.5 0.141371 -0.0700078 
10.0937 -4.53032 7.34377 0 0 1.5 0.15809 -0.065929 
10.4284 -4.4573 7.57259 0 0 1.5 0.193379 -0.0584464 
10.758 -4.40599 7.81244 0 0 1.5 0.211491 -0.0546374 
11.0806 -4.38523 8.06781 0 0 1.5 0.22942 -0.0505987 
11.3859 -4.4018 8.34144 0 0 1.5 0.262604 -0.0419447 
11.6797 -4.44323 8.62721 0 0 1.5 0.276613 -0.0371678 
11.9311 -4.54381 8.93621 0 0 1.5 0.287985 -0.0319057 
12.1636 -4.66583 9.25147 0 0 1.5 0.296086 -0.0263553 
12.341 -4.84277 9.57846 0 0 1.5 0.300917 -0.0148818 
12.4807 -5.0483 9.90367 0 0 1.5 0.297406 -0.00880019 
12.5838 -5.28161 10.2272 0 0 1.5 0.290176 -0.00271027 
12.632 -5.54825 10.5357 0 0 1.5 0.279724 0.00316008 
12.6653 -5.82385 10.8399 0 0 1.5 0.251699 0.0146701 
12.6438 -6.12802 11.1169 0 0 1.5 0.235429 0.0203719 
12.6157 -6.43543 11.3889 0 0 1.5 0.218479 0.0259634 
12.5528 -6.75997 11.6347 0 0 1.5 0.201359 0.0316264 
12.4831 -7.08799 11.8732 0 0 1.5 0.168038 0.044009 
12.3914 -7.42746 12.0878 0 0 1.5 0.152303 0.0511663 
12.2948 -7.76995 12.2947 0 0 1.5 0.137366 0.0593888 
12.1846 -8.1209 12.4802 0 0 1.5 0.11008 0.0810436 
12.0717 -8.47435 12.6587 0 0 1.5 0.0977419 0.0960551 
11.9516 -8.8344 12.8188 0 0 1.5 0.0862598 0.115341 
11.8304 -9.19654 12.973 0 0 1.5 0.07562 0.140583 
11.7068 -9.56386 13.1127 0 0 1.5 0.0568682 0.220957 
11.584 -9.93302 13.2479 0 0 1.5 0.0488328 0.284552 
11.4626 -10.3062 13.3731 0 0 1.5 0.0418337 0.369517 
11.3436 -10.6811 13.4955 0 0 1.5 0.0360701 0.475831 
11.2288 -11.059 13.6126 0 0 1.5 0.0293579 0.666924 
11.1184 -11.4385 13.7287 0 0 1.5 0.0288169 0.668796 
11.0139 -11.8201 13.8435 0 0 1.5 0.0299894 0.597247 
10.9161 -12.203 13.9596 0 0 1.5 0.0356303 0.395596 
10.8246 -12.5871 14.077 0 0 1.5 0.0392029 0.314183 
10.7424 -12.9722 14.1979 0 0 1.5 0.0428456 0.251587 
10.666 -13.3578 14.3211 0 0 1.5 0.0463592 0.204454 
10.6014 -13.7437 14.4498 0 0 1.5 0.052476 0.140307 
10.5414 -14.1297 14.5806 0 0 1.5 0.0548937 0.118097 
10.4954 -14.5152 14.7179 0 0 1.5 0.0568087 0.10049 
10.4524 -14.9007 14.8566 0 0 1.5 0.0581902 0.0860777 
10.425 -15.2851 15.0021 0 0 1.5 0.0592914 0.0634107 
10.3991 -15.6694 15.1482 0 0 1.5 0.0590161 0.05451 
10.3894 -16.0521 15.3004 0 0 1.5 0.0582166 0.0466889 
10.3811 -16.4347 15.453 0 0 1.5 0.0569246 0.0395773 
10.3865 -16.8157 15.6095 0 0 1.5 0.053033 0.0272844 
10.3942 -17.1964 15.7665 0 0 1.5 0.05054 0.021909 
10.4131 -17.5759 15.9256 0 0 1.5 0.0477595 0.0168109 
10.4347 -17.9551 16.085 0 0 1.5 0.0415718 0.00716381 
10.4653 -18.3335 16.2451 0 0 1.5 0.0382775 0.00247274 
10.4988 -18.7117 16.4048 0 0 1.5 0.0349224 -0.00224722 
10.5392 -19.0895 16.564 0 0 1.5 0.0315569 -0.00722765 
10.5825 -19.4674 16.7222 0 0 1.5 0.0249543 -0.0191282 
10.6309 -19.8453 16.8788 0 0 1.5 0.0217898 -0.0265612 
10.6793 -20.2233 17.0353 0 0 1.5 0.0187599 -0.0358786 
10.7277 -20.6012 17.1919 0 0 1.5 0.0158855 -0.0484942 
10.7761 -20.9792 17.3485 0 0 1.5 0.0106754 -0.0928629 
10.8245 -21.3571 17.5051 0 0 1.5 0.00837555 -0.135989 
10.8729 -21.7351 17.6616 0 0 1.5 0.00629665 -0.214526 
10.9213 -22.113 17.8182 0 0 1.5 0.0029097 -0.769968 
10.9697 -22.491 17.9748 0 0 1.5 0.00181351 -1.70809 
11.0181 -22.8689 18.1314 0 0 1.5 0.00156944 -1.95532 
11.0665 -23.2469 18.2879 0 0 1.5 0.00210714 -0.924825 
11.1149 -23.6248 18.4445 0 0 1.5 0.00347817 -0.24261 
11.1633 -24.0028 18.6011 0 0 1.5 0.00401266 -0.15321 
11.2117 -24.3807 18.7577 0 0 1.5 0.00441673 -0.10591 
11.2601 -24.7587 18.9142 0 0 1.5 0.00469287 -0.0782683 
11.3085 -25.1366 19.0708 0 0 1.5 0.00489565 -0.0498106 
11.3569 -25.5146 19.2274 0 0 1.5 0.00484617 -0.0423114 
11.4053 -25.8925 19.384 0 0 1.5 0.00471354 -0.0372469 
11.4537 -26.2705 19.5405 0 0 1.5 0.00425041 -0.0319612 
11.5021 -26.6484 19.6971 0 0 1.5 0.00394364 -0.0311748 
11.5505 -27.0264 19.8537 0 0 1.5 0.0036026 -0.0314696 
11.5989 -27.4043 20.0102 0 0 1.5 0.00323864 -0.0329359 
11.6473 -27.7823 20.1668 0 0 1.5 0.0024769 -0.0409821 
11.6957 -28.1602 20.3234 0 0 1.5 0.00209585 -0.049136 
11.7441 -28.5382 20.48 0 0 1.5 0.00172535 -0.0625048 
11.7925 -28.9161 20.6365 0 0 1.5 0.00137079 -0.0859293 
11.8409 -29.294 20.7931 0 0 1.5 0.000732224 -0.229429 
11.8893 -29.672 20.9497 0 0 1.5 0.000466851 -0.494426 
11.9377 -30.0499 21.1063 0 0 1.5 0.000275509 0 
11.9861 -30.4279 21.2628 0 0 1.5 0.000256816 0 
12.0345 -30.8058 21.4194 0 0 1.5 0.000532439 -0.231862 
12.0829 -31.1838 21.576 0 0 1.5 0.000666651 -0.131825 
12.1313 -31.5617 21.7326 0 0 1.5 0.000779236 -0.0863505 
12.1797 -31.9397 21.8891 0 0 1.5 0.000936112 -0.0481205 
12.2281 -32.3176 22.0457 0 0 1.5 0.000982399 -0.0394361 
12.2765 -32.6956 22.2023 0 0 1.5 0.00100964 -0.0337974 
12.3249 -33.0735 22.3588 0 0 1.5 0.00101986 -0.029974 
12.3733 -33.4515 22.5154 0 0 1.5 0.000997828 -0.0258396 
12.4217 -33.8294 22.672 0 0 1.5 0.00097016 -0.0249298 
12.4701 -34.2074 22.8286 0 0 1.5 0.000934495 -0.0244521 
12.5185 -34.5853 22.9851 0 0 1.5 0.000893053 -0.0243329 
12.5669 -34.9633 23.1417 0 0 1.5 0.000799745 -0.0250523 
12.6153 -35.3412 23.2983 0 0 1.5 0.00075116 -0.0256166 
12.6637 -35.7192 23.4549 0 0 1.5 0.000703329 -0.0262034 
12.7121 -36.0971 23.6114 0 0 1.5 0.00061342 -0.0273063 
12.7605 -36.4751 23.768 0 0 1.5 0.000572867 -0.0274776 
12.8089 -36.853 23.9246 0 0 1.5 0.000536128 -0.0272449 
12.8573 -37.231 24.0812 0 0 1.5 0.000503312 -0.0266426 
12.9057 -37.6089 24.2377 0 0 1.5 0.000449355 0 
12.9541 -37.9869 24.3943 0 0 1.5 0.0004281 0 
13.0025 -38.3648 24.5509 0 0 1.5 0.000410251 0 
13.0509 -38.7428 24.7074 0 0 1.5 0.000395362 0 
13.0993 -39.1207 24.864 0 0 1.5 0.000372711 0 
13.1477 -39.4987 25.0206 0 0 1.5 0.000364046 0 
13.1961 -39.8766 25.1772 0 0 1.5 0.000356533 0 
0 1 0 
1 2 0 
2 3 0 
3 4 0 
4 5 0 
5 6 0 
6 7 0 
7 8 0 
8 9 0 
9 10 0 
10 11 0 
11 12 0 
12 13 0 
13 14 0 
14 15 0 
15 16 0 
16 17 0 
17 18 0 
18 19 0 
19 20 0 
20 21 0 
21 22 0 
22 23 0 
23 24 0 
24 25 0 
25 26 0 
26 27 0 
27 28 0 
28 29 0 
29 30 0 
30 31 0 
31 32 0 
32 33 0 
33 34 0 
34 35 0 
35 36 0 
36 37 0 
37 38 0 
38 39 0 
39 40 0 
40 41 0 
41 42 0 
42 43 0 
43 44 0 
44 45 0 
45 46 0 
46 47 0 
47 48 0 
48 49 0 
49 50 0 
50 51 0 
51 52 0 
52 53 0 
53 54 0 
54 55 0 
55 56 0 
56 57 0 
57 58 0 
58 59 0 
59 60 0 
60 61 0 
61 62 0 
62 63 0 
63 64 0 
64 65 0 
65 66 0 
66 67 0 
67 68 0 
68 69 0 
69 70 0 
70 71 0 
71 72 0 
72 73 0 
73 74 0 
74 75 0 
75 76 0 
76 77 0 
77 78 0 
78 79 0 
79 80 0 
80 81 0 
81 82 0 
82 83 0 
83 84 0 
84 85 0 
85 86 0 
86 87 0 
87 88 0 
88 89 0 
89 90 0 
90 91 0 
91 92 0 
92 93 0 
93 94 0 
94 95 0 
95 96 0 
96 97 0 
97 98 0 
98 99 0 
99 100 0 
100 101 0 
101 102 0 
102 103 0 
103 104 0 
104 105 0 
105 106 0 
106 107 0 
107 108 0 
108 109 0 
109 110 0 
110 111 0 
111 112 0 
112 113 0 
113 114 0 
114 115 0 
115 116 0 
116 117 0 
117 118 0 
118 119 0 
119 120 0 
120 121 0 
121 122 0 
122 123 0 
123 124 0 
124 125 0 
125 126 0 
126 127 0 
127 128 0 
128 129 0 
129 130 0 
130 131 0 
131 132 0 
132 133 0 
133 134 0 
134 135 0 
135 136 0 
136 137 0 
137 138 0 
138 139 0 
139 140 0 
140 141 0 
141 142 0 
142 143 0 
143 144 0 
144 145 0 
145 146 0 
146 147 0 
147 148 0 
148 149 0 
149 150 0 
150 151 0 
151 152 0 
152 153 0 
153 154 0 
154 155 0 
155 156 0 
156 157 0 
157 158 0 
158 159 0 
159 160 0 
160 161 0 
161 162 0 
162 163 0 
163 164 0 
164 165 0 
165 166 0 
166 167 0 
167 168 0 
168 169 0 
169 170 0 
170 171 0 
171 172 0 
172 173 0 
173 174 0 
174 175 0 
175 176 0 
176 177 0 
177 178 0 
178 179 0 
179 180 0 
180 181 0 
181 182 0 
182 183 0 
183 184 0 
184 185 0 
185 186 0 
186 187 0 
187 188 0 
188 189 0 
189 190 0 
190 191 0 
191 192 0 
192 193 0 
193 194 0 
194 195 0 
195 196 0 
196 197 0 
197 198 0 
198 199 0 
199 200 0 
200 201 0 
201 202 0 
202 203 0 
203 204 0 
204 205 0 
205 206 0 
206 207 0 
207 208 0 
208 209 0 
209 210 0 
210 211 0 
211 212 0 
212 213 0 
213 214 0 
214 215 0 
215 216 0 
216 217 0 
217 218 0 
218 219 0 
219 220 0 
220 221 0 
221 222 0 
222 223 0 
223 224 0 
224 225 0 
225 226 0 
226 227 0 
227 228 0 
228 229 0 
229 230 0 
230 231 0 
231 232 0 
232 233 0 
233 234 0 
234 235 0 
235 236 0 
236 237 0 
237 238 0 
238 239 0 
239 240 0 
240 241 0 
241 242 0 
242 243 0 
243 244 0 
244 245 0 
245 246 0 
246 247 0 
247 248 0 
248 249 0 
249 250 0 
250 251 0 
251 252 0 
252 253 0 
253 254 0 
254 255 0 
255 256 0 
256 257 0 
257 258 0 
258 259 0 
259 260 0 
260 261 0 
261 262 0 
262 263 0 
263 264 0 
264 265 0 
265 266 0 
266 267 0 
267 268 0 
268 269 0 
269 270 0 
270 271 0 
271 272 0 
272 273 0 
273 274 0 
274 275 0 
275 276 0 
276 277 0 
277 278 0 
278 279 0 
279 280 0 
280 281 0 
281 282 0 
282 283 0 
283 284 0 
284 285 0 
285 286 0 
286 287 0 
287 288 0 
288 289 0 
289 290 0 
290 291 0 
291 292 0 
292 293 0 
293 294 0 
294 295 0 
295 296 0 
296 297 0 
297 298 0 
298 299 0 
-1 -1 0 
-1 300 0 1 2 3 4 5 6 7 8 9 10 11 12 13 14 15 16 17 18 19 20 21 22 23 24 25 26 27 28 29 30 31 32 33 34 35 36 37 38 39 40 41 42 43 44 45 46 47 48 49 50 51 52 53 54 55 56 57 58 59 60 61 62 63 64 65 66 67 68 69 70 71 72 73 74 75 76 77 78 79 80 81 82 83 84 85 86 87 88 89 90 91 92 93 94 95 96 97 98 99 100 101 102 103 104 105 106 107 108 109 110 111 112 113 114 115 116 117 118 119 120 121 122 123 124 125 126 127 128 129 130 131 132 133 134 135 136 137 138 139 140 141 142 143 144 145 146 147 148 149 150 151 152 153 154 155 156 157 158 159 160 161 162 163 164 165 166 167 168 169 170 171 172 173 174 175 176 177 178 179 180 181 182 183 184 185 186 187 188 189 190 191 192 193 194 195 196 197 198 199 200 201 202 203 204 205 206 207 208 209 210 211 212 213 214 215 216 217 218 219 220 221 222 223 224 225 226 227 228 229 230 231 232 233 234 235 236 237 238 239 240 241 242 243 244 245 246 247 248 249 250 251 252 253 254 255 256 257 258 259 260 261 262 263 264 265 266 267 268 269 270 271 272 273 274 275 276 277 278 279 280 281 282 283 284 285 286 287 288 289 290 291 292 293 294 295 296 297 298 299 
