ply
format ascii 1.0
comment written by koba@oshima.lab
element vertex 300
property float x
property float y
property float z
property int label
property int attribute
property float radius
property float curvature
property float torsion
element edge 300
property int vertex1
property int vertex2
property int label
element vertex_seq 1
property int label
property list int int vertex_indices
end_header
-0.124964 29.6842 -12.8297 0 0 1.5 0.0371605 -0.00493882 
-0.232301 29.432 -12.5438 0 0 1.5 0.036675 -0.0050865 
-0.339638 29.1798 -12.2578 0 0 1.5 0.0361838 -0.00539577 
-0.446974 28.9276 -11.9719 0 0 1.5 0.0356835 -0.00586639 
-0.554311 28.6754 -11.686 0 0 1.5 0.034642 -0.00729449 
-0.661648 28.4232 -11.4 0 0 1.5 0.0340884 -0.0082611 
-0.768984 28.171 -11.1141 0 0 1.5 0.033501 -0.00941168 
-0.876321 27.9188 -10.8282 0 0 1.5 0.0328718 -0.0107645 
-0.983658 27.6666 -10.5422 0 0 1.5 0.0314425 -0.0140779 
-1.09099 27.4144 -10.2563 0 0 1.5 0.030607 -0.0161314 
-1.19833 27.1622 -9.97036 0 0 1.5 0.0296693 -0.0185752 
-1.30567 26.91 -9.68442 0 0 1.5 0.0286139 -0.0214835 
-1.413 26.6578 -9.39849 0 0 1.5 0.0260644 -0.0294921 
-1.52034 26.4055 -9.11255 0 0 1.5 0.0245344 -0.0354351 
-1.62768 26.1533 -8.82662 0 0 1.5 0.022819 -0.0435318 
-1.73501 25.9011 -8.54068 0 0 1.5 0.0188287 -0.0721465 
-1.84235 25.6489 -8.25475 0 0 1.5 0.0166033 -0.0991025 
-1.94969 25.3967 -7.96881 0 0 1.5 0.0143379 -0.142506 
-2.05702 25.1445 -7.68288 0 0 1.5 0.0122613 -0.209848 
-2.16436 24.8923 -7.39694 0 0 1.5 0.0107708 -0.322897 
-2.2717 24.6401 -7.11101 0 0 1.5 0.0125412 -0.262715 
-2.37903 24.3879 -6.82507 0 0 1.5 0.0159556 -0.180212 
-2.48637 24.1357 -6.53914 0 0 1.5 0.0205798 -0.12131 
-2.59371 23.8835 -6.2532 0 0 1.5 0.0324801 -0.0628321 
-2.70104 23.6313 -5.96727 0 0 1.5 0.0395726 -0.0486276 
-2.80838 23.379 -5.68133 0 0 1.5 0.0474002 -0.0392854 
-2.91572 23.1268 -5.3954 0 0 1.5 0.0653817 -0.0284786 
-3.02305 22.8746 -5.10947 0 0 1.5 0.0756086 -0.0251639 
-3.13039 22.6224 -4.82353 0 0 1.5 0.0867011 -0.022728 
-3.23773 22.3702 -4.5376 0 0 1.5 0.0986948 -0.0209655 
-3.34506 22.118 -4.25166 0 0 1.5 0.12547 -0.0185529 
-3.4524 21.8658 -3.96573 0 0 1.5 0.140214 -0.0177228 
-3.55974 21.6136 -3.67979 0 0 1.5 0.155773 -0.0171163 
-3.66774 21.3572 -3.39844 0 0 1.5 0.17201 -0.0166025 
-3.78115 21.0669 -3.15399 0 0 1.5 0.205592 -0.0155203 
-3.89455 20.7766 -2.90954 0 0 1.5 0.222215 -0.0149493 
-4.01538 20.4477 -2.72551 0 0 1.5 0.238074 -0.014238 
-4.13767 20.1121 -2.55767 0 0 1.5 0.252602 -0.013259 
-4.26629 19.7489 -2.46595 0 0 1.5 0.275192 -0.0103963 
-4.39691 19.3799 -2.4367 0 0 1.5 0.282081 -0.00841205 
-4.52863 19.0091 -2.46531 0 0 1.5 0.285513 -0.00595184 
-4.65816 18.6536 -2.58257 0 0 1.5 0.281671 0.000549061 
-4.78344 18.3203 -2.75158 0 0 1.5 0.274742 0.004624 
-4.90568 18.0026 -2.95291 0 0 1.5 0.265061 0.00925581 
-5.02191 17.7139 -3.19793 0 0 1.5 0.253221 0.0145256 
-5.13505 17.4389 -3.45876 0 0 1.5 0.225476 0.027321 
-5.24508 17.1778 -3.73557 0 0 1.5 0.21069 0.0348897 
-5.35121 16.9321 -4.02729 0 0 1.5 0.195922 0.0434495 
-5.45601 16.6917 -4.32406 0 0 1.5 0.181518 0.0532381 
-5.55654 16.4647 -4.63267 0 0 1.5 0.154744 0.0765303 
-5.65662 16.2392 -4.94253 0 0 1.5 0.142673 0.0902486 
-5.75181 16.0245 -5.26146 0 0 1.5 0.131596 0.105605 
-5.84659 15.8103 -5.58087 0 0 1.5 0.112532 0.140579 
-5.93573 15.6035 -5.90676 0 0 1.5 0.104528 0.159783 
-6.02388 15.3975 -6.23335 0 0 1.5 0.0975159 0.179697 
-6.10467 15.1967 -6.56506 0 0 1.5 0.0914663 0.199607 
-6.18341 14.9966 -6.89769 0 0 1.5 0.0820296 0.236301 
-6.25236 14.8001 -7.23462 0 0 1.5 0.0785205 0.251625 
-6.31727 14.6044 -7.5727 0 0 1.5 0.0757261 0.264153 
-6.36988 14.4109 -7.91432 0 0 1.5 0.0735615 0.27371 
-6.41506 14.2183 -8.25726 0 0 1.5 0.070776 0.284654 
-6.44629 14.027 -8.60271 0 0 1.5 0.06999 0.28697 
-6.46502 13.8365 -8.94925 0 0 1.5 0.0695166 0.287871 
-6.47004 13.647 -9.29699 0 0 1.5 0.069306 0.287487 
-6.45621 13.4584 -9.64472 0 0 1.5 0.069501 0.286724 
-6.43139 13.2703 -9.99243 0 0 1.5 0.0698856 0.285373 
-6.38144 13.0833 -10.3378 0 0 1.5 0.0704719 0.283468 
-6.32526 12.8966 -10.6826 0 0 1.5 0.0723638 0.277227 
-6.23981 12.7105 -11.0216 0 0 1.5 0.0737704 0.271365 
-6.15013 12.5244 -11.3594 0 0 1.5 0.0755715 0.263378 
-6.0378 12.3375 -11.69 0 0 1.5 0.0778423 0.253348 
-5.9203 12.1495 -12.0181 0 0 1.5 0.0841393 0.226145 
-5.78817 11.9585 -12.339 0 0 1.5 0.0883455 0.209532 
-5.65171 11.7645 -12.6561 0 0 1.5 0.0933843 0.191804 
-5.50746 11.5649 -12.9664 0 0 1.5 0.0993649 0.173518 
-5.36155 11.3592 -13.2716 0 0 1.5 0.114612 0.13745 
-5.21342 11.1452 -13.5702 0 0 1.5 0.12415 0.120558 
-5.06734 10.9211 -13.862 0 0 1.5 0.135195 0.104926 
-4.92349 10.686 -14.1466 0 0 1.5 0.162686 0.0779621 
-4.78609 10.4361 -14.4208 0 0 1.5 0.179679 0.0663926 
-4.65405 10.1736 -14.6865 0 0 1.5 0.199297 0.0561051 
-4.53412 9.88974 -14.9343 0 0 1.5 0.221964 0.0470794 
-4.42053 9.59456 -15.1728 0 0 1.5 0.278396 0.0316977 
-4.32722 9.26918 -15.3773 0 0 1.5 0.313231 0.0250633 
-4.24164 8.93342 -15.5675 0 0 1.5 0.353222 0.0191065 
-4.18082 8.56776 -15.7071 0 0 1.5 0.398788 0.0135889 
-4.13812 8.18804 -15.8009 0 0 1.5 0.506332 0.00319667 
-4.11332 7.79691 -15.8475 0 0 1.5 0.566296 -0.00175906 
-4.11936 7.40373 -15.7999 0 0 1.5 0.62699 -0.00660352 
-4.14927 7.03506 -15.6687 0 0 1.5 0.730509 -0.0156836 
-4.19813 6.70204 -15.4684 0 0 1.5 0.760756 -0.0195038 
-4.26309 6.41174 -15.2079 0 0 1.5 0.769378 -0.0225525 
-4.34594 6.19894 -14.8843 0 0 1.5 0.754355 -0.024699 
-4.43773 6.03653 -14.5378 0 0 1.5 0.664663 -0.0265393 
-4.53635 5.9131 -14.1752 0 0 1.5 0.602056 -0.0265851 
-4.64684 5.86164 -13.7984 0 0 1.5 0.536011 -0.0263597 
-4.76306 5.84613 -13.4219 0 0 1.5 0.471144 -0.0261034 
-4.88533 5.86868 -13.0458 0 0 1.5 0.355223 -0.0262216 
-5.01514 5.94696 -12.6809 0 0 1.5 0.306011 -0.026917 
-5.14704 6.04304 -12.3204 0 0 1.5 0.262527 -0.0282605 
-5.28317 6.19157 -11.9794 0 0 1.5 0.190567 -0.0339031 
-5.41911 6.35417 -11.6456 0 0 1.5 0.160768 -0.0392022 
-5.55463 6.54798 -11.3279 0 0 1.5 0.134215 -0.0474612 
-5.6877 6.75581 -11.0186 0 0 1.5 0.110345 -0.0607493 
-5.81781 6.98053 -10.7195 0 0 1.5 0.0687879 -0.126454 
-5.94317 7.21419 -10.4254 0 0 1.5 0.0504243 -0.220299 
-6.06437 7.45568 -10.1358 0 0 1.5 0.0336512 -0.475486 
-6.17918 7.699 -9.84517 0 0 1.5 0.0200136 -1.32615 
-6.28919 7.94369 -9.55378 0 0 1.5 0.0286915 -0.677636 
-6.39178 8.18195 -9.25462 0 0 1.5 0.0449313 -0.293584 
-6.48937 8.41588 -8.95026 0 0 1.5 0.0630522 -0.161926 
-6.57867 8.63292 -8.63165 0 0 1.5 0.0826753 -0.104404 
-6.66345 8.84076 -8.30531 0 0 1.5 0.127003 -0.0572835 
-6.73902 9.01609 -7.95901 0 0 1.5 0.152225 -0.0462236 
-6.8115 9.1805 -7.60602 0 0 1.5 0.179803 -0.0386344 
-6.87411 9.28896 -7.23071 0 0 1.5 0.242419 -0.0288492 
-6.93461 9.38124 -6.85128 0 0 1.5 0.27716 -0.0252396 
-6.98802 9.40874 -6.45977 0 0 1.5 0.313373 -0.0218729 
-7.03913 9.40073 -6.06927 0 0 1.5 0.349794 -0.0185802 
-7.08709 9.3443 -5.68017 0 0 1.5 0.4154 -0.0116599 
-7.13252 9.22683 -5.30661 0 0 1.5 0.439502 -0.00766945 
-7.17685 9.08318 -4.94059 0 0 1.5 0.454395 -0.00343577 
-7.21777 8.86586 -4.61198 0 0 1.5 0.458451 0.000803987 
-7.25639 8.6247 -4.30286 0 0 1.5 0.433938 0.00916982 
-7.29098 8.34144 -4.02817 0 0 1.5 0.408411 0.0130524 
-7.31794 8.02324 -3.79712 0 0 1.5 0.377372 0.0164944 
-7.34125 7.68829 -3.58699 0 0 1.5 0.308715 0.0224492 
-7.348 7.3188 -3.44483 0 0 1.5 0.274809 0.0251808 
-7.3488 6.94373 -3.3215 0 0 1.5 0.242716 0.0278711 
-7.33413 6.55512 -3.24628 0 0 1.5 0.212988 0.0306729 
-7.30764 6.16385 -3.19898 0 0 1.5 0.161243 0.0373734 
-7.27027 5.77011 -3.17741 0 0 1.5 0.139089 0.0418546 
-7.21691 5.37809 -3.18208 0 0 1.5 0.119186 0.0475201 
-7.15781 4.98669 -3.19618 0 0 1.5 0.101329 0.0548334 
-7.08106 4.59917 -3.22417 0 0 1.5 0.0709344 0.0795321 
-7.00118 4.2123 -3.25266 0 0 1.5 0.0580313 0.101504 
-6.90748 3.82814 -3.27578 0 0 1.5 0.0464813 0.135885 
-6.81034 3.44466 -3.29067 0 0 1.5 0.0362046 0.194274 
-6.70589 3.0626 -3.28804 0 0 1.5 0.0194315 0.52632 
-6.59881 2.6827 -3.26189 0 0 1.5 0.0134164 0.983416 
-6.48978 2.3044 -3.21838 0 0 1.5 0.0101519 1.53478 
-6.38266 1.93273 -3.13463 0 0 1.5 0.0134105 0.696444 
-6.27703 1.56372 -3.0381 0 0 1.5 0.0168376 0.380799 
-6.17761 1.20314 -2.90777 0 0 1.5 0.0201252 0.219902 
-6.08221 0.845954 -2.76632 0 0 1.5 0.0230519 0.128244 
-5.99214 0.493271 -2.61014 0 0 1.5 0.0277073 0.0208336 
-5.90749 0.141861 -2.44828 0 0 1.5 0.0295075 -0.0180611 
-5.82575 -0.208862 -2.28335 0 0 1.5 0.0310579 -0.0519397 
-5.74861 -0.563209 -2.1241 0 0 1.5 0.0324636 -0.0826021 
-5.67252 -0.918374 -1.96612 0 0 1.5 0.0353366 -0.133259 
-5.59862 -1.28142 -1.82613 0 0 1.5 0.0370532 -0.149922 
-5.52485 -1.64519 -1.68791 0 0 1.5 0.0391111 -0.159201 
-5.45004 -2.01744 -1.57514 0 0 1.5 0.044671 -0.154493 
-5.3749 -2.39014 -1.46429 0 0 1.5 0.0482993 -0.142632 
-5.29549 -2.76843 -1.37779 0 0 1.5 0.0525184 -0.126969 
-5.21526 -3.14693 -1.29325 0 0 1.5 0.0573328 -0.109248 
-5.12738 -3.52741 -1.22695 0 0 1.5 0.0686576 -0.0755425 
-5.03806 -3.90771 -1.16168 0 0 1.5 0.0750447 -0.0614212 
-4.93713 -4.28647 -1.10476 0 0 1.5 0.0818209 -0.049193 
-4.83359 -4.66437 -1.04718 0 0 1.5 0.0889049 -0.0391841 
-4.7142 -5.03699 -0.985604 0 0 1.5 0.10354 -0.0258574 
-4.58928 -5.4067 -0.91937 0 0 1.5 0.110824 -0.0218014 
-4.44545 -5.7665 -0.837227 0 0 1.5 0.117887 -0.0191868 
-4.28991 -6.11681 -0.740678 0 0 1.5 0.130717 -0.0176996 
-4.11667 -6.45277 -0.622329 0 0 1.5 0.13615 -0.0185611 
-3.92319 -6.76258 -0.472599 0 0 1.5 0.140707 -0.0201414 
-3.71944 -7.05912 -0.306953 0 0 1.5 0.144271 -0.0221754 
-3.49033 -7.30139 -0.0931659 0 0 1.5 0.14806 -0.0277732 
-3.25546 -7.52238 0.134169 0 0 1.5 0.148173 -0.0310684 
-3.01022 -7.70508 0.385893 0 0 1.5 0.147124 -0.0342456 
-2.75915 -7.85211 0.653293 0 0 1.5 0.144989 -0.0373685 
-2.50534 -7.98231 0.928095 0 0 1.5 0.137851 -0.0434049 
-2.24625 -8.07681 1.21223 0 0 1.5 0.133106 -0.0457874 
-1.98601 -8.16604 1.49708 0 0 1.5 0.127774 -0.0476206 
-1.71989 -8.23476 1.7823 0 0 1.5 0.121994 -0.0488474 
-1.45138 -8.30077 2.06582 0 0 1.5 0.109612 -0.04875 
-1.17575 -8.35871 2.34432 0 0 1.5 0.103251 -0.0469172 
-0.895518 -8.41582 2.61822 0 0 1.5 0.0969102 -0.0434525 
-0.607417 -8.47151 2.88428 0 0 1.5 0.0845554 -0.0315887 
-0.31216 -8.52801 3.14195 0 0 1.5 0.0786259 -0.022641 
-0.00967004 -8.58532 3.39116 0 0 1.5 0.0728996 -0.010797 
0.302346 -8.64329 3.62789 0 0 1.5 0.0673932 0.00393383 
0.619414 -8.7016 3.85802 0 0 1.5 0.0570429 0.0427085 
0.94737 -8.75732 4.07287 0 0 1.5 0.0522023 0.0688793 
1.278 -8.81195 4.28398 0 0 1.5 0.0475935 0.100395 
1.61752 -8.85835 4.48263 0 0 1.5 0.0432227 0.13759 
1.95864 -8.90014 4.67941 0 0 1.5 0.0352695 0.235165 
2.3031 -8.93232 4.87229 0 0 1.5 0.0317597 0.297784 
2.64722 -8.95404 5.06703 0 0 1.5 0.0286313 0.369009 
2.99111 -8.96879 5.26301 0 0 1.5 0.0238012 0.521157 
3.32954 -8.9679 5.4687 0 0 1.5 0.022244 0.58376 
3.6654 -8.96247 5.67839 0 0 1.5 0.0213282 0.621175 
3.9924 -8.94492 5.90122 0 0 1.5 0.0210512 0.62612 
4.31346 -8.9231 6.13185 0 0 1.5 0.0221201 0.562226 
4.62723 -8.89604 6.37207 0 0 1.5 0.0232563 0.516699 
4.93172 -8.86688 6.62353 0 0 1.5 0.0246625 0.473997 
5.2322 -8.83681 6.87984 0 0 1.5 0.0262615 0.438237 
5.52221 -8.81018 7.14827 0 0 1.5 0.0298781 0.384586 
5.81035 -8.78496 7.41882 0 0 1.5 0.0318871 0.363114 
6.09091 -8.76866 7.69794 0 0 1.5 0.0340396 0.34376 
6.36993 -8.75652 7.97872 0 0 1.5 0.0388362 0.304686 
6.6449 -8.75522 8.26381 0 0 1.5 0.041515 0.283629 
6.91858 -8.76176 8.54992 0 0 1.5 0.0443904 0.261924 
7.19051 -8.77882 8.83741 0 0 1.5 0.0474599 0.239606 
7.46194 -8.80705 9.12433 0 0 1.5 0.0541364 0.194073 
7.73297 -8.84395 9.4108 0 0 1.5 0.0577013 0.171809 
8.00461 -8.89431 9.6945 0 0 1.5 0.0613793 0.150362 
8.27651 -8.95071 9.97694 0 0 1.5 0.0651361 0.12993 
8.55013 -9.02189 10.2542 0 0 1.5 0.0727347 0.0920475 
8.82416 -9.09652 10.5303 0 0 1.5 0.0764975 0.0747528 
9.10081 -9.18688 10.799 0 0 1.5 0.0801821 0.0587477 
9.3778 -9.27927 11.0666 0 0 1.5 0.0837483 0.043744 
9.6574 -9.38729 11.3255 0 0 1.5 0.0903684 0.0160809 
9.93728 -9.49847 11.5827 0 0 1.5 0.0933492 0.0036998 
10.2185 -9.62407 11.8317 0 0 1.5 0.0960664 -0.00798001 
10.4995 -9.75651 12.0772 0 0 1.5 0.100588 -0.0299347 
10.7801 -9.90289 12.3153 0 0 1.5 0.102344 -0.0399926 
11.0588 -10.062 12.5472 0 0 1.5 0.103738 -0.0496388 
11.3354 -10.2337 12.7728 0 0 1.5 0.104755 -0.0590907 
11.6059 -10.4265 12.988 0 0 1.5 0.105636 -0.0767952 
11.8738 -10.6282 13.1988 0 0 1.5 0.105517 -0.0850162 
12.1282 -10.8605 13.3939 0 0 1.5 0.105041 -0.0930011 
12.3785 -11.1003 13.585 0 0 1.5 0.104224 -0.100679 
12.6121 -11.3673 13.7611 0 0 1.5 0.101697 -0.114727 
12.8367 -11.645 13.9312 0 0 1.5 0.100054 -0.121139 
13.0467 -11.9402 14.0914 0 0 1.5 0.0982003 -0.127089 
13.2426 -12.2478 14.245 0 0 1.5 0.0940221 -0.137071 
13.4276 -12.5649 14.3935 0 0 1.5 0.0917689 -0.140873 
13.5958 -12.8928 14.5382 0 0 1.5 0.0894429 -0.143834 
13.7569 -13.2251 14.6813 0 0 1.5 0.0870716 -0.145899 
13.9008 -13.5648 14.8253 0 0 1.5 0.0822692 -0.146588 
14.0402 -13.9064 14.9695 0 0 1.5 0.0798555 -0.145247 
14.1631 -14.2516 15.1197 0 0 1.5 0.0774375 -0.143092 
14.283 -14.5974 15.271 0 0 1.5 0.0750139 -0.13997 
14.3877 -14.9438 15.4319 0 0 1.5 0.0701197 -0.130696 
14.4902 -15.2903 15.5941 0 0 1.5 0.067627 -0.12529 
14.578 -15.6354 15.7676 0 0 1.5 0.0650889 -0.11939 
14.6641 -15.9803 15.9422 0 0 1.5 0.0624941 -0.112853 
14.735 -16.3234 16.1269 0 0 1.5 0.0570972 -0.0994448 
14.8048 -16.6664 16.3123 0 0 1.5 0.0542878 -0.0928828 
14.8574 -17.0093 16.5034 0 0 1.5 0.0514044 -0.086215 
14.9078 -17.3527 16.6942 0 0 1.5 0.0454361 -0.0737101 
14.9413 -17.6994 16.8828 0 0 1.5 0.0423734 -0.068136 
14.9685 -18.0486 17.0673 0 0 1.5 0.0392785 -0.0628947 
14.9806 -18.4039 17.242 0 0 1.5 0.036169 -0.0580073 
14.9926 -18.7592 17.4167 0 0 1.5 0.0299824 -0.049493 
15.0046 -19.1145 17.5914 0 0 1.5 0.0269476 -0.0458563 
15.0166 -19.4698 17.7661 0 0 1.5 0.0239814 -0.0425392 
15.0286 -19.8251 17.9407 0 0 1.5 0.0211019 -0.0394429 
15.0406 -20.1803 18.1154 0 0 1.5 0.0156769 -0.0341811 
15.0526 -20.5356 18.2901 0 0 1.5 0.0131701 -0.0319676 
15.0647 -20.8909 18.4648 0 0 1.5 0.0108197 -0.0296769 
15.0767 -21.2462 18.6395 0 0 1.5 0.00664607 -0.025047 
15.0887 -21.6015 18.8142 0 0 1.5 0.00486488 -0.0222135 
15.1007 -21.9568 18.9888 0 0 1.5 0.00333545 -0.0169376 
15.1127 -22.3121 19.1635 0 0 1.5 0.00217311 -0.00639667 
15.1247 -22.6674 19.3382 0 0 1.5 0.00201453 -0.00708056 
15.1367 -23.0227 19.5129 0 0 1.5 0.00267863 -0.014972 
15.1488 -23.378 19.6876 0 0 1.5 0.00334965 -0.0183106 
15.1608 -23.7332 19.8622 0 0 1.5 0.00392878 -0.0195834 
15.1728 -24.0885 20.0369 0 0 1.5 0.00472521 -0.0210879 
15.1848 -24.4438 20.2116 0 0 1.5 0.0049443 -0.0218292 
15.1968 -24.7991 20.3863 0 0 1.5 0.00505417 -0.0224302 
15.2088 -25.1544 20.561 0 0 1.5 0.00498773 -0.0243647 
15.2208 -25.5097 20.7357 0 0 1.5 0.00483451 -0.0258786 
15.2328 -25.865 20.9103 0 0 1.5 0.00461741 -0.0276288 
15.2449 -26.2203 21.085 0 0 1.5 0.00434839 -0.0298589 
15.2569 -26.5756 21.2597 0 0 1.5 0.00369641 -0.0370103 
15.2689 -26.9309 21.4344 0 0 1.5 0.00333403 -0.0422249 
15.2809 -27.2861 21.6091 0 0 1.5 0.00296065 -0.0492486 
15.2929 -27.6414 21.7837 0 0 1.5 0.00258381 -0.0592902 
15.3049 -27.9967 21.9584 0 0 1.5 0.00184895 -0.0954328 
15.3169 -28.352 22.1331 0 0 1.5 0.00150606 -0.129356 
15.329 -28.7073 22.3078 0 0 1.5 0.00118874 -0.186662 
15.341 -29.0626 22.4825 0 0 1.5 0.000906229 -0.288074 
15.353 -29.4179 22.6571 0 0 1.5 0.000523362 -0.687267 
15.365 -29.7732 22.8318 0 0 1.5 0.00048393 0 
15.377 -30.1285 23.0065 0 0 1.5 0.000545188 -0.507364 
15.389 -30.4837 23.1812 0 0 1.5 0.000773191 -0.202907 
15.401 -30.839 23.3559 0 0 1.5 0.000883906 -0.139992 
15.4131 -31.1943 23.5306 0 0 1.5 0.00098001 -0.102994 
15.4251 -31.5496 23.7052 0 0 1.5 0.00105906 -0.0798429 
15.4371 -31.9049 23.8799 0 0 1.5 0.00116554 -0.0546054 
15.4491 -32.2602 24.0546 0 0 1.5 0.00119545 -0.0475039 
15.4611 -32.6155 24.2293 0 0 1.5 0.00121211 -0.0422923 
15.4731 -32.9708 24.404 0 0 1.5 0.00121744 -0.0383952 
15.4851 -33.3261 24.5786 0 0 1.5 0.00120129 -0.033199 
15.4972 -33.6814 24.7533 0 0 1.5 0.00118348 -0.0312658 
15.5092 -34.0366 24.928 0 0 1.5 0.00116155 -0.0295691 
15.5212 -34.3919 25.1027 0 0 1.5 0.00111035 -0.0266523 
15.5332 -34.7472 25.2774 0 0 1.5 0.00108345 -0.0251753 
15.5452 -35.1025 25.4521 0 0 1.5 0.00105713 -0.0236374 
15.5572 -35.4578 25.6267 0 0 1.5 0.00103189 -0.0220993 
15.5692 -35.8131 25.8014 0 0 1.5 0.000986178 -0.0189208 
15.5813 -36.1684 25.9761 0 0 1.5 0.000966387 -0.0173121 
15.5933 -36.5237 26.1508 0 0 1.5 0.000948648 -0.0158037 
15.6053 -36.879 26.3255 0 0 1.5 0.000932787 -0.0144338 
15.6173 -37.2343 26.5001 0 0 1.5 0.000906007 -0.0122552 
15.6293 -37.5895 26.6748 0 0 1.5 0.00089459 -0.0115268 
15.6413 -37.9448 26.8495 0 0 1.5 0.00088405 -0.0110896 
0 1 0 
1 2 0 
2 3 0 
3 4 0 
4 5 0 
5 6 0 
6 7 0 
7 8 0 
8 9 0 
9 10 0 
10 11 0 
11 12 0 
12 13 0 
13 14 0 
14 15 0 
15 16 0 
16 17 0 
17 18 0 
18 19 0 
19 20 0 
20 21 0 
21 22 0 
22 23 0 
23 24 0 
24 25 0 
25 26 0 
26 27 0 
27 28 0 
28 29 0 
29 30 0 
30 31 0 
31 32 0 
32 33 0 
33 34 0 
34 35 0 
35 36 0 
36 37 0 
37 38 0 
38 39 0 
39 40 0 
40 41 0 
41 42 0 
42 43 0 
43 44 0 
44 45 0 
45 46 0 
46 47 0 
47 48 0 
48 49 0 
49 50 0 
50 51 0 
51 52 0 
52 53 0 
53 54 0 
54 55 0 
55 56 0 
56 57 0 
57 58 0 
58 59 0 
59 60 0 
60 61 0 
61 62 0 
62 63 0 
63 64 0 
64 65 0 
65 66 0 
66 67 0 
67 68 0 
68 69 0 
69 70 0 
70 71 0 
71 72 0 
72 73 0 
73 74 0 
74 75 0 
75 76 0 
76 77 0 
77 78 0 
78 79 0 
79 80 0 
80 81 0 
81 82 0 
82 83 0 
83 84 0 
84 85 0 
85 86 0 
86 87 0 
87 88 0 
88 89 0 
89 90 0 
90 91 0 
91 92 0 
92 93 0 
93 94 0 
94 95 0 
95 96 0 
96 97 0 
97 98 0 
98 99 0 
99 100 0 
100 101 0 
101 102 0 
102 103 0 
103 104 0 
104 105 0 
105 106 0 
106 107 0 
107 108 0 
108 109 0 
109 110 0 
110 111 0 
111 112 0 
112 113 0 
113 114 0 
114 115 0 
115 116 0 
116 117 0 
117 118 0 
118 119 0 
119 120 0 
120 121 0 
121 122 0 
122 123 0 
123 124 0 
124 125 0 
125 126 0 
126 127 0 
127 128 0 
128 129 0 
129 130 0 
130 131 0 
131 132 0 
132 133 0 
133 134 0 
134 135 0 
135 136 0 
136 137 0 
137 138 0 
138 139 0 
139 140 0 
140 141 0 
141 142 0 
142 143 0 
143 144 0 
144 145 0 
145 146 0 
146 147 0 
147 148 0 
148 149 0 
149 150 0 
150 151 0 
151 152 0 
152 153 0 
153 154 0 
154 155 0 
155 156 0 
156 157 0 
157 158 0 
158 159 0 
159 160 0 
160 161 0 
161 162 0 
162 163 0 
163 164 0 
164 165 0 
165 166 0 
166 167 0 
167 168 0 
168 169 0 
169 170 0 
170 171 0 
171 172 0 
172 173 0 
173 174 0 
174 175 0 
175 176 0 
176 177 0 
177 178 0 
178 179 0 
179 180 0 
180 181 0 
181 182 0 
182 183 0 
183 184 0 
184 185 0 
185 186 0 
186 187 0 
187 188 0 
188 189 0 
189 190 0 
190 191 0 
191 192 0 
192 193 0 
193 194 0 
194 195 0 
195 196 0 
196 197 0 
197 198 0 
198 199 0 
199 200 0 
200 201 0 
201 202 0 
202 203 0 
203 204 0 
204 205 0 
205 206 0 
206 207 0 
207 208 0 
208 209 0 
209 210 0 
210 211 0 
211 212 0 
212 213 0 
213 214 0 
214 215 0 
215 216 0 
216 217 0 
217 218 0 
218 219 0 
219 220 0 
220 221 0 
221 222 0 
222 223 0 
223 224 0 
224 225 0 
225 226 0 
226 227 0 
227 228 0 
228 229 0 
229 230 0 
230 231 0 
231 232 0 
232 233 0 
233 234 0 
234 235 0 
235 236 0 
236 237 0 
237 238 0 
238 239 0 
239 240 0 
240 241 0 
241 242 0 
242 243 0 
243 244 0 
244 245 0 
245 246 0 
246 247 0 
247 248 0 
248 249 0 
249 250 0 
250 251 0 
251 252 0 
252 253 0 
253 254 0 
254 255 0 
255 256 0 
256 257 0 
257 258 0 
258 259 0 
259 260 0 
260 261 0 
261 262 0 
262 263 0 
263 264 0 
264 265 0 
265 266 0 
266 267 0 
267 268 0 
268 269 0 
269 270 0 
270 271 0 
271 272 0 
272 273 0 
273 274 0 
274 275 0 
275 276 0 
276 277 0 
277 278 0 
278 279 0 
279 280 0 
280 281 0 
281 282 0 
282 283 0 
283 284 0 
284 285 0 
285 286 0 
286 287 0 
287 288 0 
288 289 0 
289 290 0 
290 291 0 
291 292 0 
292 293 0 
293 294 0 
294 295 0 
295 296 0 
296 297 0 
297 298 0 
298 299 0 
-1 -1 0 
-1 300 0 1 2 3 4 5 6 7 8 9 10 11 12 13 14 15 16 17 18 19 20 21 22 23 24 25 26 27 28 29 30 31 32 33 34 35 36 37 38 39 40 41 42 43 44 45 46 47 48 49 50 51 52 53 54 55 56 57 58 59 60 61 62 63 64 65 66 67 68 69 70 71 72 73 74 75 76 77 78 79 80 81 82 83 84 85 86 87 88 89 90 91 92 93 94 95 96 97 98 99 100 101 102 103 104 105 106 107 108 109 110 111 112 113 114 115 116 117 118 119 120 121 122 123 124 125 126 127 128 129 130 131 132 133 134 135 136 137 138 139 140 141 142 143 144 145 146 147 148 149 150 151 152 153 154 155 156 157 158 159 160 161 162 163 164 165 166 167 168 169 170 171 172 173 174 175 176 177 178 179 180 181 182 183 184 185 186 187 188 189 190 191 192 193 194 195 196 197 198 199 200 201 202 203 204 205 206 207 208 209 210 211 212 213 214 215 216 217 218 219 220 221 222 223 224 225 226 227 228 229 230 231 232 233 234 235 236 237 238 239 240 241 242 243 244 245 246 247 248 249 250 251 252 253 254 255 256 257 258 259 260 261 262 263 264 265 266 267 268 269 270 271 272 273 274 275 276 277 278 279 280 281 282 283 284 285 286 287 288 289 290 291 292 293 294 295 296 297 298 299 
