ply
format ascii 1.0
comment written by koba@oshima.lab
element vertex 300
property float x
property float y
property float z
property int label
property int attribute
property float radius
property float curvature
property float torsion
element edge 300
property int vertex1
property int vertex2
property int label
element vertex_seq 1
property int label
property list int int vertex_indices
end_header
7.36238 24.5569 -3.39667 0 0 1.5 0.0147706 0.213991 
7.11324 24.318 -3.43603 0 0 1.5 0.0147333 0.21463 
6.8641 24.079 -3.47538 0 0 1.5 0.0147554 0.214892 
6.61496 23.84 -3.51474 0 0 1.5 0.0148384 0.214696 
6.36582 23.601 -3.55409 0 0 1.5 0.0151956 0.212453 
6.11668 23.3621 -3.59345 0 0 1.5 0.0154748 0.210094 
5.86754 23.1231 -3.6328 0 0 1.5 0.0158245 0.206855 
5.61839 22.8841 -3.67216 0 0 1.5 0.0162473 0.20275 
5.36925 22.6451 -3.71151 0 0 1.5 0.0173202 0.191466 
5.12011 22.4062 -3.75087 0 0 1.5 0.01797 0.184567 
4.87097 22.1672 -3.79022 0 0 1.5 0.0186943 0.177181 
4.62183 21.9282 -3.82957 0 0 1.5 0.0194914 0.169301 
4.37269 21.6892 -3.86893 0 0 1.5 0.0212788 0.152849 
4.12355 21.4503 -3.90828 0 0 1.5 0.0222547 0.144935 
3.87441 21.2113 -3.94764 0 0 1.5 0.0232746 0.137311 
3.62526 20.9723 -3.98699 0 0 1.5 0.0253921 0.123403 
3.37612 20.7333 -4.02635 0 0 1.5 0.0264611 0.117537 
3.12698 20.4944 -4.0657 0 0 1.5 0.0275173 0.112365 
2.87784 20.2554 -4.10506 0 0 1.5 0.028541 0.107869 
2.6287 20.0164 -4.14441 0 0 1.5 0.0304094 0.101536 
2.37956 19.7775 -4.18377 0 0 1.5 0.0312143 0.0997472 
2.13042 19.5385 -4.22312 0 0 1.5 0.0319059 0.0988176 
1.88128 19.2995 -4.26248 0 0 1.5 0.0324637 0.0989219 
1.63214 19.0605 -4.30183 0 0 1.5 0.0331005 0.102868 
1.38299 18.8216 -4.34118 0 0 1.5 0.0331414 0.106912 
1.13385 18.5826 -4.38054 0 0 1.5 0.0329726 0.112833 
0.884712 18.3436 -4.41989 0 0 1.5 0.0319463 0.132538 
0.635571 18.1046 -4.45925 0 0 1.5 0.031074 0.147442 
0.38643 17.8657 -4.4986 0 0 1.5 0.0299647 0.167348 
0.137288 17.6267 -4.53796 0 0 1.5 0.0286309 0.194281 
-0.111853 17.3877 -4.57731 0 0 1.5 0.0254354 0.278719 
-0.360994 17.1487 -4.61667 0 0 1.5 0.0237276 0.342473 
-0.610135 16.9098 -4.65602 0 0 1.5 0.0221286 0.423384 
-0.859276 16.6708 -4.69538 0 0 1.5 0.0208687 0.514176 
-1.10842 16.4318 -4.73473 0 0 1.5 0.0206559 0.620546 
-1.35756 16.1928 -4.77408 0 0 1.5 0.022283 0.585893 
-1.6067 15.9539 -4.81344 0 0 1.5 0.0251994 0.506785 
-1.84957 15.7081 -4.80564 0 0 1.5 0.0292971 0.417364 
-2.08899 15.4585 -4.77193 0 0 1.5 0.0403881 0.27898 
-2.31975 15.2096 -4.7004 0 0 1.5 0.0471211 0.233908 
-2.5482 14.9609 -4.61879 0 0 1.5 0.0545208 0.200783 
-2.77128 14.7163 -4.51369 0 0 1.5 0.0710536 0.159665 
-2.99366 14.4722 -4.40549 0 0 1.5 0.0800749 0.147454 
-3.21717 14.2332 -4.28858 0 0 1.5 0.0895222 0.138807 
-3.44165 13.995 -4.17219 0 0 1.5 0.0993258 0.133036 
-3.6745 13.7612 -4.06322 0 0 1.5 0.119651 0.128059 
-3.91329 13.5295 -3.96453 0 0 1.5 0.129954 0.127785 
-4.16303 13.3015 -3.88475 0 0 1.5 0.140172 0.128734 
-4.42781 13.0809 -3.84832 0 0 1.5 0.150139 0.130845 
-4.70025 12.8693 -3.85424 0 0 1.5 0.168601 0.136832 
-4.97784 12.6712 -3.918 0 0 1.5 0.176732 0.140293 
-5.23986 12.4998 -4.06867 0 0 1.5 0.183882 0.144073 
-5.47482 12.3468 -4.27055 0 0 1.5 0.194608 0.151214 
-5.68563 12.2048 -4.50564 0 0 1.5 0.197974 0.154206 
-5.86809 12.0711 -4.76943 0 0 1.5 0.199932 0.156823 
-6.01811 11.937 -5.05208 0 0 1.5 0.200481 0.158856 
-6.15454 11.8011 -5.34092 0 0 1.5 0.197638 0.160512 
-6.26006 11.6564 -5.6387 0 0 1.5 0.194478 0.160211 
-6.35147 11.5048 -5.93711 0 0 1.5 0.190354 0.159172 
-6.42323 11.3436 -6.23641 0 0 1.5 0.185438 0.157374 
-6.47625 11.1699 -6.53206 0 0 1.5 0.173909 0.151734 
-6.51761 10.9884 -6.82545 0 0 1.5 0.167608 0.148144 
-6.53867 10.7894 -7.10909 0 0 1.5 0.161138 0.144259 
-6.55409 10.5855 -7.39003 0 0 1.5 0.148151 0.135629 
-6.55042 10.3596 -7.65386 0 0 1.5 0.141815 0.131076 
-6.54411 10.13 -7.91437 0 0 1.5 0.135676 0.126602 
-6.52479 9.87918 -8.15407 0 0 1.5 0.129789 0.122165 
-6.50306 9.62278 -8.38705 0 0 1.5 0.118944 0.113407 
-6.47448 9.35043 -8.60092 0 0 1.5 0.114065 0.109394 
-6.44317 9.07049 -8.80373 0 0 1.5 0.109601 0.105574 
-6.40831 8.78061 -8.9921 0 0 1.5 0.105594 0.101833 
-6.36949 8.48351 -9.16761 0 0 1.5 0.0991528 0.0949275 
-6.32817 8.18185 -9.33502 0 0 1.5 0.096845 0.0917017 
-6.27872 7.87619 -9.49254 0 0 1.5 0.0952435 0.0884475 
-6.22705 7.5696 -9.64763 0 0 1.5 0.0944332 0.0851219 
-6.15893 7.26579 -9.80188 0 0 1.5 0.0955721 0.0781429 
-6.0843 6.96528 -9.95898 0 0 1.5 0.097724 0.074445 
-5.99146 6.674 -10.1241 0 0 1.5 0.101071 0.0706071 
-5.88121 6.39605 -10.2997 0 0 1.5 0.11179 0.0628025 
-5.75707 6.12872 -10.4837 0 0 1.5 0.119397 0.0591344 
-5.60407 5.89054 -10.6845 0 0 1.5 0.128683 0.055691 
-5.44145 5.66295 -10.8898 0 0 1.5 0.13981 0.0524879 
-5.25554 5.46257 -11.1043 0 0 1.5 0.16839 0.0472012 
-5.05881 5.27339 -11.3187 0 0 1.5 0.186352 0.0451682 
-4.84986 5.09687 -11.533 0 0 1.5 0.207184 0.043499 
-4.62797 4.92565 -11.7381 0 0 1.5 0.231264 0.042212 
-4.40054 4.75672 -11.9392 0 0 1.5 0.290882 0.0408035 
-4.15917 4.57901 -12.1147 0 0 1.5 0.327282 0.0406684 
-3.91469 4.3966 -12.2799 0 0 1.5 0.368532 0.0409024 
-3.66132 4.19517 -12.4063 0 0 1.5 0.46552 0.0424577 
-3.40685 3.98027 -12.498 0 0 1.5 0.51995 0.0438104 
-3.15128 3.75204 -12.5557 0 0 1.5 0.576063 0.0454729 
-2.90559 3.50854 -12.5327 0 0 1.5 0.630696 0.0473354 
-2.67082 3.26661 -12.4636 0 0 1.5 0.717261 0.0514303 
-2.44993 3.0285 -12.3402 0 0 1.5 0.739197 0.0534132 
-2.26172 2.82405 -12.1324 0 0 1.5 0.741923 0.0551665 
-2.09639 2.65329 -11.884 0 0 1.5 0.724745 0.0566827 
-1.95511 2.5198 -11.5978 0 0 1.5 0.64194 0.0593629 
-1.85362 2.45525 -11.2719 0 0 1.5 0.585962 0.0608668 
-1.78349 2.44569 -10.9345 0 0 1.5 0.526838 0.0627371 
-1.7368 2.47613 -10.5931 0 0 1.5 0.412954 0.0684405 
-1.72292 2.56007 -10.2562 0 0 1.5 0.362027 0.0728733 
-1.73253 2.67753 -9.93064 0 0 1.5 0.316089 0.0787156 
-1.75531 2.81318 -9.6118 0 0 1.5 0.275173 0.0862853 
-1.80136 2.97598 -9.30832 0 0 1.5 0.207174 0.109152 
-1.85529 3.14496 -9.0098 0 0 1.5 0.179217 0.126184 
-1.91859 3.32129 -8.71717 0 0 1.5 0.154717 0.148534 
-1.98957 3.49676 -8.42582 0 0 1.5 0.133325 0.178047 
-2.06279 3.66946 -8.13341 0 0 1.5 0.0989773 0.267286 
-2.13794 3.82993 -7.83453 0 0 1.5 0.0859281 0.329095 
-2.21076 3.97502 -7.52771 0 0 1.5 0.0758374 0.397038 
-2.28179 4.10822 -7.21475 0 0 1.5 0.0690334 0.455657 
-2.3439 4.20784 -6.88779 0 0 1.5 0.0662348 0.462467 
-2.40156 4.294 -6.55664 0 0 1.5 0.0699279 0.406836 
-2.45204 4.35876 -6.21902 0 0 1.5 0.0762828 0.337793 
-2.49488 4.40483 -5.87754 0 0 1.5 0.0945099 0.219504 
-2.53456 4.44328 -5.53452 0 0 1.5 0.105471 0.177533 
-2.56699 4.46723 -5.1894 0 0 1.5 0.117253 0.145091 
-2.59813 4.48903 -4.84405 0 0 1.5 0.129632 0.120192 
-2.62669 4.50652 -4.4982 0 0 1.5 0.155407 0.0861978 
-2.65523 4.52186 -4.15226 0 0 1.5 0.168373 0.0743924 
-2.68386 4.53576 -3.80627 0 0 1.5 0.181045 0.0650526 
-2.71632 4.54132 -3.46037 0 0 1.5 0.193125 0.0577502 
-2.7533 4.53286 -3.11525 0 0 1.5 0.214138 0.0475928 
-2.79677 4.50066 -2.77284 0 0 1.5 0.222335 0.0443089 
-2.85037 4.422 -2.43916 0 0 1.5 0.228552 0.0421152 
-2.91564 4.26453 -2.13638 0 0 1.5 0.234095 0.040624 
-2.98566 4.0356 -1.88565 0 0 1.5 0.233182 0.0412446 
-3.05475 3.76756 -1.67763 0 0 1.5 0.229852 0.042764 
-3.12203 3.48066 -1.49437 0 0 1.5 0.224281 0.0452154 
-3.1874 3.1827 -1.32801 0 0 1.5 0.207528 0.0531486 
-3.25071 2.87907 -1.17144 0 0 1.5 0.197043 0.0587167 
-3.31366 2.57484 -1.01584 0 0 1.5 0.185649 0.065549 
-3.37613 2.2706 -0.860071 0 0 1.5 0.173694 0.0738854 
-3.43902 1.96744 -0.702406 0 0 1.5 0.149312 0.0957691 
-3.50246 1.66571 -0.5422 0 0 1.5 0.137379 0.109973 
-3.56719 1.36535 -0.379985 0 0 1.5 0.125875 0.127026 
-3.63284 1.06597 -0.216307 0 0 1.5 0.114952 0.147362 
-3.70046 0.766722 -0.0531922 0 0 1.5 0.0953179 0.199649 
-3.76884 0.467526 0.109701 0 0 1.5 0.0868279 0.232183 
-3.83893 0.165896 0.267275 0 0 1.5 0.0793775 0.268218 
-3.90924 -0.136369 0.423526 0 0 1.5 0.0680941 0.340599 
-3.97899 -0.443634 0.56999 0 0 1.5 0.0645172 0.367473 
-4.04743 -0.752535 0.71347 0 0 1.5 0.0624474 0.380446 
-4.11216 -1.06609 0.848459 0 0 1.5 0.0619 0.376161 
-4.1715 -1.38251 0.978932 0 0 1.5 0.0650191 0.322871 
-4.22521 -1.70193 1.10471 0 0 1.5 0.0683487 0.284759 
-4.2658 -2.0244 1.22727 0 0 1.5 0.0725899 0.246392 
-4.30162 -2.34799 1.34865 0 0 1.5 0.0775527 0.210818 
-4.31287 -2.67298 1.47102 0 0 1.5 0.089004 0.152473 
-4.31614 -2.99736 1.59476 0 0 1.5 0.0952329 0.12981 
-4.29621 -3.31983 1.72261 0 0 1.5 0.101654 0.110797 
-4.25853 -3.63853 1.85455 0 0 1.5 0.114691 0.0813928 
-4.204 -3.95366 1.99039 0 0 1.5 0.121131 0.0701292 
-4.12225 -4.25933 2.13305 0 0 1.5 0.127407 0.0605867 
-4.03181 -4.56189 2.2779 0 0 1.5 0.13343 0.0524228 
-3.90946 -4.84865 2.43127 0 0 1.5 0.14437 0.039377 
-3.77993 -5.13068 2.58677 0 0 1.5 0.149127 0.034133 
-3.62926 -5.39875 2.74852 0 0 1.5 0.153307 0.0295422 
-3.46747 -5.65747 2.91392 0 0 1.5 0.15684 0.0255052 
-3.29295 -5.9055 3.08351 0 0 1.5 0.16177 0.0187828 
-3.1047 -6.13961 3.25752 0 0 1.5 0.163098 0.0159749 
-2.90959 -6.36677 3.43375 0 0 1.5 0.163649 0.0134619 
-2.69788 -6.57522 3.61363 0 0 1.5 0.162468 0.00914729 
-2.48216 -6.77909 3.79412 0 0 1.5 0.160797 0.00729964 
-2.24864 -6.96207 3.97499 0 0 1.5 0.158466 0.00560354 
-2.00912 -7.1378 4.15462 0 0 1.5 0.155534 0.00401195 
-1.75577 -7.29683 4.3314 0 0 1.5 0.148134 0.001093 
-1.49182 -7.44207 4.50374 0 0 1.5 0.143801 -0.000283226 
-1.21919 -7.57602 4.67244 0 0 1.5 0.139137 -0.00165635 
-0.93304 -7.68953 4.83308 0 0 1.5 0.134208 -0.00304009 
-0.642809 -7.7965 4.99119 0 0 1.5 0.123787 -0.00592222 
-0.341229 -7.88168 5.14126 0 0 1.5 0.118392 -0.00750411 
-0.0372408 -7.9602 5.28975 0 0 1.5 0.112926 -0.00922415 
0.2716 -8.02527 5.43505 0 0 1.5 0.107417 -0.0111185 
0.582014 -8.08152 5.58047 0 0 1.5 0.0963678 -0.0154867 
0.8936 -8.13122 5.72597 0 0 1.5 0.0908598 -0.0180392 
1.20464 -8.17267 5.87512 0 0 1.5 0.0853786 -0.0209364 
1.51551 -8.21196 6.02525 0 0 1.5 0.0745189 -0.0279071 
1.82376 -8.24513 6.18215 0 0 1.5 0.0691412 -0.0321844 
2.13131 -8.27749 6.34051 0 0 1.5 0.063796 -0.0372621 
2.43637 -8.30691 6.50423 0 0 1.5 0.0584802 -0.0433411 
2.74042 -8.33468 6.67006 0 0 1.5 0.0479168 -0.0600663 
3.04307 -8.36014 6.83883 0 0 1.5 0.0426598 -0.0724082 
3.34512 -8.38145 7.0092 0 0 1.5 0.0374141 -0.0894586 
3.64679 -8.40019 7.18058 0 0 1.5 0.0321787 -0.114393 
3.94879 -8.40988 7.35208 0 0 1.5 0.0217599 -0.223321 
4.25089 -8.41705 7.52356 0 0 1.5 0.0166243 -0.363735 
4.55391 -8.40934 7.69342 0 0 1.5 0.011662 -0.709747 
4.85706 -8.39712 7.86259 0 0 1.5 0.00541369 -3.20114 
5.1606 -8.37197 8.02979 0 0 1.5 0.0080823 -1.46896 
5.46416 -8.33938 8.19549 0 0 1.5 0.012759 -0.619821 
5.76773 -8.29883 8.35959 0 0 1.5 0.0179798 -0.337361 
6.07151 -8.25203 8.52158 0 0 1.5 0.0289852 -0.162785 
6.37537 -8.20263 8.68269 0 0 1.5 0.0346429 -0.130683 
6.68083 -8.15457 8.84116 0 0 1.5 0.0403755 -0.111447 
6.98696 -8.10873 8.9989 0 0 1.5 0.0461742 -0.0994048 
7.29612 -8.07454 9.15377 0 0 1.5 0.0579487 -0.0854975 
7.60685 -8.0504 9.30681 0 0 1.5 0.0639139 -0.0812017 
7.92005 -8.04187 9.45702 0 0 1.5 0.0699227 -0.0780247 
8.2346 -8.05564 9.603 0 0 1.5 0.0820408 -0.0730098 
8.5499 -8.08179 9.74664 0 0 1.5 0.0881301 -0.0707605 
8.86329 -8.14185 9.88364 0 0 1.5 0.0942212 -0.0686456 
9.17551 -8.21066 10.0191 0 0 1.5 0.100297 -0.0664616 
9.48183 -8.30971 10.1498 0 0 1.5 0.112318 -0.0613922 
9.78439 -8.4189 10.2804 0 0 1.5 0.118211 -0.0585339 
10.0801 -8.54652 10.4108 0 0 1.5 0.123982 -0.0554154 
10.3685 -8.68556 10.5452 0 0 1.5 0.129595 -0.0519829 
10.6508 -8.83404 10.6829 0 0 1.5 0.140182 -0.0441358 
10.9209 -8.99271 10.8327 0 0 1.5 0.145062 -0.0397823 
11.1865 -9.15514 10.987 0 0 1.5 0.149603 -0.0352242 
11.4322 -9.32502 11.1643 0 0 1.5 0.153757 -0.0304188 
11.6723 -9.49606 11.3476 0 0 1.5 0.160711 -0.0200848 
11.8886 -9.6703 11.5564 0 0 1.5 0.163424 -0.0148314 
12.0916 -9.84508 11.7766 0 0 1.5 0.165581 -0.00950646 
12.2739 -10.0207 12.0146 0 0 1.5 0.168117 0.00139223 
12.4318 -10.1976 12.2678 0 0 1.5 0.168464 0.00670703 
12.5765 -10.3752 12.529 0 0 1.5 0.168189 0.0119469 
12.687 -10.5577 12.803 0 0 1.5 0.167299 0.0171692 
12.7886 -10.7422 13.079 0 0 1.5 0.163741 0.0269912 
12.86 -10.9358 13.3586 0 0 1.5 0.161143 0.0314913 
12.9191 -11.1353 13.6363 0 0 1.5 0.15805 0.0357802 
12.9583 -11.3444 13.911 0 0 1.5 0.154509 0.0398119 
12.9799 -11.5648 14.1782 0 0 1.5 0.146289 0.0469565 
12.9901 -11.7925 14.4404 0 0 1.5 0.141714 0.0501222 
12.9791 -12.036 14.6876 0 0 1.5 0.136894 0.0530539 
12.9627 -12.2834 14.9309 0 0 1.5 0.126717 0.0582617 
12.9241 -12.5475 15.1534 0 0 1.5 0.121449 0.0605359 
12.8811 -12.8145 15.3711 0 0 1.5 0.116111 0.0626745 
12.8226 -13.0921 15.5717 0 0 1.5 0.11074 0.0647571 
12.7572 -13.3736 15.7642 0 0 1.5 0.100017 0.0686624 
12.6815 -13.6607 15.9447 0 0 1.5 0.0947133 0.0705919 
12.5974 -13.9512 16.1154 0 0 1.5 0.0894755 0.0726998 
12.507 -14.2442 16.2788 0 0 1.5 0.0843219 0.074963 
12.4069 -14.5393 16.4322 0 0 1.5 0.0743239 0.079993 
12.3036 -14.8352 16.5822 0 0 1.5 0.0695013 0.0830717 
12.1895 -15.1315 16.7232 0 0 1.5 0.0648086 0.0865875 
12.0747 -15.4279 16.8637 0 0 1.5 0.0602533 0.0905342 
11.9598 -15.7242 17.0042 0 0 1.5 0.051581 0.100556 
11.845 -16.0205 17.1446 0 0 1.5 0.0474763 0.106968 
11.7302 -16.3169 17.2851 0 0 1.5 0.0435349 0.114413 
11.6153 -16.6132 17.4255 0 0 1.5 0.0361685 0.133997 
11.5005 -16.9095 17.566 0 0 1.5 0.0327561 0.146962 
11.3857 -17.2059 17.7064 0 0 1.5 0.0295359 0.162465 
11.2708 -17.5022 17.8469 0 0 1.5 0.0265185 0.181163 
11.156 -17.7985 17.9873 0 0 1.5 0.0211322 0.231287 
11.0412 -18.0949 18.1278 0 0 1.5 0.0187908 0.263411 
10.9264 -18.3912 18.2683 0 0 1.5 0.0167068 0.30026 
10.8115 -18.6876 18.4087 0 0 1.5 0.014896 0.340955 
10.6967 -18.9839 18.5492 0 0 1.5 0.0121564 0.418336 
10.5819 -19.2802 18.6896 0 0 1.5 0.011242 0.442685 
10.467 -19.5766 18.8301 0 0 1.5 0.0106155 0.450241 
10.3522 -19.8729 18.9705 0 0 1.5 0.0100732 0.412434 
10.2374 -20.1692 19.111 0 0 1.5 0.0100494 0.376861 
10.1225 -20.4656 19.2514 0 0 1.5 0.0101146 0.339243 
10.0077 -20.7619 19.3919 0 0 1.5 0.0102215 0.303508 
9.89288 -21.0582 19.5324 0 0 1.5 0.0104224 0.244313 
9.77805 -21.3546 19.6728 0 0 1.5 0.0104703 0.22196 
9.66322 -21.6509 19.8133 0 0 1.5 0.0104646 0.203868 
9.54839 -21.9472 19.9537 0 0 1.5 0.0103987 0.189301 
9.43356 -22.2436 20.0942 0 0 1.5 0.0100785 0.169709 
9.31872 -22.5399 20.2346 0 0 1.5 0.00982815 0.163921 
9.20389 -22.8362 20.3751 0 0 1.5 0.00952382 0.160122 
9.08906 -23.1326 20.5156 0 0 1.5 0.00877826 0.158656 
8.97423 -23.4289 20.656 0 0 1.5 0.00835068 0.160954 
8.8594 -23.7253 20.7965 0 0 1.5 0.00789689 0.164996 
8.74457 -24.0216 20.9369 0 0 1.5 0.00742491 0.17104 
8.62974 -24.3179 21.0774 0 0 1.5 0.00645498 0.190628 
8.51491 -24.6143 21.2178 0 0 1.5 0.00597206 0.204225 
8.40008 -24.9106 21.3583 0 0 1.5 0.00550065 0.220834 
8.28525 -25.2069 21.4987 0 0 1.5 0.00504731 0.241153 
8.17042 -25.5033 21.6392 0 0 1.5 0.0042226 0.292176 
8.05559 -25.7996 21.7797 0 0 1.5 0.0038656 0.321631 
7.94076 -26.0959 21.9201 0 0 1.5 0.00355399 0.35225 
7.82592 -26.3923 22.0606 0 0 1.5 0.0032935 0.380733 
7.71109 -26.6886 22.201 0 0 1.5 0.00294153 0.413865 
7.59626 -26.9849 22.3415 0 0 1.5 0.00285072 0.412968 
7.48143 -27.2813 22.4819 0 0 1.5 0.00281197 0.399342 
7.3666 -27.5776 22.6224 0 0 1.5 0.00286138 0.344415 
7.25177 -27.8739 22.7629 0 0 1.5 0.00293182 0.311659 
7.13694 -28.1703 22.9033 0 0 1.5 0.00302141 0.279502 
7.02211 -28.4666 23.0438 0 0 1.5 0.00312312 0.249495 
6.90728 -28.7629 23.1842 0 0 1.5 0.00334175 0.19942 
6.79245 -29.0593 23.3247 0 0 1.5 0.00345181 0.179218 
6.67762 -29.3556 23.4651 0 0 1.5 0.00355961 0.161552 
6.56279 -29.652 23.6056 0 0 1.5 0.00366396 0.146182 
6.44796 -29.9483 23.746 0 0 1.5 0.00385974 0.12124 
6.33312 -30.2446 23.8865 0 0 1.5 0.00395094 0.110837 
6.21829 -30.541 24.027 0 0 1.5 0.00403794 0.101561 
6.10346 -30.8373 24.1674 0 0 1.5 0.00420026 0.0859798 
5.98863 -31.1336 24.3079 0 0 1.5 0.00427638 0.0792687 
5.8738 -31.43 24.4483 0 0 1.5 0.00434983 0.0731968 
5.75897 -31.7263 24.5888 0 0 1.5 0.00442089 0.0677804 
5.64414 -32.0226 24.7292 0 0 1.5 0.00455727 0.0585246 
5.52931 -32.319 24.8697 0 0 1.5 0.00462344 0.0545968 
5.41448 -32.6153 25.0102 0 0 1.5 0.00468863 0.0511515 
5.29965 -32.9116 25.1506 0 0 1.5 0.00475311 0.0481393 
5.18482 -33.208 25.2911 0 0 1.5 0.00488111 0.0432618 
5.06999 -33.5043 25.4315 0 0 1.5 0.00494524 0.0413658 
4.95516 -33.8006 25.572 0 0 1.5 0.00500981 0.0397979 
0 1 0 
1 2 0 
2 3 0 
3 4 0 
4 5 0 
5 6 0 
6 7 0 
7 8 0 
8 9 0 
9 10 0 
10 11 0 
11 12 0 
12 13 0 
13 14 0 
14 15 0 
15 16 0 
16 17 0 
17 18 0 
18 19 0 
19 20 0 
20 21 0 
21 22 0 
22 23 0 
23 24 0 
24 25 0 
25 26 0 
26 27 0 
27 28 0 
28 29 0 
29 30 0 
30 31 0 
31 32 0 
32 33 0 
33 34 0 
34 35 0 
35 36 0 
36 37 0 
37 38 0 
38 39 0 
39 40 0 
40 41 0 
41 42 0 
42 43 0 
43 44 0 
44 45 0 
45 46 0 
46 47 0 
47 48 0 
48 49 0 
49 50 0 
50 51 0 
51 52 0 
52 53 0 
53 54 0 
54 55 0 
55 56 0 
56 57 0 
57 58 0 
58 59 0 
59 60 0 
60 61 0 
61 62 0 
62 63 0 
63 64 0 
64 65 0 
65 66 0 
66 67 0 
67 68 0 
68 69 0 
69 70 0 
70 71 0 
71 72 0 
72 73 0 
73 74 0 
74 75 0 
75 76 0 
76 77 0 
77 78 0 
78 79 0 
79 80 0 
80 81 0 
81 82 0 
82 83 0 
83 84 0 
84 85 0 
85 86 0 
86 87 0 
87 88 0 
88 89 0 
89 90 0 
90 91 0 
91 92 0 
92 93 0 
93 94 0 
94 95 0 
95 96 0 
96 97 0 
97 98 0 
98 99 0 
99 100 0 
100 101 0 
101 102 0 
102 103 0 
103 104 0 
104 105 0 
105 106 0 
106 107 0 
107 108 0 
108 109 0 
109 110 0 
110 111 0 
111 112 0 
112 113 0 
113 114 0 
114 115 0 
115 116 0 
116 117 0 
117 118 0 
118 119 0 
119 120 0 
120 121 0 
121 122 0 
122 123 0 
123 124 0 
124 125 0 
125 126 0 
126 127 0 
127 128 0 
128 129 0 
129 130 0 
130 131 0 
131 132 0 
132 133 0 
133 134 0 
134 135 0 
135 136 0 
136 137 0 
137 138 0 
138 139 0 
139 140 0 
140 141 0 
141 142 0 
142 143 0 
143 144 0 
144 145 0 
145 146 0 
146 147 0 
147 148 0 
148 149 0 
149 150 0 
150 151 0 
151 152 0 
152 153 0 
153 154 0 
154 155 0 
155 156 0 
156 157 0 
157 158 0 
158 159 0 
159 160 0 
160 161 0 
161 162 0 
162 163 0 
163 164 0 
164 165 0 
165 166 0 
166 167 0 
167 168 0 
168 169 0 
169 170 0 
170 171 0 
171 172 0 
172 173 0 
173 174 0 
174 175 0 
175 176 0 
176 177 0 
177 178 0 
178 179 0 
179 180 0 
180 181 0 
181 182 0 
182 183 0 
183 184 0 
184 185 0 
185 186 0 
186 187 0 
187 188 0 
188 189 0 
189 190 0 
190 191 0 
191 192 0 
192 193 0 
193 194 0 
194 195 0 
195 196 0 
196 197 0 
197 198 0 
198 199 0 
199 200 0 
200 201 0 
201 202 0 
202 203 0 
203 204 0 
204 205 0 
205 206 0 
206 207 0 
207 208 0 
208 209 0 
209 210 0 
210 211 0 
211 212 0 
212 213 0 
213 214 0 
214 215 0 
215 216 0 
216 217 0 
217 218 0 
218 219 0 
219 220 0 
220 221 0 
221 222 0 
222 223 0 
223 224 0 
224 225 0 
225 226 0 
226 227 0 
227 228 0 
228 229 0 
229 230 0 
230 231 0 
231 232 0 
232 233 0 
233 234 0 
234 235 0 
235 236 0 
236 237 0 
237 238 0 
238 239 0 
239 240 0 
240 241 0 
241 242 0 
242 243 0 
243 244 0 
244 245 0 
245 246 0 
246 247 0 
247 248 0 
248 249 0 
249 250 0 
250 251 0 
251 252 0 
252 253 0 
253 254 0 
254 255 0 
255 256 0 
256 257 0 
257 258 0 
258 259 0 
259 260 0 
260 261 0 
261 262 0 
262 263 0 
263 264 0 
264 265 0 
265 266 0 
266 267 0 
267 268 0 
268 269 0 
269 270 0 
270 271 0 
271 272 0 
272 273 0 
273 274 0 
274 275 0 
275 276 0 
276 277 0 
277 278 0 
278 279 0 
279 280 0 
280 281 0 
281 282 0 
282 283 0 
283 284 0 
284 285 0 
285 286 0 
286 287 0 
287 288 0 
288 289 0 
289 290 0 
290 291 0 
291 292 0 
292 293 0 
293 294 0 
294 295 0 
295 296 0 
296 297 0 
297 298 0 
298 299 0 
-1 -1 0 
-1 300 0 1 2 3 4 5 6 7 8 9 10 11 12 13 14 15 16 17 18 19 20 21 22 23 24 25 26 27 28 29 30 31 32 33 34 35 36 37 38 39 40 41 42 43 44 45 46 47 48 49 50 51 52 53 54 55 56 57 58 59 60 61 62 63 64 65 66 67 68 69 70 71 72 73 74 75 76 77 78 79 80 81 82 83 84 85 86 87 88 89 90 91 92 93 94 95 96 97 98 99 100 101 102 103 104 105 106 107 108 109 110 111 112 113 114 115 116 117 118 119 120 121 122 123 124 125 126 127 128 129 130 131 132 133 134 135 136 137 138 139 140 141 142 143 144 145 146 147 148 149 150 151 152 153 154 155 156 157 158 159 160 161 162 163 164 165 166 167 168 169 170 171 172 173 174 175 176 177 178 179 180 181 182 183 184 185 186 187 188 189 190 191 192 193 194 195 196 197 198 199 200 201 202 203 204 205 206 207 208 209 210 211 212 213 214 215 216 217 218 219 220 221 222 223 224 225 226 227 228 229 230 231 232 233 234 235 236 237 238 239 240 241 242 243 244 245 246 247 248 249 250 251 252 253 254 255 256 257 258 259 260 261 262 263 264 265 266 267 268 269 270 271 272 273 274 275 276 277 278 279 280 281 282 283 284 285 286 287 288 289 290 291 292 293 294 295 296 297 298 299 
