ply
format ascii 1.0
comment written by koba@oshima.lab
element vertex 300
property float x
property float y
property float z
property int label
property int attribute
property float radius
property float curvature
property float torsion
element edge 300
property int vertex1
property int vertex2
property int label
element vertex_seq 1
property int label
property list int int vertex_indices
end_header
2.70543 32.7155 -10.2287 0 0 1.5 0.0265542 -0.00226921 
2.60226 32.4166 -10.0649 0 0 1.5 0.0260948 -0.00239872 
2.49909 32.1176 -9.90115 0 0 1.5 0.025618 -0.00257084 
2.39592 31.8187 -9.73736 0 0 1.5 0.0251172 -0.00279269 
2.29275 31.5198 -9.57357 0 0 1.5 0.0240176 -0.00342746 
2.18958 31.2208 -9.40978 0 0 1.5 0.0234042 -0.00387574 
2.08641 30.9219 -9.24599 0 0 1.5 0.0227379 -0.00443947 
1.98324 30.6229 -9.0822 0 0 1.5 0.0220107 -0.0051479 
1.88007 30.324 -8.91841 0 0 1.5 0.0203403 -0.0072291 
1.7769 30.025 -8.75462 0 0 1.5 0.0193785 -0.00876958 
1.67373 29.7261 -8.59082 0 0 1.5 0.0183201 -0.0108171 
1.57057 29.4271 -8.42703 0 0 1.5 0.0171565 -0.0136216 
1.4674 29.1282 -8.26324 0 0 1.5 0.0144809 -0.0233896 
1.36423 28.8293 -8.09945 0 0 1.5 0.012955 -0.03226 
1.26106 28.5303 -7.93566 0 0 1.5 0.0112986 -0.046733 
1.15789 28.2314 -7.77187 0 0 1.5 0.00762391 -0.123479 
1.05472 27.9324 -7.60808 0 0 1.5 0.00567817 -0.242366 
0.951547 27.6335 -7.44429 0 0 1.5 0.0038773 -0.562126 
0.848377 27.3345 -7.2805 0 0 1.5 0.00297949 -1.02022 
0.745208 27.0356 -7.11671 0 0 1.5 0.00632389 -0.251435 
0.642038 26.7366 -6.95292 0 0 1.5 0.00909376 -0.12512 
0.538868 26.4377 -6.78912 0 0 1.5 0.012128 -0.0706318 
0.435699 26.1388 -6.62533 0 0 1.5 0.0153507 -0.0429365 
0.332529 25.8398 -6.46154 0 0 1.5 0.0222274 -0.0167411 
0.229359 25.5409 -6.29775 0 0 1.5 0.0258291 -0.00947848 
0.12619 25.2419 -6.13396 0 0 1.5 0.0295048 -0.00401817 
0.0230199 24.943 -5.97017 0 0 1.5 0.0369798 0.00400735 
-0.0801498 24.644 -5.80638 0 0 1.5 0.0407201 0.00741628 
-0.183319 24.3451 -5.64259 0 0 1.5 0.0444165 0.0106361 
-0.286489 24.0461 -5.4788 0 0 1.5 0.0480357 0.0137528 
-0.389659 23.7472 -5.31501 0 0 1.5 0.0549068 0.020315 
-0.492829 23.4483 -5.15122 0 0 1.5 0.0580873 0.023929 
-0.595998 23.1493 -4.98742 0 0 1.5 0.0610539 0.0278253 
-0.699168 22.8504 -4.82363 0 0 1.5 0.0637782 0.0321106 
-0.802338 22.5514 -4.65984 0 0 1.5 0.0684076 0.0422587 
-0.905507 22.2525 -4.49605 0 0 1.5 0.0702801 0.048302 
-1.02477 21.9565 -4.33956 0 0 1.5 0.0718481 0.0551215 
-1.17155 21.6658 -4.19556 0 0 1.5 0.07312 0.0628241 
-1.34106 21.3827 -4.06353 0 0 1.5 0.0748563 0.0814959 
-1.52798 21.1056 -3.94067 0 0 1.5 0.0753887 0.0926191 
-1.74247 20.8424 -3.83422 0 0 1.5 0.0757733 0.104868 
-1.96534 20.584 -3.73288 0 0 1.5 0.0764188 0.132914 
-2.20976 20.3402 -3.64533 0 0 1.5 0.076877 0.148191 
-2.46036 20.1016 -3.56161 0 0 1.5 0.0775894 0.16343 
-2.72102 19.8717 -3.48414 0 0 1.5 0.0786967 0.178075 
-2.98725 19.6474 -3.40912 0 0 1.5 0.0827026 0.202397 
-3.2573 19.4271 -3.33577 0 0 1.5 0.0859096 0.210031 
-3.5304 19.211 -3.26142 0 0 1.5 0.0901127 0.214095 
-3.80452 18.9962 -3.18674 0 0 1.5 0.0954429 0.214719 
-4.0788 18.7834 -3.10724 0 0 1.5 0.109926 0.206507 
-4.35311 18.571 -3.02685 0 0 1.5 0.119241 0.199225 
-4.62529 18.3588 -2.93884 0 0 1.5 0.130023 0.191106 
-4.89721 18.1467 -2.84993 0 0 1.5 0.156145 0.17473 
-5.16579 17.9342 -2.75236 0 0 1.5 0.171489 0.167436 
-5.43412 17.7216 -2.65414 0 0 1.5 0.1883 0.161173 
-5.69917 17.5085 -2.54844 0 0 1.5 0.206462 0.156036 
-5.96403 17.2953 -2.44239 0 0 1.5 0.245922 0.149199 
-6.22786 17.0818 -2.33452 0 0 1.5 0.266438 0.147507 
-6.49307 16.8678 -2.23102 0 0 1.5 0.2867 0.146836 
-6.76002 16.6534 -2.13317 0 0 1.5 0.305945 0.147004 
-7.03544 16.4373 -2.06779 0 0 1.5 0.337725 0.149469 
-7.31796 16.2226 -2.07479 0 0 1.5 0.348364 0.151475 
-7.54748 16.052 -2.27221 0 0 1.5 0.354491 0.153647 
-7.67259 15.9468 -2.58527 0 0 1.5 0.351878 0.158213 
-7.74005 15.8675 -2.92536 0 0 1.5 0.343353 0.160538 
-7.78188 15.7931 -3.2711 0 0 1.5 0.330742 0.162837 
-7.80629 15.7084 -3.61616 0 0 1.5 0.314884 0.165303 
-7.82652 15.6156 -3.95924 0 0 1.5 0.277082 0.171656 
-7.84139 15.5119 -4.29964 0 0 1.5 0.256884 0.175727 
-7.85117 15.3928 -4.63496 0 0 1.5 0.236795 0.180635 
-7.85871 15.267 -4.96805 0 0 1.5 0.217337 0.186606 
-7.85803 15.1215 -5.29298 0 0 1.5 0.181707 0.202479 
-7.85604 14.9728 -5.61662 0 0 1.5 0.165967 0.212533 
-7.83996 14.8028 -5.92914 0 0 1.5 0.151767 0.223927 
-7.82159 14.6305 -6.24013 0 0 1.5 0.139163 0.236492 
-7.78482 14.4405 -6.53912 0 0 1.5 0.118907 0.262728 
-7.74167 14.2465 -6.83425 0 0 1.5 0.111318 0.274088 
-7.67863 14.0398 -7.11735 0 0 1.5 0.105452 0.282352 
-7.60311 13.8276 -7.39261 0 0 1.5 0.0989478 0.283643 
-7.51035 13.6078 -7.65703 0 0 1.5 0.0982712 0.274979 
-7.39938 13.382 -7.9085 0 0 1.5 0.0992269 0.260725 
-7.2775 13.1527 -8.15221 0 0 1.5 0.10172 0.242373 
-7.13507 12.9175 -8.37825 0 0 1.5 0.110841 0.200358 
-6.98782 12.6809 -8.59985 0 0 1.5 0.117219 0.179765 
-6.82486 12.4382 -8.80334 0 0 1.5 0.124667 0.160725 
-6.65971 12.1934 -9.00224 0 0 1.5 0.133092 0.143512 
-6.48865 11.9429 -9.18883 0 0 1.5 0.152534 0.11455 
-6.31783 11.687 -9.36795 0 0 1.5 0.163366 0.102552 
-6.14728 11.4253 -9.53899 0 0 1.5 0.17479 0.0918898 
-5.98291 11.1526 -9.69826 0 0 1.5 0.198788 0.073692 
-5.82114 10.8754 -9.85256 0 0 1.5 0.210959 0.0659544 
-5.67543 10.5792 -9.98599 0 0 1.5 0.222905 0.0588572 
-5.53691 10.2761 -10.1103 0 0 1.5 0.234304 0.0522036 
-5.41569 9.95724 -10.2125 0 0 1.5 0.253983 0.0402486 
-5.31321 9.62569 -10.2881 0 0 1.5 0.261487 0.0348455 
-5.22264 9.2865 -10.3466 0 0 1.5 0.26693 0.029691 
-5.16117 8.93585 -10.3572 0 0 1.5 0.269994 0.0248503 
-5.11221 8.58467 -10.3428 0 0 1.5 0.268264 0.0163062 
-5.07771 8.23285 -10.2996 0 0 1.5 0.263396 0.0125238 
-5.06015 7.88865 -10.2119 0 0 1.5 0.256011 0.00908345 
-5.04787 7.54921 -10.1069 0 0 1.5 0.234835 0.00327836 
-5.04467 7.22247 -9.96524 0 0 1.5 0.221756 0.000848908 
-5.04411 6.9071 -9.80144 0 0 1.5 0.20752 -0.00134638 
-5.04587 6.60169 -9.61824 0 0 1.5 0.1925 -0.00338621 
-5.04846 6.31705 -9.40489 0 0 1.5 0.161377 -0.00721792 
-5.05126 6.03963 -9.18192 0 0 1.5 0.145756 -0.00925511 
-5.0543 5.78761 -8.9303 0 0 1.5 0.130333 -0.011683 
-5.05824 5.54613 -8.66922 0 0 1.5 0.115226 -0.0147381 
-5.06371 5.32271 -8.39191 0 0 1.5 0.0862071 -0.0247372 
-5.07325 5.11566 -8.10271 0 0 1.5 0.0723473 -0.0341191 
-5.08509 4.91785 -7.80679 0 0 1.5 0.0589282 -0.0501641 
-5.10623 4.73698 -7.5008 0 0 1.5 0.0459452 -0.0808123 
-5.13046 4.55938 -7.19311 0 0 1.5 0.0214046 -0.361848 
-5.16456 4.38895 -6.88225 0 0 1.5 0.0105215 -1.48023 
-5.20347 4.2173 -6.57269 0 0 1.5 0.00704488 -3.25439 
-5.24805 4.04421 -6.26464 0 0 1.5 0.0263791 -0.220368 
-5.29651 3.86055 -5.96347 0 0 1.5 0.0368441 -0.107607 
-5.34597 3.67164 -5.66574 0 0 1.5 0.0470158 -0.06125 
-5.39234 3.46077 -5.3825 0 0 1.5 0.056775 -0.037472 
-5.43302 3.23697 -5.10918 0 0 1.5 0.0747066 -0.0139358 
-5.46616 2.99599 -4.84905 0 0 1.5 0.0826755 -0.00693684 
-5.48177 2.72992 -4.6136 0 0 1.5 0.0898224 -0.00138226 
-5.48822 2.45275 -4.39098 0 0 1.5 0.0960462 0.00326497 
-5.47378 2.1541 -4.1975 0 0 1.5 0.105332 0.0114682 
-5.44551 1.84492 -4.02467 0 0 1.5 0.108218 0.015443 
-5.40627 1.52739 -3.86824 0 0 1.5 0.109878 0.0194441 
-5.34928 1.19995 -3.74096 0 0 1.5 0.109556 0.0281478 
-5.2877 0.87033 -3.62144 0 0 1.5 0.107657 0.0331341 
-5.21334 0.535907 -3.52412 0 0 1.5 0.104719 0.038717 
-5.13511 0.200803 -3.43285 0 0 1.5 0.100866 0.0450788 
-5.0499 -0.135529 -3.35248 0 0 1.5 0.0909644 0.0611349 
-4.95991 -0.471493 -3.27609 0 0 1.5 0.0852181 0.0715279 
-4.86579 -0.807138 -3.20313 0 0 1.5 0.0791488 0.0840467 
-4.76554 -1.14069 -3.12889 0 0 1.5 0.0729045 0.0992128 
-4.66272 -1.47337 -3.05412 0 0 1.5 0.0604338 0.140862 
-4.55164 -1.80125 -2.9706 0 0 1.5 0.0544556 0.169187 
-4.43868 -2.12784 -2.88464 0 0 1.5 0.0488042 0.203508 
-4.31687 -2.44708 -2.78421 0 0 1.5 0.0435889 0.244472 
-4.19253 -2.76338 -2.67825 0 0 1.5 0.0348573 0.342587 
-4.06232 -3.07287 -2.55952 0 0 1.5 0.0315384 0.389478 
-3.92923 -3.37723 -2.43151 0 0 1.5 0.0290334 0.422209 
-3.79364 -3.67713 -2.29544 0 0 1.5 0.0265734 0.405636 
-3.65724 -3.97162 -2.14892 0 0 1.5 0.0265418 0.351298 
-3.5206 -4.2645 -1.99927 0 0 1.5 0.0271741 0.279385 
-3.38752 -4.55465 -1.84135 0 0 1.5 0.0283378 0.204126 
-3.256 -4.84515 -1.68279 0 0 1.5 0.0318212 0.0735217 
-3.13019 -5.13695 -1.52197 0 0 1.5 0.0339961 0.0245127 
-3.0082 -5.43078 -1.36199 0 0 1.5 0.0364017 -0.0126554 
-2.89149 -5.72741 -1.20315 0 0 1.5 0.0390168 -0.039839 
-2.77978 -6.02762 -1.04757 0 0 1.5 0.0448419 -0.0710237 
-2.67113 -6.33001 -0.893967 0 0 1.5 0.0480366 -0.0774016 
-2.56561 -6.63619 -0.745825 0 0 1.5 0.0514026 -0.0793672 
-2.46067 -6.94324 -0.599039 0 0 1.5 0.058578 -0.0740306 
-2.35245 -7.25188 -0.458086 0 0 1.5 0.0623331 -0.0680667 
-2.24108 -7.5598 -0.31813 0 0 1.5 0.0661501 -0.0606324 
-2.1204 -7.86559 -0.181132 0 0 1.5 0.069986 -0.0520928 
-1.98886 -8.16693 -0.0447774 0 0 1.5 0.0775228 -0.03333 
-1.84643 -8.46381 0.0909317 0 0 1.5 0.0811219 -0.0233995 
-1.68172 -8.74829 0.227266 0 0 1.5 0.0845372 -0.0130468 
-1.50829 -9.02757 0.363899 0 0 1.5 0.0877171 -0.00250624 
-1.30546 -9.28564 0.502077 0 0 1.5 0.0932016 0.0188659 
-1.09169 -9.53375 0.640671 0 0 1.5 0.0954318 0.0301065 
-0.859159 -9.76476 0.779977 0 0 1.5 0.0972813 0.0416146 
-0.610637 -9.97784 0.919116 0 0 1.5 0.0998065 0.065173 
-0.353437 -10.1812 1.05816 0 0 1.5 0.100487 0.0776558 
-0.0793736 -10.3623 1.19542 0 0 1.5 0.100798 0.0904598 
0.198079 -10.5387 1.3321 0 0 1.5 0.100773 0.10332 
0.488101 -10.6966 1.4655 0 0 1.5 0.0998774 0.129622 
0.780922 -10.8501 1.59758 0 0 1.5 0.0991038 0.142785 
1.08133 -10.9918 1.72608 0 0 1.5 0.0981885 0.155383 
1.38499 -11.1283 1.85237 0 0 1.5 0.0971896 0.167291 
1.69319 -11.2574 1.97556 0 0 1.5 0.095152 0.188161 
2.00457 -11.3809 2.09635 0 0 1.5 0.0941997 0.196363 
2.31852 -11.4999 2.21521 0 0 1.5 0.0933313 0.202795 
2.63509 -11.6125 2.33316 0 0 1.5 0.0925609 0.207357 
2.9528 -11.7224 2.45072 0 0 1.5 0.0913056 0.210551 
3.27179 -11.8245 2.57173 0 0 1.5 0.0907816 0.20933 
3.59093 -11.9248 2.69388 0 0 1.5 0.0902789 0.206531 
3.90865 -12.0154 2.82687 0 0 1.5 0.0891382 0.198326 
4.22479 -12.1027 2.96532 0 0 1.5 0.088392 0.19377 
4.53682 -12.1815 3.11786 0 0 1.5 0.0874517 0.189348 
4.84281 -12.2525 3.28491 0 0 1.5 0.0862611 0.185704 
5.14383 -12.3173 3.4639 0 0 1.5 0.0829744 0.182746 
5.43063 -12.3687 3.66824 0 0 1.5 0.0808177 0.184052 
5.71144 -12.4151 3.88184 0 0 1.5 0.0782926 0.188031 
5.97515 -12.4479 4.11895 0 0 1.5 0.0754094 0.195393 
6.22856 -12.4732 4.3673 0 0 1.5 0.0686727 0.222989 
6.47108 -12.4903 4.62755 0 0 1.5 0.0649007 0.245304 
6.69948 -12.4967 4.90049 0 0 1.5 0.0609579 0.27497 
6.92331 -12.4995 5.17746 0 0 1.5 0.0529958 0.36158 
7.13524 -12.4917 5.46358 0 0 1.5 0.0492567 0.419735 
7.34538 -12.4815 5.7509 0 0 1.5 0.045929 0.484907 
7.55125 -12.4657 6.04109 0 0 1.5 0.0432392 0.549757 
7.75691 -12.448 6.3313 0 0 1.5 0.0406592 0.625197 
7.96238 -12.4285 6.62155 0 0 1.5 0.0410634 0.611382 
8.17064 -12.4102 6.90986 0 0 1.5 0.0426032 0.563455 
8.37981 -12.3922 7.19755 0 0 1.5 0.0451336 0.494563 
8.59449 -12.3815 7.48151 0 0 1.5 0.0522935 0.347982 
8.81044 -12.3738 7.76454 0 0 1.5 0.0564759 0.284789 
9.03051 -12.3767 8.04455 0 0 1.5 0.0607984 0.230697 
9.25222 -12.3888 8.32282 0 0 1.5 0.0692495 0.147561 
9.47573 -12.4111 8.5992 0 0 1.5 0.0731393 0.115557 
9.7 -12.4516 8.87266 0 0 1.5 0.076676 0.0878224 
9.92453 -12.4988 9.14504 0 0 1.5 0.0797829 0.0636 
10.1478 -12.575 9.41182 0 0 1.5 0.0845208 0.022762 
10.3703 -12.6605 9.67604 0 0 1.5 0.0860931 0.00439602 
10.5907 -12.7691 9.93389 0 0 1.5 0.0871179 -0.0130471 
10.8088 -12.897 10.184 0 0 1.5 0.0876146 -0.0296793 
11.0253 -13.0393 10.4284 0 0 1.5 0.0871702 -0.0623912 
11.238 -13.2091 10.6577 0 0 1.5 0.0863296 -0.0787704 
11.4495 -13.3871 10.882 0 0 1.5 0.0851733 -0.0948869 
11.6567 -13.5893 11.0894 0 0 1.5 0.0837873 -0.110805 
11.862 -13.7998 11.2899 0 0 1.5 0.0806888 -0.141358 
12.064 -14.0237 11.4794 0 0 1.5 0.0791647 -0.154816 
12.2628 -14.2563 11.6613 0 0 1.5 0.0777812 -0.166259 
12.4593 -14.4947 11.8384 0 0 1.5 0.0757634 -0.180352 
12.6507 -14.7395 12.0124 0 0 1.5 0.0752577 -0.181676 
12.8409 -14.9858 12.1856 0 0 1.5 0.0751437 -0.17862 
13.0235 -15.2336 12.3647 0 0 1.5 0.0754412 -0.17109 
13.2042 -15.4806 12.5469 0 0 1.5 0.0772436 -0.145089 
13.3768 -15.7242 12.7409 0 0 1.5 0.0786838 -0.128059 
13.5441 -15.9641 12.9439 0 0 1.5 0.0804213 -0.109151 
13.7036 -16.1984 13.1594 0 0 1.5 0.0823996 -0.0895478 
13.8526 -16.4248 13.39 0 0 1.5 0.0868187 -0.0514784 
13.9955 -16.6465 13.6293 0 0 1.5 0.0891313 -0.0332402 
14.1213 -16.8572 13.8872 0 0 1.5 0.0914313 -0.0161303 
14.2424 -17.0653 14.1494 0 0 1.5 0.0957636 0.0135542 
14.3437 -17.2656 14.426 0 0 1.5 0.0976888 0.0265971 
14.4376 -17.4656 14.705 0 0 1.5 0.0993874 0.0383255 
14.5153 -17.6652 14.9896 0 0 1.5 0.100818 0.0485444 
14.5793 -17.8703 15.2733 0 0 1.5 0.102723 0.0652889 
14.6315 -18.0802 15.5563 0 0 1.5 0.103128 0.07205 
14.6617 -18.3076 15.8282 0 0 1.5 0.10314 0.0777479 
14.6841 -18.5415 16.0956 0 0 1.5 0.102745 0.0824728 
14.6763 -18.8067 16.3332 0 0 1.5 0.100694 0.0894555 
14.6577 -19.0836 16.5538 0 0 1.5 0.099042 0.0921152 
14.6165 -19.385 16.7389 0 0 1.5 0.0969918 0.0942801 
14.5583 -19.7022 16.8846 0 0 1.5 0.0945602 0.0959453 
14.4866 -20.0317 16.999 0 0 1.5 0.0886501 0.0987083 
14.415 -20.3613 17.1135 0 0 1.5 0.0852423 0.0999755 
14.3433 -20.6908 17.228 0 0 1.5 0.0815808 0.1011 
14.2717 -21.0204 17.3424 0 0 1.5 0.0736501 0.104082 
14.2001 -21.3499 17.4569 0 0 1.5 0.0694707 0.106185 
14.1284 -21.6795 17.5714 0 0 1.5 0.0652053 0.10862 
14.0568 -22.009 17.6858 0 0 1.5 0.0608925 0.111679 
13.9851 -22.3386 17.8003 0 0 1.5 0.0522728 0.120846 
13.9135 -22.6681 17.9148 0 0 1.5 0.0480339 0.127064 
13.8419 -22.9977 18.0292 0 0 1.5 0.0438824 0.134844 
13.7702 -23.3272 18.1437 0 0 1.5 0.0398435 0.144843 
13.6986 -23.6568 18.2582 0 0 1.5 0.0321967 0.17329 
13.6269 -23.9864 18.3726 0 0 1.5 0.0286335 0.193374 
13.5553 -24.3159 18.4871 0 0 1.5 0.0252685 0.219426 
13.4837 -24.6455 18.6016 0 0 1.5 0.0192099 0.296641 
13.412 -24.975 18.716 0 0 1.5 0.0165623 0.352962 
13.3404 -25.3046 18.8305 0 0 1.5 0.0142013 0.425826 
13.2687 -25.6341 18.945 0 0 1.5 0.0121586 0.516416 
13.1971 -25.9637 19.0594 0 0 1.5 0.00918984 0.71727 
13.1255 -26.2932 19.1739 0 0 1.5 0.00833057 0.780269 
13.0538 -26.6228 19.2884 0 0 1.5 0.00788474 0.77998 
12.9822 -26.9523 19.4028 0 0 1.5 0.00778903 0.716109 
12.9105 -27.2819 19.5173 0 0 1.5 0.00823398 0.517316 
12.8389 -27.6114 19.6318 0 0 1.5 0.0085805 0.42934 
12.7673 -27.941 19.7462 0 0 1.5 0.00891863 0.358199 
12.6956 -28.2705 19.8607 0 0 1.5 0.00942437 0.261844 
12.624 -28.6001 19.9752 0 0 1.5 0.00955663 0.230683 
12.5523 -28.9296 20.0896 0 0 1.5 0.00959986 0.20703 
12.4807 -29.2592 20.2041 0 0 1.5 0.00955408 0.189408 
12.4091 -29.5887 20.3186 0 0 1.5 0.00921143 0.168268 
12.3374 -29.9183 20.433 0 0 1.5 0.008928 0.162759 
12.2658 -30.2478 20.5475 0 0 1.5 0.00858087 0.160197 
12.1941 -30.5774 20.662 0 0 1.5 0.00817842 0.160758 
12.1225 -30.9069 20.7764 0 0 1.5 0.00724443 0.170747 
12.0509 -31.2365 20.8909 0 0 1.5 0.0067324 0.180722 
11.9792 -31.566 21.0054 0 0 1.5 0.00620222 0.195303 
11.9076 -31.8956 21.1198 0 0 1.5 0.00566277 0.215378 
11.8359 -32.2251 21.2343 0 0 1.5 0.00459452 0.277683 
11.7643 -32.5547 21.3488 0 0 1.5 0.00408448 0.325652 
11.6927 -32.8842 21.4632 0 0 1.5 0.00360371 0.389149 
11.621 -33.2138 21.5777 0 0 1.5 0.00278252 0.568831 
11.5494 -33.5433 21.6922 0 0 1.5 0.00247314 0.675462 
11.4777 -33.8729 21.8066 0 0 1.5 0.00225341 0.764909 
11.4061 -34.2024 21.9211 0 0 1.5 0.00213549 0.801166 
11.3345 -34.532 22.0356 0 0 1.5 0.00219066 0.676656 
11.2628 -34.8615 22.15 0 0 1.5 0.00232646 0.566515 
11.1912 -35.1911 22.2645 0 0 1.5 0.00250336 0.461363 
11.1195 -35.5207 22.379 0 0 1.5 0.0027021 0.373042 
11.0479 -35.8502 22.4934 0 0 1.5 0.00311538 0.248725 
10.9763 -36.1798 22.6079 0 0 1.5 0.00331543 0.205977 
10.9046 -36.5093 22.7224 0 0 1.5 0.00350579 0.172359 
10.833 -36.8389 22.8368 0 0 1.5 0.00385122 0.124514 
10.7613 -37.1684 22.9513 0 0 1.5 0.00400555 0.107013 
10.6897 -37.498 23.0658 0 0 1.5 0.00414807 0.0925815 
10.618 -37.8275 23.1802 0 0 1.5 0.00427939 0.08071 
10.5464 -38.1571 23.2947 0 0 1.5 0.00451199 0.0624826 
10.4748 -38.4866 23.4092 0 0 1.5 0.00461548 0.0554773 
10.4031 -38.8162 23.5236 0 0 1.5 0.00471177 0.0496661 
10.3315 -39.1457 23.6381 0 0 1.5 0.00480183 0.0448539 
10.2598 -39.4753 23.7526 0 0 1.5 0.00496758 0.0376614 
10.1882 -39.8048 23.867 0 0 1.5 0.00504527 0.0351029 
10.1166 -40.1344 23.9815 0 0 1.5 0.00512074 0.0331331 
0 1 0 
1 2 0 
2 3 0 
3 4 0 
4 5 0 
5 6 0 
6 7 0 
7 8 0 
8 9 0 
9 10 0 
10 11 0 
11 12 0 
12 13 0 
13 14 0 
14 15 0 
15 16 0 
16 17 0 
17 18 0 
18 19 0 
19 20 0 
20 21 0 
21 22 0 
22 23 0 
23 24 0 
24 25 0 
25 26 0 
26 27 0 
27 28 0 
28 29 0 
29 30 0 
30 31 0 
31 32 0 
32 33 0 
33 34 0 
34 35 0 
35 36 0 
36 37 0 
37 38 0 
38 39 0 
39 40 0 
40 41 0 
41 42 0 
42 43 0 
43 44 0 
44 45 0 
45 46 0 
46 47 0 
47 48 0 
48 49 0 
49 50 0 
50 51 0 
51 52 0 
52 53 0 
53 54 0 
54 55 0 
55 56 0 
56 57 0 
57 58 0 
58 59 0 
59 60 0 
60 61 0 
61 62 0 
62 63 0 
63 64 0 
64 65 0 
65 66 0 
66 67 0 
67 68 0 
68 69 0 
69 70 0 
70 71 0 
71 72 0 
72 73 0 
73 74 0 
74 75 0 
75 76 0 
76 77 0 
77 78 0 
78 79 0 
79 80 0 
80 81 0 
81 82 0 
82 83 0 
83 84 0 
84 85 0 
85 86 0 
86 87 0 
87 88 0 
88 89 0 
89 90 0 
90 91 0 
91 92 0 
92 93 0 
93 94 0 
94 95 0 
95 96 0 
96 97 0 
97 98 0 
98 99 0 
99 100 0 
100 101 0 
101 102 0 
102 103 0 
103 104 0 
104 105 0 
105 106 0 
106 107 0 
107 108 0 
108 109 0 
109 110 0 
110 111 0 
111 112 0 
112 113 0 
113 114 0 
114 115 0 
115 116 0 
116 117 0 
117 118 0 
118 119 0 
119 120 0 
120 121 0 
121 122 0 
122 123 0 
123 124 0 
124 125 0 
125 126 0 
126 127 0 
127 128 0 
128 129 0 
129 130 0 
130 131 0 
131 132 0 
132 133 0 
133 134 0 
134 135 0 
135 136 0 
136 137 0 
137 138 0 
138 139 0 
139 140 0 
140 141 0 
141 142 0 
142 143 0 
143 144 0 
144 145 0 
145 146 0 
146 147 0 
147 148 0 
148 149 0 
149 150 0 
150 151 0 
151 152 0 
152 153 0 
153 154 0 
154 155 0 
155 156 0 
156 157 0 
157 158 0 
158 159 0 
159 160 0 
160 161 0 
161 162 0 
162 163 0 
163 164 0 
164 165 0 
165 166 0 
166 167 0 
167 168 0 
168 169 0 
169 170 0 
170 171 0 
171 172 0 
172 173 0 
173 174 0 
174 175 0 
175 176 0 
176 177 0 
177 178 0 
178 179 0 
179 180 0 
180 181 0 
181 182 0 
182 183 0 
183 184 0 
184 185 0 
185 186 0 
186 187 0 
187 188 0 
188 189 0 
189 190 0 
190 191 0 
191 192 0 
192 193 0 
193 194 0 
194 195 0 
195 196 0 
196 197 0 
197 198 0 
198 199 0 
199 200 0 
200 201 0 
201 202 0 
202 203 0 
203 204 0 
204 205 0 
205 206 0 
206 207 0 
207 208 0 
208 209 0 
209 210 0 
210 211 0 
211 212 0 
212 213 0 
213 214 0 
214 215 0 
215 216 0 
216 217 0 
217 218 0 
218 219 0 
219 220 0 
220 221 0 
221 222 0 
222 223 0 
223 224 0 
224 225 0 
225 226 0 
226 227 0 
227 228 0 
228 229 0 
229 230 0 
230 231 0 
231 232 0 
232 233 0 
233 234 0 
234 235 0 
235 236 0 
236 237 0 
237 238 0 
238 239 0 
239 240 0 
240 241 0 
241 242 0 
242 243 0 
243 244 0 
244 245 0 
245 246 0 
246 247 0 
247 248 0 
248 249 0 
249 250 0 
250 251 0 
251 252 0 
252 253 0 
253 254 0 
254 255 0 
255 256 0 
256 257 0 
257 258 0 
258 259 0 
259 260 0 
260 261 0 
261 262 0 
262 263 0 
263 264 0 
264 265 0 
265 266 0 
266 267 0 
267 268 0 
268 269 0 
269 270 0 
270 271 0 
271 272 0 
272 273 0 
273 274 0 
274 275 0 
275 276 0 
276 277 0 
277 278 0 
278 279 0 
279 280 0 
280 281 0 
281 282 0 
282 283 0 
283 284 0 
284 285 0 
285 286 0 
286 287 0 
287 288 0 
288 289 0 
289 290 0 
290 291 0 
291 292 0 
292 293 0 
293 294 0 
294 295 0 
295 296 0 
296 297 0 
297 298 0 
298 299 0 
-1 -1 0 
-1 300 0 1 2 3 4 5 6 7 8 9 10 11 12 13 14 15 16 17 18 19 20 21 22 23 24 25 26 27 28 29 30 31 32 33 34 35 36 37 38 39 40 41 42 43 44 45 46 47 48 49 50 51 52 53 54 55 56 57 58 59 60 61 62 63 64 65 66 67 68 69 70 71 72 73 74 75 76 77 78 79 80 81 82 83 84 85 86 87 88 89 90 91 92 93 94 95 96 97 98 99 100 101 102 103 104 105 106 107 108 109 110 111 112 113 114 115 116 117 118 119 120 121 122 123 124 125 126 127 128 129 130 131 132 133 134 135 136 137 138 139 140 141 142 143 144 145 146 147 148 149 150 151 152 153 154 155 156 157 158 159 160 161 162 163 164 165 166 167 168 169 170 171 172 173 174 175 176 177 178 179 180 181 182 183 184 185 186 187 188 189 190 191 192 193 194 195 196 197 198 199 200 201 202 203 204 205 206 207 208 209 210 211 212 213 214 215 216 217 218 219 220 221 222 223 224 225 226 227 228 229 230 231 232 233 234 235 236 237 238 239 240 241 242 243 244 245 246 247 248 249 250 251 252 253 254 255 256 257 258 259 260 261 262 263 264 265 266 267 268 269 270 271 272 273 274 275 276 277 278 279 280 281 282 283 284 285 286 287 288 289 290 291 292 293 294 295 296 297 298 299 
