ply
format ascii 1.0
comment written by koba@oshima.lab
element vertex 300
property float x
property float y
property float z
property int label
property int attribute
property float radius
property float curvature
property float torsion
element edge 300
property int vertex1
property int vertex2
property int label
element vertex_seq 1
property int label
property list int int vertex_indices
end_header
3.1912 30.5208 -5.00532 0 0 1.5 0.0142721 -0.0330635 
3.10049 30.1491 -4.93867 0 0 1.5 0.0139711 -0.0354682 
3.00978 29.7774 -4.87203 0 0 1.5 0.0136595 -0.0392846 
2.91906 29.4057 -4.80538 0 0 1.5 0.0133286 -0.0447577 
2.82835 29.034 -4.73873 0 0 1.5 0.0125775 -0.0621174 
2.73763 28.6623 -4.67209 0 0 1.5 0.0121403 -0.0751592 
2.64692 28.2906 -4.60544 0 0 1.5 0.0116507 -0.0923785 
2.55621 27.9189 -4.5388 0 0 1.5 0.0111021 -0.11533 
2.46549 27.5472 -4.47215 0 0 1.5 0.00981209 -0.187733 
2.37478 27.1755 -4.40551 0 0 1.5 0.00907239 -0.246115 
2.28406 26.8039 -4.33886 0 0 1.5 0.00828516 -0.329874 
2.19335 26.4322 -4.27222 0 0 1.5 0.00748375 -0.449733 
2.10264 26.0605 -4.20557 0 0 1.5 0.00615186 -0.812779 
2.01192 25.6888 -4.13893 0 0 1.5 0.00591226 -0.970982 
1.92121 25.3171 -4.07228 0 0 1.5 0.00619804 -0.973666 
1.83049 24.9454 -4.00564 0 0 1.5 0.00851527 -0.626488 
1.73978 24.5737 -3.93899 0 0 1.5 0.0103798 -0.466974 
1.64907 24.202 -3.87235 0 0 1.5 0.0125897 -0.35269 
1.55835 23.8303 -3.8057 0 0 1.5 0.0150762 -0.274131 
1.46764 23.4586 -3.73905 0 0 1.5 0.0206991 -0.183783 
1.37692 23.087 -3.67241 0 0 1.5 0.0237736 -0.157801 
1.28621 22.7153 -3.60576 0 0 1.5 0.026982 -0.139088 
1.1955 22.3436 -3.53912 0 0 1.5 0.030292 -0.12573 
1.10478 21.9719 -3.47247 0 0 1.5 0.0370923 -0.109928 
1.01407 21.6002 -3.40583 0 0 1.5 0.0405118 -0.105608 
0.923355 21.2285 -3.33918 0 0 1.5 0.0438898 -0.103196 
0.832641 20.8568 -3.27254 0 0 1.5 0.0503527 -0.103036 
0.741927 20.4851 -3.20589 0 0 1.5 0.0533545 -0.104324 
0.651213 20.1134 -3.13925 0 0 1.5 0.0561483 -0.106535 
0.560499 19.7418 -3.0726 0 0 1.5 0.0586921 -0.109824 
0.469785 19.3701 -3.00596 0 0 1.5 0.0629001 -0.11787 
0.379071 18.9984 -2.93931 0 0 1.5 0.0645313 -0.122332 
0.288357 18.6267 -2.87267 0 0 1.5 0.0658291 -0.127303 
0.193911 18.2558 -2.81847 0 0 1.5 0.0667894 -0.132125 
0.0684192 17.8916 -2.86779 0 0 1.5 0.0678079 -0.138669 
-0.0620887 17.534 -2.93533 0 0 1.5 0.0679261 -0.140131 
-0.209858 17.1993 -3.06558 0 0 1.5 0.067824 -0.139447 
-0.36235 16.8729 -3.20858 0 0 1.5 0.0675521 -0.135488 
-0.525279 16.5647 -3.37972 0 0 1.5 0.0666759 -0.115819 
-0.692962 16.2611 -3.5541 0 0 1.5 0.0661354 -0.0994174 
-0.869653 15.9661 -3.73462 0 0 1.5 0.0655606 -0.0783518 
-1.05181 15.6708 -3.90872 0 0 1.5 0.0643977 -0.0207476 
-1.24312 15.3749 -4.07208 0 0 1.5 0.0638599 0.0147955 
-1.44098 15.074 -4.21566 0 0 1.5 0.0633849 0.0528544 
-1.64646 14.7673 -4.33625 0 0 1.5 0.0630138 0.0932374 
-1.85795 14.4528 -4.41479 0 0 1.5 0.0628688 0.176496 
-2.07265 14.1341 -4.47092 0 0 1.5 0.0632597 0.21345 
-2.28808 13.8115 -4.46061 0 0 1.5 0.0640686 0.244857 
-2.50235 13.49 -4.43009 0 0 1.5 0.0653812 0.269365 
-2.71386 13.1714 -4.36249 0 0 1.5 0.0697367 0.290563 
-2.92554 12.856 -4.28193 0 0 1.5 0.0727585 0.288436 
-3.13984 12.5419 -4.20432 0 0 1.5 0.0762637 0.280737 
-3.36179 12.2278 -4.15022 0 0 1.5 0.0843219 0.257028 
-3.59539 11.9201 -4.18044 0 0 1.5 0.0886356 0.244435 
-3.8245 11.6382 -4.30499 0 0 1.5 0.0929632 0.232999 
-4.03907 11.3896 -4.5059 0 0 1.5 0.0971802 0.223239 
-4.23894 11.1682 -4.7543 0 0 1.5 0.104969 0.208728 
-4.41876 10.9767 -5.04037 0 0 1.5 0.108419 0.203976 
-4.59498 10.7893 -5.33118 0 0 1.5 0.111517 0.200343 
-4.76527 10.6086 -5.62978 0 0 1.5 0.114268 0.197178 
-4.93457 10.4258 -5.92768 0 0 1.5 0.11881 0.191712 
-5.10295 10.2411 -6.22493 0 0 1.5 0.120658 0.188918 
-5.27128 10.0488 -6.51721 0 0 1.5 0.122271 0.18563 
-5.43958 9.85023 -6.80545 0 0 1.5 0.124927 0.177715 
-5.60553 9.6405 -7.0868 0 0 1.5 0.126027 0.173231 
-5.76959 9.42182 -7.36263 0 0 1.5 0.126989 0.168605 
-5.92554 9.18971 -7.63176 0 0 1.5 0.127815 0.164026 
-6.07593 8.94838 -7.89627 0 0 1.5 0.12906 0.155774 
-6.20814 8.6932 -8.15702 0 0 1.5 0.129477 0.152568 
-6.33235 8.43194 -8.41613 0 0 1.5 0.129756 0.150231 
-6.42353 8.16142 -8.67909 0 0 1.5 0.129909 0.148924 
-6.50495 7.88996 -8.94421 0 0 1.5 0.129963 0.149397 
-6.54551 7.62243 -9.22279 0 0 1.5 0.129985 0.151205 
-6.56835 7.36291 -9.50952 0 0 1.5 0.130112 0.15415 
-6.56186 7.11664 -9.80975 0 0 1.5 0.130455 0.157795 
-6.52717 6.89183 -10.1233 0 0 1.5 0.132417 0.16537 
-6.47729 6.67858 -10.444 0 0 1.5 0.134398 0.169006 
-6.39386 6.49508 -10.7755 0 0 1.5 0.137326 0.171708 
-6.30418 6.31669 -11.1085 0 0 1.5 0.147034 0.17177 
-6.18177 6.15968 -11.442 0 0 1.5 0.154343 0.169124 
-6.05372 6.00343 -11.7733 0 0 1.5 0.163665 0.164561 
-5.89606 5.85122 -12.094 0 0 1.5 0.17531 0.158048 
-5.72924 5.69568 -12.4076 0 0 1.5 0.206869 0.141185 
-5.53295 5.52945 -12.6985 0 0 1.5 0.227497 0.131863 
-5.32333 5.3539 -12.9722 0 0 1.5 0.251923 0.122398 
-5.08666 5.15942 -13.211 0 0 1.5 0.280611 0.112877 
-4.83375 4.94973 -13.413 0 0 1.5 0.352525 0.0936641 
-4.56244 4.72279 -13.5733 0 0 1.5 0.3964 0.0839184 
-4.27919 4.47977 -13.6687 0 0 1.5 0.445542 0.0736084 
-3.98964 4.22826 -13.7297 0 0 1.5 0.555765 0.0497161 
-3.7046 3.96917 -13.6961 0 0 1.5 0.612335 0.0360626 
-3.42389 3.71017 -13.6359 0 0 1.5 0.664667 0.0208757 
-3.17052 3.46005 -13.4808 0 0 1.5 0.707295 0.00400217 
-2.94128 3.22278 -13.2846 0 0 1.5 0.742108 -0.0306622 
-2.74674 3.00402 -13.0295 0 0 1.5 0.728537 -0.0465596 
-2.61827 2.82869 -12.7124 0 0 1.5 0.695575 -0.0608517 
-2.52682 2.67974 -12.3692 0 0 1.5 0.647669 -0.0727297 
-2.51694 2.59417 -11.9905 0 0 1.5 0.52992 -0.0886069 
-2.55327 2.55162 -11.6103 0 0 1.5 0.469796 -0.0939356 
-2.62618 2.54313 -11.229 0 0 1.5 0.412987 -0.0981227 
-2.74191 2.58604 -10.8619 0 0 1.5 0.314471 -0.104367 
-2.86568 2.6391 -10.4977 0 0 1.5 0.273297 -0.107429 
-3.00805 2.73241 -10.1486 0 0 1.5 0.23711 -0.111018 
-3.14961 2.82919 -9.80029 0 0 1.5 0.205398 -0.115452 
-3.28566 2.94966 -9.45708 0 0 1.5 0.153185 -0.1282 
-3.41549 3.07429 -9.11322 0 0 1.5 0.131632 -0.138034 
-3.52355 3.21345 -8.76712 0 0 1.5 0.112496 -0.15217 
-3.6148 3.3579 -8.41915 0 0 1.5 0.0953993 -0.172579 
-3.67695 3.51152 -8.06792 0 0 1.5 0.0661567 -0.250421 
-3.70738 3.67257 -7.71695 0 0 1.5 0.0536438 -0.330271 
-3.71432 3.83912 -7.36619 0 0 1.5 0.042544 -0.469353 
-3.67954 4.0157 -7.02264 0 0 1.5 0.0332531 -0.710695 
-3.63344 4.19513 -6.68145 0 0 1.5 0.0251656 -1.19655 
-3.55508 4.38425 -6.35142 0 0 1.5 0.0289298 -0.940963 
-3.47276 4.57497 -6.02337 0 0 1.5 0.0366004 -0.631189 
-3.38015 4.76986 -5.70047 0 0 1.5 0.0577636 -0.313496 
-3.28924 4.96315 -5.37614 0 0 1.5 0.0700671 -0.242388 
-3.20034 5.15457 -5.05014 0 0 1.5 0.0832712 -0.197143 
-3.12205 5.33437 -4.71521 0 0 1.5 0.0973314 -0.166797 
-3.04997 5.50735 -4.37506 0 0 1.5 0.127983 -0.129617 
-2.99791 5.64872 -4.01762 0 0 1.5 0.144523 -0.117586 
-2.95137 5.78055 -3.65557 0 0 1.5 0.161782 -0.108261 
-2.9298 5.8551 -3.27504 0 0 1.5 0.179646 -0.100918 
-2.91468 5.90807 -2.89226 0 0 1.5 0.216385 -0.08968 
-2.91547 5.90779 -2.5039 0 0 1.5 0.234648 -0.0851947 
-2.9241 5.86731 -2.11977 0 0 1.5 0.252332 -0.0813138 
-2.93995 5.78989 -1.73954 0 0 1.5 0.284056 -0.0741239 
-2.96125 5.66352 -1.37443 0 0 1.5 0.297045 -0.0705133 
-2.98481 5.51695 -1.01556 0 0 1.5 0.307469 -0.066847 
-3.01066 5.3218 -0.681671 0 0 1.5 0.314939 -0.0629746 
-3.03697 5.1171 -0.352689 0 0 1.5 0.320067 -0.0543166 
-3.06406 4.8669 -0.0573574 0 0 1.5 0.317685 -0.0495479 
-3.09122 4.61267 0.234944 0 0 1.5 0.312255 -0.0444743 
-3.12019 4.31524 0.482977 0 0 1.5 0.304113 -0.0391005 
-3.14981 4.01337 0.724554 0 0 1.5 0.281412 -0.0276444 
-3.18422 3.67849 0.918193 0 0 1.5 0.267795 -0.0215679 
-3.22165 3.33567 1.09399 0 0 1.5 0.253246 -0.0151995 
-3.26674 2.9727 1.22455 0 0 1.5 0.238128 -0.00852598 
-3.31933 2.60242 1.32342 0 0 1.5 0.207398 0.00611384 
-3.37981 2.22444 1.38899 0 0 1.5 0.192227 0.0145332 
-3.45227 1.8447 1.41402 0 0 1.5 0.17738 0.0239641 
-3.52972 1.46423 1.42213 0 0 1.5 0.149053 0.0473554 
-3.62025 1.08811 1.39068 0 0 1.5 0.135693 0.062801 
-3.7128 0.712932 1.35289 0 0 1.5 0.122916 0.0819485 
-3.81306 0.343228 1.28895 0 0 1.5 0.110763 0.106071 
-3.91351 -0.025696 1.22127 0 0 1.5 0.0885688 0.178609 
-4.01456 -0.392023 1.14116 0 0 1.5 0.078741 0.233096 
-4.11335 -0.758327 1.05831 0 0 1.5 0.0700289 0.30331 
-4.20809 -1.12459 0.97056 0 0 1.5 0.062784 0.388577 
-4.29776 -1.49175 0.881453 0 0 1.5 0.0547572 0.54608 
-4.3816 -1.85996 0.790792 0 0 1.5 0.0550158 0.562267 
-4.45873 -2.22945 0.699619 0 0 1.5 0.0583886 0.521152 
-4.53031 -2.60001 0.608023 0 0 1.5 0.0731625 0.366916 
-4.59478 -2.97178 0.516294 0 0 1.5 0.0836163 0.29734 
-4.65444 -3.34438 0.424474 0 0 1.5 0.0955844 0.241752 
-4.70614 -3.71828 0.333323 0 0 1.5 0.108784 0.198821 
-4.75278 -4.09301 0.242597 0 0 1.5 0.137966 0.141066 
-4.78786 -4.46953 0.154653 0 0 1.5 0.153487 0.121756 
-4.81577 -4.84717 0.0684372 0 0 1.5 0.169245 0.106621 
-4.82302 -5.22706 -0.0103317 0 0 1.5 0.184871 0.0946568 
-4.81953 -5.60811 -0.0852321 0 0 1.5 0.213942 0.0773455 
-4.77496 -5.98903 -0.141908 0 0 1.5 0.226337 0.0709364 
-4.71472 -6.3689 -0.191224 0 0 1.5 0.236571 0.065585 
-4.58441 -6.73453 -0.203754 0 0 1.5 0.248863 0.057089 
-4.4151 -7.07963 -0.191259 0 0 1.5 0.250396 0.0536028 
-4.20161 -7.40147 -0.150422 0 0 1.5 0.248791 0.0504671 
-3.93108 -7.66383 -0.060958 0 0 1.5 0.244283 0.0475603 
-3.64647 -7.90312 0.0453795 0 0 1.5 0.228196 0.0421037 
-3.34154 -8.10245 0.179948 0 0 1.5 0.21762 0.0394891 
-3.03288 -8.2814 0.331578 0 0 1.5 0.206078 0.0369305 
-2.72145 -8.44528 0.49584 0 0 1.5 0.194072 0.0343235 
-2.41441 -8.59923 0.676677 0 0 1.5 0.170296 0.0286 
-2.10902 -8.74942 0.863767 0 0 1.5 0.159137 0.0254589 
-1.81368 -8.90033 1.06564 0 0 1.5 0.148751 0.0219898 
-1.52062 -9.05141 1.27086 0 0 1.5 0.139278 0.0180487 
-1.23952 -9.20792 1.48829 0 0 1.5 0.123392 0.00925039 
-0.959839 -9.36508 1.70715 0 0 1.5 0.117023 0.00456312 
-0.688499 -9.52421 1.93491 0 0 1.5 0.111689 -0.000288914 
-0.41698 -9.6821 2.1633 0 0 1.5 0.103881 -0.00962528 
-0.144166 -9.83217 2.39541 0 0 1.5 0.101201 -0.0137506 
0.132421 -9.97477 2.62745 0 0 1.5 0.0991702 -0.0173869 
0.416915 -10.1017 2.85932 0 0 1.5 0.0976506 -0.0205479 
0.710423 -10.2094 3.0889 0 0 1.5 0.0955292 -0.0256692 
1.01148 -10.3008 3.31656 0 0 1.5 0.0946263 -0.0277206 
1.32332 -10.3587 3.5399 0 0 1.5 0.0936395 -0.0296898 
1.63825 -10.4065 3.76198 0 0 1.5 0.0924482 -0.031834 
1.95846 -10.4108 3.98169 0 0 1.5 0.0890464 -0.0371344 
2.2774 -10.4049 4.20243 0 0 1.5 0.086673 -0.0405984 
2.5924 -10.3669 4.42639 0 0 1.5 0.0837921 -0.0448431 
2.90022 -10.3115 4.65561 0 0 1.5 0.0764676 -0.0567953 
3.19964 -10.2355 4.891 0 0 1.5 0.0720451 -0.0650246 
3.48347 -10.1394 5.13728 0 0 1.5 0.0671732 -0.0750045 
3.7598 -10.0336 5.38881 0 0 1.5 0.0619177 -0.0874347 
4.01437 -9.91204 5.6555 0 0 1.5 0.0505575 -0.123806 
4.26445 -9.7882 5.9255 0 0 1.5 0.0446243 -0.150233 
4.49758 -9.66143 6.20905 0 0 1.5 0.038647 -0.186079 
4.72849 -9.53763 6.49562 0 0 1.5 0.0327255 -0.237482 
4.95392 -9.42112 6.78961 0 0 1.5 0.0215187 -0.445312 
5.18147 -9.31379 7.0853 0 0 1.5 0.016589 -0.672909 
5.4113 -9.2164 7.38281 0 0 1.5 0.0126142 -1.05961 
5.65087 -9.13335 7.67671 0 0 1.5 0.0109184 -1.31661 
5.89532 -9.05749 7.96879 0 0 1.5 0.0136234 -0.885278 
6.15768 -8.99664 8.24836 0 0 1.5 0.017487 -0.594057 
6.42359 -8.93867 8.52539 0 0 1.5 0.0219122 -0.434768 
6.71265 -8.89148 8.78042 0 0 1.5 0.0317986 -0.284899 
7.0051 -8.84507 9.0314 0 0 1.5 0.0372307 -0.24528 
7.31546 -8.80282 9.261 0 0 1.5 0.0430351 -0.21436 
7.63033 -8.76132 9.48418 0 0 1.5 0.0492533 -0.187568 
7.95616 -8.72164 9.69174 0 0 1.5 0.0630559 -0.142899 
8.2851 -8.68356 9.89453 0 0 1.5 0.0706813 -0.123637 
8.61841 -8.64773 10.0906 0 0 1.5 0.0787799 -0.105703 
8.95034 -8.61595 10.2896 0 0 1.5 0.0873193 -0.0890655 
9.28119 -8.58733 10.491 0 0 1.5 0.105515 -0.0593615 
9.60032 -8.5673 10.711 0 0 1.5 0.11501 -0.0464806 
9.91431 -8.55064 10.9387 0 0 1.5 0.124614 -0.0345258 
10.1977 -8.54828 11.2042 0 0 1.5 0.143515 -0.0125619 
10.4621 -8.55308 11.4868 0 0 1.5 0.152417 -0.00298549 
10.6988 -8.56832 11.7943 0 0 1.5 0.160642 0.00598806 
10.8963 -8.59967 12.1264 0 0 1.5 0.167922 0.0147003 
11.0774 -8.63946 12.4671 0 0 1.5 0.178594 0.0300738 
11.2292 -8.69862 12.8197 0 0 1.5 0.181527 0.0367038 
11.3708 -8.77435 13.1728 0 0 1.5 0.182601 0.0429884 
11.5039 -8.86416 13.5264 0 0 1.5 0.181693 0.0489048 
11.6311 -8.98775 13.8716 0 0 1.5 0.173927 0.0596812 
11.7565 -9.12528 14.2119 0 0 1.5 0.167222 0.0650438 
11.8777 -9.29986 14.537 0 0 1.5 0.158828 0.070912 
11.9919 -9.50022 14.8482 0 0 1.5 0.137935 0.0861562 
12.0996 -9.72397 15.1467 0 0 1.5 0.125929 0.0969586 
12.1847 -9.98827 15.4174 0 0 1.5 0.113187 0.111904 
12.2593 -10.2665 15.6767 0 0 1.5 0.0999595 0.13369 
12.3057 -10.5752 15.9077 0 0 1.5 0.0729335 0.219302 
12.3354 -10.8964 16.1224 0 0 1.5 0.0595568 0.310011 
12.3483 -11.23 16.3207 0 0 1.5 0.0466706 0.480117 
12.3455 -11.573 16.5023 0 0 1.5 0.0348711 0.824772 
12.3376 -11.9191 16.6784 0 0 1.5 0.0216669 2.01085 
12.3286 -12.2677 16.8492 0 0 1.5 0.0253582 1.43835 
12.323 -12.6153 17.022 0 0 1.5 0.0337725 0.797394 
12.3377 -12.9559 17.208 0 0 1.5 0.0438213 0.466227 
12.371 -13.2863 17.4066 0 0 1.5 0.06411 0.210772 
12.4385 -13.5979 17.6283 0 0 1.5 0.0734319 0.157103 
12.5507 -13.8705 17.8754 0 0 1.5 0.0818419 0.122609 
12.6942 -14.1156 18.1402 0 0 1.5 0.0951596 0.083233 
12.8915 -14.2855 18.4233 0 0 1.5 0.099834 0.0713979 
13.1064 -14.4308 18.7123 0 0 1.5 0.103065 0.062354 
13.3213 -14.5761 19.0013 0 0 1.5 0.104804 0.0554511 
13.5362 -14.7213 19.2903 0 0 1.5 0.103991 0.0462418 
13.7511 -14.8666 19.5794 0 0 1.5 0.101621 0.0430443 
13.9661 -15.0119 19.8684 0 0 1.5 0.0981086 0.040629 
14.181 -15.1572 20.1574 0 0 1.5 0.0936231 0.0390133 
14.3959 -15.3024 20.4464 0 0 1.5 0.0824616 0.0375954 
14.6108 -15.4477 20.7354 0 0 1.5 0.076137 0.0377691 
14.8257 -15.593 21.0245 0 0 1.5 0.0695304 0.0387403 
15.0406 -15.7382 21.3135 0 0 1.5 0.0560266 0.0433496 
15.2555 -15.8835 21.6025 0 0 1.5 0.0493676 0.0474921 
15.4704 -16.0288 21.8915 0 0 1.5 0.0428841 0.0537328 
15.6853 -16.174 22.1806 0 0 1.5 0.0366401 0.0630231 
15.9002 -16.3193 22.4696 0 0 1.5 0.0250974 0.0989935 
16.1152 -16.4646 22.7586 0 0 1.5 0.0198783 0.136283 
16.3301 -16.6099 23.0476 0 0 1.5 0.0150667 0.205558 
16.545 -16.7551 23.3367 0 0 1.5 0.0107088 0.352978 
16.7599 -16.9004 23.6257 0 0 1.5 0.0039379 1.98672 
16.9748 -17.0457 23.9147 0 0 1.5 0.00306321 2.8832 
17.1897 -17.1909 24.2037 0 0 1.5 0.00460978 1.11911 
17.4046 -17.3362 24.4927 0 0 1.5 0.00852072 0.255498 
17.6195 -17.4815 24.7818 0 0 1.5 0.0101014 0.161401 
17.8344 -17.6267 25.0708 0 0 1.5 0.0113651 0.113184 
18.0493 -17.772 25.3598 0 0 1.5 0.0123128 0.0856908 
18.2642 -17.9173 25.6488 0 0 1.5 0.0133314 0.058224 
18.4792 -18.0626 25.9379 0 0 1.5 0.0134476 0.0510204 
18.6941 -18.2078 26.2269 0 0 1.5 0.0133344 0.0462567 
18.909 -18.3531 26.5159 0 0 1.5 0.0130181 0.0433817 
19.1239 -18.4984 26.8049 0 0 1.5 0.0118852 0.0415393 
19.3388 -18.6436 27.094 0 0 1.5 0.0111242 0.0422873 
19.5537 -18.7889 27.383 0 0 1.5 0.0102669 0.0443896 
19.7686 -18.9342 27.672 0 0 1.5 0.0093369 0.0480245 
19.9835 -19.0794 27.961 0 0 1.5 0.00735445 0.0617564 
20.1984 -19.2247 28.25 0 0 1.5 0.00634179 0.0745447 
20.4133 -19.37 28.5391 0 0 1.5 0.00533615 0.0947989 
20.6283 -19.5153 28.8281 0 0 1.5 0.00341063 0.188892 
20.8432 -19.6605 29.1171 0 0 1.5 0.00252002 0.313991 
21.0581 -19.8058 29.4061 0 0 1.5 0.00170226 0.626321 
21.273 -19.9511 29.6952 0 0 1.5 0.00101321 1.60997 
21.4879 -20.0963 29.9842 0 0 1.5 0.000960423 1.49986 
21.7028 -20.2416 30.2732 0 0 1.5 0.00146535 0.592249 
21.9177 -20.3869 30.5622 0 0 1.5 0.00197499 0.299438 
22.1326 -20.5321 30.8513 0 0 1.5 0.00244424 0.179515 
22.3475 -20.6774 31.1403 0 0 1.5 0.00323287 0.0866811 
22.5624 -20.8227 31.4293 0 0 1.5 0.0035535 0.0656131 
22.7774 -20.968 31.7183 0 0 1.5 0.00382874 0.051484 
22.9923 -21.1132 32.0073 0 0 1.5 0.00425977 0.0342081 
23.2072 -21.2585 32.2964 0 0 1.5 0.00442464 0.0284734 
23.4221 -21.4038 32.5854 0 0 1.5 0.00456178 0.0238988 
23.637 -21.549 32.8744 0 0 1.5 0.00467503 0.0202287 
23.8519 -21.6943 33.1634 0 0 1.5 0.00484449 0.0146595 
24.0668 -21.8396 33.4525 0 0 1.5 0.0049078 0.0125149 
24.2817 -21.9848 33.7415 0 0 1.5 0.0049603 0.0107459 
24.4966 -22.1301 34.0305 0 0 1.5 0.00500401 0.00929582 
24.7115 -22.2754 34.3195 0 0 1.5 0.00507309 0.00719816 
24.9264 -22.4206 34.6086 0 0 1.5 0.00510153 0.00650571 
25.1414 -22.5659 34.8976 0 0 1.5 0.00512734 0.00603059 
0 1 0 
1 2 0 
2 3 0 
3 4 0 
4 5 0 
5 6 0 
6 7 0 
7 8 0 
8 9 0 
9 10 0 
10 11 0 
11 12 0 
12 13 0 
13 14 0 
14 15 0 
15 16 0 
16 17 0 
17 18 0 
18 19 0 
19 20 0 
20 21 0 
21 22 0 
22 23 0 
23 24 0 
24 25 0 
25 26 0 
26 27 0 
27 28 0 
28 29 0 
29 30 0 
30 31 0 
31 32 0 
32 33 0 
33 34 0 
34 35 0 
35 36 0 
36 37 0 
37 38 0 
38 39 0 
39 40 0 
40 41 0 
41 42 0 
42 43 0 
43 44 0 
44 45 0 
45 46 0 
46 47 0 
47 48 0 
48 49 0 
49 50 0 
50 51 0 
51 52 0 
52 53 0 
53 54 0 
54 55 0 
55 56 0 
56 57 0 
57 58 0 
58 59 0 
59 60 0 
60 61 0 
61 62 0 
62 63 0 
63 64 0 
64 65 0 
65 66 0 
66 67 0 
67 68 0 
68 69 0 
69 70 0 
70 71 0 
71 72 0 
72 73 0 
73 74 0 
74 75 0 
75 76 0 
76 77 0 
77 78 0 
78 79 0 
79 80 0 
80 81 0 
81 82 0 
82 83 0 
83 84 0 
84 85 0 
85 86 0 
86 87 0 
87 88 0 
88 89 0 
89 90 0 
90 91 0 
91 92 0 
92 93 0 
93 94 0 
94 95 0 
95 96 0 
96 97 0 
97 98 0 
98 99 0 
99 100 0 
100 101 0 
101 102 0 
102 103 0 
103 104 0 
104 105 0 
105 106 0 
106 107 0 
107 108 0 
108 109 0 
109 110 0 
110 111 0 
111 112 0 
112 113 0 
113 114 0 
114 115 0 
115 116 0 
116 117 0 
117 118 0 
118 119 0 
119 120 0 
120 121 0 
121 122 0 
122 123 0 
123 124 0 
124 125 0 
125 126 0 
126 127 0 
127 128 0 
128 129 0 
129 130 0 
130 131 0 
131 132 0 
132 133 0 
133 134 0 
134 135 0 
135 136 0 
136 137 0 
137 138 0 
138 139 0 
139 140 0 
140 141 0 
141 142 0 
142 143 0 
143 144 0 
144 145 0 
145 146 0 
146 147 0 
147 148 0 
148 149 0 
149 150 0 
150 151 0 
151 152 0 
152 153 0 
153 154 0 
154 155 0 
155 156 0 
156 157 0 
157 158 0 
158 159 0 
159 160 0 
160 161 0 
161 162 0 
162 163 0 
163 164 0 
164 165 0 
165 166 0 
166 167 0 
167 168 0 
168 169 0 
169 170 0 
170 171 0 
171 172 0 
172 173 0 
173 174 0 
174 175 0 
175 176 0 
176 177 0 
177 178 0 
178 179 0 
179 180 0 
180 181 0 
181 182 0 
182 183 0 
183 184 0 
184 185 0 
185 186 0 
186 187 0 
187 188 0 
188 189 0 
189 190 0 
190 191 0 
191 192 0 
192 193 0 
193 194 0 
194 195 0 
195 196 0 
196 197 0 
197 198 0 
198 199 0 
199 200 0 
200 201 0 
201 202 0 
202 203 0 
203 204 0 
204 205 0 
205 206 0 
206 207 0 
207 208 0 
208 209 0 
209 210 0 
210 211 0 
211 212 0 
212 213 0 
213 214 0 
214 215 0 
215 216 0 
216 217 0 
217 218 0 
218 219 0 
219 220 0 
220 221 0 
221 222 0 
222 223 0 
223 224 0 
224 225 0 
225 226 0 
226 227 0 
227 228 0 
228 229 0 
229 230 0 
230 231 0 
231 232 0 
232 233 0 
233 234 0 
234 235 0 
235 236 0 
236 237 0 
237 238 0 
238 239 0 
239 240 0 
240 241 0 
241 242 0 
242 243 0 
243 244 0 
244 245 0 
245 246 0 
246 247 0 
247 248 0 
248 249 0 
249 250 0 
250 251 0 
251 252 0 
252 253 0 
253 254 0 
254 255 0 
255 256 0 
256 257 0 
257 258 0 
258 259 0 
259 260 0 
260 261 0 
261 262 0 
262 263 0 
263 264 0 
264 265 0 
265 266 0 
266 267 0 
267 268 0 
268 269 0 
269 270 0 
270 271 0 
271 272 0 
272 273 0 
273 274 0 
274 275 0 
275 276 0 
276 277 0 
277 278 0 
278 279 0 
279 280 0 
280 281 0 
281 282 0 
282 283 0 
283 284 0 
284 285 0 
285 286 0 
286 287 0 
287 288 0 
288 289 0 
289 290 0 
290 291 0 
291 292 0 
292 293 0 
293 294 0 
294 295 0 
295 296 0 
296 297 0 
297 298 0 
298 299 0 
-1 -1 0 
-1 300 0 1 2 3 4 5 6 7 8 9 10 11 12 13 14 15 16 17 18 19 20 21 22 23 24 25 26 27 28 29 30 31 32 33 34 35 36 37 38 39 40 41 42 43 44 45 46 47 48 49 50 51 52 53 54 55 56 57 58 59 60 61 62 63 64 65 66 67 68 69 70 71 72 73 74 75 76 77 78 79 80 81 82 83 84 85 86 87 88 89 90 91 92 93 94 95 96 97 98 99 100 101 102 103 104 105 106 107 108 109 110 111 112 113 114 115 116 117 118 119 120 121 122 123 124 125 126 127 128 129 130 131 132 133 134 135 136 137 138 139 140 141 142 143 144 145 146 147 148 149 150 151 152 153 154 155 156 157 158 159 160 161 162 163 164 165 166 167 168 169 170 171 172 173 174 175 176 177 178 179 180 181 182 183 184 185 186 187 188 189 190 191 192 193 194 195 196 197 198 199 200 201 202 203 204 205 206 207 208 209 210 211 212 213 214 215 216 217 218 219 220 221 222 223 224 225 226 227 228 229 230 231 232 233 234 235 236 237 238 239 240 241 242 243 244 245 246 247 248 249 250 251 252 253 254 255 256 257 258 259 260 261 262 263 264 265 266 267 268 269 270 271 272 273 274 275 276 277 278 279 280 281 282 283 284 285 286 287 288 289 290 291 292 293 294 295 296 297 298 299 
