ply
format ascii 1.0
comment written by koba@oshima.lab
element vertex 300
property float x
property float y
property float z
property int label
property int attribute
property float radius
property float curvature
property float torsion
element edge 300
property int vertex1
property int vertex2
property int label
element vertex_seq 1
property int label
property list int int vertex_indices
end_header
-1.14248 27.8406 1.18212 0 0 1.5 0.0413143 0.0470181 
-1.26221 27.5841 1.05452 0 0 1.5 0.0400022 0.0504287 
-1.38194 27.3277 0.926921 0 0 1.5 0.0386763 0.054542 
-1.50168 27.0712 0.799322 0 0 1.5 0.0373306 0.0595088 
-1.62141 26.8148 0.671723 0 0 1.5 0.0345588 0.0727845 
-1.74114 26.5583 0.544124 0 0 1.5 0.0331221 0.0815876 
-1.86088 26.3019 0.416525 0 0 1.5 0.0316454 0.0923394 
-1.98061 26.0454 0.288926 0 0 1.5 0.0301248 0.105591 
-2.10034 25.789 0.161327 0 0 1.5 0.0269439 0.142271 
-2.22008 25.5326 0.0337283 0 0 1.5 0.0252837 0.167918 
-2.33981 25.2761 -0.0938707 0 0 1.5 0.0235821 0.200812 
-2.45954 25.0197 -0.22147 0 0 1.5 0.021849 0.243288 
-2.57928 24.7632 -0.349069 0 0 1.5 0.0183707 0.371219 
-2.69901 24.5068 -0.476668 0 0 1.5 0.0167006 0.466652 
-2.81874 24.2503 -0.604267 0 0 1.5 0.0151641 0.587802 
-2.93848 23.9939 -0.731865 0 0 1.5 0.0129596 0.867092 
-3.05821 23.7374 -0.859464 0 0 1.5 0.0125988 0.954149 
-3.17795 23.481 -0.987063 0 0 1.5 0.0129129 0.945769 
-3.29768 23.2245 -1.11466 0 0 1.5 0.0139296 0.847322 
-3.41741 22.9681 -1.24226 0 0 1.5 0.0177239 0.574135 
-3.53715 22.7116 -1.36986 0 0 1.5 0.0202617 0.462695 
-3.65688 22.4552 -1.49746 0 0 1.5 0.0230875 0.376587 
-3.77661 22.1987 -1.62506 0 0 1.5 0.0261249 0.312197 
-3.89635 21.9423 -1.75266 0 0 1.5 0.0326161 0.229233 
-4.01608 21.6859 -1.88026 0 0 1.5 0.0359804 0.203007 
-4.13581 21.4294 -2.00786 0 0 1.5 0.0393697 0.183734 
-4.25555 21.173 -2.13545 0 0 1.5 0.0460857 0.159895 
-4.37528 20.9165 -2.26305 0 0 1.5 0.0493423 0.153028 
-4.49501 20.6601 -2.39065 0 0 1.5 0.0524824 0.148831 
-4.61475 20.4036 -2.51825 0 0 1.5 0.0554714 0.147029 
-4.73448 20.1472 -2.64585 0 0 1.5 0.0608662 0.149163 
-4.85421 19.8907 -2.77345 0 0 1.5 0.063209 0.152944 
-4.97395 19.6343 -2.90105 0 0 1.5 0.0652791 0.158695 
-5.09368 19.3778 -3.02865 0 0 1.5 0.0670558 0.166294 
-5.21342 19.1214 -3.15625 0 0 1.5 0.0696861 0.187225 
-5.33315 18.8649 -3.28384 0 0 1.5 0.0705367 0.201251 
-5.45288 18.6085 -3.41144 0 0 1.5 0.0710933 0.217748 
-5.57262 18.352 -3.53904 0 0 1.5 0.0713893 0.23665 
-5.69235 18.0956 -3.66664 0 0 1.5 0.0714046 0.282847 
-5.81208 17.8392 -3.79424 0 0 1.5 0.07127 0.309703 
-5.93182 17.5827 -3.92184 0 0 1.5 0.0711825 0.337638 
-6.08644 17.3414 -4.03733 0 0 1.5 0.0716914 0.392187 
-6.26198 17.1095 -4.14553 0 0 1.5 0.0725919 0.414617 
-6.47801 16.9063 -4.2373 0 0 1.5 0.074141 0.430042 
-6.70538 16.7148 -4.32468 0 0 1.5 0.0764888 0.436882 
-6.94784 16.5388 -4.40619 0 0 1.5 0.0840361 0.423394 
-7.20267 16.3808 -4.48599 0 0 1.5 0.08937 0.404494 
-7.46128 16.2295 -4.56706 0 0 1.5 0.0957628 0.380618 
-7.72433 16.0888 -4.65306 0 0 1.5 0.103183 0.354402 
-7.9864 15.9528 -4.74866 0 0 1.5 0.120841 0.301354 
-8.24734 15.8194 -4.85097 0 0 1.5 0.130883 0.276884 
-8.50014 15.6875 -4.97376 0 0 1.5 0.141562 0.254758 
-8.74453 15.5544 -5.11049 0 0 1.5 0.164177 0.217876 
-8.98094 15.4203 -5.26044 0 0 1.5 0.175718 0.202922 
-9.19399 15.2819 -5.43885 0 0 1.5 0.187097 0.19009 
-9.39296 15.1416 -5.63036 0 0 1.5 0.198043 0.179196 
-9.57572 14.9988 -5.83679 0 0 1.5 0.217488 0.162375 
-9.72791 14.8533 -6.06466 0 0 1.5 0.225396 0.156113 
-9.86492 14.7071 -6.30111 0 0 1.5 0.231722 0.151137 
-9.98111 14.5604 -6.54878 0 0 1.5 0.236255 0.147345 
-10.0706 14.4149 -6.80763 0 0 1.5 0.239392 0.143092 
-10.1467 14.2707 -7.07147 0 0 1.5 0.237911 0.142618 
-10.198 14.1302 -7.34353 0 0 1.5 0.234505 0.143216 
-10.229 13.9951 -7.62081 0 0 1.5 0.2227 0.147859 
-10.2466 13.8636 -7.90141 0 0 1.5 0.214796 0.15207 
-10.2331 13.7441 -8.18761 0 0 1.5 0.205951 0.157615 
-10.2033 13.6324 -8.47515 0 0 1.5 0.19647 0.164661 
-10.1561 13.5292 -8.76411 0 0 1.5 0.176742 0.183909 
-10.0777 13.4433 -9.05177 0 0 1.5 0.167051 0.196046 
-9.98483 13.3656 -9.33709 0 0 1.5 0.15783 0.209777 
-9.87228 13.2993 -9.61872 0 0 1.5 0.149324 0.224864 
-9.73725 13.245 -9.89265 0 0 1.5 0.135443 0.255619 
-9.59216 13.1952 -10.1624 0 0 1.5 0.130581 0.268401 
-9.42972 13.1522 -10.4234 0 0 1.5 0.127434 0.277023 
-9.25748 13.1096 -10.6779 0 0 1.5 0.126228 0.279648 
-9.07836 13.0673 -10.928 0 0 1.5 0.13036 0.263282 
-8.88886 13.0182 -11.1689 0 0 1.5 0.135918 0.245479 
-8.69703 12.9654 -11.4071 0 0 1.5 0.143868 0.223828 
-8.49995 12.9002 -11.6379 0 0 1.5 0.166983 0.17731 
-8.30191 12.8243 -11.8643 0 0 1.5 0.182176 0.155151 
-8.10277 12.7362 -12.0856 0 0 1.5 0.199842 0.134879 
-7.90534 12.6266 -12.2982 0 0 1.5 0.220045 0.1168 
-7.70864 12.5087 -12.5074 0 0 1.5 0.268331 0.0860975 
-7.51854 12.357 -12.7003 0 0 1.5 0.29647 0.0730584 
-7.33207 12.1931 -12.8856 0 0 1.5 0.327203 0.0614499 
-7.15301 12.0044 -13.055 0 0 1.5 0.360307 0.0508281 
-6.9845 11.7902 -13.2017 0 0 1.5 0.431444 0.0313083 
-6.82274 11.5612 -13.3338 0 0 1.5 0.467522 0.0223131 
-6.67865 11.3021 -13.426 0 0 1.5 0.501949 0.0136495 
-6.54792 11.029 -13.4868 0 0 1.5 0.557642 -0.00270934 
-6.42962 10.7444 -13.518 0 0 1.5 0.574602 -0.0097962 
-6.33555 10.4498 -13.4903 0 0 1.5 0.581971 -0.0159248 
-6.25883 10.1596 -13.4196 0 0 1.5 0.578891 -0.0209857 
-6.19697 9.87637 -13.3122 0 0 1.5 0.542942 -0.027428 
-6.1556 9.61259 -13.1538 0 0 1.5 0.513089 -0.0287816 
-6.12941 9.3757 -12.9571 0 0 1.5 0.478126 -0.0290079 
-6.11225 9.15859 -12.7373 0 0 1.5 0.440213 -0.0283339 
-6.10661 8.97479 -12.4871 0 0 1.5 0.362757 -0.0249532 
-6.10709 8.82056 -12.2188 0 0 1.5 0.325731 -0.0223264 
-6.1108 8.68353 -11.9405 0 0 1.5 0.290819 -0.0192561 
-6.11814 8.58369 -11.6466 0 0 1.5 0.228479 -0.0119521 
-6.12542 8.49864 -11.3486 0 0 1.5 0.201124 -0.00730283 
-6.1326 8.43251 -11.0454 0 0 1.5 0.17616 -0.00181879 
-6.13726 8.38611 -10.7386 0 0 1.5 0.153405 0.00468671 
-6.14048 8.34715 -10.4307 0 0 1.5 0.113701 0.0237886 
-6.13914 8.32066 -10.1214 0 0 1.5 0.0963548 0.0388414 
-6.13432 8.29545 -9.81202 0 0 1.5 0.0804351 0.0605743 
-6.12646 8.27137 -9.5026 0 0 1.5 0.0657947 0.094339 
-6.11193 8.23664 -9.19444 0 0 1.5 0.0400478 0.257475 
-6.09433 8.1901 -8.88824 0 0 1.5 0.0290897 0.478917 
-6.07346 8.12966 -8.58455 0 0 1.5 0.0201555 0.967675 
-6.04884 8.03842 -8.28883 0 0 1.5 0.015382 1.59466 
-6.02334 7.92402 -8.0019 0 0 1.5 0.0237254 0.601118 
-5.99763 7.7898 -7.72356 0 0 1.5 0.0316557 0.315761 
-5.97265 7.6324 -7.45713 0 0 1.5 0.0399297 0.183769 
-5.9494 7.45643 -7.20265 0 0 1.5 0.0561883 0.0778028 
-5.92717 7.27147 -6.95445 0 0 1.5 0.0639508 0.0546053 
-5.90632 7.07604 -6.71412 0 0 1.5 0.0713894 0.0397676 
-5.88614 6.87431 -6.47907 0 0 1.5 0.0784546 0.0300803 
-5.86612 6.6698 -6.24635 0 0 1.5 0.0913058 0.0199452 
-5.84556 6.46148 -6.01709 0 0 1.5 0.0970019 0.0178452 
-5.82404 6.25239 -5.78861 0 0 1.5 0.102145 0.0171663 
-5.80134 6.04236 -5.56112 0 0 1.5 0.106693 0.0177014 
-5.77613 5.83187 -5.33432 0 0 1.5 0.113839 0.0220635 
-5.74987 5.62117 -5.10783 0 0 1.5 0.11637 0.0257682 
-5.7201 5.40976 -4.88244 0 0 1.5 0.118179 0.0304098 
-5.68906 5.19763 -4.65791 0 0 1.5 0.119624 0.0428514 
-5.6559 4.98433 -4.43478 0 0 1.5 0.119286 0.0507404 
-5.62118 4.76854 -4.21431 0 0 1.5 0.118279 0.0597396 
-5.58577 4.55155 -3.99513 0 0 1.5 0.116645 0.0700293 
-5.54974 4.32908 -3.7816 0 0 1.5 0.111723 0.0951653 
-5.51407 4.10401 -3.57083 0 0 1.5 0.108572 0.110135 
-5.47906 3.87409 -3.36518 0 0 1.5 0.105061 0.127013 
-5.44551 3.63797 -3.16652 0 0 1.5 0.101275 0.146103 
-5.41271 3.39871 -2.97146 0 0 1.5 0.0932448 0.190895 
-5.38201 3.14982 -2.78844 0 0 1.5 0.089194 0.21662 
-5.35166 2.89693 -2.61115 0 0 1.5 0.0852561 0.24449 
-5.32187 2.6377 -2.44295 0 0 1.5 0.0815395 0.273833 
-5.29078 2.37111 -2.28714 0 0 1.5 0.0752128 0.332013 
-5.25874 2.10113 -2.13739 0 0 1.5 0.072821 0.35741 
-5.22162 1.82306 -2.00441 0 0 1.5 0.0710771 0.377173 
-5.18011 1.54199 -1.87978 0 0 1.5 0.0698228 0.391029 
-5.13298 1.25709 -1.76578 0 0 1.5 0.0703811 0.383323 
-5.07431 0.969077 -1.66629 0 0 1.5 0.0717177 0.366723 
-5.00981 0.680225 -1.57297 0 0 1.5 0.0737839 0.343201 
-4.92974 0.39116 -1.49289 0 0 1.5 0.0797939 0.285275 
-4.83859 0.104082 -1.41863 0 0 1.5 0.0835514 0.255281 
-4.73727 -0.181169 -1.34973 0 0 1.5 0.0876855 0.226615 
-4.61558 -0.459281 -1.28514 0 0 1.5 0.0921072 0.199936 
-4.48506 -0.733143 -1.22027 0 0 1.5 0.101478 0.153504 
-4.33821 -0.998369 -1.15339 0 0 1.5 0.106278 0.133843 
-4.17671 -1.25253 -1.07905 0 0 1.5 0.111064 0.11624 
-4.00654 -1.49943 -0.9993 0 0 1.5 0.120346 0.0862315 
-3.82021 -1.72858 -0.903625 0 0 1.5 0.124729 0.0736553 
-3.6263 -1.94489 -0.795523 0 0 1.5 0.128877 0.062371 
-3.42625 -2.1508 -0.677366 0 0 1.5 0.132742 0.0521298 
-3.21751 -2.33204 -0.53608 0 0 1.5 0.139459 0.0349158 
-3.00673 -2.50294 -0.386072 0 0 1.5 0.142247 0.0278051 
-2.79328 -2.66034 -0.224679 0 0 1.5 0.144618 0.0214902 
-2.57746 -2.80063 -0.05135 0 0 1.5 0.146548 0.0160258 
-2.36043 -2.93426 0.125764 0 0 1.5 0.149023 0.00778696 
-2.14076 -3.05605 0.308241 0 0 1.5 0.149545 0.00488002 
-1.91773 -3.17184 0.490439 0 0 1.5 0.14958 0.00276946 
-1.6923 -3.28338 0.672438 0 0 1.5 0.148186 0.00100034 
-1.45874 -3.38919 0.847439 0 0 1.5 0.146762 0.0013458 
-1.2215 -3.49352 1.01817 0 0 1.5 0.144862 0.00244565 
-0.976069 -3.59506 1.17891 0 0 1.5 0.142492 0.00424391 
-0.722869 -3.6943 1.32825 0 0 1.5 0.136389 0.0101805 
-0.464956 -3.79214 1.4707 0 0 1.5 0.132683 0.014274 
-0.195021 -3.88428 1.59325 0 0 1.5 0.128566 0.0189632 
0.0789559 -3.97288 1.70874 0 0 1.5 0.124061 0.0243866 
0.359929 -4.0552 1.81198 0 0 1.5 0.113984 0.0380192 
0.647366 -4.12682 1.90437 0 0 1.5 0.108463 0.046345 
0.937941 -4.19206 1.99175 0 0 1.5 0.102655 0.0560701 
1.23403 -4.24021 2.07171 0 0 1.5 0.0965852 0.0677017 
1.5319 -4.27544 2.15091 0 0 1.5 0.0837792 0.0987021 
1.83129 -4.29952 2.22945 0 0 1.5 0.0771171 0.119992 
2.13021 -4.29774 2.31309 0 0 1.5 0.0703351 0.147476 
2.42728 -4.28422 2.40109 0 0 1.5 0.0566151 0.23364 
2.72156 -4.25448 2.4954 0 0 1.5 0.0498238 0.303642 
3.00922 -4.20511 2.60071 0 0 1.5 0.0432238 0.405098 
3.29313 -4.14734 2.71176 0 0 1.5 0.0369994 0.554272 
3.57022 -4.07694 2.83279 0 0 1.5 0.0271028 1.03598 
3.84177 -4.00034 2.96206 0 0 1.5 0.0246266 1.25699 
4.11029 -3.92066 3.09592 0 0 1.5 0.0246429 1.2585 
4.37367 -3.84003 3.23915 0 0 1.5 0.0271647 1.03909 
4.63613 -3.76233 3.38555 0 0 1.5 0.0372389 0.55804 
4.89738 -3.68851 3.53615 0 0 1.5 0.0435968 0.409562 
5.15916 -3.62537 3.69052 0 0 1.5 0.0503587 0.308962 
5.4214 -3.56783 3.84628 0 0 1.5 0.0643912 0.191556 
5.68542 -3.52621 4.0042 0 0 1.5 0.0714433 0.156717 
5.95046 -3.4959 4.16261 0 0 1.5 0.0784249 0.131067 
6.21648 -3.47649 4.32149 0 0 1.5 0.085283 0.111715 
6.48298 -3.47798 4.48052 0 0 1.5 0.0984394 0.0851611 
6.74914 -3.48831 4.63967 0 0 1.5 0.104653 0.0760093 
7.01396 -3.5171 4.79912 0 0 1.5 0.110571 0.0687272 
7.27603 -3.56014 4.95947 0 0 1.5 0.116159 0.0628815 
7.5363 -3.61245 5.12042 0 0 1.5 0.12622 0.0545322 
7.78934 -3.68639 5.28435 0 0 1.5 0.13066 0.0516335 
8.03864 -3.76802 5.45002 0 0 1.5 0.134691 0.0493758 
8.28133 -3.86291 5.61877 0 0 1.5 0.141516 0.0464008 
8.51481 -3.9713 5.79202 0 0 1.5 0.144328 0.045528 
8.74327 -4.08648 5.96773 0 0 1.5 0.146758 0.0449851 
8.95887 -4.21601 6.14972 0 0 1.5 0.148827 0.0446875 
9.16685 -4.35217 6.33537 0 0 1.5 0.151993 0.0445615 
9.36697 -4.49519 6.5248 0 0 1.5 0.153149 0.0446752 
9.55356 -4.64785 6.72028 0 0 1.5 0.154061 0.0448156 
9.73459 -4.80416 6.91805 0 0 1.5 0.154757 0.044904 
9.90437 -4.96754 7.12021 0 0 1.5 0.155603 0.0448654 
10.0661 -5.13603 7.32458 0 0 1.5 0.155792 0.0446717 
10.2225 -5.30794 7.53044 0 0 1.5 0.155843 0.0442926 
10.3675 -5.48861 7.73712 0 0 1.5 0.155763 0.043723 
10.5085 -5.67314 7.94298 0 0 1.5 0.155202 0.0420116 
10.642 -5.86533 8.14697 0 0 1.5 0.154707 0.0408826 
10.7685 -6.06682 8.34625 0 0 1.5 0.154052 0.0395736 
10.891 -6.27364 8.54266 0 0 1.5 0.152188 0.0364495 
11.0028 -6.49621 8.72798 0 0 1.5 0.150936 0.0346996 
11.1088 -6.7269 8.90615 0 0 1.5 0.14944 0.0328315 
11.2075 -6.9678 9.07532 0 0 1.5 0.147677 0.03084 
11.2926 -7.22431 9.22768 0 0 1.5 0.14327 0.0267619 
11.3703 -7.48796 9.37127 0 0 1.5 0.140605 0.0247231 
11.4343 -7.76357 9.49904 0 0 1.5 0.137624 0.0226599 
11.4834 -8.04809 9.61212 0 0 1.5 0.134324 0.0206273 
11.5235 -8.3375 9.71667 0 0 1.5 0.126806 0.0167935 
11.5424 -8.63486 9.80384 0 0 1.5 0.122618 0.0149458 
11.5494 -8.93455 9.8832 0 0 1.5 0.118167 0.0131646 
11.5439 -9.23667 9.95445 0 0 1.5 0.108592 0.00987349 
11.5171 -9.53985 10.015 0 0 1.5 0.103529 0.00832198 
11.4816 -9.84281 10.0718 0 0 1.5 0.0983238 0.00682394 
11.4278 -10.1445 10.1217 0 0 1.5 0.0930102 0.00537924 
11.3739 -10.4461 10.1716 0 0 1.5 0.0821951 0.00258185 
11.3201 -10.7478 10.2215 0 0 1.5 0.0767574 0.00118628 
11.2662 -11.0494 10.2714 0 0 1.5 0.0713394 -0.000245775 
11.2124 -11.3511 10.3213 0 0 1.5 0.0659694 -0.00173706 
11.1586 -11.6527 10.3713 0 0 1.5 0.0554794 -0.00503948 
11.1047 -11.9544 10.4212 0 0 1.5 0.0504046 -0.00701376 
11.0509 -12.256 10.4711 0 0 1.5 0.0454693 -0.00931481 
10.997 -12.5577 10.521 0 0 1.5 0.0406931 -0.0120492 
10.9432 -12.8593 10.5709 0 0 1.5 0.0316895 -0.0197835 
10.8894 -13.161 10.6208 0 0 1.5 0.0274933 -0.0255443 
10.8355 -13.4626 10.6707 0 0 1.5 0.0235249 -0.0333863 
10.7817 -13.7642 10.7206 0 0 1.5 0.0163577 -0.0613326 
10.7278 -14.0659 10.7705 0 0 1.5 0.0132129 -0.0875368 
10.674 -14.3675 10.8205 0 0 1.5 0.0104278 -0.129765 
10.6201 -14.6692 10.8704 0 0 1.5 0.00810257 -0.197179 
10.5663 -14.9708 10.9203 0 0 1.5 0.00558071 -0.34512 
10.5125 -15.2725 10.9702 0 0 1.5 0.00568327 -0.300869 
10.4586 -15.5741 11.0201 0 0 1.5 0.00643107 -0.211573 
10.4048 -15.8758 11.07 0 0 1.5 0.00745202 -0.141517 
10.3509 -16.1774 11.1199 0 0 1.5 0.00949573 -0.0696771 
10.2971 -16.4791 11.1698 0 0 1.5 0.0103478 -0.0522616 
10.2433 -16.7807 11.2197 0 0 1.5 0.0110455 -0.0408078 
10.1894 -17.0824 11.2697 0 0 1.5 0.0119553 -0.0274669 
10.1356 -17.384 11.3196 0 0 1.5 0.0121725 -0.023505 
10.0817 -17.6857 11.3695 0 0 1.5 0.0122416 -0.0206389 
10.0279 -17.9873 11.4194 0 0 1.5 0.0121739 -0.0185554 
9.97405 -18.289 11.4693 0 0 1.5 0.0116783 -0.0160007 
9.92021 -18.5906 11.5192 0 0 1.5 0.0112761 -0.0153282 
9.86637 -18.8923 11.5691 0 0 1.5 0.0107878 -0.014982 
9.81253 -19.1939 11.619 0 0 1.5 0.0102266 -0.0149315 
9.75868 -19.4956 11.6689 0 0 1.5 0.00893738 -0.0157828 
9.70484 -19.7972 11.7189 0 0 1.5 0.00823387 -0.0167658 
9.651 -20.0989 11.7688 0 0 1.5 0.00750762 -0.0182024 
9.59716 -20.4005 11.8187 0 0 1.5 0.00603348 -0.0231071 
9.54332 -20.7022 11.8686 0 0 1.5 0.00530603 -0.0271431 
9.48948 -21.0038 11.9185 0 0 1.5 0.00459938 -0.0328378 
9.43564 -21.3055 11.9684 0 0 1.5 0.00392511 -0.0410407 
9.3818 -21.6071 12.0183 0 0 1.5 0.00272337 -0.0711178 
9.32795 -21.9088 12.0682 0 0 1.5 0.00223265 -0.096748 
9.27411 -22.2104 12.1181 0 0 1.5 0.0018534 -0.128534 
9.22027 -22.5121 12.1681 0 0 1.5 0.00162193 -0.154124 
9.16643 -22.8137 12.218 0 0 1.5 0.00164862 -0.126419 
9.11259 -23.1154 12.2679 0 0 1.5 0.00183117 -0.094567 
9.05875 -23.417 12.3178 0 0 1.5 0.00205642 -0.0694641 
9.00491 -23.7187 12.3677 0 0 1.5 0.00229075 -0.0520078 
8.95107 -24.0203 12.4176 0 0 1.5 0.00271906 -0.0320742 
8.89722 -24.322 12.4675 0 0 1.5 0.00289816 -0.0264885 
8.84338 -24.6236 12.5174 0 0 1.5 0.00305071 -0.0225179 
8.78954 -24.9253 12.5674 0 0 1.5 0.00327666 -0.0174682 
8.7357 -25.2269 12.6173 0 0 1.5 0.00335223 -0.0158715 
8.68186 -25.5286 12.6672 0 0 1.5 0.00340509 -0.0146669 
8.62802 -25.8302 12.7171 0 0 1.5 0.0034372 -0.0137424 
8.57418 -26.1319 12.767 0 0 1.5 0.00344786 -0.0125233 
8.52034 -26.4335 12.8169 0 0 1.5 0.00343103 -0.0121386 
8.46649 -26.7352 12.8668 0 0 1.5 0.00340263 -0.0118433 
8.41265 -27.0368 12.9167 0 0 1.5 0.00336498 -0.0116216 
8.35881 -27.3385 12.9666 0 0 1.5 0.00326931 -0.0113557 
8.30497 -27.6401 13.0166 0 0 1.5 0.00321488 -0.0112614 
8.25113 -27.9418 13.0665 0 0 1.5 0.00315831 -0.0111805 
8.19729 -28.2434 13.1164 0 0 1.5 0.00304308 -0.0110567 
8.14345 -28.5451 13.1663 0 0 1.5 0.00298639 -0.0109841 
8.08961 -28.8467 13.2162 0 0 1.5 0.0029315 -0.0109033 
8.03576 -29.1484 13.2661 0 0 1.5 0.0028788 -0.0108268 
7.98192 -29.45 13.316 0 0 1.5 0.00278096 -0.0106695 
7.92808 -29.7517 13.3659 0 0 1.5 0.0027363 -0.0105937 
7.87424 -30.0533 13.4158 0 0 1.5 0.00269445 -0.0105384 
7.8204 -30.355 13.4658 0 0 1.5 0.00265523 -0.0105072 
7.76656 -30.6566 13.5157 0 0 1.5 0.00258419 -0.0105356 
7.71272 -30.9583 13.5656 0 0 1.5 0.002552 -0.0106138 
7.65888 -31.2599 13.6155 0 0 1.5 0.00252173 -0.010744 
0 1 0 
1 2 0 
2 3 0 
3 4 0 
4 5 0 
5 6 0 
6 7 0 
7 8 0 
8 9 0 
9 10 0 
10 11 0 
11 12 0 
12 13 0 
13 14 0 
14 15 0 
15 16 0 
16 17 0 
17 18 0 
18 19 0 
19 20 0 
20 21 0 
21 22 0 
22 23 0 
23 24 0 
24 25 0 
25 26 0 
26 27 0 
27 28 0 
28 29 0 
29 30 0 
30 31 0 
31 32 0 
32 33 0 
33 34 0 
34 35 0 
35 36 0 
36 37 0 
37 38 0 
38 39 0 
39 40 0 
40 41 0 
41 42 0 
42 43 0 
43 44 0 
44 45 0 
45 46 0 
46 47 0 
47 48 0 
48 49 0 
49 50 0 
50 51 0 
51 52 0 
52 53 0 
53 54 0 
54 55 0 
55 56 0 
56 57 0 
57 58 0 
58 59 0 
59 60 0 
60 61 0 
61 62 0 
62 63 0 
63 64 0 
64 65 0 
65 66 0 
66 67 0 
67 68 0 
68 69 0 
69 70 0 
70 71 0 
71 72 0 
72 73 0 
73 74 0 
74 75 0 
75 76 0 
76 77 0 
77 78 0 
78 79 0 
79 80 0 
80 81 0 
81 82 0 
82 83 0 
83 84 0 
84 85 0 
85 86 0 
86 87 0 
87 88 0 
88 89 0 
89 90 0 
90 91 0 
91 92 0 
92 93 0 
93 94 0 
94 95 0 
95 96 0 
96 97 0 
97 98 0 
98 99 0 
99 100 0 
100 101 0 
101 102 0 
102 103 0 
103 104 0 
104 105 0 
105 106 0 
106 107 0 
107 108 0 
108 109 0 
109 110 0 
110 111 0 
111 112 0 
112 113 0 
113 114 0 
114 115 0 
115 116 0 
116 117 0 
117 118 0 
118 119 0 
119 120 0 
120 121 0 
121 122 0 
122 123 0 
123 124 0 
124 125 0 
125 126 0 
126 127 0 
127 128 0 
128 129 0 
129 130 0 
130 131 0 
131 132 0 
132 133 0 
133 134 0 
134 135 0 
135 136 0 
136 137 0 
137 138 0 
138 139 0 
139 140 0 
140 141 0 
141 142 0 
142 143 0 
143 144 0 
144 145 0 
145 146 0 
146 147 0 
147 148 0 
148 149 0 
149 150 0 
150 151 0 
151 152 0 
152 153 0 
153 154 0 
154 155 0 
155 156 0 
156 157 0 
157 158 0 
158 159 0 
159 160 0 
160 161 0 
161 162 0 
162 163 0 
163 164 0 
164 165 0 
165 166 0 
166 167 0 
167 168 0 
168 169 0 
169 170 0 
170 171 0 
171 172 0 
172 173 0 
173 174 0 
174 175 0 
175 176 0 
176 177 0 
177 178 0 
178 179 0 
179 180 0 
180 181 0 
181 182 0 
182 183 0 
183 184 0 
184 185 0 
185 186 0 
186 187 0 
187 188 0 
188 189 0 
189 190 0 
190 191 0 
191 192 0 
192 193 0 
193 194 0 
194 195 0 
195 196 0 
196 197 0 
197 198 0 
198 199 0 
199 200 0 
200 201 0 
201 202 0 
202 203 0 
203 204 0 
204 205 0 
205 206 0 
206 207 0 
207 208 0 
208 209 0 
209 210 0 
210 211 0 
211 212 0 
212 213 0 
213 214 0 
214 215 0 
215 216 0 
216 217 0 
217 218 0 
218 219 0 
219 220 0 
220 221 0 
221 222 0 
222 223 0 
223 224 0 
224 225 0 
225 226 0 
226 227 0 
227 228 0 
228 229 0 
229 230 0 
230 231 0 
231 232 0 
232 233 0 
233 234 0 
234 235 0 
235 236 0 
236 237 0 
237 238 0 
238 239 0 
239 240 0 
240 241 0 
241 242 0 
242 243 0 
243 244 0 
244 245 0 
245 246 0 
246 247 0 
247 248 0 
248 249 0 
249 250 0 
250 251 0 
251 252 0 
252 253 0 
253 254 0 
254 255 0 
255 256 0 
256 257 0 
257 258 0 
258 259 0 
259 260 0 
260 261 0 
261 262 0 
262 263 0 
263 264 0 
264 265 0 
265 266 0 
266 267 0 
267 268 0 
268 269 0 
269 270 0 
270 271 0 
271 272 0 
272 273 0 
273 274 0 
274 275 0 
275 276 0 
276 277 0 
277 278 0 
278 279 0 
279 280 0 
280 281 0 
281 282 0 
282 283 0 
283 284 0 
284 285 0 
285 286 0 
286 287 0 
287 288 0 
288 289 0 
289 290 0 
290 291 0 
291 292 0 
292 293 0 
293 294 0 
294 295 0 
295 296 0 
296 297 0 
297 298 0 
298 299 0 
-1 -1 0 
-1 300 0 1 2 3 4 5 6 7 8 9 10 11 12 13 14 15 16 17 18 19 20 21 22 23 24 25 26 27 28 29 30 31 32 33 34 35 36 37 38 39 40 41 42 43 44 45 46 47 48 49 50 51 52 53 54 55 56 57 58 59 60 61 62 63 64 65 66 67 68 69 70 71 72 73 74 75 76 77 78 79 80 81 82 83 84 85 86 87 88 89 90 91 92 93 94 95 96 97 98 99 100 101 102 103 104 105 106 107 108 109 110 111 112 113 114 115 116 117 118 119 120 121 122 123 124 125 126 127 128 129 130 131 132 133 134 135 136 137 138 139 140 141 142 143 144 145 146 147 148 149 150 151 152 153 154 155 156 157 158 159 160 161 162 163 164 165 166 167 168 169 170 171 172 173 174 175 176 177 178 179 180 181 182 183 184 185 186 187 188 189 190 191 192 193 194 195 196 197 198 199 200 201 202 203 204 205 206 207 208 209 210 211 212 213 214 215 216 217 218 219 220 221 222 223 224 225 226 227 228 229 230 231 232 233 234 235 236 237 238 239 240 241 242 243 244 245 246 247 248 249 250 251 252 253 254 255 256 257 258 259 260 261 262 263 264 265 266 267 268 269 270 271 272 273 274 275 276 277 278 279 280 281 282 283 284 285 286 287 288 289 290 291 292 293 294 295 296 297 298 299 
