ply
format ascii 1.0
comment written by koba@oshima.lab
element vertex 300
property float x
property float y
property float z
property int label
property int attribute
property float radius
property float curvature
property float torsion
element edge 300
property int vertex1
property int vertex2
property int label
element vertex_seq 1
property int label
property list int int vertex_indices
end_header
7.9277 25.2631 -1.06971 0 0 1.5 0.0115282 0.0737911 
7.6836 25.0479 -1.1732 0 0 1.5 0.0111011 0.080867 
7.43949 24.8328 -1.27668 0 0 1.5 0.010671 0.0900284 
7.19539 24.6176 -1.38017 0 0 1.5 0.0102336 0.101842 
6.95128 24.4025 -1.48365 0 0 1.5 0.00932445 0.136625 
6.70718 24.1873 -1.58714 0 0 1.5 0.00884878 0.161858 
6.46307 23.9722 -1.69062 0 0 1.5 0.00835924 0.194574 
6.21897 23.757 -1.79411 0 0 1.5 0.00785945 0.237166 
5.97487 23.5419 -1.89759 0 0 1.5 0.00686839 0.362029 
5.73076 23.3267 -2.00108 0 0 1.5 0.00641577 0.448168 
5.48666 23.1116 -2.10456 0 0 1.5 0.00603583 0.547131 
5.24255 22.8964 -2.20804 0 0 1.5 0.00577848 0.64398 
4.99845 22.6813 -2.31153 0 0 1.5 0.00586005 0.723619 
4.75434 22.4661 -2.41501 0 0 1.5 0.00628123 0.676008 
4.51024 22.251 -2.5185 0 0 1.5 0.00696426 0.589039 
4.26614 22.0358 -2.62198 0 0 1.5 0.00899703 0.402353 
4.02203 21.8206 -2.72547 0 0 1.5 0.0102753 0.329205 
3.77793 21.6055 -2.82895 0 0 1.5 0.0116868 0.271327 
3.53382 21.3903 -2.93244 0 0 1.5 0.0132027 0.226329 
3.28972 21.1752 -3.03592 0 0 1.5 0.0164466 0.16557 
3.04561 20.96 -3.13941 0 0 1.5 0.0181303 0.145302 
2.80151 20.7449 -3.24289 0 0 1.5 0.0198236 0.129526 
2.55741 20.5297 -3.34638 0 0 1.5 0.0215014 0.117411 
2.3133 20.3146 -3.44986 0 0 1.5 0.024713 0.101487 
2.0692 20.0994 -3.55335 0 0 1.5 0.0261924 0.0965242 
1.82509 19.8843 -3.65683 0 0 1.5 0.0275474 0.0933123 
1.58099 19.6691 -3.76032 0 0 1.5 0.0297648 0.0917078 
1.33688 19.454 -3.8638 0 0 1.5 0.0305674 0.0928595 
1.09278 19.2388 -3.96729 0 0 1.5 0.0311261 0.0955264 
0.848676 19.0237 -4.07077 0 0 1.5 0.0314123 0.100073 
0.604571 18.8085 -4.17426 0 0 1.5 0.0310671 0.115503 
0.360467 18.5934 -4.27774 0 0 1.5 0.0303962 0.1277 
0.116363 18.3782 -4.38123 0 0 1.5 0.0293714 0.144743 
-0.127741 18.1631 -4.48471 0 0 1.5 0.0279836 0.168398 
-0.371846 17.9479 -4.5882 0 0 1.5 0.0241489 0.250217 
-0.61595 17.7328 -4.69168 0 0 1.5 0.0217477 0.324947 
-0.860054 17.5176 -4.79517 0 0 1.5 0.0190972 0.444097 
-1.10416 17.3025 -4.89865 0 0 1.5 0.0163324 0.639965 
-1.35256 17.0772 -4.96202 0 0 1.5 0.0117821 1.38377 
-1.60129 16.851 -5.02102 0 0 1.5 0.0113522 1.59563 
-1.85082 16.6196 -5.04926 0 0 1.5 0.0129995 1.31069 
-2.10026 16.3878 -5.07326 0 0 1.5 0.0209853 0.599818 
-2.34931 16.1543 -5.0799 0 0 1.5 0.0262925 0.423454 
-2.59826 15.9207 -5.08269 0 0 1.5 0.0321065 0.317288 
-2.84706 15.6869 -5.07901 0 0 1.5 0.0382938 0.251338 
-3.09633 15.4536 -5.07641 0 0 1.5 0.0514753 0.180675 
-3.34592 15.2206 -5.07451 0 0 1.5 0.0583561 0.161231 
-3.59705 14.9896 -5.08689 0 0 1.5 0.0653644 0.147856 
-3.84862 14.7605 -5.11095 0 0 1.5 0.0724549 0.138834 
-4.1008 14.5346 -5.15515 0 0 1.5 0.0867108 0.12804 
-4.35022 14.317 -5.23764 0 0 1.5 0.0937887 0.124965 
-4.5944 14.1077 -5.34916 0 0 1.5 0.10077 0.123159 
-4.83171 13.9079 -5.49123 0 0 1.5 0.114249 0.121281 
-5.05302 13.7243 -5.67531 0 0 1.5 0.120653 0.120829 
-5.26247 13.549 -5.8794 0 0 1.5 0.126765 0.120752 
-5.46303 13.3791 -6.09721 0 0 1.5 0.132534 0.120764 
-5.64965 13.2134 -6.33022 0 0 1.5 0.142859 0.120394 
-5.82943 13.0455 -6.56688 0 0 1.5 0.147324 0.120172 
-6.00328 12.8756 -6.8067 0 0 1.5 0.151269 0.119867 
-6.1676 12.696 -7.04605 0 0 1.5 0.154661 0.119404 
-6.32889 12.5128 -7.28471 0 0 1.5 0.159685 0.11833 
-6.47957 12.3153 -7.51894 0 0 1.5 0.161291 0.117879 
-6.62483 12.1113 -7.75077 0 0 1.5 0.162298 0.117568 
-6.76 11.8954 -7.97812 0 0 1.5 0.16262 0.117611 
-6.88302 11.669 -8.20178 0 0 1.5 0.162011 0.118167 
-6.99695 11.4349 -8.42267 0 0 1.5 0.160967 0.119241 
-7.08756 11.1881 -8.64015 0 0 1.5 0.159564 0.120884 
-7.16961 10.9375 -8.85677 0 0 1.5 0.156038 0.12613 
-7.21716 10.6772 -9.07254 0 0 1.5 0.154135 0.129813 
-7.24639 10.4158 -9.28913 0 0 1.5 0.152317 0.134197 
-7.2477 10.1529 -9.50698 0 0 1.5 0.150728 0.139251 
-7.21026 9.89579 -9.72733 0 0 1.5 0.148914 0.150514 
-7.15404 9.64259 -9.94875 0 0 1.5 0.149092 0.15613 
-7.05205 9.4052 -10.172 0 0 1.5 0.15028 0.161331 
-6.93026 9.17822 -10.3947 0 0 1.5 0.152704 0.165607 
-6.78413 8.96406 -10.6169 0 0 1.5 0.162257 0.169599 
-6.6136 8.76599 -10.8359 0 0 1.5 0.169876 0.169083 
-6.43402 8.57388 -11.0537 0 0 1.5 0.179715 0.1669 
-6.23249 8.39635 -11.2644 0 0 1.5 0.207037 0.158409 
-6.02811 8.22031 -11.4737 0 0 1.5 0.225008 0.152966 
-5.80897 8.04999 -11.6726 0 0 1.5 0.246172 0.147262 
-5.58732 7.87881 -11.8677 0 0 1.5 0.270753 0.141585 
-5.35654 7.70449 -12.0492 0 0 1.5 0.330748 0.131025 
-5.12236 7.52464 -12.2199 0 0 1.5 0.366119 0.126431 
-4.88285 7.33612 -12.3738 0 0 1.5 0.404661 0.122423 
-4.63985 7.13228 -12.498 0 0 1.5 0.445578 0.118809 
-4.39541 6.91819 -12.6005 0 0 1.5 0.528295 0.112012 
-4.15371 6.68045 -12.641 0 0 1.5 0.565273 0.10873 
-3.92608 6.43133 -12.6155 0 0 1.5 0.59521 0.105249 
-3.72192 6.18115 -12.5192 0 0 1.5 0.621781 0.0973436 
-3.55117 5.94211 -12.3492 0 0 1.5 0.614782 0.0933528 
-3.42751 5.73454 -12.1079 0 0 1.5 0.594474 0.0895617 
-3.34707 5.56801 -11.8228 0 0 1.5 0.562939 0.0862035 
-3.29336 5.43109 -11.5167 0 0 1.5 0.478695 0.0821404 
-3.2638 5.32274 -11.1942 0 0 1.5 0.432376 0.0819433 
-3.26449 5.25717 -10.8595 0 0 1.5 0.386588 0.0832725 
-3.27623 5.20956 -10.5223 0 0 1.5 0.342905 0.0863158 
-3.30313 5.18738 -10.1827 0 0 1.5 0.265165 0.0986542 
-3.34247 5.19055 -9.84386 0 0 1.5 0.23165 0.108995 
-3.387 5.20528 -9.50578 0 0 1.5 0.201625 0.12301 
-3.43875 5.23957 -9.17003 0 0 1.5 0.151193 0.166482 
-3.49161 5.28084 -8.83528 0 0 1.5 0.130335 0.199523 
-3.54511 5.32694 -8.50122 0 0 1.5 0.112155 0.243019 
-3.59495 5.3717 -8.16641 0 0 1.5 0.0965926 0.298892 
-3.64069 5.40864 -7.83017 0 0 1.5 0.0737197 0.440714 
-3.68242 5.43775 -7.49257 0 0 1.5 0.0669129 0.502904 
-3.7145 5.4413 -7.15265 0 0 1.5 0.0635186 0.529361 
-3.7416 5.42766 -6.81298 0 0 1.5 0.0634972 0.50628 
-3.76418 5.39843 -6.47354 0 0 1.5 0.0716989 0.369166 
-3.77965 5.33532 -6.13834 0 0 1.5 0.078603 0.298672 
-3.79356 5.25894 -5.80624 0 0 1.5 0.0866029 0.240163 
-3.80525 5.16348 -5.47861 0 0 1.5 0.0952818 0.194026 
-3.81676 5.04655 -5.15829 0 0 1.5 0.113499 0.131985 
-3.8283 4.92164 -4.84076 0 0 1.5 0.122604 0.111675 
-3.84258 4.77207 -4.53415 0 0 1.5 0.131454 0.096089 
-3.85828 4.61611 -4.23105 0 0 1.5 0.14766 0.0755245 
-3.87781 4.44303 -3.93737 0 0 1.5 0.154678 0.0692119 
-3.90084 4.25879 -3.65117 0 0 1.5 0.16075 0.0648897 
-3.92749 4.06298 -3.37272 0 0 1.5 0.16572 0.0623167 
-3.96014 3.85071 -3.10764 0 0 1.5 0.171916 0.0618278 
-3.99515 3.63192 -2.84785 0 0 1.5 0.173004 0.063741 
-4.03877 3.39038 -2.61055 0 0 1.5 0.172728 0.0669817 
-4.08482 3.14218 -2.38122 0 0 1.5 0.171136 0.0714819 
-4.13705 2.87702 -2.17252 0 0 1.5 0.164402 0.0845858 
-4.19304 2.59996 -1.98189 0 0 1.5 0.15954 0.0932352 
-4.25171 2.3144 -1.80412 0 0 1.5 0.153909 0.103191 
-4.31349 2.01392 -1.65447 0 0 1.5 0.141102 0.127648 
-4.37542 1.70927 -1.5138 0 0 1.5 0.1343 0.142258 
-4.43708 1.39628 -1.39204 0 0 1.5 0.127465 0.158334 
-4.49635 1.07917 -1.28062 0 0 1.5 0.12076 0.175877 
-4.5539 0.759045 -1.17671 0 0 1.5 0.108322 0.214468 
-4.60487 0.435346 -1.08085 0 0 1.5 0.102847 0.234286 
-4.6534 0.110853 -0.986395 0 0 1.5 0.0980111 0.253314 
-4.69273 -0.21529 -0.893286 0 0 1.5 0.0939063 0.27037 
-4.72685 -0.541486 -0.798574 0 0 1.5 0.0881406 0.293549 
-4.75263 -0.867769 -0.701306 0 0 1.5 0.08653 0.297662 
-4.76817 -1.19319 -0.599479 0 0 1.5 0.085754 0.296154 
-4.77754 -1.51809 -0.494902 0 0 1.5 0.0857656 0.289593 
-4.77047 -1.8407 -0.383514 0 0 1.5 0.0878367 0.26588 
-4.7587 -2.16259 -0.270426 0 0 1.5 0.0897033 0.251093 
-4.72715 -2.48116 -0.151648 0 0 1.5 0.0919854 0.236043 
-4.6878 -2.79829 -0.0319464 0 0 1.5 0.097412 0.208627 
-4.63227 -3.11248 0.0896686 0 0 1.5 0.100381 0.197095 
-4.56241 -3.42385 0.210444 0 0 1.5 0.103416 0.187278 
-4.4813 -3.73301 0.330561 0 0 1.5 0.10646 0.179169 
-4.37922 -4.03753 0.445896 0 0 1.5 0.112382 0.167805 
-4.27106 -4.34069 0.559757 0 0 1.5 0.115182 0.164193 
-4.13712 -4.63698 0.663986 0 0 1.5 0.117845 0.161535 
-3.99682 -4.93107 0.765193 0 0 1.5 0.120362 0.159693 
-3.8372 -5.21854 0.857231 0 0 1.5 0.124928 0.157749 
-3.66618 -5.50083 0.943432 0 0 1.5 0.126976 0.156922 
-3.48219 -5.77724 1.02299 0 0 1.5 0.128869 0.155973 
-3.28268 -6.04434 1.09556 0 0 1.5 0.132194 0.153147 
-3.07601 -6.30714 1.16491 0 0 1.5 0.133627 0.150641 
-2.85071 -6.55532 1.2295 0 0 1.5 0.134902 0.147241 
-2.62093 -6.79937 1.29389 0 0 1.5 0.136009 0.142904 
-2.37557 -7.02737 1.36021 0 0 1.5 0.137654 0.131133 
-2.12422 -7.24682 1.43133 0 0 1.5 0.13815 0.123602 
-1.86402 -7.4536 1.50957 0 0 1.5 0.138391 0.114945 
-1.59665 -7.64319 1.60396 0 0 1.5 0.138346 0.105333 
-1.32616 -7.82392 1.70713 0 0 1.5 0.137289 0.0836048 
-1.05282 -7.97892 1.84072 0 0 1.5 0.136226 0.0713104 
-0.782286 -8.11995 1.99209 0 0 1.5 0.134779 0.058309 
-0.514954 -8.24505 2.16376 0 0 1.5 0.130711 0.0307304 
-0.260333 -8.34387 2.36807 0 0 1.5 0.128101 0.0157299 
-0.012746 -8.43191 2.58521 0 0 1.5 0.125126 0.000111603 
0.221677 -8.50188 2.8234 0 0 1.5 0.121817 -0.0158472 
0.444777 -8.55958 3.07488 0 0 1.5 0.114357 -0.0498116 
0.661804 -8.6107 3.33347 0 0 1.5 0.1103 -0.0678108 
0.867051 -8.6504 3.6034 0 0 1.5 0.106099 -0.08603 
1.07055 -8.68829 3.87492 0 0 1.5 0.101813 -0.104576 
1.26936 -8.72118 4.15056 0 0 1.5 0.0932196 -0.142515 
1.46849 -8.75289 4.42611 0 0 1.5 0.089021 -0.161234 
1.66808 -8.78287 4.70152 0 0 1.5 0.0849488 -0.179408 
1.8716 -8.81172 4.97413 0 0 1.5 0.081041 -0.196697 
2.07787 -8.83979 5.24478 0 0 1.5 0.0738182 -0.226659 
2.29307 -8.86508 5.5086 0 0 1.5 0.0705186 -0.23843 
2.51078 -8.88959 5.77049 0 0 1.5 0.0674164 -0.247609 
2.74312 -8.90712 6.02008 0 0 1.5 0.0616964 -0.259811 
2.97926 -8.92188 6.26602 0 0 1.5 0.0590014 -0.263781 
3.22795 -8.9274 6.49993 0 0 1.5 0.0563544 -0.267 
3.48411 -8.9249 6.72523 0 0 1.5 0.0537061 -0.270911 
3.74808 -8.91403 6.94152 0 0 1.5 0.0482592 -0.286907 
4.0216 -8.88865 7.14397 0 0 1.5 0.0454066 -0.301865 
4.29847 -8.85783 7.34131 0 0 1.5 0.0424514 -0.324663 
4.58316 -8.80986 7.5236 0 0 1.5 0.0394167 -0.358399 
4.86945 -8.75675 7.7017 0 0 1.5 0.033341 -0.472529 
5.15869 -8.69416 7.87203 0 0 1.5 0.0305128 -0.559298 
5.44906 -8.62629 8.03826 0 0 1.5 0.0280748 -0.662703 
5.74011 -8.55533 8.20211 0 0 1.5 0.0255068 -0.830906 
6.03126 -8.4836 8.36542 0 0 1.5 0.0259468 -0.824773 
6.32228 -8.41302 8.52943 0 0 1.5 0.0277232 -0.744207 
6.61264 -8.34817 8.69697 0 0 1.5 0.0307437 -0.624149 
6.90222 -8.28947 8.86792 0 0 1.5 0.0396921 -0.397691 
7.19084 -8.23836 9.04305 0 0 1.5 0.0452276 -0.314684 
7.47747 -8.20078 9.22452 0 0 1.5 0.0512809 -0.25062 
7.76332 -8.16849 9.40846 0 0 1.5 0.0577615 -0.201347 
8.04553 -8.15694 9.6003 0 0 1.5 0.0717737 -0.133358 
8.32664 -8.15062 9.79377 0 0 1.5 0.0792265 -0.109546 
8.60434 -8.16037 9.99219 0 0 1.5 0.0869388 -0.0901646 
8.87976 -8.17901 10.1929 0 0 1.5 0.103046 -0.0611423 
9.15249 -8.2081 10.3963 0 0 1.5 0.111391 -0.0500767 
9.42149 -8.24881 10.6024 0 0 1.5 0.119888 -0.0405416 
9.6886 -8.2954 10.8099 0 0 1.5 0.128496 -0.0323282 
9.94992 -8.35585 11.0211 0 0 1.5 0.145833 -0.0191126 
10.2099 -8.41937 11.2331 0 0 1.5 0.154422 -0.0136087 
10.4612 -8.49874 11.4503 0 0 1.5 0.162838 -0.00875151 
10.7095 -8.5827 11.6689 0 0 1.5 0.170977 -0.00454165 
10.9486 -8.68075 11.892 0 0 1.5 0.18593 0.00242375 
11.1796 -8.78986 12.1181 0 0 1.5 0.192465 0.00525704 
11.4019 -8.91066 12.3474 0 0 1.5 0.198187 0.00761432 
11.6067 -9.05346 12.5798 0 0 1.5 0.202959 0.00954868 
11.8029 -9.20692 12.8129 0 0 1.5 0.209153 0.0122787 
11.974 -9.38968 13.0451 0 0 1.5 0.210391 0.013081 
12.1268 -9.59214 13.2722 0 0 1.5 0.210323 0.0135194 
12.2638 -9.8117 13.4949 0 0 1.5 0.206254 0.0133614 
12.3652 -10.0654 13.6995 0 0 1.5 0.202342 0.0128319 
12.4513 -10.332 13.893 0 0 1.5 0.197296 0.0119986 
12.5164 -10.6158 14.0713 0 0 1.5 0.191227 0.0108415 
12.557 -10.9166 14.2267 0 0 1.5 0.176571 0.00783194 
12.588 -11.2235 14.3725 0 0 1.5 0.168297 0.00599524 
12.5982 -11.5416 14.496 0 0 1.5 0.159593 0.00386186 
12.6003 -11.8632 14.6098 0 0 1.5 0.150595 0.00149235 
12.5918 -12.1891 14.7113 0 0 1.5 0.132219 -0.00385695 
12.5736 -12.5177 14.8017 0 0 1.5 0.123051 -0.00702622 
12.5506 -12.8476 14.8865 0 0 1.5 0.114005 -0.0105663 
12.5182 -13.179 14.962 0 0 1.5 0.0965281 -0.0189182 
12.4841 -13.5106 15.0357 0 0 1.5 0.0881919 -0.0240609 
12.4412 -13.8424 15.104 0 0 1.5 0.0801687 -0.0300777 
12.3973 -14.1741 15.1722 0 0 1.5 0.0724805 -0.0371799 
12.3477 -14.505 15.2402 0 0 1.5 0.0581778 -0.0561709 
12.2965 -14.8352 15.3102 0 0 1.5 0.0515931 -0.0692453 
12.2421 -15.1641 15.384 0 0 1.5 0.0453983 -0.0859913 
12.1859 -15.4911 15.4646 0 0 1.5 0.0396042 -0.107793 
12.1282 -15.8165 15.5504 0 0 1.5 0.0293006 -0.175373 
12.0697 -16.1368 15.6531 0 0 1.5 0.0248504 -0.22849 
12.0111 -16.4563 15.7584 0 0 1.5 0.0209316 -0.300376 
11.9525 -16.7757 15.8637 0 0 1.5 0.0176255 -0.392824 
11.8939 -17.0952 15.9689 0 0 1.5 0.0132823 -0.587693 
11.8352 -17.4147 16.0742 0 0 1.5 0.0124047 -0.61756 
11.7766 -17.7341 16.1795 0 0 1.5 0.0123222 -0.570521 
11.718 -18.0536 16.2848 0 0 1.5 0.0136332 -0.383208 
11.6594 -18.3731 16.3901 0 0 1.5 0.0145693 -0.302896 
11.6007 -18.6925 16.4954 0 0 1.5 0.0154841 -0.241018 
11.5421 -19.012 16.6007 0 0 1.5 0.0162901 -0.195048 
11.4835 -19.3315 16.706 0 0 1.5 0.0174023 -0.136174 
11.4249 -19.651 16.8113 0 0 1.5 0.017672 -0.117311 
11.3662 -19.9704 16.9166 0 0 1.5 0.0177452 -0.103102 
11.3076 -20.2899 17.0219 0 0 1.5 0.0176279 -0.0924774 
11.249 -20.6094 17.1272 0 0 1.5 0.0168709 -0.0787409 
11.1904 -20.9288 17.2325 0 0 1.5 0.0162629 -0.0746938 
11.1317 -21.2483 17.3378 0 0 1.5 0.0155257 -0.072263 
11.0731 -21.5678 17.4431 0 0 1.5 0.0137423 -0.0717063 
11.0145 -21.8873 17.5484 0 0 1.5 0.0127381 -0.0736329 
10.9559 -22.2067 17.6537 0 0 1.5 0.0116848 -0.0774017 
10.8972 -22.5262 17.759 0 0 1.5 0.0106013 -0.0833701 
10.8386 -22.8457 17.8643 0 0 1.5 0.00842263 -0.10438 
10.78 -23.1651 17.9696 0 0 1.5 0.0073641 -0.121853 
10.7214 -23.4846 18.0749 0 0 1.5 0.00634959 -0.146573 
10.6627 -23.8041 18.1802 0 0 1.5 0.00539961 -0.181395 
10.6041 -24.1236 18.2855 0 0 1.5 0.00379194 -0.296463 
10.5455 -24.443 18.3908 0 0 1.5 0.0031968 -0.375708 
10.4869 -24.7625 18.496 0 0 1.5 0.00279226 -0.443519 
10.4282 -25.082 18.6013 0 0 1.5 0.00261182 -0.412985 
10.3696 -25.4014 18.7066 0 0 1.5 0.00276233 -0.334079 
10.311 -25.7209 18.8119 0 0 1.5 0.00298757 -0.258221 
10.2524 -26.0404 18.9172 0 0 1.5 0.00323485 -0.199199 
10.1937 -26.3599 19.0225 0 0 1.5 0.0036781 -0.126707 
10.1351 -26.6793 19.1278 0 0 1.5 0.00384518 -0.105067 
10.0765 -26.9988 19.2331 0 0 1.5 0.00396744 -0.0894766 
10.0179 -27.3183 19.3384 0 0 1.5 0.00404377 -0.0782957 
9.95924 -27.6377 19.4437 0 0 1.5 0.004064 -0.0642216 
9.90062 -27.9572 19.549 0 0 1.5 0.00401305 -0.0600209 
9.84199 -28.2767 19.6543 0 0 1.5 0.00392598 -0.057353 
9.78337 -28.5962 19.7596 0 0 1.5 0.00380682 -0.0559218 
9.72474 -28.9156 19.8649 0 0 1.5 0.00348929 -0.0562014 
9.66612 -29.2351 19.9702 0 0 1.5 0.00329929 -0.0581323 
9.60749 -29.5546 20.0755 0 0 1.5 0.00309391 -0.0613746 
9.54887 -29.874 20.1808 0 0 1.5 0.00265389 -0.0724715 
9.49024 -30.1935 20.2861 0 0 1.5 0.00242693 -0.0812136 
9.43162 -30.513 20.3914 0 0 1.5 0.00220007 -0.0928525 
9.37299 -30.8325 20.4967 0 0 1.5 0.00197712 -0.108122 
9.31437 -31.1519 20.602 0 0 1.5 0.00155902 -0.154647 
9.25574 -31.4714 20.7073 0 0 1.5 0.00137232 -0.188622 
9.19712 -31.7909 20.8126 0 0 1.5 0.0012076 -0.229969 
9.1385 -32.1103 20.9179 0 0 1.5 0.00107122 -0.275738 
9.07987 -32.4298 21.0231 0 0 1.5 0.000907139 -0.34216 
9.02125 -32.7493 21.1284 0 0 1.5 0.000885957 -0.337257 
8.96262 -33.0688 21.2337 0 0 1.5 0.000901925 -0.305293 
8.904 -33.3882 21.339 0 0 1.5 0.00101162 -0.212839 
8.84537 -33.7077 21.4443 0 0 1.5 0.00108818 -0.171581 
8.78675 -34.0272 21.5496 0 0 1.5 0.00117059 -0.138048 
8.72812 -34.3466 21.6549 0 0 1.5 0.00125485 -0.11187 
8.6695 -34.6661 21.7602 0 0 1.5 0.00142001 -0.0757645 
8.61087 -34.9856 21.8655 0 0 1.5 0.00149869 -0.06345 
8.55225 -35.3051 21.9708 0 0 1.5 0.00157426 -0.053875 
8.49362 -35.6245 22.0761 0 0 1.5 0.00164678 -0.0463773 
8.435 -35.944 22.1814 0 0 1.5 0.00178404 -0.0358231 
8.37637 -36.2635 22.2867 0 0 1.5 0.00184977 -0.0321835 
8.31775 -36.5829 22.392 0 0 1.5 0.00191436 -0.0293526 
0 1 0 
1 2 0 
2 3 0 
3 4 0 
4 5 0 
5 6 0 
6 7 0 
7 8 0 
8 9 0 
9 10 0 
10 11 0 
11 12 0 
12 13 0 
13 14 0 
14 15 0 
15 16 0 
16 17 0 
17 18 0 
18 19 0 
19 20 0 
20 21 0 
21 22 0 
22 23 0 
23 24 0 
24 25 0 
25 26 0 
26 27 0 
27 28 0 
28 29 0 
29 30 0 
30 31 0 
31 32 0 
32 33 0 
33 34 0 
34 35 0 
35 36 0 
36 37 0 
37 38 0 
38 39 0 
39 40 0 
40 41 0 
41 42 0 
42 43 0 
43 44 0 
44 45 0 
45 46 0 
46 47 0 
47 48 0 
48 49 0 
49 50 0 
50 51 0 
51 52 0 
52 53 0 
53 54 0 
54 55 0 
55 56 0 
56 57 0 
57 58 0 
58 59 0 
59 60 0 
60 61 0 
61 62 0 
62 63 0 
63 64 0 
64 65 0 
65 66 0 
66 67 0 
67 68 0 
68 69 0 
69 70 0 
70 71 0 
71 72 0 
72 73 0 
73 74 0 
74 75 0 
75 76 0 
76 77 0 
77 78 0 
78 79 0 
79 80 0 
80 81 0 
81 82 0 
82 83 0 
83 84 0 
84 85 0 
85 86 0 
86 87 0 
87 88 0 
88 89 0 
89 90 0 
90 91 0 
91 92 0 
92 93 0 
93 94 0 
94 95 0 
95 96 0 
96 97 0 
97 98 0 
98 99 0 
99 100 0 
100 101 0 
101 102 0 
102 103 0 
103 104 0 
104 105 0 
105 106 0 
106 107 0 
107 108 0 
108 109 0 
109 110 0 
110 111 0 
111 112 0 
112 113 0 
113 114 0 
114 115 0 
115 116 0 
116 117 0 
117 118 0 
118 119 0 
119 120 0 
120 121 0 
121 122 0 
122 123 0 
123 124 0 
124 125 0 
125 126 0 
126 127 0 
127 128 0 
128 129 0 
129 130 0 
130 131 0 
131 132 0 
132 133 0 
133 134 0 
134 135 0 
135 136 0 
136 137 0 
137 138 0 
138 139 0 
139 140 0 
140 141 0 
141 142 0 
142 143 0 
143 144 0 
144 145 0 
145 146 0 
146 147 0 
147 148 0 
148 149 0 
149 150 0 
150 151 0 
151 152 0 
152 153 0 
153 154 0 
154 155 0 
155 156 0 
156 157 0 
157 158 0 
158 159 0 
159 160 0 
160 161 0 
161 162 0 
162 163 0 
163 164 0 
164 165 0 
165 166 0 
166 167 0 
167 168 0 
168 169 0 
169 170 0 
170 171 0 
171 172 0 
172 173 0 
173 174 0 
174 175 0 
175 176 0 
176 177 0 
177 178 0 
178 179 0 
179 180 0 
180 181 0 
181 182 0 
182 183 0 
183 184 0 
184 185 0 
185 186 0 
186 187 0 
187 188 0 
188 189 0 
189 190 0 
190 191 0 
191 192 0 
192 193 0 
193 194 0 
194 195 0 
195 196 0 
196 197 0 
197 198 0 
198 199 0 
199 200 0 
200 201 0 
201 202 0 
202 203 0 
203 204 0 
204 205 0 
205 206 0 
206 207 0 
207 208 0 
208 209 0 
209 210 0 
210 211 0 
211 212 0 
212 213 0 
213 214 0 
214 215 0 
215 216 0 
216 217 0 
217 218 0 
218 219 0 
219 220 0 
220 221 0 
221 222 0 
222 223 0 
223 224 0 
224 225 0 
225 226 0 
226 227 0 
227 228 0 
228 229 0 
229 230 0 
230 231 0 
231 232 0 
232 233 0 
233 234 0 
234 235 0 
235 236 0 
236 237 0 
237 238 0 
238 239 0 
239 240 0 
240 241 0 
241 242 0 
242 243 0 
243 244 0 
244 245 0 
245 246 0 
246 247 0 
247 248 0 
248 249 0 
249 250 0 
250 251 0 
251 252 0 
252 253 0 
253 254 0 
254 255 0 
255 256 0 
256 257 0 
257 258 0 
258 259 0 
259 260 0 
260 261 0 
261 262 0 
262 263 0 
263 264 0 
264 265 0 
265 266 0 
266 267 0 
267 268 0 
268 269 0 
269 270 0 
270 271 0 
271 272 0 
272 273 0 
273 274 0 
274 275 0 
275 276 0 
276 277 0 
277 278 0 
278 279 0 
279 280 0 
280 281 0 
281 282 0 
282 283 0 
283 284 0 
284 285 0 
285 286 0 
286 287 0 
287 288 0 
288 289 0 
289 290 0 
290 291 0 
291 292 0 
292 293 0 
293 294 0 
294 295 0 
295 296 0 
296 297 0 
297 298 0 
298 299 0 
-1 -1 0 
-1 300 0 1 2 3 4 5 6 7 8 9 10 11 12 13 14 15 16 17 18 19 20 21 22 23 24 25 26 27 28 29 30 31 32 33 34 35 36 37 38 39 40 41 42 43 44 45 46 47 48 49 50 51 52 53 54 55 56 57 58 59 60 61 62 63 64 65 66 67 68 69 70 71 72 73 74 75 76 77 78 79 80 81 82 83 84 85 86 87 88 89 90 91 92 93 94 95 96 97 98 99 100 101 102 103 104 105 106 107 108 109 110 111 112 113 114 115 116 117 118 119 120 121 122 123 124 125 126 127 128 129 130 131 132 133 134 135 136 137 138 139 140 141 142 143 144 145 146 147 148 149 150 151 152 153 154 155 156 157 158 159 160 161 162 163 164 165 166 167 168 169 170 171 172 173 174 175 176 177 178 179 180 181 182 183 184 185 186 187 188 189 190 191 192 193 194 195 196 197 198 199 200 201 202 203 204 205 206 207 208 209 210 211 212 213 214 215 216 217 218 219 220 221 222 223 224 225 226 227 228 229 230 231 232 233 234 235 236 237 238 239 240 241 242 243 244 245 246 247 248 249 250 251 252 253 254 255 256 257 258 259 260 261 262 263 264 265 266 267 268 269 270 271 272 273 274 275 276 277 278 279 280 281 282 283 284 285 286 287 288 289 290 291 292 293 294 295 296 297 298 299 
