ply
format ascii 1.0
comment written by koba@oshima.lab
element vertex 300
property float x
property float y
property float z
property int label
property int attribute
property float radius
property float curvature
property float torsion
element edge 300
property int vertex1
property int vertex2
property int label
element vertex_seq 1
property int label
property list int int vertex_indices
end_header
1.76944 30.2828 -3.46735 0 0 1.5 0.0156394 0.163869 
1.59964 29.9433 -3.51516 0 0 1.5 0.0145416 0.188249 
1.42983 29.6038 -3.56297 0 0 1.5 0.0135122 0.217978 
1.26002 29.2643 -3.61078 0 0 1.5 0.0125623 0.253767 
1.09021 28.9248 -3.65859 0 0 1.5 0.0109808 0.342291 
0.9204 28.5852 -3.7064 0 0 1.5 0.0104102 0.389498 
0.750591 28.2457 -3.75421 0 0 1.5 0.0100398 0.430191 
0.580782 27.9062 -3.80202 0 0 1.5 0.00991253 0.455206 
0.410973 27.5667 -3.84983 0 0 1.5 0.0105103 0.434046 
0.241164 27.2272 -3.89764 0 0 1.5 0.0112482 0.393527 
0.0713552 26.8877 -3.94545 0 0 1.5 0.0122577 0.344862 
-0.0984537 26.5482 -3.99326 0 0 1.5 0.0135105 0.295728 
-0.268263 26.2086 -4.04108 0 0 1.5 0.0166191 0.212519 
-0.438072 25.8691 -4.08889 0 0 1.5 0.0184201 0.180802 
-0.607881 25.5296 -4.1367 0 0 1.5 0.0203563 0.1549 
-0.77769 25.1901 -4.18451 0 0 1.5 0.0245448 0.117089 
-0.947498 24.8506 -4.23232 0 0 1.5 0.0267573 0.103677 
-1.11731 24.5111 -4.28013 0 0 1.5 0.0290241 0.0929567 
-1.28712 24.1716 -4.32794 0 0 1.5 0.0313213 0.084424 
-1.45693 23.832 -4.37575 0 0 1.5 0.0359089 0.0726817 
-1.62673 23.4925 -4.42356 0 0 1.5 0.0381509 0.0689015 
-1.79654 23.153 -4.47137 0 0 1.5 0.0403222 0.0662174 
-1.96635 22.8135 -4.51918 0 0 1.5 0.0423939 0.0645557 
-2.13616 22.474 -4.56699 0 0 1.5 0.0461245 0.0640991 
-2.30597 22.1345 -4.6148 0 0 1.5 0.0477226 0.065249 
-2.47578 21.795 -4.66261 0 0 1.5 0.0490996 0.0674059 
-2.64559 21.4554 -4.71043 0 0 1.5 0.0510711 0.0751665 
-2.8154 21.1159 -4.75824 0 0 1.5 0.0516143 0.0809217 
-2.98521 20.7764 -4.80605 0 0 1.5 0.0518352 0.0882874 
-3.15501 20.4369 -4.85386 0 0 1.5 0.0517177 0.0977009 
-3.32482 20.0974 -4.90167 0 0 1.5 0.0504448 0.1243 
-3.49463 19.7579 -4.94948 0 0 1.5 0.0493077 0.142917 
-3.66444 19.4184 -4.99729 0 0 1.5 0.0478665 0.166625 
-3.83425 19.0789 -5.0451 0 0 1.5 0.046165 0.19656 
-4.03486 18.7543 -5.05875 0 0 1.5 0.0423223 0.279999 
-4.24354 18.4336 -5.06343 0 0 1.5 0.0404413 0.335464 
-4.47542 18.1314 -5.02965 0 0 1.5 0.0388444 0.397448 
-4.70956 17.8315 -4.99057 0 0 1.5 0.0378035 0.457941 
-4.9544 17.5465 -4.91838 0 0 1.5 0.0386015 0.523576 
-5.1996 17.2639 -4.83958 0 0 1.5 0.0409388 0.508844 
-5.44618 16.9906 -4.73526 0 0 1.5 0.0447126 0.466311 
-5.69106 16.7192 -4.62289 0 0 1.5 0.0562935 0.353264 
-5.93193 16.4525 -4.4917 0 0 1.5 0.0638367 0.30209 
-6.16881 16.1863 -4.35269 0 0 1.5 0.0723619 0.259115 
-6.39949 15.9211 -4.20162 0 0 1.5 0.0817411 0.224428 
-6.6244 15.6541 -4.04525 0 0 1.5 0.102585 0.175661 
-6.84388 15.3854 -3.88392 0 0 1.5 0.113797 0.159135 
-7.05724 15.1105 -3.72498 0 0 1.5 0.125338 0.146546 
-7.26802 14.8325 -3.56799 0 0 1.5 0.137026 0.13718 
-7.47614 14.5408 -3.43389 0 0 1.5 0.159972 0.12571 
-7.68635 14.2394 -3.33136 0 0 1.5 0.170741 0.122745 
-7.89906 13.9286 -3.28316 0 0 1.5 0.180672 0.121278 
-8.11135 13.6185 -3.33323 0 0 1.5 0.196897 0.121709 
-8.30753 13.3401 -3.50457 0 0 1.5 0.20272 0.123205 
-8.47254 13.1183 -3.76906 0 0 1.5 0.20677 0.125434 
-8.61254 12.9398 -4.07602 0 0 1.5 0.208951 0.128135 
-8.74165 12.7792 -4.39795 0 0 1.5 0.207813 0.134071 
-8.86159 12.6336 -4.73079 0 0 1.5 0.204737 0.137248 
-8.97673 12.4931 -5.06751 0 0 1.5 0.200251 0.140365 
-9.0905 12.354 -5.40532 0 0 1.5 0.194616 0.143218 
-9.20358 12.2085 -5.74062 0 0 1.5 0.180987 0.148131 
-9.31662 12.0624 -6.07567 0 0 1.5 0.173512 0.150105 
-9.42992 11.9012 -6.40366 0 0 1.5 0.165907 0.151616 
-9.54311 11.7394 -6.73133 0 0 1.5 0.151047 0.153083 
-9.6533 11.5581 -7.04973 0 0 1.5 0.14407 0.152967 
-9.763 11.3758 -7.36769 0 0 1.5 0.137524 0.152264 
-9.86258 11.1729 -7.67643 0 0 1.5 0.131469 0.15092 
-9.95995 10.968 -7.98436 0 0 1.5 0.120974 0.146197 
-10.0377 10.7447 -8.2852 0 0 1.5 0.116568 0.142933 
-10.1071 10.5177 -8.58476 0 0 1.5 0.112726 0.139063 
-10.1489 10.2781 -8.8801 0 0 1.5 0.109443 0.134585 
-10.1676 10.0343 -9.17334 0 0 1.5 0.10452 0.124441 
-10.159 9.78578 -9.46408 0 0 1.5 0.102871 0.118943 
-10.1047 9.53845 -9.74977 0 0 1.5 0.10176 0.113197 
-10.0296 9.29286 -10.0327 0 0 1.5 0.101189 0.107335 
-9.90281 9.05781 -10.3067 0 0 1.5 0.101726 0.0956159 
-9.75502 8.83032 -10.5754 0 0 1.5 0.102877 0.0898048 
-9.5823 8.61184 -10.8377 0 0 1.5 0.104656 0.0841109 
-9.38764 8.40405 -11.0928 0 0 1.5 0.110268 0.0732668 
-9.18538 8.19996 -11.3455 0 0 1.5 0.114202 0.0681649 
-8.96852 8.00369 -11.5921 0 0 1.5 0.118963 0.0633302 
-8.75043 7.80796 -11.8381 0 0 1.5 0.124618 0.0587982 
-8.52635 7.61358 -12.0798 0 0 1.5 0.138884 0.0507056 
-8.30202 7.41878 -12.3208 0 0 1.5 0.147645 0.0472002 
-8.07529 7.22022 -12.5565 0 0 1.5 0.157596 0.0440979 
-7.84821 7.02086 -12.7912 0 0 1.5 0.168817 0.0413835 
-7.61771 6.81406 -13.0159 0 0 1.5 0.195343 0.0370796 
-7.38648 6.60632 -13.2389 0 0 1.5 0.210734 0.0355175 
-7.14749 6.38873 -13.4436 0 0 1.5 0.227537 0.0343372 
-6.90674 6.16977 -13.6445 0 0 1.5 0.264982 0.0331173 
-6.65281 5.9406 -13.8159 0 0 1.5 0.285187 0.0331491 
-6.39416 5.70916 -13.9751 0 0 1.5 0.305871 0.0336143 
-6.12012 5.47031 -14.0945 0 0 1.5 0.326447 0.0345114 
-5.83687 5.23019 -14.178 0 0 1.5 0.364092 0.0376718 
-5.54338 4.98866 -14.2218 0 0 1.5 0.379272 0.0399389 
-5.24336 4.75709 -14.1837 0 0 1.5 0.390698 0.0426522 
-4.94662 4.53693 -14.0984 0 0 1.5 0.397503 0.0457695 
-4.66034 4.33874 -13.9398 0 0 1.5 0.395326 0.0530556 
-4.4043 4.17823 -13.7091 0 0 1.5 0.386328 0.0572392 
-4.16913 4.04135 -13.4435 0 0 1.5 0.372684 0.0617411 
-3.97005 3.94307 -13.1319 0 0 1.5 0.335075 0.0717317 
-3.80427 3.87893 -12.7952 0 0 1.5 0.313127 0.0775049 
-3.65508 3.83182 -12.4461 0 0 1.5 0.290336 0.0839007 
-3.54921 3.82991 -12.0784 0 0 1.5 0.267493 0.0909824 
-3.4542 3.83966 -11.7088 0 0 1.5 0.223923 0.108306 
-3.38442 3.87655 -11.3344 0 0 1.5 0.203922 0.119042 
-3.33093 3.93059 -10.9599 0 0 1.5 0.185395 0.131393 
-3.2893 3.99714 -10.5855 0 0 1.5 0.168449 0.145683 
-3.2654 4.0788 -10.2125 0 0 1.5 0.139476 0.180971 
-3.24676 4.16304 -9.83983 0 0 1.5 0.127486 0.201754 
-3.23857 4.24868 -9.46702 0 0 1.5 0.117179 0.224022 
-3.23442 4.32539 -9.0923 0 0 1.5 0.108578 0.246679 
-3.2332 4.39537 -8.71615 0 0 1.5 0.0965802 0.285197 
-3.23451 4.43555 -8.33566 0 0 1.5 0.0931909 0.296299 
-3.23614 4.458 -7.95419 0 0 1.5 0.0914873 0.29955 
-3.23816 4.46014 -7.57159 0 0 1.5 0.0926619 0.283456 
-3.24164 4.4286 -7.19044 0 0 1.5 0.09519 0.267446 
-3.2468 4.38428 -6.8107 0 0 1.5 0.0987335 0.249051 
-3.25517 4.31989 -6.43364 0 0 1.5 0.103074 0.230353 
-3.26975 4.24057 -6.0598 0 0 1.5 0.113334 0.196967 
-3.28722 4.1543 -5.68745 0 0 1.5 0.118876 0.183263 
-3.31854 4.05076 -5.32045 0 0 1.5 0.124453 0.171819 
-3.35529 3.94201 -4.95567 0 0 1.5 0.129907 0.162592 
-3.40519 3.82064 -4.59627 0 0 1.5 0.139841 0.150019 
-3.46824 3.68551 -4.24432 0 0 1.5 0.144036 0.146366 
-3.54043 3.54082 -3.89756 0 0 1.5 0.147563 0.144261 
-3.63454 3.36671 -3.57034 0 0 1.5 0.152287 0.144115 
-3.73677 3.17834 -3.25441 0 0 1.5 0.153374 0.145864 
-3.85392 2.96179 -2.96154 0 0 1.5 0.153595 0.148676 
-3.98011 2.7153 -2.69905 0 0 1.5 0.152978 0.152486 
-4.11021 2.45171 -2.45489 0 0 1.5 0.149467 0.162871 
-4.24081 2.15449 -2.25243 0 0 1.5 0.14676 0.169179 
-4.36559 1.84298 -2.07043 0 0 1.5 0.143579 0.176077 
-4.48447 1.51705 -1.90911 0 0 1.5 0.140055 0.183447 
-4.5861 1.17546 -1.77074 0 0 1.5 0.132525 0.198683 
-4.68178 0.829588 -1.63832 0 0 1.5 0.128791 0.205937 
-4.75292 0.473758 -1.51701 0 0 1.5 0.125242 0.212476 
-4.81553 0.116824 -1.39501 0 0 1.5 0.121984 0.21797 
-4.85688 -0.242864 -1.2713 0 0 1.5 0.116671 0.224418 
-4.88459 -0.601446 -1.14181 0 0 1.5 0.114732 0.224664 
-4.89535 -0.958655 -1.00515 0 0 1.5 0.113313 0.222809 
-4.88909 -1.31141 -0.858161 0 0 1.5 0.112033 0.213263 
-4.87027 -1.66089 -0.703561 0 0 1.5 0.112124 0.205839 
-4.8326 -2.00311 -0.537411 0 0 1.5 0.112647 0.197227 
-4.78612 -2.34194 -0.365871 0 0 1.5 0.113542 0.187968 
-4.71942 -2.67254 -0.185638 0 0 1.5 0.116193 0.16865 
-4.64678 -3.00072 -0.00284962 0 0 1.5 0.117806 0.159291 
-4.55142 -3.32164 0.182119 0 0 1.5 0.119522 0.150611 
-4.45244 -3.64141 0.367436 0 0 1.5 0.121279 0.142668 
-4.3258 -3.95543 0.545521 0 0 1.5 0.124677 0.129157 
-4.19469 -4.26867 0.721457 0 0 1.5 0.126211 0.123705 
-4.03529 -4.57709 0.882271 0 0 1.5 0.127573 0.119098 
-3.86546 -4.88295 1.03591 0 0 1.5 0.129618 0.112295 
-3.67142 -5.18291 1.1729 0 0 1.5 0.130243 0.110006 
-3.45886 -5.47515 1.29654 0 0 1.5 0.130583 0.108388 
-3.22988 -5.76057 1.40832 0 0 1.5 0.130625 0.107401 
-2.97554 -6.02912 1.5045 0 0 1.5 0.129811 0.106925 
-2.71314 -6.29203 1.59597 0 0 1.5 0.128972 0.107284 
-2.42387 -6.5287 1.67782 0 0 1.5 0.127863 0.107994 
-2.12866 -6.75719 1.76007 0 0 1.5 0.1265 0.108958 
-1.81756 -6.96374 1.84339 0 0 1.5 0.123102 0.11128 
-1.49914 -7.15564 1.93202 0 0 1.5 0.121114 0.112556 
-1.17288 -7.33186 2.0263 0 0 1.5 0.118962 0.113845 
-0.84093 -7.48953 2.1316 0 0 1.5 0.114249 0.116247 
-0.506061 -7.63767 2.24254 0 0 1.5 0.111726 0.117276 
-0.168605 -7.7663 2.3683 0 0 1.5 0.10911 0.11819 
0.169505 -7.89 2.49781 0 0 1.5 0.106412 0.119005 
0.50715 -7.99541 2.64343 0 0 1.5 0.100802 0.12023 
0.844743 -8.09876 2.79088 0 0 1.5 0.0978969 0.120765 
1.1797 -8.18517 2.95432 0 0 1.5 0.0949286 0.121462 
1.51445 -8.27057 3.11871 0 0 1.5 0.0918996 0.122324 
1.84515 -8.34042 3.298 0 0 1.5 0.0856645 0.124714 
2.17533 -8.40868 3.47875 0 0 1.5 0.0824584 0.126559 
2.5005 -8.46195 3.67321 0 0 1.5 0.0791928 0.128972 
2.82433 -8.51193 3.87054 0 0 1.5 0.0758675 0.132052 
3.14214 -8.5472 4.08064 0 0 1.5 0.0690499 0.141574 
3.45709 -8.57667 4.29552 0 0 1.5 0.0655769 0.148603 
3.76535 -8.59251 4.52161 0 0 1.5 0.0620787 0.157484 
4.06859 -8.59997 4.75442 0 0 1.5 0.0550812 0.182811 
4.36547 -8.5968 4.99576 0 0 1.5 0.0516338 0.200302 
4.6554 -8.58416 5.24483 0 0 1.5 0.0482642 0.221677 
4.94067 -8.56517 5.4991 0 0 1.5 0.0450136 0.247474 
5.21868 -8.53847 5.76051 0 0 1.5 0.0390818 0.312975 
5.49439 -8.50932 6.02419 0 0 1.5 0.0365306 0.351089 
5.76512 -8.47755 6.29267 0 0 1.5 0.0343556 0.389643 
6.03532 -8.44572 6.56168 0 0 1.5 0.0326338 0.424226 
6.3049 -8.41784 6.83176 0 0 1.5 0.0308082 0.458655 
6.57511 -8.39174 7.10135 0 0 1.5 0.0307685 0.450363 
6.8483 -8.37406 7.36864 0 0 1.5 0.0312899 0.425654 
7.12327 -8.36039 7.63424 0 0 1.5 0.0337569 0.34604 
7.40265 -8.35662 7.89562 0 0 1.5 0.0355335 0.30213 
7.68462 -8.3588 8.15408 0 0 1.5 0.0375568 0.260905 
7.97065 -8.37032 8.40794 0 0 1.5 0.0397518 0.223881 
8.25915 -8.38901 8.6584 0 0 1.5 0.04442 0.163709 
8.55033 -8.41552 8.90518 0 0 1.5 0.0468017 0.140332 
8.84272 -8.44981 9.14947 0 0 1.5 0.0491699 0.120675 
9.13604 -8.49018 9.3918 0 0 1.5 0.0515005 0.104115 
9.42811 -8.53928 9.63394 0 0 1.5 0.0559844 0.0790116 
9.71948 -8.59324 9.87597 0 0 1.5 0.0581197 0.0697402 
10.0058 -8.65782 10.1213 0 0 1.5 0.0601787 0.0621619 
10.2904 -8.72621 10.3677 0 0 1.5 0.0640712 0.0512067 
10.5647 -8.80877 10.6212 0 0 1.5 0.0659125 0.0474625 
10.8373 -8.89377 10.8759 0 0 1.5 0.0676922 0.0446646 
11.0933 -8.99777 11.1405 0 0 1.5 0.0694185 0.0426439 
11.3462 -9.1052 11.4066 0 0 1.5 0.0727455 0.0404444 
11.5832 -9.22949 11.68 0 0 1.5 0.0743646 0.0401385 
11.8139 -9.36056 11.9554 0 0 1.5 0.0759662 0.0401994 
12.0331 -9.50412 12.2342 0 0 1.5 0.077557 0.0405031 
12.2454 -9.65648 12.5135 0 0 1.5 0.0807267 0.0417726 
12.4517 -9.81638 12.7932 0 0 1.5 0.082312 0.0426236 
12.6541 -9.98525 13.0704 0 0 1.5 0.0838965 0.0434991 
12.855 -10.1577 13.3467 0 0 1.5 0.0854753 0.0444098 
13.0577 -10.3383 13.6163 0 0 1.5 0.0885848 0.0463352 
13.2609 -10.5204 13.8845 0 0 1.5 0.0900918 0.047281 
13.4704 -10.7097 14.1427 0 0 1.5 0.0915455 0.048232 
13.6815 -10.901 14.3979 0 0 1.5 0.0942133 0.0502395 
13.8984 -11.0993 14.6429 0 0 1.5 0.0953812 0.0513132 
14.1168 -11.3028 14.8821 0 0 1.5 0.0964036 0.052476 
14.3374 -11.5141 15.1125 0 0 1.5 0.0972527 0.0537698 
14.5559 -11.7368 15.3336 0 0 1.5 0.0983243 0.0567765 
14.7729 -11.9673 15.5485 0 0 1.5 0.0985004 0.0585389 
14.9794 -12.2187 15.7494 0 0 1.5 0.0984076 0.0605412 
15.182 -12.4768 15.946 0 0 1.5 0.0980275 0.0627887 
15.3641 -12.762 16.1246 0 0 1.5 0.0963707 0.0680671 
15.5369 -13.0566 16.2957 0 0 1.5 0.095085 0.0712207 
15.6907 -13.3701 16.4519 0 0 1.5 0.0934949 0.0747356 
15.8278 -13.6973 16.5936 0 0 1.5 0.0894561 0.08285 
15.9528 -14.0342 16.7249 0 0 1.5 0.0870429 0.0875924 
16.0584 -14.3844 16.8361 0 0 1.5 0.0843952 0.0928223 
16.159 -14.738 16.9421 0 0 1.5 0.0815435 0.0985162 
16.2438 -15.1017 17.0252 0 0 1.5 0.0753579 0.111539 
16.3274 -15.4662 17.1058 0 0 1.5 0.0720882 0.118988 
16.4041 -15.836 17.1669 0 0 1.5 0.0687478 0.127094 
16.4811 -16.2062 17.2254 0 0 1.5 0.0653728 0.135874 
16.5594 -16.5782 17.2688 0 0 1.5 0.0586514 0.155504 
16.6395 -16.95 17.3095 0 0 1.5 0.055367 0.166442 
16.7281 -17.3211 17.3388 0 0 1.5 0.0521717 0.178023 
16.8207 -17.6912 17.3658 0 0 1.5 0.0490906 0.190061 
16.928 -18.058 17.3846 0 0 1.5 0.0433553 0.215234 
17.0426 -18.4224 17.4016 0 0 1.5 0.0407359 0.227824 
17.1773 -18.7803 17.4135 0 0 1.5 0.0382988 0.239705 
17.3245 -19.1328 17.4243 0 0 1.5 0.0339932 0.260664 
17.4953 -19.4751 17.4329 0 0 1.5 0.0321252 0.268958 
17.6661 -19.8173 17.4414 0 0 1.5 0.0304397 0.274927 
17.8369 -20.1596 17.45 0 0 1.5 0.0289251 0.278596 
18.0077 -20.5019 17.4586 0 0 1.5 0.0263456 0.279556 
18.1785 -20.8441 17.4672 0 0 1.5 0.0252433 0.276543 
18.3493 -21.1864 17.4758 0 0 1.5 0.0242377 0.271788 
18.5201 -21.5286 17.4844 0 0 1.5 0.0233083 0.266035 
18.6909 -21.8709 17.493 0 0 1.5 0.0216039 0.252267 
18.8617 -22.2132 17.5016 0 0 1.5 0.0207956 0.245034 
19.0325 -22.5554 17.5102 0 0 1.5 0.0199988 0.238378 
19.2033 -22.8977 17.5188 0 0 1.5 0.0184042 0.227011 
19.3741 -23.24 17.5273 0 0 1.5 0.0175948 0.222728 
19.5449 -23.5822 17.5359 0 0 1.5 0.0167732 0.220002 
19.7157 -23.9245 17.5445 0 0 1.5 0.0159394 0.218822 
19.8865 -24.2668 17.5531 0 0 1.5 0.0142455 0.22109 
20.0573 -24.609 17.5617 0 0 1.5 0.0133923 0.225021 
20.2281 -24.9513 17.5703 0 0 1.5 0.0125406 0.230958 
20.3989 -25.2936 17.5789 0 0 1.5 0.0116963 0.238885 
20.5697 -25.6358 17.5875 0 0 1.5 0.0100548 0.26247 
20.7405 -25.9781 17.5961 0 0 1.5 0.00927054 0.278782 
20.9113 -26.3203 17.6046 0 0 1.5 0.00852053 0.297995 
21.0821 -26.6626 17.6132 0 0 1.5 0.00715288 0.346183 
21.2529 -27.0049 17.6218 0 0 1.5 0.00654823 0.374717 
21.4237 -27.3471 17.6304 0 0 1.5 0.00600531 0.404278 
21.5945 -27.6894 17.639 0 0 1.5 0.00552984 0.433135 
21.7653 -28.0317 17.6476 0 0 1.5 0.00479207 0.479234 
21.9361 -28.3739 17.6562 0 0 1.5 0.00453008 0.489479 
22.1069 -28.7162 17.6648 0 0 1.5 0.00433451 0.48878 
22.2777 -29.0585 17.6734 0 0 1.5 0.00419737 0.478085 
22.4485 -29.4007 17.682 0 0 1.5 0.00405809 0.432956 
22.6193 -29.743 17.6905 0 0 1.5 0.00403427 0.404339 
22.7901 -30.0853 17.6991 0 0 1.5 0.0040274 0.37601 
22.9609 -30.4275 17.7077 0 0 1.5 0.00402939 0.349273 
23.1317 -30.7698 17.7163 0 0 1.5 0.00403608 0.303317 
23.3025 -31.1121 17.7249 0 0 1.5 0.00403288 0.285531 
23.4733 -31.4543 17.7335 0 0 1.5 0.00402269 0.270841 
23.6441 -31.7966 17.7421 0 0 1.5 0.00398005 0.248633 
23.8149 -32.1388 17.7507 0 0 1.5 0.00394823 0.240769 
23.9856 -32.4811 17.7593 0 0 1.5 0.00391048 0.234481 
24.1564 -32.8234 17.7678 0 0 1.5 0.00386807 0.229218 
24.3272 -33.1656 17.7764 0 0 1.5 0.00377511 0.221346 
24.498 -33.5079 17.785 0 0 1.5 0.00372769 0.218159 
24.6688 -33.8502 17.7936 0 0 1.5 0.0036819 0.214781 
24.8396 -34.1924 17.8022 0 0 1.5 0.00363928 0.211117 
25.0104 -34.5347 17.8108 0 0 1.5 0.00356734 0.202777 
25.1812 -34.877 17.8194 0 0 1.5 0.00353972 0.197482 
25.352 -35.2192 17.828 0 0 1.5 0.00351855 0.191447 
25.5228 -35.5615 17.8366 0 0 1.5 0.00349565 0.177857 
25.6936 -35.9038 17.8452 0 0 1.5 0.00349384 0.170189 
25.8644 -36.246 17.8537 0 0 1.5 0.0034983 0.162196 
26.0352 -36.5883 17.8623 0 0 1.5 0.00350853 0.154229 
26.206 -36.9306 17.8709 0 0 1.5 0.00354439 0.138587 
26.3768 -37.2728 17.8795 0 0 1.5 0.00356929 0.131157 
26.5476 -37.6151 17.8881 0 0 1.5 0.00359823 0.124276 
26.7184 -37.9573 17.8967 0 0 1.5 0.0036308 0.11797 
26.8892 -38.2996 17.9053 0 0 1.5 0.00370581 0.107149 
27.06 -38.6419 17.9139 0 0 1.5 0.0037479 0.102715 
27.2308 -38.9841 17.9225 0 0 1.5 0.00379293 0.0989218 
0 1 0 
1 2 0 
2 3 0 
3 4 0 
4 5 0 
5 6 0 
6 7 0 
7 8 0 
8 9 0 
9 10 0 
10 11 0 
11 12 0 
12 13 0 
13 14 0 
14 15 0 
15 16 0 
16 17 0 
17 18 0 
18 19 0 
19 20 0 
20 21 0 
21 22 0 
22 23 0 
23 24 0 
24 25 0 
25 26 0 
26 27 0 
27 28 0 
28 29 0 
29 30 0 
30 31 0 
31 32 0 
32 33 0 
33 34 0 
34 35 0 
35 36 0 
36 37 0 
37 38 0 
38 39 0 
39 40 0 
40 41 0 
41 42 0 
42 43 0 
43 44 0 
44 45 0 
45 46 0 
46 47 0 
47 48 0 
48 49 0 
49 50 0 
50 51 0 
51 52 0 
52 53 0 
53 54 0 
54 55 0 
55 56 0 
56 57 0 
57 58 0 
58 59 0 
59 60 0 
60 61 0 
61 62 0 
62 63 0 
63 64 0 
64 65 0 
65 66 0 
66 67 0 
67 68 0 
68 69 0 
69 70 0 
70 71 0 
71 72 0 
72 73 0 
73 74 0 
74 75 0 
75 76 0 
76 77 0 
77 78 0 
78 79 0 
79 80 0 
80 81 0 
81 82 0 
82 83 0 
83 84 0 
84 85 0 
85 86 0 
86 87 0 
87 88 0 
88 89 0 
89 90 0 
90 91 0 
91 92 0 
92 93 0 
93 94 0 
94 95 0 
95 96 0 
96 97 0 
97 98 0 
98 99 0 
99 100 0 
100 101 0 
101 102 0 
102 103 0 
103 104 0 
104 105 0 
105 106 0 
106 107 0 
107 108 0 
108 109 0 
109 110 0 
110 111 0 
111 112 0 
112 113 0 
113 114 0 
114 115 0 
115 116 0 
116 117 0 
117 118 0 
118 119 0 
119 120 0 
120 121 0 
121 122 0 
122 123 0 
123 124 0 
124 125 0 
125 126 0 
126 127 0 
127 128 0 
128 129 0 
129 130 0 
130 131 0 
131 132 0 
132 133 0 
133 134 0 
134 135 0 
135 136 0 
136 137 0 
137 138 0 
138 139 0 
139 140 0 
140 141 0 
141 142 0 
142 143 0 
143 144 0 
144 145 0 
145 146 0 
146 147 0 
147 148 0 
148 149 0 
149 150 0 
150 151 0 
151 152 0 
152 153 0 
153 154 0 
154 155 0 
155 156 0 
156 157 0 
157 158 0 
158 159 0 
159 160 0 
160 161 0 
161 162 0 
162 163 0 
163 164 0 
164 165 0 
165 166 0 
166 167 0 
167 168 0 
168 169 0 
169 170 0 
170 171 0 
171 172 0 
172 173 0 
173 174 0 
174 175 0 
175 176 0 
176 177 0 
177 178 0 
178 179 0 
179 180 0 
180 181 0 
181 182 0 
182 183 0 
183 184 0 
184 185 0 
185 186 0 
186 187 0 
187 188 0 
188 189 0 
189 190 0 
190 191 0 
191 192 0 
192 193 0 
193 194 0 
194 195 0 
195 196 0 
196 197 0 
197 198 0 
198 199 0 
199 200 0 
200 201 0 
201 202 0 
202 203 0 
203 204 0 
204 205 0 
205 206 0 
206 207 0 
207 208 0 
208 209 0 
209 210 0 
210 211 0 
211 212 0 
212 213 0 
213 214 0 
214 215 0 
215 216 0 
216 217 0 
217 218 0 
218 219 0 
219 220 0 
220 221 0 
221 222 0 
222 223 0 
223 224 0 
224 225 0 
225 226 0 
226 227 0 
227 228 0 
228 229 0 
229 230 0 
230 231 0 
231 232 0 
232 233 0 
233 234 0 
234 235 0 
235 236 0 
236 237 0 
237 238 0 
238 239 0 
239 240 0 
240 241 0 
241 242 0 
242 243 0 
243 244 0 
244 245 0 
245 246 0 
246 247 0 
247 248 0 
248 249 0 
249 250 0 
250 251 0 
251 252 0 
252 253 0 
253 254 0 
254 255 0 
255 256 0 
256 257 0 
257 258 0 
258 259 0 
259 260 0 
260 261 0 
261 262 0 
262 263 0 
263 264 0 
264 265 0 
265 266 0 
266 267 0 
267 268 0 
268 269 0 
269 270 0 
270 271 0 
271 272 0 
272 273 0 
273 274 0 
274 275 0 
275 276 0 
276 277 0 
277 278 0 
278 279 0 
279 280 0 
280 281 0 
281 282 0 
282 283 0 
283 284 0 
284 285 0 
285 286 0 
286 287 0 
287 288 0 
288 289 0 
289 290 0 
290 291 0 
291 292 0 
292 293 0 
293 294 0 
294 295 0 
295 296 0 
296 297 0 
297 298 0 
298 299 0 
-1 -1 0 
-1 300 0 1 2 3 4 5 6 7 8 9 10 11 12 13 14 15 16 17 18 19 20 21 22 23 24 25 26 27 28 29 30 31 32 33 34 35 36 37 38 39 40 41 42 43 44 45 46 47 48 49 50 51 52 53 54 55 56 57 58 59 60 61 62 63 64 65 66 67 68 69 70 71 72 73 74 75 76 77 78 79 80 81 82 83 84 85 86 87 88 89 90 91 92 93 94 95 96 97 98 99 100 101 102 103 104 105 106 107 108 109 110 111 112 113 114 115 116 117 118 119 120 121 122 123 124 125 126 127 128 129 130 131 132 133 134 135 136 137 138 139 140 141 142 143 144 145 146 147 148 149 150 151 152 153 154 155 156 157 158 159 160 161 162 163 164 165 166 167 168 169 170 171 172 173 174 175 176 177 178 179 180 181 182 183 184 185 186 187 188 189 190 191 192 193 194 195 196 197 198 199 200 201 202 203 204 205 206 207 208 209 210 211 212 213 214 215 216 217 218 219 220 221 222 223 224 225 226 227 228 229 230 231 232 233 234 235 236 237 238 239 240 241 242 243 244 245 246 247 248 249 250 251 252 253 254 255 256 257 258 259 260 261 262 263 264 265 266 267 268 269 270 271 272 273 274 275 276 277 278 279 280 281 282 283 284 285 286 287 288 289 290 291 292 293 294 295 296 297 298 299 
