ply
format ascii 1.0
comment written by koba@oshima.lab
element vertex 300
property float x
property float y
property float z
property int label
property int attribute
property float radius
property float curvature
property float torsion
element edge 300
property int vertex1
property int vertex2
property int label
element vertex_seq 1
property int label
property list int int vertex_indices
end_header
7.01789 26.0721 -12.9304 0 0 1.5 0.0135642 0.0325493 
6.80068 25.8157 -12.8378 0 0 1.5 0.0135 0.0334746 
6.58347 25.5594 -12.7453 0 0 1.5 0.0134347 0.0348513 
6.36626 25.303 -12.6528 0 0 1.5 0.013367 0.0367058 
6.14905 25.0466 -12.5602 0 0 1.5 0.0132205 0.0419304 
5.93184 24.7902 -12.4677 0 0 1.5 0.0131383 0.0453071 
5.71463 24.5338 -12.3752 0 0 1.5 0.0130473 0.0492594 
5.49742 24.2774 -12.2826 0 0 1.5 0.0129452 0.0538614 
5.28022 24.021 -12.1901 0 0 1.5 0.0126953 0.0648691 
5.06301 23.7646 -12.0976 0 0 1.5 0.0125378 0.0714738 
4.8458 23.5083 -12.0051 0 0 1.5 0.0123521 0.0791252 
4.62859 23.2519 -11.9125 0 0 1.5 0.0121329 0.0878814 
4.41138 22.9955 -11.82 0 0 1.5 0.0115644 0.109944 
4.19417 22.7391 -11.7275 0 0 1.5 0.0112002 0.124768 
3.97696 22.4827 -11.6349 0 0 1.5 0.0107738 0.143245 
3.75975 22.2263 -11.5424 0 0 1.5 0.00970781 0.198038 
3.54254 21.9699 -11.4499 0 0 1.5 0.00905965 0.241416 
3.32533 21.7135 -11.3574 0 0 1.5 0.00833565 0.303067 
3.10813 21.4572 -11.2648 0 0 1.5 0.00754656 0.393216 
2.89092 21.2008 -11.1723 0 0 1.5 0.00590205 0.736381 
2.67371 20.9444 -11.0798 0 0 1.5 0.00520551 1.02071 
2.4565 20.688 -10.9872 0 0 1.5 0.00481131 1.29307 
2.23929 20.4316 -10.8947 0 0 1.5 0.00493525 1.33769 
2.02208 20.1752 -10.8022 0 0 1.5 0.00695119 0.815392 
1.80487 19.9188 -10.7096 0 0 1.5 0.0086169 0.58833 
1.58766 19.6624 -10.6171 0 0 1.5 0.0105599 0.437238 
1.37045 19.406 -10.5246 0 0 1.5 0.015016 0.274438 
1.15324 19.1497 -10.4321 0 0 1.5 0.0174372 0.230304 
0.936035 18.8933 -10.3395 0 0 1.5 0.0199332 0.200106 
0.718825 18.6369 -10.247 0 0 1.5 0.0224698 0.179465 
0.501616 18.3805 -10.1545 0 0 1.5 0.0275252 0.155805 
0.284407 18.1241 -10.0619 0 0 1.5 0.029963 0.150222 
0.0671982 17.8677 -9.96941 0 0 1.5 0.0322897 0.147969 
-0.150011 17.6113 -9.87688 0 0 1.5 0.0344696 0.14841 
-0.36722 17.3549 -9.78435 0 0 1.5 0.0382357 0.156746 
-0.584429 17.0986 -9.69183 0 0 1.5 0.0397555 0.165094 
-0.801638 16.8422 -9.5993 0 0 1.5 0.0410001 0.176313 
-1.02242 16.5893 -9.50571 0 0 1.5 0.0419548 0.190583 
-1.24422 16.3373 -9.41181 0 0 1.5 0.0429903 0.231145 
-1.4714 16.0898 -9.31914 0 0 1.5 0.043108 0.258391 
-1.69953 15.843 -9.22691 0 0 1.5 0.0430249 0.290278 
-1.93374 15.6006 -9.13815 0 0 1.5 0.0426163 0.368044 
-2.16977 15.3595 -9.05087 0 0 1.5 0.0425538 0.410192 
-2.4118 15.1227 -8.96847 0 0 1.5 0.0428299 0.448126 
-2.65705 14.8881 -8.88927 0 0 1.5 0.043659 0.476235 
-2.90787 14.6576 -8.81564 0 0 1.5 0.047803 0.483012 
-3.16354 14.4308 -8.74758 0 0 1.5 0.0514413 0.458425 
-3.42392 14.2078 -8.68492 0 0 1.5 0.0562359 0.421271 
-3.6908 13.9904 -8.63085 0 0 1.5 0.0621985 0.378446 
-3.96094 13.7759 -8.58105 0 0 1.5 0.0774893 0.292834 
-4.23873 13.5689 -8.5435 0 0 1.5 0.0866755 0.255637 
-4.51832 13.3637 -8.50917 0 0 1.5 0.0967752 0.223725 
-4.80412 13.1652 -8.48933 0 0 1.5 0.119299 0.173615 
-5.09072 12.9675 -8.47499 0 0 1.5 0.131445 0.154316 
-5.37891 12.7715 -8.47184 0 0 1.5 0.143943 0.138189 
-5.66427 12.5718 -8.48028 0 0 1.5 0.15657 0.124662 
-5.94781 12.3697 -8.49551 0 0 1.5 0.181073 0.103627 
-6.21702 12.1511 -8.53018 0 0 1.5 0.192268 0.0954947 
-6.47317 11.92 -8.57454 0 0 1.5 0.202257 0.0887185 
-6.71383 11.6742 -8.6304 0 0 1.5 0.21067 0.083178 
-6.91254 11.3983 -8.70621 0 0 1.5 0.221458 0.0752335 
-7.08364 11.1087 -8.79151 0 0 1.5 0.223357 0.0727931 
-7.22532 10.8048 -8.88663 0 0 1.5 0.22282 0.0714473 
-7.31427 10.4862 -8.99553 0 0 1.5 0.214831 0.0720684 
-7.3831 10.165 -9.1095 0 0 1.5 0.20782 0.0742355 
-7.41952 9.84055 -9.23158 0 0 1.5 0.199247 0.0778539 
-7.42972 9.51795 -9.36152 0 0 1.5 0.189506 0.0831548 
-7.42539 9.19636 -9.49582 0 0 1.5 0.168076 0.100163 
-7.39235 8.88179 -9.6416 0 0 1.5 0.157181 0.112523 
-7.35421 8.56847 -9.78942 0 0 1.5 0.146703 0.128038 
-7.28751 8.2675 -9.95197 0 0 1.5 0.137055 0.147054 
-7.21866 7.96776 -10.1157 0 0 1.5 0.122201 0.192256 
-7.12536 7.68321 -10.2941 0 0 1.5 0.118191 0.213622 
-7.02952 7.40066 -10.4739 0 0 1.5 0.117355 0.228834 
-6.91299 7.1344 -10.6663 0 0 1.5 0.120354 0.233602 
-6.79352 6.87075 -10.8602 0 0 1.5 0.139932 0.210086 
-6.65679 6.62245 -11.063 0 0 1.5 0.157278 0.188981 
-6.51692 6.37683 -11.2667 0 0 1.5 0.180211 0.167236 
-6.36334 6.14296 -11.4745 0 0 1.5 0.245672 0.130363 
-6.20611 5.91113 -11.6818 0 0 1.5 0.290499 0.116356 
-6.03876 5.68499 -11.8876 0 0 1.5 0.345651 0.105188 
-5.86642 5.4581 -12.0881 0 0 1.5 0.413416 0.0965124 
-5.68752 5.23023 -12.2819 0 0 1.5 0.597345 0.0841586 
-5.50059 4.99236 -12.4544 0 0 1.5 0.717739 0.0796044 
-5.30808 4.74383 -12.6018 0 0 1.5 0.856404 0.0757693 
-5.10874 4.47576 -12.6929 0 0 1.5 1.00593 0.0717886 
-4.91684 4.19752 -12.6459 0 0 1.5 1.25789 0.0602469 
-4.77912 3.98713 -12.4182 0 0 1.5 1.30326 0.0526318 
-4.70147 3.87807 -12.1004 0 0 1.5 1.2701 0.0444592 
-4.65629 3.83571 -11.7576 0 0 1.5 1.02577 0.0305932 
-4.63229 3.85626 -11.4105 0 0 1.5 0.87199 0.0265744 
-4.61245 3.90075 -11.0663 0 0 1.5 0.726911 0.0245855 
-4.59677 3.96913 -10.7249 0 0 1.5 0.599726 0.0244295 
-4.58194 4.06677 -10.391 0 0 1.5 0.403675 0.0288614 
-4.56736 4.17303 -10.0594 0 0 1.5 0.330592 0.0337162 
-4.55047 4.30792 -9.73859 0 0 1.5 0.270293 0.0410886 
-4.53326 4.44596 -9.41906 0 0 1.5 0.220177 0.0519029 
-4.51249 4.60749 -9.11091 0 0 1.5 0.14247 0.0929889 
-4.49124 4.77176 -8.80435 0 0 1.5 0.111973 0.134549 
-4.46746 4.95049 -8.50608 0 0 1.5 0.0858431 0.20804 
-4.44334 5.13212 -8.20962 0 0 1.5 0.0471351 0.592717 
-4.41856 5.31944 -7.91676 0 0 1.5 0.0386946 0.828083 
-4.3946 5.50588 -7.62326 0 0 1.5 0.0417189 0.675258 
-4.37121 5.6917 -7.32932 0 0 1.5 0.0535583 0.389666 
-4.35038 5.86559 -7.02801 0 0 1.5 0.0881405 0.127499 
-4.33047 6.03024 -6.72176 0 0 1.5 0.107952 0.0774132 
-4.31199 6.17766 -6.40648 0 0 1.5 0.128964 0.047165 
-4.29286 6.29587 -6.07958 0 0 1.5 0.151106 0.0270087 
-4.27217 6.39255 -5.74611 0 0 1.5 0.198362 0.000485026 
-4.24786 6.45441 -5.40398 0 0 1.5 0.223026 -0.00932444 
-4.21667 6.4711 -5.05803 0 0 1.5 0.247812 -0.0181969 
-4.18028 6.45557 -4.71307 0 0 1.5 0.272005 -0.0267487 
-4.13673 6.39688 -4.37229 0 0 1.5 0.314709 -0.0428863 
-4.08467 6.28078 -4.04875 0 0 1.5 0.331018 -0.0504369 
-4.02865 6.12928 -3.74206 0 0 1.5 0.342495 -0.0576939 
-3.96874 5.9384 -3.45666 0 0 1.5 0.348064 -0.0701702 
-3.90805 5.69581 -3.21465 0 0 1.5 0.341909 -0.0749636 
-3.84956 5.4319 -2.99698 0 0 1.5 0.330424 -0.0787297 
-3.79422 5.14402 -2.80845 0 0 1.5 0.314551 -0.0814114 
-3.74791 4.83456 -2.65604 0 0 1.5 0.274331 -0.0833651 
-3.70619 4.51843 -2.51604 0 0 1.5 0.252219 -0.0826587 
-3.67593 4.19157 -2.3989 0 0 1.5 0.22998 -0.0809769 
-3.65416 3.86194 -2.28834 0 0 1.5 0.208251 -0.0783976 
-3.64099 3.52952 -2.18443 0 0 1.5 0.167888 -0.0695589 
-3.64194 3.197 -2.08031 0 0 1.5 0.149637 -0.0629921 
-3.64776 2.86446 -1.9761 0 0 1.5 0.132726 -0.0549779 
-3.67274 2.53585 -1.86274 0 0 1.5 0.102714 -0.0307756 
-3.70173 2.20859 -1.74676 0 0 1.5 0.0894376 -0.0120973 
-3.74651 1.88702 -1.62002 0 0 1.5 0.0771693 0.0133101 
-3.79748 1.56822 -1.48909 0 0 1.5 0.0658118 0.0499987 
-3.85882 1.25408 -1.35116 0 0 1.5 0.0456649 0.195324 
-3.92711 0.942879 -1.21004 0 0 1.5 0.0370032 0.341556 
-4.00087 0.634002 -1.06641 0 0 1.5 0.029696 0.580186 
-4.07973 0.325966 -0.923714 0 0 1.5 0.024585 0.898906 
-4.16043 0.0182348 -0.781357 0 0 1.5 0.025386 0.898124 
-4.24135 -0.292554 -0.645965 0 0 1.5 0.0309818 0.612493 
-4.32174 -0.604179 -0.512226 0 0 1.5 0.0384684 0.401943 
-4.39503 -0.922211 -0.389913 0 0 1.5 0.0470648 0.271799 
-4.46416 -1.24238 -0.271218 0 0 1.5 0.0662271 0.143643 
-4.52093 -1.56886 -0.163232 0 0 1.5 0.0764888 0.112496 
-4.56636 -1.8987 -0.0612694 0 0 1.5 0.0870908 0.092349 
-4.59752 -2.23276 0.0331326 0 0 1.5 0.109045 0.0709474 
-4.60695 -2.56952 0.120803 0 0 1.5 0.120233 0.0662369 
-4.60437 -2.90778 0.204758 0 0 1.5 0.131424 0.063926 
-4.56815 -3.24502 0.283688 0 0 1.5 0.142495 0.0632045 
-4.52386 -3.58169 0.361678 0 0 1.5 0.163675 0.0656667 
-4.43961 -3.91101 0.438676 0 0 1.5 0.173432 0.0682498 
-4.34561 -4.23695 0.516466 0 0 1.5 0.182401 0.0711529 
-4.22009 -4.55202 0.596815 0 0 1.5 0.190411 0.0743548 
-4.07939 -4.85915 0.67986 0 0 1.5 0.202905 0.0813794 
-3.91593 -5.1544 0.766946 0 0 1.5 0.207137 0.0846985 
-3.73432 -5.43646 0.859078 0 0 1.5 0.209917 0.0877913 
-3.53731 -5.70732 0.955491 0 0 1.5 0.211038 0.0931344 
-3.32093 -5.95928 1.05932 0 0 1.5 0.209465 0.0950365 
-3.09487 -6.2018 1.16685 0 0 1.5 0.206604 0.0963319 
-2.84924 -6.41864 1.2844 0 0 1.5 0.202584 0.0970007 
-2.59845 -6.62873 1.40459 0 0 1.5 0.191681 0.0965609 
-2.32876 -6.80449 1.53772 0 0 1.5 0.185136 0.0953933 
-2.0562 -6.97371 1.67324 0 0 1.5 0.178073 0.0935105 
-1.77009 -7.10586 1.82208 0 0 1.5 0.170628 0.0910568 
-1.48149 -7.22535 1.97524 0 0 1.5 0.155113 0.084644 
-1.18686 -7.3143 2.13882 0 0 1.5 0.14725 0.0804052 
-0.891406 -7.38188 2.3095 0 0 1.5 0.139419 0.0756043 
-0.595174 -7.42912 2.48696 0 0 1.5 0.124096 0.0646027 
-0.30202 -7.4502 2.67356 0 0 1.5 0.116692 0.0579327 
-0.00994334 -7.46212 2.86337 0 0 1.5 0.109496 0.0505529 
0.274996 -7.44942 3.06361 0 0 1.5 0.102528 0.0426544 
0.558272 -7.4333 3.2659 0 0 1.5 0.0893345 0.0241402 
0.835307 -7.40585 3.4756 0 0 1.5 0.0831261 0.013358 
1.11004 -7.37721 3.68809 0 0 1.5 0.0771763 0.00189332 
1.38131 -7.34677 3.90481 0 0 1.5 0.0714832 -0.0104786 
1.6509 -7.31993 4.12404 0 0 1.5 0.0608722 -0.0385862 
1.91943 -7.29536 4.34486 0 0 1.5 0.0559451 -0.0540299 
2.18832 -7.28004 4.56605 0 0 1.5 0.0512576 -0.0703917 
2.45746 -7.26729 4.78711 0 0 1.5 0.0468038 -0.0876709 
2.72958 -7.26592 5.00488 0 0 1.5 0.038551 -0.123991 
3.00319 -7.26711 5.22071 0 0 1.5 0.0347037 -0.142679 
3.2805 -7.27464 5.4317 0 0 1.5 0.0310094 -0.161632 
3.56094 -7.28381 5.63838 0 0 1.5 0.0239584 -0.206225 
3.84441 -7.29456 5.84088 0 0 1.5 0.0205239 -0.238458 
4.13224 -7.30285 6.03719 0 0 1.5 0.017103 -0.287594 
4.42179 -7.31018 6.23105 0 0 1.5 0.0136767 -0.378296 
4.71569 -7.30935 6.41836 0 0 1.5 0.00711964 -1.10875 
5.01024 -7.30669 6.60462 0 0 1.5 0.00512741 -2.11696 
5.30727 -7.29216 6.7864 0 0 1.5 0.00620615 -1.55315 
5.60433 -7.27437 6.96771 0 0 1.5 0.00976369 -0.718625 
5.90156 -7.24556 7.14744 0 0 1.5 0.0195755 -0.258131 
6.19801 -7.21191 7.32748 0 0 1.5 0.0252843 -0.187867 
6.49308 -7.1695 7.50807 0 0 1.5 0.031447 -0.14634 
6.7862 -7.122 7.69046 0 0 1.5 0.0450617 -0.100635 
7.0771 -7.06874 7.87489 0 0 1.5 0.0525004 -0.087001 
7.36489 -7.0118 8.06299 0 0 1.5 0.0603343 -0.0768761 
7.6504 -6.95216 8.25379 0 0 1.5 0.0685345 -0.0692543 
7.93157 -6.89242 8.45083 0 0 1.5 0.0859069 -0.0592754 
8.21089 -6.83264 8.65054 0 0 1.5 0.0949856 -0.0564469 
8.48448 -6.77984 8.85984 0 0 1.5 0.104238 -0.0547618 
8.75663 -6.72941 9.07159 0 0 1.5 0.113582 -0.0540608 
9.02181 -6.69661 9.29537 0 0 1.5 0.132155 -0.0550967 
9.28379 -6.67452 9.52356 0 0 1.5 0.141152 -0.0567225 
9.53955 -6.67327 9.76033 0 0 1.5 0.149774 -0.0590904 
9.78597 -6.70217 10.0041 0 0 1.5 0.165315 -0.0654288 
10.0264 -6.74927 10.2515 0 0 1.5 0.171965 -0.0693161 
10.2484 -6.84376 10.503 0 0 1.5 0.17769 -0.0737777 
10.4573 -6.96369 10.7533 0 0 1.5 0.182378 -0.0785662 
10.6529 -7.10908 11.0025 0 0 1.5 0.18841 -0.0883911 
10.8222 -7.29179 11.2457 0 0 1.5 0.189701 -0.0935629 
10.9818 -7.48561 11.4868 0 0 1.5 0.189857 -0.0986461 
11.1171 -7.70392 11.7224 0 0 1.5 0.188951 -0.103306 
11.2393 -7.93113 11.9561 0 0 1.5 0.184349 -0.111379 
11.3448 -8.16967 12.1873 0 0 1.5 0.180878 -0.114571 
11.4325 -8.41555 12.4176 0 0 1.5 0.176806 -0.116832 
11.5086 -8.66628 12.6475 0 0 1.5 0.172267 -0.118073 
11.5634 -8.92143 12.8781 0 0 1.5 0.162245 -0.117168 
11.6096 -9.17838 13.109 0 0 1.5 0.156956 -0.11487 
11.6314 -9.43664 13.3417 0 0 1.5 0.151589 -0.111153 
11.6468 -9.69523 13.5748 0 0 1.5 0.140807 -0.0989992 
11.6346 -9.95189 13.8101 0 0 1.5 0.135448 -0.0906279 
11.6184 -10.2083 14.0456 0 0 1.5 0.130128 -0.0804797 
11.5714 -10.459 14.2831 0 0 1.5 0.124845 -0.0682414 
11.5201 -10.7084 14.5208 0 0 1.5 0.114352 -0.0383936 
11.4424 -10.9496 14.7602 0 0 1.5 0.109137 -0.0204864 
11.3564 -11.1866 15.0004 0 0 1.5 0.103941 0.000211402 
11.252 -11.4144 15.2427 0 0 1.5 0.0987699 0.0236183 
11.1349 -11.632 15.4881 0 0 1.5 0.0885931 0.078981 
11.0086 -11.8421 15.7358 0 0 1.5 0.0836647 0.112555 
10.8674 -12.0317 15.9918 0 0 1.5 0.0789189 0.150159 
10.7217 -12.2107 16.2526 0 0 1.5 0.0703085 0.234806 
10.5698 -12.3735 16.5207 0 0 1.5 0.0666475 0.279951 
10.4148 -12.5152 16.7987 0 0 1.5 0.0635645 0.323277 
10.2592 -12.6465 17.0815 0 0 1.5 0.0611599 0.360337 
10.1035 -12.7693 17.3681 0 0 1.5 0.0586316 0.399138 
9.9473 -12.8927 17.6542 0 0 1.5 0.0585046 0.396744 
9.78849 -13.0343 17.93 0 0 1.5 0.0590373 0.381493 
9.62674 -13.2026 18.1874 0 0 1.5 0.060096 0.356451 
9.46255 -13.402 18.4197 0 0 1.5 0.0631128 0.2925 
9.29779 -13.6455 18.6069 0 0 1.5 0.0647304 0.260764 
9.13791 -13.9187 18.7485 0 0 1.5 0.066221 0.231251 
8.98007 -14.2043 18.8709 0 0 1.5 0.0674518 0.204434 
8.82224 -14.4899 18.9933 0 0 1.5 0.0687275 0.160881 
8.6644 -14.7755 19.1157 0 0 1.5 0.0686562 0.143709 
8.50656 -15.0612 19.2382 0 0 1.5 0.0680642 0.128922 
8.34872 -15.3468 19.3606 0 0 1.5 0.0652956 0.106249 
8.19089 -15.6324 19.483 0 0 1.5 0.0631746 0.0978506 
8.03305 -15.918 19.6054 0 0 1.5 0.0606174 0.0909466 
7.87521 -16.2036 19.7278 0 0 1.5 0.0576736 0.0854732 
7.71737 -16.4893 19.8502 0 0 1.5 0.0508727 0.0786737 
7.55954 -16.7749 19.9726 0 0 1.5 0.047144 0.0771316 
7.4017 -17.0605 20.0951 0 0 1.5 0.0432803 0.0769132 
7.24386 -17.3461 20.2175 0 0 1.5 0.039339 0.0782702 
7.08603 -17.6317 20.3399 0 0 1.5 0.0314407 0.0868434 
6.92819 -17.9173 20.4623 0 0 1.5 0.027585 0.0952363 
6.77035 -18.203 20.5847 0 0 1.5 0.0238456 0.108039 
6.61251 -18.4886 20.7071 0 0 1.5 0.0168572 0.157279 
6.45468 -18.7742 20.8295 0 0 1.5 0.0136804 0.205106 
6.29684 -19.0598 20.952 0 0 1.5 0.0107578 0.286974 
6.139 -19.3454 21.0744 0 0 1.5 0.00813569 0.437085 
5.98116 -19.6311 21.1968 0 0 1.5 0.00426602 1.2257 
5.82333 -19.9167 21.3192 0 0 1.5 0.00357144 1.55004 
5.66549 -20.2023 21.4416 0 0 1.5 0.00393299 1.13847 
5.50765 -20.4879 21.564 0 0 1.5 0.00486026 0.665618 
5.34982 -20.7735 21.6864 0 0 1.5 0.00687503 0.268416 
5.19198 -21.0592 21.8088 0 0 1.5 0.00770478 0.19305 
5.03414 -21.3448 21.9313 0 0 1.5 0.00836887 0.147778 
4.8763 -21.6304 22.0537 0 0 1.5 0.00918584 0.100618 
4.71847 -21.916 22.1761 0 0 1.5 0.00935361 0.0881454 
4.56063 -22.2016 22.2985 0 0 1.5 0.00937605 0.0795316 
4.40279 -22.4873 22.4209 0 0 1.5 0.00926626 0.0737927 
4.24495 -22.7729 22.5433 0 0 1.5 0.00870771 0.0689276 
4.08712 -23.0585 22.6657 0 0 1.5 0.00828929 0.0688884 
3.92928 -23.3441 22.7882 0 0 1.5 0.0077984 0.070423 
3.77144 -23.6297 22.9106 0 0 1.5 0.0072487 0.073889 
3.61361 -23.9154 23.033 0 0 1.5 0.00602704 0.0876288 
3.45577 -24.201 23.1554 0 0 1.5 0.00538207 0.0993453 
3.29793 -24.4866 23.2778 0 0 1.5 0.00472936 0.116615 
3.14009 -24.7722 23.4002 0 0 1.5 0.00407931 0.142219 
2.98226 -25.0578 23.5226 0 0 1.5 0.00283193 0.242856 
2.82442 -25.3435 23.6451 0 0 1.5 0.00225693 0.348879 
2.66658 -25.6291 23.7675 0 0 1.5 0.00173401 0.541337 
2.50874 -25.9147 23.8899 0 0 1.5 0.00099585 1.38749 
2.35091 -26.2003 24.0123 0 0 1.5 0.000923444 1.49382 
2.19307 -26.4859 24.1347 0 0 1.5 0.00107162 1.03078 
2.03523 -26.7715 24.2571 0 0 1.5 0.00133238 0.620796 
1.8774 -27.0572 24.3795 0 0 1.5 0.0019102 0.2647 
1.71956 -27.3428 24.5019 0 0 1.5 0.00217789 0.191603 
1.56172 -27.6284 24.6244 0 0 1.5 0.00242128 0.145907 
1.40388 -27.914 24.7468 0 0 1.5 0.00263854 0.115739 
1.24605 -28.1996 24.8692 0 0 1.5 0.00299745 0.0798901 
1.08821 -28.4853 24.9916 0 0 1.5 0.00314252 0.0684401 
0.930372 -28.7709 25.114 0 0 1.5 0.00326752 0.0595034 
0.772534 -29.0565 25.2364 0 0 1.5 0.00346608 0.0466089 
0.614697 -29.3421 25.3588 0 0 1.5 0.00354425 0.0416575 
0.45686 -29.6277 25.4813 0 0 1.5 0.00361137 0.0374076 
0.299022 -29.9134 25.6037 0 0 1.5 0.00366911 0.0337868 
0.141185 -30.199 25.7261 0 0 1.5 0.00376278 0.0278626 
-0.0166521 -30.4846 25.8485 0 0 1.5 0.00380176 0.0254256 
-0.174489 -30.7702 25.9709 0 0 1.5 0.00383688 0.023346 
-0.332327 -31.0558 26.0933 0 0 1.5 0.00386888 0.0215796 
-0.490164 -31.3415 26.2157 0 0 1.5 0.00392652 0.0188669 
-0.648001 -31.6271 26.3382 0 0 1.5 0.00395328 0.0179095 
-0.805838 -31.9127 26.4606 0 0 1.5 0.00397916 0.0172015 
0 1 0 
1 2 0 
2 3 0 
3 4 0 
4 5 0 
5 6 0 
6 7 0 
7 8 0 
8 9 0 
9 10 0 
10 11 0 
11 12 0 
12 13 0 
13 14 0 
14 15 0 
15 16 0 
16 17 0 
17 18 0 
18 19 0 
19 20 0 
20 21 0 
21 22 0 
22 23 0 
23 24 0 
24 25 0 
25 26 0 
26 27 0 
27 28 0 
28 29 0 
29 30 0 
30 31 0 
31 32 0 
32 33 0 
33 34 0 
34 35 0 
35 36 0 
36 37 0 
37 38 0 
38 39 0 
39 40 0 
40 41 0 
41 42 0 
42 43 0 
43 44 0 
44 45 0 
45 46 0 
46 47 0 
47 48 0 
48 49 0 
49 50 0 
50 51 0 
51 52 0 
52 53 0 
53 54 0 
54 55 0 
55 56 0 
56 57 0 
57 58 0 
58 59 0 
59 60 0 
60 61 0 
61 62 0 
62 63 0 
63 64 0 
64 65 0 
65 66 0 
66 67 0 
67 68 0 
68 69 0 
69 70 0 
70 71 0 
71 72 0 
72 73 0 
73 74 0 
74 75 0 
75 76 0 
76 77 0 
77 78 0 
78 79 0 
79 80 0 
80 81 0 
81 82 0 
82 83 0 
83 84 0 
84 85 0 
85 86 0 
86 87 0 
87 88 0 
88 89 0 
89 90 0 
90 91 0 
91 92 0 
92 93 0 
93 94 0 
94 95 0 
95 96 0 
96 97 0 
97 98 0 
98 99 0 
99 100 0 
100 101 0 
101 102 0 
102 103 0 
103 104 0 
104 105 0 
105 106 0 
106 107 0 
107 108 0 
108 109 0 
109 110 0 
110 111 0 
111 112 0 
112 113 0 
113 114 0 
114 115 0 
115 116 0 
116 117 0 
117 118 0 
118 119 0 
119 120 0 
120 121 0 
121 122 0 
122 123 0 
123 124 0 
124 125 0 
125 126 0 
126 127 0 
127 128 0 
128 129 0 
129 130 0 
130 131 0 
131 132 0 
132 133 0 
133 134 0 
134 135 0 
135 136 0 
136 137 0 
137 138 0 
138 139 0 
139 140 0 
140 141 0 
141 142 0 
142 143 0 
143 144 0 
144 145 0 
145 146 0 
146 147 0 
147 148 0 
148 149 0 
149 150 0 
150 151 0 
151 152 0 
152 153 0 
153 154 0 
154 155 0 
155 156 0 
156 157 0 
157 158 0 
158 159 0 
159 160 0 
160 161 0 
161 162 0 
162 163 0 
163 164 0 
164 165 0 
165 166 0 
166 167 0 
167 168 0 
168 169 0 
169 170 0 
170 171 0 
171 172 0 
172 173 0 
173 174 0 
174 175 0 
175 176 0 
176 177 0 
177 178 0 
178 179 0 
179 180 0 
180 181 0 
181 182 0 
182 183 0 
183 184 0 
184 185 0 
185 186 0 
186 187 0 
187 188 0 
188 189 0 
189 190 0 
190 191 0 
191 192 0 
192 193 0 
193 194 0 
194 195 0 
195 196 0 
196 197 0 
197 198 0 
198 199 0 
199 200 0 
200 201 0 
201 202 0 
202 203 0 
203 204 0 
204 205 0 
205 206 0 
206 207 0 
207 208 0 
208 209 0 
209 210 0 
210 211 0 
211 212 0 
212 213 0 
213 214 0 
214 215 0 
215 216 0 
216 217 0 
217 218 0 
218 219 0 
219 220 0 
220 221 0 
221 222 0 
222 223 0 
223 224 0 
224 225 0 
225 226 0 
226 227 0 
227 228 0 
228 229 0 
229 230 0 
230 231 0 
231 232 0 
232 233 0 
233 234 0 
234 235 0 
235 236 0 
236 237 0 
237 238 0 
238 239 0 
239 240 0 
240 241 0 
241 242 0 
242 243 0 
243 244 0 
244 245 0 
245 246 0 
246 247 0 
247 248 0 
248 249 0 
249 250 0 
250 251 0 
251 252 0 
252 253 0 
253 254 0 
254 255 0 
255 256 0 
256 257 0 
257 258 0 
258 259 0 
259 260 0 
260 261 0 
261 262 0 
262 263 0 
263 264 0 
264 265 0 
265 266 0 
266 267 0 
267 268 0 
268 269 0 
269 270 0 
270 271 0 
271 272 0 
272 273 0 
273 274 0 
274 275 0 
275 276 0 
276 277 0 
277 278 0 
278 279 0 
279 280 0 
280 281 0 
281 282 0 
282 283 0 
283 284 0 
284 285 0 
285 286 0 
286 287 0 
287 288 0 
288 289 0 
289 290 0 
290 291 0 
291 292 0 
292 293 0 
293 294 0 
294 295 0 
295 296 0 
296 297 0 
297 298 0 
298 299 0 
-1 -1 0 
-1 300 0 1 2 3 4 5 6 7 8 9 10 11 12 13 14 15 16 17 18 19 20 21 22 23 24 25 26 27 28 29 30 31 32 33 34 35 36 37 38 39 40 41 42 43 44 45 46 47 48 49 50 51 52 53 54 55 56 57 58 59 60 61 62 63 64 65 66 67 68 69 70 71 72 73 74 75 76 77 78 79 80 81 82 83 84 85 86 87 88 89 90 91 92 93 94 95 96 97 98 99 100 101 102 103 104 105 106 107 108 109 110 111 112 113 114 115 116 117 118 119 120 121 122 123 124 125 126 127 128 129 130 131 132 133 134 135 136 137 138 139 140 141 142 143 144 145 146 147 148 149 150 151 152 153 154 155 156 157 158 159 160 161 162 163 164 165 166 167 168 169 170 171 172 173 174 175 176 177 178 179 180 181 182 183 184 185 186 187 188 189 190 191 192 193 194 195 196 197 198 199 200 201 202 203 204 205 206 207 208 209 210 211 212 213 214 215 216 217 218 219 220 221 222 223 224 225 226 227 228 229 230 231 232 233 234 235 236 237 238 239 240 241 242 243 244 245 246 247 248 249 250 251 252 253 254 255 256 257 258 259 260 261 262 263 264 265 266 267 268 269 270 271 272 273 274 275 276 277 278 279 280 281 282 283 284 285 286 287 288 289 290 291 292 293 294 295 296 297 298 299 
