ply
format ascii 1.0
comment written by koba@oshima.lab
element vertex 300
property float x
property float y
property float z
property int label
property int attribute
property float radius
property float curvature
property float torsion
element edge 300
property int vertex1
property int vertex2
property int label
element vertex_seq 1
property int label
property list int int vertex_indices
end_header
2.32795 28.5031 -9.27502 0 0 1.5 0.0156933 0.0656391 
2.18268 28.1966 -9.16777 0 0 1.5 0.0157253 0.0660136 
2.03742 27.89 -9.06052 0 0 1.5 0.0157634 0.0671215 
1.89215 27.5834 -8.95327 0 0 1.5 0.0158086 0.0689293 
1.74689 27.2768 -8.84603 0 0 1.5 0.0159258 0.0744005 
1.60162 26.9702 -8.73878 0 0 1.5 0.0159993 0.0778543 
1.45636 26.6636 -8.63153 0 0 1.5 0.0160829 0.081729 
1.31109 26.357 -8.52428 0 0 1.5 0.0161771 0.0859893 
1.16583 26.0504 -8.41703 0 0 1.5 0.0163938 0.094783 
1.02056 25.7439 -8.30978 0 0 1.5 0.0165084 0.0992643 
0.875297 25.4373 -8.20254 0 0 1.5 0.0166218 0.103935 
0.730032 25.1307 -8.09529 0 0 1.5 0.0167292 0.108605 
0.584767 24.8241 -7.98804 0 0 1.5 0.0168859 0.118221 
0.439502 24.5175 -7.88079 0 0 1.5 0.0169142 0.123897 
0.294237 24.2109 -7.77354 0 0 1.5 0.0168951 0.13035 
0.148972 23.9043 -7.66629 0 0 1.5 0.0166563 0.147251 
0.00370699 23.5977 -7.55905 0 0 1.5 0.0164093 0.159441 
-0.141558 23.2912 -7.4518 0 0 1.5 0.0160625 0.175221 
-0.286823 22.9846 -7.34455 0 0 1.5 0.0156055 0.195869 
-0.432088 22.678 -7.2373 0 0 1.5 0.0143472 0.262192 
-0.577353 22.3714 -7.13005 0 0 1.5 0.0135651 0.31482 
-0.722618 22.0648 -7.0228 0 0 1.5 0.0127261 0.385869 
-0.867883 21.7582 -6.91556 0 0 1.5 0.0119015 0.479142 
-1.01315 21.4516 -6.80831 0 0 1.5 0.0108316 0.697883 
-1.15841 21.1451 -6.70106 0 0 1.5 0.0109831 0.752872 
-1.30368 20.8385 -6.59381 0 0 1.5 0.0118507 0.722632 
-1.44894 20.5319 -6.48656 0 0 1.5 0.0159361 0.509644 
-1.59421 20.2253 -6.37931 0 0 1.5 0.0190369 0.405843 
-1.73947 19.9187 -6.27207 0 0 1.5 0.0227303 0.325034 
-1.88474 19.6121 -6.16482 0 0 1.5 0.0269572 0.265307 
-2.03 19.3055 -6.05757 0 0 1.5 0.03687 0.188659 
-2.17527 18.9989 -5.95032 0 0 1.5 0.0425018 0.164499 
-2.32053 18.6924 -5.84307 0 0 1.5 0.0485631 0.146605 
-2.4658 18.3858 -5.73582 0 0 1.5 0.0550441 0.133065 
-2.61106 18.0792 -5.62857 0 0 1.5 0.0691779 0.114928 
-2.75633 17.7726 -5.52133 0 0 1.5 0.0767793 0.109339 
-2.90861 17.4689 -5.41628 0 0 1.5 0.0846944 0.105334 
-3.07423 17.1705 -5.31544 0 0 1.5 0.0928726 0.102531 
-3.24609 16.8745 -5.21904 0 0 1.5 0.109744 0.100362 
-3.42891 16.5823 -5.13047 0 0 1.5 0.118262 0.100698 
-3.61745 16.292 -5.04904 0 0 1.5 0.126692 0.101693 
-3.81546 16.0047 -4.97944 0 0 1.5 0.142736 0.105934 
-4.01934 15.7193 -4.92167 0 0 1.5 0.150038 0.109105 
-4.23089 15.4364 -4.87938 0 0 1.5 0.156653 0.112777 
-4.44884 15.1566 -4.85872 0 0 1.5 0.162427 0.117015 
-4.67158 14.8791 -4.85424 0 0 1.5 0.170885 0.127349 
-4.89968 14.6092 -4.89043 0 0 1.5 0.17336 0.133253 
-5.12865 14.3437 -4.94626 0 0 1.5 0.174593 0.139683 
-5.35613 14.0909 -5.05087 0 0 1.5 0.174578 0.146736 
-5.57541 13.852 -5.19381 0 0 1.5 0.171033 0.161921 
-5.78712 13.6243 -5.36565 0 0 1.5 0.167759 0.169795 
-5.97911 13.4177 -5.58258 0 0 1.5 0.1637 0.177861 
-6.15558 13.2222 -5.82077 0 0 1.5 0.153975 0.193503 
-6.32081 13.0344 -6.07372 0 0 1.5 0.148707 0.200567 
-6.46426 12.8539 -6.34471 0 0 1.5 0.143415 0.206863 
-6.5998 12.6718 -6.61848 0 0 1.5 0.138259 0.212018 
-6.72554 12.4875 -6.89569 0 0 1.5 0.128887 0.217386 
-6.84129 12.2932 -7.17028 0 0 1.5 0.124873 0.21705 
-6.95346 12.0942 -7.44296 0 0 1.5 0.121395 0.214523 
-7.05825 11.8803 -7.70731 0 0 1.5 0.118485 0.209871 
-7.16014 11.6588 -7.96621 0 0 1.5 0.114392 0.194619 
-7.2584 11.4278 -8.21833 0 0 1.5 0.113191 0.184756 
-7.35138 11.1862 -8.46229 0 0 1.5 0.112523 0.174213 
-7.44218 10.9407 -8.70326 0 0 1.5 0.112686 0.152326 
-7.52275 10.6857 -8.93797 0 0 1.5 0.113483 0.141742 
-7.59791 10.429 -9.17245 0 0 1.5 0.11475 0.131961 
-7.66138 10.1685 -9.4064 0 0 1.5 0.116501 0.123078 
-7.70948 9.90725 -9.64275 0 0 1.5 0.121579 0.108244 
-7.747 9.64543 -9.88075 0 0 1.5 0.125027 0.102405 
-7.75414 9.38607 -10.1239 0 0 1.5 0.129194 0.0975835 
-7.75152 9.12795 -10.3684 0 0 1.5 0.134194 0.0937349 
-7.71176 8.87622 -10.6167 0 0 1.5 0.147289 0.0882626 
-7.65713 8.62817 -10.8649 0 0 1.5 0.155759 0.0864266 
-7.57326 8.38732 -11.1131 0 0 1.5 0.165803 0.0851722 
-7.46846 8.15285 -11.3583 0 0 1.5 0.177683 0.0842869 
-7.34319 7.92459 -11.6008 0 0 1.5 0.20819 0.0831418 
-7.19554 7.70368 -11.8367 0 0 1.5 0.227516 0.0830438 
-7.03411 7.48729 -12.0685 0 0 1.5 0.250089 0.0832071 
-6.8509 7.27746 -12.2892 0 0 1.5 0.306716 0.084155 
-6.65833 7.07046 -12.5052 0 0 1.5 0.341584 0.0851235 
-6.44343 6.86821 -12.7035 0 0 1.5 0.381199 0.0864257 
-6.22282 6.66719 -12.8972 0 0 1.5 0.425561 0.087976 
-5.97536 6.46858 -13.0581 0 0 1.5 0.525889 0.0915662 
-5.7181 6.27021 -13.2004 0 0 1.5 0.578417 0.0933985 
-5.44234 6.07223 -13.307 0 0 1.5 0.628477 0.0949952 
-5.14586 5.87897 -13.3326 0 0 1.5 0.671704 0.0959879 
-4.85084 5.70421 -13.2586 0 0 1.5 0.718513 0.0950275 
-4.59189 5.571 -13.0661 0 0 1.5 0.715155 0.0930236 
-4.39194 5.48748 -12.7895 0 0 1.5 0.693215 0.0901551 
-4.24078 5.44065 -12.4727 0 0 1.5 0.606179 0.0833855 
-4.12288 5.41762 -12.1377 0 0 1.5 0.550592 0.0805043 
-4.03871 5.41823 -11.7921 0 0 1.5 0.493076 0.0784628 
-3.96498 5.42634 -11.4444 0 0 1.5 0.43688 0.077581 
-3.90368 5.4434 -11.0943 0 0 1.5 0.335661 0.0805375 
-3.85612 5.47079 -10.7428 0 0 1.5 0.292112 0.0850406 
-3.81376 5.5021 -10.391 0 0 1.5 0.253304 0.0922484 
-3.78633 5.5446 -10.0388 0 0 1.5 0.218897 0.102931 
-3.76665 5.59248 -9.68698 0 0 1.5 0.1616 0.139999 
-3.75855 5.64837 -9.33568 0 0 1.5 0.137893 0.171158 
-3.76623 5.71343 -8.98616 0 0 1.5 0.117052 0.215897 
-3.78076 5.78247 -8.63742 0 0 1.5 0.0835913 0.37007 
-3.81969 5.8621 -8.29283 0 0 1.5 0.0713637 0.48751 
-3.86554 5.94326 -7.94963 0 0 1.5 0.0628936 0.61216 
-3.92785 6.02807 -7.60974 0 0 1.5 0.0589511 0.68892 
-4.00123 6.11169 -7.27191 0 0 1.5 0.0652224 0.569316 
-4.08259 6.19445 -6.93556 0 0 1.5 0.0738722 0.452513 
-4.17455 6.26838 -6.59993 0 0 1.5 0.0848087 0.352435 
-4.26875 6.33785 -6.264 0 0 1.5 0.0972768 0.275954 
-4.36592 6.39093 -5.92586 0 0 1.5 0.124855 0.177079 
-4.45955 6.42917 -5.58509 0 0 1.5 0.139251 0.145171 
-4.54955 6.45214 -5.24162 0 0 1.5 0.153614 0.120082 
-4.62174 6.43633 -4.89385 0 0 1.5 0.167566 0.0994581 
-4.67895 6.39383 -4.54672 0 0 1.5 0.192534 0.0672474 
-4.71647 6.31746 -4.20124 0 0 1.5 0.202684 0.0538299 
-4.71417 6.17978 -3.87343 0 0 1.5 0.210694 0.0411466 
-4.68879 6.00779 -3.56535 0 0 1.5 0.218925 0.0177867 
-4.64345 5.80589 -3.27662 0 0 1.5 0.218824 0.00677084 
-4.57437 5.56637 -3.02272 0 0 1.5 0.215934 -0.00422494 
-4.49822 5.31105 -2.78798 0 0 1.5 0.210454 -0.0150809 
-4.4167 5.04374 -2.56775 0 0 1.5 0.193224 -0.0360283 
-4.33472 4.76061 -2.36865 0 0 1.5 0.182378 -0.0464718 
-4.25387 4.47432 -2.17356 0 0 1.5 0.170661 -0.0569215 
-4.18008 4.17881 -1.98963 0 0 1.5 0.158503 -0.067283 
-4.11056 3.88149 -1.80712 0 0 1.5 0.134296 -0.0877275 
-4.05093 3.57996 -1.62788 0 0 1.5 0.122801 -0.0976765 
-3.99875 3.27746 -1.44818 0 0 1.5 0.111958 -0.10728 
-3.95677 2.97361 -1.26787 0 0 1.5 0.0926608 -0.123222 
-3.92462 2.67001 -1.08538 0 0 1.5 0.0843303 -0.128247 
-3.90128 2.36663 -0.900939 0 0 1.5 0.0768858 -0.13061 
-3.88881 2.06448 -0.713654 0 0 1.5 0.0702992 -0.129065 
-3.88253 1.76303 -0.524749 0 0 1.5 0.059526 -0.109235 
-3.88625 1.46273 -0.334027 0 0 1.5 0.055199 -0.0903386 
-3.89313 1.1628 -0.142732 0 0 1.5 0.0514609 -0.0647539 
-3.90687 0.86224 0.0471877 0 0 1.5 0.0482279 -0.0319305 
-3.92144 0.561329 0.236492 0 0 1.5 0.0429651 0.0511022 
-3.93725 0.256682 0.419631 0 0 1.5 0.0408004 0.099677 
-3.95181 -0.0498833 0.599525 0 0 1.5 0.0388954 0.152635 
-3.96294 -0.361773 0.770407 0 0 1.5 0.0372444 0.208542 
-3.9695 -0.678049 0.932915 0 0 1.5 0.0348015 0.320179 
-3.97118 -0.999005 1.08649 0 0 1.5 0.0341133 0.370068 
-3.96408 -1.32636 1.22526 0 0 1.5 0.0338743 0.41008 
-3.95356 -1.6562 1.35827 0 0 1.5 0.0350293 0.44426 
-3.9307 -1.99286 1.47104 0 0 1.5 0.0365118 0.437077 
-3.90506 -2.33067 1.57941 0 0 1.5 0.0386091 0.416988 
-3.86976 -2.67222 1.67265 0 0 1.5 0.0413022 0.38823 
-3.83028 -3.01471 1.76024 0 0 1.5 0.048312 0.323069 
-3.78451 -3.35859 1.8393 0 0 1.5 0.0525305 0.292224 
-3.73324 -3.70276 1.91328 0 0 1.5 0.0571655 0.263844 
-3.67801 -4.04715 1.98361 0 0 1.5 0.0621771 0.238594 
-3.61573 -4.3908 2.0515 0 0 1.5 0.073188 0.197525 
-3.55098 -4.73418 2.11854 0 0 1.5 0.079124 0.180779 
-3.47669 -5.07537 2.18679 0 0 1.5 0.0853056 0.166219 
-3.40103 -5.41624 2.25523 0 0 1.5 0.0982752 0.14265 
-3.31206 -5.75282 2.32869 0 0 1.5 0.104989 0.132955 
-3.22107 -6.0886 2.40306 0 0 1.5 0.111794 0.124429 
-3.11547 -6.41859 2.48401 0 0 1.5 0.118637 0.116959 
-3.00495 -6.74627 2.56711 0 0 1.5 0.132181 0.104677 
-2.87893 -7.06665 2.65697 0 0 1.5 0.13874 0.0996586 
-2.74392 -7.38201 2.75034 0 0 1.5 0.145045 0.0952949 
-2.59357 -7.68882 2.84965 0 0 1.5 0.151003 0.091545 
-2.42854 -7.9858 2.95385 0 0 1.5 0.161532 0.0856575 
-2.24992 -8.27368 3.06256 0 0 1.5 0.16592 0.0834254 
-2.04915 -8.54339 3.17738 0 0 1.5 0.169608 0.0816062 
-1.8389 -8.80531 3.29483 0 0 1.5 0.174655 0.0789483 
-1.59796 -9.03536 3.4191 0 0 1.5 0.175929 0.0780483 
-1.34871 -9.25497 3.54489 0 0 1.5 0.176337 0.0773321 
-1.07311 -9.43857 3.67502 0 0 1.5 0.175898 0.0766733 
-0.785523 -9.59941 3.80629 0 0 1.5 0.172634 0.0753651 
-0.483585 -9.73298 3.93892 0 0 1.5 0.169913 0.0745957 
-0.168654 -9.82908 4.07166 0 0 1.5 0.166571 0.0735922 
0.150924 -9.91178 4.20444 0 0 1.5 0.162703 0.0722723 
0.479182 -9.94914 4.3365 0 0 1.5 0.153741 0.0683338 
0.807883 -9.97857 4.46868 0 0 1.5 0.148815 0.0654912 
1.13804 -9.97982 4.60132 0 0 1.5 0.143694 0.0618986 
1.46729 -9.97133 4.73539 0 0 1.5 0.138443 0.0574144 
1.79515 -9.94803 4.87164 0 0 1.5 0.127745 0.0458865 
2.12042 -9.91732 5.01232 0 0 1.5 0.122374 0.0386931 
2.44363 -9.88071 5.15654 0 0 1.5 0.117024 0.0302826 
2.76224 -9.84171 5.30991 0 0 1.5 0.106435 0.0107588 
3.07907 -9.80178 5.46683 0 0 1.5 0.101193 -0.000286611 
3.38823 -9.7659 5.63917 0 0 1.5 0.0959831 -0.0125073 
3.69502 -9.73168 5.81591 0 0 1.5 0.0908002 -0.0255726 
3.99264 -9.7046 6.00901 0 0 1.5 0.0804583 -0.0533681 
4.28474 -9.68085 6.21043 0 0 1.5 0.0752778 -0.0687581 
4.56988 -9.6613 6.42237 0 0 1.5 0.0700821 -0.0852172 
4.84575 -9.64269 6.64616 0 0 1.5 0.06486 -0.102744 
5.11768 -9.62302 6.87472 0 0 1.5 0.0542993 -0.144456 
5.38236 -9.59591 7.11095 0 0 1.5 0.0489487 -0.17153 
5.64542 -9.55808 7.34733 0 0 1.5 0.0435488 -0.206214 
5.90716 -9.51156 7.58382 0 0 1.5 0.0326305 -0.325401 
6.17148 -9.43889 7.81059 0 0 1.5 0.0271796 -0.442879 
6.43849 -9.35442 8.0294 0 0 1.5 0.0219022 -0.652586 
6.70961 -9.25247 8.23604 0 0 1.5 0.0171683 -1.03608 
6.98752 -9.1325 8.42244 0 0 1.5 0.0135432 -1.71683 
7.26846 -9.00576 8.59996 0 0 1.5 0.0167789 -1.18622 
7.5576 -8.86685 8.75392 0 0 1.5 0.0224316 -0.723339 
7.85029 -8.72674 8.8994 0 0 1.5 0.0294677 -0.468247 
8.14866 -8.5847 9.03129 0 0 1.5 0.0461639 -0.24786 
8.45229 -8.44665 9.15488 0 0 1.5 0.0555849 -0.196668 
8.75958 -8.31139 9.27269 0 0 1.5 0.0656892 -0.16267 
9.07289 -8.18779 9.38713 0 0 1.5 0.0879963 -0.12055 
9.38825 -8.06816 9.50042 0 0 1.5 0.100214 -0.10666 
9.70906 -7.96962 9.61833 0 0 1.5 0.113141 -0.0957363 
10.0307 -7.87453 9.73712 0 0 1.5 0.126761 -0.0869213 
10.3546 -7.81108 9.86986 0 0 1.5 0.155842 -0.0735199 
10.6779 -7.75474 10.0063 0 0 1.5 0.171076 -0.0683164 
10.9981 -7.73097 10.1597 0 0 1.5 0.186531 -0.0639439 
11.3137 -7.72419 10.3218 0 0 1.5 0.201948 -0.0603307 
11.6218 -7.74584 10.4985 0 0 1.5 0.231252 -0.0547696 
11.9175 -7.79617 10.6878 0 0 1.5 0.244252 -0.0527907 
12.2048 -7.86603 10.8858 0 0 1.5 0.255506 -0.05146 
12.4691 -7.97537 11.0963 0 0 1.5 0.264524 -0.0507058 
12.7269 -8.09543 11.3098 0 0 1.5 0.274132 -0.0509496 
12.9543 -8.25809 11.5298 0 0 1.5 0.274182 -0.0521803 
13.1726 -8.43179 11.7494 0 0 1.5 0.270986 -0.0542325 
13.366 -8.63549 11.9678 0 0 1.5 0.255542 -0.0612657 
13.5433 -8.85636 12.1816 0 0 1.5 0.243986 -0.0666169 
13.7022 -9.09676 12.3903 0 0 1.5 0.230486 -0.0735908 
13.8383 -9.35801 12.5885 0 0 1.5 0.215515 -0.0826836 
13.9622 -9.63034 12.7811 0 0 1.5 0.182982 -0.109399 
14.0572 -9.92431 12.9566 0 0 1.5 0.166263 -0.129 
14.1461 -10.2228 13.1287 0 0 1.5 0.149686 -0.155128 
14.201 -10.5407 13.2787 0 0 1.5 0.133517 -0.190223 
14.2514 -10.8604 13.4259 0 0 1.5 0.103464 -0.302858 
14.2739 -11.1912 13.555 0 0 1.5 0.090177 -0.392108 
14.2894 -11.5236 13.6802 0 0 1.5 0.0786081 -0.509616 
14.2843 -11.8608 13.7936 0 0 1.5 0.0633877 -0.773006 
14.2716 -12.1986 13.9042 0 0 1.5 0.0612963 -0.826072 
14.2455 -12.5373 14.0099 0 0 1.5 0.0633521 -0.775629 
14.2132 -12.8749 14.1173 0 0 1.5 0.069044 -0.656745 
14.1743 -13.2114 14.2263 0 0 1.5 0.0875849 -0.413889 
14.1341 -13.5435 14.3472 0 0 1.5 0.0987329 -0.327667 
14.0931 -13.8733 14.4743 0 0 1.5 0.110316 -0.263558 
14.0637 -14.1887 14.6358 0 0 1.5 0.121879 -0.215781 
14.0456 -14.4912 14.8187 0 0 1.5 0.143324 -0.152037 
14.0509 -14.7673 15.0431 0 0 1.5 0.152487 -0.130794 
14.103 -14.9761 15.3228 0 0 1.5 0.160193 -0.113981 
14.1871 -15.1274 15.6267 0 0 1.5 0.166156 -0.100321 
14.3086 -15.205 15.952 0 0 1.5 0.172007 -0.0800441 
14.4301 -15.2825 16.2773 0 0 1.5 0.171726 -0.0724158 
14.5517 -15.36 16.6026 0 0 1.5 0.169327 -0.0659082 
14.6732 -15.4376 16.9279 0 0 1.5 0.158789 -0.0561055 
14.7947 -15.5151 17.2532 0 0 1.5 0.151179 -0.0525785 
14.9163 -15.5926 17.5784 0 0 1.5 0.142413 -0.0497398 
15.0378 -15.6702 17.9037 0 0 1.5 0.132795 -0.0476132 
15.1593 -15.7477 18.229 0 0 1.5 0.112146 -0.0456608 
15.2809 -15.8252 18.5543 0 0 1.5 0.101602 -0.0457772 
15.4024 -15.9028 18.8796 0 0 1.5 0.0911701 -0.0467678 
15.5239 -15.9803 19.2049 0 0 1.5 0.0809886 -0.0489026 
15.6455 -16.0578 19.5302 0 0 1.5 0.0617811 -0.0577856 
15.767 -16.1354 19.8555 0 0 1.5 0.0529017 -0.0657757 
15.8885 -16.2129 20.1808 0 0 1.5 0.0445554 -0.0779551 
16.01 -16.2904 20.5061 0 0 1.5 0.029545 -0.127693 
16.1316 -16.368 20.8314 0 0 1.5 0.0229255 -0.181725 
16.2531 -16.4455 21.1567 0 0 1.5 0.0169179 -0.288597 
16.3746 -16.523 21.482 0 0 1.5 0.0115786 -0.537182 
16.4962 -16.6006 21.8073 0 0 1.5 0.00452014 -2.73022 
16.6177 -16.6781 22.1326 0 0 1.5 0.00533498 -1.74347 
16.7392 -16.7556 22.4579 0 0 1.5 0.00792487 -0.706825 
16.8608 -16.8332 22.7832 0 0 1.5 0.0106352 -0.352173 
16.9823 -16.9107 23.1085 0 0 1.5 0.0151201 -0.142231 
17.1038 -16.9882 23.4338 0 0 1.5 0.0167873 -0.104906 
17.2254 -17.0658 23.7591 0 0 1.5 0.0180677 -0.0823764 
17.3469 -17.1433 24.0844 0 0 1.5 0.019524 -0.0587492 
17.4684 -17.2208 24.4097 0 0 1.5 0.0197471 -0.0525696 
17.59 -17.2984 24.735 0 0 1.5 0.0196693 -0.0484238 
17.7115 -17.3759 25.0603 0 0 1.5 0.0193188 -0.0458551 
17.833 -17.4534 25.3856 0 0 1.5 0.01792 -0.0446295 
17.9546 -17.5309 25.7109 0 0 1.5 0.0169351 -0.0455877 
18.0761 -17.6085 26.0362 0 0 1.5 0.0158033 -0.0476937 
18.1976 -17.686 26.3615 0 0 1.5 0.0145532 -0.0513033 
18.3191 -17.7635 26.6868 0 0 1.5 0.0118139 -0.0645381 
18.4407 -17.8411 27.0121 0 0 1.5 0.0103828 -0.0758917 
18.5622 -17.9186 27.3374 0 0 1.5 0.00894273 -0.0930964 
18.6837 -17.9961 27.6627 0 0 1.5 0.00751524 -0.120008 
18.8053 -18.0737 27.988 0 0 1.5 0.00479002 -0.244291 
18.9268 -18.1512 28.3133 0 0 1.5 0.0035377 -0.409234 
19.0483 -18.2287 28.6386 0 0 1.5 0.00240566 -0.811289 
19.1699 -18.3063 28.9639 0 0 1.5 0.00120337 -2.74092 
19.2914 -18.3838 29.2892 0 0 1.5 0.00165994 -1.3325 
19.4129 -18.4613 29.6145 0 0 1.5 0.0023828 -0.600129 
19.5345 -18.5389 29.9398 0 0 1.5 0.00311956 -0.325411 
19.656 -18.6164 30.2651 0 0 1.5 0.00442352 -0.141177 
19.7775 -18.6939 30.5904 0 0 1.5 0.0049709 -0.104899 
19.8991 -18.7715 30.9157 0 0 1.5 0.00544863 -0.0819245 
20.0206 -18.849 31.241 0 0 1.5 0.00585995 -0.0664959 
20.1421 -18.9265 31.5662 0 0 1.5 0.00650481 -0.0477289 
20.2637 -19.0041 31.8915 0 0 1.5 0.0067504 -0.0415733 
20.3852 -19.0816 32.2168 0 0 1.5 0.00695298 -0.0366903 
20.5067 -19.1591 32.5421 0 0 1.5 0.0072514 -0.0294946 
20.6282 -19.2367 32.8674 0 0 1.5 0.00735826 -0.0266602 
20.7498 -19.3142 33.1927 0 0 1.5 0.00744389 -0.0241876 
20.8713 -19.3917 33.518 0 0 1.5 0.00751201 -0.0220523 
20.9928 -19.4693 33.8433 0 0 1.5 0.00760912 -0.0184869 
21.1144 -19.5468 34.1686 0 0 1.5 0.00764449 -0.0169915 
21.2359 -19.6243 34.4939 0 0 1.5 0.00767373 -0.0157047 
21.3574 -19.7019 34.8192 0 0 1.5 0.00769821 -0.0146047 
21.479 -19.7794 35.1445 0 0 1.5 0.00773811 -0.0129082 
21.6005 -19.8569 35.4698 0 0 1.5 0.0077553 -0.0123138 
21.722 -19.9345 35.7951 0 0 1.5 0.00777129 -0.0118829 
0 1 0 
1 2 0 
2 3 0 
3 4 0 
4 5 0 
5 6 0 
6 7 0 
7 8 0 
8 9 0 
9 10 0 
10 11 0 
11 12 0 
12 13 0 
13 14 0 
14 15 0 
15 16 0 
16 17 0 
17 18 0 
18 19 0 
19 20 0 
20 21 0 
21 22 0 
22 23 0 
23 24 0 
24 25 0 
25 26 0 
26 27 0 
27 28 0 
28 29 0 
29 30 0 
30 31 0 
31 32 0 
32 33 0 
33 34 0 
34 35 0 
35 36 0 
36 37 0 
37 38 0 
38 39 0 
39 40 0 
40 41 0 
41 42 0 
42 43 0 
43 44 0 
44 45 0 
45 46 0 
46 47 0 
47 48 0 
48 49 0 
49 50 0 
50 51 0 
51 52 0 
52 53 0 
53 54 0 
54 55 0 
55 56 0 
56 57 0 
57 58 0 
58 59 0 
59 60 0 
60 61 0 
61 62 0 
62 63 0 
63 64 0 
64 65 0 
65 66 0 
66 67 0 
67 68 0 
68 69 0 
69 70 0 
70 71 0 
71 72 0 
72 73 0 
73 74 0 
74 75 0 
75 76 0 
76 77 0 
77 78 0 
78 79 0 
79 80 0 
80 81 0 
81 82 0 
82 83 0 
83 84 0 
84 85 0 
85 86 0 
86 87 0 
87 88 0 
88 89 0 
89 90 0 
90 91 0 
91 92 0 
92 93 0 
93 94 0 
94 95 0 
95 96 0 
96 97 0 
97 98 0 
98 99 0 
99 100 0 
100 101 0 
101 102 0 
102 103 0 
103 104 0 
104 105 0 
105 106 0 
106 107 0 
107 108 0 
108 109 0 
109 110 0 
110 111 0 
111 112 0 
112 113 0 
113 114 0 
114 115 0 
115 116 0 
116 117 0 
117 118 0 
118 119 0 
119 120 0 
120 121 0 
121 122 0 
122 123 0 
123 124 0 
124 125 0 
125 126 0 
126 127 0 
127 128 0 
128 129 0 
129 130 0 
130 131 0 
131 132 0 
132 133 0 
133 134 0 
134 135 0 
135 136 0 
136 137 0 
137 138 0 
138 139 0 
139 140 0 
140 141 0 
141 142 0 
142 143 0 
143 144 0 
144 145 0 
145 146 0 
146 147 0 
147 148 0 
148 149 0 
149 150 0 
150 151 0 
151 152 0 
152 153 0 
153 154 0 
154 155 0 
155 156 0 
156 157 0 
157 158 0 
158 159 0 
159 160 0 
160 161 0 
161 162 0 
162 163 0 
163 164 0 
164 165 0 
165 166 0 
166 167 0 
167 168 0 
168 169 0 
169 170 0 
170 171 0 
171 172 0 
172 173 0 
173 174 0 
174 175 0 
175 176 0 
176 177 0 
177 178 0 
178 179 0 
179 180 0 
180 181 0 
181 182 0 
182 183 0 
183 184 0 
184 185 0 
185 186 0 
186 187 0 
187 188 0 
188 189 0 
189 190 0 
190 191 0 
191 192 0 
192 193 0 
193 194 0 
194 195 0 
195 196 0 
196 197 0 
197 198 0 
198 199 0 
199 200 0 
200 201 0 
201 202 0 
202 203 0 
203 204 0 
204 205 0 
205 206 0 
206 207 0 
207 208 0 
208 209 0 
209 210 0 
210 211 0 
211 212 0 
212 213 0 
213 214 0 
214 215 0 
215 216 0 
216 217 0 
217 218 0 
218 219 0 
219 220 0 
220 221 0 
221 222 0 
222 223 0 
223 224 0 
224 225 0 
225 226 0 
226 227 0 
227 228 0 
228 229 0 
229 230 0 
230 231 0 
231 232 0 
232 233 0 
233 234 0 
234 235 0 
235 236 0 
236 237 0 
237 238 0 
238 239 0 
239 240 0 
240 241 0 
241 242 0 
242 243 0 
243 244 0 
244 245 0 
245 246 0 
246 247 0 
247 248 0 
248 249 0 
249 250 0 
250 251 0 
251 252 0 
252 253 0 
253 254 0 
254 255 0 
255 256 0 
256 257 0 
257 258 0 
258 259 0 
259 260 0 
260 261 0 
261 262 0 
262 263 0 
263 264 0 
264 265 0 
265 266 0 
266 267 0 
267 268 0 
268 269 0 
269 270 0 
270 271 0 
271 272 0 
272 273 0 
273 274 0 
274 275 0 
275 276 0 
276 277 0 
277 278 0 
278 279 0 
279 280 0 
280 281 0 
281 282 0 
282 283 0 
283 284 0 
284 285 0 
285 286 0 
286 287 0 
287 288 0 
288 289 0 
289 290 0 
290 291 0 
291 292 0 
292 293 0 
293 294 0 
294 295 0 
295 296 0 
296 297 0 
297 298 0 
298 299 0 
-1 -1 0 
-1 300 0 1 2 3 4 5 6 7 8 9 10 11 12 13 14 15 16 17 18 19 20 21 22 23 24 25 26 27 28 29 30 31 32 33 34 35 36 37 38 39 40 41 42 43 44 45 46 47 48 49 50 51 52 53 54 55 56 57 58 59 60 61 62 63 64 65 66 67 68 69 70 71 72 73 74 75 76 77 78 79 80 81 82 83 84 85 86 87 88 89 90 91 92 93 94 95 96 97 98 99 100 101 102 103 104 105 106 107 108 109 110 111 112 113 114 115 116 117 118 119 120 121 122 123 124 125 126 127 128 129 130 131 132 133 134 135 136 137 138 139 140 141 142 143 144 145 146 147 148 149 150 151 152 153 154 155 156 157 158 159 160 161 162 163 164 165 166 167 168 169 170 171 172 173 174 175 176 177 178 179 180 181 182 183 184 185 186 187 188 189 190 191 192 193 194 195 196 197 198 199 200 201 202 203 204 205 206 207 208 209 210 211 212 213 214 215 216 217 218 219 220 221 222 223 224 225 226 227 228 229 230 231 232 233 234 235 236 237 238 239 240 241 242 243 244 245 246 247 248 249 250 251 252 253 254 255 256 257 258 259 260 261 262 263 264 265 266 267 268 269 270 271 272 273 274 275 276 277 278 279 280 281 282 283 284 285 286 287 288 289 290 291 292 293 294 295 296 297 298 299 
