ply
format ascii 1.0
comment written by koba@oshima.lab
element vertex 300
property float x
property float y
property float z
property int label
property int attribute
property float radius
property float curvature
property float torsion
element edge 300
property int vertex1
property int vertex2
property int label
element vertex_seq 1
property int label
property list int int vertex_indices
end_header
1.49561 26.8147 -17.7437 0 0 1.5 0.0200587 0.0300757 
1.32957 26.5467 -17.5533 0 0 1.5 0.0198439 0.0320431 
1.16352 26.2787 -17.3629 0 0 1.5 0.0196147 0.0352121 
0.997475 26.0108 -17.1724 0 0 1.5 0.0193625 0.0397419 
0.83143 25.7428 -16.982 0 0 1.5 0.0187555 0.0537512 
0.665384 25.4748 -16.7916 0 0 1.5 0.0183816 0.0638738 
0.499339 25.2069 -16.6012 0 0 1.5 0.0179471 0.0767578 
0.333294 24.9389 -16.4108 0 0 1.5 0.017443 0.0931811 
0.167248 24.6709 -16.2203 0 0 1.5 0.0161956 0.140247 
0.001203 24.403 -16.0299 0 0 1.5 0.0154401 0.174452 
-0.164842 24.135 -15.8395 0 0 1.5 0.0145971 0.219895 
-0.330888 23.867 -15.6491 0 0 1.5 0.0136784 0.280379 
-0.496933 23.5991 -15.4587 0 0 1.5 0.0117433 0.468277 
-0.662978 23.3311 -15.2682 0 0 1.5 0.0108645 0.604732 
-0.829024 23.0631 -15.0778 0 0 1.5 0.0102145 0.753784 
-0.995069 22.7952 -14.8874 0 0 1.5 0.0103487 0.885283 
-1.16111 22.5272 -14.697 0 0 1.5 0.0114146 0.800578 
-1.32716 22.2592 -14.5066 0 0 1.5 0.0131562 0.663597 
-1.4932 21.9913 -14.3161 0 0 1.5 0.0154663 0.528985 
-1.65925 21.7233 -14.1257 0 0 1.5 0.0213264 0.341478 
-1.8253 21.4553 -13.9353 0 0 1.5 0.0246951 0.283561 
-1.99134 21.1874 -13.7449 0 0 1.5 0.0282508 0.241448 
-2.15739 20.9194 -13.5545 0 0 1.5 0.0319204 0.211242 
-2.32343 20.6514 -13.364 0 0 1.5 0.0393405 0.174771 
-2.48948 20.3835 -13.1736 0 0 1.5 0.0429498 0.164332 
-2.65552 20.1155 -12.9832 0 0 1.5 0.0463888 0.157945 
-2.82157 19.8475 -12.7928 0 0 1.5 0.0524696 0.155038 
-2.98761 19.5796 -12.6024 0 0 1.5 0.0549715 0.157142 
-3.15366 19.3116 -12.4119 0 0 1.5 0.0570252 0.161839 
-3.3197 19.0436 -12.2215 0 0 1.5 0.0585764 0.169586 
-3.48575 18.7757 -12.0311 0 0 1.5 0.0600369 0.193757 
-3.65179 18.5077 -11.8407 0 0 1.5 0.0599277 0.211259 
-3.81784 18.2398 -11.6503 0 0 1.5 0.0592796 0.233986 
-3.98388 17.9718 -11.4598 0 0 1.5 0.0581452 0.262263 
-4.15006 17.709 -11.2637 0 0 1.5 0.0548662 0.337032 
-4.31732 17.4914 -11.0182 0 0 1.5 0.0530489 0.384968 
-4.48572 17.2945 -10.7573 0 0 1.5 0.0514275 0.436652 
-4.65485 17.1111 -10.4864 0 0 1.5 0.0503342 0.484626 
-4.8291 16.9469 -10.2066 0 0 1.5 0.051209 0.532129 
-5.00498 16.7854 -9.92621 0 0 1.5 0.0538496 0.515829 
-5.18943 16.6329 -9.64628 0 0 1.5 0.058249 0.474071 
-5.37748 16.481 -9.36853 0 0 1.5 0.072424 0.361962 
-5.5764 16.3309 -9.09734 0 0 1.5 0.0820984 0.31011 
-5.78187 16.1794 -8.83219 0 0 1.5 0.0934336 0.265957 
-5.99973 16.0252 -8.57844 0 0 1.5 0.106416 0.230133 
-6.22802 15.8663 -8.33774 0 0 1.5 0.137457 0.179955 
-6.46814 15.7022 -8.11182 0 0 1.5 0.155663 0.162877 
-6.72308 15.5283 -7.91215 0 0 1.5 0.175767 0.149828 
-6.98593 15.3492 -7.72648 0 0 1.5 0.197829 0.140112 
-7.26544 15.1529 -7.5897 0 0 1.5 0.247789 0.12763 
-7.54839 14.9498 -7.47381 0 0 1.5 0.27539 0.123829 
-7.83693 14.7311 -7.40629 0 0 1.5 0.304203 0.121263 
-8.11996 14.4991 -7.38418 0 0 1.5 0.362179 0.118371 
-8.39806 14.2586 -7.39181 0 0 1.5 0.388897 0.117366 
-8.65185 14.0013 -7.4625 0 0 1.5 0.411948 0.116328 
-8.88441 13.7367 -7.56342 0 0 1.5 0.429551 0.115062 
-9.09613 13.4652 -7.694 0 0 1.5 0.44274 0.111219 
-9.25813 13.1854 -7.8693 0 0 1.5 0.436932 0.108643 
-9.39698 12.9043 -8.05974 0 0 1.5 0.423214 0.105923 
-9.49337 12.6219 -8.27557 0 0 1.5 0.402821 0.103357 
-9.54802 12.3436 -8.5082 0 0 1.5 0.348765 0.0998947 
-9.58069 12.0674 -8.74968 0 0 1.5 0.318481 0.0997662 
-9.55515 11.8053 -9.00672 0 0 1.5 0.287947 0.101231 
-9.51654 11.5479 -9.26628 0 0 1.5 0.229827 0.110805 
-9.4341 11.3081 -9.53334 0 0 1.5 0.20327 0.120273 
-9.33632 11.0772 -9.80199 0 0 1.5 0.178713 0.134163 
-9.21013 10.8628 -10.0736 0 0 1.5 0.156239 0.154157 
-9.06992 10.6595 -10.346 0 0 1.5 0.117672 0.223129 
-8.91143 10.4707 -10.6196 0 0 1.5 0.101842 0.278364 
-8.74336 10.2916 -10.8936 0 0 1.5 0.0888209 0.34947 
-8.56328 10.1247 -11.1682 0 0 1.5 0.0793645 0.427609 
-8.37815 9.96425 -11.443 0 0 1.5 0.0753051 0.484266 
-8.18537 9.81335 -11.7181 0 0 1.5 0.0820178 0.426051 
-7.99063 9.6651 -11.9933 0 0 1.5 0.0942597 0.344404 
-7.79192 9.52217 -12.2684 0 0 1.5 0.111431 0.269364 
-7.59286 9.37882 -12.5431 0 0 1.5 0.159737 0.168237 
-7.39299 9.23448 -12.8167 0 0 1.5 0.191527 0.137335 
-7.19385 9.08569 -13.0884 0 0 1.5 0.22952 0.115006 
-6.99603 8.92889 -13.3566 0 0 1.5 0.329795 0.0865234 
-6.80083 8.75722 -13.617 0 0 1.5 0.395842 0.0769502 
-6.60759 8.57441 -13.8718 0 0 1.5 0.475472 0.0692119 
-6.42257 8.34859 -14.0963 0 0 1.5 0.570929 0.062613 
-6.24979 8.08153 -14.277 0 0 1.5 0.811869 0.0488831 
-6.10802 7.7605 -14.3649 0 0 1.5 0.949557 0.0400522 
-6.03025 7.41491 -14.3018 0 0 1.5 1.08256 0.0291926 
-6.02466 7.10833 -14.1068 0 0 1.5 1.1889 0.0158905 
-6.06666 6.85559 -13.8458 0 0 1.5 1.2343 -0.0152558 
-6.13646 6.64215 -13.5557 0 0 1.5 1.16262 -0.0297582 
-6.22497 6.45733 -13.2497 0 0 1.5 1.04907 -0.0419538 
-6.33864 6.31227 -12.9309 0 0 1.5 0.787401 -0.0592376 
-6.46221 6.18328 -12.6096 0 0 1.5 0.668904 -0.0649126 
-6.6007 6.07856 -12.2849 0 0 1.5 0.566348 -0.0696747 
-6.75524 6.00303 -11.9599 0 0 1.5 0.479885 -0.0742936 
-6.91673 5.94031 -11.635 0 0 1.5 0.348054 -0.0847092 
-7.098 5.92317 -11.3148 0 0 1.5 0.298321 -0.0914062 
-7.28422 5.92345 -10.9982 0 0 1.5 0.25673 -0.0999263 
-7.48016 5.95796 -10.6882 0 0 1.5 0.221676 -0.110855 
-7.67999 6.02903 -10.3883 0 0 1.5 0.16636 -0.143378 
-7.88143 6.11929 -10.0937 0 0 1.5 0.14432 -0.168137 
-8.0779 6.25737 -9.81442 0 0 1.5 0.125183 -0.201613 
-8.2682 6.41189 -9.54047 0 0 1.5 0.0943203 -0.307564 
-8.44939 6.59072 -9.27434 0 0 1.5 0.0824325 -0.386794 
-8.61342 6.79111 -9.01296 0 0 1.5 0.0731579 -0.481619 
-8.7694 6.99994 -8.75292 0 0 1.5 0.0669926 -0.574274 
-8.90043 7.22289 -8.49071 0 0 1.5 0.0660189 -0.625353 
-9.01912 7.44679 -8.22392 0 0 1.5 0.0713622 -0.565547 
-9.12052 7.67202 -7.95074 0 0 1.5 0.0800184 -0.483142 
-9.19942 7.88899 -7.66424 0 0 1.5 0.0913822 -0.403925 
-9.26799 8.10086 -7.37119 0 0 1.5 0.120355 -0.288022 
-9.31021 8.29056 -7.05835 0 0 1.5 0.137371 -0.249725 
-9.3399 8.46266 -6.73513 0 0 1.5 0.155804 -0.220762 
-9.35516 8.61444 -6.39992 0 0 1.5 0.175442 -0.198761 
-9.35003 8.72274 -6.04855 0 0 1.5 0.217227 -0.168875 
-9.33615 8.80705 -5.6915 0 0 1.5 0.238642 -0.158267 
-9.30803 8.84685 -5.32645 0 0 1.5 0.259694 -0.149249 
-9.26948 8.83892 -4.96166 0 0 1.5 0.297904 -0.134145 
-9.2253 8.80224 -4.59862 0 0 1.5 0.313573 -0.126998 
-9.17259 8.70497 -4.24734 0 0 1.5 0.325971 -0.119461 
-9.11744 8.57473 -3.90904 0 0 1.5 0.334515 -0.111526 
-9.06001 8.41347 -3.58295 0 0 1.5 0.339082 -0.0942505 
-9.00218 8.20499 -3.28575 0 0 1.5 0.33529 -0.0845065 
-8.94464 7.9825 -2.99869 0 0 1.5 0.327972 -0.0742647 
-8.88931 7.72211 -2.74418 0 0 1.5 0.317765 -0.063814 
-8.83551 7.44942 -2.50388 0 0 1.5 0.291489 -0.0418998 
-8.78448 7.15477 -2.2889 0 0 1.5 0.276722 -0.0306566 
-8.73589 6.84695 -2.09405 0 0 1.5 0.261605 -0.0196209 
-8.68965 6.52656 -1.91843 0 0 1.5 0.231874 0.00243406 
-8.646 6.19466 -1.76633 0 0 1.5 0.217761 0.0135329 
-8.604 5.85547 -1.62913 0 0 1.5 0.204324 0.0245738 
-8.56386 5.50742 -1.51711 0 0 1.5 0.191613 0.0357519 
-8.52463 5.15514 -1.41715 0 0 1.5 0.168333 0.0592065 
-8.48579 4.79686 -1.34306 0 0 1.5 0.157679 0.0715121 
-8.44709 4.43624 -1.27911 0 0 1.5 0.147606 0.0845262 
-8.40659 4.07248 -1.24102 0 0 1.5 0.138049 0.0986464 
-8.3655 3.70768 -1.2115 0 0 1.5 0.120242 0.131925 
-8.31978 3.34252 -1.20725 0 0 1.5 0.111908 0.152304 
-8.27278 2.97725 -1.20997 0 0 1.5 0.103923 0.176357 
-8.21783 2.61427 -1.2368 0 0 1.5 0.0962893 0.20527 
-8.16114 2.25179 -1.26888 0 0 1.5 0.0822969 0.282614 
-8.09281 1.8941 -1.32295 0 0 1.5 0.0761558 0.332901 
-8.02263 1.53716 -1.38049 0 0 1.5 0.0708188 0.390334 
-7.93707 1.18723 -1.45667 0 0 1.5 0.0637002 0.504312 
-7.85002 0.837987 -1.53467 0 0 1.5 0.0625623 0.53911 
-7.74415 0.497432 -1.62647 0 0 1.5 0.0633866 0.544347 
-7.63713 0.157398 -1.71893 0 0 1.5 0.0662729 0.518195 
-7.50919 -0.173303 -1.81845 0 0 1.5 0.0777808 0.410693 
-7.37934 -0.503213 -1.9179 0 0 1.5 0.0859183 0.352265 
-7.2291 -0.82465 -2.0166 0 0 1.5 0.0952895 0.299348 
-7.07505 -1.14463 -2.11367 0 0 1.5 0.105647 0.253615 
-6.90235 -1.4575 -2.20268 0 0 1.5 0.128409 0.182017 
-6.7234 -1.76808 -2.28615 0 0 1.5 0.140358 0.154027 
-6.52884 -2.07294 -2.35576 0 0 1.5 0.152358 0.12965 
-6.32524 -2.37406 -2.41208 0 0 1.5 0.175382 0.0881349 
-6.11041 -2.67053 -2.45191 0 0 1.5 0.185801 0.0700366 
-5.88421 -2.96009 -2.46531 0 0 1.5 0.195079 0.0528651 
-5.6522 -3.24611 -2.4652 0 0 1.5 0.202909 0.0360468 
-5.40865 -3.51836 -2.42007 0 0 1.5 0.21321 0.00374291 
-5.16272 -3.78435 -2.35849 0 0 1.5 0.215367 -0.0120819 
-4.91215 -4.03485 -2.25797 0 0 1.5 0.215446 -0.0282217 
-4.66141 -4.26908 -2.12714 0 0 1.5 0.213497 -0.0444571 
-4.41055 -4.49255 -1.97625 0 0 1.5 0.204247 -0.0767769 
-4.16267 -4.68552 -1.78434 0 0 1.5 0.197456 -0.0935267 
-3.91584 -4.86696 -1.58106 0 0 1.5 0.189617 -0.110625 
-3.6712 -5.02372 -1.35476 0 0 1.5 0.172112 -0.145179 
-3.42652 -5.1591 -1.11595 0 0 1.5 0.163053 -0.162834 
-3.18182 -5.28006 -0.868713 0 0 1.5 0.154138 -0.180489 
-2.93282 -5.36973 -0.612887 0 0 1.5 0.145592 -0.197602 
-2.68192 -5.45042 -0.355936 0 0 1.5 0.130295 -0.22782 
-2.42241 -5.50098 -0.0995468 0 0 1.5 0.123765 -0.239646 
-2.15783 -5.53953 0.1531 0 0 1.5 0.118059 -0.24847 
-1.88453 -5.55744 0.399318 0 0 1.5 0.113185 -0.253402 
-1.602 -5.55814 0.634823 0 0 1.5 0.105734 -0.24977 
-1.313 -5.54678 0.86283 0 0 1.5 0.102965 -0.241927 
-1.01181 -5.51627 1.07202 0 0 1.5 0.100667 -0.23048 
-0.707385 -5.48067 1.27621 0 0 1.5 0.0986865 -0.215859 
-0.389868 -5.42734 1.45492 0 0 1.5 0.0950491 -0.18244 
-0.0706645 -5.37197 1.62981 0 0 1.5 0.0931274 -0.164942 
0.258003 -5.30569 1.78219 0 0 1.5 0.0909823 -0.146896 
0.588514 -5.23769 1.92939 0 0 1.5 0.0856699 -0.111953 
0.925003 -5.16412 2.05977 0 0 1.5 0.0824006 -0.095191 
1.2632 -5.08934 2.18466 0 0 1.5 0.0786883 -0.0781555 
1.60491 -5.0121 2.29825 0 0 1.5 0.0745287 -0.0609854 
1.94781 -4.93415 2.40758 0 0 1.5 0.0649588 -0.025931 
2.29247 -4.85516 2.51054 0 0 1.5 0.0596309 -0.00616961 
2.63757 -4.7755 2.61152 0 0 1.5 0.0540128 0.0162791 
2.98315 -4.69511 2.71026 0 0 1.5 0.048165 0.0426533 
3.32818 -4.61362 2.80998 0 0 1.5 0.036063 0.121239 
3.67274 -4.53119 2.91057 0 0 1.5 0.0299756 0.188994 
4.01551 -4.44674 3.01544 0 0 1.5 0.023995 0.301854 
4.3572 -4.36107 3.12291 0 0 1.5 0.0131654 0.962639 
4.69553 -4.27222 3.238 0 0 1.5 0.00950571 1.78238 
5.03259 -4.18218 3.35597 0 0 1.5 0.0089787 1.946 
5.36469 -4.08816 3.48435 0 0 1.5 0.01177 1.12499 
5.69585 -3.99338 3.61468 0 0 1.5 0.0207947 0.389727 
6.02089 -3.89468 3.75692 0 0 1.5 0.0256204 0.27961 
6.34521 -3.79562 3.90055 0 0 1.5 0.0304167 0.221543 
6.66427 -3.6944 4.05414 0 0 1.5 0.0351436 0.188924 
6.98248 -3.59323 4.20948 0 0 1.5 0.0444006 0.154925 
7.29729 -3.49222 4.37173 0 0 1.5 0.0489811 0.144647 
7.61141 -3.39223 4.53591 0 0 1.5 0.0535757 0.136574 
7.92391 -3.29458 4.70457 0 0 1.5 0.0629614 0.122121 
8.23619 -3.19961 4.8751 0 0 1.5 0.0678214 0.114903 
8.54812 -3.10882 5.04858 0 0 1.5 0.0728373 0.10767 
8.86029 -3.02305 5.22406 0 0 1.5 0.0780394 0.10033 
9.17274 -2.94293 5.40182 0 0 1.5 0.0890604 0.0854619 
9.48551 -2.87114 5.58235 0 0 1.5 0.094895 0.078132 
9.79856 -2.80602 5.76511 0 0 1.5 0.100948 0.0710609 
10.1111 -2.75403 5.95255 0 0 1.5 0.107204 0.0643818 
10.4234 -2.70885 6.14241 0 0 1.5 0.120219 0.0521628 
10.7329 -2.68382 6.34017 0 0 1.5 0.126904 0.0467199 
11.0417 -2.66409 6.54001 0 0 1.5 0.133646 0.0418431 
11.3422 -2.67466 6.75246 0 0 1.5 0.140383 0.0374517 
11.6397 -2.69322 6.96817 0 0 1.5 0.153537 0.0299377 
11.9252 -2.74113 7.19587 0 0 1.5 0.159789 0.0268577 
12.2005 -2.80717 7.43016 0 0 1.5 0.165707 0.0241639 
12.464 -2.89455 7.67224 0 0 1.5 0.176129 0.0197384 
12.706 -3.01184 7.92295 0 0 1.5 0.180441 0.0179516 
12.939 -3.14107 8.17688 0 0 1.5 0.184034 0.0164025 
13.1418 -3.30475 8.43712 0 0 1.5 0.186825 0.0150634 
13.3327 -3.48001 8.69786 0 0 1.5 0.189747 0.0128463 
13.5024 -3.67597 8.95949 0 0 1.5 0.189825 0.0119061 
13.6517 -3.88964 9.21885 0 0 1.5 0.18897 0.011058 
13.7894 -4.11339 9.47694 0 0 1.5 0.187194 0.0102663 
13.9001 -4.3587 9.72806 0 0 1.5 0.181077 0.00872394 
14.0037 -4.60944 9.97679 0 0 1.5 0.176864 0.00794696 
14.0824 -4.87863 10.2155 0 0 1.5 0.171976 0.00715765 
14.1509 -5.1547 10.4488 0 0 1.5 0.160544 0.00550143 
14.2016 -5.44277 10.6726 0 0 1.5 0.154179 0.00459614 
14.2363 -5.74019 10.8862 0 0 1.5 0.14749 0.00365114 
14.2597 -6.04423 11.0927 0 0 1.5 0.14056 0.00268553 
14.2622 -6.35839 11.2844 0 0 1.5 0.126265 0.000593416 
14.2593 -6.6751 11.4724 0 0 1.5 0.11902 -0.000540765 
14.2323 -7.00058 11.6426 0 0 1.5 0.111781 -0.0017006 
14.2013 -7.32698 11.81 0 0 1.5 0.104592 -0.00290986 
14.1527 -7.65757 11.9649 0 0 1.5 0.0905149 -0.0055681 
14.0979 -7.98879 12.1159 0 0 1.5 0.0836838 -0.00703778 
14.031 -8.32131 12.2594 0 0 1.5 0.0770222 -0.00863187 
13.9572 -8.65362 12.3997 0 0 1.5 0.0705507 -0.01038 
13.8754 -8.98568 12.5364 0 0 1.5 0.0582441 -0.0146089 
13.7871 -9.31655 12.6718 0 0 1.5 0.0524388 -0.0172373 
13.6938 -9.6465 12.8062 0 0 1.5 0.0468881 -0.0203029 
13.6005 -9.97646 12.9406 0 0 1.5 0.0366139 -0.028701 
13.5072 -10.3064 13.075 0 0 1.5 0.0319163 -0.034673 
13.4139 -10.6364 13.2094 0 0 1.5 0.0275371 -0.0423373 
13.3206 -10.9663 13.3438 0 0 1.5 0.0235005 -0.0524736 
13.2273 -11.2963 13.4782 0 0 1.5 0.016548 -0.0852143 
13.1341 -11.6262 13.6126 0 0 1.5 0.0137083 -0.110382 
13.0408 -11.9562 13.747 0 0 1.5 0.0113693 -0.14195 
12.9475 -12.2861 13.8814 0 0 1.5 0.00959533 -0.175918 
12.8542 -12.6161 14.0158 0 0 1.5 0.00789177 -0.200375 
12.7609 -12.9461 14.1502 0 0 1.5 0.00783441 -0.177458 
12.6676 -13.276 14.2846 0 0 1.5 0.00808066 -0.145456 
12.5743 -13.606 14.419 0 0 1.5 0.00883519 -0.0919112 
12.481 -13.9359 14.5534 0 0 1.5 0.00914337 -0.0743696 
12.3878 -14.2659 14.6878 0 0 1.5 0.00934075 -0.0618402 
12.2945 -14.5958 14.8222 0 0 1.5 0.0094118 -0.0529106 
12.2012 -14.9258 14.9566 0 0 1.5 0.00917811 -0.0419992 
12.1079 -15.2557 15.091 0 0 1.5 0.0088901 -0.0389903 
12.0146 -15.5857 15.2254 0 0 1.5 0.00850475 -0.0371553 
11.9213 -15.9157 15.3598 0 0 1.5 0.00803815 -0.0362563 
11.828 -16.2456 15.4942 0 0 1.5 0.00692845 -0.0372971 
11.7348 -16.5756 15.6286 0 0 1.5 0.00631815 -0.0393695 
11.6415 -16.9055 15.763 0 0 1.5 0.0056941 -0.0425327 
11.5482 -17.2355 15.8974 0 0 1.5 0.00446989 -0.0534611 
11.4549 -17.5654 16.0318 0 0 1.5 0.00389785 -0.0621134 
11.3616 -17.8954 16.1662 0 0 1.5 0.0033729 -0.073211 
11.2683 -18.2253 16.3006 0 0 1.5 0.00291089 -0.0867872 
11.175 -18.5553 16.435 0 0 1.5 0.00222978 -0.116195 
11.0817 -18.8853 16.5694 0 0 1.5 0.00203164 -0.123872 
10.9885 -19.2152 16.7038 0 0 1.5 0.00192752 -0.121755 
10.8952 -19.5452 16.8382 0 0 1.5 0.00190019 -0.111172 
10.8019 -19.8751 16.9726 0 0 1.5 0.00197682 -0.0808286 
10.7086 -20.2051 17.107 0 0 1.5 0.00203521 -0.0675514 
10.6153 -20.535 17.2414 0 0 1.5 0.00208625 -0.0571262 
10.522 -20.865 17.3758 0 0 1.5 0.00212172 -0.049138 
10.4287 -21.1949 17.5102 0 0 1.5 0.00213044 -0.0384937 
10.3354 -21.5249 17.6446 0 0 1.5 0.00210175 -0.0353516 
10.2422 -21.8549 17.779 0 0 1.5 0.00205252 -0.033254 
10.1489 -22.1848 17.9134 0 0 1.5 0.00190185 -0.0313484 
10.0556 -22.5148 18.0478 0 0 1.5 0.00180568 -0.0314979 
9.9623 -22.8447 18.1822 0 0 1.5 0.0016993 -0.0323267 
9.86901 -23.1747 18.3166 0 0 1.5 0.00158575 -0.0337791 
9.77573 -23.5046 18.451 0 0 1.5 0.00134922 -0.0390529 
9.68244 -23.8346 18.5854 0 0 1.5 0.00123187 -0.0430884 
9.58915 -24.1645 18.7198 0 0 1.5 0.00111916 -0.0479956 
9.49587 -24.4945 18.8542 0 0 1.5 0.00101406 -0.0537562 
9.40258 -24.8245 18.9886 0 0 1.5 0.000835637 -0.0671321 
9.30929 -25.1544 19.123 0 0 1.5 0.000766486 -0.073149 
9.21601 -25.4844 19.2574 0 0 1.5 0.000712768 -0.077262 
9.12272 -25.8143 19.3918 0 0 1.5 0.000650855 -0.0766695 
9.02943 -26.1443 19.5262 0 0 1.5 0.00063995 0 
8.93615 -26.4742 19.6606 0 0 1.5 0.000639327 0 
8.84286 -26.8042 19.795 0 0 1.5 0.000646124 -0.0559866 
8.74957 -27.1341 19.9294 0 0 1.5 0.000672361 -0.0405359 
8.65629 -27.4641 20.0638 0 0 1.5 0.000688337 -0.0340185 
8.563 -27.7941 20.1982 0 0 1.5 0.000704659 -0.0285847 
8.46971 -28.124 20.3326 0 0 1.5 0.000720688 -0.0241549 
8.37643 -28.454 20.467 0 0 1.5 0.000750982 -0.0178505 
8.28314 -28.7839 20.6014 0 0 1.5 0.000765259 -0.0157774 
8.18985 -29.1139 20.7358 0 0 1.5 0.000779153 -0.0143117 
0 1 0 
1 2 0 
2 3 0 
3 4 0 
4 5 0 
5 6 0 
6 7 0 
7 8 0 
8 9 0 
9 10 0 
10 11 0 
11 12 0 
12 13 0 
13 14 0 
14 15 0 
15 16 0 
16 17 0 
17 18 0 
18 19 0 
19 20 0 
20 21 0 
21 22 0 
22 23 0 
23 24 0 
24 25 0 
25 26 0 
26 27 0 
27 28 0 
28 29 0 
29 30 0 
30 31 0 
31 32 0 
32 33 0 
33 34 0 
34 35 0 
35 36 0 
36 37 0 
37 38 0 
38 39 0 
39 40 0 
40 41 0 
41 42 0 
42 43 0 
43 44 0 
44 45 0 
45 46 0 
46 47 0 
47 48 0 
48 49 0 
49 50 0 
50 51 0 
51 52 0 
52 53 0 
53 54 0 
54 55 0 
55 56 0 
56 57 0 
57 58 0 
58 59 0 
59 60 0 
60 61 0 
61 62 0 
62 63 0 
63 64 0 
64 65 0 
65 66 0 
66 67 0 
67 68 0 
68 69 0 
69 70 0 
70 71 0 
71 72 0 
72 73 0 
73 74 0 
74 75 0 
75 76 0 
76 77 0 
77 78 0 
78 79 0 
79 80 0 
80 81 0 
81 82 0 
82 83 0 
83 84 0 
84 85 0 
85 86 0 
86 87 0 
87 88 0 
88 89 0 
89 90 0 
90 91 0 
91 92 0 
92 93 0 
93 94 0 
94 95 0 
95 96 0 
96 97 0 
97 98 0 
98 99 0 
99 100 0 
100 101 0 
101 102 0 
102 103 0 
103 104 0 
104 105 0 
105 106 0 
106 107 0 
107 108 0 
108 109 0 
109 110 0 
110 111 0 
111 112 0 
112 113 0 
113 114 0 
114 115 0 
115 116 0 
116 117 0 
117 118 0 
118 119 0 
119 120 0 
120 121 0 
121 122 0 
122 123 0 
123 124 0 
124 125 0 
125 126 0 
126 127 0 
127 128 0 
128 129 0 
129 130 0 
130 131 0 
131 132 0 
132 133 0 
133 134 0 
134 135 0 
135 136 0 
136 137 0 
137 138 0 
138 139 0 
139 140 0 
140 141 0 
141 142 0 
142 143 0 
143 144 0 
144 145 0 
145 146 0 
146 147 0 
147 148 0 
148 149 0 
149 150 0 
150 151 0 
151 152 0 
152 153 0 
153 154 0 
154 155 0 
155 156 0 
156 157 0 
157 158 0 
158 159 0 
159 160 0 
160 161 0 
161 162 0 
162 163 0 
163 164 0 
164 165 0 
165 166 0 
166 167 0 
167 168 0 
168 169 0 
169 170 0 
170 171 0 
171 172 0 
172 173 0 
173 174 0 
174 175 0 
175 176 0 
176 177 0 
177 178 0 
178 179 0 
179 180 0 
180 181 0 
181 182 0 
182 183 0 
183 184 0 
184 185 0 
185 186 0 
186 187 0 
187 188 0 
188 189 0 
189 190 0 
190 191 0 
191 192 0 
192 193 0 
193 194 0 
194 195 0 
195 196 0 
196 197 0 
197 198 0 
198 199 0 
199 200 0 
200 201 0 
201 202 0 
202 203 0 
203 204 0 
204 205 0 
205 206 0 
206 207 0 
207 208 0 
208 209 0 
209 210 0 
210 211 0 
211 212 0 
212 213 0 
213 214 0 
214 215 0 
215 216 0 
216 217 0 
217 218 0 
218 219 0 
219 220 0 
220 221 0 
221 222 0 
222 223 0 
223 224 0 
224 225 0 
225 226 0 
226 227 0 
227 228 0 
228 229 0 
229 230 0 
230 231 0 
231 232 0 
232 233 0 
233 234 0 
234 235 0 
235 236 0 
236 237 0 
237 238 0 
238 239 0 
239 240 0 
240 241 0 
241 242 0 
242 243 0 
243 244 0 
244 245 0 
245 246 0 
246 247 0 
247 248 0 
248 249 0 
249 250 0 
250 251 0 
251 252 0 
252 253 0 
253 254 0 
254 255 0 
255 256 0 
256 257 0 
257 258 0 
258 259 0 
259 260 0 
260 261 0 
261 262 0 
262 263 0 
263 264 0 
264 265 0 
265 266 0 
266 267 0 
267 268 0 
268 269 0 
269 270 0 
270 271 0 
271 272 0 
272 273 0 
273 274 0 
274 275 0 
275 276 0 
276 277 0 
277 278 0 
278 279 0 
279 280 0 
280 281 0 
281 282 0 
282 283 0 
283 284 0 
284 285 0 
285 286 0 
286 287 0 
287 288 0 
288 289 0 
289 290 0 
290 291 0 
291 292 0 
292 293 0 
293 294 0 
294 295 0 
295 296 0 
296 297 0 
297 298 0 
298 299 0 
-1 -1 0 
-1 300 0 1 2 3 4 5 6 7 8 9 10 11 12 13 14 15 16 17 18 19 20 21 22 23 24 25 26 27 28 29 30 31 32 33 34 35 36 37 38 39 40 41 42 43 44 45 46 47 48 49 50 51 52 53 54 55 56 57 58 59 60 61 62 63 64 65 66 67 68 69 70 71 72 73 74 75 76 77 78 79 80 81 82 83 84 85 86 87 88 89 90 91 92 93 94 95 96 97 98 99 100 101 102 103 104 105 106 107 108 109 110 111 112 113 114 115 116 117 118 119 120 121 122 123 124 125 126 127 128 129 130 131 132 133 134 135 136 137 138 139 140 141 142 143 144 145 146 147 148 149 150 151 152 153 154 155 156 157 158 159 160 161 162 163 164 165 166 167 168 169 170 171 172 173 174 175 176 177 178 179 180 181 182 183 184 185 186 187 188 189 190 191 192 193 194 195 196 197 198 199 200 201 202 203 204 205 206 207 208 209 210 211 212 213 214 215 216 217 218 219 220 221 222 223 224 225 226 227 228 229 230 231 232 233 234 235 236 237 238 239 240 241 242 243 244 245 246 247 248 249 250 251 252 253 254 255 256 257 258 259 260 261 262 263 264 265 266 267 268 269 270 271 272 273 274 275 276 277 278 279 280 281 282 283 284 285 286 287 288 289 290 291 292 293 294 295 296 297 298 299 
