ply
format ascii 1.0
comment written by koba@oshima.lab
element vertex 300
property float x
property float y
property float z
property int label
property int attribute
property float radius
property float curvature
property float torsion
element edge 300
property int vertex1
property int vertex2
property int label
element vertex_seq 1
property int label
property list int int vertex_indices
end_header
-2.76111 29.9175 2.6251 0 0 1.5 0.0974875 0.0262833 
-2.77953 29.5437 2.3899 0 0 1.5 0.0912475 0.0299482 
-2.79795 29.17 2.15469 0 0 1.5 0.0848676 0.0343651 
-2.81636 28.7962 1.91948 0 0 1.5 0.0784157 0.0397794 
-2.83478 28.4224 1.68428 0 0 1.5 0.0655131 0.0551256 
-2.8532 28.0486 1.44907 0 0 1.5 0.0591443 0.0662487 
-2.87162 27.6749 1.21386 0 0 1.5 0.0528705 0.081084 
-2.89004 27.3011 0.978658 0 0 1.5 0.0467147 0.101537 
-2.90846 26.9273 0.743452 0 0 1.5 0.0348486 0.173981 
-2.92687 26.5535 0.508245 0 0 1.5 0.0292045 0.241976 
-2.94529 26.1797 0.273039 0 0 1.5 0.0238431 0.35534 
-2.96371 25.806 0.0378323 0 0 1.5 0.018928 0.553087 
-2.98213 25.4322 -0.197374 0 0 1.5 0.0122908 1.27516 
-3.00055 25.0584 -0.432581 0 0 1.5 0.0122646 1.27445 
-3.01896 24.6846 -0.667787 0 0 1.5 0.0147194 0.887401 
-3.03738 24.3108 -0.902994 0 0 1.5 0.0233361 0.365495 
-3.0558 23.9371 -1.1382 0 0 1.5 0.0283336 0.25699 
-3.07422 23.5633 -1.37341 0 0 1.5 0.0334749 0.193246 
-3.09264 23.1895 -1.60861 0 0 1.5 0.0386438 0.154004 
-3.11106 22.8157 -1.84382 0 0 1.5 0.0487416 0.113328 
-3.12947 22.4419 -2.07903 0 0 1.5 0.0535358 0.103169 
-3.14789 22.0682 -2.31423 0 0 1.5 0.0580687 0.0967876 
-3.16631 21.6944 -2.54944 0 0 1.5 0.0622677 0.0933167 
-3.18473 21.3206 -2.78465 0 0 1.5 0.0693709 0.0930991 
-3.20315 20.9468 -3.01985 0 0 1.5 0.0721241 0.0955884 
-3.22157 20.5731 -3.25506 0 0 1.5 0.0742451 0.0998924 
-3.23998 20.1993 -3.49027 0 0 1.5 0.0763394 0.114798 
-3.2584 19.8255 -3.72547 0 0 1.5 0.0762392 0.125438 
-3.27682 19.4517 -3.96068 0 0 1.5 0.0753637 0.138986 
-3.29524 19.0779 -4.19589 0 0 1.5 0.073727 0.156506 
-3.37336 18.6765 -4.3585 0 0 1.5 0.0683881 0.20696 
-3.46169 18.2702 -4.50869 0 0 1.5 0.064902 0.24299 
-3.59797 17.8607 -4.60119 0 0 1.5 0.0610726 0.289531 
-3.73833 17.4508 -4.6888 0 0 1.5 0.0571185 0.348264 
-3.91162 17.0485 -4.74737 0 0 1.5 0.0501858 0.496045 
-4.08653 16.6466 -4.80452 0 0 1.5 0.0480823 0.567725 
-4.28173 16.2542 -4.86127 0 0 1.5 0.0475412 0.611545 
-4.4784 15.8624 -4.918 0 0 1.5 0.0489552 0.608769 
-4.68525 15.48 -4.99709 0 0 1.5 0.0579156 0.491533 
-4.89342 15.0988 -5.07909 0 0 1.5 0.0650286 0.417996 
-5.10236 14.7289 -5.19982 0 0 1.5 0.0734641 0.352785 
-5.31144 14.361 -5.32748 0 0 1.5 0.0930536 0.258961 
-5.51122 14.0092 -5.50418 0 0 1.5 0.103649 0.227828 
-5.70926 13.6605 -5.69003 0 0 1.5 0.114442 0.204137 
-5.88735 13.3343 -5.92811 0 0 1.5 0.125175 0.186251 
-6.06241 13.0115 -6.17414 0 0 1.5 0.145296 0.163067 
-6.20764 12.7159 -6.46829 0 0 1.5 0.154071 0.155723 
-6.34996 12.423 -6.76712 0 0 1.5 0.161581 0.150469 
-6.45373 12.158 -7.10516 0 0 1.5 0.167536 0.147038 
-6.55456 11.8949 -7.44557 0 0 1.5 0.17395 0.143934 
-6.61024 11.6556 -7.81295 0 0 1.5 0.174245 0.143802 
-6.65853 11.4186 -8.18241 0 0 1.5 0.172634 0.144654 
-6.65989 11.1974 -8.56506 0 0 1.5 0.164361 0.149209 
-6.64329 10.9796 -8.94825 0 0 1.5 0.158236 0.153001 
-6.58303 10.77 -9.33274 0 0 1.5 0.151192 0.158058 
-6.49126 10.5635 -9.71122 0 0 1.5 0.143544 0.164522 
-6.36726 10.3601 -10.0836 0 0 1.5 0.127736 0.181826 
-6.2031 10.1582 -10.4397 0 0 1.5 0.12016 0.192727 
-6.02274 9.95677 -10.7894 0 0 1.5 0.113156 0.204828 
-5.80524 9.75435 -11.1163 0 0 1.5 0.106994 0.217342 
-5.58345 9.5518 -11.4406 0 0 1.5 0.0982262 0.238368 
-5.33612 9.34564 -11.7434 0 0 1.5 0.0961138 0.243321 
-5.08879 9.13947 -12.0462 0 0 1.5 0.0958233 0.242219 
-4.82785 8.92705 -12.3329 0 0 1.5 0.101359 0.220597 
-4.5669 8.71461 -12.6195 0 0 1.5 0.107364 0.2028 
-4.29959 8.49366 -12.8935 0 0 1.5 0.115582 0.183293 
-4.03153 8.27172 -13.166 0 0 1.5 0.126036 0.163955 
-3.75977 8.0395 -13.4258 0 0 1.5 0.153809 0.130274 
-3.48659 7.80336 -13.6807 0 0 1.5 0.171265 0.116864 
-3.21027 7.55612 -13.9206 0 0 1.5 0.191204 0.105667 
-2.93128 7.29941 -14.1479 0 0 1.5 0.21367 0.0964161 
-2.64964 7.03106 -14.356 0 0 1.5 0.265911 0.0829051 
-2.36429 6.74646 -14.5376 0 0 1.5 0.295124 0.0780587 
-2.07809 6.44737 -14.6872 0 0 1.5 0.325519 0.0740806 
-1.79076 6.12925 -14.795 0 0 1.5 0.355925 0.0707647 
-1.51311 5.79188 -14.832 0 0 1.5 0.41012 0.0652039 
-1.24299 5.44337 -14.8234 0 0 1.5 0.429856 0.0625189 
-1.02167 5.08872 -14.6798 0 0 1.5 0.442092 0.0597042 
-0.852755 4.75431 -14.46 0 0 1.5 0.440403 0.0533525 
-0.73648 4.44344 -14.1725 0 0 1.5 0.427053 0.0498473 
-0.71413 4.19092 -13.8105 0 0 1.5 0.407194 0.0461949 
-0.749914 3.98197 -13.4275 0 0 1.5 0.382874 0.0424255 
-0.824333 3.80196 -13.0308 0 0 1.5 0.328731 0.0347359 
-0.969981 3.68105 -12.632 0 0 1.5 0.301979 0.0308736 
-1.12784 3.57066 -12.235 0 0 1.5 0.276831 0.0269785 
-1.33182 3.50073 -11.8492 0 0 1.5 0.253863 0.0229611 
-1.54396 3.43792 -11.4671 0 0 1.5 0.215382 0.014204 
-1.78319 3.39879 -11.0975 0 0 1.5 0.199885 0.0093674 
-2.02716 3.36314 -10.7308 0 0 1.5 0.186719 0.00413203 
-2.28649 3.33879 -10.3737 0 0 1.5 0.166561 -0.00758874 
-2.54759 3.31465 -10.0179 0 0 1.5 0.159085 -0.0138121 
-2.81555 3.2914 -9.66713 0 0 1.5 0.153 -0.0202553 
-3.08368 3.26684 -9.3166 0 0 1.5 0.148038 -0.0269691 
-3.3526 3.23635 -8.96715 0 0 1.5 0.140422 -0.0408781 
-3.62119 3.20442 -8.61757 0 0 1.5 0.137261 -0.0482451 
-3.88844 3.16676 -8.26752 0 0 1.5 0.134228 -0.0562569 
-4.15638 3.13021 -7.9179 0 0 1.5 0.131125 -0.065115 
-4.42606 3.09637 -7.56933 0 0 1.5 0.12416 -0.0867715 
-4.70192 3.07544 -7.22497 0 0 1.5 0.120118 -0.100946 
-4.9847 3.0689 -6.88531 0 0 1.5 0.115659 -0.11841 
-5.2863 3.10971 -6.56611 0 0 1.5 0.105846 -0.16723 
-5.59758 3.18201 -6.26383 0 0 1.5 0.100852 -0.201359 
-5.92617 3.32653 -6.00592 0 0 1.5 0.0962075 -0.243002 
-6.25488 3.53045 -5.79945 0 0 1.5 0.0924277 -0.29053 
-6.58262 3.7676 -5.62264 0 0 1.5 0.0902708 -0.379616 
-6.89248 4.06238 -5.511 0 0 1.5 0.0935011 -0.400727 
-7.19573 4.36696 -5.41129 0 0 1.5 0.100572 -0.396053 
-7.48255 4.69588 -5.34117 0 0 1.5 0.111917 -0.369571 
-7.76156 5.03202 -5.27542 0 0 1.5 0.148083 -0.290961 
-8.02795 5.37982 -5.21671 0 0 1.5 0.173008 -0.253524 
-8.28551 5.73227 -5.14897 0 0 1.5 0.202518 -0.221172 
-8.5323 6.0904 -5.07017 0 0 1.5 0.236533 -0.19389 
-8.76162 6.4484 -4.95342 0 0 1.5 0.316324 -0.151461 
-8.97752 6.8044 -4.8082 0 0 1.5 0.359815 -0.133907 
-9.14241 7.13247 -4.56213 0 0 1.5 0.402703 -0.117185 
-9.23186 7.38949 -4.22339 0 0 1.5 0.472171 -0.0851315 
-9.23346 7.54696 -3.82101 0 0 1.5 0.490947 -0.0693064 
-9.16369 7.61421 -3.39382 0 0 1.5 0.495342 -0.053491 
-9.03611 7.60088 -2.97083 0 0 1.5 0.485061 -0.0385114 
-8.87158 7.53314 -2.56805 0 0 1.5 0.430163 -0.0133584 
-8.69365 7.44568 -2.1733 0 0 1.5 0.39301 -0.0030798 
-8.48355 7.31096 -1.8085 0 0 1.5 0.354155 0.00553816 
-8.26822 7.16896 -1.45028 0 0 1.5 0.316227 0.012465 
-8.03084 6.99624 -1.11984 0 0 1.5 0.249005 0.0228362 
-7.78816 6.81694 -0.797565 0 0 1.5 0.220925 0.0266791 
-7.52766 6.61547 -0.502738 0 0 1.5 0.196697 0.029563 
-7.26318 6.41006 -0.214772 0 0 1.5 0.15927 0.0319955 
-6.98312 6.18927 0.0463599 0 0 1.5 0.145706 0.0310121 
-6.7008 5.96714 0.303623 0 0 1.5 0.135344 0.0281231 
-6.40419 5.73656 0.536495 0 0 1.5 0.128026 0.0229939 
-6.10689 5.50588 0.768309 0 0 1.5 0.121844 0.00622997 
-5.79579 5.2733 0.97925 0 0 1.5 0.122563 -0.00409762 
-5.48469 5.04072 1.19019 0 0 1.5 0.125483 -0.0149911 
-5.16025 4.81089 1.38325 0 0 1.5 0.130321 -0.0261327 
-4.83531 4.58117 1.57564 0 0 1.5 0.144603 -0.0470313 
-4.49691 4.35489 1.74769 0 0 1.5 0.153492 -0.0568666 
-4.15738 4.12889 1.91804 0 0 1.5 0.163164 -0.0668777 
-3.80241 3.90336 2.0539 0 0 1.5 0.173307 -0.077021 
-3.44488 3.6769 2.17941 0 0 1.5 0.193686 -0.0979626 
-3.07577 3.44522 2.25328 0 0 1.5 0.203158 -0.109597 
-2.70712 3.20761 2.28126 0 0 1.5 0.21159 -0.12206 
-2.33895 2.96382 2.26154 0 0 1.5 0.223836 -0.14903 
-2.00235 2.70843 2.13406 0 0 1.5 0.227022 -0.163961 
-1.69716 2.44863 1.95705 0 0 1.5 0.227985 -0.179767 
-1.42717 2.18428 1.7277 0 0 1.5 0.226737 -0.196109 
-1.22587 1.9114 1.4457 0 0 1.5 0.218326 -0.230487 
-1.04768 1.63418 1.15287 0 0 1.5 0.211792 -0.248471 
-0.92758 1.34416 0.841689 0 0 1.5 0.204304 -0.266539 
-0.83386 1.0451 0.531955 0 0 1.5 0.196358 -0.284208 
-0.781327 0.731935 0.224482 0 0 1.5 0.180897 -0.315879 
-0.758875 0.405658 -0.0706081 0 0 1.5 0.174156 -0.328275 
-0.769022 0.0651721 -0.352278 0 0 1.5 0.168477 -0.337022 
-0.808685 -0.289274 -0.61047 0 0 1.5 0.160922 -0.340935 
-0.875784 -0.656697 -0.846839 0 0 1.5 0.15918 -0.335746 
-0.968437 -1.03587 -1.05027 0 0 1.5 0.158773 -0.326055 
-1.08329 -1.42526 -1.22508 0 0 1.5 0.159584 -0.312739 
-1.21647 -1.82222 -1.36087 0 0 1.5 0.164176 -0.280661 
-1.36511 -2.22558 -1.46372 0 0 1.5 0.167616 -0.263743 
-1.5226 -2.63201 -1.52637 0 0 1.5 0.171554 -0.247126 
-1.68766 -3.04107 -1.55458 0 0 1.5 0.175783 -0.231469 
-1.85191 -3.4498 -1.54573 0 0 1.5 0.184485 -0.203657 
-2.01542 -3.85823 -1.50301 0 0 1.5 0.188649 -0.191351 
-2.17005 -4.26411 -1.42814 0 0 1.5 0.192491 -0.180171 
-2.31582 -4.66746 -1.32123 0 0 1.5 0.198842 -0.160648 
-2.4464 -5.06621 -1.18618 0 0 1.5 0.201195 -0.151838 
-2.56124 -5.46018 -1.02196 0 0 1.5 0.202909 -0.143635 
-2.65522 -5.84624 -0.831244 0 0 1.5 0.20397 -0.136007 
-2.72959 -6.22484 -0.615601 0 0 1.5 0.204128 -0.121681 
-2.77687 -6.58961 -0.372844 0 0 1.5 0.203239 -0.11496 
-2.80535 -6.94477 -0.111268 0 0 1.5 0.201757 -0.108662 
-2.79946 -7.27659 0.179012 0 0 1.5 0.199741 -0.102629 
-2.78048 -7.59951 0.480224 0 0 1.5 0.194319 -0.0910808 
-2.71866 -7.88651 0.810101 0 0 1.5 0.191022 -0.0857218 
-2.64582 -8.16367 1.14578 0 0 1.5 0.187408 -0.0805724 
-2.53397 -8.40489 1.49888 0 0 1.5 0.183518 -0.0755615 
-2.40276 -8.62881 1.85536 0 0 1.5 0.175066 -0.0665221 
-2.24513 -8.82914 2.21646 0 0 1.5 0.170603 -0.062531 
-2.05614 -9.00368 2.57493 0 0 1.5 0.166031 -0.0587956 
-1.85407 -9.16748 2.93229 0 0 1.5 0.156651 -0.0524935 
-1.61299 -9.30024 3.27809 0 0 1.5 0.151887 -0.0499814 
-1.36391 -9.42585 3.62042 0 0 1.5 0.147091 -0.0478463 
-1.09037 -9.52934 3.95185 0 0 1.5 0.142265 -0.0461611 
-0.80709 -9.62025 4.2782 0 0 1.5 0.132535 -0.044386 
-0.511411 -9.69515 4.5981 0 0 1.5 0.127634 -0.0443151 
-0.207126 -9.75115 4.91333 0 0 1.5 0.122698 -0.0448493 
0.102406 -9.79562 5.22571 0 0 1.5 0.117721 -0.0460598 
0.41875 -9.81431 5.53352 0 0 1.5 0.107624 -0.0508475 
0.736966 -9.8259 5.84008 0 0 1.5 0.102488 -0.0546422 
1.06232 -9.80639 6.13853 0 0 1.5 0.0972846 -0.059553 
1.38914 -9.78207 6.43494 0 0 1.5 0.0866747 -0.0737413 
1.72528 -9.73161 6.71749 0 0 1.5 0.0812753 -0.0837167 
2.06518 -9.67589 6.9941 0 0 1.5 0.0758233 -0.0962641 
2.41605 -9.60482 7.25335 0 0 1.5 0.0703361 -0.11212 
2.77395 -9.53002 7.50112 0 0 1.5 0.0593783 -0.158016 
3.14249 -9.44957 7.7315 0 0 1.5 0.0539988 -0.191143 
3.51976 -9.36998 7.94696 0 0 1.5 0.0487771 -0.233717 
3.90526 -9.29122 8.14835 0 0 1.5 0.0438167 -0.287805 
4.29848 -9.21824 8.33606 0 0 1.5 0.035274 -0.432546 
4.69698 -9.14922 8.51439 0 0 1.5 0.0320892 -0.51132 
5.10022 -9.0891 8.68487 0 0 1.5 0.0299318 -0.570331 
5.50625 -9.03424 8.85069 0 0 1.5 0.0292043 -0.55072 
5.91356 -8.98915 9.01617 0 0 1.5 0.0304858 -0.47806 
6.32163 -8.9499 9.18142 0 0 1.5 0.0325376 -0.392487 
6.72792 -8.92031 9.35269 0 0 1.5 0.0350639 -0.312772 
7.13306 -8.89703 9.5279 0 0 1.5 0.0405839 -0.194628 
7.53419 -8.88331 9.71265 0 0 1.5 0.0432466 -0.154106 
7.93243 -8.87649 9.9043 0 0 1.5 0.0457051 -0.123177 
8.32559 -8.87944 10.1059 0 0 1.5 0.0479056 -0.0999662 
8.71482 -8.88993 10.315 0 0 1.5 0.0514661 -0.0693228 
9.09936 -8.91058 10.5317 0 0 1.5 0.0528534 -0.0596436 
9.48021 -8.93924 10.7542 0 0 1.5 0.054034 -0.0529053 
9.85816 -8.97815 10.9798 0 0 1.5 0.0550734 -0.0485127 
10.2338 -9.0252 11.2079 0 0 1.5 0.0570748 -0.0449906 
10.609 -9.08205 11.4344 0 0 1.5 0.0582445 -0.045056 
10.9838 -9.14695 11.6596 0 0 1.5 0.0596807 -0.045969 
11.3599 -9.22064 11.8795 0 0 1.5 0.0638599 -0.0490754 
11.7373 -9.30245 12.0945 0 0 1.5 0.066849 -0.0503556 
12.1164 -9.39182 12.3033 0 0 1.5 0.0705835 -0.0512748 
12.4974 -9.4901 12.5047 0 0 1.5 0.0751628 -0.0518446 
12.8789 -9.59483 12.7014 0 0 1.5 0.0871872 -0.0510334 
13.2616 -9.71103 12.8897 0 0 1.5 0.0947433 -0.0498635 
13.6436 -9.83231 13.0759 0 0 1.5 0.103386 -0.0485404 
14.0232 -9.97074 13.255 0 0 1.5 0.113145 -0.0470336 
14.4019 -10.1118 13.4339 0 0 1.5 0.136006 -0.0436271 
14.7708 -10.2797 13.6102 0 0 1.5 0.149022 -0.0420324 
15.1397 -10.4477 13.7864 0 0 1.5 0.162964 -0.0405077 
15.4861 -10.6545 13.9669 0 0 1.5 0.192787 -0.0374896 
15.8322 -10.862 14.1473 0 0 1.5 0.207984 -0.0360163 
16.1374 -11.1181 14.3383 0 0 1.5 0.222706 -0.0345346 
16.4356 -11.3804 14.5307 0 0 1.5 0.236331 -0.0329852 
16.668 -11.6955 14.7359 0 0 1.5 0.257396 -0.0294825 
16.8659 -12.0268 14.9441 0 0 1.5 0.263385 -0.0275387 
16.9917 -12.3923 15.1586 0 0 1.5 0.265635 -0.0255252 
17.0335 -12.7731 15.3701 0 0 1.5 0.263912 -0.0234038 
17.0317 -13.162 15.5802 0 0 1.5 0.248954 -0.0188707 
16.9161 -13.5425 15.7727 0 0 1.5 0.236602 -0.0166356 
16.782 -13.9178 15.9606 0 0 1.5 0.221892 -0.0144206 
16.5824 -14.2734 16.131 0 0 1.5 0.205544 -0.0121879 
16.3699 -14.6228 16.2967 0 0 1.5 0.170568 -0.00792141 
16.1205 -14.9545 16.4489 0 0 1.5 0.153044 -0.00584854 
15.8668 -15.2836 16.5991 0 0 1.5 0.136006 -0.00367273 
15.5916 -15.5999 16.7392 0 0 1.5 0.10423 0.00119729 
15.3164 -15.9162 16.8793 0 0 1.5 0.0897168 0.00419671 
15.0338 -16.2282 17.0139 0 0 1.5 0.0761721 0.00801775 
14.751 -16.5402 17.1484 0 0 1.5 0.0635881 0.0132364 
14.4754 -16.8581 17.2835 0 0 1.5 0.0411525 0.0334419 
14.2019 -17.1779 17.4188 0 0 1.5 0.0312294 0.0563729 
13.9479 -17.511 17.5588 0 0 1.5 0.0221405 0.106531 
13.7052 -17.8517 17.7015 0 0 1.5 0.0138859 0.253402 
13.5054 -18.214 17.8531 0 0 1.5 0.00353658 3.28427 
13.3283 -18.5875 18.0095 0 0 1.5 0.00820018 0.550478 
13.1511 -18.9611 18.1658 0 0 1.5 0.0135349 0.180553 
12.974 -19.3346 18.3222 0 0 1.5 0.0226354 0.0498716 
12.7968 -19.7082 18.4785 0 0 1.5 0.0262372 0.032041 
12.6196 -20.0817 18.6348 0 0 1.5 0.0291976 0.0220941 
12.4425 -20.4553 18.7912 0 0 1.5 0.0315278 0.0159775 
12.2653 -20.8288 18.9475 0 0 1.5 0.0343381 0.00914891 
12.0881 -21.2024 19.1039 0 0 1.5 0.0348542 0.00710428 
11.911 -21.5759 19.2602 0 0 1.5 0.0348151 0.00555373 
11.7338 -21.9495 19.4166 0 0 1.5 0.0342536 0.0043417 
11.5566 -22.323 19.5729 0 0 1.5 0.0317325 0.0025313 
11.3795 -22.6966 19.7293 0 0 1.5 0.0298819 0.00180915 
11.2023 -23.0701 19.8856 0 0 1.5 0.0277192 0.00116322 
11.0251 -23.4437 20.042 0 0 1.5 0.0227082 -0.000136293 
10.848 -23.8172 20.1983 0 0 1.5 0.0199793 -0.000911154 
10.6708 -24.1908 20.3546 0 0 1.5 0.0171828 -0.00186544 
10.4936 -24.5643 20.511 0 0 1.5 0.0143778 -0.00319504 
10.3165 -24.9379 20.6673 0 0 1.5 0.00893404 -0.00915765 
10.1393 -25.3114 20.8237 0 0 1.5 0.00639723 -0.0173535 
9.96213 -25.685 20.98 0 0 1.5 0.00408023 -0.0402077 
9.78496 -26.0585 21.1364 0 0 1.5 0.00219644 -0.128345 
9.6078 -26.4321 21.2927 0 0 1.5 0.00297959 -0.056813 
9.43063 -26.8056 21.4491 0 0 1.5 0.00445225 -0.022564 
9.25346 -27.1792 21.6054 0 0 1.5 0.00580286 -0.0117112 
9.0763 -27.5527 21.7618 0 0 1.5 0.00696625 -0.00713154 
8.89913 -27.9263 21.9181 0 0 1.5 0.008675 -0.00352311 
8.72197 -28.2998 22.0744 0 0 1.5 0.00922439 -0.00273835 
8.5448 -28.6734 22.2308 0 0 1.5 0.00958437 -0.00224194 
8.36763 -29.0469 22.3871 0 0 1.5 0.00978487 -0.00172365 
8.19047 -29.4205 22.5435 0 0 1.5 0.00965136 -0.00161117 
8.0133 -29.794 22.6998 0 0 1.5 0.00938001 -0.00157009 
7.83614 -30.1676 22.8562 0 0 1.5 0.00898425 -0.0015955 
7.65897 -30.5412 23.0125 0 0 1.5 0.00787301 -0.00188337 
7.4818 -30.9147 23.1689 0 0 1.5 0.00718443 -0.00219664 
7.30464 -31.2883 23.3252 0 0 1.5 0.00642503 -0.00269573 
7.12747 -31.6618 23.4815 0 0 1.5 0.00560757 -0.00350667 
6.95031 -32.0354 23.6379 0 0 1.5 0.0038405 -0.007514 
6.77314 -32.4089 23.7942 0 0 1.5 0.00291581 -0.0131552 
6.59597 -32.7825 23.9506 0 0 1.5 0.001993 -0.028496 
6.41881 -33.156 24.1069 0 0 1.5 0.000833445 -0.16784 
6.24164 -33.5296 24.2633 0 0 1.5 0.0014768 -0.0542239 
6.06447 -33.9031 24.4196 0 0 1.5 0.00242026 -0.0204637 
5.88731 -34.2767 24.576 0 0 1.5 0.00343268 -0.0103109 
5.71014 -34.6502 24.7323 0 0 1.5 0.00553 -0.00406721 
5.53298 -35.0238 24.8887 0 0 1.5 0.00659828 -0.00288502 
5.35581 -35.3973 25.045 0 0 1.5 0.00767642 -0.00215263 
5.17864 -35.7709 25.2013 0 0 1.5 0.00876387 -0.00166749 
5.00148 -36.1444 25.3577 0 0 1.5 0.0109666 -0.00108438 
4.82431 -36.518 25.514 0 0 1.5 0.0120824 -0.000902007 
4.64715 -36.8915 25.6704 0 0 1.5 0.0132086 -0.000762523 
0 1 0 
1 2 0 
2 3 0 
3 4 0 
4 5 0 
5 6 0 
6 7 0 
7 8 0 
8 9 0 
9 10 0 
10 11 0 
11 12 0 
12 13 0 
13 14 0 
14 15 0 
15 16 0 
16 17 0 
17 18 0 
18 19 0 
19 20 0 
20 21 0 
21 22 0 
22 23 0 
23 24 0 
24 25 0 
25 26 0 
26 27 0 
27 28 0 
28 29 0 
29 30 0 
30 31 0 
31 32 0 
32 33 0 
33 34 0 
34 35 0 
35 36 0 
36 37 0 
37 38 0 
38 39 0 
39 40 0 
40 41 0 
41 42 0 
42 43 0 
43 44 0 
44 45 0 
45 46 0 
46 47 0 
47 48 0 
48 49 0 
49 50 0 
50 51 0 
51 52 0 
52 53 0 
53 54 0 
54 55 0 
55 56 0 
56 57 0 
57 58 0 
58 59 0 
59 60 0 
60 61 0 
61 62 0 
62 63 0 
63 64 0 
64 65 0 
65 66 0 
66 67 0 
67 68 0 
68 69 0 
69 70 0 
70 71 0 
71 72 0 
72 73 0 
73 74 0 
74 75 0 
75 76 0 
76 77 0 
77 78 0 
78 79 0 
79 80 0 
80 81 0 
81 82 0 
82 83 0 
83 84 0 
84 85 0 
85 86 0 
86 87 0 
87 88 0 
88 89 0 
89 90 0 
90 91 0 
91 92 0 
92 93 0 
93 94 0 
94 95 0 
95 96 0 
96 97 0 
97 98 0 
98 99 0 
99 100 0 
100 101 0 
101 102 0 
102 103 0 
103 104 0 
104 105 0 
105 106 0 
106 107 0 
107 108 0 
108 109 0 
109 110 0 
110 111 0 
111 112 0 
112 113 0 
113 114 0 
114 115 0 
115 116 0 
116 117 0 
117 118 0 
118 119 0 
119 120 0 
120 121 0 
121 122 0 
122 123 0 
123 124 0 
124 125 0 
125 126 0 
126 127 0 
127 128 0 
128 129 0 
129 130 0 
130 131 0 
131 132 0 
132 133 0 
133 134 0 
134 135 0 
135 136 0 
136 137 0 
137 138 0 
138 139 0 
139 140 0 
140 141 0 
141 142 0 
142 143 0 
143 144 0 
144 145 0 
145 146 0 
146 147 0 
147 148 0 
148 149 0 
149 150 0 
150 151 0 
151 152 0 
152 153 0 
153 154 0 
154 155 0 
155 156 0 
156 157 0 
157 158 0 
158 159 0 
159 160 0 
160 161 0 
161 162 0 
162 163 0 
163 164 0 
164 165 0 
165 166 0 
166 167 0 
167 168 0 
168 169 0 
169 170 0 
170 171 0 
171 172 0 
172 173 0 
173 174 0 
174 175 0 
175 176 0 
176 177 0 
177 178 0 
178 179 0 
179 180 0 
180 181 0 
181 182 0 
182 183 0 
183 184 0 
184 185 0 
185 186 0 
186 187 0 
187 188 0 
188 189 0 
189 190 0 
190 191 0 
191 192 0 
192 193 0 
193 194 0 
194 195 0 
195 196 0 
196 197 0 
197 198 0 
198 199 0 
199 200 0 
200 201 0 
201 202 0 
202 203 0 
203 204 0 
204 205 0 
205 206 0 
206 207 0 
207 208 0 
208 209 0 
209 210 0 
210 211 0 
211 212 0 
212 213 0 
213 214 0 
214 215 0 
215 216 0 
216 217 0 
217 218 0 
218 219 0 
219 220 0 
220 221 0 
221 222 0 
222 223 0 
223 224 0 
224 225 0 
225 226 0 
226 227 0 
227 228 0 
228 229 0 
229 230 0 
230 231 0 
231 232 0 
232 233 0 
233 234 0 
234 235 0 
235 236 0 
236 237 0 
237 238 0 
238 239 0 
239 240 0 
240 241 0 
241 242 0 
242 243 0 
243 244 0 
244 245 0 
245 246 0 
246 247 0 
247 248 0 
248 249 0 
249 250 0 
250 251 0 
251 252 0 
252 253 0 
253 254 0 
254 255 0 
255 256 0 
256 257 0 
257 258 0 
258 259 0 
259 260 0 
260 261 0 
261 262 0 
262 263 0 
263 264 0 
264 265 0 
265 266 0 
266 267 0 
267 268 0 
268 269 0 
269 270 0 
270 271 0 
271 272 0 
272 273 0 
273 274 0 
274 275 0 
275 276 0 
276 277 0 
277 278 0 
278 279 0 
279 280 0 
280 281 0 
281 282 0 
282 283 0 
283 284 0 
284 285 0 
285 286 0 
286 287 0 
287 288 0 
288 289 0 
289 290 0 
290 291 0 
291 292 0 
292 293 0 
293 294 0 
294 295 0 
295 296 0 
296 297 0 
297 298 0 
298 299 0 
-1 -1 0 
-1 300 0 1 2 3 4 5 6 7 8 9 10 11 12 13 14 15 16 17 18 19 20 21 22 23 24 25 26 27 28 29 30 31 32 33 34 35 36 37 38 39 40 41 42 43 44 45 46 47 48 49 50 51 52 53 54 55 56 57 58 59 60 61 62 63 64 65 66 67 68 69 70 71 72 73 74 75 76 77 78 79 80 81 82 83 84 85 86 87 88 89 90 91 92 93 94 95 96 97 98 99 100 101 102 103 104 105 106 107 108 109 110 111 112 113 114 115 116 117 118 119 120 121 122 123 124 125 126 127 128 129 130 131 132 133 134 135 136 137 138 139 140 141 142 143 144 145 146 147 148 149 150 151 152 153 154 155 156 157 158 159 160 161 162 163 164 165 166 167 168 169 170 171 172 173 174 175 176 177 178 179 180 181 182 183 184 185 186 187 188 189 190 191 192 193 194 195 196 197 198 199 200 201 202 203 204 205 206 207 208 209 210 211 212 213 214 215 216 217 218 219 220 221 222 223 224 225 226 227 228 229 230 231 232 233 234 235 236 237 238 239 240 241 242 243 244 245 246 247 248 249 250 251 252 253 254 255 256 257 258 259 260 261 262 263 264 265 266 267 268 269 270 271 272 273 274 275 276 277 278 279 280 281 282 283 284 285 286 287 288 289 290 291 292 293 294 295 296 297 298 299 
