ply
format ascii 1.0
comment written by koba@oshima.lab
element vertex 300
property float x
property float y
property float z
property int label
property int attribute
property float radius
property float curvature
property float torsion
element edge 300
property int vertex1
property int vertex2
property int label
element vertex_seq 1
property int label
property list int int vertex_indices
end_header
-3.99725 17.1136 -13.5791 0 0 1.5 0.0645385 0.0019895 
-4.00787 17.0519 -13.233 0 0 1.5 0.0629792 0.00202459 
-4.0185 16.9901 -12.8868 0 0 1.5 0.061445 0.00212217 
-4.02912 16.9284 -12.5407 0 0 1.5 0.0599308 0.00227987 
-4.03975 16.8666 -12.1945 0 0 1.5 0.0569438 0.00276749 
-4.05037 16.8048 -11.8483 0 0 1.5 0.055453 0.0030957 
-4.061 16.7431 -11.5022 0 0 1.5 0.0539478 0.00348267 
-4.07162 16.6813 -11.156 0 0 1.5 0.052418 0.00393234 
-4.08225 16.6196 -10.8099 0 0 1.5 0.0492278 0.00500278 
-4.09287 16.5578 -10.4637 0 0 1.5 0.0475225 0.00564724 
-4.10349 16.4961 -10.1176 0 0 1.5 0.0457188 0.00640021 
-4.11412 16.4343 -9.77141 0 0 1.5 0.0438009 0.00727498 
-4.12474 16.3726 -9.42526 0 0 1.5 0.0395297 0.00958453 
-4.13537 16.3108 -9.0791 0 0 1.5 0.0371438 0.0112329 
-4.14599 16.2491 -8.73294 0 0 1.5 0.0345846 0.0133975 
-4.15662 16.1873 -8.38679 0 0 1.5 0.0289932 0.0204451 
-4.16724 16.1255 -8.04063 0 0 1.5 0.026057 0.0264375 
-4.17786 16.0638 -7.69448 0 0 1.5 0.0231924 0.0350767 
-4.18849 16.002 -7.34832 0 0 1.5 0.0206726 0.0467337 
-4.19911 15.9403 -7.00216 0 0 1.5 0.0187111 0.0661833 
-4.20974 15.8785 -6.65601 0 0 1.5 0.0204525 0.0608163 
-4.22036 15.8168 -6.30985 0 0 1.5 0.024259 0.0480349 
-4.23099 15.755 -5.9637 0 0 1.5 0.0298448 0.0357863 
-4.24161 15.6933 -5.61754 0 0 1.5 0.0453485 0.0207002 
-4.25224 15.6315 -5.27138 0 0 1.5 0.0550759 0.0166129 
-4.26286 15.5698 -4.92523 0 0 1.5 0.0661575 0.0138784 
-4.27348 15.508 -4.57907 0 0 1.5 0.0929927 0.0108003 
-4.28411 15.4462 -4.23291 0 0 1.5 0.109181 0.00996237 
-4.29473 15.3845 -3.88676 0 0 1.5 0.127587 0.00945104 
-4.30536 15.3227 -3.5406 0 0 1.5 0.148583 0.00921348 
-4.31598 15.261 -3.19445 0 0 1.5 0.200238 0.00937267 
-4.32661 15.1992 -2.84829 0 0 1.5 0.232002 0.00975998 
-4.33723 15.1375 -2.50213 0 0 1.5 0.268576 0.010383 
-4.34785 15.0757 -2.15598 0 0 1.5 0.310648 0.0112495 
-4.35848 15.014 -1.80982 0 0 1.5 0.413605 0.0138232 
-4.3691 14.9522 -1.46367 0 0 1.5 0.474841 0.0156518 
-4.39747 14.87 -1.1276 0 0 1.5 0.541669 0.0178997 
-4.49515 14.7081 -0.830967 0 0 1.5 0.611987 0.020571 
-4.65452 14.4696 -0.634542 0 0 1.5 0.745797 0.0271031 
-4.83861 14.1926 -0.541985 0 0 1.5 0.796409 0.0308019 
-5.02542 13.8997 -0.540923 0 0 1.5 0.827056 0.0345662 
-5.20296 13.6048 -0.610412 0 0 1.5 0.814402 0.0414431 
-5.35168 13.323 -0.759372 0 0 1.5 0.77395 0.0444025 
-5.47851 13.0553 -0.945421 0 0 1.5 0.718282 0.0471436 
-5.58928 12.7983 -1.1583 0 0 1.5 0.654423 0.0497863 
-5.66473 12.5708 -1.41578 0 0 1.5 0.524369 0.0555406 
-5.72894 12.3556 -1.68523 0 0 1.5 0.465051 0.0590267 
-5.77431 12.161 -1.97477 0 0 1.5 0.41164 0.0631694 
-5.80628 11.9874 -2.27833 0 0 1.5 0.364422 0.068178 
-5.83103 11.8251 -2.58947 0 0 1.5 0.28726 0.081039 
-5.84654 11.6885 -2.91304 0 0 1.5 0.256195 0.089209 
-5.86054 11.5572 -3.23904 0 0 1.5 0.229312 0.0989238 
-5.87221 11.4495 -3.57373 0 0 1.5 0.185783 0.123081 
-5.88427 11.3472 -3.90997 0 0 1.5 0.168158 0.137916 
-5.89749 11.2606 -4.25067 0 0 1.5 0.152763 0.155141 
-5.91081 11.1821 -4.59319 0 0 1.5 0.139282 0.174818 
-5.92425 11.1128 -4.93781 0 0 1.5 0.117093 0.22168 
-5.93293 11.0537 -5.28441 0 0 1.5 0.108047 0.249292 
-5.93942 10.9988 -5.63182 0 0 1.5 0.100222 0.27921 
-5.92843 10.9558 -5.98079 0 0 1.5 0.093568 0.310253 
-5.90618 10.9162 -6.3293 0 0 1.5 0.0837341 0.369337 
-5.8653 10.8826 -6.67708 0 0 1.5 0.0805811 0.39264 
-5.79412 10.8535 -7.01998 0 0 1.5 0.078643 0.407845 
-5.70586 10.8256 -7.35892 0 0 1.5 0.0784351 0.407068 
-5.58709 10.7974 -7.68885 0 0 1.5 0.0800862 0.391733 
-5.44666 10.7636 -8.00913 0 0 1.5 0.0828144 0.369009 
-5.29369 10.7257 -8.32354 0 0 1.5 0.0865292 0.341756 
-5.12059 10.671 -8.62487 0 0 1.5 0.0965595 0.283757 
-4.94349 10.6049 -8.92114 0 0 1.5 0.102769 0.25603 
-4.76112 10.5235 -9.21073 0 0 1.5 0.109765 0.230013 
-4.58045 10.4172 -9.49287 0 0 1.5 0.117586 0.205893 
-4.40056 10.3021 -9.77234 0 0 1.5 0.136102 0.164061 
-4.23203 10.1523 -10.0424 0 0 1.5 0.147139 0.145911 
-4.06757 9.99484 -10.31 0 0 1.5 0.159683 0.129125 
-3.91651 9.81195 -10.5698 0 0 1.5 0.174063 0.113788 
-3.77312 9.61791 -10.8252 0 0 1.5 0.210044 0.087217 
-3.64169 9.40647 -11.0737 0 0 1.5 0.232722 0.0753681 
-3.51992 9.18293 -11.316 0 0 1.5 0.259429 0.064497 
-3.40761 8.94753 -11.552 0 0 1.5 0.328344 0.0456455 
-3.30593 8.69918 -11.779 0 0 1.5 0.372526 0.0370989 
-3.21102 8.44259 -12.0001 0 0 1.5 0.424605 0.0290006 
-3.12822 8.16989 -12.2058 0 0 1.5 0.485525 0.0212981 
-3.04971 7.89139 -12.4057 0 0 1.5 0.634776 0.00592324 
-2.98616 7.59016 -12.576 0 0 1.5 0.720208 -0.00214028 
-2.93161 7.27572 -12.7208 0 0 1.5 0.807079 -0.0104858 
-2.89108 6.94374 -12.8236 0 0 1.5 0.887053 -0.0190511 
-2.87606 6.59485 -12.8427 0 0 1.5 0.981223 -0.0356256 
-2.90395 6.26745 -12.7268 0 0 1.5 0.9766 -0.0428087 
-2.97633 6.01743 -12.4935 0 0 1.5 0.935132 -0.0487636 
-3.079 5.84936 -12.202 0 0 1.5 0.775693 -0.0571962 
-3.20527 5.7536 -11.8882 0 0 1.5 0.68088 -0.0602892 
-3.34391 5.69335 -11.5717 0 0 1.5 0.588446 -0.0633675 
-3.49101 5.65695 -11.2545 0 0 1.5 0.503332 -0.0670655 
-3.6513 5.65523 -10.9414 0 0 1.5 0.361679 -0.0782779 
-3.81637 5.66627 -10.6313 0 0 1.5 0.304852 -0.0871499 
-3.98737 5.6932 -10.3251 0 0 1.5 0.256065 -0.0996906 
-4.16228 5.73421 -10.0228 0 0 1.5 0.214146 -0.117512 
-4.33891 5.78145 -9.72225 0 0 1.5 0.146871 -0.181152 
-4.51494 5.84012 -9.42341 0 0 1.5 0.119968 -0.239253 
-4.69005 5.90063 -9.12438 0 0 1.5 0.09696 -0.330147 
-4.85782 5.96598 -8.82217 0 0 1.5 0.0634057 -0.668833 
-5.01993 6.03071 -8.51688 0 0 1.5 0.0549077 -0.856062 
-5.17114 6.09421 -8.20567 0 0 1.5 0.0536961 -0.87651 
-5.30679 6.15185 -7.88656 0 0 1.5 0.0593303 -0.716454 
-5.43333 6.20605 -7.56283 0 0 1.5 0.0829231 -0.383682 
-5.53033 6.24375 -7.22686 0 0 1.5 0.0976458 -0.289171 
-5.61525 6.27224 -6.88725 0 0 1.5 0.113227 -0.227467 
-5.67919 6.28438 -6.54154 0 0 1.5 0.129238 -0.18627 
-5.72107 6.27169 -6.19303 0 0 1.5 0.161102 -0.138169 
-5.75169 6.24411 -5.84411 0 0 1.5 0.176215 -0.123993 
-5.76203 6.18185 -5.49803 0 0 1.5 0.190231 -0.113583 
-5.76238 6.09271 -5.1587 0 0 1.5 0.202662 -0.105756 
-5.75516 5.98319 -4.82448 0 0 1.5 0.22083 -0.0956355 
-5.73712 5.82586 -4.51049 0 0 1.5 0.225821 -0.0923895 
-5.71667 5.65124 -4.20687 0 0 1.5 0.227757 -0.0898536 
-5.69233 5.44707 -3.92144 0 0 1.5 0.222432 -0.0870683 
-5.66599 5.21759 -3.65705 0 0 1.5 0.21563 -0.0867146 
-5.63874 4.97647 -3.40236 0 0 1.5 0.206583 -0.0868957 
-5.60935 4.70962 -3.17516 0 0 1.5 0.195767 -0.0877695 
-5.57925 4.43862 -2.95316 0 0 1.5 0.170859 -0.0920691 
-5.54628 4.15339 -2.74992 0 0 1.5 0.157694 -0.0954058 
-5.51128 3.86467 -2.55224 0 0 1.5 0.144566 -0.0995826 
-5.4725 3.56946 -2.36489 0 0 1.5 0.131761 -0.104661 
-5.42976 3.2721 -2.18199 0 0 1.5 0.107962 -0.116861 
-5.38289 2.97248 -2.00371 0 0 1.5 0.0972533 -0.123402 
-5.33031 2.67252 -1.82767 0 0 1.5 0.0874332 -0.129727 
-5.27424 2.37236 -1.653 0 0 1.5 0.0705632 -0.137765 
-5.21189 2.07342 -1.4784 0 0 1.5 0.0635284 -0.136545 
-5.14756 1.77486 -1.30383 0 0 1.5 0.0573859 -0.129568 
-5.0786 1.47808 -1.128 0 0 1.5 0.052085 -0.114478 
-5.00922 1.1815 -0.952004 0 0 1.5 0.0437971 -0.0509873 
-4.93974 0.8853 -0.775402 0 0 1.5 0.0406776 -0.00127047 
-4.87178 0.588448 -0.599325 0 0 1.5 0.0381536 0.0603672 
-4.80751 0.290012 -0.424523 0 0 1.5 0.0361919 0.13242 
-4.74791 -0.0109306 -0.252487 0 0 1.5 0.033987 0.283814 
-4.69299 -0.314377 -0.0832116 0 0 1.5 0.033835 0.347228 
-4.64588 -0.622791 0.0791433 0 0 1.5 0.0344234 0.391726 
-4.6019 -0.933192 0.238729 0 0 1.5 0.0358361 0.410913 
-4.56654 -1.25062 0.386093 0 0 1.5 0.0412787 0.379887 
-4.53247 -1.56949 0.530602 0 0 1.5 0.0452682 0.345189 
-4.50253 -1.89455 0.661713 0 0 1.5 0.0500179 0.307233 
-4.47198 -2.22131 0.788156 0 0 1.5 0.0613903 0.238073 
-4.44001 -2.55199 0.903811 0 0 1.5 0.0677828 0.210916 
-4.40338 -2.8843 1.0129 0 0 1.5 0.0744864 0.188637 
-4.36144 -3.21847 1.11451 0 0 1.5 0.0813755 0.170506 
-4.30808 -3.553 1.20874 0 0 1.5 0.0951782 0.145185 
-4.24791 -3.88776 1.29855 0 0 1.5 0.101819 0.136908 
-4.16715 -4.2199 1.38089 0 0 1.5 0.108119 0.130706 
-4.08088 -4.55134 1.46125 0 0 1.5 0.11396 0.126337 
-3.96305 -4.87463 1.53413 0 0 1.5 0.123818 0.122377 
-3.83811 -5.19528 1.6056 0 0 1.5 0.127663 0.122288 
-3.68242 -5.50383 1.67122 0 0 1.5 0.130712 0.123319 
-3.51264 -5.80471 1.73412 0 0 1.5 0.134319 0.128559 
-3.31951 -6.09288 1.79252 0 0 1.5 0.13492 0.132354 
-3.10588 -6.36632 1.8463 0 0 1.5 0.134808 0.136804 
-2.87826 -6.62972 1.89693 0 0 1.5 0.134068 0.14188 
-2.62742 -6.87181 1.94132 0 0 1.5 0.13116 0.152835 
-2.37092 -7.10871 1.98419 0 0 1.5 0.129276 0.158128 
-2.09243 -7.32049 2.02069 0 0 1.5 0.127294 0.162962 
-1.81132 -7.52867 2.05664 0 0 1.5 0.125352 0.166916 
-1.51685 -7.71823 2.08985 0 0 1.5 0.122107 0.170279 
-1.21929 -7.90257 2.12358 0 0 1.5 0.121024 0.168933 
-0.914326 -8.07439 2.15859 0 0 1.5 0.120407 0.165333 
-0.606635 -8.24027 2.19715 0 0 1.5 0.120725 0.151464 
-0.295243 -8.39807 2.24054 0 0 1.5 0.121671 0.141356 
0.0178927 -8.54931 2.29277 0 0 1.5 0.123104 0.129875 
0.332396 -8.69538 2.35194 0 0 1.5 0.12496 0.117774 
0.647101 -8.83279 2.42741 0 0 1.5 0.129588 0.0927686 
0.961886 -8.96677 2.50932 0 0 1.5 0.132152 0.0808406 
1.27455 -9.08725 2.61604 0 0 1.5 0.134726 0.0701979 
1.58649 -9.20387 2.72881 0 0 1.5 0.137188 0.0608228 
1.89475 -9.30289 2.86637 0 0 1.5 0.141281 0.0459955 
2.20135 -9.39257 3.01268 0 0 1.5 0.142667 0.0410759 
2.50502 -9.46566 3.17452 0 0 1.5 0.143458 0.0378534 
2.80667 -9.51951 3.34645 0 0 1.5 0.14355 0.036312 
3.10702 -9.56118 3.52478 0 0 1.5 0.141317 0.0387303 
3.4063 -9.57226 3.70893 0 0 1.5 0.138903 0.0430014 
3.70543 -9.57437 3.89366 0 0 1.5 0.135602 0.0496305 
4.00474 -9.54424 4.07603 0 0 1.5 0.126431 0.0699394 
4.30408 -9.5018 4.25506 0 0 1.5 0.120685 0.0843228 
4.60346 -9.43708 4.42806 0 0 1.5 0.114279 0.102645 
4.90201 -9.35546 4.59455 0 0 1.5 0.107322 0.125417 
5.19994 -9.26146 4.75626 0 0 1.5 0.0923095 0.188357 
5.49514 -9.15057 4.91188 0 0 1.5 0.0845704 0.232876 
5.78956 -9.03484 5.06576 0 0 1.5 0.0769262 0.289164 
6.07846 -8.90618 5.21978 0 0 1.5 0.069615 0.359154 
6.36593 -8.77633 5.37543 0 0 1.5 0.0572247 0.539378 
6.64648 -8.64255 5.54019 0 0 1.5 0.0529311 0.631059 
6.92287 -8.51023 5.71255 0 0 1.5 0.0504864 0.6922 
7.19187 -8.38052 5.89848 0 0 1.5 0.052149 0.643081 
7.45156 -8.25852 6.10131 0 0 1.5 0.056089 0.553168 
7.70506 -8.14167 6.31539 0 0 1.5 0.0616568 0.455528 
7.94251 -8.04246 6.55486 0 0 1.5 0.0684651 0.367487 
8.17492 -7.94954 6.80167 0 0 1.5 0.0845725 0.23729 
8.39202 -7.87792 7.06904 0 0 1.5 0.0934505 0.19183 
8.6039 -7.81713 7.3427 0 0 1.5 0.102692 0.155711 
8.80823 -7.77204 7.62549 0 0 1.5 0.112194 0.126558 
9.00943 -7.74404 7.91239 0 0 1.5 0.131657 0.0826809 
9.20892 -7.72536 8.20154 0 0 1.5 0.141477 0.0655016 
9.41111 -7.72958 8.48923 0 0 1.5 0.151252 0.0502932 
9.61437 -7.73945 8.77607 0 0 1.5 0.170295 0.0249257 
9.82547 -7.7748 9.05525 0 0 1.5 0.179341 0.0141569 
10.0393 -7.81893 9.33061 0 0 1.5 0.18789 0.00416623 
10.2599 -7.88434 9.59676 0 0 1.5 0.195787 -0.00483064 
10.4833 -7.96726 9.85485 0 0 1.5 0.208951 -0.0193726 
10.7093 -8.06594 10.1057 0 0 1.5 0.213857 -0.0253167 
10.9332 -8.19327 10.3448 0 0 1.5 0.217412 -0.030198 
11.1557 -8.3309 10.5797 0 0 1.5 0.219468 -0.0337612 
11.3653 -8.50485 10.8023 0 0 1.5 0.218634 -0.0373331 
11.5661 -8.69234 11.0209 0 0 1.5 0.215617 -0.0374024 
11.7506 -8.9043 11.2325 0 0 1.5 0.210884 -0.0362504 
11.9123 -9.13854 11.4379 0 0 1.5 0.204512 -0.0338492 
12.0621 -9.38444 11.64 0 0 1.5 0.18733 -0.0251698 
12.1738 -9.65587 11.8336 0 0 1.5 0.176853 -0.0190217 
12.2751 -9.93267 12.0247 0 0 1.5 0.16538 -0.0112718 
12.3435 -10.2247 12.2085 0 0 1.5 0.140165 0.0114261 
12.3961 -10.5218 12.3882 0 0 1.5 0.126767 0.0277986 
12.4265 -10.826 12.5623 0 0 1.5 0.113052 0.0501556 
12.4377 -11.1342 12.7306 0 0 1.5 0.0991487 0.082618 
12.4355 -11.4453 12.8948 0 0 1.5 0.0713507 0.210449 
12.4149 -11.759 13.0522 0 0 1.5 0.0579424 0.347204 
12.3871 -12.0738 13.2069 0 0 1.5 0.0455354 0.600331 
12.3453 -12.3902 13.3546 0 0 1.5 0.0354475 1.04227 
12.3004 -12.707 13.5008 0 0 1.5 0.0331764 1.27443 
12.2491 -13.0254 13.6411 0 0 1.5 0.0424673 0.796024 
12.1972 -13.3441 13.7808 0 0 1.5 0.0552689 0.478125 
12.1505 -13.665 13.9173 0 0 1.5 0.0851724 0.2047 
12.1078 -13.9862 14.0538 0 0 1.5 0.100947 0.145237 
12.0822 -14.3093 14.1907 0 0 1.5 0.116742 0.107259 
12.0741 -14.6318 14.3294 0 0 1.5 0.132229 0.0817679 
12.0895 -14.9537 14.4704 0 0 1.5 0.160764 0.0506761 
12.1523 -15.2667 14.6155 0 0 1.5 0.172939 0.0408119 
12.2404 -15.5728 14.7622 0 0 1.5 0.183169 0.0332674 
12.3988 -15.8498 14.9104 0 0 1.5 0.191091 0.0273442 
12.5908 -16.1021 15.0556 0 0 1.5 0.198842 0.0187611 
12.8242 -16.324 15.1971 0 0 1.5 0.19843 0.0156231 
13.0895 -16.5082 15.3306 0 0 1.5 0.195261 0.0130333 
13.3758 -16.6673 15.4588 0 0 1.5 0.189559 0.0108873 
13.6621 -16.8265 15.5869 0 0 1.5 0.171944 0.00762035 
13.9485 -16.9856 15.7151 0 0 1.5 0.160904 0.0063826 
14.2348 -17.1448 15.8433 0 0 1.5 0.14895 0.00535786 
14.5211 -17.3039 15.9715 0 0 1.5 0.12378 0.00377507 
14.8075 -17.4631 16.0997 0 0 1.5 0.111175 0.00315966 
15.0938 -17.6223 16.2279 0 0 1.5 0.0988655 0.00264695 
15.3802 -17.7814 16.3561 0 0 1.5 0.087013 0.00220346 
15.6665 -17.9406 16.4843 0 0 1.5 0.0650431 0.0013985 
15.9528 -18.0997 16.6125 0 0 1.5 0.0550413 0.00102013 
16.2392 -18.2589 16.7406 0 0 1.5 0.0457417 0.000609224 
16.5255 -18.418 16.8688 0 0 1.5 0.0371391 8.06929e-05 
16.8118 -18.5772 16.997 0 0 1.5 0.0219913 -0.00191709 
17.0982 -18.7363 17.1252 0 0 1.5 0.0154407 -0.00448664 
17.3845 -18.8955 17.2534 0 0 1.5 0.00955316 -0.0119666 
17.6708 -19.0547 17.3816 0 0 1.5 0.00118834 -0.654412 
17.9572 -19.2138 17.5098 0 0 1.5 0.00466685 -0.0364163 
18.2435 -19.373 17.638 0 0 1.5 0.00811004 -0.00998013 
18.5298 -19.5321 17.7662 0 0 1.5 0.0110463 -0.00428429 
18.8162 -19.6913 17.8943 0 0 1.5 0.015408 -0.0012226 
19.1025 -19.8504 18.0225 0 0 1.5 0.0168764 -0.000674162 
19.3888 -20.0096 18.1507 0 0 1.5 0.0179072 -0.000335804 
19.6752 -20.1687 18.2789 0 0 1.5 0.0185285 -0.000114671 
19.9615 -20.3279 18.4071 0 0 1.5 0.0186686 0.00017103 
20.2478 -20.487 18.5353 0 0 1.5 0.0182615 0.000278443 
20.5342 -20.6462 18.6635 0 0 1.5 0.017589 0.000370771 
20.8205 -20.8054 18.7917 0 0 1.5 0.0156067 0.000561611 
21.1069 -20.9645 18.9199 0 0 1.5 0.0143723 0.000678453 
21.3932 -21.1237 19.048 0 0 1.5 0.0130273 0.000815663 
21.6795 -21.2828 19.1762 0 0 1.5 0.0116098 0.000990914 
21.9659 -21.442 19.3044 0 0 1.5 0.00867681 0.00158923 
22.2522 -21.6011 19.4326 0 0 1.5 0.00721907 0.00212243 
22.5385 -21.7603 19.5608 0 0 1.5 0.00580376 0.00300268 
22.8249 -21.9194 19.689 0 0 1.5 0.00444855 0.00465135 
23.1112 -22.0786 19.8172 0 0 1.5 0.00198044 0.0190165 
23.3975 -22.2378 19.9454 0 0 1.5 0.000901103 0.0818745 
23.6839 -22.3969 20.0736 0 0 1.5 0.00020153 0 
23.9702 -22.5561 20.2017 0 0 1.5 0.000985112 0.0541865 
24.2565 -22.7152 20.3299 0 0 1.5 0.00238014 0.00725519 
24.5429 -22.8744 20.4581 0 0 1.5 0.00291562 0.00428569 
24.8292 -23.0335 20.5863 0 0 1.5 0.00334889 0.00288632 
25.1155 -23.1927 20.7145 0 0 1.5 0.00393308 0.00165957 
25.4019 -23.3518 20.8427 0 0 1.5 0.00409838 0.00136936 
25.6882 -23.511 20.9709 0 0 1.5 0.00419002 0.001178 
25.9746 -23.6702 21.0991 0 0 1.5 0.00421628 0.0010479 
26.2609 -23.8293 21.2273 0 0 1.5 0.0041063 0.000907374 
26.5472 -23.9885 21.3554 0 0 1.5 0.00398754 0.000877489 
26.8336 -24.1476 21.4836 0 0 1.5 0.00383791 0.000864347 
27.1199 -24.3068 21.6118 0 0 1.5 0.00366565 0.000865403 
27.4062 -24.4659 21.74 0 0 1.5 0.00327885 0.000906309 
27.6926 -24.6251 21.8682 0 0 1.5 0.00307643 0.000939053 
27.9789 -24.7842 21.9964 0 0 1.5 0.00287551 0.000977311 
28.2652 -24.9434 22.1246 0 0 1.5 0.00249126 0.00106868 
28.5516 -25.1025 22.2528 0 0 1.5 0.00231369 0.00111248 
28.8379 -25.2617 22.381 0 0 1.5 0.0021492 0.00115056 
29.1242 -25.4209 22.5091 0 0 1.5 0.00199835 0.00118373 
29.4106 -25.58 22.6373 0 0 1.5 0.001738 0.0012202 
29.6969 -25.7392 22.7655 0 0 1.5 0.00162847 0.00121941 
29.9832 -25.8983 22.8937 0 0 1.5 0.00153144 0.00121125 
30.2696 -26.0575 23.0219 0 0 1.5 0.00144543 0.00119904 
30.5559 -26.2166 23.1501 0 0 1.5 0.00130055 0.00118321 
30.8423 -26.3758 23.2783 0 0 1.5 0.00123844 0.00119505 
31.1286 -26.5349 23.4065 0 0 1.5 0.00118087 0.00123342 
0 1 0 
1 2 0 
2 3 0 
3 4 0 
4 5 0 
5 6 0 
6 7 0 
7 8 0 
8 9 0 
9 10 0 
10 11 0 
11 12 0 
12 13 0 
13 14 0 
14 15 0 
15 16 0 
16 17 0 
17 18 0 
18 19 0 
19 20 0 
20 21 0 
21 22 0 
22 23 0 
23 24 0 
24 25 0 
25 26 0 
26 27 0 
27 28 0 
28 29 0 
29 30 0 
30 31 0 
31 32 0 
32 33 0 
33 34 0 
34 35 0 
35 36 0 
36 37 0 
37 38 0 
38 39 0 
39 40 0 
40 41 0 
41 42 0 
42 43 0 
43 44 0 
44 45 0 
45 46 0 
46 47 0 
47 48 0 
48 49 0 
49 50 0 
50 51 0 
51 52 0 
52 53 0 
53 54 0 
54 55 0 
55 56 0 
56 57 0 
57 58 0 
58 59 0 
59 60 0 
60 61 0 
61 62 0 
62 63 0 
63 64 0 
64 65 0 
65 66 0 
66 67 0 
67 68 0 
68 69 0 
69 70 0 
70 71 0 
71 72 0 
72 73 0 
73 74 0 
74 75 0 
75 76 0 
76 77 0 
77 78 0 
78 79 0 
79 80 0 
80 81 0 
81 82 0 
82 83 0 
83 84 0 
84 85 0 
85 86 0 
86 87 0 
87 88 0 
88 89 0 
89 90 0 
90 91 0 
91 92 0 
92 93 0 
93 94 0 
94 95 0 
95 96 0 
96 97 0 
97 98 0 
98 99 0 
99 100 0 
100 101 0 
101 102 0 
102 103 0 
103 104 0 
104 105 0 
105 106 0 
106 107 0 
107 108 0 
108 109 0 
109 110 0 
110 111 0 
111 112 0 
112 113 0 
113 114 0 
114 115 0 
115 116 0 
116 117 0 
117 118 0 
118 119 0 
119 120 0 
120 121 0 
121 122 0 
122 123 0 
123 124 0 
124 125 0 
125 126 0 
126 127 0 
127 128 0 
128 129 0 
129 130 0 
130 131 0 
131 132 0 
132 133 0 
133 134 0 
134 135 0 
135 136 0 
136 137 0 
137 138 0 
138 139 0 
139 140 0 
140 141 0 
141 142 0 
142 143 0 
143 144 0 
144 145 0 
145 146 0 
146 147 0 
147 148 0 
148 149 0 
149 150 0 
150 151 0 
151 152 0 
152 153 0 
153 154 0 
154 155 0 
155 156 0 
156 157 0 
157 158 0 
158 159 0 
159 160 0 
160 161 0 
161 162 0 
162 163 0 
163 164 0 
164 165 0 
165 166 0 
166 167 0 
167 168 0 
168 169 0 
169 170 0 
170 171 0 
171 172 0 
172 173 0 
173 174 0 
174 175 0 
175 176 0 
176 177 0 
177 178 0 
178 179 0 
179 180 0 
180 181 0 
181 182 0 
182 183 0 
183 184 0 
184 185 0 
185 186 0 
186 187 0 
187 188 0 
188 189 0 
189 190 0 
190 191 0 
191 192 0 
192 193 0 
193 194 0 
194 195 0 
195 196 0 
196 197 0 
197 198 0 
198 199 0 
199 200 0 
200 201 0 
201 202 0 
202 203 0 
203 204 0 
204 205 0 
205 206 0 
206 207 0 
207 208 0 
208 209 0 
209 210 0 
210 211 0 
211 212 0 
212 213 0 
213 214 0 
214 215 0 
215 216 0 
216 217 0 
217 218 0 
218 219 0 
219 220 0 
220 221 0 
221 222 0 
222 223 0 
223 224 0 
224 225 0 
225 226 0 
226 227 0 
227 228 0 
228 229 0 
229 230 0 
230 231 0 
231 232 0 
232 233 0 
233 234 0 
234 235 0 
235 236 0 
236 237 0 
237 238 0 
238 239 0 
239 240 0 
240 241 0 
241 242 0 
242 243 0 
243 244 0 
244 245 0 
245 246 0 
246 247 0 
247 248 0 
248 249 0 
249 250 0 
250 251 0 
251 252 0 
252 253 0 
253 254 0 
254 255 0 
255 256 0 
256 257 0 
257 258 0 
258 259 0 
259 260 0 
260 261 0 
261 262 0 
262 263 0 
263 264 0 
264 265 0 
265 266 0 
266 267 0 
267 268 0 
268 269 0 
269 270 0 
270 271 0 
271 272 0 
272 273 0 
273 274 0 
274 275 0 
275 276 0 
276 277 0 
277 278 0 
278 279 0 
279 280 0 
280 281 0 
281 282 0 
282 283 0 
283 284 0 
284 285 0 
285 286 0 
286 287 0 
287 288 0 
288 289 0 
289 290 0 
290 291 0 
291 292 0 
292 293 0 
293 294 0 
294 295 0 
295 296 0 
296 297 0 
297 298 0 
298 299 0 
-1 -1 0 
-1 300 0 1 2 3 4 5 6 7 8 9 10 11 12 13 14 15 16 17 18 19 20 21 22 23 24 25 26 27 28 29 30 31 32 33 34 35 36 37 38 39 40 41 42 43 44 45 46 47 48 49 50 51 52 53 54 55 56 57 58 59 60 61 62 63 64 65 66 67 68 69 70 71 72 73 74 75 76 77 78 79 80 81 82 83 84 85 86 87 88 89 90 91 92 93 94 95 96 97 98 99 100 101 102 103 104 105 106 107 108 109 110 111 112 113 114 115 116 117 118 119 120 121 122 123 124 125 126 127 128 129 130 131 132 133 134 135 136 137 138 139 140 141 142 143 144 145 146 147 148 149 150 151 152 153 154 155 156 157 158 159 160 161 162 163 164 165 166 167 168 169 170 171 172 173 174 175 176 177 178 179 180 181 182 183 184 185 186 187 188 189 190 191 192 193 194 195 196 197 198 199 200 201 202 203 204 205 206 207 208 209 210 211 212 213 214 215 216 217 218 219 220 221 222 223 224 225 226 227 228 229 230 231 232 233 234 235 236 237 238 239 240 241 242 243 244 245 246 247 248 249 250 251 252 253 254 255 256 257 258 259 260 261 262 263 264 265 266 267 268 269 270 271 272 273 274 275 276 277 278 279 280 281 282 283 284 285 286 287 288 289 290 291 292 293 294 295 296 297 298 299 
