ply
format ascii 1.0
comment written by koba@oshima.lab
element vertex 300
property float x
property float y
property float z
property int label
property int attribute
property float radius
property float curvature
property float torsion
element edge 300
property int vertex1
property int vertex2
property int label
element vertex_seq 1
property int label
property list int int vertex_indices
end_header
5.34316 26.2701 5.04778 0 0 1.5 0.0275733 0.0611449 
5.14364 25.9918 4.84162 0 0 1.5 0.0266321 0.065763 
4.94412 25.7135 4.63546 0 0 1.5 0.0256909 0.0717664 
4.74461 25.4353 4.4293 0 0 1.5 0.0247417 0.0794644 
4.54509 25.157 4.22314 0 0 1.5 0.0227932 0.101556 
4.34557 24.8787 4.01698 0 0 1.5 0.0217837 0.116974 
4.14605 24.6004 3.81082 0 0 1.5 0.020747 0.13638 
3.94654 24.3221 3.60466 0 0 1.5 0.0196847 0.160922 
3.74702 24.0438 3.3985 0 0 1.5 0.0175147 0.230004 
3.5475 23.7655 3.19234 0 0 1.5 0.0164412 0.277747 
3.34799 23.4873 2.98618 0 0 1.5 0.0154175 0.336416 
3.14847 23.209 2.78002 0 0 1.5 0.014497 0.40486 
2.94895 22.9307 2.57386 0 0 1.5 0.0132766 0.544358 
2.74944 22.6524 2.3677 0 0 1.5 0.0131684 0.58838 
2.54992 22.3741 2.16154 0 0 1.5 0.0135145 0.594229 
2.3504 22.0958 1.95537 0 0 1.5 0.015685 0.500553 
2.15089 21.8176 1.74921 0 0 1.5 0.0174523 0.432964 
1.95137 21.5393 1.54305 0 0 1.5 0.019597 0.368952 
1.75185 21.261 1.33689 0 0 1.5 0.0220502 0.314109 
1.55234 20.9827 1.13073 0 0 1.5 0.0276396 0.236115 
1.35282 20.7044 0.924572 0 0 1.5 0.0306788 0.209965 
1.1533 20.4261 0.718411 0 0 1.5 0.0338205 0.18994 
0.953786 20.1478 0.512251 0 0 1.5 0.037021 0.175073 
0.754269 19.8696 0.30609 0 0 1.5 0.0434397 0.157278 
0.554752 19.5913 0.0999296 0 0 1.5 0.0465739 0.152741 
0.355235 19.313 -0.106231 0 0 1.5 0.0495974 0.150782 
0.155718 19.0347 -0.312392 0 0 1.5 0.0551403 0.153859 
-0.0437984 18.7564 -0.518552 0 0 1.5 0.0575804 0.157989 
-0.243315 18.4781 -0.724713 0 0 1.5 0.0597506 0.164026 
-0.442832 18.1999 -0.930873 0 0 1.5 0.0616189 0.172315 
-0.642349 17.9216 -1.13703 0 0 1.5 0.0643736 0.194612 
-0.841866 17.6433 -1.34319 0 0 1.5 0.0652554 0.208855 
-1.04138 17.365 -1.54935 0 0 1.5 0.0658197 0.225836 
-1.23324 17.0499 -1.70293 0 0 1.5 0.0660961 0.245168 
-1.4247 16.7324 -1.85146 0 0 1.5 0.0660346 0.289044 
-1.61309 16.3949 -1.9531 0 0 1.5 0.0658544 0.313595 
-1.80237 16.0556 -2.04501 0 0 1.5 0.0657047 0.338414 
-1.99474 15.7101 -2.1031 0 0 1.5 0.0657106 0.361397 
-2.19196 15.3658 -2.14832 0 0 1.5 0.0666698 0.396619 
-2.39689 15.0236 -2.1731 0 0 1.5 0.0678289 0.405778 
-2.61359 14.6883 -2.18585 0 0 1.5 0.069549 0.407338 
-2.83938 14.3585 -2.18931 0 0 1.5 0.0747632 0.390789 
-3.08583 14.0442 -2.18693 0 0 1.5 0.0781975 0.37577 
-3.33884 13.7349 -2.18271 0 0 1.5 0.0821027 0.35826 
-3.62135 13.4522 -2.18575 0 0 1.5 0.0863894 0.34 
-3.91083 13.1775 -2.19401 0 0 1.5 0.0956589 0.306413 
-4.22264 12.9288 -2.22032 0 0 1.5 0.100419 0.292185 
-4.54488 12.6983 -2.26458 0 0 1.5 0.105124 0.28009 
-4.87828 12.4872 -2.32807 0 0 1.5 0.109666 0.27035 
-5.21917 12.3055 -2.42726 0 0 1.5 0.117931 0.256881 
-5.56234 12.1342 -2.53921 0 0 1.5 0.121563 0.252476 
-5.90165 11.998 -2.70068 0 0 1.5 0.124815 0.249442 
-6.2365 11.8698 -2.8753 0 0 1.5 0.130155 0.245993 
-6.55926 11.763 -3.08547 0 0 1.5 0.132311 0.244772 
-6.87006 11.6657 -3.31564 0 0 1.5 0.134177 0.24358 
-7.16744 11.579 -3.56821 0 0 1.5 0.135803 0.242061 
-7.446 11.4984 -3.84236 0 0 1.5 0.138614 0.23642 
-7.71336 11.4215 -4.12934 0 0 1.5 0.13992 0.231935 
-7.95723 11.3446 -4.436 0 0 1.5 0.141219 0.226192 
-8.19299 11.2677 -4.74946 0 0 1.5 0.142547 0.219099 
-8.40218 11.1835 -5.07915 0 0 1.5 0.145355 0.201088 
-8.60619 11.0979 -5.41202 0 0 1.5 0.146815 0.190629 
-8.78058 10.9975 -5.75725 0 0 1.5 0.148279 0.17962 
-8.95131 10.8952 -6.10375 0 0 1.5 0.151064 0.156524 
-9.09062 10.7729 -6.45784 0 0 1.5 0.152282 0.144956 
-9.22326 10.6461 -6.81253 0 0 1.5 0.153312 0.133804 
-9.32776 10.5004 -7.16974 0 0 1.5 0.154105 0.123099 
-9.41799 10.346 -7.52657 0 0 1.5 0.154809 0.103271 
-9.48511 10.1776 -7.88276 0 0 1.5 0.154663 0.0945236 
-9.52793 9.99749 -8.23636 0 0 1.5 0.15417 0.0865288 
-9.55516 9.80997 -8.58827 0 0 1.5 0.153336 0.0792086 
-9.54642 9.61095 -8.93445 0 0 1.5 0.150745 0.0669796 
-9.52643 9.4092 -9.27858 0 0 1.5 0.149086 0.0620485 
-9.46986 9.20139 -9.61529 0 0 1.5 0.147269 0.0577861 
-9.39681 8.99293 -9.94773 0 0 1.5 0.145369 0.0541842 
-9.2989 8.78346 -10.2738 0 0 1.5 0.141695 0.0488624 
-9.17585 8.57504 -10.5912 0 0 1.5 0.140121 0.0470132 
-9.03892 8.3672 -10.9039 0 0 1.5 0.138868 0.0456119 
-8.87168 8.16165 -11.2028 0 0 1.5 0.137801 0.0438776 
-8.69884 7.95652 -11.4991 0 0 1.5 0.138232 0.0434476 
-8.49491 7.75343 -11.7765 0 0 1.5 0.139475 0.0431879 
-8.28787 7.55039 -12.0513 0 0 1.5 0.141655 0.0430003 
-8.05652 7.34779 -12.3066 0 0 1.5 0.149317 0.0427755 
-7.82127 7.14494 -12.5578 0 0 1.5 0.155032 0.04269 
-7.56601 6.94075 -12.7878 0 0 1.5 0.162154 0.0425801 
-7.30705 6.7359 -13.0126 0 0 1.5 0.170785 0.042489 
-7.03064 6.52798 -13.2129 0 0 1.5 0.19292 0.0425688 
-6.75084 6.31908 -13.4067 0 0 1.5 0.206549 0.0428308 
-6.45553 6.10563 -13.571 0 0 1.5 0.22191 0.0433223 
-6.15667 5.89074 -13.7254 0 0 1.5 0.257547 0.0452386 
-5.84492 5.67055 -13.8441 0 0 1.5 0.27746 0.0467573 
-5.5291 5.44837 -13.9432 0 0 1.5 0.298308 0.0487057 
-5.20497 5.22212 -14.0025 0 0 1.5 0.319517 0.0511257 
-4.87866 4.99512 -14.0184 0 0 1.5 0.359738 0.0574325 
-4.55061 4.76752 -14.0003 0 0 1.5 0.376725 0.061301 
-4.23449 4.54932 -13.8927 0 0 1.5 0.390118 0.0656388 
-3.93578 4.34419 -13.7339 0 0 1.5 0.398862 0.0703679 
-3.65949 4.15582 -13.515 0 0 1.5 0.39985 0.0806574 
-3.44711 4.01494 -13.2072 0 0 1.5 0.391866 0.0862419 
-3.27643 3.90465 -12.8672 0 0 1.5 0.378823 0.0920665 
-3.1416 3.82056 -12.5009 0 0 1.5 0.341558 0.104388 
-3.06907 3.78044 -12.1099 0 0 1.5 0.3196 0.111244 
-3.01984 3.75534 -11.7153 0 0 1.5 0.296828 0.118673 
-3.00004 3.74922 -11.3162 0 0 1.5 0.27413 0.126669 
-3.00976 3.75848 -10.9173 0 0 1.5 0.231478 0.145123 
-3.03074 3.77361 -10.5184 0 0 1.5 0.212302 0.155774 
-3.08184 3.79814 -10.1228 0 0 1.5 0.194853 0.16725 
-3.13812 3.82332 -9.72804 0 0 1.5 0.179228 0.179427 
-3.21788 3.84836 -9.33719 0 0 1.5 0.153508 0.204626 
-3.30476 3.87032 -8.94785 0 0 1.5 0.143332 0.216574 
-3.40774 3.88532 -8.56195 0 0 1.5 0.134841 0.227171 
-3.52222 3.88967 -8.17932 0 0 1.5 0.127924 0.235708 
-3.64679 3.88468 -7.79958 0 0 1.5 0.118242 0.245133 
-3.78845 3.85625 -7.4272 0 0 1.5 0.115153 0.245708 
-3.93691 3.81764 -7.05842 0 0 1.5 0.112988 0.243726 
-4.1038 3.74782 -6.70201 0 0 1.5 0.11065 0.235514 
-4.28043 3.6597 -6.35528 0 0 1.5 0.110118 0.230652 
-4.46766 3.55167 -6.01909 0 0 1.5 0.109791 0.225931 
-4.6697 3.41361 -5.70356 0 0 1.5 0.109525 0.222025 
-4.87692 3.26436 -5.39651 0 0 1.5 0.108789 0.21802 
-5.09516 3.08915 -5.11116 0 0 1.5 0.108189 0.218012 
-5.31671 2.90201 -4.83669 0 0 1.5 0.107381 0.219477 
-5.5421 2.70094 -4.57493 0 0 1.5 0.106375 0.222366 
-5.76767 2.48438 -4.32632 0 0 1.5 0.103903 0.231331 
-5.9933 2.26162 -4.08298 0 0 1.5 0.102543 0.236821 
-6.21262 2.02131 -3.85088 0 0 1.5 0.1012 0.242425 
-6.42978 1.77761 -3.62034 0 0 1.5 0.0989205 0.25138 
-6.63512 1.51917 -3.39495 0 0 1.5 0.098152 0.25352 
-6.83459 1.25623 -3.16979 0 0 1.5 0.0977302 0.253453 
-7.02079 0.983068 -2.94514 0 0 1.5 0.0977141 0.250674 
-7.19573 0.703951 -2.71917 0 0 1.5 0.0990481 0.236179 
-7.35869 0.418488 -2.49178 0 0 1.5 0.100421 0.224986 
-7.50483 0.126732 -2.26134 0 0 1.5 0.10225 0.211615 
-7.64222 -0.168295 -2.02932 0 0 1.5 0.104504 0.19648 
-7.75757 -0.469218 -1.79315 0 0 1.5 0.110115 0.164058 
-7.86822 -0.771398 -1.55609 0 0 1.5 0.113369 0.147791 
-7.95166 -1.07882 -1.31471 0 0 1.5 0.11685 0.13177 
-8.0309 -1.38687 -1.07289 0 0 1.5 0.1205 0.116451 
-8.08427 -1.69867 -0.828582 0 0 1.5 0.128086 0.0889273 
-8.12933 -2.01135 -0.584146 0 0 1.5 0.131913 0.0765686 
-8.15032 -2.32659 -0.339328 0 0 1.5 0.135691 0.0652599 
-8.15734 -2.64265 -0.0954115 0 0 1.5 0.142904 0.0460035 
-8.14214 -2.96002 0.147074 0 0 1.5 0.146239 0.0377888 
-8.10595 -3.27718 0.386721 0 0 1.5 0.14933 0.0305035 
-8.05032 -3.59417 0.623741 0 0 1.5 0.152133 0.0241818 
-7.96537 -3.90814 0.855032 0 0 1.5 0.15671 0.014067 
-7.86545 -4.22058 1.0834 0 0 1.5 0.158408 0.0101743 
-7.72709 -4.52449 1.30221 0 0 1.5 0.159675 0.00703906 
-7.58025 -4.82653 1.51892 0 0 1.5 0.160494 0.00461984 
-7.38614 -5.11132 1.72128 0 0 1.5 0.160735 0.00178525 
-7.18346 -5.3916 1.92047 0 0 1.5 0.160153 0.00126693 
-6.94333 -5.65191 2.10576 0 0 1.5 0.159116 0.00133155 
-6.68783 -5.90093 2.28399 0 0 1.5 0.155739 0.00319247 
-6.40668 -6.13114 2.45045 0 0 1.5 0.153455 0.0049117 
-6.1062 -6.3425 2.60582 0 0 1.5 0.150822 0.00717845 
-5.79093 -6.53942 2.75272 0 0 1.5 0.147878 0.0100367 
-5.45625 -6.71165 2.88565 0 0 1.5 0.141223 0.0173455 
-5.11488 -6.87537 3.01377 0 0 1.5 0.137605 0.0218182 
-4.75692 -7.0118 3.12715 0 0 1.5 0.133852 0.0269361 
-4.39677 -7.14451 3.23855 0 0 1.5 0.130004 0.0326684 
-4.0246 -7.25176 3.33723 0 0 1.5 0.122178 0.045969 
-3.65145 -7.35633 3.43476 0 0 1.5 0.11827 0.0537321 
-3.27137 -7.44184 3.52406 0 0 1.5 0.114403 0.0622465 
-2.89022 -7.52348 3.61207 0 0 1.5 0.106894 0.0815176 
-2.50497 -7.5901 3.69509 0 0 1.5 0.103296 0.09247 
-2.1187 -7.65163 3.7769 0 0 1.5 0.0998252 0.104275 
-1.72983 -7.70002 3.85558 0 0 1.5 0.0964986 0.116844 
-1.33999 -7.74124 3.9329 0 0 1.5 0.0903338 0.144406 
-0.948407 -7.76963 4.00778 0 0 1.5 0.0875221 0.159236 
-0.55599 -7.78741 4.08059 0 0 1.5 0.0849097 0.174448 
-0.162558 -7.79227 4.15087 0 0 1.5 0.0825108 0.189873 
0.231106 -7.78154 4.2177 0 0 1.5 0.0784056 0.220256 
0.624949 -7.75866 4.28185 0 0 1.5 0.0767199 0.234303 
1.01749 -7.71437 4.34088 0 0 1.5 0.0752857 0.247073 
1.40946 -7.66062 4.39764 0 0 1.5 0.0741005 0.258255 
1.7976 -7.58077 4.44848 0 0 1.5 0.072435 0.274181 
2.18501 -7.49593 4.49818 0 0 1.5 0.0719169 0.278501 
2.56581 -7.38347 4.54383 0 0 1.5 0.0715663 0.280523 
2.94549 -7.2676 4.58974 0 0 1.5 0.071191 0.278887 
3.3191 -7.1338 4.6373 0 0 1.5 0.0710681 0.276058 
3.69073 -6.99601 4.68826 0 0 1.5 0.070915 0.272596 
4.05814 -6.84981 4.74641 0 0 1.5 0.0706761 0.269223 
4.42299 -6.70224 4.81529 0 0 1.5 0.0697742 0.264926 
4.78544 -6.55339 4.89422 0 0 1.5 0.0690452 0.264816 
5.1441 -6.41015 4.99621 0 0 1.5 0.068104 0.266794 
5.50126 -6.26932 5.1071 0 0 1.5 0.066962 0.271192 
5.85119 -6.14412 5.25415 0 0 1.5 0.064198 0.287337 
6.19704 -6.02644 5.41485 0 0 1.5 0.0626719 0.298889 
6.53547 -5.92238 5.60028 0 0 1.5 0.061157 0.31193 
6.86403 -5.83244 5.80848 0 0 1.5 0.0585741 0.337541 
7.18798 -5.74902 6.02719 0 0 1.5 0.0577242 0.34649 
7.49865 -5.67977 6.26894 0 0 1.5 0.057324 0.34967 
7.80651 -5.61251 6.51467 0 0 1.5 0.057476 0.345307 
8.10802 -5.54975 6.76944 0 0 1.5 0.0597046 0.311871 
8.40779 -5.48693 7.02623 0 0 1.5 0.0618326 0.284512 
8.70616 -5.42408 7.28464 0 0 1.5 0.0646181 0.252908 
9.00676 -5.3593 7.53996 0 0 1.5 0.0680214 0.219411 
9.30806 -5.29391 7.79431 0 0 1.5 0.0764729 0.154362 
9.61682 -5.22866 8.03957 0 0 1.5 0.0814056 0.124927 
9.92714 -5.16411 8.28299 0 0 1.5 0.0867412 0.0979574 
10.248 -5.1065 8.51424 0 0 1.5 0.098457 0.0525257 
10.5721 -5.0535 8.74178 0 0 1.5 0.104764 0.0336093 
10.9062 -5.01485 8.95775 0 0 1.5 0.111331 0.016548 
11.2452 -4.98968 9.1671 0 0 1.5 0.118134 0.00136577 
11.5913 -4.98369 9.367 0 0 1.5 0.132345 -0.0238662 
11.9414 -5.00601 9.55691 0 0 1.5 0.139693 -0.0347605 
12.2941 -5.04639 9.74046 0 0 1.5 0.147151 -0.0445614 
12.6445 -5.13417 9.91029 0 0 1.5 0.154674 -0.0531776 
12.9931 -5.236 10.0762 0 0 1.5 0.169663 -0.0678498 
13.3278 -5.39325 10.2278 0 0 1.5 0.176954 -0.0740332 
13.6541 -5.56854 10.3751 0 0 1.5 0.183976 -0.0792952 
13.9622 -5.7826 10.513 0 0 1.5 0.190603 -0.0837496 
14.252 -6.02199 10.6453 0 0 1.5 0.20207 -0.0905428 
14.5254 -6.28436 10.7724 0 0 1.5 0.206596 -0.0928605 
14.772 -6.57324 10.8944 0 0 1.5 0.21011 -0.0944896 
15.0063 -6.87414 11.0139 0 0 1.5 0.213509 -0.0959277 
15.2075 -7.19889 11.1298 0 0 1.5 0.213158 -0.0959044 
15.4008 -7.52929 11.2447 0 0 1.5 0.211339 -0.09548 
15.5561 -7.87957 11.3575 0 0 1.5 0.208021 -0.0947478 
15.7071 -8.23212 11.47 0 0 1.5 0.197011 -0.0932491 
15.8149 -8.60045 11.5815 0 0 1.5 0.189521 -0.0927779 
15.9185 -8.96986 11.6929 0 0 1.5 0.180888 -0.0926583 
15.9774 -9.34935 11.8036 0 0 1.5 0.171265 -0.0932674 
16.0271 -9.72974 11.9141 0 0 1.5 0.149785 -0.0981626 
16.0345 -10.1141 12.0233 0 0 1.5 0.138266 -0.103188 
16.0243 -10.4979 12.1315 0 0 1.5 0.126422 -0.110953 
15.9779 -10.8804 12.2379 0 0 1.5 0.102328 -0.140034 
15.9056 -11.2586 12.342 0 0 1.5 0.0903163 -0.165883 
15.8074 -11.6324 12.4438 0 0 1.5 0.0784713 -0.205273 
15.6796 -11.9973 12.5425 0 0 1.5 0.0669442 -0.266961 
15.5373 -12.358 12.6397 0 0 1.5 0.045866 -0.529608 
15.3687 -12.7076 12.7342 0 0 1.5 0.0373734 -0.784069 
15.1949 -13.055 12.8281 0 0 1.5 0.0317345 -1.08042 
15.005 -13.3938 12.9227 0 0 1.5 0.0305136 -1.17147 
14.8148 -13.7322 13.0179 0 0 1.5 0.0412081 -0.658608 
14.6252 -14.0692 13.1188 0 0 1.5 0.0502289 -0.452029 
14.4411 -14.4081 13.2233 0 0 1.5 0.0601783 -0.321629 
14.2727 -14.7519 13.338 0 0 1.5 0.0704732 -0.239258 
14.1264 -15.1013 13.4626 0 0 1.5 0.0906787 -0.149065 
14.0065 -15.4573 13.5991 0 0 1.5 0.100063 -0.123176 
13.9446 -15.8184 13.7543 0 0 1.5 0.108637 -0.104033 
13.9059 -16.1814 13.917 0 0 1.5 0.122426 -0.078558 
13.9732 -16.5299 14.1005 0 0 1.5 0.127283 -0.0697941 
14.0585 -16.8714 14.2853 0 0 1.5 0.130585 -0.0626029 
14.2302 -17.1783 14.475 0 0 1.5 0.132238 -0.0567319 
14.402 -17.4853 14.6648 0 0 1.5 0.130663 -0.0481014 
14.5738 -17.7923 14.8546 0 0 1.5 0.127601 -0.0448016 
14.7456 -18.0992 15.0444 0 0 1.5 0.12321 -0.0421097 
14.9173 -18.4062 15.2342 0 0 1.5 0.117691 -0.0400549 
15.0891 -18.7132 15.424 0 0 1.5 0.104151 -0.0374151 
15.2609 -19.0201 15.6137 0 0 1.5 0.096554 -0.0368039 
15.4326 -19.3271 15.8035 0 0 1.5 0.0886655 -0.036796 
15.6044 -19.6341 15.9933 0 0 1.5 0.0726597 -0.0386376 
15.7762 -19.941 16.1831 0 0 1.5 0.0648036 -0.0407326 
15.948 -20.248 16.3729 0 0 1.5 0.0571687 -0.0440548 
16.1197 -20.555 16.5627 0 0 1.5 0.0498208 -0.0490058 
16.2915 -20.8619 16.7525 0 0 1.5 0.0361917 -0.0669553 
16.4633 -21.1689 16.9422 0 0 1.5 0.0299737 -0.0835773 
16.635 -21.4759 17.132 0 0 1.5 0.0241774 -0.110567 
16.8068 -21.7828 17.3218 0 0 1.5 0.0188249 -0.157592 
16.9786 -22.0898 17.5116 0 0 1.5 0.00959077 -0.461389 
17.1504 -22.3968 17.7014 0 0 1.5 0.00592334 -1.06435 
17.3221 -22.7037 17.8912 0 0 1.5 0.00365933 -2.46266 
17.4939 -23.0107 18.0809 0 0 1.5 0.00627591 -0.663124 
17.6657 -23.3177 18.2707 0 0 1.5 0.00848986 -0.325003 
17.8374 -23.6246 18.4605 0 0 1.5 0.0104839 -0.191527 
18.0092 -23.9316 18.6503 0 0 1.5 0.0121752 -0.127975 
18.181 -24.2386 18.8401 0 0 1.5 0.0146095 -0.0730334 
18.3528 -24.5455 19.0299 0 0 1.5 0.0153684 -0.0598913 
18.5245 -24.8525 19.2196 0 0 1.5 0.01584 -0.0512101 
18.6963 -25.1595 19.4094 0 0 1.5 0.0160445 -0.0454846 
18.8681 -25.4664 19.5992 0 0 1.5 0.0157415 -0.0392888 
19.0398 -25.7734 19.789 0 0 1.5 0.0152813 -0.0380023 
19.2116 -26.0803 19.9788 0 0 1.5 0.0146469 -0.0378142 
19.3834 -26.3873 20.1686 0 0 1.5 0.0138628 -0.0386352 
19.5552 -26.6943 20.3584 0 0 1.5 0.0119468 -0.0435511 
19.7269 -27.0012 20.5481 0 0 1.5 0.0108612 -0.0484661 
19.8987 -27.3082 20.7379 0 0 1.5 0.0097184 -0.0558632 
20.0705 -27.6152 20.9277 0 0 1.5 0.00734669 -0.0837209 
20.2422 -27.9221 21.1175 0 0 1.5 0.00615486 -0.111034 
20.414 -28.2291 21.3073 0 0 1.5 0.00498084 -0.158295 
20.5858 -28.5361 21.4971 0 0 1.5 0.0038441 -0.248394 
20.7576 -28.843 21.6868 0 0 1.5 0.00181317 -0.983879 
20.9293 -29.15 21.8766 0 0 1.5 0.00114775 -2.31412 
21.1011 -29.457 22.0664 0 0 1.5 0.00120305 -1.98419 
21.2729 -29.7639 22.2562 0 0 1.5 0.00182463 -0.812708 
21.4446 -30.0709 22.446 0 0 1.5 0.00331549 -0.218986 
21.6164 -30.3779 22.6358 0 0 1.5 0.00401945 -0.140094 
21.7882 -30.6848 22.8256 0 0 1.5 0.0046736 -0.0972136 
21.96 -30.9918 23.0153 0 0 1.5 0.00582712 -0.0548395 
22.1317 -31.2988 23.2051 0 0 1.5 0.00632973 -0.0433005 
22.3035 -31.6057 23.3949 0 0 1.5 0.00678655 -0.0349987 
22.4753 -31.9127 23.5847 0 0 1.5 0.00720128 -0.0288729 
22.6471 -32.2197 23.7745 0 0 1.5 0.0079206 -0.0205309 
22.8188 -32.5266 23.9643 0 0 1.5 0.0082334 -0.0176211 
22.9906 -32.8336 24.154 0 0 1.5 0.00852006 -0.0153179 
23.1624 -33.1406 24.3438 0 0 1.5 0.00878423 -0.0134769 
23.3341 -33.4475 24.5336 0 0 1.5 0.0092596 -0.0108094 
23.5059 -33.7545 24.7234 0 0 1.5 0.00947745 -0.00987407 
23.6777 -34.0615 24.9132 0 0 1.5 0.00968607 -0.00914668 
0 1 0 
1 2 0 
2 3 0 
3 4 0 
4 5 0 
5 6 0 
6 7 0 
7 8 0 
8 9 0 
9 10 0 
10 11 0 
11 12 0 
12 13 0 
13 14 0 
14 15 0 
15 16 0 
16 17 0 
17 18 0 
18 19 0 
19 20 0 
20 21 0 
21 22 0 
22 23 0 
23 24 0 
24 25 0 
25 26 0 
26 27 0 
27 28 0 
28 29 0 
29 30 0 
30 31 0 
31 32 0 
32 33 0 
33 34 0 
34 35 0 
35 36 0 
36 37 0 
37 38 0 
38 39 0 
39 40 0 
40 41 0 
41 42 0 
42 43 0 
43 44 0 
44 45 0 
45 46 0 
46 47 0 
47 48 0 
48 49 0 
49 50 0 
50 51 0 
51 52 0 
52 53 0 
53 54 0 
54 55 0 
55 56 0 
56 57 0 
57 58 0 
58 59 0 
59 60 0 
60 61 0 
61 62 0 
62 63 0 
63 64 0 
64 65 0 
65 66 0 
66 67 0 
67 68 0 
68 69 0 
69 70 0 
70 71 0 
71 72 0 
72 73 0 
73 74 0 
74 75 0 
75 76 0 
76 77 0 
77 78 0 
78 79 0 
79 80 0 
80 81 0 
81 82 0 
82 83 0 
83 84 0 
84 85 0 
85 86 0 
86 87 0 
87 88 0 
88 89 0 
89 90 0 
90 91 0 
91 92 0 
92 93 0 
93 94 0 
94 95 0 
95 96 0 
96 97 0 
97 98 0 
98 99 0 
99 100 0 
100 101 0 
101 102 0 
102 103 0 
103 104 0 
104 105 0 
105 106 0 
106 107 0 
107 108 0 
108 109 0 
109 110 0 
110 111 0 
111 112 0 
112 113 0 
113 114 0 
114 115 0 
115 116 0 
116 117 0 
117 118 0 
118 119 0 
119 120 0 
120 121 0 
121 122 0 
122 123 0 
123 124 0 
124 125 0 
125 126 0 
126 127 0 
127 128 0 
128 129 0 
129 130 0 
130 131 0 
131 132 0 
132 133 0 
133 134 0 
134 135 0 
135 136 0 
136 137 0 
137 138 0 
138 139 0 
139 140 0 
140 141 0 
141 142 0 
142 143 0 
143 144 0 
144 145 0 
145 146 0 
146 147 0 
147 148 0 
148 149 0 
149 150 0 
150 151 0 
151 152 0 
152 153 0 
153 154 0 
154 155 0 
155 156 0 
156 157 0 
157 158 0 
158 159 0 
159 160 0 
160 161 0 
161 162 0 
162 163 0 
163 164 0 
164 165 0 
165 166 0 
166 167 0 
167 168 0 
168 169 0 
169 170 0 
170 171 0 
171 172 0 
172 173 0 
173 174 0 
174 175 0 
175 176 0 
176 177 0 
177 178 0 
178 179 0 
179 180 0 
180 181 0 
181 182 0 
182 183 0 
183 184 0 
184 185 0 
185 186 0 
186 187 0 
187 188 0 
188 189 0 
189 190 0 
190 191 0 
191 192 0 
192 193 0 
193 194 0 
194 195 0 
195 196 0 
196 197 0 
197 198 0 
198 199 0 
199 200 0 
200 201 0 
201 202 0 
202 203 0 
203 204 0 
204 205 0 
205 206 0 
206 207 0 
207 208 0 
208 209 0 
209 210 0 
210 211 0 
211 212 0 
212 213 0 
213 214 0 
214 215 0 
215 216 0 
216 217 0 
217 218 0 
218 219 0 
219 220 0 
220 221 0 
221 222 0 
222 223 0 
223 224 0 
224 225 0 
225 226 0 
226 227 0 
227 228 0 
228 229 0 
229 230 0 
230 231 0 
231 232 0 
232 233 0 
233 234 0 
234 235 0 
235 236 0 
236 237 0 
237 238 0 
238 239 0 
239 240 0 
240 241 0 
241 242 0 
242 243 0 
243 244 0 
244 245 0 
245 246 0 
246 247 0 
247 248 0 
248 249 0 
249 250 0 
250 251 0 
251 252 0 
252 253 0 
253 254 0 
254 255 0 
255 256 0 
256 257 0 
257 258 0 
258 259 0 
259 260 0 
260 261 0 
261 262 0 
262 263 0 
263 264 0 
264 265 0 
265 266 0 
266 267 0 
267 268 0 
268 269 0 
269 270 0 
270 271 0 
271 272 0 
272 273 0 
273 274 0 
274 275 0 
275 276 0 
276 277 0 
277 278 0 
278 279 0 
279 280 0 
280 281 0 
281 282 0 
282 283 0 
283 284 0 
284 285 0 
285 286 0 
286 287 0 
287 288 0 
288 289 0 
289 290 0 
290 291 0 
291 292 0 
292 293 0 
293 294 0 
294 295 0 
295 296 0 
296 297 0 
297 298 0 
298 299 0 
-1 -1 0 
-1 300 0 1 2 3 4 5 6 7 8 9 10 11 12 13 14 15 16 17 18 19 20 21 22 23 24 25 26 27 28 29 30 31 32 33 34 35 36 37 38 39 40 41 42 43 44 45 46 47 48 49 50 51 52 53 54 55 56 57 58 59 60 61 62 63 64 65 66 67 68 69 70 71 72 73 74 75 76 77 78 79 80 81 82 83 84 85 86 87 88 89 90 91 92 93 94 95 96 97 98 99 100 101 102 103 104 105 106 107 108 109 110 111 112 113 114 115 116 117 118 119 120 121 122 123 124 125 126 127 128 129 130 131 132 133 134 135 136 137 138 139 140 141 142 143 144 145 146 147 148 149 150 151 152 153 154 155 156 157 158 159 160 161 162 163 164 165 166 167 168 169 170 171 172 173 174 175 176 177 178 179 180 181 182 183 184 185 186 187 188 189 190 191 192 193 194 195 196 197 198 199 200 201 202 203 204 205 206 207 208 209 210 211 212 213 214 215 216 217 218 219 220 221 222 223 224 225 226 227 228 229 230 231 232 233 234 235 236 237 238 239 240 241 242 243 244 245 246 247 248 249 250 251 252 253 254 255 256 257 258 259 260 261 262 263 264 265 266 267 268 269 270 271 272 273 274 275 276 277 278 279 280 281 282 283 284 285 286 287 288 289 290 291 292 293 294 295 296 297 298 299 
