ply
format ascii 1.0
comment written by koba@oshima.lab
element vertex 300
property float x
property float y
property float z
property int label
property int attribute
property float radius
property float curvature
property float torsion
element edge 300
property int vertex1
property int vertex2
property int label
element vertex_seq 1
property int label
property list int int vertex_indices
end_header
0.484994 27.5223 -12.3526 0 0 1.5 0.016161 0.00798202 
0.35064 27.219 -12.2791 0 0 1.5 0.01602 0.00843315 
0.216287 26.9157 -12.2056 0 0 1.5 0.0158694 0.00918649 
0.081933 26.6125 -12.1321 0 0 1.5 0.0157038 0.0102723 
-0.0524207 26.3092 -12.0586 0 0 1.5 0.0153046 0.0136001 
-0.186774 26.0059 -11.985 0 0 1.5 0.0150568 0.0159541 
-0.321128 25.7026 -11.9115 0 0 1.5 0.0147654 0.0188989 
-0.455482 25.3993 -11.838 0 0 1.5 0.0144218 0.0225862 
-0.589836 25.0961 -11.7645 0 0 1.5 0.0135384 0.0327941 
-0.724189 24.7928 -11.691 0 0 1.5 0.0129744 0.0400428 
-0.858543 24.4895 -11.6175 0 0 1.5 0.0123127 0.0496711 
-0.992897 24.1862 -11.544 0 0 1.5 0.0115414 0.0627067 
-1.12725 23.8829 -11.4705 0 0 1.5 0.00962265 0.10866 
-1.2616 23.5797 -11.397 0 0 1.5 0.00845486 0.153811 
-1.39596 23.2764 -11.3234 0 0 1.5 0.00714084 0.234754 
-1.53031 22.9731 -11.2499 0 0 1.5 0.00414676 0.818758 
-1.66467 22.6698 -11.1764 0 0 1.5 0.0026973 2.10549 
-1.79902 22.3665 -11.1029 0 0 1.5 0.00218322 3.5042 
-1.93337 22.0633 -11.0294 0 0 1.5 0.00347124 1.51514 
-2.06773 21.76 -10.9559 0 0 1.5 0.00811713 0.338055 
-2.20208 21.4567 -10.8824 0 0 1.5 0.010834 0.212007 
-2.33643 21.1534 -10.8089 0 0 1.5 0.013711 0.148807 
-2.47079 20.8501 -10.7354 0 0 1.5 0.0167052 0.113583 
-2.60514 20.5469 -10.6618 0 0 1.5 0.0229016 0.0794529 
-2.73949 20.2436 -10.5883 0 0 1.5 0.026017 0.0712826 
-2.87385 19.9403 -10.5148 0 0 1.5 0.0290741 0.0664981 
-3.0082 19.637 -10.4413 0 0 1.5 0.0348048 0.0637802 
-3.14256 19.3337 -10.3678 0 0 1.5 0.0373587 0.0649993 
-3.27691 19.0305 -10.2943 0 0 1.5 0.039616 0.067899 
-3.41126 18.7272 -10.2208 0 0 1.5 0.0415128 0.0726412 
-3.54562 18.4239 -10.1473 0 0 1.5 0.0439834 0.0886817 
-3.67997 18.1206 -10.0738 0 0 1.5 0.0444448 0.101263 
-3.81432 17.8173 -10.0002 0 0 1.5 0.0443262 0.11845 
-3.94868 17.5141 -9.92673 0 0 1.5 0.0435949 0.141891 
-4.08303 17.2108 -9.85322 0 0 1.5 0.040292 0.219866 
-4.21739 16.9075 -9.77971 0 0 1.5 0.0377866 0.286371 
-4.35174 16.6042 -9.70619 0 0 1.5 0.034844 0.384005 
-4.48897 16.3025 -9.63235 0 0 1.5 0.0317143 0.525369 
-4.65965 16.0192 -9.55461 0 0 1.5 0.0269332 0.926813 
-4.83928 15.742 -9.4765 0 0 1.5 0.0269747 1.03643 
-5.03338 15.4744 -9.39778 0 0 1.5 0.029753 0.94934 
-5.23596 15.2132 -9.31983 0 0 1.5 0.0433475 0.548968 
-5.44425 14.9562 -9.24238 0 0 1.5 0.0532505 0.400486 
-5.65796 14.703 -9.16731 0 0 1.5 0.0646892 0.296665 
-5.87346 14.4511 -9.09301 0 0 1.5 0.077402 0.225068 
-6.09007 14.1988 -9.02326 0 0 1.5 0.105905 0.138737 
-6.30683 13.9465 -8.95419 0 0 1.5 0.121306 0.111795 
-6.519 13.6882 -8.89304 0 0 1.5 0.137135 0.0912015 
-6.7292 13.428 -8.83397 0 0 1.5 0.153061 0.0750069 
-6.93001 13.1584 -8.78479 0 0 1.5 0.183485 0.0515252 
-7.12251 12.882 -8.74303 0 0 1.5 0.196917 0.0427542 
-7.30349 12.5962 -8.71158 0 0 1.5 0.208355 0.0352437 
-7.46142 12.2962 -8.69934 0 0 1.5 0.222937 0.0237188 
-7.60381 11.9885 -8.6998 0 0 1.5 0.225214 0.0194103 
-7.71313 11.668 -8.72679 0 0 1.5 0.223825 0.0158076 
-7.78771 11.3422 -8.78113 0 0 1.5 0.21878 0.012991 
-7.83619 11.0155 -8.85615 0 0 1.5 0.198939 0.00994739 
-7.84977 10.692 -8.959 0 0 1.5 0.185043 0.00966306 
-7.8342 10.3784 -9.08708 0 0 1.5 0.169167 0.0103608 
-7.80484 10.0711 -9.22822 0 0 1.5 0.15185 0.0123522 
-7.75707 9.77568 -9.38902 0 0 1.5 0.114597 0.0231537 
-7.7024 9.48851 -9.56167 0 0 1.5 0.0952346 0.0356901 
-7.64306 9.20698 -9.74236 0 0 1.5 0.0756773 0.0601242 
-7.58206 8.93475 -9.93618 0 0 1.5 0.0371964 0.280663 
-7.52108 8.66437 -10.1326 0 0 1.5 0.02168 0.873157 
-7.46457 8.40067 -10.3393 0 0 1.5 0.0222931 0.868039 
-7.40975 8.13755 -10.5471 0 0 1.5 0.0400238 0.281673 
-7.36201 7.87681 -10.7596 0 0 1.5 0.0895962 0.0596691 
-7.31763 7.61549 -10.9721 0 0 1.5 0.119002 0.033733 
-7.28076 7.35287 -11.1845 0 0 1.5 0.151973 0.0195532 
-7.24933 7.08674 -11.3932 0 0 1.5 0.18922 0.0105136 
-7.22456 6.81633 -11.5974 0 0 1.5 0.279927 -0.0015006 
-7.20885 6.53622 -11.7886 0 0 1.5 0.33504 -0.00660368 
-7.19778 6.25112 -11.973 0 0 1.5 0.397324 -0.0119397 
-7.20357 5.94527 -12.1208 0 0 1.5 0.466419 -0.0179538 
-7.22109 5.62841 -12.2371 0 0 1.5 0.61639 -0.0334397 
-7.25574 5.29964 -12.3056 0 0 1.5 0.68726 -0.0434098 
-7.31568 4.96528 -12.2992 0 0 1.5 0.744794 -0.0548153 
-7.41086 4.65982 -12.185 0 0 1.5 0.787511 -0.0802331 
-7.53217 4.40941 -11.9943 0 0 1.5 0.765397 -0.0934091 
-7.67223 4.21715 -11.7559 0 0 1.5 0.718439 -0.106343 
-7.82491 4.07231 -11.4913 0 0 1.5 0.654926 -0.118998 
-7.98807 3.9726 -11.2105 0 0 1.5 0.511683 -0.147104 
-8.16035 3.91698 -10.9236 0 0 1.5 0.443628 -0.164631 
-8.33591 3.87864 -10.6358 0 0 1.5 0.38206 -0.185733 
-8.51675 3.87095 -10.3482 0 0 1.5 0.328005 -0.212169 
-8.69869 3.87772 -10.0618 0 0 1.5 0.242573 -0.287995 
-8.88171 3.89876 -9.77629 0 0 1.5 0.210678 -0.338378 
-9.06217 3.93401 -9.49073 0 0 1.5 0.185772 -0.394238 
-9.24163 3.97474 -9.20513 0 0 1.5 0.157152 -0.48449 
-9.41097 4.02681 -8.91525 0 0 1.5 0.153497 -0.491961 
-9.57617 4.08063 -8.62341 0 0 1.5 0.156463 -0.468107 
-9.72415 4.13878 -8.32316 0 0 1.5 0.165148 -0.423365 
-9.85642 4.19565 -8.01596 0 0 1.5 0.195206 -0.323948 
-9.97107 4.25109 -7.70097 0 0 1.5 0.214499 -0.283131 
-10.0417 4.29501 -7.372 0 0 1.5 0.235353 -0.250351 
-10.0785 4.32662 -7.03766 0 0 1.5 0.256796 -0.225144 
-10.0724 4.34131 -6.69873 0 0 1.5 0.297502 -0.192324 
-9.9905 4.31844 -6.36979 0 0 1.5 0.314517 -0.182222 
-9.85646 4.26352 -6.06533 0 0 1.5 0.327729 -0.175436 
-9.68295 4.18105 -5.78787 0 0 1.5 0.339291 -0.16963 
-9.47588 4.07199 -5.54157 0 0 1.5 0.336728 -0.169763 
-9.24269 3.9336 -5.33776 0 0 1.5 0.328693 -0.171847 
-9.0027 3.78407 -5.15067 0 0 1.5 0.315879 -0.175882 
-8.75437 3.61779 -4.98907 0 0 1.5 0.280003 -0.189918 
-8.50482 3.43958 -4.84362 0 0 1.5 0.259151 -0.200409 
-8.25453 3.25403 -4.70814 0 0 1.5 0.237744 -0.213632 
-8.00774 3.05553 -4.58544 0 0 1.5 0.216636 -0.229736 
-7.76171 2.85423 -4.46552 0 0 1.5 0.177786 -0.270607 
-7.52363 2.64008 -4.35203 0 0 1.5 0.160872 -0.294782 
-7.28691 2.42438 -4.23868 0 0 1.5 0.145979 -0.319892 
-7.05992 2.19861 -4.12494 0 0 1.5 0.13326 -0.343549 
-6.83605 1.97052 -4.00986 0 0 1.5 0.114512 -0.375345 
-6.62168 1.7354 -3.8907 0 0 1.5 0.108335 -0.377556 
-6.41298 1.49712 -3.76814 0 0 1.5 0.104041 -0.36808 
-6.21218 1.2544 -3.64084 0 0 1.5 0.099814 -0.322954 
-6.02 1.00768 -3.50836 0 0 1.5 0.0991104 -0.293881 
-5.83319 0.758451 -3.37263 0 0 1.5 0.0988358 -0.264036 
-5.65814 0.503943 -3.23128 0 0 1.5 0.0986405 -0.236289 
-5.48649 0.247856 -3.08857 0 0 1.5 0.0973737 -0.193268 
-5.32786 -0.0147488 -2.94259 0 0 1.5 0.0958787 -0.178373 
-5.17414 -0.280192 -2.79672 0 0 1.5 0.0936062 -0.168562 
-5.03033 -0.551378 -2.65108 0 0 1.5 0.0904801 -0.164606 
-4.89578 -0.828348 -2.5078 0 0 1.5 0.081573 -0.177549 
-4.76782 -1.10944 -2.36622 0 0 1.5 0.0758358 -0.198382 
-4.65399 -1.39925 -2.23047 0 0 1.5 0.0693651 -0.233869 
-4.54419 -1.69147 -2.09648 0 0 1.5 0.0549667 -0.38338 
-4.45044 -1.99267 -1.97029 0 0 1.5 0.047686 -0.527583 
-4.36123 -2.29604 -1.84634 0 0 1.5 0.0411717 -0.738342 
-4.28326 -2.6048 -1.72792 0 0 1.5 0.0365443 -0.982565 
-4.21114 -2.91583 -1.61198 0 0 1.5 0.0382916 -0.989758 
-4.14516 -3.22925 -1.49863 0 0 1.5 0.0452431 -0.744365 
-4.08305 -3.54359 -1.38566 0 0 1.5 0.0550035 -0.52736 
-4.02278 -3.85835 -1.27287 0 0 1.5 0.0666089 -0.375094 
-3.95993 -4.17097 -1.15559 0 0 1.5 0.0930582 -0.206095 
-3.89523 -4.48245 -1.03648 0 0 1.5 0.107188 -0.159305 
-3.81825 -4.78715 -0.907386 0 0 1.5 0.121556 -0.12581 
-3.73084 -5.08569 -0.771786 0 0 1.5 0.135907 -0.10113 
-3.62783 -5.375 -0.626454 0 0 1.5 0.163503 -0.0677474 
-3.49605 -5.64385 -0.46722 0 0 1.5 0.176151 -0.0557948 
-3.34675 -5.89857 -0.300879 0 0 1.5 0.1876 -0.0458348 
-3.16276 -6.12211 -0.123082 0 0 1.5 0.205764 -0.0297917 
-2.95116 -6.31387 0.0585888 0 0 1.5 0.211977 -0.022877 
-2.72221 -6.48455 0.241766 0 0 1.5 0.216028 -0.0164303 
-2.46478 -6.61389 0.421853 0 0 1.5 0.217873 -0.0103294 
-2.19637 -6.72394 0.597238 0 0 1.5 0.215185 0.00158732 
-1.91691 -6.81457 0.76789 0 0 1.5 0.210951 0.00755964 
-1.62625 -6.88254 0.929596 0 0 1.5 0.205126 0.013518 
-1.33262 -6.94445 1.08888 0 0 1.5 0.198011 0.0196013 
-1.03038 -6.98692 1.23815 0 0 1.5 0.181116 0.0325719 
-0.727241 -7.02701 1.38611 0 0 1.5 0.171895 0.0394727 
-0.419745 -7.05556 1.52776 0 0 1.5 0.162485 0.0467819 
-0.111383 -7.08066 1.66806 0 0 1.5 0.143858 0.0630452 
0.198993 -7.09776 1.8052 0 0 1.5 0.134924 0.0720211 
0.509771 -7.10943 1.94186 0 0 1.5 0.126381 0.0816404 
0.82107 -7.11407 2.07789 0 0 1.5 0.118295 0.0919564 
1.13181 -7.10911 2.21496 0 0 1.5 0.103646 0.114953 
1.44218 -7.0978 2.3527 0 0 1.5 0.0971088 0.127669 
1.75003 -7.06924 2.49335 0 0 1.5 0.0910923 0.141113 
2.05681 -7.03463 2.63499 0 0 1.5 0.0855812 0.155379 
2.35829 -6.97633 2.78041 0 0 1.5 0.0759781 0.186527 
2.65646 -6.90693 2.92706 0 0 1.5 0.0718285 0.203052 
2.94962 -6.82068 3.07555 0 0 1.5 0.0680693 0.220138 
3.23582 -6.71562 3.22502 0 0 1.5 0.0616048 0.255438 
3.51889 -6.60236 3.37483 0 0 1.5 0.0588438 0.272827 
3.79434 -6.47148 3.52462 0 0 1.5 0.0563593 0.289535 
4.06786 -6.33655 3.67423 0 0 1.5 0.0541275 0.305119 
4.3385 -6.19553 3.82357 0 0 1.5 0.0503362 0.330233 
4.60869 -6.05389 3.97312 0 0 1.5 0.0487327 0.33897 
4.87869 -5.91198 4.12277 0 0 1.5 0.0472926 0.34529 
5.15124 -5.77703 4.27422 0 0 1.5 0.045995 0.348922 
5.42474 -5.64519 4.42659 0 0 1.5 0.043756 0.348325 
5.70114 -5.52292 4.58179 0 0 1.5 0.0427803 0.346096 
5.97887 -5.40774 4.73979 0 0 1.5 0.0418827 0.343316 
6.25805 -5.30021 4.90082 0 0 1.5 0.0410566 0.340293 
6.53729 -5.20227 5.0676 0 0 1.5 0.0396289 0.338488 
6.81656 -5.10815 5.23667 0 0 1.5 0.0390578 0.340349 
7.09245 -5.02271 5.41558 0 0 1.5 0.0386081 0.343324 
7.36683 -4.93838 5.59725 0 0 1.5 0.0381687 0.348215 
7.63523 -4.85684 5.78894 0 0 1.5 0.0382324 0.3472 
7.89911 -4.77424 5.98619 0 0 1.5 0.0385088 0.342274 
8.15686 -4.6902 6.19098 0 0 1.5 0.0390069 0.331588 
8.40583 -4.60146 6.40427 0 0 1.5 0.040672 0.290329 
8.65077 -4.51054 6.62146 0 0 1.5 0.0418295 0.261569 
8.88347 -4.41143 6.84828 0 0 1.5 0.0432003 0.22831 
9.11324 -4.31031 7.07715 0 0 1.5 0.0447802 0.191519 
9.33573 -4.20417 7.31095 0 0 1.5 0.0486034 0.113176 
9.55619 -4.09695 7.54618 0 0 1.5 0.0509081 0.0741056 
9.77496 -3.98883 7.78258 0 0 1.5 0.0535327 0.0366527 
9.99679 -3.88487 8.01798 0 0 1.5 0.0600049 -0.0311069 
10.2206 -3.78351 8.25252 0 0 1.5 0.0640362 -0.0594049 
10.4534 -3.69324 8.48296 0 0 1.5 0.0687404 -0.0824641 
10.6924 -3.61167 8.70992 0 0 1.5 0.0742323 -0.100804 
10.9395 -3.54163 8.93227 0 0 1.5 0.0880818 -0.125068 
11.1967 -3.48952 9.14765 0 0 1.5 0.0967026 -0.131128 
11.4582 -3.44518 9.36001 0 0 1.5 0.106631 -0.134414 
11.7296 -3.42716 9.56338 0 0 1.5 0.118009 -0.13594 
12.0024 -3.41443 9.76527 0 0 1.5 0.145716 -0.133776 
12.2798 -3.42719 9.96104 0 0 1.5 0.162307 -0.131082 
12.5569 -3.44732 10.1563 0 0 1.5 0.180868 -0.128222 
12.8329 -3.4886 10.3499 0 0 1.5 0.224085 -0.12209 
13.1056 -3.54112 10.5451 0 0 1.5 0.248595 -0.119026 
13.373 -3.61135 10.7426 0 0 1.5 0.274686 -0.116173 
13.6304 -3.69858 10.9457 0 0 1.5 0.301817 -0.113517 
13.8795 -3.7999 11.1533 0 0 1.5 0.355596 -0.108339 
14.1034 -3.92818 11.3734 0 0 1.5 0.379608 -0.105597 
14.3127 -4.06918 11.5996 0 0 1.5 0.399507 -0.102852 
14.4766 -4.242 11.8419 0 0 1.5 0.413649 -0.100202 
14.5898 -4.43626 12.0932 0 0 1.5 0.419626 -0.0949402 
14.6504 -4.64712 12.349 0 0 1.5 0.410429 -0.0928397 
14.6364 -4.87188 12.6034 0 0 1.5 0.393784 -0.0917383 
14.5401 -5.09402 12.8397 0 0 1.5 0.371016 -0.0918309 
14.4014 -5.30854 13.0605 0 0 1.5 0.313634 -0.0972409 
14.2257 -5.51443 13.2658 0 0 1.5 0.282253 -0.103986 
14.0123 -5.70525 13.4482 0 0 1.5 0.250864 -0.114522 
13.7903 -5.89219 13.6244 0 0 1.5 0.191334 -0.153137 
13.552 -6.0712 13.7876 0 0 1.5 0.164182 -0.186523 
13.3105 -6.24935 13.9468 0 0 1.5 0.139159 -0.235661 
13.0652 -6.42646 14.1013 0 0 1.5 0.116469 -0.309033 
12.8222 -6.60725 14.2552 0 0 1.5 0.0794232 -0.576606 
12.5806 -6.79035 14.4087 0 0 1.5 0.0664918 -0.77425 
12.3493 -6.98264 14.5665 0 0 1.5 0.0589039 -0.932285 
12.1211 -7.17769 14.7255 0 0 1.5 0.0576543 -0.921691 
11.9136 -7.38632 14.8953 0 0 1.5 0.071012 -0.543755 
11.7124 -7.5978 15.0687 0 0 1.5 0.0820996 -0.38075 
11.5336 -7.81863 15.255 0 0 1.5 0.0942873 -0.26716 
11.3695 -8.04124 15.4514 0 0 1.5 0.11912 -0.13668 
11.2212 -8.26577 15.6588 0 0 1.5 0.130837 -0.0977998 
11.0966 -8.48314 15.8878 0 0 1.5 0.141589 -0.0689392 
10.9823 -8.6938 16.1279 0 0 1.5 0.151078 -0.0472349 
10.8878 -8.8841 16.393 0 0 1.5 0.16518 -0.016471 
10.8047 -9.04629 16.6783 0 0 1.5 0.169311 -0.00511127 
10.7293 -9.189 16.977 0 0 1.5 0.171323 0.00426746 
10.6661 -9.26735 17.3015 0 0 1.5 0.171193 0.0121343 
10.6053 -9.3162 17.63 0 0 1.5 0.164774 0.0246384 
10.5487 -9.31691 17.965 0 0 1.5 0.158823 0.0299954 
10.492 -9.31763 18.3 0 0 1.5 0.151379 0.0349533 
10.4353 -9.31834 18.635 0 0 1.5 0.142726 0.0395639 
10.3786 -9.31905 18.97 0 0 1.5 0.122951 0.0492229 
10.3219 -9.31976 19.305 0 0 1.5 0.112386 0.0547671 
10.2652 -9.32047 19.64 0 0 1.5 0.101695 0.0609029 
10.2086 -9.32119 19.9749 0 0 1.5 0.0806843 0.0776247 
10.1519 -9.3219 20.3099 0 0 1.5 0.0706431 0.0897747 
10.0952 -9.32261 20.6449 0 0 1.5 0.0610579 0.105623 
10.0385 -9.32332 20.9799 0 0 1.5 0.052012 0.127363 
9.98184 -9.32403 21.3149 0 0 1.5 0.0357206 0.206618 
9.92516 -9.32475 21.6499 0 0 1.5 0.0285689 0.281449 
9.86848 -9.32546 21.9849 0 0 1.5 0.0221659 0.407055 
9.8118 -9.32617 22.3199 0 0 1.5 0.0166069 0.632997 
9.75512 -9.32688 22.6549 0 0 1.5 0.0091364 1.59462 
9.69844 -9.32759 22.9899 0 0 1.5 0.00827287 1.69801 
9.64176 -9.32831 23.3249 0 0 1.5 0.00927334 1.18338 
9.58507 -9.32902 23.6599 0 0 1.5 0.0130441 0.459556 
9.52839 -9.32973 23.9949 0 0 1.5 0.0147694 0.314353 
9.47171 -9.33044 24.3299 0 0 1.5 0.016169 0.230857 
9.41503 -9.33115 24.6648 0 0 1.5 0.0172095 0.179788 
9.35835 -9.33187 24.9998 0 0 1.5 0.0182243 0.124999 
9.30167 -9.33258 25.3348 0 0 1.5 0.0182365 0.11059 
9.24499 -9.33329 25.6698 0 0 1.5 0.0179554 0.101184 
9.18831 -9.334 26.0048 0 0 1.5 0.0174137 0.0953081 
9.13163 -9.33471 26.3398 0 0 1.5 0.0156868 0.0925173 
9.07494 -9.33543 26.6748 0 0 1.5 0.0145728 0.0953862 
9.01826 -9.33614 27.0098 0 0 1.5 0.0133417 0.101083 
8.96158 -9.33685 27.3448 0 0 1.5 0.010669 0.125 
8.9049 -9.33756 27.6798 0 0 1.5 0.00928715 0.146994 
8.84822 -9.33827 28.0148 0 0 1.5 0.00791547 0.179906 
8.79154 -9.33899 28.3498 0 0 1.5 0.00658375 0.231035 
8.73486 -9.3397 28.6848 0 0 1.5 0.00413916 0.463479 
8.67818 -9.34041 29.0198 0 0 1.5 0.00309353 0.736775 
8.62149 -9.34112 29.3547 0 0 1.5 0.00224731 1.23831 
8.56481 -9.34183 29.6897 0 0 1.5 0.00172458 1.86903 
8.50813 -9.34255 30.0247 0 0 1.5 0.00195766 1.14306 
8.45145 -9.34326 30.3597 0 0 1.5 0.00238879 0.680026 
8.39477 -9.34397 30.6947 0 0 1.5 0.00281958 0.433496 
8.33809 -9.34468 31.0297 0 0 1.5 0.00319825 0.299456 
8.28141 -9.34539 31.3647 0 0 1.5 0.00373499 0.172953 
8.22473 -9.34611 31.6997 0 0 1.5 0.00388851 0.142366 
8.16805 -9.34682 32.0347 0 0 1.5 0.00397101 0.122221 
8.11136 -9.34753 32.3697 0 0 1.5 0.00394893 0.0996057 
8.05468 -9.34824 32.7047 0 0 1.5 0.00385849 0.0942819 
7.998 -9.34895 33.0397 0 0 1.5 0.00372487 0.0917485 
7.94132 -9.34967 33.3747 0 0 1.5 0.00355561 0.0914232 
7.88464 -9.35038 33.7097 0 0 1.5 0.00313923 0.0977393 
7.82796 -9.35109 34.0446 0 0 1.5 0.00290557 0.104717 
7.77128 -9.3518 34.3796 0 0 1.5 0.0026639 0.114303 
7.7146 -9.35251 34.7146 0 0 1.5 0.00242054 0.127056 
7.65791 -9.35323 35.0496 0 0 1.5 0.00194642 0.166018 
7.60123 -9.35394 35.3846 0 0 1.5 0.00172411 0.193644 
7.54455 -9.35465 35.7196 0 0 1.5 0.001517 0.228079 
7.48787 -9.35536 36.0546 0 0 1.5 0.00115782 0.322971 
7.43119 -9.35607 36.3896 0 0 1.5 0.0010103 0.381635 
7.37451 -9.35679 36.7246 0 0 1.5 0.00088699 0.442655 
7.31783 -9.3575 37.0596 0 0 1.5 0.000788534 0 
7.26115 -9.35821 37.3946 0 0 1.5 0.000664418 0 
7.20447 -9.35892 37.7296 0 0 1.5 0.000634864 0 
7.14778 -9.35963 38.0646 0 0 1.5 0.000622029 0 
7.0911 -9.36035 38.3996 0 0 1.5 0.000621613 0 
7.03442 -9.36106 38.7345 0 0 1.5 0.000643907 0 
6.97774 -9.36177 39.0695 0 0 1.5 0.000661787 0 
6.92106 -9.36248 39.4045 0 0 1.5 0.000682392 0 
0 1 0 
1 2 0 
2 3 0 
3 4 0 
4 5 0 
5 6 0 
6 7 0 
7 8 0 
8 9 0 
9 10 0 
10 11 0 
11 12 0 
12 13 0 
13 14 0 
14 15 0 
15 16 0 
16 17 0 
17 18 0 
18 19 0 
19 20 0 
20 21 0 
21 22 0 
22 23 0 
23 24 0 
24 25 0 
25 26 0 
26 27 0 
27 28 0 
28 29 0 
29 30 0 
30 31 0 
31 32 0 
32 33 0 
33 34 0 
34 35 0 
35 36 0 
36 37 0 
37 38 0 
38 39 0 
39 40 0 
40 41 0 
41 42 0 
42 43 0 
43 44 0 
44 45 0 
45 46 0 
46 47 0 
47 48 0 
48 49 0 
49 50 0 
50 51 0 
51 52 0 
52 53 0 
53 54 0 
54 55 0 
55 56 0 
56 57 0 
57 58 0 
58 59 0 
59 60 0 
60 61 0 
61 62 0 
62 63 0 
63 64 0 
64 65 0 
65 66 0 
66 67 0 
67 68 0 
68 69 0 
69 70 0 
70 71 0 
71 72 0 
72 73 0 
73 74 0 
74 75 0 
75 76 0 
76 77 0 
77 78 0 
78 79 0 
79 80 0 
80 81 0 
81 82 0 
82 83 0 
83 84 0 
84 85 0 
85 86 0 
86 87 0 
87 88 0 
88 89 0 
89 90 0 
90 91 0 
91 92 0 
92 93 0 
93 94 0 
94 95 0 
95 96 0 
96 97 0 
97 98 0 
98 99 0 
99 100 0 
100 101 0 
101 102 0 
102 103 0 
103 104 0 
104 105 0 
105 106 0 
106 107 0 
107 108 0 
108 109 0 
109 110 0 
110 111 0 
111 112 0 
112 113 0 
113 114 0 
114 115 0 
115 116 0 
116 117 0 
117 118 0 
118 119 0 
119 120 0 
120 121 0 
121 122 0 
122 123 0 
123 124 0 
124 125 0 
125 126 0 
126 127 0 
127 128 0 
128 129 0 
129 130 0 
130 131 0 
131 132 0 
132 133 0 
133 134 0 
134 135 0 
135 136 0 
136 137 0 
137 138 0 
138 139 0 
139 140 0 
140 141 0 
141 142 0 
142 143 0 
143 144 0 
144 145 0 
145 146 0 
146 147 0 
147 148 0 
148 149 0 
149 150 0 
150 151 0 
151 152 0 
152 153 0 
153 154 0 
154 155 0 
155 156 0 
156 157 0 
157 158 0 
158 159 0 
159 160 0 
160 161 0 
161 162 0 
162 163 0 
163 164 0 
164 165 0 
165 166 0 
166 167 0 
167 168 0 
168 169 0 
169 170 0 
170 171 0 
171 172 0 
172 173 0 
173 174 0 
174 175 0 
175 176 0 
176 177 0 
177 178 0 
178 179 0 
179 180 0 
180 181 0 
181 182 0 
182 183 0 
183 184 0 
184 185 0 
185 186 0 
186 187 0 
187 188 0 
188 189 0 
189 190 0 
190 191 0 
191 192 0 
192 193 0 
193 194 0 
194 195 0 
195 196 0 
196 197 0 
197 198 0 
198 199 0 
199 200 0 
200 201 0 
201 202 0 
202 203 0 
203 204 0 
204 205 0 
205 206 0 
206 207 0 
207 208 0 
208 209 0 
209 210 0 
210 211 0 
211 212 0 
212 213 0 
213 214 0 
214 215 0 
215 216 0 
216 217 0 
217 218 0 
218 219 0 
219 220 0 
220 221 0 
221 222 0 
222 223 0 
223 224 0 
224 225 0 
225 226 0 
226 227 0 
227 228 0 
228 229 0 
229 230 0 
230 231 0 
231 232 0 
232 233 0 
233 234 0 
234 235 0 
235 236 0 
236 237 0 
237 238 0 
238 239 0 
239 240 0 
240 241 0 
241 242 0 
242 243 0 
243 244 0 
244 245 0 
245 246 0 
246 247 0 
247 248 0 
248 249 0 
249 250 0 
250 251 0 
251 252 0 
252 253 0 
253 254 0 
254 255 0 
255 256 0 
256 257 0 
257 258 0 
258 259 0 
259 260 0 
260 261 0 
261 262 0 
262 263 0 
263 264 0 
264 265 0 
265 266 0 
266 267 0 
267 268 0 
268 269 0 
269 270 0 
270 271 0 
271 272 0 
272 273 0 
273 274 0 
274 275 0 
275 276 0 
276 277 0 
277 278 0 
278 279 0 
279 280 0 
280 281 0 
281 282 0 
282 283 0 
283 284 0 
284 285 0 
285 286 0 
286 287 0 
287 288 0 
288 289 0 
289 290 0 
290 291 0 
291 292 0 
292 293 0 
293 294 0 
294 295 0 
295 296 0 
296 297 0 
297 298 0 
298 299 0 
-1 -1 0 
-1 300 0 1 2 3 4 5 6 7 8 9 10 11 12 13 14 15 16 17 18 19 20 21 22 23 24 25 26 27 28 29 30 31 32 33 34 35 36 37 38 39 40 41 42 43 44 45 46 47 48 49 50 51 52 53 54 55 56 57 58 59 60 61 62 63 64 65 66 67 68 69 70 71 72 73 74 75 76 77 78 79 80 81 82 83 84 85 86 87 88 89 90 91 92 93 94 95 96 97 98 99 100 101 102 103 104 105 106 107 108 109 110 111 112 113 114 115 116 117 118 119 120 121 122 123 124 125 126 127 128 129 130 131 132 133 134 135 136 137 138 139 140 141 142 143 144 145 146 147 148 149 150 151 152 153 154 155 156 157 158 159 160 161 162 163 164 165 166 167 168 169 170 171 172 173 174 175 176 177 178 179 180 181 182 183 184 185 186 187 188 189 190 191 192 193 194 195 196 197 198 199 200 201 202 203 204 205 206 207 208 209 210 211 212 213 214 215 216 217 218 219 220 221 222 223 224 225 226 227 228 229 230 231 232 233 234 235 236 237 238 239 240 241 242 243 244 245 246 247 248 249 250 251 252 253 254 255 256 257 258 259 260 261 262 263 264 265 266 267 268 269 270 271 272 273 274 275 276 277 278 279 280 281 282 283 284 285 286 287 288 289 290 291 292 293 294 295 296 297 298 299 
