ply
format ascii 1.0
comment written by koba@oshima.lab
element vertex 300
property float x
property float y
property float z
property int label
property int attribute
property float radius
property float curvature
property float torsion
element edge 300
property int vertex1
property int vertex2
property int label
element vertex_seq 1
property int label
property list int int vertex_indices
end_header
14.1446 14.174 -10.3939 0 0 1.5 0.0124905 -0.0140363 
13.8087 14.1706 -10.261 0 0 1.5 0.0124571 -0.0158919 
13.4728 14.1671 -10.128 0 0 1.5 0.0124239 -0.0198994 
13.1369 14.1637 -9.99511 0 0 1.5 0.0123911 -0.0260379 
12.801 14.1603 -9.86216 0 0 1.5 0.0123288 -0.0450553 
12.4651 14.1568 -9.72922 0 0 1.5 0.0122995 -0.0587863 
12.1291 14.1534 -9.59628 0 0 1.5 0.0122715 -0.0754467 
11.7932 14.1499 -9.46334 0 0 1.5 0.012247 -0.0949757 
11.4573 14.1465 -9.3304 0 0 1.5 0.0122209 -0.141836 
11.1214 14.1431 -9.19746 0 0 1.5 0.0122274 -0.168794 
10.7855 14.1396 -9.06451 0 0 1.5 0.0122586 -0.197595 
10.4496 14.1362 -8.93157 0 0 1.5 0.0123283 -0.226813 
10.1137 14.1328 -8.79863 0 0 1.5 0.0126411 -0.281056 
9.77779 14.1293 -8.66569 0 0 1.5 0.0129227 -0.303672 
9.44188 14.1259 -8.53275 0 0 1.5 0.0133179 -0.320558 
9.10598 14.1224 -8.39981 0 0 1.5 0.0145164 -0.333686 
8.77007 14.119 -8.26686 0 0 1.5 0.0153468 -0.331133 
8.43416 14.1156 -8.13392 0 0 1.5 0.016344 -0.323328 
8.09825 14.1121 -8.00098 0 0 1.5 0.0175047 -0.311835 
7.76234 14.1087 -7.86804 0 0 1.5 0.0202855 -0.286056 
7.42644 14.1053 -7.7351 0 0 1.5 0.0218899 -0.27372 
7.09053 14.1018 -7.60216 0 0 1.5 0.0236204 -0.262362 
6.75462 14.0984 -7.46921 0 0 1.5 0.0254634 -0.252804 
6.41871 14.0949 -7.33627 0 0 1.5 0.0294518 -0.239919 
6.0828 14.0915 -7.20333 0 0 1.5 0.0315808 -0.236273 
5.7469 14.0881 -7.07039 0 0 1.5 0.0337909 -0.234659 
5.41099 14.0846 -6.93745 0 0 1.5 0.0384684 -0.236755 
5.07508 14.0812 -6.80451 0 0 1.5 0.0409567 -0.239173 
4.73917 14.0778 -6.67156 0 0 1.5 0.0435656 -0.242478 
4.40326 14.0743 -6.53862 0 0 1.5 0.046321 -0.24669 
4.06736 14.0709 -6.40568 0 0 1.5 0.0524203 -0.254563 
3.73145 14.0674 -6.27274 0 0 1.5 0.0558555 -0.257648 
3.39554 14.064 -6.1398 0 0 1.5 0.0596172 -0.260286 
3.05963 14.0606 -6.00686 0 0 1.5 0.0637666 -0.261466 
2.72372 14.0571 -5.87391 0 0 1.5 0.0734866 -0.257653 
2.39048 14.0438 -5.73746 0 0 1.5 0.0791723 -0.253639 
2.07229 13.9742 -5.58115 0 0 1.5 0.0854759 -0.247701 
1.76017 13.8878 -5.42286 0 0 1.5 0.0924372 -0.23942 
1.45884 13.7714 -5.26105 0 0 1.5 0.108377 -0.219137 
1.16284 13.64 -5.10197 0 0 1.5 0.117315 -0.207552 
0.873813 13.4891 -4.94645 0 0 1.5 0.126822 -0.194627 
0.587867 13.3267 -4.79765 0 0 1.5 0.147056 -0.166975 
0.306169 13.1487 -4.65811 0 0 1.5 0.157422 -0.15264 
0.0254871 12.9624 -4.52865 0 0 1.5 0.167648 -0.137794 
-0.253567 12.7629 -4.41531 0 0 1.5 0.177446 -0.122459 
-0.533212 12.5572 -4.31728 0 0 1.5 0.194425 -0.0901588 
-0.813767 12.3421 -4.24286 0 0 1.5 0.200929 -0.0730754 
-1.09634 12.1236 -4.19682 0 0 1.5 0.205694 -0.0550268 
-1.38086 11.9017 -4.17811 0 0 1.5 0.208461 -0.0356647 
-1.66653 11.6865 -4.21789 0 0 1.5 0.20745 0.00595406 
-1.9506 11.4792 -4.29165 0 0 1.5 0.203743 0.0286333 
-2.22641 11.2971 -4.43755 0 0 1.5 0.198111 0.0534383 
-2.48319 11.1501 -4.63993 0 0 1.5 0.182267 0.10825 
-2.7246 11.0286 -4.87747 0 0 1.5 0.17287 0.138544 
-2.93929 10.9457 -5.15595 0 0 1.5 0.163068 0.171483 
-3.13717 10.8825 -5.45067 0 0 1.5 0.153299 0.206113 
-3.32583 10.8301 -5.75428 0 0 1.5 0.1356 0.273245 
-3.50308 10.7839 -6.06566 0 0 1.5 0.128448 0.30125 
-3.68044 10.7339 -6.37633 0 0 1.5 0.122845 0.320693 
-3.85912 10.671 -6.68396 0 0 1.5 0.118974 0.327917 
-4.04256 10.591 -6.98402 0 0 1.5 0.116546 0.300466 
-4.23138 10.4916 -7.27555 0 0 1.5 0.117742 0.269818 
-4.42778 10.3567 -7.54585 0 0 1.5 0.120192 0.233923 
-4.62709 10.2081 -7.80798 0 0 1.5 0.127545 0.15897 
-4.82864 10.008 -8.03126 0 0 1.5 0.131811 0.124904 
-5.02728 9.79547 -8.24365 0 0 1.5 0.136092 0.0954472 
-5.21757 9.54832 -8.42594 0 0 1.5 0.140157 0.0701595 
-5.39432 9.2813 -8.59069 0 0 1.5 0.146905 0.0304406 
-5.55832 8.99554 -8.7389 0 0 1.5 0.149344 0.0164323 
-5.69091 8.6868 -8.86948 0 0 1.5 0.151076 0.00571215 
-5.81256 8.3705 -8.99438 0 0 1.5 0.152081 -0.00222824 
-5.88161 8.03493 -9.10902 0 0 1.5 0.152062 -0.0100027 
-5.93272 7.69749 -9.22423 0 0 1.5 0.151241 -0.00991422 
-5.94132 7.35564 -9.34078 0 0 1.5 0.150065 -0.00720804 
-5.91759 7.01833 -9.4646 0 0 1.5 0.14871 -0.00223364 
-5.8693 6.68448 -9.59393 0 0 1.5 0.146392 0.0137864 
-5.78515 6.36564 -9.74006 0 0 1.5 0.145964 0.0251148 
-5.69255 6.05033 -9.89015 0 0 1.5 0.146432 0.0378035 
-5.57167 5.75832 -10.0652 0 0 1.5 0.151454 0.0636777 
-5.44891 5.46925 -10.2433 0 0 1.5 0.156761 0.0760997 
-5.31325 5.20089 -10.4436 0 0 1.5 0.164466 0.0867387 
-5.17638 4.93657 -10.648 0 0 1.5 0.174963 0.0945782 
-5.03453 4.68873 -10.8693 0 0 1.5 0.205949 0.102867 
-4.89167 4.44473 -11.094 0 0 1.5 0.227333 0.103958 
-4.7459 4.21173 -11.3285 0 0 1.5 0.2533 0.103405 
-4.59725 3.98113 -11.5635 0 0 1.5 0.284395 0.10183 
-4.4436 3.7547 -11.7993 0 0 1.5 0.364217 0.0973647 
-4.27924 3.52573 -12.025 0 0 1.5 0.413862 0.094994 
-4.10596 3.29424 -12.2411 0 0 1.5 0.470107 0.0925502 
-3.90094 3.04799 -12.408 0 0 1.5 0.598179 0.0870558 
-3.66128 2.79238 -12.478 0 0 1.5 0.664643 0.084136 
-3.4102 2.56936 -12.3729 0 0 1.5 0.726315 0.0806468 
-3.20552 2.43242 -12.1167 0 0 1.5 0.776414 0.0761852 
-3.04692 2.35944 -11.8041 0 0 1.5 0.815926 0.0654019 
-2.91356 2.3196 -11.4716 0 0 1.5 0.798939 0.0596279 
-2.8084 2.31605 -11.126 0 0 1.5 0.759749 0.0539466 
-2.71419 2.32658 -10.7779 0 0 1.5 0.704215 0.0489574 
-2.63247 2.35317 -10.427 0 0 1.5 0.571611 0.042569 
-2.56064 2.39182 -10.0754 0 0 1.5 0.505423 0.0413342 
-2.4967 2.44008 -9.72308 0 0 1.5 0.443609 0.041502 
-2.44268 2.49912 -9.37099 0 0 1.5 0.337536 0.0465315 
-2.39559 2.56569 -9.01904 0 0 1.5 0.293403 0.0518966 
-2.36211 2.64588 -8.66863 0 0 1.5 0.254591 0.0596145 
-2.3352 2.73264 -8.31896 0 0 1.5 0.220473 0.0702924 
-2.33353 2.84498 -7.97581 0 0 1.5 0.163861 0.106303 
-2.34696 2.97325 -7.63951 0 0 1.5 0.140297 0.136383 
-2.38715 3.12998 -7.31649 0 0 1.5 0.119374 0.179763 
-2.46927 3.33155 -7.02908 0 0 1.5 0.100898 0.243843 
-2.57913 3.56166 -6.77598 0 0 1.5 0.0717237 0.47408 
-2.71133 3.81391 -6.5548 0 0 1.5 0.0622323 0.635095 
-2.86055 4.08155 -6.36344 0 0 1.5 0.0576439 0.754884 
-3.01679 4.35276 -6.18308 0 0 1.5 0.058872 0.746189 
-3.17347 4.62111 -5.99902 0 0 1.5 0.0767773 0.478532 
-3.32879 4.88346 -5.8052 0 0 1.5 0.0910311 0.358742 
-3.47447 5.12392 -5.57895 0 0 1.5 0.107582 0.271478 
-3.61126 5.34428 -5.32978 0 0 1.5 0.145772 0.166094 
-3.73429 5.53354 -5.04771 0 0 1.5 0.166853 0.13392 
-3.83324 5.66465 -4.7273 0 0 1.5 0.188884 0.109266 
-3.91774 5.75793 -4.39113 0 0 1.5 0.211475 0.0900127 
-3.98481 5.80429 -4.03918 0 0 1.5 0.256227 0.0621151 
-4.03359 5.79202 -3.68237 0 0 1.5 0.276913 0.0511594 
-4.07563 5.7547 -3.32642 0 0 1.5 0.295246 0.041652 
-4.10755 5.67509 -2.97548 0 0 1.5 0.310289 0.0335177 
-4.13468 5.56671 -2.63274 0 0 1.5 0.327255 0.0201929 
-4.15884 5.44046 -2.29511 0 0 1.5 0.328161 0.0148304 
-4.17859 5.27433 -1.975 0 0 1.5 0.323991 0.0104123 
-4.19722 5.0926 -1.66414 0 0 1.5 0.302534 0.00422606 
-4.21406 4.88477 -1.36911 0 0 1.5 0.286875 0.00230007 
-4.23025 4.64378 -1.10129 0 0 1.5 0.26918 0.000988995 
-4.24681 4.38258 -0.853732 0 0 1.5 0.250336 0.000288535 
-4.26458 4.09466 -0.636229 0 0 1.5 0.212055 0.000589321 
-4.28552 3.78193 -0.457655 0 0 1.5 0.193663 0.00124558 
-4.30831 3.45858 -0.299347 0 0 1.5 0.176237 0.00223133 
-4.33339 3.12417 -0.164958 0 0 1.5 0.159975 0.00361611 
-4.35906 2.78387 -0.0467116 0 0 1.5 0.131314 0.00709764 
-4.38433 2.44186 0.0668819 0 0 1.5 0.118955 0.00907802 
-4.40635 2.09873 0.177774 0 0 1.5 0.107895 0.0112432 
-4.42458 1.75683 0.292867 0 0 1.5 0.0981006 0.0136047 
-4.43768 1.41659 0.413645 0 0 1.5 0.0820575 0.0188456 
-4.44223 1.08026 0.54505 0 0 1.5 0.0756887 0.0215535 
-4.44203 0.746096 0.682359 0 0 1.5 0.07034 0.0244586 
-4.42893 0.418097 0.832959 0 0 1.5 0.0623219 0.0316748 
-4.41299 0.0914548 0.986486 0 0 1.5 0.0594545 0.0359206 
-4.38186 -0.229271 1.14981 0 0 1.5 0.05721 0.0410368 
-4.34885 -0.549627 1.31347 0 0 1.5 0.0554642 0.0476417 
-4.30381 -0.868438 1.47733 0 0 1.5 0.052997 0.0661619 
-4.25645 -1.18822 1.63849 0 0 1.5 0.0520711 0.0786647 
-4.20173 -1.51108 1.7911 0 0 1.5 0.0512355 0.0939144 
-4.14494 -1.83741 1.93482 0 0 1.5 0.0504256 0.112467 
-4.08499 -2.1691 2.06483 0 0 1.5 0.0487286 0.161868 
-4.02439 -2.50672 2.17707 0 0 1.5 0.0478293 0.193239 
-3.96331 -2.84881 2.27586 0 0 1.5 0.0469356 0.229577 
-3.90337 -3.19728 2.34842 0 0 1.5 0.0454678 0.314485 
-3.8438 -3.54777 2.41267 0 0 1.5 0.0451412 0.356036 
-3.78575 -3.90257 2.44748 0 0 1.5 0.0452984 0.390988 
-3.72769 -4.25776 2.47817 0 0 1.5 0.0461073 0.414313 
-3.66872 -4.61404 2.4887 0 0 1.5 0.0502293 0.408303 
-3.6084 -4.97011 2.4966 0 0 1.5 0.0536734 0.380889 
-3.54375 -5.32555 2.49606 0 0 1.5 0.0580221 0.344247 
-3.47502 -5.68019 2.49587 0 0 1.5 0.0632024 0.303513 
-3.39882 -6.03333 2.49631 0 0 1.5 0.0755892 0.2247 
-3.31441 -6.38438 2.50248 0 0 1.5 0.0825322 0.190688 
-3.22055 -6.73302 2.51524 0 0 1.5 0.0897971 0.160963 
-3.11309 -7.0766 2.54101 0 0 1.5 0.104758 0.113015 
-2.99623 -7.41668 2.57576 0 0 1.5 0.112186 0.0936469 
-2.85976 -7.74593 2.63192 0 0 1.5 0.1194 0.0767979 
-2.71647 -8.07142 2.69551 0 0 1.5 0.126281 0.0620974 
-2.54831 -8.37715 2.78824 0 0 1.5 0.138573 0.0371416 
-2.37533 -8.67829 2.88673 0 0 1.5 0.143765 0.026395 
-2.17952 -8.95435 3.0131 0 0 1.5 0.148219 0.0167207 
-1.97764 -9.22154 3.147 0 0 1.5 0.151884 0.0078126 
-1.76011 -9.46585 3.30035 0 0 1.5 0.156721 -0.00844309 
-1.53474 -9.69539 3.46337 0 0 1.5 0.157891 -0.0157699 
-1.29966 -9.90668 3.63834 0 0 1.5 0.158273 -0.0227089 
-1.05636 -10.0987 3.82301 0 0 1.5 0.157913 -0.0293881 
-0.807543 -10.2777 4.01421 0 0 1.5 0.15526 -0.0413985 
-0.551032 -10.4346 4.21391 0 0 1.5 0.153157 -0.0466079 
-0.291709 -10.5834 4.41672 0 0 1.5 0.150667 -0.0513266 
-0.0255429 -10.7085 4.62628 0 0 1.5 0.144889 -0.0587746 
0.241781 -10.8296 4.83699 0 0 1.5 0.141772 -0.0613058 
0.514962 -10.9259 5.05283 0 0 1.5 0.138597 -0.0629671 
0.788721 -11.0195 5.2691 0 0 1.5 0.135418 -0.0636566 
1.06665 -11.0918 5.48828 0 0 1.5 0.129192 -0.0617051 
1.34535 -11.1594 5.7078 0 0 1.5 0.126181 -0.0588923 
1.62691 -11.2096 5.92855 0 0 1.5 0.123241 -0.0548496 
1.90957 -11.2522 6.14922 0 0 1.5 0.120357 -0.0496058 
2.19434 -11.2804 6.36974 0 0 1.5 0.114659 -0.0351043 
2.48061 -11.2977 6.58914 0 0 1.5 0.111781 -0.0258674 
2.76852 -11.3032 6.80731 0 0 1.5 0.108837 -0.0154759 
3.05853 -11.2934 7.02218 0 0 1.5 0.102622 0.0097347 
3.3498 -11.2743 7.23506 0 0 1.5 0.0992915 0.0247522 
3.64376 -11.2348 7.44098 0 0 1.5 0.0957916 0.0412718 
3.93848 -11.1893 7.64492 0 0 1.5 0.0921183 0.0597862 
4.23605 -11.1178 7.83676 0 0 1.5 0.0842838 0.104816 
4.53398 -11.0419 8.02628 0 0 1.5 0.0801763 0.131585 
4.83358 -10.941 8.20111 0 0 1.5 0.0760047 0.161943 
5.13322 -10.8341 8.37187 0 0 1.5 0.071832 0.196619 
5.43296 -10.7082 8.52939 0 0 1.5 0.0638217 0.276963 
5.73217 -10.575 8.68141 0 0 1.5 0.0601949 0.320466 
6.03043 -10.4289 8.82358 0 0 1.5 0.05697 0.363628 
6.32748 -10.2765 8.9614 0 0 1.5 0.0521247 0.4329 
6.62311 -10.1168 9.09411 0 0 1.5 0.0506262 0.450627 
6.91685 -9.95362 9.22672 0 0 1.5 0.0497415 0.453934 
7.20904 -9.78755 9.35925 0 0 1.5 0.0493957 0.444237 
7.49805 -9.62238 9.49953 0 0 1.5 0.0498041 0.401019 
7.78539 -9.45767 9.64384 0 0 1.5 0.0502392 0.375832 
8.0658 -9.30069 9.80853 0 0 1.5 0.0506125 0.35404 
8.34401 -9.14619 9.97935 0 0 1.5 0.0508073 0.338444 
8.60718 -9.00873 10.1852 0 0 1.5 0.0503485 0.329829 
8.86178 -8.87929 10.4049 0 0 1.5 0.0496173 0.338943 
9.09971 -8.76548 10.6518 0 0 1.5 0.0486046 0.35758 
9.31603 -8.66779 10.9231 0 0 1.5 0.0474153 0.384983 
9.52141 -8.57809 11.2063 0 0 1.5 0.0451028 0.457356 
9.69847 -8.50435 11.5125 0 0 1.5 0.0443947 0.490341 
9.86912 -8.43256 11.8226 0 0 1.5 0.0443039 0.509598 
10.028 -8.36432 12.1398 0 0 1.5 0.0467196 0.479732 
10.1853 -8.293 12.4571 0 0 1.5 0.0493964 0.430205 
10.3416 -8.21996 12.7745 0 0 1.5 0.0530099 0.367467 
10.5101 -8.13702 13.083 0 0 1.5 0.0574455 0.300375 
10.6843 -8.05114 13.3874 0 0 1.5 0.0681947 0.178318 
10.8802 -7.9556 13.6755 0 0 1.5 0.0742077 0.127587 
11.0899 -7.85741 13.952 0 0 1.5 0.0804791 0.0830465 
11.3184 -7.75562 14.2127 0 0 1.5 0.0869081 0.0449746 
11.5683 -7.65579 14.4529 0 0 1.5 0.0998793 -0.0140415 
11.8289 -7.55695 14.6827 0 0 1.5 0.106268 -0.0379943 
12.113 -7.4699 14.8877 0 0 1.5 0.112501 -0.0584849 
12.4015 -7.3859 15.0881 0 0 1.5 0.124233 -0.0893506 
12.7082 -7.32398 15.2688 0 0 1.5 0.129585 -0.10131 
13.0173 -7.26929 15.4471 0 0 1.5 0.134485 -0.111039 
13.3351 -7.24089 15.6164 0 0 1.5 0.138857 -0.118316 
13.6535 -7.22832 15.7853 0 0 1.5 0.145662 -0.127009 
13.973 -7.24375 15.9533 0 0 1.5 0.147911 -0.129021 
14.2864 -7.28725 16.1253 0 0 1.5 0.149299 -0.129701 
14.5943 -7.35701 16.301 0 0 1.5 0.14978 -0.129138 
14.8816 -7.46951 16.4861 0 0 1.5 0.147864 -0.125049 
15.1595 -7.60159 16.6754 0 0 1.5 0.145464 -0.122405 
15.394 -7.78638 16.8766 0 0 1.5 0.142155 -0.119425 
15.6203 -7.98116 17.08 0 0 1.5 0.137989 -0.116053 
15.7837 -8.22294 17.2916 0 0 1.5 0.127406 -0.109936 
15.9411 -8.46923 17.504 0 0 1.5 0.121218 -0.107433 
16.0984 -8.71552 17.7163 0 0 1.5 0.114586 -0.1051 
16.2558 -8.96181 17.9287 0 0 1.5 0.100435 -0.102485 
16.4132 -9.2081 18.141 0 0 1.5 0.0931413 -0.102505 
16.5706 -9.45439 18.3534 0 0 1.5 0.0858362 -0.103257 
16.728 -9.70068 18.5657 0 0 1.5 0.0786021 -0.105053 
16.8853 -9.94697 18.7781 0 0 1.5 0.0646097 -0.113291 
17.0427 -10.1933 18.9904 0 0 1.5 0.0579622 -0.119992 
17.2001 -10.4395 19.2027 0 0 1.5 0.0516077 -0.129084 
17.3575 -10.6858 19.4151 0 0 1.5 0.0455733 -0.141605 
17.5149 -10.9321 19.6274 0 0 1.5 0.034564 -0.181113 
17.6722 -11.1784 19.8398 0 0 1.5 0.0296415 -0.211734 
17.8296 -11.4247 20.0521 0 0 1.5 0.0251333 -0.254221 
17.987 -11.671 20.2645 0 0 1.5 0.0174719 -0.394747 
18.1444 -11.9173 20.4768 0 0 1.5 0.0144134 -0.503994 
18.3018 -12.1636 20.6892 0 0 1.5 0.0119538 -0.639605 
18.4592 -12.4099 20.9015 0 0 1.5 0.0101751 -0.773377 
18.6165 -12.6562 21.1139 0 0 1.5 0.0087934 -0.799699 
18.7739 -12.9024 21.3262 0 0 1.5 0.00897378 -0.677912 
18.9313 -13.1487 21.5386 0 0 1.5 0.00945145 -0.540663 
19.0887 -13.395 21.7509 0 0 1.5 0.0100357 -0.424286 
19.2461 -13.6413 21.9633 0 0 1.5 0.0110682 -0.274555 
19.4034 -13.8876 22.1756 0 0 1.5 0.0114077 -0.230035 
19.5608 -14.1339 22.388 0 0 1.5 0.0116024 -0.197784 
19.7182 -14.3802 22.6003 0 0 1.5 0.0115544 -0.15822 
19.8756 -14.6265 22.8127 0 0 1.5 0.0113269 -0.146943 
20.033 -14.8728 23.025 0 0 1.5 0.0109816 -0.139316 
20.1904 -15.1191 23.2374 0 0 1.5 0.0105341 -0.13486 
20.3477 -15.3653 23.4497 0 0 1.5 0.00939424 -0.135068 
20.5051 -15.6116 23.6621 0 0 1.5 0.00873494 -0.139141 
20.6625 -15.8579 23.8744 0 0 1.5 0.00803875 -0.146202 
20.8199 -16.1042 24.0868 0 0 1.5 0.00731942 -0.157235 
20.9773 -16.3505 24.2991 0 0 1.5 0.00586622 -0.194378 
21.1346 -16.5968 24.5115 0 0 1.5 0.00516053 -0.223549 
21.292 -16.8431 24.7238 0 0 1.5 0.00448438 -0.264122 
21.4494 -17.0894 24.9362 0 0 1.5 0.00384929 -0.320135 
21.6068 -17.3357 25.1485 0 0 1.5 0.00275814 -0.496641 
21.7642 -17.582 25.3609 0 0 1.5 0.0023331 -0.622204 
21.9216 -17.8282 25.5732 0 0 1.5 0.00201212 -0.751984 
22.0789 -18.0745 25.7855 0 0 1.5 0.00173494 -0.81986 
22.2363 -18.3208 25.9979 0 0 1.5 0.00176169 -0.718733 
22.3937 -18.5671 26.2102 0 0 1.5 0.0018582 -0.584771 
22.5511 -18.8134 26.4226 0 0 1.5 0.00199092 -0.460674 
22.7085 -19.0597 26.6349 0 0 1.5 0.00227443 -0.289176 
22.8658 -19.306 26.8473 0 0 1.5 0.00240166 -0.234829 
23.0232 -19.5523 27.0596 0 0 1.5 0.00251246 -0.193602 
23.1806 -19.7986 27.272 0 0 1.5 0.0026054 -0.161894 
23.338 -20.0448 27.4843 0 0 1.5 0.00273902 -0.117429 
23.4954 -20.2911 27.6967 0 0 1.5 0.00278271 -0.100835 
23.6528 -20.5374 27.909 0 0 1.5 0.00281374 -0.0867117 
23.8101 -20.7837 28.1214 0 0 1.5 0.00284525 -0.0640691 
23.9675 -21.03 28.3337 0 0 1.5 0.00284979 -0.0545255 
24.1249 -21.2763 28.5461 0 0 1.5 0.00284961 -0.0459197 
24.2823 -21.5226 28.7584 0 0 1.5 0.00284595 -0.0382892 
24.4397 -21.7689 28.9708 0 0 1.5 0.00283279 -0.0254987 
24.597 -22.0152 29.1831 0 0 1.5 0.00282557 -0.0202398 
24.7544 -22.2615 29.3955 0 0 1.5 0.00281863 -0.015766 
24.9118 -22.5077 29.6078 0 0 1.5 0.00281217 -0.0120791 
25.0692 -22.754 29.8202 0 0 1.5 0.0028015 -0.00696283 
25.2266 -23.0003 30.0325 0 0 1.5 0.00279732 -0.00531142 
25.3839 -23.2466 30.2449 0 0 1.5 0.00279366 -0.00423278 
0 1 0 
1 2 0 
2 3 0 
3 4 0 
4 5 0 
5 6 0 
6 7 0 
7 8 0 
8 9 0 
9 10 0 
10 11 0 
11 12 0 
12 13 0 
13 14 0 
14 15 0 
15 16 0 
16 17 0 
17 18 0 
18 19 0 
19 20 0 
20 21 0 
21 22 0 
22 23 0 
23 24 0 
24 25 0 
25 26 0 
26 27 0 
27 28 0 
28 29 0 
29 30 0 
30 31 0 
31 32 0 
32 33 0 
33 34 0 
34 35 0 
35 36 0 
36 37 0 
37 38 0 
38 39 0 
39 40 0 
40 41 0 
41 42 0 
42 43 0 
43 44 0 
44 45 0 
45 46 0 
46 47 0 
47 48 0 
48 49 0 
49 50 0 
50 51 0 
51 52 0 
52 53 0 
53 54 0 
54 55 0 
55 56 0 
56 57 0 
57 58 0 
58 59 0 
59 60 0 
60 61 0 
61 62 0 
62 63 0 
63 64 0 
64 65 0 
65 66 0 
66 67 0 
67 68 0 
68 69 0 
69 70 0 
70 71 0 
71 72 0 
72 73 0 
73 74 0 
74 75 0 
75 76 0 
76 77 0 
77 78 0 
78 79 0 
79 80 0 
80 81 0 
81 82 0 
82 83 0 
83 84 0 
84 85 0 
85 86 0 
86 87 0 
87 88 0 
88 89 0 
89 90 0 
90 91 0 
91 92 0 
92 93 0 
93 94 0 
94 95 0 
95 96 0 
96 97 0 
97 98 0 
98 99 0 
99 100 0 
100 101 0 
101 102 0 
102 103 0 
103 104 0 
104 105 0 
105 106 0 
106 107 0 
107 108 0 
108 109 0 
109 110 0 
110 111 0 
111 112 0 
112 113 0 
113 114 0 
114 115 0 
115 116 0 
116 117 0 
117 118 0 
118 119 0 
119 120 0 
120 121 0 
121 122 0 
122 123 0 
123 124 0 
124 125 0 
125 126 0 
126 127 0 
127 128 0 
128 129 0 
129 130 0 
130 131 0 
131 132 0 
132 133 0 
133 134 0 
134 135 0 
135 136 0 
136 137 0 
137 138 0 
138 139 0 
139 140 0 
140 141 0 
141 142 0 
142 143 0 
143 144 0 
144 145 0 
145 146 0 
146 147 0 
147 148 0 
148 149 0 
149 150 0 
150 151 0 
151 152 0 
152 153 0 
153 154 0 
154 155 0 
155 156 0 
156 157 0 
157 158 0 
158 159 0 
159 160 0 
160 161 0 
161 162 0 
162 163 0 
163 164 0 
164 165 0 
165 166 0 
166 167 0 
167 168 0 
168 169 0 
169 170 0 
170 171 0 
171 172 0 
172 173 0 
173 174 0 
174 175 0 
175 176 0 
176 177 0 
177 178 0 
178 179 0 
179 180 0 
180 181 0 
181 182 0 
182 183 0 
183 184 0 
184 185 0 
185 186 0 
186 187 0 
187 188 0 
188 189 0 
189 190 0 
190 191 0 
191 192 0 
192 193 0 
193 194 0 
194 195 0 
195 196 0 
196 197 0 
197 198 0 
198 199 0 
199 200 0 
200 201 0 
201 202 0 
202 203 0 
203 204 0 
204 205 0 
205 206 0 
206 207 0 
207 208 0 
208 209 0 
209 210 0 
210 211 0 
211 212 0 
212 213 0 
213 214 0 
214 215 0 
215 216 0 
216 217 0 
217 218 0 
218 219 0 
219 220 0 
220 221 0 
221 222 0 
222 223 0 
223 224 0 
224 225 0 
225 226 0 
226 227 0 
227 228 0 
228 229 0 
229 230 0 
230 231 0 
231 232 0 
232 233 0 
233 234 0 
234 235 0 
235 236 0 
236 237 0 
237 238 0 
238 239 0 
239 240 0 
240 241 0 
241 242 0 
242 243 0 
243 244 0 
244 245 0 
245 246 0 
246 247 0 
247 248 0 
248 249 0 
249 250 0 
250 251 0 
251 252 0 
252 253 0 
253 254 0 
254 255 0 
255 256 0 
256 257 0 
257 258 0 
258 259 0 
259 260 0 
260 261 0 
261 262 0 
262 263 0 
263 264 0 
264 265 0 
265 266 0 
266 267 0 
267 268 0 
268 269 0 
269 270 0 
270 271 0 
271 272 0 
272 273 0 
273 274 0 
274 275 0 
275 276 0 
276 277 0 
277 278 0 
278 279 0 
279 280 0 
280 281 0 
281 282 0 
282 283 0 
283 284 0 
284 285 0 
285 286 0 
286 287 0 
287 288 0 
288 289 0 
289 290 0 
290 291 0 
291 292 0 
292 293 0 
293 294 0 
294 295 0 
295 296 0 
296 297 0 
297 298 0 
298 299 0 
-1 -1 0 
-1 300 0 1 2 3 4 5 6 7 8 9 10 11 12 13 14 15 16 17 18 19 20 21 22 23 24 25 26 27 28 29 30 31 32 33 34 35 36 37 38 39 40 41 42 43 44 45 46 47 48 49 50 51 52 53 54 55 56 57 58 59 60 61 62 63 64 65 66 67 68 69 70 71 72 73 74 75 76 77 78 79 80 81 82 83 84 85 86 87 88 89 90 91 92 93 94 95 96 97 98 99 100 101 102 103 104 105 106 107 108 109 110 111 112 113 114 115 116 117 118 119 120 121 122 123 124 125 126 127 128 129 130 131 132 133 134 135 136 137 138 139 140 141 142 143 144 145 146 147 148 149 150 151 152 153 154 155 156 157 158 159 160 161 162 163 164 165 166 167 168 169 170 171 172 173 174 175 176 177 178 179 180 181 182 183 184 185 186 187 188 189 190 191 192 193 194 195 196 197 198 199 200 201 202 203 204 205 206 207 208 209 210 211 212 213 214 215 216 217 218 219 220 221 222 223 224 225 226 227 228 229 230 231 232 233 234 235 236 237 238 239 240 241 242 243 244 245 246 247 248 249 250 251 252 253 254 255 256 257 258 259 260 261 262 263 264 265 266 267 268 269 270 271 272 273 274 275 276 277 278 279 280 281 282 283 284 285 286 287 288 289 290 291 292 293 294 295 296 297 298 299 
