ply
format ascii 1.0
comment written by koba@oshima.lab
element vertex 300
property float x
property float y
property float z
property int label
property int attribute
property float radius
property float curvature
property float torsion
element edge 300
property int vertex1
property int vertex2
property int label
element vertex_seq 1
property int label
property list int int vertex_indices
end_header
3.4888 26.9445 -14.3674 0 0 1.5 0.0183867 -0.00215061 
3.34704 26.6394 -14.1846 0 0 1.5 0.0183733 -0.00222369 
3.20529 26.3343 -14.0019 0 0 1.5 0.018358 -0.00236833 
3.06354 26.0292 -13.8191 0 0 1.5 0.0183403 -0.00258468 
2.92179 25.7242 -13.6364 0 0 1.5 0.0182958 -0.00323884 
2.78004 25.4191 -13.4536 0 0 1.5 0.0182643 -0.00369069 
2.63829 25.114 -13.2708 0 0 1.5 0.0182211 -0.0042326 
2.49654 24.8089 -13.0881 0 0 1.5 0.0181621 -0.00487029 
2.35478 24.5038 -12.9053 0 0 1.5 0.0179696 -0.00649057 
2.21303 24.1987 -12.7226 0 0 1.5 0.0178126 -0.00752498 
2.07128 23.8937 -12.5398 0 0 1.5 0.0175992 -0.00875935 
1.92953 23.5886 -12.357 0 0 1.5 0.0173161 -0.0102579 
1.78778 23.2835 -12.1743 0 0 1.5 0.0164643 -0.0145171 
1.64603 22.9784 -11.9915 0 0 1.5 0.0158563 -0.0176687 
1.50428 22.6733 -11.8088 0 0 1.5 0.0151018 -0.0219749 
1.36252 22.3682 -11.626 0 0 1.5 0.0130712 -0.0373226 
1.22077 22.0631 -11.4432 0 0 1.5 0.0117605 -0.0519853 
1.07902 21.7581 -11.2605 0 0 1.5 0.0102411 -0.0772546 
0.93727 21.453 -11.0777 0 0 1.5 0.00852624 -0.125438 
0.795518 21.1479 -10.895 0 0 1.5 0.00493268 -0.47194 
0.653767 20.8428 -10.7122 0 0 1.5 0.0040583 -0.777453 
0.512015 20.5377 -10.5294 0 0 1.5 0.00515998 -0.531777 
0.370264 20.2326 -10.3467 0 0 1.5 0.00782319 -0.25362 
0.228512 19.9276 -10.1639 0 0 1.5 0.0152845 -0.0773239 
0.0867607 19.6225 -9.98115 0 0 1.5 0.0197046 -0.0487084 
-0.0549908 19.3174 -9.79839 0 0 1.5 0.0245065 -0.0321215 
-0.196742 19.0123 -9.61563 0 0 1.5 0.0351727 -0.0143428 
-0.338494 18.7072 -9.43287 0 0 1.5 0.0409866 -0.00874607 
-0.480245 18.4021 -9.25011 0 0 1.5 0.0470733 -0.00428279 
-0.621997 18.097 -9.06735 0 0 1.5 0.0533972 -0.000581022 
-0.763748 17.792 -8.88459 0 0 1.5 0.0665775 0.00608322 
-0.9055 17.4869 -8.70183 0 0 1.5 0.0733102 0.00935754 
-1.04725 17.1818 -8.51907 0 0 1.5 0.0800458 0.0126632 
-1.189 16.8767 -8.33631 0 0 1.5 0.0867086 0.0161775 
-1.34111 16.5683 -8.16923 0 0 1.5 0.0994656 0.0243095 
-1.50517 16.2561 -8.02024 0 0 1.5 0.105373 0.0290208 
-1.6802 15.9427 -7.8892 0 0 1.5 0.110843 0.0342779 
-1.8687 15.6279 -7.78017 0 0 1.5 0.115797 0.0401817 
-2.07127 15.315 -7.69656 0 0 1.5 0.123881 0.0543629 
-2.28454 15.0036 -7.63223 0 0 1.5 0.126912 0.0627481 
-2.5154 14.7003 -7.60378 0 0 1.5 0.129253 0.0719718 
-2.75183 14.3998 -7.58684 0 0 1.5 0.131979 0.0935969 
-3.00604 14.1146 -7.61176 0 0 1.5 0.132478 0.105958 
-3.26387 13.8344 -7.6468 0 0 1.5 0.132535 0.119002 
-3.53103 13.5671 -7.70796 0 0 1.5 0.132282 0.132765 
-3.80203 13.3078 -7.783 0 0 1.5 0.131431 0.161754 
-4.07693 13.0567 -7.87211 0 0 1.5 0.131156 0.175694 
-4.35388 12.8135 -7.97497 0 0 1.5 0.131196 0.18867 
-4.63186 12.5742 -8.08481 0 0 1.5 0.131704 0.200261 
-4.90872 12.34 -8.20735 0 0 1.5 0.134622 0.215701 
-5.18527 12.1072 -8.33346 0 0 1.5 0.137188 0.218749 
-5.45626 11.8754 -8.47262 0 0 1.5 0.140523 0.218876 
-5.72635 11.6438 -8.61391 0 0 1.5 0.1493 0.2115 
-5.98473 11.4091 -8.7711 0 0 1.5 0.154498 0.205238 
-6.2421 11.1742 -8.92965 0 0 1.5 0.159997 0.198244 
-6.47891 10.9332 -9.10973 0 0 1.5 0.165575 0.191093 
-6.71216 10.6915 -9.29295 0 0 1.5 0.175956 0.17817 
-6.91837 10.4441 -9.49998 0 0 1.5 0.180222 0.17319 
-7.11276 10.1958 -9.71571 0 0 1.5 0.183528 0.169503 
-7.27681 9.94479 -9.95376 0 0 1.5 0.185673 0.167199 
-7.41456 9.69496 -10.2072 0 0 1.5 0.185925 0.1676 
-7.52528 9.44631 -10.4764 0 0 1.5 0.18391 0.170588 
-7.59127 9.20475 -10.7645 0 0 1.5 0.180555 0.175374 
-7.64116 8.96574 -11.0594 0 0 1.5 0.170512 0.191452 
-7.63069 8.74124 -11.3692 0 0 1.5 0.164287 0.203098 
-7.60862 8.51981 -11.6799 0 0 1.5 0.157674 0.216923 
-7.5396 8.311 -11.9933 0 0 1.5 0.151028 0.232956 
-7.45532 8.10547 -12.3042 0 0 1.5 0.139119 0.269956 
-7.33766 7.90712 -12.6098 0 0 1.5 0.13469 0.287685 
-7.20502 7.7095 -12.9089 0 0 1.5 0.131879 0.301925 
-7.04799 7.51305 -13.1976 0 0 1.5 0.131126 0.310157 
-6.8792 7.31328 -13.4765 0 0 1.5 0.137444 0.300371 
-6.69201 7.10832 -13.7402 0 0 1.5 0.145202 0.282322 
-6.49714 6.89626 -13.9915 0 0 1.5 0.156358 0.258521 
-6.28926 6.6722 -14.2221 0 0 1.5 0.171114 0.23221 
-6.07773 6.43776 -14.4371 0 0 1.5 0.212391 0.181224 
-5.85986 6.18531 -14.6252 0 0 1.5 0.23952 0.158668 
-5.64328 5.91856 -14.7911 0 0 1.5 0.271492 0.138695 
-5.42853 5.63153 -14.9255 0 0 1.5 0.351774 0.105375 
-5.22449 5.3251 -15.0232 0 0 1.5 0.400685 0.0905151 
-5.02917 5.00289 -15.091 0 0 1.5 0.455257 0.0763088 
-4.86524 4.6589 -15.0946 0 0 1.5 0.514529 0.0624363 
-4.71988 4.3084 -15.066 0 0 1.5 0.636887 0.0327455 
-4.62347 3.95237 -14.9634 0 0 1.5 0.690749 0.0166249 
-4.57909 3.61459 -14.7985 0 0 1.5 0.731618 0.00047725 
-4.57962 3.30209 -14.5846 0 0 1.5 0.753614 -0.0153261 
-4.64117 3.04019 -14.3122 0 0 1.5 0.729987 -0.043215 
-4.75743 2.85726 -14.0001 0 0 1.5 0.688054 -0.0537048 
-4.89883 2.72551 -13.6736 0 0 1.5 0.633262 -0.0617567 
-5.06489 2.65519 -13.3359 0 0 1.5 0.509402 -0.0720791 
-5.2422 2.64771 -12.9983 0 0 1.5 0.449417 -0.0749583 
-5.42241 2.66168 -12.6611 0 0 1.5 0.394161 -0.0769894 
-5.60065 2.72951 -12.3292 0 0 1.5 0.344552 -0.0786503 
-5.77594 2.80702 -11.9982 0 0 1.5 0.262273 -0.0825704 
-5.94237 2.91368 -11.6703 0 0 1.5 0.228749 -0.0854275 
-6.10266 3.02881 -11.3426 0 0 1.5 0.199512 -0.0892378 
-6.25174 3.15939 -11.015 0 0 1.5 0.173954 -0.0945614 
-6.39183 3.29578 -10.6861 0 0 1.5 0.131738 -0.112544 
-6.5203 3.4397 -10.3554 0 0 1.5 0.114198 -0.127014 
-6.63699 3.58722 -10.0222 0 0 1.5 0.0985733 -0.14765 
-6.74332 3.73792 -9.68668 0 0 1.5 0.0722204 -0.221844 
-6.83513 3.89135 -9.34832 0 0 1.5 0.0613742 -0.286092 
-6.91955 4.04618 -9.0085 0 0 1.5 0.0523081 -0.376556 
-6.98755 4.20478 -8.66684 0 0 1.5 0.0455636 -0.487472 
-7.05186 4.36428 -8.3248 0 0 1.5 0.0424001 -0.585924 
-7.10042 4.52985 -7.98304 0 0 1.5 0.0469043 -0.506164 
-7.14654 4.69696 -7.64174 0 0 1.5 0.0549215 -0.398749 
-7.18374 4.86971 -7.30211 0 0 1.5 0.0657294 -0.306605 
-7.21832 5.04492 -6.9635 0 0 1.5 0.0941026 -0.190885 
-7.24901 5.2238 -6.62641 0 0 1.5 0.111465 -0.156985 
-7.27839 5.40429 -6.29006 0 0 1.5 0.131051 -0.132531 
-7.30681 5.58594 -5.95426 0 0 1.5 0.153026 -0.114414 
-7.33595 5.76538 -5.61733 0 0 1.5 0.204815 -0.0901208 
-7.36532 5.94413 -5.28005 0 0 1.5 0.234763 -0.0816174 
-7.39763 6.1117 -4.93734 0 0 1.5 0.267204 -0.0744284 
-7.43107 6.27162 -4.59134 0 0 1.5 0.336899 -0.0629724 
-7.46705 6.41434 -4.23791 0 0 1.5 0.37156 -0.0580877 
-7.50445 6.51976 -3.87237 0 0 1.5 0.403372 -0.0532735 
-7.53988 6.57398 -3.49767 0 0 1.5 0.429716 -0.0486243 
-7.56534 6.53288 -3.12371 0 0 1.5 0.456287 -0.0402715 
-7.56533 6.35705 -2.79172 0 0 1.5 0.453509 -0.0364896 
-7.53406 6.07825 -2.53652 0 0 1.5 0.440063 -0.0331461 
-7.48023 5.75291 -2.343 0 0 1.5 0.417636 -0.0304126 
-7.4069 5.40697 -2.1963 0 0 1.5 0.355773 -0.0270063 
-7.32284 5.05726 -2.06591 0 0 1.5 0.32127 -0.0263248 
-7.23308 4.70556 -1.94416 0 0 1.5 0.287016 -0.0262239 
-7.13026 4.35476 -1.83044 0 0 1.5 0.223807 -0.0279789 
-7.02546 4.00456 -1.71672 0 0 1.5 0.195932 -0.0298047 
-6.91175 3.65727 -1.60255 0 0 1.5 0.170724 -0.0321366 
-6.79597 3.31101 -1.48745 0 0 1.5 0.148086 -0.0351205 
-6.67417 2.96772 -1.36959 0 0 1.5 0.109778 -0.0436712 
-6.55097 2.62528 -1.25076 0 0 1.5 0.0936486 -0.049365 
-6.42443 2.28487 -1.12961 0 0 1.5 0.0792277 -0.0563738 
-6.29772 1.9446 -1.00822 0 0 1.5 0.0663178 -0.0651819 
-6.1707 1.60464 -0.886313 0 0 1.5 0.0443229 -0.0922442 
-6.04531 1.26372 -0.765414 0 0 1.5 0.034906 -0.115307 
-5.92258 0.921245 -0.646168 0 0 1.5 0.0263713 -0.153404 
-5.80392 0.576468 -0.529615 0 0 1.5 0.0186283 -0.230676 
-5.69005 0.228973 -0.416244 0 0 1.5 0.00572914 -1.48606 
-5.58303 -0.122033 -0.307375 0 0 1.5 0.00433081 -2.3592 
-5.48114 -0.475678 -0.20189 0 0 1.5 0.00888474 -0.60443 
-5.38824 -0.83331 -0.101951 0 0 1.5 0.0197583 -0.204383 
-5.29899 -1.19256 -0.00426975 0 0 1.5 0.0252243 -0.172187 
-5.21862 -1.55507 0.0889508 0 0 1.5 0.0307304 -0.157308 
-5.1398 -1.91809 0.181508 0 0 1.5 0.0363256 -0.148633 
-5.06572 -2.28211 0.274126 0 0 1.5 0.0479534 -0.138368 
-4.99111 -2.64559 0.368351 0 0 1.5 0.0540492 -0.134033 
-4.91474 -3.00729 0.467911 0 0 1.5 0.0603494 -0.129152 
-4.83375 -3.3661 0.573627 0 0 1.5 0.0668466 -0.123898 
-4.7468 -3.7212 0.687288 0 0 1.5 0.0803395 -0.112595 
-4.64759 -4.06838 0.81379 0 0 1.5 0.0872508 -0.106398 
-4.54208 -4.41148 0.946888 0 0 1.5 0.09419 -0.0999532 
-4.41401 -4.73855 1.0988 0 0 1.5 0.107839 -0.0864868 
-4.27935 -5.06065 1.25527 0 0 1.5 0.114376 -0.0792757 
-4.11951 -5.36321 1.42698 0 0 1.5 0.120598 -0.0717027 
-3.94831 -5.65646 1.60266 0 0 1.5 0.126405 -0.0637398 
-3.75733 -5.93352 1.78524 0 0 1.5 0.136411 -0.0469745 
-3.54857 -6.19564 1.96927 0 0 1.5 0.14046 -0.0380826 
-3.32619 -6.44633 2.1544 0 0 1.5 0.143788 -0.028678 
-3.08123 -6.67734 2.33574 0 0 1.5 0.146349 -0.0189562 
-2.82833 -6.90141 2.51573 0 0 1.5 0.149137 0.0011503 
-2.55003 -7.10129 2.68605 0 0 1.5 0.149386 0.0119067 
-2.26806 -7.29758 2.85487 0 0 1.5 0.148911 0.0229176 
-1.9612 -7.46604 3.00988 0 0 1.5 0.146057 0.0450375 
-1.6514 -7.63029 3.16296 0 0 1.5 0.143828 0.0564914 
-1.32356 -7.76872 3.30413 0 0 1.5 0.14117 0.067951 
-0.991671 -7.89911 3.44257 0 0 1.5 0.138176 0.0790469 
-0.648011 -8.00609 3.57305 0 0 1.5 0.13151 0.100391 
-0.30048 -8.10091 3.7016 0 0 1.5 0.127982 0.110434 
0.0535383 -8.17535 3.8269 0 0 1.5 0.124406 0.119654 
0.409968 -8.23312 3.95303 0 0 1.5 0.120833 0.127963 
0.768798 -8.27428 4.07999 0 0 1.5 0.113809 0.141464 
1.12713 -8.29408 4.21231 0 0 1.5 0.110378 0.146432 
1.48518 -8.30205 4.34761 0 0 1.5 0.106991 0.150098 
1.83845 -8.28439 4.49343 0 0 1.5 0.103624 0.152424 
2.19053 -8.26037 4.64188 0 0 1.5 0.0968008 0.154024 
2.53269 -8.20847 4.80549 0 0 1.5 0.0932727 0.153542 
2.87284 -8.15245 4.97168 0 0 1.5 0.0896117 0.152233 
3.20218 -8.07578 5.15121 0 0 1.5 0.0817297 0.149612 
3.52784 -7.99393 5.33473 0 0 1.5 0.0774556 0.149076 
3.84455 -7.89944 5.52795 0 0 1.5 0.0729335 0.149275 
4.15648 -7.79995 5.72613 0 0 1.5 0.0681527 0.151202 
4.46211 -7.69385 5.93085 0 0 1.5 0.0578657 0.164983 
4.76285 -7.58445 6.14087 0 0 1.5 0.0524127 0.179277 
5.05967 -7.4724 6.35514 0 0 1.5 0.0468073 0.202408 
5.35209 -7.35964 6.57496 0 0 1.5 0.0411187 0.239947 
5.64232 -7.24653 6.79755 0 0 1.5 0.0299248 0.397735 
5.92902 -7.13565 7.02572 0 0 1.5 0.0247826 0.555919 
6.21471 -7.02543 7.25552 0 0 1.5 0.0204039 0.79602 
6.49813 -6.92053 7.49053 0 0 1.5 0.0165874 1.1496 
6.78127 -6.81633 7.72623 0 0 1.5 0.0181142 0.936145 
7.06381 -6.72058 7.96617 0 0 1.5 0.0213982 0.643158 
7.34656 -6.62606 8.20633 0 0 1.5 0.0256616 0.419524 
7.6309 -6.54046 8.44798 0 0 1.5 0.0352838 0.173442 
7.91626 -6.45758 8.68932 0 0 1.5 0.0402082 0.105933 
8.20484 -6.38318 8.92965 0 0 1.5 0.0450829 0.0564376 
8.49575 -6.31305 9.16836 0 0 1.5 0.0498764 0.0177858 
8.79073 -6.2504 9.40422 0 0 1.5 0.0592382 -0.0388053 
9.08938 -6.19342 9.63675 0 0 1.5 0.063868 -0.0606286 
9.39212 -6.14277 9.86556 0 0 1.5 0.0685319 -0.0799593 
9.69942 -6.09922 10.0895 0 0 1.5 0.0782404 -0.110403 
10.0103 -6.06117 10.3098 0 0 1.5 0.0834328 -0.121901 
10.3256 -6.03181 10.5247 0 0 1.5 0.0889533 -0.131521 
10.6435 -6.0075 10.7367 0 0 1.5 0.0948774 -0.138864 
10.9649 -5.9942 10.9441 0 0 1.5 0.108148 -0.146571 
11.2878 -5.98598 11.1496 0 0 1.5 0.115554 -0.147943 
11.6121 -5.99239 11.3528 0 0 1.5 0.123479 -0.147821 
11.9368 -6.00422 11.5552 0 0 1.5 0.131883 -0.146274 
12.2592 -6.03689 11.7588 0 0 1.5 0.149762 -0.14073 
12.581 -6.07505 11.9628 0 0 1.5 0.158951 -0.137253 
12.8934 -6.14446 12.1726 0 0 1.5 0.168051 -0.133396 
13.2032 -6.22063 12.3839 0 0 1.5 0.17681 -0.12935 
13.493 -6.3377 12.6049 0 0 1.5 0.192096 -0.121253 
13.7708 -6.47141 12.83 0 0 1.5 0.197995 -0.117304 
14.0238 -6.63929 13.0631 0 0 1.5 0.202336 -0.11343 
14.2427 -6.83982 13.3023 0 0 1.5 0.205317 -0.106063 
14.4427 -7.05823 13.5448 0 0 1.5 0.203652 -0.102612 
14.5817 -7.31623 13.7912 0 0 1.5 0.199844 -0.0993104 
14.6987 -7.58326 14.0373 0 0 1.5 0.193962 -0.0961999 
14.7771 -7.86627 14.2829 0 0 1.5 0.176686 -0.0911664 
14.8213 -8.15675 14.5271 0 0 1.5 0.165854 -0.0893201 
14.8485 -8.45094 14.7706 0 0 1.5 0.153951 -0.0879408 
14.8398 -8.74648 15.0136 0 0 1.5 0.141255 -0.0873665 
14.8242 -9.04143 15.257 0 0 1.5 0.11456 -0.0899158 
14.7858 -9.33231 15.5029 0 0 1.5 0.100987 -0.0935991 
14.7415 -9.61995 15.7515 0 0 1.5 0.0874672 -0.100313 
14.6869 -9.90194 16.0046 0 0 1.5 0.0610308 -0.13375 
14.6275 -10.1768 16.2643 0 0 1.5 0.0482739 -0.173675 
14.5651 -10.4469 16.5283 0 0 1.5 0.0359166 -0.260163 
14.5012 -10.7049 16.8038 0 0 1.5 0.0240896 -0.497285 
14.438 -10.9583 17.0837 0 0 1.5 0.00725802 -4.66774 
14.3772 -11.2013 17.3732 0 0 1.5 0.0134776 -1.35334 
14.3209 -11.4377 17.6689 0 0 1.5 0.0231374 -0.480254 
14.2679 -11.6699 17.9686 0 0 1.5 0.0329275 -0.255864 
14.2269 -11.8973 18.2738 0 0 1.5 0.051294 -0.128412 
14.1964 -12.126 18.5792 0 0 1.5 0.059597 -0.105144 
14.176 -12.3558 18.8847 0 0 1.5 0.067186 -0.0907006 
14.1867 -12.5948 19.1836 0 0 1.5 0.0739545 -0.081075 
14.2178 -12.8401 19.475 0 0 1.5 0.0846323 -0.0696098 
14.2722 -13.0926 19.7575 0 0 1.5 0.0884053 -0.0659438 
14.3724 -13.3568 20.0152 0 0 1.5 0.0910542 -0.0629652 
14.4902 -13.6241 20.2611 0 0 1.5 0.0928838 -0.059152 
14.6468 -13.8973 20.4789 0 0 1.5 0.0921327 -0.0580526 
14.8033 -14.1705 20.6967 0 0 1.5 0.0903519 -0.0571911 
14.9598 -14.4437 20.9145 0 0 1.5 0.0876259 -0.0567767 
15.1163 -14.7169 21.1323 0 0 1.5 0.0798253 -0.0578546 
15.2728 -14.9901 21.3501 0 0 1.5 0.0750153 -0.059102 
15.4293 -15.2633 21.5679 0 0 1.5 0.0697744 -0.0610547 
15.5859 -15.5365 21.7857 0 0 1.5 0.0642289 -0.0641083 
15.7424 -15.8097 22.0035 0 0 1.5 0.052693 -0.073946 
15.8989 -16.0829 22.2213 0 0 1.5 0.0469131 -0.081504 
16.0554 -16.3561 22.4391 0 0 1.5 0.0412359 -0.0921211 
16.2119 -16.6293 22.6569 0 0 1.5 0.030459 -0.127783 
16.3684 -16.9025 22.8747 0 0 1.5 0.0254814 -0.15835 
16.525 -17.1757 23.0925 0 0 1.5 0.0208343 -0.205997 
16.6815 -17.4489 23.3103 0 0 1.5 0.0165572 -0.284083 
16.838 -17.7221 23.5281 0 0 1.5 0.00938038 -0.671466 
16.9945 -17.9953 23.7459 0 0 1.5 0.00675481 -1.1318 
17.151 -18.2685 23.9637 0 0 1.5 0.00520338 -1.66964 
17.3075 -18.5417 24.1815 0 0 1.5 0.00507848 -1.53338 
17.4641 -18.8149 24.3993 0 0 1.5 0.00726701 -0.576523 
17.6206 -19.0881 24.6171 0 0 1.5 0.00850806 -0.370499 
17.7771 -19.3613 24.8349 0 0 1.5 0.00957679 -0.257464 
17.9336 -19.6345 25.0527 0 0 1.5 0.0110269 -0.151389 
18.0901 -19.9077 25.2705 0 0 1.5 0.0114036 -0.125436 
18.2466 -20.1809 25.4883 0 0 1.5 0.0115638 -0.107996 
18.4032 -20.4541 25.7061 0 0 1.5 0.0115252 -0.0962935 
18.5597 -20.7273 25.9239 0 0 1.5 0.010936 -0.0845016 
18.7162 -21.0005 26.1417 0 0 1.5 0.0104315 -0.082443 
18.8727 -21.2737 26.3595 0 0 1.5 0.00981857 -0.0825816 
19.0292 -21.5469 26.5773 0 0 1.5 0.00911822 -0.0852027 
19.1857 -21.8201 26.7951 0 0 1.5 0.00753902 -0.0985994 
19.3423 -22.0932 27.0129 0 0 1.5 0.00670193 -0.11081 
19.4988 -22.3664 27.2307 0 0 1.5 0.00585589 -0.129269 
19.6553 -22.6396 27.4485 0 0 1.5 0.00501616 -0.157057 
19.8118 -22.9128 27.6663 0 0 1.5 0.00342011 -0.267831 
19.9683 -23.186 27.8841 0 0 1.5 0.00269365 -0.386472 
20.1248 -23.4592 28.1019 0 0 1.5 0.00203889 -0.605838 
20.2814 -23.7324 28.3197 0 0 1.5 0.00112762 -1.60573 
20.4379 -24.0056 28.5375 0 0 1.5 0.0010426 -1.70191 
20.5944 -24.2788 28.7553 0 0 1.5 0.00121763 -1.1343 
20.7509 -24.552 28.9731 0 0 1.5 0.0015111 -0.670108 
20.9074 -24.8252 29.1909 0 0 1.5 0.00212243 -0.28401 
21.0639 -25.0984 29.4087 0 0 1.5 0.00238757 -0.206247 
21.2204 -25.3716 29.6265 0 0 1.5 0.00261661 -0.157703 
21.377 -25.6448 29.8443 0 0 1.5 0.00280912 -0.125653 
21.5335 -25.918 30.0621 0 0 1.5 0.0030938 -0.0875688 
21.69 -26.1912 30.2799 0 0 1.5 0.00319279 -0.0752373 
21.8465 -26.4644 30.4977 0 0 1.5 0.00326795 -0.0654626 
22.003 -26.7376 30.7155 0 0 1.5 0.00336066 -0.0509954 
22.1595 -27.0108 30.9333 0 0 1.5 0.00338522 -0.0451769 
22.3161 -27.284 31.1511 0 0 1.5 0.00339977 -0.040003 
22.4726 -27.5572 31.3689 0 0 1.5 0.00340653 -0.0354597 
22.6291 -27.8304 31.5867 0 0 1.5 0.00340474 -0.0276884 
22.7856 -28.1036 31.8045 0 0 1.5 0.0034 -0.0243577 
22.9421 -28.3768 32.0223 0 0 1.5 0.00339408 -0.0214669 
23.0986 -28.65 32.2401 0 0 1.5 0.00338751 -0.0189974 
23.2552 -28.9232 32.4579 0 0 1.5 0.0033746 -0.0152774 
23.4117 -29.1964 32.6757 0 0 1.5 0.00336873 -0.0140317 
23.5682 -29.4696 32.8935 0 0 1.5 0.00336314 -0.0132018 
0 1 0 
1 2 0 
2 3 0 
3 4 0 
4 5 0 
5 6 0 
6 7 0 
7 8 0 
8 9 0 
9 10 0 
10 11 0 
11 12 0 
12 13 0 
13 14 0 
14 15 0 
15 16 0 
16 17 0 
17 18 0 
18 19 0 
19 20 0 
20 21 0 
21 22 0 
22 23 0 
23 24 0 
24 25 0 
25 26 0 
26 27 0 
27 28 0 
28 29 0 
29 30 0 
30 31 0 
31 32 0 
32 33 0 
33 34 0 
34 35 0 
35 36 0 
36 37 0 
37 38 0 
38 39 0 
39 40 0 
40 41 0 
41 42 0 
42 43 0 
43 44 0 
44 45 0 
45 46 0 
46 47 0 
47 48 0 
48 49 0 
49 50 0 
50 51 0 
51 52 0 
52 53 0 
53 54 0 
54 55 0 
55 56 0 
56 57 0 
57 58 0 
58 59 0 
59 60 0 
60 61 0 
61 62 0 
62 63 0 
63 64 0 
64 65 0 
65 66 0 
66 67 0 
67 68 0 
68 69 0 
69 70 0 
70 71 0 
71 72 0 
72 73 0 
73 74 0 
74 75 0 
75 76 0 
76 77 0 
77 78 0 
78 79 0 
79 80 0 
80 81 0 
81 82 0 
82 83 0 
83 84 0 
84 85 0 
85 86 0 
86 87 0 
87 88 0 
88 89 0 
89 90 0 
90 91 0 
91 92 0 
92 93 0 
93 94 0 
94 95 0 
95 96 0 
96 97 0 
97 98 0 
98 99 0 
99 100 0 
100 101 0 
101 102 0 
102 103 0 
103 104 0 
104 105 0 
105 106 0 
106 107 0 
107 108 0 
108 109 0 
109 110 0 
110 111 0 
111 112 0 
112 113 0 
113 114 0 
114 115 0 
115 116 0 
116 117 0 
117 118 0 
118 119 0 
119 120 0 
120 121 0 
121 122 0 
122 123 0 
123 124 0 
124 125 0 
125 126 0 
126 127 0 
127 128 0 
128 129 0 
129 130 0 
130 131 0 
131 132 0 
132 133 0 
133 134 0 
134 135 0 
135 136 0 
136 137 0 
137 138 0 
138 139 0 
139 140 0 
140 141 0 
141 142 0 
142 143 0 
143 144 0 
144 145 0 
145 146 0 
146 147 0 
147 148 0 
148 149 0 
149 150 0 
150 151 0 
151 152 0 
152 153 0 
153 154 0 
154 155 0 
155 156 0 
156 157 0 
157 158 0 
158 159 0 
159 160 0 
160 161 0 
161 162 0 
162 163 0 
163 164 0 
164 165 0 
165 166 0 
166 167 0 
167 168 0 
168 169 0 
169 170 0 
170 171 0 
171 172 0 
172 173 0 
173 174 0 
174 175 0 
175 176 0 
176 177 0 
177 178 0 
178 179 0 
179 180 0 
180 181 0 
181 182 0 
182 183 0 
183 184 0 
184 185 0 
185 186 0 
186 187 0 
187 188 0 
188 189 0 
189 190 0 
190 191 0 
191 192 0 
192 193 0 
193 194 0 
194 195 0 
195 196 0 
196 197 0 
197 198 0 
198 199 0 
199 200 0 
200 201 0 
201 202 0 
202 203 0 
203 204 0 
204 205 0 
205 206 0 
206 207 0 
207 208 0 
208 209 0 
209 210 0 
210 211 0 
211 212 0 
212 213 0 
213 214 0 
214 215 0 
215 216 0 
216 217 0 
217 218 0 
218 219 0 
219 220 0 
220 221 0 
221 222 0 
222 223 0 
223 224 0 
224 225 0 
225 226 0 
226 227 0 
227 228 0 
228 229 0 
229 230 0 
230 231 0 
231 232 0 
232 233 0 
233 234 0 
234 235 0 
235 236 0 
236 237 0 
237 238 0 
238 239 0 
239 240 0 
240 241 0 
241 242 0 
242 243 0 
243 244 0 
244 245 0 
245 246 0 
246 247 0 
247 248 0 
248 249 0 
249 250 0 
250 251 0 
251 252 0 
252 253 0 
253 254 0 
254 255 0 
255 256 0 
256 257 0 
257 258 0 
258 259 0 
259 260 0 
260 261 0 
261 262 0 
262 263 0 
263 264 0 
264 265 0 
265 266 0 
266 267 0 
267 268 0 
268 269 0 
269 270 0 
270 271 0 
271 272 0 
272 273 0 
273 274 0 
274 275 0 
275 276 0 
276 277 0 
277 278 0 
278 279 0 
279 280 0 
280 281 0 
281 282 0 
282 283 0 
283 284 0 
284 285 0 
285 286 0 
286 287 0 
287 288 0 
288 289 0 
289 290 0 
290 291 0 
291 292 0 
292 293 0 
293 294 0 
294 295 0 
295 296 0 
296 297 0 
297 298 0 
298 299 0 
-1 -1 0 
-1 300 0 1 2 3 4 5 6 7 8 9 10 11 12 13 14 15 16 17 18 19 20 21 22 23 24 25 26 27 28 29 30 31 32 33 34 35 36 37 38 39 40 41 42 43 44 45 46 47 48 49 50 51 52 53 54 55 56 57 58 59 60 61 62 63 64 65 66 67 68 69 70 71 72 73 74 75 76 77 78 79 80 81 82 83 84 85 86 87 88 89 90 91 92 93 94 95 96 97 98 99 100 101 102 103 104 105 106 107 108 109 110 111 112 113 114 115 116 117 118 119 120 121 122 123 124 125 126 127 128 129 130 131 132 133 134 135 136 137 138 139 140 141 142 143 144 145 146 147 148 149 150 151 152 153 154 155 156 157 158 159 160 161 162 163 164 165 166 167 168 169 170 171 172 173 174 175 176 177 178 179 180 181 182 183 184 185 186 187 188 189 190 191 192 193 194 195 196 197 198 199 200 201 202 203 204 205 206 207 208 209 210 211 212 213 214 215 216 217 218 219 220 221 222 223 224 225 226 227 228 229 230 231 232 233 234 235 236 237 238 239 240 241 242 243 244 245 246 247 248 249 250 251 252 253 254 255 256 257 258 259 260 261 262 263 264 265 266 267 268 269 270 271 272 273 274 275 276 277 278 279 280 281 282 283 284 285 286 287 288 289 290 291 292 293 294 295 296 297 298 299 
