ply
format ascii 1.0
comment written by koba@oshima.lab
element vertex 300
property float x
property float y
property float z
property int label
property int attribute
property float radius
property float curvature
property float torsion
element edge 300
property int vertex1
property int vertex2
property int label
element vertex_seq 1
property int label
property list int int vertex_indices
end_header
6.64219 25.4356 -3.51925 0 0 1.5 0.0295671 0.00843357 
6.43281 25.177 -3.62561 0 0 1.5 0.0293978 0.00872238 
6.22343 24.9183 -3.73197 0 0 1.5 0.0292235 0.00929177 
6.01404 24.6597 -3.83833 0 0 1.5 0.0290421 0.0101443 
5.80466 24.401 -3.94468 0 0 1.5 0.0286488 0.0127124 
5.59528 24.1423 -4.05104 0 0 1.5 0.0284271 0.0144444 
5.3859 23.8837 -4.1574 0 0 1.5 0.0281788 0.0165041 
5.17652 23.625 -4.26376 0 0 1.5 0.0278965 0.018925 
4.96714 23.3664 -4.37012 0 0 1.5 0.027186 0.0248294 
4.75776 23.1077 -4.47648 0 0 1.5 0.0267231 0.0284698 
4.54838 22.849 -4.58284 0 0 1.5 0.0261648 0.0327918 
4.339 22.5904 -4.6892 0 0 1.5 0.0254923 0.0379133 
4.12962 22.3317 -4.79555 0 0 1.5 0.0237004 0.0519303 
3.92024 22.0731 -4.90191 0 0 1.5 0.0225283 0.0623538 
3.71086 21.8144 -5.00827 0 0 1.5 0.0211379 0.0766488 
3.50148 21.5557 -5.11463 0 0 1.5 0.0176002 0.129 
3.2921 21.2971 -5.22099 0 0 1.5 0.0154093 0.182579 
3.08272 21.0384 -5.32735 0 0 1.5 0.0129253 0.282332 
2.87334 20.7797 -5.43371 0 0 1.5 0.0101828 0.496348 
2.66396 20.5211 -5.54007 0 0 1.5 0.00504409 2.45808 
2.45458 20.2624 -5.64642 0 0 1.5 0.00534903 2.4353 
2.2452 20.0038 -5.75278 0 0 1.5 0.00866802 1.03869 
2.03582 19.7451 -5.85914 0 0 1.5 0.0133594 0.493335 
1.82644 19.4864 -5.9655 0 0 1.5 0.0248762 0.185453 
1.61706 19.2278 -6.07186 0 0 1.5 0.0314822 0.133359 
1.40768 18.9691 -6.17822 0 0 1.5 0.0385954 0.102884 
1.1983 18.7105 -6.28458 0 0 1.5 0.0542456 0.0712726 
0.988917 18.4518 -6.39094 0 0 1.5 0.0626894 0.0625446 
0.779537 18.1931 -6.49729 0 0 1.5 0.0714421 0.056529 
0.570157 17.9345 -6.60365 0 0 1.5 0.0804094 0.0524904 
0.360776 17.6758 -6.71001 0 0 1.5 0.0984749 0.0479675 
0.151396 17.4172 -6.81637 0 0 1.5 0.107219 0.0470421 
-0.0579842 17.1585 -6.92273 0 0 1.5 0.115491 0.0469523 
-0.267365 16.8998 -7.02909 0 0 1.5 0.123056 0.0474744 
-0.476745 16.6412 -7.13545 0 0 1.5 0.135046 0.0500831 
-0.686125 16.3825 -7.2418 0 0 1.5 0.138968 0.0524693 
-0.895505 16.1238 -7.34816 0 0 1.5 0.141212 0.0555591 
-1.1092 15.8547 -7.40065 0 0 1.5 0.141637 0.0593267 
-1.32462 15.5814 -7.43164 0 0 1.5 0.136747 0.070419 
-1.53876 15.3083 -7.39623 0 0 1.5 0.131435 0.0785754 
-1.7519 15.0372 -7.3451 0 0 1.5 0.124368 0.0890991 
-1.96076 14.7753 -7.24603 0 0 1.5 0.105703 0.123514 
-2.16782 14.5196 -7.13043 0 0 1.5 0.0945002 0.153273 
-2.37222 14.2732 -6.99052 0 0 1.5 0.0823748 0.199216 
-2.57612 14.0358 -6.83595 0 0 1.5 0.0695968 0.275627 
-2.77965 13.8047 -6.6709 0 0 1.5 0.0435638 0.696677 
-2.98585 13.5826 -6.49732 0 0 1.5 0.0321501 1.28824 
-3.19314 13.3641 -6.32026 0 0 1.5 0.0256729 2.05989 
-3.40715 13.1527 -6.14269 0 0 1.5 0.028927 1.68098 
-3.62279 12.9429 -5.965 0 0 1.5 0.0560954 0.506548 
-3.84939 12.7372 -5.79662 0 0 1.5 0.0739058 0.319961 
-4.07776 12.5318 -5.63016 0 0 1.5 0.0932791 0.225016 
-4.31995 12.3261 -5.48498 0 0 1.5 0.136032 0.141033 
-4.56573 12.119 -5.34906 0 0 1.5 0.159283 0.121932 
-4.82196 11.908 -5.24012 0 0 1.5 0.183644 0.11036 
-5.08327 11.6916 -5.16113 0 0 1.5 0.208897 0.103669 
-5.34842 11.4712 -5.1047 0 0 1.5 0.260574 0.0993289 
-5.61064 11.2407 -5.11548 0 0 1.5 0.285742 0.100369 
-5.863 11.0072 -5.16348 0 0 1.5 0.309273 0.102879 
-6.10471 10.7705 -5.25053 0 0 1.5 0.330121 0.106391 
-6.31159 10.5351 -5.40494 0 0 1.5 0.359421 0.115606 
-6.49851 10.3032 -5.58457 0 0 1.5 0.366049 0.120825 
-6.66474 10.075 -5.79032 0 0 1.5 0.366744 0.125997 
-6.79711 9.85551 -6.02719 0 0 1.5 0.351315 0.136194 
-6.91883 9.63925 -6.27254 0 0 1.5 0.336644 0.141278 
-7.01459 9.43154 -6.53663 0 0 1.5 0.318738 0.146366 
-7.09788 9.2289 -6.80821 0 0 1.5 0.298727 0.151753 
-7.16522 9.03275 -7.08936 0 0 1.5 0.256319 0.164657 
-7.21507 8.84483 -7.3792 0 0 1.5 0.235468 0.172418 
-7.25507 8.66155 -7.67393 0 0 1.5 0.215582 0.181445 
-7.27032 8.4903 -7.9778 0 0 1.5 0.196998 0.192105 
-7.27849 8.32235 -8.2839 0 0 1.5 0.16456 0.218453 
-7.25549 8.16797 -8.59646 0 0 1.5 0.150979 0.233838 
-7.21974 8.01784 -8.90933 0 0 1.5 0.139282 0.250155 
-7.15909 7.87602 -9.2228 0 0 1.5 0.129561 0.266244 
-7.07395 7.73882 -9.53201 0 0 1.5 0.116554 0.289481 
-6.97443 7.60433 -9.83871 0 0 1.5 0.113537 0.291992 
-6.84218 7.4694 -10.1324 0 0 1.5 0.113005 0.28619 
-6.70198 7.33282 -10.4215 0 0 1.5 0.119797 0.250777 
-6.53856 7.18893 -10.6947 0 0 1.5 0.127238 0.225441 
-6.36759 7.03877 -10.9593 0 0 1.5 0.137454 0.198876 
-6.18478 6.87879 -11.2104 0 0 1.5 0.150577 0.173228 
-5.99604 6.70732 -11.4486 0 0 1.5 0.186503 0.128501 
-5.80228 6.52612 -11.6759 0 0 1.5 0.210095 0.110176 
-5.60575 6.32904 -11.8864 0 0 1.5 0.238252 0.0945335 
-5.40774 6.12342 -12.0878 0 0 1.5 0.271818 0.0809512 
-5.21009 5.89783 -12.2662 0 0 1.5 0.359592 0.0578154 
-5.01257 5.66572 -12.4369 0 0 1.5 0.416524 0.0476496 
-4.81867 5.40855 -12.5715 0 0 1.5 0.484147 0.03766 
-4.62646 5.14443 -12.6933 0 0 1.5 0.655664 0.0159298 
-4.44105 4.85773 -12.7673 0 0 1.5 0.758653 0.00378812 
-4.26489 4.56026 -12.7947 0 0 1.5 0.868014 -0.00972747 
-4.10057 4.25562 -12.7702 0 0 1.5 0.97416 -0.0248099 
-3.96309 3.9559 -12.6548 0 0 1.5 1.11562 -0.0558203 
-3.86901 3.69689 -12.4446 0 0 1.5 1.12123 -0.0689573 
-3.81556 3.49074 -12.1741 0 0 1.5 1.07686 -0.0791008 
-3.79699 3.33589 -11.8646 0 0 1.5 0.99216 -0.0857923 
-3.81389 3.23937 -11.5292 0 0 1.5 0.768088 -0.0910672 
-3.86006 3.19625 -11.1871 0 0 1.5 0.656477 -0.0920828 
-3.91943 3.17803 -10.8442 0 0 1.5 0.555153 -0.0934597 
-4.00228 3.20642 -10.506 0 0 1.5 0.39025 -0.100522 
-4.09606 3.25933 -10.1748 0 0 1.5 0.325325 -0.10815 
-4.20113 3.33759 -9.85094 0 0 1.5 0.270006 -0.120408 
-4.31835 3.45005 -9.54241 0 0 1.5 0.222713 -0.139624 
-4.43972 3.57489 -9.23968 0 0 1.5 0.146864 -0.219152 
-4.5693 3.73784 -8.95912 0 0 1.5 0.116334 -0.303027 
-4.6989 3.9132 -8.68685 0 0 1.5 0.0901211 -0.452767 
-4.82851 4.10974 -8.42871 0 0 1.5 0.0686967 -0.721679 
-4.95083 4.32498 -8.18257 0 0 1.5 0.0498001 -1.29581 
-5.06618 4.54911 -7.94087 0 0 1.5 0.0570371 -1.00366 
-5.1659 4.78301 -7.70128 0 0 1.5 0.072007 -0.657533 
-5.2396 5.01326 -7.44948 0 0 1.5 0.0909574 -0.441398 
-5.28491 5.2278 -7.17932 0 0 1.5 0.134412 -0.247582 
-5.29339 5.41057 -6.88419 0 0 1.5 0.157687 -0.204014 
-5.26055 5.54285 -6.56322 0 0 1.5 0.181449 -0.176603 
-5.1851 5.59902 -6.22676 0 0 1.5 0.228455 -0.148475 
-5.08746 5.59722 -5.89293 0 0 1.5 0.250467 -0.141968 
-4.97829 5.55887 -5.56452 0 0 1.5 0.270384 -0.138467 
-4.85974 5.48463 -5.24438 0 0 1.5 0.287253 -0.137226 
-4.73534 5.37938 -4.93588 0 0 1.5 0.308629 -0.139016 
-4.60903 5.26389 -4.63137 0 0 1.5 0.312004 -0.141128 
-4.478 5.11995 -4.34125 0 0 1.5 0.310263 -0.143815 
-4.34612 4.9711 -4.05424 0 0 1.5 0.303745 -0.146961 
-4.211 4.80334 -3.77918 0 0 1.5 0.279173 -0.154151 
-4.07478 4.62816 -3.50965 0 0 1.5 0.262878 -0.158405 
-3.93644 4.43869 -3.25077 0 0 1.5 0.245134 -0.163421 
-3.79767 4.23813 -3.00103 0 0 1.5 0.208389 -0.175799 
-3.65845 4.02635 -2.76057 0 0 1.5 0.190538 -0.183477 
-3.522 3.79744 -2.53513 0 0 1.5 0.173547 -0.192546 
-3.38669 3.56147 -2.31588 0 0 1.5 0.157646 -0.202951 
-3.26237 3.30053 -2.11967 0 0 1.5 0.12958 -0.227474 
-3.14445 3.0316 -1.93121 0 0 1.5 0.117495 -0.241799 
-3.03903 2.74728 -1.75769 0 0 1.5 0.106701 -0.256901 
-2.95096 2.45037 -1.59675 0 0 1.5 0.0971588 -0.271863 
-2.87228 2.14745 -1.44174 0 0 1.5 0.0815594 -0.299504 
-2.81639 1.83531 -1.2951 0 0 1.5 0.0753307 -0.31025 
-2.77051 1.52176 -1.14839 0 0 1.5 0.0700111 -0.317046 
-2.73651 1.20655 -1.00162 0 0 1.5 0.065471 -0.319772 
-2.71473 0.893342 -0.848558 0 0 1.5 0.0581655 -0.314269 
-2.6969 0.581076 -0.692947 0 0 1.5 0.0551135 -0.305984 
-2.6869 0.274922 -0.524936 0 0 1.5 0.0522702 -0.295896 
-2.67722 -0.0286479 -0.352464 0 0 1.5 0.0467171 -0.277646 
-2.6683 -0.326157 -0.169525 0 0 1.5 0.0438149 -0.27088 
-2.65689 -0.619051 0.0203901 0 0 1.5 0.0407332 -0.268591 
-2.64309 -0.907529 0.21698 0 0 1.5 0.0374312 -0.274558 
-2.62305 -1.19058 0.420665 0 0 1.5 0.0301608 -0.326836 
-2.60037 -1.47133 0.627363 0 0 1.5 0.0262814 -0.391227 
-2.56852 -1.74769 0.838668 0 0 1.5 0.0223989 -0.507077 
-2.53494 -2.02339 1.05061 0 0 1.5 0.0187869 -0.702137 
-2.49233 -2.29785 1.26253 0 0 1.5 0.0147186 -1.17272 
-2.4483 -2.57287 1.47341 0 0 1.5 0.0157251 -1.06277 
-2.39916 -2.8499 1.68053 0 0 1.5 0.0188178 -0.767757 
-2.34904 -3.12909 1.88442 0 0 1.5 0.0286239 -0.341576 
-2.29736 -3.41171 2.0832 0 0 1.5 0.0344261 -0.231232 
-2.24635 -3.69828 2.27633 0 0 1.5 0.0405236 -0.157185 
-2.19587 -3.988 2.46493 0 0 1.5 0.0468033 -0.104578 
-2.14774 -4.28273 2.64616 0 0 1.5 0.0596223 -0.0370489 
-2.1005 -4.57936 2.82459 0 0 1.5 0.0660503 -0.0142994 
-2.05545 -4.88077 2.99538 0 0 1.5 0.0724337 0.00441829 
-2.01053 -5.18294 3.16488 0 0 1.5 0.0787351 0.0197272 
-1.96403 -5.48775 3.32915 0 0 1.5 0.0909051 0.0423303 
-1.91508 -5.7925 3.49277 0 0 1.5 0.0966758 0.0512243 
-1.85944 -6.09708 3.65462 0 0 1.5 0.10217 0.0588108 
-1.7944 -6.39952 3.81667 0 0 1.5 0.112105 0.0706071 
-1.71972 -6.69978 3.97893 0 0 1.5 0.116429 0.0755234 
-1.62249 -6.99238 4.14265 0 0 1.5 0.120249 0.0799993 
-1.51539 -7.28131 4.30694 0 0 1.5 0.123522 0.0840955 
-1.37322 -7.5541 4.47256 0 0 1.5 0.128293 0.0918423 
-1.21417 -7.81658 4.63783 0 0 1.5 0.129739 0.0957598 
-1.03143 -8.0646 4.80262 0 0 1.5 0.130574 0.0997591 
-0.82079 -8.29049 4.96467 0 0 1.5 0.130832 0.103875 
-0.599234 -8.50728 5.12547 0 0 1.5 0.129781 0.112587 
-0.351098 -8.69737 5.28152 0 0 1.5 0.128596 0.11714 
-0.0962789 -8.87915 5.43595 0 0 1.5 0.127075 0.121744 
0.171868 -9.04432 5.58719 0 0 1.5 0.125297 0.126331 
0.446883 -9.19901 5.73671 0 0 1.5 0.121305 0.134482 
0.727885 -9.34457 5.88472 0 0 1.5 0.119277 0.137476 
1.01423 -9.47977 6.03211 0 0 1.5 0.117334 0.139403 
1.30305 -9.61016 6.17921 0 0 1.5 0.113945 0.139158 
1.5955 -9.73072 6.32743 0 0 1.5 0.112576 0.136571 
1.88887 -9.84878 6.47593 0 0 1.5 0.111448 0.132119 
2.1846 -9.95613 6.6278 0 0 1.5 0.110554 0.125936 
2.4806 -10.0621 6.78011 0 0 1.5 0.109335 0.109146 
2.77821 -10.1545 6.9381 0 0 1.5 0.108908 0.0986691 
3.07596 -10.2442 7.09716 0 0 1.5 0.108519 0.0873278 
3.37454 -10.3189 7.26249 0 0 1.5 0.108088 0.0756292 
3.67315 -10.3865 7.43041 0 0 1.5 0.106789 0.0512513 
3.97185 -10.4386 7.60396 0 0 1.5 0.105771 0.0389865 
4.26982 -10.4766 7.78181 0 0 1.5 0.104417 0.0272229 
4.56712 -10.5017 7.96356 0 0 1.5 0.10049 0.00462798 
4.86177 -10.5047 8.15084 0 0 1.5 0.0978405 -0.00614841 
5.15545 -10.5001 8.33995 0 0 1.5 0.094712 -0.016257 
5.44394 -10.468 8.53439 0 0 1.5 0.091106 -0.0258828 
5.73066 -10.429 8.72984 0 0 1.5 0.0825192 -0.0442978 
6.01319 -10.3735 8.92772 0 0 1.5 0.0775924 -0.0530539 
6.29304 -10.3085 9.12631 0 0 1.5 0.0722922 -0.0617383 
6.57088 -10.2363 9.32543 0 0 1.5 0.0666583 -0.0706695 
6.84717 -10.1563 9.52369 0 0 1.5 0.0545622 -0.0910863 
7.12343 -10.0746 9.72133 0 0 1.5 0.0481941 -0.104233 
7.40127 -9.99099 9.91596 0 0 1.5 0.041671 -0.121685 
7.68119 -9.90869 10.1081 0 0 1.5 0.0283508 -0.194675 
7.96381 -9.82804 10.297 0 0 1.5 0.0217172 -0.288635 
8.25113 -9.75147 10.4803 0 0 1.5 0.0153967 -0.515298 
8.54042 -9.67663 10.6613 0 0 1.5 0.0103022 -1.0922 
8.83496 -9.60651 10.8356 0 0 1.5 0.0136086 -0.699073 
9.13088 -9.53737 11.008 0 0 1.5 0.020348 -0.363801 
9.42894 -9.46976 11.1772 0 0 1.5 0.0280357 -0.231445 
9.72748 -9.40189 11.3455 0 0 1.5 0.0362981 -0.169513 
10.0262 -9.3339 11.5134 0 0 1.5 0.0542599 -0.11625 
10.3231 -9.26417 11.6838 0 0 1.5 0.0639836 -0.103234 
10.6191 -9.19436 11.8558 0 0 1.5 0.0742417 -0.094069 
10.9125 -9.1244 12.0321 0 0 1.5 0.0850668 -0.0875181 
11.2041 -9.05684 12.2123 0 0 1.5 0.108562 -0.0795455 
11.4937 -8.99176 12.3965 0 0 1.5 0.121283 -0.0772011 
11.781 -8.93587 12.5872 0 0 1.5 0.134657 -0.0757466 
12.0673 -8.8837 12.7804 0 0 1.5 0.163231 -0.0752031 
12.3508 -8.85299 12.9822 0 0 1.5 0.178275 -0.0758884 
12.6333 -8.8295 13.186 0 0 1.5 0.193629 -0.0772174 
12.9116 -8.8351 13.3971 0 0 1.5 0.209068 -0.0792358 
13.1853 -8.86057 13.6114 0 0 1.5 0.238994 -0.0846276 
13.4531 -8.91245 13.8297 0 0 1.5 0.252739 -0.0878554 
13.7054 -9.00604 14.0509 0 0 1.5 0.265074 -0.0915037 
13.9485 -9.12075 14.2731 0 0 1.5 0.275522 -0.0953702 
14.1611 -9.28814 14.494 0 0 1.5 0.28915 -0.103001 
14.3487 -9.48425 14.711 0 0 1.5 0.291704 -0.106814 
14.5132 -9.70676 14.9242 0 0 1.5 0.291193 -0.110472 
14.6257 -9.96821 15.126 0 0 1.5 0.281395 -0.116675 
14.7172 -10.2403 15.3229 0 0 1.5 0.272631 -0.119321 
14.7684 -10.5304 15.5107 0 0 1.5 0.261785 -0.121721 
14.7882 -10.8266 15.6931 0 0 1.5 0.249337 -0.123832 
14.7875 -11.1268 15.8718 0 0 1.5 0.221483 -0.127283 
14.7481 -11.4248 16.0491 0 0 1.5 0.20687 -0.128937 
14.6993 -11.7215 16.2267 0 0 1.5 0.192251 -0.130844 
14.6147 -12.0057 16.4115 0 0 1.5 0.177887 -0.132932 
14.5203 -12.2824 16.6016 0 0 1.5 0.150623 -0.13771 
14.4018 -12.5408 16.8046 0 0 1.5 0.137935 -0.141127 
14.2677 -12.7766 17.0228 0 0 1.5 0.125958 -0.145241 
14.12 -12.9927 17.2543 0 0 1.5 0.114712 -0.149883 
13.9724 -13.2088 17.4857 0 0 1.5 0.0944052 -0.162627 
13.8248 -13.4248 17.7172 0 0 1.5 0.0853163 -0.171195 
13.6771 -13.6409 17.9486 0 0 1.5 0.0769142 -0.18098 
13.5295 -13.857 18.1801 0 0 1.5 0.0620762 -0.206773 
13.3818 -14.0731 18.4115 0 0 1.5 0.0555933 -0.223611 
13.2342 -14.2892 18.643 0 0 1.5 0.0497159 -0.242702 
13.0866 -14.5053 18.8744 0 0 1.5 0.0444331 -0.264338 
12.9389 -14.7214 19.1059 0 0 1.5 0.0355873 -0.315775 
12.7913 -14.9374 19.3373 0 0 1.5 0.0320048 -0.342548 
12.6436 -15.1535 19.5688 0 0 1.5 0.0289655 -0.367628 
12.496 -15.3696 19.8002 0 0 1.5 0.0264393 -0.389488 
12.3484 -15.5857 20.0317 0 0 1.5 0.0227626 -0.411617 
12.2007 -15.8018 20.2631 0 0 1.5 0.0214992 -0.408925 
12.0531 -16.0179 20.4946 0 0 1.5 0.0205198 -0.399144 
11.9055 -16.2339 20.726 0 0 1.5 0.0191131 -0.364576 
11.7578 -16.45 20.9575 0 0 1.5 0.0185532 -0.344434 
11.6102 -16.6661 21.1889 0 0 1.5 0.018016 -0.326245 
11.4625 -16.8822 21.4204 0 0 1.5 0.0174656 -0.310553 
11.3149 -17.0983 21.6518 0 0 1.5 0.0162492 -0.28667 
11.1673 -17.3144 21.8833 0 0 1.5 0.0155641 -0.2798 
11.0196 -17.5305 22.1147 0 0 1.5 0.0148258 -0.276115 
10.872 -17.7465 22.3461 0 0 1.5 0.0140415 -0.274884 
10.7244 -17.9626 22.5776 0 0 1.5 0.0123772 -0.28202 
10.5767 -18.1787 22.809 0 0 1.5 0.011523 -0.290696 
10.4291 -18.3948 23.0405 0 0 1.5 0.010676 -0.301556 
10.2814 -18.6109 23.2719 0 0 1.5 0.00906584 -0.331216 
10.1338 -18.827 23.5034 0 0 1.5 0.00832738 -0.349573 
9.98616 -19.043 23.7348 0 0 1.5 0.00764983 -0.367677 
9.83852 -19.2591 23.9663 0 0 1.5 0.00704246 -0.384504 
9.69088 -19.4752 24.1977 0 0 1.5 0.0060501 -0.410541 
9.54325 -19.6913 24.4292 0 0 1.5 0.00566479 -0.414274 
9.39561 -19.9074 24.6606 0 0 1.5 0.00534681 -0.410833 
9.24797 -20.1235 24.8921 0 0 1.5 0.00508575 -0.402018 
9.10033 -20.3395 25.1235 0 0 1.5 0.00468925 -0.36973 
8.95269 -20.5556 25.355 0 0 1.5 0.00453092 -0.34949 
8.80505 -20.7717 25.5864 0 0 1.5 0.00438492 -0.330237 
8.65742 -20.9878 25.8179 0 0 1.5 0.00424347 -0.312391 
8.50978 -21.2039 26.0493 0 0 1.5 0.00395372 -0.281879 
8.36214 -21.42 26.2808 0 0 1.5 0.0037991 -0.27176 
8.2145 -21.6361 26.5122 0 0 1.5 0.00363682 -0.264996 
8.06686 -21.8521 26.7437 0 0 1.5 0.00329486 -0.25948 
7.91923 -22.0682 26.9751 0 0 1.5 0.00311894 -0.26145 
7.77159 -22.2843 27.2066 0 0 1.5 0.00294289 -0.266166 
7.62395 -22.5004 27.438 0 0 1.5 0.00276986 -0.272719 
7.47631 -22.7165 27.6695 0 0 1.5 0.00244548 -0.291622 
7.32867 -22.9326 27.9009 0 0 1.5 0.00230008 -0.302707 
7.18103 -23.1486 28.1324 0 0 1.5 0.00217008 -0.312224 
7.0334 -23.3647 28.3638 0 0 1.5 0.00205797 -0.318886 
6.88576 -23.5808 28.5952 0 0 1.5 0.00189065 -0.319907 
6.73812 -23.7969 28.8267 0 0 1.5 0.00183548 -0.311019 
6.59048 -24.013 29.0581 0 0 1.5 0.001798 -0.295948 
6.44284 -24.2291 29.2896 0 0 1.5 0.00176589 -0.253809 
6.2952 -24.4452 29.521 0 0 1.5 0.00176605 -0.228659 
6.14757 -24.6612 29.7525 0 0 1.5 0.00177378 -0.202967 
5.99993 -24.8773 29.9839 0 0 1.5 0.00178658 -0.178541 
5.85229 -25.0934 30.2154 0 0 1.5 0.00182021 -0.134956 
5.70465 -25.3095 30.4468 0 0 1.5 0.00183884 -0.116364 
5.55701 -25.5256 30.6783 0 0 1.5 0.00185754 -0.100467 
5.40937 -25.7417 30.9097 0 0 1.5 0.00187583 -0.087129 
5.26174 -25.9577 31.1412 0 0 1.5 0.00191083 -0.067459 
5.1141 -26.1738 31.3726 0 0 1.5 0.00192769 -0.0608744 
4.96646 -26.3899 31.6041 0 0 1.5 0.00194433 -0.056305 
0 1 0 
1 2 0 
2 3 0 
3 4 0 
4 5 0 
5 6 0 
6 7 0 
7 8 0 
8 9 0 
9 10 0 
10 11 0 
11 12 0 
12 13 0 
13 14 0 
14 15 0 
15 16 0 
16 17 0 
17 18 0 
18 19 0 
19 20 0 
20 21 0 
21 22 0 
22 23 0 
23 24 0 
24 25 0 
25 26 0 
26 27 0 
27 28 0 
28 29 0 
29 30 0 
30 31 0 
31 32 0 
32 33 0 
33 34 0 
34 35 0 
35 36 0 
36 37 0 
37 38 0 
38 39 0 
39 40 0 
40 41 0 
41 42 0 
42 43 0 
43 44 0 
44 45 0 
45 46 0 
46 47 0 
47 48 0 
48 49 0 
49 50 0 
50 51 0 
51 52 0 
52 53 0 
53 54 0 
54 55 0 
55 56 0 
56 57 0 
57 58 0 
58 59 0 
59 60 0 
60 61 0 
61 62 0 
62 63 0 
63 64 0 
64 65 0 
65 66 0 
66 67 0 
67 68 0 
68 69 0 
69 70 0 
70 71 0 
71 72 0 
72 73 0 
73 74 0 
74 75 0 
75 76 0 
76 77 0 
77 78 0 
78 79 0 
79 80 0 
80 81 0 
81 82 0 
82 83 0 
83 84 0 
84 85 0 
85 86 0 
86 87 0 
87 88 0 
88 89 0 
89 90 0 
90 91 0 
91 92 0 
92 93 0 
93 94 0 
94 95 0 
95 96 0 
96 97 0 
97 98 0 
98 99 0 
99 100 0 
100 101 0 
101 102 0 
102 103 0 
103 104 0 
104 105 0 
105 106 0 
106 107 0 
107 108 0 
108 109 0 
109 110 0 
110 111 0 
111 112 0 
112 113 0 
113 114 0 
114 115 0 
115 116 0 
116 117 0 
117 118 0 
118 119 0 
119 120 0 
120 121 0 
121 122 0 
122 123 0 
123 124 0 
124 125 0 
125 126 0 
126 127 0 
127 128 0 
128 129 0 
129 130 0 
130 131 0 
131 132 0 
132 133 0 
133 134 0 
134 135 0 
135 136 0 
136 137 0 
137 138 0 
138 139 0 
139 140 0 
140 141 0 
141 142 0 
142 143 0 
143 144 0 
144 145 0 
145 146 0 
146 147 0 
147 148 0 
148 149 0 
149 150 0 
150 151 0 
151 152 0 
152 153 0 
153 154 0 
154 155 0 
155 156 0 
156 157 0 
157 158 0 
158 159 0 
159 160 0 
160 161 0 
161 162 0 
162 163 0 
163 164 0 
164 165 0 
165 166 0 
166 167 0 
167 168 0 
168 169 0 
169 170 0 
170 171 0 
171 172 0 
172 173 0 
173 174 0 
174 175 0 
175 176 0 
176 177 0 
177 178 0 
178 179 0 
179 180 0 
180 181 0 
181 182 0 
182 183 0 
183 184 0 
184 185 0 
185 186 0 
186 187 0 
187 188 0 
188 189 0 
189 190 0 
190 191 0 
191 192 0 
192 193 0 
193 194 0 
194 195 0 
195 196 0 
196 197 0 
197 198 0 
198 199 0 
199 200 0 
200 201 0 
201 202 0 
202 203 0 
203 204 0 
204 205 0 
205 206 0 
206 207 0 
207 208 0 
208 209 0 
209 210 0 
210 211 0 
211 212 0 
212 213 0 
213 214 0 
214 215 0 
215 216 0 
216 217 0 
217 218 0 
218 219 0 
219 220 0 
220 221 0 
221 222 0 
222 223 0 
223 224 0 
224 225 0 
225 226 0 
226 227 0 
227 228 0 
228 229 0 
229 230 0 
230 231 0 
231 232 0 
232 233 0 
233 234 0 
234 235 0 
235 236 0 
236 237 0 
237 238 0 
238 239 0 
239 240 0 
240 241 0 
241 242 0 
242 243 0 
243 244 0 
244 245 0 
245 246 0 
246 247 0 
247 248 0 
248 249 0 
249 250 0 
250 251 0 
251 252 0 
252 253 0 
253 254 0 
254 255 0 
255 256 0 
256 257 0 
257 258 0 
258 259 0 
259 260 0 
260 261 0 
261 262 0 
262 263 0 
263 264 0 
264 265 0 
265 266 0 
266 267 0 
267 268 0 
268 269 0 
269 270 0 
270 271 0 
271 272 0 
272 273 0 
273 274 0 
274 275 0 
275 276 0 
276 277 0 
277 278 0 
278 279 0 
279 280 0 
280 281 0 
281 282 0 
282 283 0 
283 284 0 
284 285 0 
285 286 0 
286 287 0 
287 288 0 
288 289 0 
289 290 0 
290 291 0 
291 292 0 
292 293 0 
293 294 0 
294 295 0 
295 296 0 
296 297 0 
297 298 0 
298 299 0 
-1 -1 0 
-1 300 0 1 2 3 4 5 6 7 8 9 10 11 12 13 14 15 16 17 18 19 20 21 22 23 24 25 26 27 28 29 30 31 32 33 34 35 36 37 38 39 40 41 42 43 44 45 46 47 48 49 50 51 52 53 54 55 56 57 58 59 60 61 62 63 64 65 66 67 68 69 70 71 72 73 74 75 76 77 78 79 80 81 82 83 84 85 86 87 88 89 90 91 92 93 94 95 96 97 98 99 100 101 102 103 104 105 106 107 108 109 110 111 112 113 114 115 116 117 118 119 120 121 122 123 124 125 126 127 128 129 130 131 132 133 134 135 136 137 138 139 140 141 142 143 144 145 146 147 148 149 150 151 152 153 154 155 156 157 158 159 160 161 162 163 164 165 166 167 168 169 170 171 172 173 174 175 176 177 178 179 180 181 182 183 184 185 186 187 188 189 190 191 192 193 194 195 196 197 198 199 200 201 202 203 204 205 206 207 208 209 210 211 212 213 214 215 216 217 218 219 220 221 222 223 224 225 226 227 228 229 230 231 232 233 234 235 236 237 238 239 240 241 242 243 244 245 246 247 248 249 250 251 252 253 254 255 256 257 258 259 260 261 262 263 264 265 266 267 268 269 270 271 272 273 274 275 276 277 278 279 280 281 282 283 284 285 286 287 288 289 290 291 292 293 294 295 296 297 298 299 
