ply
format ascii 1.0
comment written by koba@oshima.lab
element vertex 300
property float x
property float y
property float z
property int label
property int attribute
property float radius
property float curvature
property float torsion
element edge 300
property int vertex1
property int vertex2
property int label
element vertex_seq 1
property int label
property list int int vertex_indices
end_header
6.38696 23.1372 -7.1378 0 0 1.5 0.0610653 0.0085075 
6.17643 22.8781 -7.22328 0 0 1.5 0.0589524 0.00896746 
5.9659 22.6189 -7.30876 0 0 1.5 0.0568414 0.00958855 
5.75537 22.3598 -7.39424 0 0 1.5 0.0547172 0.0104003 
5.54484 22.1007 -7.47972 0 0 1.5 0.0503707 0.0127495 
5.33432 21.8416 -7.5652 0 0 1.5 0.0481167 0.0143855 
5.12379 21.5825 -7.65068 0 0 1.5 0.0457864 0.0164459 
4.91326 21.3234 -7.73616 0 0 1.5 0.0433635 0.0190692 
4.70273 21.0642 -7.82165 0 0 1.5 0.0381712 0.0267215 
4.4922 20.8051 -7.90713 0 0 1.5 0.0353643 0.0324739 
4.28167 20.546 -7.99261 0 0 1.5 0.0323918 0.0404488 
4.07114 20.2869 -8.07809 0 0 1.5 0.0292355 0.0518787 
3.86061 20.0278 -8.16357 0 0 1.5 0.0223087 0.0971748 
3.65009 19.7687 -8.24905 0 0 1.5 0.018512 0.147908 
3.43956 19.5095 -8.33453 0 0 1.5 0.014491 0.25353 
3.22903 19.2504 -8.42001 0 0 1.5 0.00618868 1.54755 
3.0185 18.9913 -8.5055 0 0 1.5 0.00393651 4.07393 
2.80797 18.7322 -8.59098 0 0 1.5 0.00691284 1.41632 
2.59744 18.4731 -8.67646 0 0 1.5 0.012111 0.498018 
2.38691 18.214 -8.76194 0 0 1.5 0.0244211 0.146883 
2.17638 17.9549 -8.84742 0 0 1.5 0.0312566 0.0996757 
1.96586 17.6957 -8.9329 0 0 1.5 0.038501 0.0736459 
1.75533 17.4366 -9.01838 0 0 1.5 0.0461331 0.0580604 
1.5448 17.1775 -9.10386 0 0 1.5 0.0624873 0.041747 
1.33427 16.9184 -9.18935 0 0 1.5 0.0711347 0.0374171 
1.12374 16.6593 -9.27483 0 0 1.5 0.0800106 0.0346059 
0.913213 16.4002 -9.36031 0 0 1.5 0.0980972 0.0320641 
0.702684 16.141 -9.44579 0 0 1.5 0.107056 0.0317996 
0.492155 15.8819 -9.53127 0 0 1.5 0.115733 0.03213 
0.281627 15.6228 -9.61675 0 0 1.5 0.123922 0.0330743 
0.0710979 15.3637 -9.70223 0 0 1.5 0.137904 0.036547 
-0.139431 15.1046 -9.78771 0 0 1.5 0.143193 0.0391937 
-0.34996 14.8455 -9.8732 0 0 1.5 0.147004 0.0426951 
-0.560488 14.5863 -9.95868 0 0 1.5 0.149101 0.0471256 
-0.771017 14.3272 -10.0442 0 0 1.5 0.147511 0.0596739 
-0.981546 14.0681 -10.1296 0 0 1.5 0.14362 0.0690053 
-1.19207 13.809 -10.2151 0 0 1.5 0.137623 0.0814007 
-1.41587 13.5594 -10.2629 0 0 1.5 0.129622 0.0980874 
-1.67208 13.3332 -10.2187 0 0 1.5 0.108236 0.156859 
-1.93009 13.1475 -10.0993 0 0 1.5 0.0952542 0.212019 
-2.18765 12.9841 -9.94014 0 0 1.5 0.0811843 0.303857 
-2.42738 12.8664 -9.72231 0 0 1.5 0.0523253 0.793207 
-2.66043 12.7582 -9.49363 0 0 1.5 0.0407328 1.37156 
-2.88138 12.6672 -9.2453 0 0 1.5 0.0365523 1.79609 
-3.09533 12.5803 -8.98966 0 0 1.5 0.0437109 1.33783 
-3.30409 12.4965 -8.72858 0 0 1.5 0.0796834 0.476495 
-3.50905 12.405 -8.46711 0 0 1.5 0.102612 0.320299 
-3.7137 12.3072 -8.20787 0 0 1.5 0.127364 0.235919 
-3.92126 12.1875 -7.96014 0 0 1.5 0.153459 0.187758 
-4.13763 12.0353 -7.74097 0 0 1.5 0.208028 0.14204 
-4.36495 11.8412 -7.57766 0 0 1.5 0.235511 0.132101 
-4.59734 11.6025 -7.52337 0 0 1.5 0.262186 0.127151 
-4.81418 11.3524 -7.59789 0 0 1.5 0.309372 0.125935 
-5.00901 11.1188 -7.7557 0 0 1.5 0.327873 0.127926 
-5.18922 10.9026 -7.95428 0 0 1.5 0.341686 0.131138 
-5.35856 10.704 -8.17942 0 0 1.5 0.350097 0.134789 
-5.52533 10.5098 -8.41004 0 0 1.5 0.35 0.141238 
-5.68996 10.3191 -8.64523 0 0 1.5 0.342118 0.144072 
-5.85211 10.1261 -8.88017 0 0 1.5 0.329976 0.146484 
-6.01343 9.93179 -9.11468 0 0 1.5 0.314572 0.148346 
-6.16905 9.72631 -9.34343 0 0 1.5 0.277987 0.151506 
-6.32101 9.51586 -9.56986 0 0 1.5 0.258548 0.15336 
-6.46279 9.29159 -9.7898 0 0 1.5 0.239267 0.155688 
-6.59148 9.05618 -10.0054 0 0 1.5 0.202972 0.162616 
-6.70745 8.80994 -10.2168 0 0 1.5 0.186503 0.167727 
-6.79065 8.54777 -10.4237 0 0 1.5 0.171355 0.174305 
-6.85645 8.28008 -10.6295 0 0 1.5 0.157609 0.182509 
-6.87993 8.00414 -10.8346 0 0 1.5 0.134538 0.204079 
-6.86943 7.73027 -11.0417 0 0 1.5 0.125379 0.216906 
-6.83623 7.45778 -11.25 0 0 1.5 0.117984 0.229886 
-6.75319 7.20007 -11.4632 0 0 1.5 0.112529 0.241436 
-6.65807 6.9483 -11.6775 0 0 1.5 0.108325 0.25158 
-6.5367 6.70968 -11.8946 0 0 1.5 0.110075 0.246492 
-6.40255 6.47891 -12.1121 0 0 1.5 0.11468 0.234463 
-6.2564 6.25551 -12.33 0 0 1.5 0.122312 0.217218 
-6.10088 6.03639 -12.5457 0 0 1.5 0.1474 0.176644 
-5.93968 5.81987 -12.7599 0 0 1.5 0.165353 0.157394 
-5.77285 5.6011 -12.9674 0 0 1.5 0.187431 0.140375 
-5.6031 5.38116 -13.1713 0 0 1.5 0.246575 0.113788 
-5.43058 5.15157 -13.3614 0 0 1.5 0.285492 0.103769 
-5.25678 4.91754 -13.5453 0 0 1.5 0.332296 0.0956712 
-5.0833 4.66518 -13.7024 0 0 1.5 0.38857 0.0892637 
-4.90991 4.40744 -13.8516 0 0 1.5 0.536477 0.0796651 
-4.74352 4.12079 -13.9458 0 0 1.5 0.630893 0.0758363 
-4.58413 3.82476 -14.0083 0 0 1.5 0.738898 0.0723768 
-4.43627 3.51364 -14.0189 0 0 1.5 0.856879 0.0686132 
-4.32081 3.20283 -13.9294 0 0 1.5 1.08073 0.0575328 
-4.23792 2.91826 -13.7651 0 0 1.5 1.15158 0.0497887 
-4.19145 2.67728 -13.5306 0 0 1.5 1.1713 0.0407297 
-4.17987 2.49104 -13.2409 0 0 1.5 1.04876 0.0219598 
-4.2099 2.39893 -12.9102 0 0 1.5 0.93442 0.0143418 
-4.25583 2.35631 -12.5744 0 0 1.5 0.81041 0.00840282 
-4.31378 2.35116 -12.2347 0 0 1.5 0.690653 0.00400946 
-4.38795 2.41523 -11.9043 0 0 1.5 0.488821 -0.00132155 
-4.46466 2.49414 -11.5787 0 0 1.5 0.409188 -0.00282853 
-4.54752 2.60938 -11.2646 0 0 1.5 0.342156 -0.00384205 
-4.63241 2.74035 -10.9579 0 0 1.5 0.285801 -0.00456453 
-4.7196 2.88908 -10.6595 0 0 1.5 0.197896 -0.00565904 
-4.80829 3.0487 -10.3674 0 0 1.5 0.163309 -0.00613438 
-4.89797 3.2156 -10.0795 0 0 1.5 0.133363 -0.00671603 
-4.98914 3.38563 -9.79398 0 0 1.5 0.0839225 -0.00914827 
-5.08087 3.55683 -9.50929 0 0 1.5 0.0631798 -0.0120801 
-5.17426 3.72015 -9.22055 0 0 1.5 0.0446188 -0.0190362 
-5.26792 3.8795 -8.92981 0 0 1.5 0.0284712 -0.0403282 
-5.36215 4.02169 -8.63035 0 0 1.5 0.0187426 -0.101984 
-5.45531 4.15042 -8.32493 0 0 1.5 0.0301918 -0.0489364 
-5.54729 4.26437 -8.01296 0 0 1.5 0.0441138 -0.0303526 
-5.6337 4.35246 -7.6914 0 0 1.5 0.0586862 -0.0234107 
-5.71656 4.42958 -7.36615 0 0 1.5 0.0885905 -0.019577 
-5.79087 4.48541 -7.03429 0 0 1.5 0.103813 -0.0194481 
-5.85642 4.52773 -6.69889 0 0 1.5 0.119174 -0.0199415 
-5.91589 4.56068 -6.36103 0 0 1.5 0.134587 -0.0209438 
-5.95915 4.57528 -6.01952 0 0 1.5 0.164963 -0.0238452 
-5.99674 4.58384 -5.67725 0 0 1.5 0.179504 -0.0256408 
-6.01883 4.57628 -5.33341 0 0 1.5 0.193216 -0.0276951 
-6.03044 4.55659 -4.98992 0 0 1.5 0.216675 -0.032149 
-6.0313 4.52444 -4.64679 0 0 1.5 0.225679 -0.0344185 
-6.0153 4.46838 -4.30751 0 0 1.5 0.232399 -0.036701 
-5.99298 4.40282 -3.97009 0 0 1.5 0.23657 -0.0389053 
-5.9512 4.30193 -3.64321 0 0 1.5 0.236848 -0.0427035 
-5.90293 4.18519 -3.32347 0 0 1.5 0.233062 -0.0442225 
-5.84384 4.04204 -3.01559 0 0 1.5 0.226931 -0.0454579 
-5.77688 3.86957 -2.72577 0 0 1.5 0.218791 -0.0463798 
-5.70644 3.684 -2.44407 0 0 1.5 0.198049 -0.0470871 
-5.63185 3.4615 -2.19168 0 0 1.5 0.186238 -0.0469027 
-5.55786 3.23057 -1.94749 0 0 1.5 0.173951 -0.0464643 
-5.4853 2.97906 -1.72334 0 0 1.5 0.149129 -0.0443714 
-5.41585 2.7167 -1.5115 0 0 1.5 0.13704 -0.0425494 
-5.34913 2.44483 -1.31049 0 0 1.5 0.125369 -0.0401587 
-5.28734 2.16367 -1.12126 0 0 1.5 0.114216 -0.0369195 
-5.22735 1.87913 -0.936308 0 0 1.5 0.0936999 -0.026485 
-5.17182 1.58858 -0.759512 0 0 1.5 0.0843903 -0.018749 
-5.11683 1.29727 -0.583776 0 0 1.5 0.0757192 -0.00847149 
-5.06285 1.00401 -0.410984 0 0 1.5 0.0676861 0.00539474 
-5.00797 0.711038 -0.238006 0 0 1.5 0.0535014 0.048617 
-4.95002 0.419034 -0.0643826 0 0 1.5 0.0473207 0.081584 
-4.88856 0.128402 0.110268 0 0 1.5 0.0417507 0.125544 
-4.82181 -0.160162 0.286466 0 0 1.5 0.0368157 0.183141 
-4.7479 -0.446051 0.464042 0 0 1.5 0.0290218 0.343353 
-4.66904 -0.730095 0.642569 0 0 1.5 0.0263337 0.435395 
-4.57995 -1.01067 0.821677 0 0 1.5 0.0246046 0.512462 
-4.48821 -1.29035 1.00093 0 0 1.5 0.0242734 0.536656 
-4.38555 -1.56709 1.17884 0 0 1.5 0.0255936 0.480561 
-4.28141 -1.84365 1.35611 0 0 1.5 0.0277283 0.404986 
-4.17145 -2.11957 1.53089 0 0 1.5 0.0305128 0.329758 
-4.06023 -2.39605 1.70396 0 0 1.5 0.0375096 0.212397 
-3.94703 -2.6734 1.87434 0 0 1.5 0.0415459 0.171939 
-3.83374 -2.95237 2.042 0 0 1.5 0.0458607 0.141381 
-3.72039 -3.23262 2.20747 0 0 1.5 0.0504133 0.11876 
-3.6076 -3.51521 2.36927 0 0 1.5 0.060122 0.0905382 
-3.49503 -3.79878 2.52955 0 0 1.5 0.0652303 0.0821048 
-3.38165 -4.08435 2.68563 0 0 1.5 0.070476 0.076392 
-3.26814 -4.37027 2.84098 0 0 1.5 0.0812965 0.0708436 
-3.14911 -4.65645 2.99166 0 0 1.5 0.0868232 0.0697206 
-3.02806 -4.9421 3.14164 0 0 1.5 0.0923879 0.0694342 
-2.89649 -5.225 3.28802 0 0 1.5 0.0979593 0.0699215 
-2.75759 -5.50492 3.43295 0 0 1.5 0.10899 0.0716824 
-2.60535 -5.7794 3.57527 0 0 1.5 0.114373 0.0727047 
-2.43662 -6.04488 3.71516 0 0 1.5 0.119611 0.0739049 
-2.25628 -6.30402 3.85334 0 0 1.5 0.124658 0.075048 
-2.04832 -6.54314 3.98806 0 0 1.5 0.134008 0.0765861 
-1.83103 -6.77435 4.12168 0 0 1.5 0.138212 0.0771224 
-1.58737 -6.98008 4.25235 0 0 1.5 0.142034 0.0774045 
-1.33223 -7.17068 4.38235 0 0 1.5 0.148365 0.0768283 
-1.06292 -7.34261 4.51152 0 0 1.5 0.150787 0.0760399 
-0.780532 -7.4901 4.64181 0 0 1.5 0.152657 0.0749154 
-0.493096 -7.62816 4.77254 0 0 1.5 0.153946 0.0734144 
-0.195092 -7.73568 4.90805 0 0 1.5 0.154688 0.0692689 
0.104211 -7.83698 5.04513 0 0 1.5 0.1541 0.0667448 
0.407789 -7.91423 5.18881 0 0 1.5 0.152868 0.0640587 
0.711728 -7.98175 5.33593 0 0 1.5 0.151 0.0611742 
1.01631 -8.03204 5.48913 0 0 1.5 0.145405 0.0548382 
1.32003 -8.06874 5.64724 0 0 1.5 0.141719 0.0516541 
1.623 -8.09362 5.8096 0 0 1.5 0.137478 0.0484639 
1.92392 -8.10145 5.97699 0 0 1.5 0.132712 0.0452247 
2.224 -8.10222 6.14647 0 0 1.5 0.12175 0.0394844 
2.52139 -8.08294 6.31939 0 0 1.5 0.115648 0.0371983 
2.81826 -8.05971 6.49281 0 0 1.5 0.109193 0.0352911 
3.11268 -8.01683 6.66673 0 0 1.5 0.0954064 0.0336805 
3.40661 -7.96947 6.84013 0 0 1.5 0.0881649 0.0344946 
3.699 -7.90818 7.01195 0 0 1.5 0.0807467 0.0367664 
3.99072 -7.84037 7.18228 0 0 1.5 0.0731891 0.0411654 
4.28154 -7.76386 7.35063 0 0 1.5 0.057806 0.0612924 
4.57145 -7.68022 7.51703 0 0 1.5 0.0500521 0.081788 
4.86079 -7.59209 7.68221 0 0 1.5 0.0423062 0.116334 
5.14906 -7.49787 7.84587 0 0 1.5 0.0346185 0.178041 
5.43705 -7.40207 8.00913 0 0 1.5 0.0198341 0.570092 
5.72382 -7.30284 8.17248 0 0 1.5 0.0134112 1.26483 
6.01043 -7.2036 8.33612 0 0 1.5 0.00954668 2.4973 
6.29624 -7.10496 8.50151 0 0 1.5 0.0167703 0.761748 
6.58191 -7.00781 8.66799 0 0 1.5 0.023575 0.357414 
6.86729 -6.91392 8.83686 0 0 1.5 0.0307694 0.185878 
7.15276 -6.82419 9.00775 0 0 1.5 0.0381 0.0998736 
7.43833 -6.73889 9.18078 0 0 1.5 0.0528446 0.0187548 
7.72432 -6.66147 9.35672 0 0 1.5 0.0601913 -0.00305847 
8.01051 -6.58814 9.53416 0 0 1.5 0.0674965 -0.0193653 
8.29719 -6.52721 9.71537 0 0 1.5 0.0747479 -0.0324624 
8.58396 -6.46917 9.89747 0 0 1.5 0.0890513 -0.052361 
8.87054 -6.42728 10.0842 0 0 1.5 0.096083 -0.0603878 
9.15669 -6.38955 10.2724 0 0 1.5 0.103018 -0.0678124 
9.44144 -6.36535 10.465 0 0 1.5 0.116536 -0.0808611 
9.72424 -6.34961 10.6611 0 0 1.5 0.123078 -0.0867134 
10.0047 -6.34397 10.8613 0 0 1.5 0.129438 -0.0923921 
10.2803 -6.35171 11.0678 0 0 1.5 0.135581 -0.0977727 
10.5537 -6.36529 11.2772 0 0 1.5 0.147056 -0.107395 
10.8172 -6.39852 11.4968 0 0 1.5 0.152284 -0.111903 
11.077 -6.43806 11.7193 0 0 1.5 0.157092 -0.116128 
11.3268 -6.49452 11.9499 0 0 1.5 0.161416 -0.119933 
11.5678 -6.56455 12.1857 0 0 1.5 0.168326 -0.126709 
11.8013 -6.64573 12.4258 0 0 1.5 0.170758 -0.129721 
12.0183 -6.75008 12.6721 0 0 1.5 0.172423 -0.132354 
12.2285 -6.86329 12.9203 0 0 1.5 0.173262 -0.134693 
12.4205 -6.99871 13.1724 0 0 1.5 0.172261 -0.138862 
12.599 -7.14772 13.426 0 0 1.5 0.170363 -0.140739 
12.765 -7.30943 13.6812 0 0 1.5 0.167528 -0.142575 
12.9062 -7.49019 13.938 0 0 1.5 0.159099 -0.146686 
13.0381 -7.67707 14.1954 0 0 1.5 0.153577 -0.149217 
13.142 -7.87878 14.4548 0 0 1.5 0.147264 -0.152268 
13.2316 -8.08456 14.7158 0 0 1.5 0.140222 -0.156094 
13.3014 -8.29592 14.9789 0 0 1.5 0.12424 -0.168172 
13.3469 -8.50782 15.2463 0 0 1.5 0.115496 -0.177482 
13.3819 -8.71995 15.5157 0 0 1.5 0.10637 -0.189971 
13.3833 -8.9232 15.7939 0 0 1.5 0.0969451 -0.207396 
13.3748 -9.12092 16.0755 0 0 1.5 0.0776303 -0.267791 
13.3423 -9.30456 16.3653 0 0 1.5 0.0679683 -0.319617 
13.2922 -9.4711 16.6621 0 0 1.5 0.058483 -0.398063 
13.2302 -9.62625 16.9635 0 0 1.5 0.0410452 -0.709489 
13.1464 -9.74906 17.2744 0 0 1.5 0.0339913 -0.985207 
13.0574 -9.85914 17.5881 0 0 1.5 0.0291108 -1.29445 
12.9605 -9.94839 17.9066 0 0 1.5 0.027433 -1.42041 
12.865 -10.0193 18.2299 0 0 1.5 0.0338092 -0.909274 
12.7747 -10.0829 18.5562 0 0 1.5 0.0397995 -0.6524 
12.6987 -10.1403 18.8874 0 0 1.5 0.0463869 -0.478997 
12.6568 -10.2075 19.2223 0 0 1.5 0.0530447 -0.365201 
12.6533 -10.2919 19.5541 0 0 1.5 0.0653321 -0.236643 
12.6988 -10.401 19.8763 0 0 1.5 0.070581 -0.199738 
12.8249 -10.5538 20.1583 0 0 1.5 0.0750717 -0.172676 
12.951 -10.7065 20.4403 0 0 1.5 0.0787096 -0.152117 
13.0771 -10.8593 20.7223 0 0 1.5 0.0831899 -0.124591 
13.2032 -11.0121 21.0043 0 0 1.5 0.0840159 -0.115305 
13.3293 -11.1648 21.2864 0 0 1.5 0.083916 -0.107811 
13.4555 -11.3176 21.5684 0 0 1.5 0.0811135 -0.0979484 
13.5816 -11.4704 21.8504 0 0 1.5 0.0785697 -0.0951385 
13.7077 -11.6231 22.1324 0 0 1.5 0.0753853 -0.093282 
13.8338 -11.7759 22.4144 0 0 1.5 0.0716559 -0.0925565 
13.9599 -11.9287 22.6964 0 0 1.5 0.0629724 -0.0952332 
14.086 -12.0814 22.9784 0 0 1.5 0.0582184 -0.0984933 
14.2122 -12.2342 23.2604 0 0 1.5 0.0533135 -0.103456 
14.3383 -12.3869 23.5424 0 0 1.5 0.0483372 -0.11083 
14.4644 -12.5397 23.8244 0 0 1.5 0.0384609 -0.134993 
14.5905 -12.6925 24.1064 0 0 1.5 0.0336925 -0.154116 
14.7166 -12.8452 24.3884 0 0 1.5 0.0291061 -0.181279 
14.8427 -12.998 24.6704 0 0 1.5 0.020667 -0.277158 
14.9689 -13.1508 24.9525 0 0 1.5 0.0169181 -0.363307 
15.095 -13.3035 25.2345 0 0 1.5 0.0135573 -0.498953 
15.2211 -13.4563 25.5165 0 0 1.5 0.010673 -0.711992 
15.3472 -13.6091 25.7985 0 0 1.5 0.00700364 -1.29854 
15.4733 -13.7618 26.0805 0 0 1.5 0.00658669 -1.30684 
15.5994 -13.9146 26.3625 0 0 1.5 0.00701581 -1.02736 
15.7256 -14.0674 26.6445 0 0 1.5 0.00790619 -0.721554 
15.8517 -14.2201 26.9265 0 0 1.5 0.00990591 -0.368088 
15.9778 -14.3729 27.2085 0 0 1.5 0.010748 -0.280862 
16.1039 -14.5256 27.4905 0 0 1.5 0.0114165 -0.223518 
16.23 -14.6784 27.7725 0 0 1.5 0.0121843 -0.158986 
16.3561 -14.8312 28.0545 0 0 1.5 0.0122919 -0.141012 
16.4822 -14.9839 28.3365 0 0 1.5 0.0122298 -0.128435 
16.6084 -15.1367 28.6186 0 0 1.5 0.0120126 -0.120043 
16.7345 -15.2895 28.9006 0 0 1.5 0.0111794 -0.113307 
16.8606 -15.4422 29.1826 0 0 1.5 0.0105998 -0.113767 
16.9867 -15.595 29.4646 0 0 1.5 0.00993653 -0.116812 
17.1128 -15.7478 29.7466 0 0 1.5 0.00920638 -0.123047 
17.2389 -15.9005 30.0286 0 0 1.5 0.00761351 -0.146994 
17.3651 -16.0533 30.3106 0 0 1.5 0.00678519 -0.167131 
17.4912 -16.206 30.5926 0 0 1.5 0.00595516 -0.19647 
17.6173 -16.3588 30.8746 0 0 1.5 0.00513748 -0.239348 
17.7434 -16.5116 31.1566 0 0 1.5 0.00360341 -0.40004 
17.8695 -16.6643 31.4386 0 0 1.5 0.0029227 -0.554635 
17.9956 -16.8171 31.7206 0 0 1.5 0.0023335 -0.796675 
18.1218 -16.9699 32.0026 0 0 1.5 0.00162833 -1.38226 
18.2479 -17.1226 32.2847 0 0 1.5 0.00161128 -1.30629 
18.374 -17.2754 32.5667 0 0 1.5 0.0017879 -0.985334 
18.5001 -17.4282 32.8487 0 0 1.5 0.00207006 -0.683861 
18.6262 -17.5809 33.1307 0 0 1.5 0.00270794 -0.349668 
18.7523 -17.7337 33.4127 0 0 1.5 0.00300933 -0.266172 
18.8785 -17.8865 33.6947 0 0 1.5 0.00328501 -0.210038 
19.0046 -18.0392 33.9767 0 0 1.5 0.00353164 -0.171007 
19.1307 -18.192 34.2587 0 0 1.5 0.00393818 -0.122247 
19.2568 -18.3447 34.5407 0 0 1.5 0.00410153 -0.106009 
19.3829 -18.4975 34.8227 0 0 1.5 0.00424151 -0.0930762 
19.509 -18.6503 35.1047 0 0 1.5 0.0044616 -0.0739871 
19.6351 -18.803 35.3867 0 0 1.5 0.0045472 -0.0664972 
19.7613 -18.9558 35.6687 0 0 1.5 0.00462017 -0.0599939 
19.8874 -19.1086 35.9507 0 0 1.5 0.00468249 -0.0544021 
20.0135 -19.2613 36.2328 0 0 1.5 0.00478257 -0.0451454 
20.1396 -19.4141 36.5148 0 0 1.5 0.00482399 -0.0412995 
20.2657 -19.5669 36.7968 0 0 1.5 0.00486124 -0.0380029 
20.3918 -19.7196 37.0788 0 0 1.5 0.00489515 -0.0351927 
20.518 -19.8724 37.3608 0 0 1.5 0.00495639 -0.0308633 
20.6441 -20.0251 37.6428 0 0 1.5 0.00498497 -0.0293345 
20.7702 -20.1779 37.9248 0 0 1.5 0.00501273 -0.0282069 
0 1 0 
1 2 0 
2 3 0 
3 4 0 
4 5 0 
5 6 0 
6 7 0 
7 8 0 
8 9 0 
9 10 0 
10 11 0 
11 12 0 
12 13 0 
13 14 0 
14 15 0 
15 16 0 
16 17 0 
17 18 0 
18 19 0 
19 20 0 
20 21 0 
21 22 0 
22 23 0 
23 24 0 
24 25 0 
25 26 0 
26 27 0 
27 28 0 
28 29 0 
29 30 0 
30 31 0 
31 32 0 
32 33 0 
33 34 0 
34 35 0 
35 36 0 
36 37 0 
37 38 0 
38 39 0 
39 40 0 
40 41 0 
41 42 0 
42 43 0 
43 44 0 
44 45 0 
45 46 0 
46 47 0 
47 48 0 
48 49 0 
49 50 0 
50 51 0 
51 52 0 
52 53 0 
53 54 0 
54 55 0 
55 56 0 
56 57 0 
57 58 0 
58 59 0 
59 60 0 
60 61 0 
61 62 0 
62 63 0 
63 64 0 
64 65 0 
65 66 0 
66 67 0 
67 68 0 
68 69 0 
69 70 0 
70 71 0 
71 72 0 
72 73 0 
73 74 0 
74 75 0 
75 76 0 
76 77 0 
77 78 0 
78 79 0 
79 80 0 
80 81 0 
81 82 0 
82 83 0 
83 84 0 
84 85 0 
85 86 0 
86 87 0 
87 88 0 
88 89 0 
89 90 0 
90 91 0 
91 92 0 
92 93 0 
93 94 0 
94 95 0 
95 96 0 
96 97 0 
97 98 0 
98 99 0 
99 100 0 
100 101 0 
101 102 0 
102 103 0 
103 104 0 
104 105 0 
105 106 0 
106 107 0 
107 108 0 
108 109 0 
109 110 0 
110 111 0 
111 112 0 
112 113 0 
113 114 0 
114 115 0 
115 116 0 
116 117 0 
117 118 0 
118 119 0 
119 120 0 
120 121 0 
121 122 0 
122 123 0 
123 124 0 
124 125 0 
125 126 0 
126 127 0 
127 128 0 
128 129 0 
129 130 0 
130 131 0 
131 132 0 
132 133 0 
133 134 0 
134 135 0 
135 136 0 
136 137 0 
137 138 0 
138 139 0 
139 140 0 
140 141 0 
141 142 0 
142 143 0 
143 144 0 
144 145 0 
145 146 0 
146 147 0 
147 148 0 
148 149 0 
149 150 0 
150 151 0 
151 152 0 
152 153 0 
153 154 0 
154 155 0 
155 156 0 
156 157 0 
157 158 0 
158 159 0 
159 160 0 
160 161 0 
161 162 0 
162 163 0 
163 164 0 
164 165 0 
165 166 0 
166 167 0 
167 168 0 
168 169 0 
169 170 0 
170 171 0 
171 172 0 
172 173 0 
173 174 0 
174 175 0 
175 176 0 
176 177 0 
177 178 0 
178 179 0 
179 180 0 
180 181 0 
181 182 0 
182 183 0 
183 184 0 
184 185 0 
185 186 0 
186 187 0 
187 188 0 
188 189 0 
189 190 0 
190 191 0 
191 192 0 
192 193 0 
193 194 0 
194 195 0 
195 196 0 
196 197 0 
197 198 0 
198 199 0 
199 200 0 
200 201 0 
201 202 0 
202 203 0 
203 204 0 
204 205 0 
205 206 0 
206 207 0 
207 208 0 
208 209 0 
209 210 0 
210 211 0 
211 212 0 
212 213 0 
213 214 0 
214 215 0 
215 216 0 
216 217 0 
217 218 0 
218 219 0 
219 220 0 
220 221 0 
221 222 0 
222 223 0 
223 224 0 
224 225 0 
225 226 0 
226 227 0 
227 228 0 
228 229 0 
229 230 0 
230 231 0 
231 232 0 
232 233 0 
233 234 0 
234 235 0 
235 236 0 
236 237 0 
237 238 0 
238 239 0 
239 240 0 
240 241 0 
241 242 0 
242 243 0 
243 244 0 
244 245 0 
245 246 0 
246 247 0 
247 248 0 
248 249 0 
249 250 0 
250 251 0 
251 252 0 
252 253 0 
253 254 0 
254 255 0 
255 256 0 
256 257 0 
257 258 0 
258 259 0 
259 260 0 
260 261 0 
261 262 0 
262 263 0 
263 264 0 
264 265 0 
265 266 0 
266 267 0 
267 268 0 
268 269 0 
269 270 0 
270 271 0 
271 272 0 
272 273 0 
273 274 0 
274 275 0 
275 276 0 
276 277 0 
277 278 0 
278 279 0 
279 280 0 
280 281 0 
281 282 0 
282 283 0 
283 284 0 
284 285 0 
285 286 0 
286 287 0 
287 288 0 
288 289 0 
289 290 0 
290 291 0 
291 292 0 
292 293 0 
293 294 0 
294 295 0 
295 296 0 
296 297 0 
297 298 0 
298 299 0 
-1 -1 0 
-1 300 0 1 2 3 4 5 6 7 8 9 10 11 12 13 14 15 16 17 18 19 20 21 22 23 24 25 26 27 28 29 30 31 32 33 34 35 36 37 38 39 40 41 42 43 44 45 46 47 48 49 50 51 52 53 54 55 56 57 58 59 60 61 62 63 64 65 66 67 68 69 70 71 72 73 74 75 76 77 78 79 80 81 82 83 84 85 86 87 88 89 90 91 92 93 94 95 96 97 98 99 100 101 102 103 104 105 106 107 108 109 110 111 112 113 114 115 116 117 118 119 120 121 122 123 124 125 126 127 128 129 130 131 132 133 134 135 136 137 138 139 140 141 142 143 144 145 146 147 148 149 150 151 152 153 154 155 156 157 158 159 160 161 162 163 164 165 166 167 168 169 170 171 172 173 174 175 176 177 178 179 180 181 182 183 184 185 186 187 188 189 190 191 192 193 194 195 196 197 198 199 200 201 202 203 204 205 206 207 208 209 210 211 212 213 214 215 216 217 218 219 220 221 222 223 224 225 226 227 228 229 230 231 232 233 234 235 236 237 238 239 240 241 242 243 244 245 246 247 248 249 250 251 252 253 254 255 256 257 258 259 260 261 262 263 264 265 266 267 268 269 270 271 272 273 274 275 276 277 278 279 280 281 282 283 284 285 286 287 288 289 290 291 292 293 294 295 296 297 298 299 
