ply
format ascii 1.0
comment written by koba@oshima.lab
element vertex 300
property float x
property float y
property float z
property int label
property int attribute
property float radius
property float curvature
property float torsion
element edge 300
property int vertex1
property int vertex2
property int label
element vertex_seq 1
property int label
property list int int vertex_indices
end_header
0.369588 23.7885 -11.2421 0 0 1.5 0.0521713 0.0243044 
0.253189 23.5051 -11.0792 0 0 1.5 0.050903 0.0251112 
0.136789 23.2218 -10.9163 0 0 1.5 0.0496346 0.0262814 
0.0203899 22.9384 -10.7535 0 0 1.5 0.0483585 0.0278502 
-0.0960095 22.655 -10.5906 0 0 1.5 0.0457556 0.0323341 
-0.212409 22.3716 -10.4277 0 0 1.5 0.0444119 0.0353167 
-0.328808 22.0882 -10.2649 0 0 1.5 0.043027 0.0389035 
-0.445208 21.8049 -10.102 0 0 1.5 0.0415923 0.0432184 
-0.561607 21.5215 -9.93913 0 0 1.5 0.0385322 0.0543062 
-0.678007 21.2381 -9.77626 0 0 1.5 0.03688 0.0615241 
-0.794406 20.9547 -9.61339 0 0 1.5 0.03513 0.0704164 
-0.910806 20.6713 -9.45053 0 0 1.5 0.0332712 0.0813974 
-1.02721 20.3879 -9.28766 0 0 1.5 0.0291762 0.113166 
-1.1436 20.1046 -9.12479 0 0 1.5 0.0269216 0.137617 
-1.26 19.8212 -8.96193 0 0 1.5 0.0245265 0.171772 
-1.3764 19.5378 -8.79906 0 0 1.5 0.0193785 0.296671 
-1.4928 19.2544 -8.6362 0 0 1.5 0.0167294 0.416491 
-1.6092 18.971 -8.47333 0 0 1.5 0.0142148 0.606972 
-1.7256 18.6876 -8.31046 0 0 1.5 0.0121706 0.876498 
-1.842 18.4043 -8.1476 0 0 1.5 0.0118919 1.05913 
-1.9584 18.1209 -7.98473 0 0 1.5 0.0143835 0.790099 
-2.0748 17.8375 -7.82186 0 0 1.5 0.0182442 0.541225 
-2.1912 17.5541 -7.659 0 0 1.5 0.0230677 0.377401 
-2.3076 17.2707 -7.49613 0 0 1.5 0.0348129 0.213537 
-2.424 16.9873 -7.33326 0 0 1.5 0.0415712 0.172874 
-2.5404 16.704 -7.1704 0 0 1.5 0.0488773 0.146043 
-2.6568 16.4206 -7.00753 0 0 1.5 0.0651329 0.115765 
-2.7732 16.1372 -6.84466 0 0 1.5 0.0740798 0.107321 
-2.8896 15.8538 -6.6818 0 0 1.5 0.0835563 0.101859 
-3.006 15.5704 -6.51893 0 0 1.5 0.0935468 0.0987905 
-3.12239 15.287 -6.35606 0 0 1.5 0.114945 0.0976423 
-3.23879 15.0037 -6.1932 0 0 1.5 0.126232 0.0991776 
-3.35519 14.7203 -6.03033 0 0 1.5 0.137791 0.102122 
-3.47159 14.4369 -5.86747 0 0 1.5 0.149502 0.106224 
-3.58799 14.1535 -5.7046 0 0 1.5 0.172755 0.117506 
-3.70439 13.8701 -5.54173 0 0 1.5 0.183901 0.125 
-3.82079 13.5867 -5.37887 0 0 1.5 0.194422 0.133517 
-3.93719 13.3034 -5.216 0 0 1.5 0.2041 0.142755 
-4.09827 13.0126 -5.11873 0 0 1.5 0.220065 0.163886 
-4.26619 12.7227 -5.03462 0 0 1.5 0.22598 0.175401 
-4.47705 12.4475 -5.04971 0 0 1.5 0.230398 0.18671 
-4.69911 12.2028 -5.13464 0 0 1.5 0.234793 0.208199 
-4.92567 11.9925 -5.28611 0 0 1.5 0.23493 0.217595 
-5.14281 11.826 -5.49945 0 0 1.5 0.233914 0.225094 
-5.34039 11.6905 -5.74945 0 0 1.5 0.231959 0.230394 
-5.52616 11.5645 -6.01353 0 0 1.5 0.226061 0.233192 
-5.69752 11.445 -6.29057 0 0 1.5 0.222498 0.229822 
-5.8513 11.3151 -6.57298 0 0 1.5 0.218726 0.22316 
-5.99533 11.1751 -6.85538 0 0 1.5 0.214833 0.213369 
-6.12159 11.0115 -7.13404 0 0 1.5 0.206796 0.186887 
-6.22806 10.8187 -7.40095 0 0 1.5 0.202607 0.171261 
-6.32101 10.6071 -7.65891 0 0 1.5 0.198235 0.154537 
-6.38363 10.3582 -7.89243 0 0 1.5 0.188655 0.121863 
-6.42626 10.0917 -8.10855 0 0 1.5 0.18331 0.106906 
-6.45232 9.81064 -8.31026 0 0 1.5 0.177532 0.0928807 
-6.44739 9.51272 -8.48755 0 0 1.5 0.171294 0.0803883 
-6.43308 9.21189 -8.65926 0 0 1.5 0.157488 0.0614402 
-6.39667 8.90631 -8.8195 0 0 1.5 0.14999 0.0547088 
-6.34812 8.6026 -8.97961 0 0 1.5 0.14217 0.0499894 
-6.28771 8.3007 -9.13958 0 0 1.5 0.134124 0.0475959 
-6.21079 8.00952 -9.31143 0 0 1.5 0.117824 0.0506806 
-6.12693 7.72462 -9.49021 0 0 1.5 0.10987 0.0567601 
-6.02608 7.4627 -9.6942 0 0 1.5 0.102357 0.0661963 
-5.91477 7.22439 -9.91852 0 0 1.5 0.0901243 0.0968349 
-5.79429 7.00738 -10.1606 0 0 1.5 0.0864688 0.115959 
-5.65665 6.84503 -10.4346 0 0 1.5 0.0854204 0.132454 
-5.51063 6.71345 -10.7188 0 0 1.5 0.0877852 0.141735 
-5.35719 6.60907 -11.0119 0 0 1.5 0.105393 0.131536 
-5.18985 6.54834 -11.3096 0 0 1.5 0.12156 0.116645 
-5.01779 6.49719 -11.6062 0 0 1.5 0.143239 0.100848 
-4.83588 6.46472 -11.8999 0 0 1.5 0.171203 0.0865857 
-4.64645 6.43741 -12.1891 0 0 1.5 0.251817 0.0650393 
-4.45049 6.41458 -12.4745 0 0 1.5 0.309493 0.0574757 
-4.24464 6.38872 -12.7525 0 0 1.5 0.384412 0.0515622 
-4.03483 6.36164 -13.0275 0 0 1.5 0.483785 0.0470218 
-3.81269 6.31963 -13.2906 0 0 1.5 0.80919 0.0407802 
-3.58629 6.26902 -13.5481 0 0 1.5 1.08648 0.0380359 
-3.35001 6.19557 -13.7913 0 0 1.5 1.50888 0.0347398 
-3.10525 6.08025 -14.007 0 0 1.5 3.30838 0.0187211 
-2.86457 5.89074 -14.1582 0 0 1.5 5.1726 -0.00672516 
-2.76446 5.60115 -14.0714 0 0 1.5 7.72794 -0.0588865 
-2.83977 5.37181 -13.8288 0 0 1.5 9.13282 -0.123521 
-2.9733 5.19801 -13.5611 0 0 1.5 4.97368 -0.127838 
-3.1378 5.06412 -13.2866 0 0 1.5 3.18709 -0.103879 
-3.31832 4.9592 -13.0102 0 0 1.5 2.1141 -0.0852653 
-3.50549 4.8666 -12.7332 0 0 1.5 1.46795 -0.0726227 
-3.70619 4.81461 -12.455 0 0 1.5 0.793777 -0.0596912 
-3.90825 4.7735 -12.1767 0 0 1.5 0.609206 -0.0572618 
-4.11501 4.76975 -11.8981 0 0 1.5 0.477178 -0.057019 
-4.32009 4.79012 -11.6204 0 0 1.5 0.305458 -0.0636658 
-4.52291 4.84307 -11.344 0 0 1.5 0.24776 -0.0715339 
-4.71497 4.93557 -11.0718 0 0 1.5 0.201986 -0.0839628 
-4.90146 5.04856 -10.8019 0 0 1.5 0.165135 -0.103214 
-5.06294 5.21003 -10.5412 0 0 1.5 0.111101 -0.176794 
-5.21659 5.38219 -10.2828 0 0 1.5 0.09218 -0.240507 
-5.34383 5.5844 -10.0312 0 0 1.5 0.0785051 -0.322666 
-5.45837 5.79385 -9.78006 0 0 1.5 0.0705147 -0.402257 
-5.55444 6.0138 -9.52952 0 0 1.5 0.0722178 -0.420006 
-5.63306 6.23367 -9.27329 0 0 1.5 0.0803399 -0.368142 
-5.70105 6.45349 -9.01361 0 0 1.5 0.0916457 -0.312782 
-5.74713 6.65826 -8.73764 0 0 1.5 0.120449 -0.230536 
-5.78604 6.85554 -8.45543 0 0 1.5 0.136998 -0.204473 
-5.80301 7.02094 -8.15091 0 0 1.5 0.154596 -0.185635 
-5.80743 7.15885 -7.83432 0 0 1.5 0.173048 -0.171883 
-5.79865 7.26784 -7.50504 0 0 1.5 0.211512 -0.154385 
-5.76716 7.31211 -7.16307 0 0 1.5 0.230762 -0.148949 
-5.72596 7.32348 -6.82073 0 0 1.5 0.249345 -0.144866 
-5.67138 7.28737 -6.48 0 0 1.5 0.266607 -0.141583 
-5.60587 7.20081 -6.15166 0 0 1.5 0.294084 -0.13589 
-5.53633 7.09294 -5.8299 0 0 1.5 0.30283 -0.132963 
-5.46097 6.94145 -5.52699 0 0 1.5 0.307504 -0.12954 
-5.38537 6.77334 -5.23389 0 0 1.5 0.307805 -0.12538 
-5.30944 6.58303 -4.9539 0 0 1.5 0.295538 -0.115645 
-5.23637 6.37254 -4.68856 0 0 1.5 0.283827 -0.110162 
-5.1648 6.15149 -4.43089 0 0 1.5 0.269264 -0.104156 
-5.10018 5.90835 -4.19228 0 0 1.5 0.234551 -0.0920669 
-5.03725 5.66039 -3.95801 0 0 1.5 0.215802 -0.0861898 
-4.98462 5.39086 -3.74596 0 0 1.5 0.196878 -0.0801864 
-4.93502 5.11647 -3.53999 0 0 1.5 0.178184 -0.0743186 
-4.89452 4.82752 -3.35224 0 0 1.5 0.142562 -0.0634748 
-4.85959 4.53127 -3.17573 0 0 1.5 0.125941 -0.0577867 
-4.83089 4.22684 -3.01179 0 0 1.5 0.110197 -0.0517508 
-4.80905 3.91471 -2.86229 0 0 1.5 0.0953359 -0.0453167 
-4.79005 3.59939 -2.71878 0 0 1.5 0.0681652 -0.027277 
-4.77677 3.2781 -2.58854 0 0 1.5 0.0557808 -0.0120105 
-4.76407 2.95606 -2.46008 0 0 1.5 0.0441321 0.0128896 
-4.75247 2.63221 -2.3361 0 0 1.5 0.0229472 0.178311 
-4.73927 2.309 -2.21067 0 0 1.5 0.0135735 0.586558 
-4.72395 1.98662 -2.08332 0 0 1.5 0.00626365 2.858 
-4.70277 1.66762 -1.94871 0 0 1.5 0.00778337 1.77833 
-4.67878 1.35023 -1.81061 0 0 1.5 0.0221092 0.15897 
-4.64293 1.04055 -1.65844 0 0 1.5 0.0290171 0.0641887 
-4.60341 0.73337 -1.50233 0 0 1.5 0.0354117 0.0202631 
-4.55077 0.43529 -1.33275 0 0 1.5 0.0412248 -0.00460882 
-4.4911 0.142193 -1.15737 0 0 1.5 0.0509222 -0.0333922 
-4.42127 -0.143717 -0.973629 0 0 1.5 0.0547606 -0.0437453 
-4.34058 -0.422176 -0.783348 0 0 1.5 0.0578957 -0.0532505 
-4.25368 -0.696371 -0.589323 0 0 1.5 0.0603113 -0.0626731 
-4.15351 -0.962053 -0.390051 0 0 1.5 0.0630562 -0.0829682 
-4.05041 -1.22588 -0.189713 0 0 1.5 0.0634492 -0.094384 
-3.93455 -1.48227 0.0133094 0 0 1.5 0.0632497 -0.106991 
-3.81648 -1.73751 0.216465 0 0 1.5 0.0613831 -0.136128 
-3.69053 -1.98861 0.420098 0 0 1.5 0.0598967 -0.152466 
-3.56206 -2.23855 0.623549 0 0 1.5 0.0581714 -0.169623 
-3.42968 -2.4867 0.826719 0 0 1.5 0.0563112 -0.187004 
-3.29565 -2.73424 1.02954 0 0 1.5 0.0525919 -0.218252 
-3.16036 -2.98132 1.2321 0 0 1.5 0.0509154 -0.22948 
-3.02502 -3.22862 1.43436 0 0 1.5 0.0494526 -0.236055 
-2.88966 -3.47599 1.63651 0 0 1.5 0.0482503 -0.236589 
-2.75566 -3.72429 1.83842 0 0 1.5 0.0467346 -0.216212 
-2.6219 -3.97278 2.04026 0 0 1.5 0.0464254 -0.195904 
-2.48907 -4.22202 2.2418 0 0 1.5 0.046394 -0.169868 
-2.35576 -4.47122 2.44307 0 0 1.5 0.047089 -0.105762 
-2.22157 -4.72036 2.64383 0 0 1.5 0.0477765 -0.071691 
-2.08426 -4.96852 2.84366 0 0 1.5 0.0486724 -0.0378316 
-1.94465 -5.21596 3.04281 0 0 1.5 0.0497783 -0.00487453 
-1.79665 -5.4603 3.23967 0 0 1.5 0.0526754 0.0531921 
-1.64591 -5.7036 3.43577 0 0 1.5 0.0545074 0.077072 
-1.4812 -5.94113 3.62767 0 0 1.5 0.0566324 0.0974441 
-1.31129 -6.17627 3.81775 0 0 1.5 0.0590825 0.113758 
-1.12899 -6.40572 4.0035 0 0 1.5 0.0650653 0.133868 
-0.936954 -6.6301 4.18525 0 0 1.5 0.0686379 0.138754 
-0.73632 -6.85003 4.36347 0 0 1.5 0.072614 0.140618 
-0.522726 -7.06207 4.53582 0 0 1.5 0.0817648 0.136992 
-0.304792 -7.27148 4.70621 0 0 1.5 0.0869066 0.132842 
-0.0723564 -7.4702 4.87005 0 0 1.5 0.0923866 0.127666 
0.162518 -7.66679 5.03293 0 0 1.5 0.0981599 0.121721 
0.40925 -7.85214 5.19151 0 0 1.5 0.110336 0.108878 
0.659316 -8.03324 5.34954 0 0 1.5 0.116578 0.102428 
0.918057 -8.20326 5.50615 0 0 1.5 0.122795 0.0961298 
1.18165 -8.36479 5.66325 0 0 1.5 0.128875 0.0900306 
1.45154 -8.51534 5.82097 0 0 1.5 0.140093 0.0785767 
1.72778 -8.65063 5.98093 0 0 1.5 0.144944 0.0733645 
2.00814 -8.77605 6.14233 0 0 1.5 0.14909 0.0684732 
2.29596 -8.87603 6.30776 0 0 1.5 0.152379 0.0638659 
2.58581 -8.96867 6.47432 0 0 1.5 0.155856 0.056019 
2.8824 -9.02478 6.6454 0 0 1.5 0.155858 0.0528396 
3.17993 -9.06935 6.81723 0 0 1.5 0.154621 0.0501101 
3.47988 -9.08428 6.99098 0 0 1.5 0.148414 0.0466674 
3.7795 -9.07733 7.16462 0 0 1.5 0.143547 0.0461504 
4.07884 -9.05182 7.33818 0 0 1.5 0.137618 0.0465173 
4.37533 -8.99796 7.50954 0 0 1.5 0.130741 0.0480085 
4.67093 -8.93597 7.68022 0 0 1.5 0.114726 0.0556091 
4.96189 -8.84687 7.8469 0 0 1.5 0.105882 0.0625398 
5.25185 -8.75324 8.01265 0 0 1.5 0.096665 0.0725168 
5.53858 -8.64518 8.17539 0 0 1.5 0.0872128 0.086756 
5.82426 -8.53271 8.33691 0 0 1.5 0.0681022 0.137228 
6.10853 -8.41432 8.49677 0 0 1.5 0.0586807 0.182352 
6.39249 -8.29438 8.65601 0 0 1.5 0.0495314 0.252564 
6.67625 -8.17343 8.81486 0 0 1.5 0.0329993 0.552666 
6.96082 -8.05538 8.97442 0 0 1.5 0.0266171 0.834321 
7.24562 -7.93814 9.13418 0 0 1.5 0.0228693 1.10588 
7.53198 -7.82887 9.29677 0 0 1.5 0.0229838 1.06631 
7.81858 -7.72176 9.46033 0 0 1.5 0.0331803 0.475467 
8.10604 -7.62359 9.62798 0 0 1.5 0.0408476 0.298356 
8.39337 -7.53 9.79834 0 0 1.5 0.049274 0.192365 
8.68048 -7.44336 9.97281 0 0 1.5 0.0581883 0.126864 
8.9662 -7.36373 10.1527 0 0 1.5 0.0770718 0.055979 
9.25108 -7.28833 10.3358 0 0 1.5 0.0869784 0.0357281 
9.53253 -7.22237 10.5276 0 0 1.5 0.0971912 0.0206671 
9.81293 -7.1591 10.7219 0 0 1.5 0.118568 0.000170529 
10.0884 -7.10704 10.9262 0 0 1.5 0.12974 -0.00711625 
10.3619 -7.06016 11.1344 0 0 1.5 0.141223 -0.0132626 
10.631 -7.02396 11.3503 0 0 1.5 0.152987 -0.0184935 
10.8958 -7.00004 11.5728 0 0 1.5 0.177139 -0.0268559 
11.1574 -6.98543 11.8003 0 0 1.5 0.189336 -0.0303797 
11.4108 -6.99445 12.0368 0 0 1.5 0.201426 -0.0335271 
11.661 -7.01184 12.2762 0 0 1.5 0.213224 -0.0362768 
11.8981 -7.06175 12.5247 0 0 1.5 0.234995 -0.0408518 
12.127 -7.12695 12.7761 0 0 1.5 0.2444 -0.0427066 
12.3425 -7.21738 13.0325 0 0 1.5 0.252427 -0.0442182 
12.5376 -7.33615 13.2926 0 0 1.5 0.258789 -0.0453943 
12.723 -7.46827 13.5544 0 0 1.5 0.265486 -0.0467948 
12.8699 -7.63878 13.8184 0 0 1.5 0.265473 -0.0470572 
13.0027 -7.81939 14.0819 0 0 1.5 0.263132 -0.0470396 
13.1033 -8.02266 14.3445 0 0 1.5 0.251693 -0.0463089 
13.1737 -8.24041 14.6038 0 0 1.5 0.242941 -0.0457496 
13.2239 -8.46779 14.8611 0 0 1.5 0.232519 -0.0451012 
13.2286 -8.70883 15.11 0 0 1.5 0.220719 -0.0443879 
13.2202 -8.95276 15.3559 0 0 1.5 0.194209 -0.0433705 
13.1701 -9.2031 15.5908 0 0 1.5 0.180108 -0.0432225 
13.1036 -9.45398 15.82 0 0 1.5 0.165783 -0.0433485 
13.0107 -9.70573 16.04 0 0 1.5 0.15143 -0.0439561 
12.8977 -9.95614 16.2511 0 0 1.5 0.123293 -0.0475141 
12.7704 -10.2056 16.4559 0 0 1.5 0.109736 -0.0508599 
12.6247 -10.4524 16.6511 0 0 1.5 0.0966133 -0.055924 
12.473 -10.6983 16.8432 0 0 1.5 0.0718478 -0.0754764 
12.3084 -10.9416 17.0277 0 0 1.5 0.0602638 -0.0939556 
12.1422 -11.1845 17.2114 0 0 1.5 0.0492423 -0.124625 
11.9721 -11.4264 17.393 0 0 1.5 0.0388078 -0.17999 
11.8034 -11.6684 17.5755 0 0 1.5 0.0200061 -0.562993 
11.6401 -11.9111 17.7622 0 0 1.5 0.0122531 -1.38894 
11.4845 -12.1546 17.9538 0 0 1.5 0.00782446 -3.18495 
11.3409 -12.3994 18.1534 0 0 1.5 0.0102467 -1.74956 
11.2198 -12.6449 18.3657 0 0 1.5 0.0219438 -0.342782 
11.1115 -12.8908 18.5852 0 0 1.5 0.0276047 -0.20649 
11.0533 -13.1325 18.8268 0 0 1.5 0.0327343 -0.140079 
10.9986 -13.3738 19.07 0 0 1.5 0.037244 -0.102956 
10.9439 -13.6152 19.3131 0 0 1.5 0.0442204 -0.0658075 
10.8891 -13.8566 19.5562 0 0 1.5 0.0466633 -0.0558695 
10.8344 -14.098 19.7994 0 0 1.5 0.0484043 -0.0487556 
10.7797 -14.3394 20.0425 0 0 1.5 0.0498244 -0.0400521 
10.725 -14.5808 20.2856 0 0 1.5 0.0495712 -0.0375135 
10.6702 -14.8222 20.5288 0 0 1.5 0.0487331 -0.035719 
10.6155 -15.0636 20.7719 0 0 1.5 0.0473603 -0.0346121 
10.5608 -15.305 21.015 0 0 1.5 0.0432573 -0.0344164 
10.5061 -15.5464 21.2582 0 0 1.5 0.0406605 -0.0351741 
10.4513 -15.7878 21.5013 0 0 1.5 0.0377916 -0.0366099 
10.3966 -16.0292 21.7444 0 0 1.5 0.0347153 -0.0389593 
10.3419 -16.2706 21.9876 0 0 1.5 0.0281955 -0.0471626 
10.2872 -16.5119 22.2307 0 0 1.5 0.0248756 -0.0538901 
10.2324 -16.7533 22.4739 0 0 1.5 0.0215848 -0.0636765 
10.1777 -16.9947 22.717 0 0 1.5 0.0152759 -0.100127 
10.123 -17.2361 22.9601 0 0 1.5 0.0123506 -0.135648 
10.0683 -17.4775 23.2033 0 0 1.5 0.00963239 -0.197972 
10.0135 -17.7189 23.4464 0 0 1.5 0.00717603 -0.317061 
9.95881 -17.9603 23.6895 0 0 1.5 0.00360546 -0.991956 
9.90409 -18.2017 23.9327 0 0 1.5 0.00315468 -1.15441 
9.84936 -18.4431 24.1758 0 0 1.5 0.0037463 -0.729926 
9.79464 -18.6845 24.4189 0 0 1.5 0.00477564 -0.400074 
9.73991 -18.9259 24.6621 0 0 1.5 0.00679926 -0.157232 
9.68518 -19.1673 24.9052 0 0 1.5 0.0076025 -0.112567 
9.63046 -19.4087 25.1483 0 0 1.5 0.00823536 -0.0857778 
9.57573 -19.65 25.3915 0 0 1.5 0.00899119 -0.0577576 
9.52101 -19.8914 25.6346 0 0 1.5 0.00913279 -0.0502811 
9.46628 -20.1328 25.8778 0 0 1.5 0.00913312 -0.0451004 
9.41156 -20.3742 26.1209 0 0 1.5 0.00900564 -0.0416161 
9.35683 -20.6156 26.364 0 0 1.5 0.00842595 -0.0384853 
9.30211 -20.857 26.6072 0 0 1.5 0.00800397 -0.0383215 
9.24738 -21.0984 26.8503 0 0 1.5 0.00751382 -0.0390663 
9.19266 -21.3398 27.0934 0 0 1.5 0.0069688 -0.0409054 
9.13793 -21.5812 27.3366 0 0 1.5 0.00576618 -0.0484834 
9.0832 -21.8226 27.5797 0 0 1.5 0.00513417 -0.0550718 
9.02848 -22.064 27.8228 0 0 1.5 0.00449576 -0.0648835 
8.97375 -22.3054 28.066 0 0 1.5 0.00386045 -0.0796272 
8.91903 -22.5468 28.3091 0 0 1.5 0.00263931 -0.139695 
8.8643 -22.7882 28.5523 0 0 1.5 0.00207258 -0.20647 
8.80958 -23.0295 28.7954 0 0 1.5 0.00155128 -0.337332 
8.75485 -23.2709 29.0385 0 0 1.5 0.000792072 -1.09347 
8.70013 -23.5123 29.2817 0 0 1.5 0.000733924 0 
8.6454 -23.7537 29.5248 0 0 1.5 0.00092136 -0.695461 
8.59067 -23.9951 29.7679 0 0 1.5 0.00120918 -0.376066 
8.53595 -24.2365 30.0111 0 0 1.5 0.00180311 -0.14838 
8.48122 -24.4779 30.2542 0 0 1.5 0.00207039 -0.10597 
8.4265 -24.7193 30.4973 0 0 1.5 0.0023113 -0.0800954 
8.37177 -24.9607 30.7405 0 0 1.5 0.00252521 -0.0632614 
8.31705 -25.2021 30.9836 0 0 1.5 0.00287699 -0.0434982 
8.26232 -25.4435 31.2267 0 0 1.5 0.0030188 -0.0372397 
8.2076 -25.6849 31.4699 0 0 1.5 0.00314087 -0.0323719 
8.15287 -25.9263 31.713 0 0 1.5 0.00333472 -0.0253718 
8.09815 -26.1676 31.9562 0 0 1.5 0.00341106 -0.02269 
8.04342 -26.409 32.1993 0 0 1.5 0.00347667 -0.0203899 
7.98869 -26.6504 32.4424 0 0 1.5 0.00353319 -0.0184312 
7.93397 -26.8918 32.6856 0 0 1.5 0.00362515 -0.0152273 
7.87924 -27.1332 32.9287 0 0 1.5 0.00366357 -0.0139091 
7.82452 -27.3746 33.1718 0 0 1.5 0.00369828 -0.0127843 
7.76979 -27.616 33.415 0 0 1.5 0.00373002 -0.0118289 
7.71507 -27.8574 33.6581 0 0 1.5 0.00378744 -0.0103632 
7.66034 -28.0988 33.9012 0 0 1.5 0.0038142 -0.0098475 
7.60562 -28.3402 34.1444 0 0 1.5 0.00384014 -0.00946799 
0 1 0 
1 2 0 
2 3 0 
3 4 0 
4 5 0 
5 6 0 
6 7 0 
7 8 0 
8 9 0 
9 10 0 
10 11 0 
11 12 0 
12 13 0 
13 14 0 
14 15 0 
15 16 0 
16 17 0 
17 18 0 
18 19 0 
19 20 0 
20 21 0 
21 22 0 
22 23 0 
23 24 0 
24 25 0 
25 26 0 
26 27 0 
27 28 0 
28 29 0 
29 30 0 
30 31 0 
31 32 0 
32 33 0 
33 34 0 
34 35 0 
35 36 0 
36 37 0 
37 38 0 
38 39 0 
39 40 0 
40 41 0 
41 42 0 
42 43 0 
43 44 0 
44 45 0 
45 46 0 
46 47 0 
47 48 0 
48 49 0 
49 50 0 
50 51 0 
51 52 0 
52 53 0 
53 54 0 
54 55 0 
55 56 0 
56 57 0 
57 58 0 
58 59 0 
59 60 0 
60 61 0 
61 62 0 
62 63 0 
63 64 0 
64 65 0 
65 66 0 
66 67 0 
67 68 0 
68 69 0 
69 70 0 
70 71 0 
71 72 0 
72 73 0 
73 74 0 
74 75 0 
75 76 0 
76 77 0 
77 78 0 
78 79 0 
79 80 0 
80 81 0 
81 82 0 
82 83 0 
83 84 0 
84 85 0 
85 86 0 
86 87 0 
87 88 0 
88 89 0 
89 90 0 
90 91 0 
91 92 0 
92 93 0 
93 94 0 
94 95 0 
95 96 0 
96 97 0 
97 98 0 
98 99 0 
99 100 0 
100 101 0 
101 102 0 
102 103 0 
103 104 0 
104 105 0 
105 106 0 
106 107 0 
107 108 0 
108 109 0 
109 110 0 
110 111 0 
111 112 0 
112 113 0 
113 114 0 
114 115 0 
115 116 0 
116 117 0 
117 118 0 
118 119 0 
119 120 0 
120 121 0 
121 122 0 
122 123 0 
123 124 0 
124 125 0 
125 126 0 
126 127 0 
127 128 0 
128 129 0 
129 130 0 
130 131 0 
131 132 0 
132 133 0 
133 134 0 
134 135 0 
135 136 0 
136 137 0 
137 138 0 
138 139 0 
139 140 0 
140 141 0 
141 142 0 
142 143 0 
143 144 0 
144 145 0 
145 146 0 
146 147 0 
147 148 0 
148 149 0 
149 150 0 
150 151 0 
151 152 0 
152 153 0 
153 154 0 
154 155 0 
155 156 0 
156 157 0 
157 158 0 
158 159 0 
159 160 0 
160 161 0 
161 162 0 
162 163 0 
163 164 0 
164 165 0 
165 166 0 
166 167 0 
167 168 0 
168 169 0 
169 170 0 
170 171 0 
171 172 0 
172 173 0 
173 174 0 
174 175 0 
175 176 0 
176 177 0 
177 178 0 
178 179 0 
179 180 0 
180 181 0 
181 182 0 
182 183 0 
183 184 0 
184 185 0 
185 186 0 
186 187 0 
187 188 0 
188 189 0 
189 190 0 
190 191 0 
191 192 0 
192 193 0 
193 194 0 
194 195 0 
195 196 0 
196 197 0 
197 198 0 
198 199 0 
199 200 0 
200 201 0 
201 202 0 
202 203 0 
203 204 0 
204 205 0 
205 206 0 
206 207 0 
207 208 0 
208 209 0 
209 210 0 
210 211 0 
211 212 0 
212 213 0 
213 214 0 
214 215 0 
215 216 0 
216 217 0 
217 218 0 
218 219 0 
219 220 0 
220 221 0 
221 222 0 
222 223 0 
223 224 0 
224 225 0 
225 226 0 
226 227 0 
227 228 0 
228 229 0 
229 230 0 
230 231 0 
231 232 0 
232 233 0 
233 234 0 
234 235 0 
235 236 0 
236 237 0 
237 238 0 
238 239 0 
239 240 0 
240 241 0 
241 242 0 
242 243 0 
243 244 0 
244 245 0 
245 246 0 
246 247 0 
247 248 0 
248 249 0 
249 250 0 
250 251 0 
251 252 0 
252 253 0 
253 254 0 
254 255 0 
255 256 0 
256 257 0 
257 258 0 
258 259 0 
259 260 0 
260 261 0 
261 262 0 
262 263 0 
263 264 0 
264 265 0 
265 266 0 
266 267 0 
267 268 0 
268 269 0 
269 270 0 
270 271 0 
271 272 0 
272 273 0 
273 274 0 
274 275 0 
275 276 0 
276 277 0 
277 278 0 
278 279 0 
279 280 0 
280 281 0 
281 282 0 
282 283 0 
283 284 0 
284 285 0 
285 286 0 
286 287 0 
287 288 0 
288 289 0 
289 290 0 
290 291 0 
291 292 0 
292 293 0 
293 294 0 
294 295 0 
295 296 0 
296 297 0 
297 298 0 
298 299 0 
-1 -1 0 
-1 300 0 1 2 3 4 5 6 7 8 9 10 11 12 13 14 15 16 17 18 19 20 21 22 23 24 25 26 27 28 29 30 31 32 33 34 35 36 37 38 39 40 41 42 43 44 45 46 47 48 49 50 51 52 53 54 55 56 57 58 59 60 61 62 63 64 65 66 67 68 69 70 71 72 73 74 75 76 77 78 79 80 81 82 83 84 85 86 87 88 89 90 91 92 93 94 95 96 97 98 99 100 101 102 103 104 105 106 107 108 109 110 111 112 113 114 115 116 117 118 119 120 121 122 123 124 125 126 127 128 129 130 131 132 133 134 135 136 137 138 139 140 141 142 143 144 145 146 147 148 149 150 151 152 153 154 155 156 157 158 159 160 161 162 163 164 165 166 167 168 169 170 171 172 173 174 175 176 177 178 179 180 181 182 183 184 185 186 187 188 189 190 191 192 193 194 195 196 197 198 199 200 201 202 203 204 205 206 207 208 209 210 211 212 213 214 215 216 217 218 219 220 221 222 223 224 225 226 227 228 229 230 231 232 233 234 235 236 237 238 239 240 241 242 243 244 245 246 247 248 249 250 251 252 253 254 255 256 257 258 259 260 261 262 263 264 265 266 267 268 269 270 271 272 273 274 275 276 277 278 279 280 281 282 283 284 285 286 287 288 289 290 291 292 293 294 295 296 297 298 299 
