ply
format ascii 1.0
comment written by koba@oshima.lab
element vertex 300
property float x
property float y
property float z
property int label
property int attribute
property float radius
property float curvature
property float torsion
element edge 300
property int vertex1
property int vertex2
property int label
element vertex_seq 1
property int label
property list int int vertex_indices
end_header
2.91403 31.4118 -9.49818 0 0 1.5 0.0419835 0.0586654 
2.77839 31.0831 -9.498 0 0 1.5 0.0407902 0.0617229 
2.64275 30.7544 -9.49781 0 0 1.5 0.0396022 0.065399 
2.50711 30.4256 -9.49762 0 0 1.5 0.0384162 0.0697911 
2.37147 30.0969 -9.49744 0 0 1.5 0.0360378 0.0811491 
2.23582 29.7682 -9.49725 0 0 1.5 0.0348395 0.0883118 
2.10018 29.4394 -9.49706 0 0 1.5 0.0336315 0.0967024 
1.96454 29.1107 -9.49687 0 0 1.5 0.0324122 0.106565 
1.8289 28.782 -9.49669 0 0 1.5 0.0299362 0.131257 
1.69326 28.4533 -9.4965 0 0 1.5 0.0286777 0.146737 
1.55762 28.1245 -9.49631 0 0 1.5 0.0274076 0.165021 
1.42198 27.7958 -9.49613 0 0 1.5 0.0261307 0.186448 
1.28634 27.4671 -9.49594 0 0 1.5 0.0235845 0.241043 
1.1507 27.1383 -9.49575 0 0 1.5 0.0223414 0.276132 
1.01506 26.8096 -9.49557 0 0 1.5 0.0211478 0.317074 
0.879416 26.4809 -9.49538 0 0 1.5 0.0190498 0.41523 
0.743775 26.1522 -9.49519 0 0 1.5 0.0182455 0.469076 
0.608134 25.8234 -9.49501 0 0 1.5 0.0176925 0.5189 
0.472493 25.4947 -9.49482 0 0 1.5 0.0174645 0.55605 
0.336852 25.166 -9.49463 0 0 1.5 0.0182343 0.56646 
0.201212 24.8372 -9.49445 0 0 1.5 0.0193034 0.537962 
0.0655708 24.5085 -9.49426 0 0 1.5 0.0208286 0.494623 
-0.0700701 24.1798 -9.49407 0 0 1.5 0.0227796 0.445713 
-0.205711 23.8511 -9.49389 0 0 1.5 0.027804 0.355249 
-0.341352 23.5223 -9.4937 0 0 1.5 0.0307989 0.318395 
-0.476993 23.1936 -9.49351 0 0 1.5 0.034068 0.288044 
-0.612633 22.8649 -9.49333 0 0 1.5 0.0413272 0.244132 
-0.748274 22.5361 -9.49314 0 0 1.5 0.0452718 0.228159 
-0.883915 22.2074 -9.49295 0 0 1.5 0.0493938 0.215564 
-1.01956 21.8787 -9.49277 0 0 1.5 0.0536708 0.206015 
-1.1552 21.5499 -9.49258 0 0 1.5 0.0625967 0.193013 
-1.29084 21.2212 -9.49239 0 0 1.5 0.0671864 0.189052 
-1.42648 20.8925 -9.49221 0 0 1.5 0.0718169 0.18681 
-1.56212 20.5638 -9.49202 0 0 1.5 0.0764536 0.185764 
-1.69776 20.235 -9.49183 0 0 1.5 0.0855792 0.186329 
-1.8334 19.9063 -9.49165 0 0 1.5 0.0899741 0.188317 
-1.97528 19.5815 -9.47715 0 0 1.5 0.0941903 0.191126 
-2.13193 19.2659 -9.42871 0 0 1.5 0.0981779 0.194445 
-2.29514 18.9566 -9.36796 0 0 1.5 0.105255 0.203634 
-2.47069 18.6589 -9.28398 0 0 1.5 0.108239 0.209496 
-2.65345 18.369 -9.19082 0 0 1.5 0.110802 0.215828 
-2.84732 18.0908 -9.08353 0 0 1.5 0.114533 0.230972 
-3.04972 17.8214 -8.97088 0 0 1.5 0.115659 0.239987 
-3.26273 17.5629 -8.85156 0 0 1.5 0.116296 0.249759 
-3.48666 17.3144 -8.73166 0 0 1.5 0.116468 0.260501 
-3.72058 17.0751 -8.61122 0 0 1.5 0.115559 0.285553 
-3.9693 16.8484 -8.4974 0 0 1.5 0.114602 0.299546 
-4.22613 16.6285 -8.38721 0 0 1.5 0.113424 0.314455 
-4.50301 16.4253 -8.29608 0 0 1.5 0.112122 0.330257 
-4.78618 16.2276 -8.21255 0 0 1.5 0.109636 0.361666 
-5.08907 16.0485 -8.16105 0 0 1.5 0.108753 0.375315 
-5.39917 15.8792 -8.13116 0 0 1.5 0.108303 0.386402 
-5.71792 15.7216 -8.12727 0 0 1.5 0.109254 0.39559 
-6.04117 15.5809 -8.16911 0 0 1.5 0.110901 0.391771 
-6.3636 15.4471 -8.23263 0 0 1.5 0.113432 0.382332 
-6.68149 15.3244 -8.33439 0 0 1.5 0.116872 0.367637 
-6.98988 15.2063 -8.46445 0 0 1.5 0.126429 0.326088 
-7.29318 15.0905 -8.60954 0 0 1.5 0.132416 0.302157 
-7.57832 14.9719 -8.7859 0 0 1.5 0.139065 0.277733 
-7.85761 14.8494 -8.96828 0 0 1.5 0.146241 0.253607 
-8.12379 14.7182 -9.16422 0 0 1.5 0.161527 0.208643 
-8.37904 14.5745 -9.36529 0 0 1.5 0.169267 0.188546 
-8.62629 14.4216 -9.57012 0 0 1.5 0.176819 0.170264 
-8.85686 14.2446 -9.77459 0 0 1.5 0.190564 0.138473 
-9.0818 14.0595 -9.97818 0 0 1.5 0.196365 0.124852 
-9.28588 13.8444 -10.1745 0 0 1.5 0.201221 0.112789 
-9.47882 13.616 -10.3657 0 0 1.5 0.20499 0.102048 
-9.65426 13.3667 -10.5488 0 0 1.5 0.208871 0.0840393 
-9.80464 13.0956 -10.7215 0 0 1.5 0.208919 0.0769651 
-9.94271 12.8143 -10.8894 0 0 1.5 0.207754 0.0710414 
-10.0396 12.5098 -11.0454 0 0 1.5 0.205468 0.0661452 
-10.117 12.1995 -11.1989 0 0 1.5 0.198139 0.0598794 
-10.1646 11.8803 -11.3483 0 0 1.5 0.193518 0.058551 
-10.1722 11.5586 -11.4978 0 0 1.5 0.18857 0.0583742 
-10.1616 11.2369 -11.648 0 0 1.5 0.183547 0.0593647 
-10.1029 10.9226 -11.8038 0 0 1.5 0.174436 0.0648289 
-10.0249 10.6156 -11.9634 0 0 1.5 0.170944 0.069233 
-9.91814 10.3193 -12.1286 0 0 1.5 0.168577 0.0744724 
-9.78542 10.0384 -12.3 0 0 1.5 0.168624 0.0860184 
-9.63884 9.76553 -12.4748 0 0 1.5 0.171761 0.0917104 
-9.46679 9.51271 -12.6557 0 0 1.5 0.177464 0.0966854 
-9.28949 9.264 -12.8378 0 0 1.5 0.186113 0.100501 
-9.09048 9.03524 -13.0234 0 0 1.5 0.213779 0.104955 
-8.88994 8.80788 -13.2093 0 0 1.5 0.233611 0.10599 
-8.67128 8.59711 -13.3943 0 0 1.5 0.258064 0.106524 
-8.45132 8.3873 -13.5788 0 0 1.5 0.287672 0.106976 
-8.21667 8.18826 -13.7571 0 0 1.5 0.364589 0.108969 
-7.97827 7.99089 -13.9319 0 0 1.5 0.412831 0.110902 
-7.72736 7.79906 -14.0953 0 0 1.5 0.467745 0.113619 
-7.46662 7.60928 -14.2443 0 0 1.5 0.593525 0.121325 
-7.19633 7.42144 -14.3785 0 0 1.5 0.658934 0.125891 
-6.90489 7.23681 -14.4648 0 0 1.5 0.719341 0.130293 
-6.59857 7.06082 -14.4808 0 0 1.5 0.767613 0.13389 
-6.29909 6.91765 -14.3677 0 0 1.5 0.800425 0.136838 
-6.08804 6.86006 -14.0929 0 0 1.5 0.778548 0.135788 
-5.97215 6.87067 -13.7576 0 0 1.5 0.734122 0.133443 
-5.91679 6.92019 -13.4098 0 0 1.5 0.673743 0.130574 
-5.89422 6.99032 -13.0623 0 0 1.5 0.534555 0.126375 
-5.88659 7.06987 -12.7161 0 0 1.5 0.466866 0.126416 
-5.89358 7.15866 -12.3718 0 0 1.5 0.404577 0.128626 
-5.9107 7.25361 -12.0296 0 0 1.5 0.299911 0.141495 
-5.93182 7.351 -11.6882 0 0 1.5 0.257376 0.153525 
-5.96176 7.45256 -11.3487 0 0 1.5 0.220672 0.170467 
-5.99281 7.55449 -11.0095 0 0 1.5 0.189198 0.193436 
-6.03066 7.65754 -10.6712 0 0 1.5 0.139954 0.262651 
-6.06959 7.76023 -10.333 0 0 1.5 0.121571 0.309754 
-6.11402 7.86108 -9.99491 0 0 1.5 0.107247 0.361329 
-6.16016 7.96028 -9.65656 0 0 1.5 0.0971114 0.407642 
-6.21109 8.05488 -9.31757 0 0 1.5 0.0898616 0.428585 
-6.2646 8.14491 -8.97779 0 0 1.5 0.0923914 0.393608 
-6.32197 8.2281 -8.63683 0 0 1.5 0.0982903 0.342002 
-6.38291 8.30011 -8.2941 0 0 1.5 0.106837 0.287688 
-6.44622 8.36467 -7.95017 0 0 1.5 0.12936 0.199105 
-6.51365 8.4045 -7.60341 0 0 1.5 0.14239 0.167019 
-6.58226 8.43069 -7.2559 0 0 1.5 0.156093 0.141429 
-6.65264 8.42799 -6.90733 0 0 1.5 0.184104 0.105069 
-6.72234 8.3872 -6.56173 0 0 1.5 0.19768 0.0920421 
-6.79027 8.31509 -6.22138 0 0 1.5 0.210401 0.0812146 
-6.85469 8.20116 -5.89073 0 0 1.5 0.221789 0.0722163 
-6.91104 8.03197 -5.58364 0 0 1.5 0.23875 0.0585277 
-6.9608 7.82987 -5.29708 0 0 1.5 0.243511 0.0531683 
-7.00426 7.59906 -5.03054 0 0 1.5 0.245402 0.0487015 
-7.03761 7.33223 -4.79783 0 0 1.5 0.24433 0.0451651 
-7.06538 7.04972 -4.58477 0 0 1.5 0.233734 0.0405386 
-7.08911 6.75585 -4.38593 0 0 1.5 0.224767 0.0394778 
-7.10561 6.44501 -4.21406 0 0 1.5 0.213912 0.0393833 
-7.12051 6.13075 -4.04864 0 0 1.5 0.188445 0.0423133 
-7.13162 5.80854 -3.89858 0 0 1.5 0.174728 0.0455585 
-7.14115 5.48304 -3.75593 0 0 1.5 0.160862 0.0502316 
-7.14901 5.15409 -3.62107 0 0 1.5 0.147144 0.0566122 
-7.15578 4.82251 -3.49284 0 0 1.5 0.121026 0.0760905 
-7.16193 4.48947 -3.36831 0 0 1.5 0.108922 0.0902396 
-7.16755 4.15463 -3.2487 0 0 1.5 0.0975868 0.108384 
-7.17299 3.81923 -3.13066 0 0 1.5 0.0870927 0.131562 
-7.1781 3.48275 -3.01569 0 0 1.5 0.0688819 0.1971 
-7.18315 3.14611 -2.90121 0 0 1.5 0.0612977 0.240879 
-7.18735 2.80901 -2.78804 0 0 1.5 0.0548604 0.290737 
-7.19135 2.47189 -2.6749 0 0 1.5 0.0497038 0.341808 
-7.19322 2.13486 -2.56148 0 0 1.5 0.0437165 0.408241 
-7.19419 1.79792 -2.44778 0 0 1.5 0.0430104 0.40278 
-7.19143 1.46139 -2.33289 0 0 1.5 0.0437444 0.369857 
-7.18604 1.12516 -2.21726 0 0 1.5 0.0486754 0.264446 
-7.17552 0.789541 -2.10018 0 0 1.5 0.0523924 0.211663 
-7.15924 0.454649 -1.98182 0 0 1.5 0.0566715 0.165778 
-7.13726 0.120481 -1.8622 0 0 1.5 0.061359 0.127971 
-7.10488 -0.212162 -1.74092 0 0 1.5 0.0715338 0.0729075 
-7.06755 -0.544081 -1.61887 0 0 1.5 0.0768726 0.0534714 
-7.01377 -0.873046 -1.49515 0 0 1.5 0.0823044 0.0383004 
-6.9562 -1.20127 -1.37111 0 0 1.5 0.0877831 0.0265108 
-6.87767 -1.52479 -1.24608 0 0 1.5 0.0987055 0.0105614 
-6.79314 -1.8466 -1.12106 0 0 1.5 0.104059 0.00553751 
-6.69007 -2.16318 -0.996095 0 0 1.5 0.109277 0.0020798 
-6.57574 -2.47579 -0.871683 0 0 1.5 0.119097 -0.000960272 
-6.44659 -2.78317 -0.747999 0 0 1.5 0.123593 -0.000919906 
-6.30096 -3.08337 -0.625795 0 0 1.5 0.127744 4.61842e-05 
-6.14497 -3.37903 -0.504524 0 0 1.5 0.131501 0.00190339 
-5.96766 -3.66327 -0.385878 0 0 1.5 0.137659 0.00749696 
-5.78472 -3.94448 -0.267927 0 0 1.5 0.139997 0.0110756 
-5.57627 -4.20892 -0.153703 0 0 1.5 0.141809 0.0152139 
-5.36331 -4.46986 -0.0401681 0 0 1.5 0.143085 0.0197261 
-5.12852 -4.71317 0.0699879 0 0 1.5 0.144057 0.0293723 
-4.88604 -4.94882 0.178998 0 0 1.5 0.143787 0.0345971 
-4.62742 -5.16839 0.285604 0 0 1.5 0.14305 0.0399487 
-4.35769 -5.37414 0.39085 0 0 1.5 0.140345 0.0505655 
-4.07743 -5.56677 0.494805 0 0 1.5 0.138472 0.0558931 
-3.78379 -5.73816 0.597811 0 0 1.5 0.136316 0.0611249 
-3.4848 -5.90105 0.700438 0 0 1.5 0.13393 0.0661238 
-3.1719 -6.03477 0.80336 0 0 1.5 0.128665 0.0754105 
-2.85636 -6.1616 0.906639 0 0 1.5 0.125871 0.0796425 
-2.5316 -6.26115 1.01191 0 0 1.5 0.123023 0.0835163 
-2.20455 -6.34969 1.11884 0 0 1.5 0.120154 0.0869936 
-1.87345 -6.41871 1.22871 0 0 1.5 0.114452 0.092649 
-1.54103 -6.47195 1.3424 0 0 1.5 0.111652 0.0948587 
-1.20763 -6.51345 1.45894 0 0 1.5 0.108894 0.0966318 
-0.875027 -6.53672 1.58217 0 0 1.5 0.106181 0.0979422 
-0.542653 -6.55473 1.70733 0 0 1.5 0.100862 0.099654 
-0.213684 -6.55426 1.84233 0 0 1.5 0.0982379 0.100181 
0.114416 -6.55095 1.97927 0 0 1.5 0.0956222 0.100492 
0.438109 -6.53481 2.12564 0 0 1.5 0.0903534 0.101444 
0.7599 -6.51499 2.27549 0 0 1.5 0.0876693 0.102416 
1.07756 -6.48717 2.43291 0 0 1.5 0.0849332 0.103812 
1.39221 -6.4549 2.59525 0 0 1.5 0.0821328 0.105943 
1.70358 -6.41774 2.76298 0 0 1.5 0.0763051 0.113687 
2.01107 -6.37535 2.93638 0 0 1.5 0.0732704 0.119717 
2.31634 -6.32993 3.11305 0 0 1.5 0.0701574 0.127686 
2.61721 -6.2781 3.29532 0 0 1.5 0.0669743 0.13811 
2.91693 -6.22457 3.47907 0 0 1.5 0.0604642 0.168349 
3.21202 -6.16273 3.66762 0 0 1.5 0.057189 0.189369 
3.50639 -6.09935 3.85679 0 0 1.5 0.0539513 0.215183 
3.79687 -6.02726 4.04883 0 0 1.5 0.0478179 0.283476 
4.08627 -5.95229 4.24136 0 0 1.5 0.0450773 0.3256 
4.37277 -5.86972 4.43517 0 0 1.5 0.0426884 0.370661 
4.6576 -5.78257 4.62934 0 0 1.5 0.0407726 0.414817 
4.94037 -5.68969 4.82396 0 0 1.5 0.0388755 0.474883 
5.2209 -5.59125 5.01903 0 0 1.5 0.0391084 0.47762 
5.50006 -5.4894 5.21437 0 0 1.5 0.0402004 0.459391 
5.77659 -5.38279 5.41088 0 0 1.5 0.0421392 0.424312 
6.05245 -5.27495 5.6077 0 0 1.5 0.04829 0.330938 
6.32565 -5.16562 5.80737 0 0 1.5 0.0523079 0.28469 
6.59844 -5.05696 6.00794 0 0 1.5 0.056825 0.243132 
6.86949 -4.95174 6.21269 0 0 1.5 0.0670274 0.177099 
7.13991 -4.85045 6.42015 0 0 1.5 0.0725682 0.152069 
7.40922 -4.75589 6.63226 0 0 1.5 0.0783218 0.131434 
7.6773 -4.67155 6.84994 0 0 1.5 0.0842359 0.11453 
7.9445 -4.59445 7.07156 0 0 1.5 0.096343 0.0895678 
8.20866 -4.53686 7.30235 0 0 1.5 0.102434 0.080488 
8.47166 -4.48567 7.53602 0 0 1.5 0.108482 0.0731696 
8.72865 -4.46078 7.78055 0 0 1.5 0.114432 0.0673248 
8.98215 -4.44663 8.02901 0 0 1.5 0.125818 0.0591702 
9.22905 -4.45282 8.28487 0 0 1.5 0.131131 0.0564894 
9.4674 -4.47854 8.54695 0 0 1.5 0.136114 0.0545111 
9.70062 -4.51599 8.81279 0 0 1.5 0.140709 0.0531545 
9.91881 -4.58017 9.08598 0 0 1.5 0.148505 0.0520061 
10.1319 -4.65225 9.36108 0 0 1.5 0.151607 0.0519541 
10.3302 -4.74586 9.64102 0 0 1.5 0.154126 0.0521882 
10.5193 -4.85121 9.92274 0 0 1.5 0.157292 0.0533882 
10.6987 -4.96897 10.2063 0 0 1.5 0.157902 0.0541517 
10.8631 -5.10464 10.4907 0 0 1.5 0.157857 0.0549969 
11.0214 -5.24773 10.7751 0 0 1.5 0.157162 0.0559374 
11.1638 -5.41056 11.0573 0 0 1.5 0.153896 0.0578063 
11.2979 -5.58472 11.3364 0 0 1.5 0.151397 0.0586513 
11.4233 -5.77109 11.6122 0 0 1.5 0.148377 0.0594439 
11.5349 -5.97944 11.8776 0 0 1.5 0.144881 0.06018 
11.6407 -6.19853 12.1366 0 0 1.5 0.136682 0.0614192 
11.7368 -6.43586 12.3833 0 0 1.5 0.132086 0.0619044 
11.825 -6.69086 12.6144 0 0 1.5 0.127225 0.0623506 
11.9091 -6.95559 12.8362 0 0 1.5 0.116918 0.0632246 
11.9865 -7.23813 13.0378 0 0 1.5 0.111564 0.0635929 
12.0613 -7.52908 13.2276 0 0 1.5 0.106129 0.0639987 
12.1337 -7.82756 13.4068 0 0 1.5 0.10065 0.064537 
12.2038 -8.1356 13.57 0 0 1.5 0.0896961 0.0658431 
12.2731 -8.44614 13.7287 0 0 1.5 0.0842735 0.0666983 
12.3407 -8.76315 13.8749 0 0 1.5 0.078918 0.0678997 
12.4075 -9.08177 14.0179 0 0 1.5 0.0736506 0.069427 
12.4728 -9.40368 14.1542 0 0 1.5 0.0634498 0.0735163 
12.5364 -9.72743 14.2868 0 0 1.5 0.0585444 0.0764376 
12.598 -10.0531 14.4156 0 0 1.5 0.0537852 0.0800655 
12.6558 -10.381 14.5404 0 0 1.5 0.0491839 0.0844515 
12.7114 -10.7104 14.6625 0 0 1.5 0.0404982 0.0967099 
12.7669 -11.0397 14.7847 0 0 1.5 0.0364336 0.105259 
12.8224 -11.369 14.9068 0 0 1.5 0.0325705 0.115837 
12.8779 -11.6984 15.029 0 0 1.5 0.0255004 0.146344 
12.9334 -12.0277 15.1512 0 0 1.5 0.0223184 0.168436 
12.9889 -12.357 15.2733 0 0 1.5 0.019396 0.196633 
13.0444 -12.6863 15.3955 0 0 1.5 0.0167571 0.23251 
13.0999 -13.0157 15.5176 0 0 1.5 0.0124352 0.331176 
13.1555 -13.345 15.6398 0 0 1.5 0.0108208 0.388057 
13.211 -13.6743 15.7619 0 0 1.5 0.00961473 0.436904 
13.2665 -14.0037 15.8841 0 0 1.5 0.00882369 0.462663 
13.322 -14.333 16.0063 0 0 1.5 0.00831833 0.416758 
13.3775 -14.6623 16.1284 0 0 1.5 0.0084295 0.364101 
13.433 -14.9916 16.2506 0 0 1.5 0.00865152 0.311206 
13.4885 -15.321 16.3727 0 0 1.5 0.00914017 0.227208 
13.544 -15.6503 16.4949 0 0 1.5 0.00931664 0.197808 
13.5996 -15.9796 16.617 0 0 1.5 0.00941609 0.175823 
13.6551 -16.309 16.7392 0 0 1.5 0.00942971 0.159545 
13.7106 -16.6383 16.8613 0 0 1.5 0.00919769 0.139104 
13.7661 -16.9676 16.9835 0 0 1.5 0.00896011 0.133866 
13.8216 -17.2969 17.1057 0 0 1.5 0.00865079 0.131241 
13.8771 -17.6263 17.2278 0 0 1.5 0.00827906 0.130765 
13.9326 -17.9556 17.35 0 0 1.5 0.0073897 0.136863 
13.9881 -18.2849 17.4721 0 0 1.5 0.00689369 0.143704 
14.0437 -18.6142 17.5943 0 0 1.5 0.006379 0.152994 
14.0992 -18.9436 17.7164 0 0 1.5 0.0053389 0.181438 
14.1547 -19.2729 17.8386 0 0 1.5 0.00483426 0.201767 
14.2102 -19.6022 17.9608 0 0 1.5 0.00435447 0.226183 
14.2657 -19.9316 18.0829 0 0 1.5 0.00391031 0.25487 
14.3212 -20.2609 18.2051 0 0 1.5 0.00316569 0.321856 
14.3767 -20.5902 18.3272 0 0 1.5 0.00288227 0.35243 
14.4323 -20.9195 18.4494 0 0 1.5 0.00266562 0.373839 
14.4878 -21.2489 18.5715 0 0 1.5 0.00251539 0.381651 
14.5433 -21.5782 18.6937 0 0 1.5 0.0023878 0.350138 
14.5988 -21.9075 18.8159 0 0 1.5 0.00238665 0.318773 
14.6543 -22.2369 18.938 0 0 1.5 0.00240894 0.285535 
14.7098 -22.5662 19.0602 0 0 1.5 0.00244278 0.253961 
14.7653 -22.8955 19.1823 0 0 1.5 0.00250944 0.202253 
14.8208 -23.2248 19.3045 0 0 1.5 0.00253076 0.183634 
14.8764 -23.5542 19.4266 0 0 1.5 0.00254024 0.169124 
14.9319 -23.8835 19.5488 0 0 1.5 0.00252058 0.149602 
14.9874 -24.2128 19.671 0 0 1.5 0.0024919 0.143976 
15.0429 -24.5422 19.7931 0 0 1.5 0.00245194 0.140504 
15.0984 -24.8715 19.9153 0 0 1.5 0.0024022 0.138718 
15.1539 -25.2008 20.0374 0 0 1.5 0.00228071 0.139904 
15.2094 -25.5301 20.1596 0 0 1.5 0.0022131 0.142437 
15.2649 -25.8595 20.2817 0 0 1.5 0.00214394 0.145663 
15.3205 -26.1888 20.4039 0 0 1.5 0.00207548 0.149396 
15.376 -26.5181 20.5261 0 0 1.5 0.00194778 0.157538 
15.4315 -26.8475 20.6482 0 0 1.5 0.00189192 0.160823 
15.487 -27.1768 20.7704 0 0 1.5 0.00184335 0.163093 
15.5425 -27.5061 20.8925 0 0 1.5 0.00177093 0.1639 
15.598 -27.8354 21.0147 0 0 1.5 0.00174798 0.161713 
15.6535 -28.1648 21.1368 0 0 1.5 0.00173406 0.15785 
15.709 -28.4941 21.259 0 0 1.5 0.00172872 0.152727 
15.7646 -28.8234 21.3812 0 0 1.5 0.00174143 0.139344 
15.8201 -29.1528 21.5033 0 0 1.5 0.00175824 0.131721 
15.8756 -29.4821 21.6255 0 0 1.5 0.00178101 0.12411 
15.9311 -29.8114 21.7476 0 0 1.5 0.00180906 0.116702 
15.9866 -30.1407 21.8698 0 0 1.5 0.00187879 0.103067 
16.0421 -30.4701 21.9919 0 0 1.5 0.00191965 0.0971278 
16.0976 -30.7994 22.1141 0 0 1.5 0.00196413 0.0918255 
0 1 0 
1 2 0 
2 3 0 
3 4 0 
4 5 0 
5 6 0 
6 7 0 
7 8 0 
8 9 0 
9 10 0 
10 11 0 
11 12 0 
12 13 0 
13 14 0 
14 15 0 
15 16 0 
16 17 0 
17 18 0 
18 19 0 
19 20 0 
20 21 0 
21 22 0 
22 23 0 
23 24 0 
24 25 0 
25 26 0 
26 27 0 
27 28 0 
28 29 0 
29 30 0 
30 31 0 
31 32 0 
32 33 0 
33 34 0 
34 35 0 
35 36 0 
36 37 0 
37 38 0 
38 39 0 
39 40 0 
40 41 0 
41 42 0 
42 43 0 
43 44 0 
44 45 0 
45 46 0 
46 47 0 
47 48 0 
48 49 0 
49 50 0 
50 51 0 
51 52 0 
52 53 0 
53 54 0 
54 55 0 
55 56 0 
56 57 0 
57 58 0 
58 59 0 
59 60 0 
60 61 0 
61 62 0 
62 63 0 
63 64 0 
64 65 0 
65 66 0 
66 67 0 
67 68 0 
68 69 0 
69 70 0 
70 71 0 
71 72 0 
72 73 0 
73 74 0 
74 75 0 
75 76 0 
76 77 0 
77 78 0 
78 79 0 
79 80 0 
80 81 0 
81 82 0 
82 83 0 
83 84 0 
84 85 0 
85 86 0 
86 87 0 
87 88 0 
88 89 0 
89 90 0 
90 91 0 
91 92 0 
92 93 0 
93 94 0 
94 95 0 
95 96 0 
96 97 0 
97 98 0 
98 99 0 
99 100 0 
100 101 0 
101 102 0 
102 103 0 
103 104 0 
104 105 0 
105 106 0 
106 107 0 
107 108 0 
108 109 0 
109 110 0 
110 111 0 
111 112 0 
112 113 0 
113 114 0 
114 115 0 
115 116 0 
116 117 0 
117 118 0 
118 119 0 
119 120 0 
120 121 0 
121 122 0 
122 123 0 
123 124 0 
124 125 0 
125 126 0 
126 127 0 
127 128 0 
128 129 0 
129 130 0 
130 131 0 
131 132 0 
132 133 0 
133 134 0 
134 135 0 
135 136 0 
136 137 0 
137 138 0 
138 139 0 
139 140 0 
140 141 0 
141 142 0 
142 143 0 
143 144 0 
144 145 0 
145 146 0 
146 147 0 
147 148 0 
148 149 0 
149 150 0 
150 151 0 
151 152 0 
152 153 0 
153 154 0 
154 155 0 
155 156 0 
156 157 0 
157 158 0 
158 159 0 
159 160 0 
160 161 0 
161 162 0 
162 163 0 
163 164 0 
164 165 0 
165 166 0 
166 167 0 
167 168 0 
168 169 0 
169 170 0 
170 171 0 
171 172 0 
172 173 0 
173 174 0 
174 175 0 
175 176 0 
176 177 0 
177 178 0 
178 179 0 
179 180 0 
180 181 0 
181 182 0 
182 183 0 
183 184 0 
184 185 0 
185 186 0 
186 187 0 
187 188 0 
188 189 0 
189 190 0 
190 191 0 
191 192 0 
192 193 0 
193 194 0 
194 195 0 
195 196 0 
196 197 0 
197 198 0 
198 199 0 
199 200 0 
200 201 0 
201 202 0 
202 203 0 
203 204 0 
204 205 0 
205 206 0 
206 207 0 
207 208 0 
208 209 0 
209 210 0 
210 211 0 
211 212 0 
212 213 0 
213 214 0 
214 215 0 
215 216 0 
216 217 0 
217 218 0 
218 219 0 
219 220 0 
220 221 0 
221 222 0 
222 223 0 
223 224 0 
224 225 0 
225 226 0 
226 227 0 
227 228 0 
228 229 0 
229 230 0 
230 231 0 
231 232 0 
232 233 0 
233 234 0 
234 235 0 
235 236 0 
236 237 0 
237 238 0 
238 239 0 
239 240 0 
240 241 0 
241 242 0 
242 243 0 
243 244 0 
244 245 0 
245 246 0 
246 247 0 
247 248 0 
248 249 0 
249 250 0 
250 251 0 
251 252 0 
252 253 0 
253 254 0 
254 255 0 
255 256 0 
256 257 0 
257 258 0 
258 259 0 
259 260 0 
260 261 0 
261 262 0 
262 263 0 
263 264 0 
264 265 0 
265 266 0 
266 267 0 
267 268 0 
268 269 0 
269 270 0 
270 271 0 
271 272 0 
272 273 0 
273 274 0 
274 275 0 
275 276 0 
276 277 0 
277 278 0 
278 279 0 
279 280 0 
280 281 0 
281 282 0 
282 283 0 
283 284 0 
284 285 0 
285 286 0 
286 287 0 
287 288 0 
288 289 0 
289 290 0 
290 291 0 
291 292 0 
292 293 0 
293 294 0 
294 295 0 
295 296 0 
296 297 0 
297 298 0 
298 299 0 
-1 -1 0 
-1 300 0 1 2 3 4 5 6 7 8 9 10 11 12 13 14 15 16 17 18 19 20 21 22 23 24 25 26 27 28 29 30 31 32 33 34 35 36 37 38 39 40 41 42 43 44 45 46 47 48 49 50 51 52 53 54 55 56 57 58 59 60 61 62 63 64 65 66 67 68 69 70 71 72 73 74 75 76 77 78 79 80 81 82 83 84 85 86 87 88 89 90 91 92 93 94 95 96 97 98 99 100 101 102 103 104 105 106 107 108 109 110 111 112 113 114 115 116 117 118 119 120 121 122 123 124 125 126 127 128 129 130 131 132 133 134 135 136 137 138 139 140 141 142 143 144 145 146 147 148 149 150 151 152 153 154 155 156 157 158 159 160 161 162 163 164 165 166 167 168 169 170 171 172 173 174 175 176 177 178 179 180 181 182 183 184 185 186 187 188 189 190 191 192 193 194 195 196 197 198 199 200 201 202 203 204 205 206 207 208 209 210 211 212 213 214 215 216 217 218 219 220 221 222 223 224 225 226 227 228 229 230 231 232 233 234 235 236 237 238 239 240 241 242 243 244 245 246 247 248 249 250 251 252 253 254 255 256 257 258 259 260 261 262 263 264 265 266 267 268 269 270 271 272 273 274 275 276 277 278 279 280 281 282 283 284 285 286 287 288 289 290 291 292 293 294 295 296 297 298 299 
