ply
format ascii 1.0
comment written by koba@oshima.lab
element vertex 300
property float x
property float y
property float z
property int label
property int attribute
property float radius
property float curvature
property float torsion
element edge 300
property int vertex1
property int vertex2
property int label
element vertex_seq 1
property int label
property list int int vertex_indices
end_header
4.41921 30.968 -5.71246 0 0 1.5 0.0301288 0.0412751 
4.20098 30.7209 -5.8097 0 0 1.5 0.0286968 0.0456608 
3.98276 30.4739 -5.90694 0 0 1.5 0.027255 0.0510877 
3.76453 30.2268 -6.00419 0 0 1.5 0.0257971 0.0578673 
3.5463 29.9797 -6.10143 0 0 1.5 0.0228092 0.077338 
3.32807 29.7327 -6.19867 0 0 1.5 0.0212695 0.0914045 
3.10984 29.4856 -6.29591 0 0 1.5 0.0196948 0.109905 
2.89161 29.2385 -6.39316 0 0 1.5 0.0180843 0.134786 
2.67339 28.9915 -6.4904 0 0 1.5 0.0147745 0.216444 
2.45516 28.7444 -6.58764 0 0 1.5 0.0131039 0.284997 
2.23693 28.4974 -6.68489 0 0 1.5 0.0114652 0.385968 
2.0187 28.2503 -6.78213 0 0 1.5 0.00992516 0.533646 
1.80047 28.0032 -6.87937 0 0 1.5 0.00769617 0.949621 
1.58224 27.7562 -6.97661 0 0 1.5 0.00743971 1.05181 
1.36402 27.5091 -7.07386 0 0 1.5 0.00797905 0.946289 
1.14579 27.2621 -7.1711 0 0 1.5 0.0110223 0.531013 
0.92756 27.015 -7.26834 0 0 1.5 0.0131481 0.387352 
0.709332 26.7679 -7.36559 0 0 1.5 0.0154959 0.289996 
0.491104 26.5209 -7.46283 0 0 1.5 0.0179803 0.224338 
0.272875 26.2738 -7.56007 0 0 1.5 0.0231301 0.148741 
0.054647 26.0268 -7.65731 0 0 1.5 0.0257113 0.126874 
-0.163581 25.7797 -7.75456 0 0 1.5 0.0282438 0.111144 
-0.38181 25.5326 -7.8518 0 0 1.5 0.0306893 0.09993 
-0.600038 25.2856 -7.94904 0 0 1.5 0.0351761 0.0869495 
-0.818266 25.0385 -8.04629 0 0 1.5 0.0371406 0.0838055 
-1.03649 24.7915 -8.14353 0 0 1.5 0.0388641 0.0825764 
-1.25472 24.5444 -8.24077 0 0 1.5 0.0414332 0.085594 
-1.47295 24.2973 -8.33801 0 0 1.5 0.0422061 0.0896551 
-1.69118 24.0503 -8.43526 0 0 1.5 0.0425933 0.0958335 
-1.90941 23.8032 -8.5325 0 0 1.5 0.0425654 0.104748 
-2.12764 23.5562 -8.62974 0 0 1.5 0.041184 0.133362 
-2.34586 23.3091 -8.72699 0 0 1.5 0.0398193 0.155819 
-2.56409 23.062 -8.82423 0 0 1.5 0.0380167 0.187178 
-2.78232 22.815 -8.92147 0 0 1.5 0.0358136 0.231092 
-3.00055 22.5679 -9.01871 0 0 1.5 0.03062 0.37972 
-3.21878 22.3208 -9.11596 0 0 1.5 0.0280369 0.498543 
-3.43701 22.0738 -9.2132 0 0 1.5 0.0259749 0.640705 
-3.65523 21.8267 -9.31044 0 0 1.5 0.0250619 0.760058 
-3.88726 21.5839 -9.38084 0 0 1.5 0.0290511 0.698225 
-4.12462 21.3427 -9.44085 0 0 1.5 0.0342518 0.561772 
-4.36978 21.1062 -9.48266 0 0 1.5 0.0412323 0.43484 
-4.62143 20.8737 -9.50934 0 0 1.5 0.0592501 0.26902 
-4.87836 20.6462 -9.52171 0 0 1.5 0.0698501 0.220432 
-5.13998 20.4234 -9.52143 0 0 1.5 0.0812954 0.18588 
-5.40605 20.2064 -9.50878 0 0 1.5 0.093439 0.161279 
-5.67435 19.9925 -9.4899 0 0 1.5 0.119175 0.131318 
-5.94684 19.7847 -9.46318 0 0 1.5 0.132358 0.12239 
-6.22054 19.5784 -9.43808 0 0 1.5 0.145397 0.116315 
-6.49575 19.3737 -9.41652 0 0 1.5 0.157963 0.112609 
-6.77039 19.1671 -9.41744 0 0 1.5 0.180191 0.109912 
-7.03811 18.9559 -9.45624 0 0 1.5 0.18909 0.110352 
-7.28489 18.7408 -9.55624 0 0 1.5 0.196019 0.11196 
-7.48879 18.5295 -9.73159 0 0 1.5 0.202881 0.117778 
-7.63912 18.3309 -9.96689 0 0 1.5 0.202571 0.121922 
-7.74696 18.1444 -10.2339 0 0 1.5 0.199789 0.127169 
-7.82823 17.9643 -10.5146 0 0 1.5 0.194696 0.133548 
-7.89304 17.7866 -10.8014 0 0 1.5 0.178804 0.150238 
-7.9436 17.609 -11.0913 0 0 1.5 0.168725 0.161561 
-7.98334 17.4278 -11.3806 0 0 1.5 0.157719 0.175593 
-8.01848 17.2447 -11.6692 0 0 1.5 0.146168 0.192929 
-8.04353 17.0542 -11.9542 0 0 1.5 0.122792 0.24197 
-8.06476 16.86 -12.2369 0 0 1.5 0.111574 0.2764 
-8.079 16.6589 -12.5152 0 0 1.5 0.101089 0.318911 
-8.08765 16.4517 -12.7891 0 0 1.5 0.0837921 0.425127 
-8.0907 16.2383 -13.0584 0 0 1.5 0.0778773 0.477586 
-8.08684 16.0172 -13.3213 0 0 1.5 0.074487 0.512216 
-8.07804 15.7906 -13.5796 0 0 1.5 0.0740909 0.514095 
-8.0617 15.5555 -13.8295 0 0 1.5 0.0830029 0.420118 
-8.04082 15.3153 -14.0744 0 0 1.5 0.0920614 0.353027 
-8.0126 15.0661 -14.3092 0 0 1.5 0.103845 0.290786 
-7.98031 14.812 -14.5384 0 0 1.5 0.118151 0.238646 
-7.94167 14.5486 -14.7553 0 0 1.5 0.154109 0.164771 
-7.8998 14.2803 -14.966 0 0 1.5 0.175916 0.139512 
-7.85332 14.0015 -15.1612 0 0 1.5 0.20049 0.119613 
-7.80493 13.7183 -15.3498 0 0 1.5 0.228032 0.103732 
-7.75481 13.4223 -15.5166 0 0 1.5 0.292698 0.0798332 
-7.70426 13.1231 -15.678 0 0 1.5 0.329843 0.0701575 
-7.6573 12.8072 -15.8047 0 0 1.5 0.369788 0.0612887 
-7.61366 12.4862 -15.9173 0 0 1.5 0.454335 0.0442673 
-7.57802 12.1536 -15.9962 0 0 1.5 0.495467 0.0352318 
-7.55778 11.8133 -16.028 0 0 1.5 0.532383 0.025626 
-7.5532 11.4723 -16.0163 0 0 1.5 0.561967 0.0154874 
-7.57049 11.1364 -15.9477 0 0 1.5 0.587824 -0.00642327 
-7.62391 10.8343 -15.7926 0 0 1.5 0.580938 -0.0176078 
-7.70202 10.5779 -15.5819 0 0 1.5 0.561387 -0.0282758 
-7.79759 10.3657 -15.3325 0 0 1.5 0.531416 -0.038346 
-7.90537 10.1917 -15.0565 0 0 1.5 0.452444 -0.0568695 
-8.02393 10.0762 -14.7553 0 0 1.5 0.409355 -0.0654768 
-8.14386 9.97941 -14.449 0 0 1.5 0.366892 -0.074126 
-8.26572 9.90963 -14.1353 0 0 1.5 0.288849 -0.0934335 
-8.38635 9.86171 -13.8175 0 0 1.5 0.254478 -0.104767 
-8.50636 9.82459 -13.4976 0 0 1.5 0.223437 -0.118066 
-8.6217 9.80557 -13.1745 0 0 1.5 0.195632 -0.134215 
-8.73604 9.79042 -12.8507 0 0 1.5 0.148932 -0.179297 
-8.84203 9.78671 -12.5239 0 0 1.5 0.129619 -0.211038 
-8.94723 9.78409 -12.1967 0 0 1.5 0.112778 -0.251195 
-9.03978 9.78552 -11.8657 0 0 1.5 0.0983258 -0.301242 
-9.13064 9.78666 -11.5343 0 0 1.5 0.0767134 -0.42646 
-9.20605 9.78424 -11.199 0 0 1.5 0.0698199 -0.486773 
-9.27599 9.77891 -10.8627 0 0 1.5 0.0657281 -0.526131 
-9.32986 9.76505 -10.5235 0 0 1.5 0.0657096 -0.502558 
-9.37083 9.74233 -10.1834 0 0 1.5 0.0691181 -0.452271 
-9.39878 9.71068 -9.84235 0 0 1.5 0.0741477 -0.396326 
-9.40303 9.66131 -9.50255 0 0 1.5 0.0803409 -0.344723 
-9.39613 9.60358 -9.16414 0 0 1.5 0.0948148 -0.266752 
-9.36585 9.52829 -8.83018 0 0 1.5 0.102573 -0.240072 
-9.31903 9.44114 -8.50144 0 0 1.5 0.110436 -0.219869 
-9.2609 9.34595 -8.17643 0 0 1.5 0.118264 -0.204766 
-9.18259 9.23731 -7.85991 0 0 1.5 0.133281 -0.185799 
-9.09648 9.12374 -7.54733 0 0 1.5 0.140218 -0.180317 
-9.00259 9.00526 -7.23868 0 0 1.5 0.146612 -0.176735 
-8.89944 8.88002 -6.93572 0 0 1.5 0.15234 -0.174675 
-8.79377 8.75157 -6.63501 0 0 1.5 0.161348 -0.173594 
-8.68494 8.6185 -6.33741 0 0 1.5 0.164462 -0.173892 
-8.57495 8.47692 -6.04422 0 0 1.5 0.166564 -0.174433 
-8.46501 8.3291 -5.75419 0 0 1.5 0.167603 -0.175719 
-8.35584 8.16988 -5.46985 0 0 1.5 0.166549 -0.176159 
-8.24866 7.99405 -5.1949 0 0 1.5 0.164488 -0.176272 
-8.14308 7.80601 -4.92768 0 0 1.5 0.161475 -0.176112 
-8.04035 7.5976 -4.67444 0 0 1.5 0.152929 -0.174992 
-7.94132 7.36727 -4.43995 0 0 1.5 0.147588 -0.173842 
-7.84506 7.1231 -4.21875 0 0 1.5 0.141662 -0.172448 
-7.75351 6.8586 -4.01931 0 0 1.5 0.135257 -0.170979 
-7.66743 6.57852 -3.84049 0 0 1.5 0.121384 -0.167469 
-7.5847 6.29011 -3.67317 0 0 1.5 0.114077 -0.16565 
-7.50994 5.98773 -3.52793 0 0 1.5 0.106617 -0.164202 
-7.44004 5.68035 -3.39152 0 0 1.5 0.09147 -0.16212 
-7.37546 5.36748 -3.26478 0 0 1.5 0.0838629 -0.161795 
-7.3194 5.04986 -3.14626 0 0 1.5 0.0762721 -0.162589 
-7.2662 4.73078 -3.0302 0 0 1.5 0.0687173 -0.164677 
-7.22391 4.40917 -2.91663 0 0 1.5 0.053752 -0.17498 
-7.18463 4.08767 -2.8018 0 0 1.5 0.0463481 -0.186846 
-7.15339 3.76647 -2.6836 0 0 1.5 0.0389995 -0.207559 
-7.12705 3.44686 -2.5602 0 0 1.5 0.0317089 -0.245213 
-7.10561 3.12886 -2.43163 0 0 1.5 0.0173846 -0.519472 
-7.08958 2.8149 -2.29293 0 0 1.5 0.0106095 -1.19289 
-7.07553 2.50242 -2.15053 0 0 1.5 0.00552033 -4.08546 
-7.06513 2.19668 -1.99393 0 0 1.5 0.00749407 -2.26075 
-7.05462 1.89266 -1.83409 0 0 1.5 0.020824 -0.3794 
-7.04341 1.59406 -1.6643 0 0 1.5 0.0280492 -0.251654 
-7.02922 1.29817 -1.49015 0 0 1.5 0.0353487 -0.191926 
-7.01181 1.00523 -1.31126 0 0 1.5 0.0499963 -0.13697 
-6.98574 0.714996 -1.12913 0 0 1.5 0.0572755 -0.122233 
-6.95649 0.425725 -0.945873 0 0 1.5 0.0644733 -0.111229 
-6.91048 0.13824 -0.76324 0 0 1.5 0.0715503 -0.102399 
-6.85838 -0.148937 -0.582041 0 0 1.5 0.0851457 -0.0884812 
-6.7909 -0.435343 -0.404452 0 0 1.5 0.0915469 -0.0827101 
-6.70929 -0.720649 -0.231571 0 0 1.5 0.097609 -0.0774704 
-6.61685 -1.00511 -0.0622976 0 0 1.5 0.103275 -0.0725402 
-6.50127 -1.28586 0.0984348 0 0 1.5 0.113182 -0.06317 
-6.37785 -1.56488 0.2563 0 0 1.5 0.117316 -0.0588004 
-6.23034 -1.83713 0.405428 0 0 1.5 0.120848 -0.0545128 
-6.07151 -2.10454 0.550862 0 0 1.5 0.125973 -0.0459158 
-5.89676 -2.36515 0.691094 0 0 1.5 0.12754 -0.0417167 
-5.70468 -2.61545 0.826651 0 0 1.5 0.128455 -0.0374893 
-5.50458 -2.86098 0.96004 0 0 1.5 0.128739 -0.0331366 
-5.28339 -3.09005 1.08916 0 0 1.5 0.127559 -0.0242847 
-5.05748 -3.31476 1.21754 0 0 1.5 0.126204 -0.0197453 
-4.81569 -3.52384 1.3438 0 0 1.5 0.124423 -0.0150113 
-4.56782 -3.72558 1.46966 0 0 1.5 0.122281 -0.0100916 
-4.31035 -3.9157 1.59488 0 0 1.5 0.117192 0.00034171 
-4.04559 -4.0953 1.71997 0 0 1.5 0.114382 0.00600305 
-3.77565 -4.26742 1.84499 0 0 1.5 0.111478 0.0119929 
-3.49821 -4.42702 1.96991 0 0 1.5 0.10561 0.0250014 
-3.21847 -4.5828 2.0948 0 0 1.5 0.102742 0.0321059 
-2.93138 -4.72497 2.21917 0 0 1.5 0.0999721 0.0396046 
-2.64314 -4.86494 2.34339 0 0 1.5 0.0973283 0.0474688 
-2.349 -4.99321 2.46645 0 0 1.5 0.0925044 0.0642912 
-2.05338 -5.11849 2.58893 0 0 1.5 0.0903539 0.073131 
-1.75347 -5.23506 2.70969 0 0 1.5 0.0883836 0.0821119 
-1.45131 -5.34698 2.82907 0 0 1.5 0.0865911 0.0912067 
-1.146 -5.4524 2.94651 0 0 1.5 0.0835156 0.109577 
-0.837634 -5.55118 3.06153 0 0 1.5 0.0822073 0.118732 
-0.527102 -5.64526 3.17484 0 0 1.5 0.0810273 0.127882 
-0.212751 -5.73017 3.28464 0 0 1.5 0.0799559 0.137076 
0.102801 -5.8122 3.39334 0 0 1.5 0.0780523 0.155268 
0.422791 -5.88151 3.4978 0 0 1.5 0.077174 0.164327 
0.743609 -5.94799 3.60145 0 0 1.5 0.076315 0.173547 
1.06796 -6.00161 3.70166 0 0 1.5 0.0745778 0.192472 
1.3934 -6.0496 3.80086 0 0 1.5 0.0736677 0.202365 
1.72095 -6.08668 3.89809 0 0 1.5 0.072713 0.212821 
2.04957 -6.11409 3.99449 0 0 1.5 0.0717057 0.223846 
2.37909 -6.13346 4.0902 0 0 1.5 0.0695346 0.247663 
2.70898 -6.13924 4.18611 0 0 1.5 0.0683805 0.260818 
3.03899 -6.14056 4.28209 0 0 1.5 0.0671951 0.274798 
3.36795 -6.12517 4.38035 0 0 1.5 0.0660002 0.289401 
3.69644 -6.10651 4.47947 0 0 1.5 0.0636904 0.320328 
4.02281 -6.07486 4.58244 0 0 1.5 0.0626387 0.336147 
4.34776 -6.03862 4.68808 0 0 1.5 0.0617103 0.351375 
4.6703 -5.99454 4.79827 0 0 1.5 0.0604003 0.377905 
4.99005 -5.94561 4.91421 0 0 1.5 0.0601049 0.387817 
5.30771 -5.89309 5.03441 0 0 1.5 0.0601123 0.394218 
5.62075 -5.8375 5.1648 0 0 1.5 0.0604651 0.396486 
5.93243 -5.7811 5.29817 0 0 1.5 0.062323 0.387748 
6.23707 -5.72561 5.44728 0 0 1.5 0.0638631 0.376867 
6.5394 -5.67158 5.60126 0 0 1.5 0.0658171 0.362461 
6.83524 -5.62165 5.76889 0 0 1.5 0.0681754 0.345502 
7.1253 -5.5769 5.94729 0 0 1.5 0.0740424 0.30642 
7.41035 -5.53663 6.13504 0 0 1.5 0.077516 0.285608 
7.68482 -5.50702 6.3395 0 0 1.5 0.0813153 0.264897 
7.9552 -5.48171 6.54993 0 0 1.5 0.0897724 0.224999 
8.21374 -5.46939 6.77603 0 0 1.5 0.094372 0.206196 
8.46619 -5.4646 7.00885 0 0 1.5 0.0991733 0.188363 
8.71138 -5.46876 7.24965 0 0 1.5 0.104139 0.171508 
8.94787 -5.48638 7.49821 0 0 1.5 0.114411 0.140446 
9.18116 -5.50949 7.74947 0 0 1.5 0.11963 0.126085 
9.40716 -5.54997 8.00521 0 0 1.5 0.124838 0.112493 
9.63145 -5.59836 8.26087 0 0 1.5 0.129983 0.0996397 
9.85297 -5.65962 8.5164 0 0 1.5 0.139858 0.0755287 
10.0732 -5.73701 8.76836 0 0 1.5 0.144461 0.0642248 
10.2929 -5.82192 9.01866 0 0 1.5 0.148759 0.0535301 
10.5115 -5.93349 9.25924 0 0 1.5 0.152688 0.0432687 
10.7292 -6.05443 9.49558 0 0 1.5 0.159193 0.0237174 
10.945 -6.19629 9.72237 0 0 1.5 0.161659 0.0147166 
11.1567 -6.35787 9.93895 0 0 1.5 0.163543 0.00612873 
11.3658 -6.53135 10.1494 0 0 1.5 0.16543 -0.0101135 
11.5634 -6.73469 10.3434 0 0 1.5 0.165393 -0.0175673 
11.7554 -6.94764 10.5322 0 0 1.5 0.164696 -0.0246477 
11.9342 -7.1818 10.7092 0 0 1.5 0.163342 -0.0314548 
12.0988 -7.43097 10.8782 0 0 1.5 0.158755 -0.0437937 
12.2537 -7.69052 11.0418 0 0 1.5 0.155603 -0.0492521 
12.3835 -7.96828 11.1967 0 0 1.5 0.151943 -0.0543072 
12.5048 -8.25089 11.3496 0 0 1.5 0.147826 -0.0589828 
12.6009 -8.54578 11.4977 0 0 1.5 0.138464 -0.0672076 
12.6829 -8.84495 11.6447 0 0 1.5 0.133338 -0.0707667 
12.7474 -9.14945 11.7904 0 0 1.5 0.127987 -0.0740635 
12.7912 -9.45733 11.9361 0 0 1.5 0.116828 -0.080113 
12.8256 -9.76671 12.0817 0 0 1.5 0.111116 -0.0827843 
12.8353 -10.0773 12.2283 0 0 1.5 0.105368 -0.0853752 
12.8399 -10.388 12.3751 0 0 1.5 0.0996216 -0.0880674 
12.8245 -10.6981 12.5225 0 0 1.5 0.0882576 -0.0935117 
12.8035 -11.0078 12.6697 0 0 1.5 0.0826892 -0.0964215 
12.7703 -11.3168 12.8165 0 0 1.5 0.077224 -0.0998267 
12.7306 -11.6257 12.9616 0 0 1.5 0.0718805 -0.103703 
12.6843 -11.9345 13.1051 0 0 1.5 0.0616197 -0.112997 
12.632 -12.2444 13.2443 0 0 1.5 0.0567264 -0.119061 
12.5767 -12.5547 13.3814 0 0 1.5 0.0520052 -0.126289 
12.5215 -12.8649 13.5184 0 0 1.5 0.0474671 -0.134764 
12.4662 -13.1752 13.6555 0 0 1.5 0.0389805 -0.157451 
12.4109 -13.4855 13.7925 0 0 1.5 0.0350514 -0.172711 
12.3557 -13.7958 13.9295 0 0 1.5 0.0313484 -0.191119 
12.3004 -14.1061 14.0666 0 0 1.5 0.0246742 -0.24174 
12.2452 -14.4164 14.2036 0 0 1.5 0.0217306 -0.276278 
12.1899 -14.7267 14.3407 0 0 1.5 0.0190748 -0.317729 
12.1346 -15.037 14.4777 0 0 1.5 0.01673 -0.366227 
12.0794 -15.3473 14.6148 0 0 1.5 0.0130563 -0.475574 
12.0241 -15.6576 14.7518 0 0 1.5 0.0117637 -0.521597 
11.9688 -15.9679 14.8889 0 0 1.5 0.0108365 -0.548034 
11.9136 -16.2782 15.0259 0 0 1.5 0.0102449 -0.548337 
11.8583 -16.5885 15.1629 0 0 1.5 0.00982985 -0.478739 
11.803 -16.8988 15.3 0 0 1.5 0.00985695 -0.427714 
11.7478 -17.2091 15.437 0 0 1.5 0.00994639 -0.378556 
11.6925 -17.5194 15.5741 0 0 1.5 0.0101173 -0.29837 
11.6372 -17.8297 15.7111 0 0 1.5 0.0101367 -0.268817 
11.582 -18.14 15.8482 0 0 1.5 0.0100896 -0.24624 
11.5267 -18.4503 15.9852 0 0 1.5 0.00997049 -0.229313 
11.4714 -18.7606 16.1223 0 0 1.5 0.00951968 -0.208239 
11.4162 -19.0709 16.2593 0 0 1.5 0.00919683 -0.20353 
11.3609 -19.3812 16.3964 0 0 1.5 0.00881806 -0.202082 
11.3056 -19.6914 16.5334 0 0 1.5 0.00839235 -0.203363 
11.2504 -20.0017 16.6704 0 0 1.5 0.00743906 -0.215323 
11.1951 -20.312 16.8075 0 0 1.5 0.00693159 -0.226369 
11.1398 -20.6223 16.9445 0 0 1.5 0.00641807 -0.240463 
11.0846 -20.9326 17.0816 0 0 1.5 0.00541444 -0.280193 
11.0293 -21.2429 17.2186 0 0 1.5 0.00494314 -0.306286 
10.9741 -21.5532 17.3557 0 0 1.5 0.00450497 -0.335208 
10.9188 -21.8635 17.4927 0 0 1.5 0.00410866 -0.366017 
10.8635 -22.1738 17.6298 0 0 1.5 0.00346646 -0.425287 
10.8083 -22.4841 17.7668 0 0 1.5 0.00322904 -0.444803 
10.753 -22.7944 17.9038 0 0 1.5 0.00304805 -0.452853 
10.6977 -23.1047 18.0409 0 0 1.5 0.00291903 -0.448844 
10.6425 -23.415 18.1779 0 0 1.5 0.00278551 -0.407517 
10.5872 -23.7253 18.315 0 0 1.5 0.00276108 -0.377282 
10.5319 -24.0356 18.452 0 0 1.5 0.00275147 -0.34674 
10.4767 -24.3459 18.5891 0 0 1.5 0.00274846 -0.317868 
10.4214 -24.6562 18.7261 0 0 1.5 0.00273771 -0.269357 
10.3661 -24.9665 18.8632 0 0 1.5 0.00272198 -0.251663 
10.3109 -25.2768 19.0002 0 0 1.5 0.00269684 -0.237935 
10.2556 -25.5871 19.1372 0 0 1.5 0.00261735 -0.220082 
10.2003 -25.8974 19.2743 0 0 1.5 0.00256402 -0.215752 
10.1451 -26.2077 19.4113 0 0 1.5 0.00250309 -0.21393 
10.0898 -26.5179 19.5484 0 0 1.5 0.0024362 -0.214052 
10.0345 -26.8282 19.6854 0 0 1.5 0.00229202 -0.219914 
9.97928 -27.1385 19.8225 0 0 1.5 0.00221889 -0.224968 
9.92401 -27.4488 19.9595 0 0 1.5 0.0021481 -0.230398 
9.86875 -27.7591 20.0966 0 0 1.5 0.00208183 -0.235795 
9.81348 -28.0694 20.2336 0 0 1.5 0.00196937 -0.244739 
9.75822 -28.3797 20.3707 0 0 1.5 0.00192608 -0.246439 
9.70295 -28.69 20.5077 0 0 1.5 0.00189286 -0.245653 
9.64769 -29.0003 20.6447 0 0 1.5 0.00185748 -0.236606 
9.59242 -29.3106 20.7818 0 0 1.5 0.0018551 -0.228012 
9.53716 -29.6209 20.9188 0 0 1.5 0.00186233 -0.217322 
9.48189 -29.9312 21.0559 0 0 1.5 0.00187826 -0.205432 
9.42663 -30.2415 21.1929 0 0 1.5 0.00193233 -0.179665 
9.37136 -30.5518 21.33 0 0 1.5 0.00196872 -0.166767 
9.3161 -30.8621 21.467 0 0 1.5 0.00201019 -0.154622 
9.26083 -31.1724 21.6041 0 0 1.5 0.002056 -0.143375 
9.20557 -31.4827 21.7411 0 0 1.5 0.00215864 -0.12385 
9.1503 -31.793 21.8781 0 0 1.5 0.00221477 -0.115722 
9.09504 -32.1033 22.0152 0 0 1.5 0.00227386 -0.108634 
0 1 0 
1 2 0 
2 3 0 
3 4 0 
4 5 0 
5 6 0 
6 7 0 
7 8 0 
8 9 0 
9 10 0 
10 11 0 
11 12 0 
12 13 0 
13 14 0 
14 15 0 
15 16 0 
16 17 0 
17 18 0 
18 19 0 
19 20 0 
20 21 0 
21 22 0 
22 23 0 
23 24 0 
24 25 0 
25 26 0 
26 27 0 
27 28 0 
28 29 0 
29 30 0 
30 31 0 
31 32 0 
32 33 0 
33 34 0 
34 35 0 
35 36 0 
36 37 0 
37 38 0 
38 39 0 
39 40 0 
40 41 0 
41 42 0 
42 43 0 
43 44 0 
44 45 0 
45 46 0 
46 47 0 
47 48 0 
48 49 0 
49 50 0 
50 51 0 
51 52 0 
52 53 0 
53 54 0 
54 55 0 
55 56 0 
56 57 0 
57 58 0 
58 59 0 
59 60 0 
60 61 0 
61 62 0 
62 63 0 
63 64 0 
64 65 0 
65 66 0 
66 67 0 
67 68 0 
68 69 0 
69 70 0 
70 71 0 
71 72 0 
72 73 0 
73 74 0 
74 75 0 
75 76 0 
76 77 0 
77 78 0 
78 79 0 
79 80 0 
80 81 0 
81 82 0 
82 83 0 
83 84 0 
84 85 0 
85 86 0 
86 87 0 
87 88 0 
88 89 0 
89 90 0 
90 91 0 
91 92 0 
92 93 0 
93 94 0 
94 95 0 
95 96 0 
96 97 0 
97 98 0 
98 99 0 
99 100 0 
100 101 0 
101 102 0 
102 103 0 
103 104 0 
104 105 0 
105 106 0 
106 107 0 
107 108 0 
108 109 0 
109 110 0 
110 111 0 
111 112 0 
112 113 0 
113 114 0 
114 115 0 
115 116 0 
116 117 0 
117 118 0 
118 119 0 
119 120 0 
120 121 0 
121 122 0 
122 123 0 
123 124 0 
124 125 0 
125 126 0 
126 127 0 
127 128 0 
128 129 0 
129 130 0 
130 131 0 
131 132 0 
132 133 0 
133 134 0 
134 135 0 
135 136 0 
136 137 0 
137 138 0 
138 139 0 
139 140 0 
140 141 0 
141 142 0 
142 143 0 
143 144 0 
144 145 0 
145 146 0 
146 147 0 
147 148 0 
148 149 0 
149 150 0 
150 151 0 
151 152 0 
152 153 0 
153 154 0 
154 155 0 
155 156 0 
156 157 0 
157 158 0 
158 159 0 
159 160 0 
160 161 0 
161 162 0 
162 163 0 
163 164 0 
164 165 0 
165 166 0 
166 167 0 
167 168 0 
168 169 0 
169 170 0 
170 171 0 
171 172 0 
172 173 0 
173 174 0 
174 175 0 
175 176 0 
176 177 0 
177 178 0 
178 179 0 
179 180 0 
180 181 0 
181 182 0 
182 183 0 
183 184 0 
184 185 0 
185 186 0 
186 187 0 
187 188 0 
188 189 0 
189 190 0 
190 191 0 
191 192 0 
192 193 0 
193 194 0 
194 195 0 
195 196 0 
196 197 0 
197 198 0 
198 199 0 
199 200 0 
200 201 0 
201 202 0 
202 203 0 
203 204 0 
204 205 0 
205 206 0 
206 207 0 
207 208 0 
208 209 0 
209 210 0 
210 211 0 
211 212 0 
212 213 0 
213 214 0 
214 215 0 
215 216 0 
216 217 0 
217 218 0 
218 219 0 
219 220 0 
220 221 0 
221 222 0 
222 223 0 
223 224 0 
224 225 0 
225 226 0 
226 227 0 
227 228 0 
228 229 0 
229 230 0 
230 231 0 
231 232 0 
232 233 0 
233 234 0 
234 235 0 
235 236 0 
236 237 0 
237 238 0 
238 239 0 
239 240 0 
240 241 0 
241 242 0 
242 243 0 
243 244 0 
244 245 0 
245 246 0 
246 247 0 
247 248 0 
248 249 0 
249 250 0 
250 251 0 
251 252 0 
252 253 0 
253 254 0 
254 255 0 
255 256 0 
256 257 0 
257 258 0 
258 259 0 
259 260 0 
260 261 0 
261 262 0 
262 263 0 
263 264 0 
264 265 0 
265 266 0 
266 267 0 
267 268 0 
268 269 0 
269 270 0 
270 271 0 
271 272 0 
272 273 0 
273 274 0 
274 275 0 
275 276 0 
276 277 0 
277 278 0 
278 279 0 
279 280 0 
280 281 0 
281 282 0 
282 283 0 
283 284 0 
284 285 0 
285 286 0 
286 287 0 
287 288 0 
288 289 0 
289 290 0 
290 291 0 
291 292 0 
292 293 0 
293 294 0 
294 295 0 
295 296 0 
296 297 0 
297 298 0 
298 299 0 
-1 -1 0 
-1 300 0 1 2 3 4 5 6 7 8 9 10 11 12 13 14 15 16 17 18 19 20 21 22 23 24 25 26 27 28 29 30 31 32 33 34 35 36 37 38 39 40 41 42 43 44 45 46 47 48 49 50 51 52 53 54 55 56 57 58 59 60 61 62 63 64 65 66 67 68 69 70 71 72 73 74 75 76 77 78 79 80 81 82 83 84 85 86 87 88 89 90 91 92 93 94 95 96 97 98 99 100 101 102 103 104 105 106 107 108 109 110 111 112 113 114 115 116 117 118 119 120 121 122 123 124 125 126 127 128 129 130 131 132 133 134 135 136 137 138 139 140 141 142 143 144 145 146 147 148 149 150 151 152 153 154 155 156 157 158 159 160 161 162 163 164 165 166 167 168 169 170 171 172 173 174 175 176 177 178 179 180 181 182 183 184 185 186 187 188 189 190 191 192 193 194 195 196 197 198 199 200 201 202 203 204 205 206 207 208 209 210 211 212 213 214 215 216 217 218 219 220 221 222 223 224 225 226 227 228 229 230 231 232 233 234 235 236 237 238 239 240 241 242 243 244 245 246 247 248 249 250 251 252 253 254 255 256 257 258 259 260 261 262 263 264 265 266 267 268 269 270 271 272 273 274 275 276 277 278 279 280 281 282 283 284 285 286 287 288 289 290 291 292 293 294 295 296 297 298 299 
