ply
format ascii 1.0
comment written by koba@oshima.lab
element vertex 300
property float x
property float y
property float z
property int label
property int attribute
property float radius
property float curvature
property float torsion
element edge 300
property int vertex1
property int vertex2
property int label
element vertex_seq 1
property int label
property list int int vertex_indices
end_header
-3.74032 25.125 2.08812 0 0 1.5 0.0415029 0.0111221 
-3.74463 24.8533 1.86489 0 0 1.5 0.0410209 0.0115104 
-3.74894 24.5816 1.64166 0 0 1.5 0.0405288 0.0122718 
-3.75325 24.3099 1.41842 0 0 1.5 0.0400211 0.0134129 
-3.75756 24.0381 1.19519 0 0 1.5 0.0389382 0.0168727 
-3.76187 23.7664 0.971954 0 0 1.5 0.0383457 0.0192273 
-3.76618 23.4947 0.74872 0 0 1.5 0.0377037 0.0220536 
-3.77049 23.223 0.525486 0 0 1.5 0.0370012 0.0254155 
-3.7748 22.9513 0.302252 0 0 1.5 0.0353549 0.0338155 
-3.77911 22.6795 0.079018 0 0 1.5 0.0343672 0.0391433 
-3.78342 22.4078 -0.144216 0 0 1.5 0.0332413 0.0456142 
-3.78774 22.1361 -0.36745 0 0 1.5 0.0319555 0.0534889 
-3.79205 21.8644 -0.590684 0 0 1.5 0.0287928 0.0760852 
-3.79636 21.5927 -0.813918 0 0 1.5 0.0268626 0.0937189 
-3.80067 21.3209 -1.03715 0 0 1.5 0.0246692 0.118914 
-3.80498 21.0492 -1.26039 0 0 1.5 0.0194347 0.219092 
-3.80929 20.7775 -1.48362 0 0 1.5 0.0164034 0.330901 
-3.8136 20.5058 -1.70685 0 0 1.5 0.013184 0.553511 
-3.81791 20.2341 -1.93009 0 0 1.5 0.0100561 1.03283 
-3.82222 19.9623 -2.15332 0 0 1.5 0.00839178 1.7957 
-3.82653 19.6906 -2.37655 0 0 1.5 0.0119309 0.991788 
-3.83084 19.4189 -2.59979 0 0 1.5 0.0172342 0.535036 
-3.83515 19.1472 -2.82302 0 0 1.5 0.0235846 0.324973 
-3.83946 18.8755 -3.04626 0 0 1.5 0.0386397 0.162004 
-3.84377 18.6037 -3.26949 0 0 1.5 0.0472291 0.127233 
-3.84808 18.332 -3.49272 0 0 1.5 0.056491 0.105425 
-3.85239 18.0603 -3.71596 0 0 1.5 0.0769887 0.0820009 
-3.8567 17.7886 -3.93919 0 0 1.5 0.0881452 0.075725 
-3.86101 17.5168 -4.16243 0 0 1.5 0.099795 0.071834 
-3.86532 17.2451 -4.38566 0 0 1.5 0.111822 0.0698701 
-3.86963 16.9734 -4.60889 0 0 1.5 0.136307 0.0698924 
-3.87394 16.7017 -4.83213 0 0 1.5 0.148254 0.0716549 
-3.87825 16.43 -5.05536 0 0 1.5 0.159572 0.0746943 
-3.88256 16.1582 -5.2786 0 0 1.5 0.169876 0.0788334 
-3.88687 15.8865 -5.50183 0 0 1.5 0.185812 0.0904615 
-3.89118 15.6148 -5.72506 0 0 1.5 0.190641 0.0986583 
-3.89549 15.3431 -5.9483 0 0 1.5 0.192933 0.108615 
-3.9768 15.0542 -6.12837 0 0 1.5 0.192527 0.12044 
-4.08626 14.7642 -6.28879 0 0 1.5 0.183593 0.15324 
-4.26378 14.4799 -6.39532 0 0 1.5 0.175355 0.176296 
-4.47828 14.2128 -6.4628 0 0 1.5 0.165062 0.205322 
-4.71522 13.9569 -6.50619 0 0 1.5 0.140188 0.293573 
-4.98086 13.7265 -6.51362 0 0 1.5 0.12665 0.361709 
-5.25274 13.5039 -6.51454 0 0 1.5 0.113245 0.452844 
-5.53374 13.2926 -6.506 0 0 1.5 0.100792 0.571966 
-5.81986 13.0883 -6.4996 0 0 1.5 0.0830987 0.852376 
-6.10849 12.8874 -6.49426 0 0 1.5 0.0805105 0.921853 
-6.39958 12.6906 -6.50665 0 0 1.5 0.0833907 0.879747 
-6.69071 12.4944 -6.52486 0 0 1.5 0.0915825 0.754605 
-6.97964 12.3 -6.57379 0 0 1.5 0.12007 0.485668 
-7.26525 12.1064 -6.63825 0 0 1.5 0.138367 0.390902 
-7.54438 11.9146 -6.733 0 0 1.5 0.158324 0.322359 
-7.81201 11.7262 -6.85872 0 0 1.5 0.200797 0.238891 
-8.07185 11.54 -7.00543 0 0 1.5 0.222124 0.214247 
-8.30586 11.362 -7.19737 0 0 1.5 0.24257 0.196997 
-8.52984 11.1872 -7.40333 0 0 1.5 0.261312 0.185103 
-8.72141 11.0223 -7.64786 0 0 1.5 0.290457 0.17179 
-8.89197 10.8633 -7.9094 0 0 1.5 0.299368 0.168985 
-9.03745 10.7113 -8.19124 0 0 1.5 0.303794 0.168016 
-9.14375 10.5689 -8.49362 0 0 1.5 0.303626 0.168378 
-9.23345 10.4303 -8.80378 0 0 1.5 0.290615 0.173106 
-9.27069 10.3021 -9.12915 0 0 1.5 0.278944 0.177684 
-9.28406 10.1774 -9.45641 0 0 1.5 0.264954 0.183738 
-9.26243 10.0579 -9.78646 0 0 1.5 0.233576 0.201165 
-9.19673 9.94211 -10.111 0 0 1.5 0.217754 0.212952 
-9.11055 9.82736 -10.4316 0 0 1.5 0.202765 0.226666 
-8.9797 9.71219 -10.737 0 0 1.5 0.189202 0.241843 
-8.82878 9.59374 -11.0308 0 0 1.5 0.168434 0.271789 
-8.65731 9.47193 -11.3127 0 0 1.5 0.162267 0.281965 
-8.46297 9.3399 -11.5739 0 0 1.5 0.15959 0.284971 
-8.26197 9.20364 -11.8281 0 0 1.5 0.160837 0.278734 
-8.04765 9.05284 -12.0627 0 0 1.5 0.176373 0.241716 
-7.83121 8.89448 -12.2898 0 0 1.5 0.191115 0.216218 
-7.61145 8.7243 -12.5052 0 0 1.5 0.210752 0.189996 
-7.39251 8.54061 -12.7098 0 0 1.5 0.235523 0.165562 
-7.17406 8.34924 -12.9081 0 0 1.5 0.301973 0.12577 
-6.96045 8.13694 -13.0895 0 0 1.5 0.344537 0.109908 
-6.74917 7.91635 -13.2631 0 0 1.5 0.393805 0.0964702 
-6.54393 7.67548 -13.4165 0 0 1.5 0.511862 0.0753597 
-6.34586 7.41452 -13.542 0 0 1.5 0.578018 0.0662762 
-6.15593 7.13579 -13.6357 0 0 1.5 0.644543 0.0578039 
-5.97953 6.83467 -13.6773 0 0 1.5 0.70575 0.0499275 
-5.83539 6.51921 -13.6191 0 0 1.5 0.782586 0.0351678 
-5.73728 6.22502 -13.4582 0 0 1.5 0.785249 0.0285305 
-5.68986 5.98122 -13.2142 0 0 1.5 0.76146 0.022841 
-5.68221 5.79158 -12.9219 0 0 1.5 0.71518 0.0183023 
-5.70125 5.64483 -12.6044 0 0 1.5 0.584052 0.0128816 
-5.7438 5.5416 -12.2709 0 0 1.5 0.513444 0.0116584 
-5.80214 5.4729 -11.9317 0 0 1.5 0.446065 0.0113222 
-5.86706 5.41915 -11.5904 0 0 1.5 0.329108 0.0131201 
-5.94336 5.3941 -11.248 0 0 1.5 0.280506 0.0149886 
-6.0225 5.3775 -10.9059 0 0 1.5 0.23806 0.0176743 
-6.10601 5.37381 -10.5643 0 0 1.5 0.201089 0.0215093 
-6.19128 5.37659 -10.2232 0 0 1.5 0.140626 0.0341863 
-6.2776 5.38322 -9.88231 0 0 1.5 0.115773 0.0449768 
-6.36367 5.38949 -9.54138 0 0 1.5 0.0937613 0.0617416 
-6.44945 5.39422 -9.20037 0 0 1.5 0.0741532 0.0897212 
-6.53353 5.38915 -8.85891 0 0 1.5 0.0408847 0.250727 
-6.61666 5.37471 -8.51766 0 0 1.5 0.0271421 0.531646 
-6.69863 5.34884 -8.17663 0 0 1.5 0.0165857 1.34522 
-6.77958 5.30055 -7.83798 0 0 1.5 0.0206964 0.798727 
-6.86025 5.24091 -7.50113 0 0 1.5 0.0304046 0.361112 
-6.94067 5.15834 -7.16887 0 0 1.5 0.0405155 0.200188 
-7.02079 5.05908 -6.84141 0 0 1.5 0.0504646 0.127894 
-7.10065 4.94926 -6.51701 0 0 1.5 0.0693523 0.0668744 
-7.1781 4.81909 -6.19961 0 0 1.5 0.0781792 0.0520195 
-7.25298 4.68284 -5.88426 0 0 1.5 0.0865557 0.0415312 
-7.32415 4.53783 -5.57187 0 0 1.5 0.0944544 0.0335382 
-7.38681 4.38543 -5.26124 0 0 1.5 0.108661 0.0213987 
-7.44532 4.23018 -4.95118 0 0 1.5 0.114887 0.0164644 
-7.48986 4.0695 -4.64153 0 0 1.5 0.12048 0.011879 
-7.52685 3.90701 -4.33198 0 0 1.5 0.125409 0.00742419 
-7.55299 3.74192 -4.02255 0 0 1.5 0.133201 -0.000447754 
-7.56594 3.57352 -3.7142 0 0 1.5 0.136052 -0.00376808 
-7.57305 3.40365 -3.40634 0 0 1.5 0.138225 -0.0067649 
-7.56325 3.22707 -3.10239 0 0 1.5 0.140643 -0.0106788 
-7.5497 3.04823 -2.79997 0 0 1.5 0.140943 -0.0112965 
-7.52314 2.86064 -2.50368 0 0 1.5 0.140689 -0.0109971 
-7.49116 2.6673 -2.21187 0 0 1.5 0.139924 -0.00961889 
-7.45067 2.46496 -1.92708 0 0 1.5 0.137003 -0.00303979 
-7.4027 2.25174 -1.65188 0 0 1.5 0.134915 0.00230741 
-7.3496 2.03103 -1.38327 0 0 1.5 0.132456 0.00902865 
-7.2871 1.7939 -1.13151 0 0 1.5 0.129656 0.017122 
-7.22213 1.55245 -0.884205 0 0 1.5 0.123145 0.0381422 
-7.146 1.2903 -0.66248 0 0 1.5 0.119497 0.0511329 
-7.06753 1.02401 -0.44708 0 0 1.5 0.11564 0.06558 
-6.98077 0.743019 -0.254208 0 0 1.5 0.107491 0.100127 
-6.88962 0.455543 -0.0740963 0 0 1.5 0.103308 0.120452 
-6.79273 0.159587 0.0893213 0 0 1.5 0.0991452 0.142504 
-6.68933 -0.142857 0.23528 0 0 1.5 0.0950853 0.166416 
-6.58231 -0.448918 0.371504 0 0 1.5 0.0876358 0.218845 
-6.46598 -0.759217 0.488901 0 0 1.5 0.0844527 0.245016 
-6.34744 -1.07031 0.602199 0 0 1.5 0.0817764 0.269328 
-6.21642 -1.38159 0.700302 0 0 1.5 0.0797082 0.290083 
-6.0818 -1.69185 0.796438 0 0 1.5 0.0777123 0.312438 
-5.93515 -1.99869 0.886013 0 0 1.5 0.0778697 0.311305 
-5.78067 -2.30171 0.974893 0 0 1.5 0.0787882 0.301945 
-5.61574 -2.59961 1.06285 0 0 1.5 0.0804107 0.285742 
-5.43817 -2.88916 1.15329 0 0 1.5 0.0853886 0.240462 
-5.25334 -3.17391 1.24516 0 0 1.5 0.0885061 0.214854 
-5.05161 -3.44458 1.34329 0 0 1.5 0.0918694 0.189478 
-4.84577 -3.71165 1.44305 0 0 1.5 0.0988446 0.142974 
-4.62259 -3.96116 1.55083 0 0 1.5 0.102229 0.122089 
-4.39519 -4.20566 1.66063 0 0 1.5 0.105407 0.103122 
-4.1557 -4.43583 1.77619 0 0 1.5 0.108296 0.0862387 
-3.90979 -4.65745 1.89428 0 0 1.5 0.112946 0.0573013 
-3.65589 -4.86846 2.01552 0 0 1.5 0.114599 0.0449942 
-3.39371 -5.0676 2.13862 0 0 1.5 0.115765 0.0342364 
-3.12648 -5.25954 2.26285 0 0 1.5 0.116435 0.0247634 
-2.8489 -5.43582 2.38721 0 0 1.5 0.11629 0.00901436 
-2.56861 -5.60803 2.51159 0 0 1.5 0.115509 0.00272678 
-2.27566 -5.75957 2.63356 0 0 1.5 0.114295 -0.00258971 
-1.98033 -5.90685 2.75472 0 0 1.5 0.110717 -0.01047 
-1.67429 -6.03447 2.87193 0 0 1.5 0.108445 -0.0129804 
-1.36423 -6.15332 2.98699 0 0 1.5 0.105921 -0.0144787 
-1.04682 -6.25616 3.09817 0 0 1.5 0.103196 -0.0148894 
-0.724302 -6.34504 3.20581 0 0 1.5 0.0973466 -0.0125752 
-0.397817 -6.42306 3.31071 0 0 1.5 0.0943189 -0.00973403 
-0.0664583 -6.4832 3.41152 0 0 1.5 0.0912827 -0.00556418 
0.266324 -6.53812 3.51114 0 0 1.5 0.088277 -0.000112187 
0.602675 -6.57352 3.60754 0 0 1.5 0.0824853 0.0145735 
0.939365 -6.60566 3.70373 0 0 1.5 0.0797557 0.0240825 
1.27728 -6.6248 3.7993 0 0 1.5 0.077169 0.0349467 
1.61518 -6.63941 3.89553 0 0 1.5 0.0724696 0.0601877 
1.95306 -6.64645 3.99284 0 0 1.5 0.0703775 0.0745379 
2.29037 -6.6486 4.09222 0 0 1.5 0.0684691 0.0897212 
2.62724 -6.64688 4.19322 0 0 1.5 0.0667393 0.105417 
2.96296 -6.64035 4.29773 0 0 1.5 0.0637942 0.137807 
3.29827 -6.63212 4.40349 0 0 1.5 0.0625731 0.153939 
3.63201 -6.61903 4.51359 0 0 1.5 0.0615036 0.169596 
3.96549 -6.60506 4.6244 0 0 1.5 0.0605705 0.184764 
4.29753 -6.58606 4.73874 0 0 1.5 0.0590653 0.213606 
4.62928 -6.56561 4.85361 0 0 1.5 0.0584621 0.227271 
4.96007 -6.54019 4.9703 0 0 1.5 0.0579333 0.240809 
5.29049 -6.51175 5.08727 0 0 1.5 0.0574642 0.254605 
5.62026 -6.47809 5.20475 0 0 1.5 0.0566669 0.282818 
5.94949 -6.43933 5.32208 0 0 1.5 0.0563281 0.2977 
6.27815 -6.39533 5.43925 0 0 1.5 0.0560339 0.313671 
6.60572 -6.34375 5.55623 0 0 1.5 0.0556696 0.346573 
6.9326 -6.28739 5.67309 0 0 1.5 0.0556801 0.362516 
7.25721 -6.22083 5.79077 0 0 1.5 0.0558908 0.377642 
7.58098 -6.15056 5.90874 0 0 1.5 0.0563735 0.390135 
7.90024 -6.06774 6.03068 0 0 1.5 0.0585057 0.400303 
8.21852 -5.98253 6.15359 0 0 1.5 0.0603241 0.396993 
8.52918 -5.88437 6.28601 0 0 1.5 0.0627482 0.387089 
8.83691 -5.78351 6.42283 0 0 1.5 0.0658475 0.370422 
9.1362 -5.67494 6.57223 0 0 1.5 0.0742369 0.324131 
9.42712 -5.56406 6.73514 0 0 1.5 0.079567 0.29762 
9.71115 -5.45127 6.90918 0 0 1.5 0.0856645 0.270148 
9.97805 -5.34355 7.11103 0 0 1.5 0.100117 0.217787 
10.2365 -5.24256 7.3262 0 0 1.5 0.108436 0.194179 
10.4819 -5.15356 7.56189 0 0 1.5 0.117461 0.172333 
10.7135 -5.08971 7.81814 0 0 1.5 0.127171 0.152286 
10.9391 -5.0434 8.08319 0 0 1.5 0.148489 0.117191 
11.1578 -5.02561 8.35807 0 0 1.5 0.159986 0.101831 
11.3753 -5.04055 8.63339 0 0 1.5 0.171926 0.0875783 
11.593 -5.07295 8.9072 0 0 1.5 0.184185 0.0741505 
11.8145 -5.14137 9.17171 0 0 1.5 0.208962 0.0502296 
12.0387 -5.22817 9.42747 0 0 1.5 0.22103 0.0394911 
12.2659 -5.33446 9.67396 0 0 1.5 0.232491 0.0291898 
12.4955 -5.46565 9.90522 0 0 1.5 0.25215 0.011043 
12.7258 -5.60521 10.1314 0 0 1.5 0.259577 0.00327051 
12.953 -5.77424 10.3398 0 0 1.5 0.264883 -0.00388022 
13.1781 -5.94934 10.5452 0 0 1.5 0.267725 -0.0101954 
13.3923 -6.15108 10.7378 0 0 1.5 0.265174 -0.0197299 
13.5963 -6.36589 10.9261 0 0 1.5 0.25963 -0.0231666 
13.7836 -6.60211 11.1072 0 0 1.5 0.251335 -0.0258255 
13.9401 -6.86307 11.2814 0 0 1.5 0.240545 -0.0277554 
14.0778 -7.13778 11.4515 0 0 1.5 0.212864 -0.029638 
14.1553 -7.44178 11.6104 0 0 1.5 0.196714 -0.03 
14.196 -7.75434 11.7617 0 0 1.5 0.179562 -0.0304776 
14.201 -8.07524 11.9055 0 0 1.5 0.161771 -0.0311262 
14.147 -8.39724 12.0353 0 0 1.5 0.125357 -0.0339367 
14.0767 -8.71745 12.161 0 0 1.5 0.107144 -0.0381024 
13.9765 -9.0331 12.2793 0 0 1.5 0.0891261 -0.0461195 
13.8649 -9.34545 12.3958 0 0 1.5 0.0539619 -0.0964993 
13.7441 -9.65511 12.5106 0 0 1.5 0.0369134 -0.192433 
13.6223 -9.9634 12.6282 0 0 1.5 0.020362 -0.609553 
13.5002 -10.2712 12.7467 0 0 1.5 0.00576794 -7.44802 
13.3926 -10.5809 12.8737 0 0 1.5 0.0287516 -0.282827 
13.2884 -10.891 13.0026 0 0 1.5 0.0438513 -0.111502 
13.2162 -11.2044 13.1448 0 0 1.5 0.0584912 -0.0521836 
13.156 -11.5179 13.2909 0 0 1.5 0.0725078 -0.0233003 
13.1317 -11.8314 13.4485 0 0 1.5 0.0981247 0.00655459 
13.1357 -12.1409 13.6127 0 0 1.5 0.109371 0.0170915 
13.1675 -12.4467 13.7836 0 0 1.5 0.119295 0.0263618 
13.2412 -12.7397 13.962 0 0 1.5 0.134509 0.0426679 
13.3284 -13.0284 14.1427 0 0 1.5 0.139499 0.0509414 
13.4579 -13.2962 14.3303 0 0 1.5 0.142593 0.0592942 
13.5944 -13.5586 14.5199 0 0 1.5 0.143795 0.0674516 
13.7525 -13.8044 14.7155 0 0 1.5 0.140826 0.0841761 
13.9164 -14.0419 14.9162 0 0 1.5 0.136928 0.0930321 
14.0878 -14.2681 15.1239 0 0 1.5 0.131703 0.102198 
14.2577 -14.4842 15.3428 0 0 1.5 0.1254 0.111747 
14.4266 -14.6937 15.5693 0 0 1.5 0.110562 0.132566 
14.5784 -14.8909 15.8174 0 0 1.5 0.102493 0.144739 
14.7226 -15.0837 16.0732 0 0 1.5 0.0942683 0.158321 
14.8253 -15.2605 16.3593 0 0 1.5 0.0860645 0.173306 
14.9281 -15.4373 16.6455 0 0 1.5 0.0702816 0.210941 
15.0308 -15.6141 16.9316 0 0 1.5 0.0629203 0.234817 
15.1335 -15.791 17.2177 0 0 1.5 0.05603 0.261972 
15.2362 -15.9678 17.5039 0 0 1.5 0.0439077 0.330435 
15.339 -16.1446 17.79 0 0 1.5 0.0387606 0.372196 
15.4417 -16.3214 18.0761 0 0 1.5 0.0342711 0.416071 
15.5444 -16.4982 18.3622 0 0 1.5 0.0304596 0.459383 
15.6472 -16.675 18.6484 0 0 1.5 0.0248404 0.526576 
15.7499 -16.8518 18.9345 0 0 1.5 0.0229614 0.536729 
15.8526 -17.0286 19.2206 0 0 1.5 0.0216015 0.527816 
15.9553 -17.2054 19.5068 0 0 1.5 0.0206504 0.503731 
16.0581 -17.3822 19.7929 0 0 1.5 0.0195141 0.429203 
16.1608 -17.559 20.079 0 0 1.5 0.0191205 0.389772 
16.2635 -17.7358 20.3652 0 0 1.5 0.0187363 0.354807 
16.3663 -17.9126 20.6513 0 0 1.5 0.017811 0.300453 
16.469 -18.0894 20.9374 0 0 1.5 0.0172201 0.281276 
16.5717 -18.2662 21.2235 0 0 1.5 0.0165309 0.268065 
16.6744 -18.4431 21.5097 0 0 1.5 0.0157469 0.260093 
16.7772 -18.6199 21.7958 0 0 1.5 0.0139449 0.257605 
16.8799 -18.7967 22.0819 0 0 1.5 0.0129572 0.26392 
16.9826 -18.9735 22.3681 0 0 1.5 0.0119342 0.275576 
17.0853 -19.1503 22.6542 0 0 1.5 0.0108967 0.292512 
17.1881 -19.3271 22.9403 0 0 1.5 0.00886186 0.347806 
17.2908 -19.5039 23.2265 0 0 1.5 0.00790381 0.388818 
17.3935 -19.6807 23.5126 0 0 1.5 0.00701475 0.438199 
17.4963 -19.8575 23.7987 0 0 1.5 0.00552615 0.557868 
17.599 -20.0343 24.0848 0 0 1.5 0.00495861 0.617228 
17.7017 -20.2111 24.371 0 0 1.5 0.00452442 0.658923 
17.8044 -20.3879 24.6571 0 0 1.5 0.00422304 0.67174 
17.9072 -20.5647 24.9432 0 0 1.5 0.00395015 0.608544 
18.0099 -20.7415 25.2294 0 0 1.5 0.00392486 0.54724 
18.1126 -20.9183 25.5155 0 0 1.5 0.00393413 0.483021 
18.2154 -21.0952 25.8016 0 0 1.5 0.0039533 0.42515 
18.3181 -21.272 26.0878 0 0 1.5 0.00395678 0.334437 
18.4208 -21.4488 26.3739 0 0 1.5 0.00392206 0.301523 
18.5235 -21.6256 26.66 0 0 1.5 0.00385725 0.276892 
18.6263 -21.8024 26.9461 0 0 1.5 0.00376203 0.25876 
18.729 -21.9792 27.2323 0 0 1.5 0.00348818 0.237191 
18.8317 -22.156 27.5184 0 0 1.5 0.00331571 0.234284 
18.9345 -22.3328 27.8045 0 0 1.5 0.00312493 0.236234 
19.0372 -22.5096 28.0907 0 0 1.5 0.00270844 0.253647 
19.1399 -22.6864 28.3768 0 0 1.5 0.00249219 0.270847 
19.2426 -22.8632 28.6629 0 0 1.5 0.00227663 0.294492 
19.3454 -23.04 28.9491 0 0 1.5 0.00206678 0.324608 
19.4481 -23.2168 29.2352 0 0 1.5 0.00168397 0.407924 
19.5508 -23.3936 29.5213 0 0 1.5 0.00152033 0.459587 
19.6536 -23.5705 29.8074 0 0 1.5 0.00138181 0.510738 
19.7563 -23.7473 30.0936 0 0 1.5 0.00127259 0.552933 
19.859 -23.9241 30.3797 0 0 1.5 0.00114794 0.574736 
19.9617 -24.1009 30.6658 0 0 1.5 0.00112988 0.5432 
20.0645 -24.2777 30.952 0 0 1.5 0.00113558 0.490596 
20.1672 -24.4545 31.2381 0 0 1.5 0.00119347 0.366704 
20.2699 -24.6313 31.5242 0 0 1.5 0.00123476 0.308355 
20.3726 -24.8081 31.8104 0 0 1.5 0.00127885 0.257105 
20.4754 -24.9849 32.0965 0 0 1.5 0.00132292 0.21415 
20.5781 -25.1617 32.3826 0 0 1.5 0.00140483 0.148624 
20.6808 -25.3385 32.6687 0 0 1.5 0.00144135 0.124078 
20.7836 -25.5153 32.9549 0 0 1.5 0.00147462 0.104301 
20.8863 -25.6921 33.241 0 0 1.5 0.00150476 0.0884648 
20.989 -25.8689 33.5271 0 0 1.5 0.00155734 0.0661711 
21.0917 -26.0457 33.8133 0 0 1.5 0.00158078 0.0588995 
21.1945 -26.2226 34.0994 0 0 1.5 0.00160299 0.0538215 
0 1 0 
1 2 0 
2 3 0 
3 4 0 
4 5 0 
5 6 0 
6 7 0 
7 8 0 
8 9 0 
9 10 0 
10 11 0 
11 12 0 
12 13 0 
13 14 0 
14 15 0 
15 16 0 
16 17 0 
17 18 0 
18 19 0 
19 20 0 
20 21 0 
21 22 0 
22 23 0 
23 24 0 
24 25 0 
25 26 0 
26 27 0 
27 28 0 
28 29 0 
29 30 0 
30 31 0 
31 32 0 
32 33 0 
33 34 0 
34 35 0 
35 36 0 
36 37 0 
37 38 0 
38 39 0 
39 40 0 
40 41 0 
41 42 0 
42 43 0 
43 44 0 
44 45 0 
45 46 0 
46 47 0 
47 48 0 
48 49 0 
49 50 0 
50 51 0 
51 52 0 
52 53 0 
53 54 0 
54 55 0 
55 56 0 
56 57 0 
57 58 0 
58 59 0 
59 60 0 
60 61 0 
61 62 0 
62 63 0 
63 64 0 
64 65 0 
65 66 0 
66 67 0 
67 68 0 
68 69 0 
69 70 0 
70 71 0 
71 72 0 
72 73 0 
73 74 0 
74 75 0 
75 76 0 
76 77 0 
77 78 0 
78 79 0 
79 80 0 
80 81 0 
81 82 0 
82 83 0 
83 84 0 
84 85 0 
85 86 0 
86 87 0 
87 88 0 
88 89 0 
89 90 0 
90 91 0 
91 92 0 
92 93 0 
93 94 0 
94 95 0 
95 96 0 
96 97 0 
97 98 0 
98 99 0 
99 100 0 
100 101 0 
101 102 0 
102 103 0 
103 104 0 
104 105 0 
105 106 0 
106 107 0 
107 108 0 
108 109 0 
109 110 0 
110 111 0 
111 112 0 
112 113 0 
113 114 0 
114 115 0 
115 116 0 
116 117 0 
117 118 0 
118 119 0 
119 120 0 
120 121 0 
121 122 0 
122 123 0 
123 124 0 
124 125 0 
125 126 0 
126 127 0 
127 128 0 
128 129 0 
129 130 0 
130 131 0 
131 132 0 
132 133 0 
133 134 0 
134 135 0 
135 136 0 
136 137 0 
137 138 0 
138 139 0 
139 140 0 
140 141 0 
141 142 0 
142 143 0 
143 144 0 
144 145 0 
145 146 0 
146 147 0 
147 148 0 
148 149 0 
149 150 0 
150 151 0 
151 152 0 
152 153 0 
153 154 0 
154 155 0 
155 156 0 
156 157 0 
157 158 0 
158 159 0 
159 160 0 
160 161 0 
161 162 0 
162 163 0 
163 164 0 
164 165 0 
165 166 0 
166 167 0 
167 168 0 
168 169 0 
169 170 0 
170 171 0 
171 172 0 
172 173 0 
173 174 0 
174 175 0 
175 176 0 
176 177 0 
177 178 0 
178 179 0 
179 180 0 
180 181 0 
181 182 0 
182 183 0 
183 184 0 
184 185 0 
185 186 0 
186 187 0 
187 188 0 
188 189 0 
189 190 0 
190 191 0 
191 192 0 
192 193 0 
193 194 0 
194 195 0 
195 196 0 
196 197 0 
197 198 0 
198 199 0 
199 200 0 
200 201 0 
201 202 0 
202 203 0 
203 204 0 
204 205 0 
205 206 0 
206 207 0 
207 208 0 
208 209 0 
209 210 0 
210 211 0 
211 212 0 
212 213 0 
213 214 0 
214 215 0 
215 216 0 
216 217 0 
217 218 0 
218 219 0 
219 220 0 
220 221 0 
221 222 0 
222 223 0 
223 224 0 
224 225 0 
225 226 0 
226 227 0 
227 228 0 
228 229 0 
229 230 0 
230 231 0 
231 232 0 
232 233 0 
233 234 0 
234 235 0 
235 236 0 
236 237 0 
237 238 0 
238 239 0 
239 240 0 
240 241 0 
241 242 0 
242 243 0 
243 244 0 
244 245 0 
245 246 0 
246 247 0 
247 248 0 
248 249 0 
249 250 0 
250 251 0 
251 252 0 
252 253 0 
253 254 0 
254 255 0 
255 256 0 
256 257 0 
257 258 0 
258 259 0 
259 260 0 
260 261 0 
261 262 0 
262 263 0 
263 264 0 
264 265 0 
265 266 0 
266 267 0 
267 268 0 
268 269 0 
269 270 0 
270 271 0 
271 272 0 
272 273 0 
273 274 0 
274 275 0 
275 276 0 
276 277 0 
277 278 0 
278 279 0 
279 280 0 
280 281 0 
281 282 0 
282 283 0 
283 284 0 
284 285 0 
285 286 0 
286 287 0 
287 288 0 
288 289 0 
289 290 0 
290 291 0 
291 292 0 
292 293 0 
293 294 0 
294 295 0 
295 296 0 
296 297 0 
297 298 0 
298 299 0 
-1 -1 0 
-1 300 0 1 2 3 4 5 6 7 8 9 10 11 12 13 14 15 16 17 18 19 20 21 22 23 24 25 26 27 28 29 30 31 32 33 34 35 36 37 38 39 40 41 42 43 44 45 46 47 48 49 50 51 52 53 54 55 56 57 58 59 60 61 62 63 64 65 66 67 68 69 70 71 72 73 74 75 76 77 78 79 80 81 82 83 84 85 86 87 88 89 90 91 92 93 94 95 96 97 98 99 100 101 102 103 104 105 106 107 108 109 110 111 112 113 114 115 116 117 118 119 120 121 122 123 124 125 126 127 128 129 130 131 132 133 134 135 136 137 138 139 140 141 142 143 144 145 146 147 148 149 150 151 152 153 154 155 156 157 158 159 160 161 162 163 164 165 166 167 168 169 170 171 172 173 174 175 176 177 178 179 180 181 182 183 184 185 186 187 188 189 190 191 192 193 194 195 196 197 198 199 200 201 202 203 204 205 206 207 208 209 210 211 212 213 214 215 216 217 218 219 220 221 222 223 224 225 226 227 228 229 230 231 232 233 234 235 236 237 238 239 240 241 242 243 244 245 246 247 248 249 250 251 252 253 254 255 256 257 258 259 260 261 262 263 264 265 266 267 268 269 270 271 272 273 274 275 276 277 278 279 280 281 282 283 284 285 286 287 288 289 290 291 292 293 294 295 296 297 298 299 
