ply
format ascii 1.0
comment written by koba@oshima.lab
element vertex 300
property float x
property float y
property float z
property int label
property int attribute
property float radius
property float curvature
property float torsion
element edge 300
property int vertex1
property int vertex2
property int label
element vertex_seq 1
property int label
property list int int vertex_indices
end_header
2.37027 24.0897 -9.46966 0 0 1.5 0.0880496 0.0128627 
2.30959 23.8588 -9.22896 0 0 1.5 0.0850654 0.0132965 
2.24891 23.628 -8.98827 0 0 1.5 0.0820833 0.0138344 
2.18823 23.3972 -8.74757 0 0 1.5 0.0791049 0.01449 
2.12754 23.1663 -8.50688 0 0 1.5 0.0731623 0.0162088 
2.06686 22.9355 -8.26618 0 0 1.5 0.0701956 0.0172912 
2.00618 22.7046 -8.02549 0 0 1.5 0.0672282 0.0185568 
1.94549 22.4738 -7.78479 0 0 1.5 0.0642575 0.0200431 
1.88481 22.2429 -7.5441 0 0 1.5 0.0582887 0.023736 
1.82413 22.0121 -7.3034 0 0 1.5 0.0552756 0.0260556 
1.76344 21.7812 -7.0627 0 0 1.5 0.0522351 0.0288324 
1.70276 21.5504 -6.82201 0 0 1.5 0.0491619 0.0321499 
1.64208 21.3196 -6.58131 0 0 1.5 0.0428886 0.0411279 
1.58139 21.0887 -6.34062 0 0 1.5 0.0396812 0.0475141 
1.52071 20.8579 -6.09992 0 0 1.5 0.03643 0.0558288 
1.46003 20.627 -5.85923 0 0 1.5 0.0298545 0.082097 
1.39934 20.3962 -5.61853 0 0 1.5 0.026603 0.103577 
1.33866 20.1653 -5.37784 0 0 1.5 0.0234825 0.134004 
1.27798 19.9345 -5.13714 0 0 1.5 0.0206566 0.175793 
1.21729 19.7037 -4.89645 0 0 1.5 0.0171185 0.272083 
1.15661 19.4728 -4.65575 0 0 1.5 0.0172453 0.281354 
1.09593 19.242 -4.41505 0 0 1.5 0.0189784 0.24673 
1.03525 19.0111 -4.17436 0 0 1.5 0.0221637 0.194741 
0.974562 18.7803 -3.93366 0 0 1.5 0.0317301 0.114941 
0.913879 18.5494 -3.69297 0 0 1.5 0.0376958 0.0914893 
0.853196 18.3186 -3.45227 0 0 1.5 0.0443093 0.0754666 
0.792513 18.0878 -3.21158 0 0 1.5 0.0593843 0.0568196 
0.731829 17.8569 -2.97088 0 0 1.5 0.0678523 0.0514573 
0.671146 17.6261 -2.73019 0 0 1.5 0.0769601 0.047793 
0.610463 17.3952 -2.48949 0 0 1.5 0.0867376 0.045423 
0.54978 17.1644 -2.2488 0 0 1.5 0.108436 0.0433977 
0.489097 16.9335 -2.0081 0 0 1.5 0.120404 0.0434782 
0.428414 16.7027 -1.7674 0 0 1.5 0.133144 0.044224 
0.36773 16.4719 -1.52671 0 0 1.5 0.146659 0.0455482 
0.307047 16.241 -1.28601 0 0 1.5 0.175912 0.0498563 
0.246364 16.0102 -1.04532 0 0 1.5 0.191514 0.0529591 
0.185681 15.7793 -0.804623 0 0 1.5 0.207608 0.0566722 
0.124998 15.5485 -0.563927 0 0 1.5 0.224021 0.0609604 
0.020189 15.3089 -0.35425 0 0 1.5 0.256806 0.0716346 
-0.122444 15.0618 -0.171162 0 0 1.5 0.272517 0.0780468 
-0.31426 14.8185 -0.041554 0 0 1.5 0.287277 0.0850465 
-0.525491 14.5766 0.0669448 0 0 1.5 0.312301 0.10104 
-0.780149 14.3559 0.102026 0 0 1.5 0.321762 0.109928 
-1.041 14.1425 0.119855 0 0 1.5 0.328784 0.11913 
-1.31828 13.9498 0.089941 0 0 1.5 0.333187 0.128628 
-1.59898 13.7706 0.0342118 0 0 1.5 0.333981 0.148288 
-1.88327 13.6056 -0.0485982 0 0 1.5 0.330637 0.157948 
-2.16535 13.4585 -0.163208 0 0 1.5 0.325169 0.167372 
-2.44648 13.319 -0.291279 0 0 1.5 0.317931 0.176558 
-2.71683 13.2008 -0.45772 0 0 1.5 0.299747 0.193147 
-2.98198 13.0885 -0.635482 0 0 1.5 0.28962 0.200141 
-3.23143 12.9917 -0.843567 0 0 1.5 0.279268 0.206182 
-3.46338 12.904 -1.0734 0 0 1.5 0.258917 0.21481 
-3.68058 12.823 -1.32038 0 0 1.5 0.249293 0.217158 
-3.86245 12.7496 -1.59686 0 0 1.5 0.240172 0.218173 
-4.01536 12.6754 -1.88917 0 0 1.5 0.231583 0.217935 
-4.1388 12.5971 -2.1942 0 0 1.5 0.215949 0.214046 
-4.23037 12.5104 -2.50871 0 0 1.5 0.208795 0.210666 
-4.2864 12.407 -2.82663 0 0 1.5 0.20197 0.206703 
-4.32078 12.2883 -3.14203 0 0 1.5 0.195384 0.202447 
-4.34116 12.1576 -3.45394 0 0 1.5 0.182582 0.193872 
-4.35218 12.0181 -3.76265 0 0 1.5 0.176202 0.19015 
-4.35719 11.8732 -4.06905 0 0 1.5 0.169763 0.187234 
-4.35613 11.7265 -4.37461 0 0 1.5 0.156603 0.184364 
-4.34907 11.5807 -4.68055 0 0 1.5 0.149864 0.184818 
-4.33568 11.4358 -4.98666 0 0 1.5 0.143035 0.186863 
-4.31469 11.2918 -5.2928 0 0 1.5 0.136148 0.190697 
-4.27977 11.1468 -5.59714 0 0 1.5 0.122368 0.204803 
-4.23616 10.9998 -5.8993 0 0 1.5 0.115603 0.215597 
-4.18154 10.85 -6.19845 0 0 1.5 0.109037 0.229176 
-4.11016 10.694 -6.4907 0 0 1.5 0.102769 0.245704 
-4.03122 10.535 -6.77929 0 0 1.5 0.0916336 0.286657 
-3.93477 10.3683 -7.05825 0 0 1.5 0.0870916 0.309158 
-3.82811 10.1965 -7.32995 0 0 1.5 0.0834885 0.33042 
-3.71101 10.0195 -7.59423 0 0 1.5 0.0810394 0.347227 
-3.58035 9.83393 -7.8458 0 0 1.5 0.0804823 0.353335 
-3.44539 9.64563 -8.09323 0 0 1.5 0.0827317 0.338994 
-3.29865 9.4456 -8.32423 0 0 1.5 0.0868148 0.314578 
-3.15088 9.24212 -8.55135 0 0 1.5 0.100624 0.250072 
-3.00014 9.02873 -8.76734 0 0 1.5 0.11037 0.217007 
-2.85226 8.8079 -8.97752 0 0 1.5 0.122046 0.186458 
-2.70725 8.57967 -9.18193 0 0 1.5 0.135719 0.159323 
-2.57438 8.33967 -9.38081 0 0 1.5 0.169555 0.11496 
-2.44647 8.09531 -9.57779 0 0 1.5 0.190089 0.097103 
-2.3424 7.83735 -9.77151 0 0 1.5 0.213358 0.0816744 
-2.24946 7.57532 -9.96479 0 0 1.5 0.239635 0.0680077 
-2.17635 7.30606 -10.1573 0 0 1.5 0.302256 0.0438154 
-2.12666 7.03121 -10.3487 0 0 1.5 0.33893 0.0326362 
-2.08984 6.75346 -10.5393 0 0 1.5 0.379105 0.0214938 
-2.08292 6.47022 -10.7254 0 0 1.5 0.467589 -0.00205698 
-2.09432 6.18331 -10.9046 0 0 1.5 0.51332 -0.0145022 
-2.12468 5.8925 -11.0755 0 0 1.5 0.557143 -0.0275445 
-2.18893 5.59386 -11.2225 0 0 1.5 0.595984 -0.0412089 
-2.29037 5.28969 -11.3287 0 0 1.5 0.645244 -0.0685871 
-2.43585 4.99056 -11.3717 0 0 1.5 0.650343 -0.0813408 
-2.62674 4.72055 -11.327 0 0 1.5 0.641053 -0.0930478 
-2.8464 4.50272 -11.1992 0 0 1.5 0.618477 -0.103426 
-3.07615 4.33656 -11.0165 0 0 1.5 0.54456 -0.1202 
-3.3063 4.21761 -10.7979 0 0 1.5 0.499894 -0.127342 
-3.53147 4.13784 -10.5582 0 0 1.5 0.454067 -0.134187 
-3.7539 4.07363 -10.3111 0 0 1.5 0.367028 -0.148582 
-3.96992 4.03725 -10.0525 0 0 1.5 0.328099 -0.157201 
-4.1819 4.01204 -9.78954 0 0 1.5 0.292866 -0.167354 
-4.38847 4.00178 -9.52097 0 0 1.5 0.261424 -0.179341 
-4.58898 4.00216 -9.24792 0 0 1.5 0.209484 -0.210148 
-4.78439 4.01151 -8.9711 0 0 1.5 0.188598 -0.229305 
-4.9717 4.02953 -8.68933 0 0 1.5 0.170851 -0.250637 
-5.15383 4.05309 -8.40442 0 0 1.5 0.156092 -0.273327 
-5.32537 4.08266 -8.11369 0 0 1.5 0.135078 -0.316345 
-5.49192 4.11504 -7.82024 0 0 1.5 0.128634 -0.332038 
-5.64417 4.14992 -7.5195 0 0 1.5 0.124758 -0.340833 
-5.79261 4.18545 -7.21684 0 0 1.5 0.123287 -0.341708 
-5.92051 4.21828 -6.90467 0 0 1.5 0.126665 -0.32285 
-6.04206 4.24903 -6.58996 0 0 1.5 0.131004 -0.30685 
-6.1434 4.27265 -6.26735 0 0 1.5 0.136738 -0.28936 
-6.22706 4.28821 -5.93972 0 0 1.5 0.15131 -0.25641 
-6.29632 4.29722 -5.60802 0 0 1.5 0.159672 -0.242457 
-6.32778 4.28798 -5.27075 0 0 1.5 0.168435 -0.230537 
-6.33859 4.26892 -4.93338 0 0 1.5 0.177361 -0.220702 
-6.32335 4.23749 -4.5962 0 0 1.5 0.19482 -0.206372 
-6.26642 4.18573 -4.2664 0 0 1.5 0.202886 -0.201324 
-6.18979 4.12312 -3.94305 0 0 1.5 0.210179 -0.197411 
-6.08863 4.04656 -3.62871 0 0 1.5 0.216482 -0.194355 
-5.96269 3.95014 -3.32956 0 0 1.5 0.225334 -0.189697 
-5.82768 3.84387 -3.03777 0 0 1.5 0.22755 -0.187819 
-5.67844 3.71674 -2.76123 0 0 1.5 0.228173 -0.186129 
-5.52543 3.57308 -2.49566 0 0 1.5 0.224631 -0.18243 
-5.36937 3.41606 -2.23897 0 0 1.5 0.220584 -0.180313 
-5.21611 3.2314 -1.99995 0 0 1.5 0.215181 -0.178118 
-5.06482 3.03779 -1.76685 0 0 1.5 0.20859 -0.175722 
-4.92391 2.81501 -1.55372 0 0 1.5 0.192577 -0.170257 
-4.78981 2.58051 -1.35005 0 0 1.5 0.183539 -0.1676 
-4.66689 2.32674 -1.16191 0 0 1.5 0.174066 -0.164939 
-4.55683 2.057 -0.989839 0 0 1.5 0.164323 -0.162154 
-4.45484 1.77725 -0.82784 0 0 1.5 0.144561 -0.15736 
-4.36949 1.48153 -0.686541 0 0 1.5 0.134769 -0.155497 
-4.28782 1.1823 -0.549824 0 0 1.5 0.125148 -0.153773 
-4.22204 0.870454 -0.434379 0 0 1.5 0.115753 -0.152431 
-4.15793 0.557341 -0.321696 0 0 1.5 0.097794 -0.151623 
-4.10197 0.238084 -0.222458 0 0 1.5 0.0892766 -0.15181 
-4.04683 -0.0822281 -0.126332 0 0 1.5 0.0810794 -0.152564 
-3.99352 -0.404868 -0.0370759 0 0 1.5 0.0656283 -0.156843 
-3.93834 -0.727619 0.0505846 0 0 1.5 0.0583595 -0.160185 
-3.88085 -1.05051 0.136285 0 0 1.5 0.0513805 -0.164794 
-3.8179 -1.37197 0.223338 0 0 1.5 0.0446719 -0.171672 
-3.75121 -1.69247 0.311316 0 0 1.5 0.032006 -0.196377 
-3.67585 -2.00943 0.404722 0 0 1.5 0.0260361 -0.220792 
-3.59766 -2.32523 0.499904 0 0 1.5 0.0203175 -0.267542 
-3.50969 -2.63525 0.60496 0 0 1.5 0.0149223 -0.36813 
-3.42019 -2.94409 0.712169 0 0 1.5 0.00698309 -1.0939 
-3.32465 -3.24711 0.830291 0 0 1.5 0.00765162 -0.886699 
-3.22855 -3.54844 0.952081 0 0 1.5 0.0114184 -0.444687 
-3.13116 -3.84585 1.08234 0 0 1.5 0.0213967 -0.195066 
-3.03502 -4.14136 1.21764 0 0 1.5 0.0267152 -0.156675 
-2.94017 -4.43492 1.35811 0 0 1.5 0.0321223 -0.132749 
-2.84869 -4.72737 1.50301 0 0 1.5 0.0375865 -0.115619 
-2.75875 -5.01931 1.64994 0 0 1.5 0.0486041 -0.0895651 
-2.6724 -5.31165 1.7982 0 0 1.5 0.0541199 -0.0782072 
-2.58653 -5.60422 1.9463 0 0 1.5 0.059612 -0.0672918 
-2.50064 -5.89868 2.09059 0 0 1.5 0.0650546 -0.0567457 
-2.4128 -6.1939 2.23203 0 0 1.5 0.0756734 -0.0363571 
-2.32029 -6.49091 2.36669 0 0 1.5 0.0807854 -0.0261082 
-2.2204 -6.78858 2.49405 0 0 1.5 0.0857219 -0.0160333 
-2.11376 -7.08686 2.61474 0 0 1.5 0.0949381 0.00322926 
-1.99136 -7.38357 2.72318 0 0 1.5 0.0991563 0.0128393 
-1.86384 -7.67974 2.82769 0 0 1.5 0.103078 0.0222021 
-1.71151 -7.96899 2.91732 0 0 1.5 0.106682 0.031058 
-1.55258 -8.25518 3.00427 0 0 1.5 0.112871 0.0480007 
-1.3738 -8.53216 3.08316 0 0 1.5 0.115433 0.0559917 
-1.18261 -8.80088 3.15997 0 0 1.5 0.117642 0.0633101 
-0.978138 -9.06075 3.23456 0 0 1.5 0.119503 0.0700686 
-0.757102 -9.30562 3.3112 0 0 1.5 0.122223 0.0820955 
-0.529074 -9.54416 3.3887 0 0 1.5 0.123108 0.0871931 
-0.282607 -9.7602 3.47473 0 0 1.5 0.123696 0.0916949 
-0.0325678 -9.97103 3.56314 0 0 1.5 0.124001 0.0956405 
0.231706 -10.1579 3.66386 0 0 1.5 0.123823 0.101591 
0.499438 -10.3363 3.7694 0 0 1.5 0.123378 0.103501 
0.775132 -10.4954 3.88605 0 0 1.5 0.122715 0.104697 
1.05417 -10.6416 4.01024 0 0 1.5 0.120778 0.105406 
1.33683 -10.7738 4.14259 0 0 1.5 0.119524 0.105007 
1.62167 -10.8905 4.2839 0 0 1.5 0.118085 0.104088 
1.90774 -10.9985 4.4302 0 0 1.5 0.116463 0.102823 
2.19455 -11.09 4.58572 0 0 1.5 0.112677 0.0997449 
2.48155 -11.1771 4.74369 0 0 1.5 0.110514 0.0979061 
2.76814 -11.2473 4.91046 0 0 1.5 0.108168 0.0960567 
3.05462 -11.3152 5.07841 0 0 1.5 0.105639 0.094395 
3.34003 -11.3685 5.25334 0 0 1.5 0.100038 0.0916479 
3.62516 -11.4187 5.42953 0 0 1.5 0.0969685 0.0907435 
3.9093 -11.4575 5.61026 0 0 1.5 0.0937245 0.0904047 
4.19306 -11.491 5.79251 0 0 1.5 0.0867391 0.0916645 
4.47619 -11.5155 5.97728 0 0 1.5 0.0830146 0.0935364 
4.75905 -11.532 6.16322 0 0 1.5 0.0791497 0.0965521 
5.04168 -11.542 6.3501 0 0 1.5 0.0751573 0.100923 
5.32435 -11.5418 6.53709 0 0 1.5 0.0668514 0.114985 
5.60704 -11.5379 6.72411 0 0 1.5 0.0625687 0.125634 
5.8902 -11.5229 6.90983 0 0 1.5 0.058221 0.139672 
6.17346 -11.506 7.09523 0 0 1.5 0.0538283 0.158217 
6.45731 -11.482 7.27898 0 0 1.5 0.0450127 0.215853 
6.7413 -11.4573 7.46239 0 0 1.5 0.0406632 0.260537 
7.02562 -11.4309 7.64506 0 0 1.5 0.0364279 0.321524 
7.30981 -11.4061 7.82815 0 0 1.5 0.0287167 0.515284 
7.59386 -11.383 8.0117 0 0 1.5 0.0255984 0.65183 
7.87681 -11.3655 8.1975 0 0 1.5 0.0233532 0.790888 
8.15917 -11.351 8.38449 0 0 1.5 0.0223474 0.875784 
8.43847 -11.346 8.57644 0 0 1.5 0.0249347 0.731081 
8.71707 -11.3432 8.76952 0 0 1.5 0.0283547 0.579202 
8.98973 -11.3518 8.97073 0 0 1.5 0.0328433 0.443254 
9.26067 -11.3621 9.17408 0 0 1.5 0.0381641 0.337417 
9.52534 -11.3788 9.38521 0 0 1.5 0.0507287 0.202087 
9.7858 -11.3965 9.60132 0 0 1.5 0.0578271 0.159765 
10.0413 -11.4154 9.82334 0 0 1.5 0.0654201 0.127799 
10.2896 -11.4305 10.0535 0 0 1.5 0.0734895 0.103196 
10.5347 -11.4434 10.2872 0 0 1.5 0.0910269 0.0683346 
10.7719 -11.4467 10.5293 0 0 1.5 0.100472 0.0556012 
11.0061 -11.4443 10.7743 0 0 1.5 0.110338 0.04493 
11.2373 -11.436 11.022 0 0 1.5 0.131168 0.0278049 
11.4675 -11.422 11.2705 0 0 1.5 0.141999 0.0207558 
11.7 -11.4109 11.5169 0 0 1.5 0.152968 0.0143652 
11.9355 -11.4044 11.7606 0 0 1.5 0.163935 0.00841856 
12.1804 -11.421 11.9943 0 0 1.5 0.18515 -0.00211618 
12.4314 -11.4655 12.2166 0 0 1.5 0.194971 -0.00683994 
12.6857 -11.54 12.4263 0 0 1.5 0.203937 -0.0113731 
12.9405 -11.6555 12.6177 0 0 1.5 0.211782 -0.0156365 
13.1841 -11.8202 12.7847 0 0 1.5 0.223162 -0.0231589 
13.4161 -12.0122 12.9374 0 0 1.5 0.226287 -0.0265657 
13.6319 -12.2355 13.0732 0 0 1.5 0.227505 -0.0296987 
13.8206 -12.4899 13.1915 0 0 1.5 0.224135 -0.0349577 
13.9995 -12.7547 13.3042 0 0 1.5 0.219673 -0.0371724 
14.1407 -13.047 13.4016 0 0 1.5 0.213545 -0.0391545 
14.2735 -13.3433 13.4971 0 0 1.5 0.205975 -0.0409151 
14.3708 -13.6562 13.5839 0 0 1.5 0.187521 -0.0438796 
14.4596 -13.9713 13.6695 0 0 1.5 0.177137 -0.0452348 
14.5101 -14.2967 13.7502 0 0 1.5 0.16631 -0.0466566 
14.5591 -14.6222 13.8307 0 0 1.5 0.155258 -0.0481562 
14.5603 -14.9521 13.9086 0 0 1.5 0.133177 -0.0515687 
14.5615 -15.282 13.9864 0 0 1.5 0.122415 -0.0538099 
14.5627 -15.6119 14.0643 0 0 1.5 0.11197 -0.0565057 
14.5639 -15.9419 14.1421 0 0 1.5 0.101909 -0.0597004 
14.5651 -16.2718 14.2199 0 0 1.5 0.0831059 -0.068641 
14.5663 -16.6017 14.2978 0 0 1.5 0.0744142 -0.0749197 
14.5675 -16.9316 14.3756 0 0 1.5 0.0662161 -0.0827339 
14.5687 -17.2615 14.4535 0 0 1.5 0.0513235 -0.105901 
14.5699 -17.5914 14.5313 0 0 1.5 0.04463 -0.123315 
14.5711 -17.9213 14.6092 0 0 1.5 0.0384474 -0.146447 
14.5723 -18.2513 14.687 0 0 1.5 0.032791 -0.177842 
14.5735 -18.5812 14.7649 0 0 1.5 0.0231485 -0.281502 
14.5748 -18.9111 14.8427 0 0 1.5 0.0192665 -0.361905 
14.576 -19.241 14.9206 0 0 1.5 0.0161316 -0.460829 
14.5772 -19.5709 14.9984 0 0 1.5 0.01386 -0.559452 
14.5784 -19.9008 15.0763 0 0 1.5 0.0121502 -0.588525 
14.5796 -20.2307 15.1541 0 0 1.5 0.0124779 -0.503028 
14.5808 -20.5607 15.232 0 0 1.5 0.0132395 -0.404148 
14.582 -20.8906 15.3098 0 0 1.5 0.0151336 -0.254238 
14.5832 -21.2205 15.3877 0 0 1.5 0.0159814 -0.207067 
14.5844 -21.5504 15.4655 0 0 1.5 0.0166669 -0.173519 
14.5856 -21.8803 15.5434 0 0 1.5 0.0171603 -0.149521 
14.5868 -22.2102 15.6212 0 0 1.5 0.0175332 -0.119793 
14.588 -22.5401 15.6991 0 0 1.5 0.0174169 -0.111304 
14.5892 -22.8701 15.7769 0 0 1.5 0.0171114 -0.10579 
14.5904 -23.2 15.8548 0 0 1.5 0.0166318 -0.102612 
14.5916 -23.5299 15.9326 0 0 1.5 0.0152232 -0.102977 
14.5928 -23.8598 16.0104 0 0 1.5 0.0143361 -0.106543 
14.594 -24.1897 16.0883 0 0 1.5 0.0133581 -0.112358 
14.5952 -24.5196 16.1661 0 0 1.5 0.0112244 -0.1333 
14.5964 -24.8495 16.244 0 0 1.5 0.0101131 -0.150279 
14.5976 -25.1795 16.3218 0 0 1.5 0.00900363 -0.173074 
14.5988 -25.5094 16.3997 0 0 1.5 0.00792021 -0.20391 
14.6 -25.8393 16.4775 0 0 1.5 0.00592256 -0.303371 
14.6012 -26.1692 16.5554 0 0 1.5 0.00506228 -0.37764 
14.6024 -26.4991 16.6332 0 0 1.5 0.00433776 -0.467295 
14.6036 -26.829 16.7111 0 0 1.5 0.00378327 -0.558923 
14.6048 -27.1589 16.7889 0 0 1.5 0.0032817 -0.614203 
14.606 -27.4889 16.8668 0 0 1.5 0.00331368 -0.547541 
14.6072 -27.8188 16.9446 0 0 1.5 0.00346933 -0.455289 
14.6084 -28.1487 17.0225 0 0 1.5 0.00369146 -0.367195 
14.6096 -28.4786 17.1003 0 0 1.5 0.0041691 -0.240851 
14.6108 -28.8085 17.1782 0 0 1.5 0.00437653 -0.201264 
14.612 -29.1384 17.256 0 0 1.5 0.00454815 -0.172393 
14.6133 -29.4684 17.3339 0 0 1.5 0.00477043 -0.135542 
14.6145 -29.7983 17.4117 0 0 1.5 0.00482103 -0.124368 
14.6157 -30.1282 17.4896 0 0 1.5 0.00483404 -0.116427 
14.6169 -30.4581 17.5674 0 0 1.5 0.0048127 -0.110876 
14.6181 -30.788 17.6452 0 0 1.5 0.00468273 -0.105637 
14.6193 -31.1179 17.7231 0 0 1.5 0.00458314 -0.10531 
14.6205 -31.4478 17.8009 0 0 1.5 0.00446694 -0.105997 
14.6217 -31.7778 17.8788 0 0 1.5 0.00433886 -0.10759 
14.6229 -32.1077 17.9566 0 0 1.5 0.00406255 -0.113191 
14.6241 -32.4376 18.0345 0 0 1.5 0.00392187 -0.116602 
14.6253 -32.7675 18.1123 0 0 1.5 0.00378425 -0.120198 
14.6265 -33.0974 18.1902 0 0 1.5 0.00352735 -0.127593 
14.6277 -33.4273 18.268 0 0 1.5 0.00341217 -0.130728 
14.6289 -33.7572 18.3459 0 0 1.5 0.00330818 -0.133272 
14.6301 -34.0872 18.4237 0 0 1.5 0.00321598 -0.135295 
14.6313 -34.4171 18.5016 0 0 1.5 0.00306825 -0.137038 
14.6325 -34.747 18.5794 0 0 1.5 0.00301305 -0.136677 
14.6337 -35.0769 18.6573 0 0 1.5 0.00296978 -0.135772 
14.6349 -35.4068 18.7351 0 0 1.5 0.00293784 -0.134377 
14.6361 -35.7367 18.813 0 0 1.5 0.00290574 -0.130453 
14.6373 -36.0666 18.8908 0 0 1.5 0.00290448 -0.12828 
14.6385 -36.3966 18.9687 0 0 1.5 0.00291239 -0.126116 
0 1 0 
1 2 0 
2 3 0 
3 4 0 
4 5 0 
5 6 0 
6 7 0 
7 8 0 
8 9 0 
9 10 0 
10 11 0 
11 12 0 
12 13 0 
13 14 0 
14 15 0 
15 16 0 
16 17 0 
17 18 0 
18 19 0 
19 20 0 
20 21 0 
21 22 0 
22 23 0 
23 24 0 
24 25 0 
25 26 0 
26 27 0 
27 28 0 
28 29 0 
29 30 0 
30 31 0 
31 32 0 
32 33 0 
33 34 0 
34 35 0 
35 36 0 
36 37 0 
37 38 0 
38 39 0 
39 40 0 
40 41 0 
41 42 0 
42 43 0 
43 44 0 
44 45 0 
45 46 0 
46 47 0 
47 48 0 
48 49 0 
49 50 0 
50 51 0 
51 52 0 
52 53 0 
53 54 0 
54 55 0 
55 56 0 
56 57 0 
57 58 0 
58 59 0 
59 60 0 
60 61 0 
61 62 0 
62 63 0 
63 64 0 
64 65 0 
65 66 0 
66 67 0 
67 68 0 
68 69 0 
69 70 0 
70 71 0 
71 72 0 
72 73 0 
73 74 0 
74 75 0 
75 76 0 
76 77 0 
77 78 0 
78 79 0 
79 80 0 
80 81 0 
81 82 0 
82 83 0 
83 84 0 
84 85 0 
85 86 0 
86 87 0 
87 88 0 
88 89 0 
89 90 0 
90 91 0 
91 92 0 
92 93 0 
93 94 0 
94 95 0 
95 96 0 
96 97 0 
97 98 0 
98 99 0 
99 100 0 
100 101 0 
101 102 0 
102 103 0 
103 104 0 
104 105 0 
105 106 0 
106 107 0 
107 108 0 
108 109 0 
109 110 0 
110 111 0 
111 112 0 
112 113 0 
113 114 0 
114 115 0 
115 116 0 
116 117 0 
117 118 0 
118 119 0 
119 120 0 
120 121 0 
121 122 0 
122 123 0 
123 124 0 
124 125 0 
125 126 0 
126 127 0 
127 128 0 
128 129 0 
129 130 0 
130 131 0 
131 132 0 
132 133 0 
133 134 0 
134 135 0 
135 136 0 
136 137 0 
137 138 0 
138 139 0 
139 140 0 
140 141 0 
141 142 0 
142 143 0 
143 144 0 
144 145 0 
145 146 0 
146 147 0 
147 148 0 
148 149 0 
149 150 0 
150 151 0 
151 152 0 
152 153 0 
153 154 0 
154 155 0 
155 156 0 
156 157 0 
157 158 0 
158 159 0 
159 160 0 
160 161 0 
161 162 0 
162 163 0 
163 164 0 
164 165 0 
165 166 0 
166 167 0 
167 168 0 
168 169 0 
169 170 0 
170 171 0 
171 172 0 
172 173 0 
173 174 0 
174 175 0 
175 176 0 
176 177 0 
177 178 0 
178 179 0 
179 180 0 
180 181 0 
181 182 0 
182 183 0 
183 184 0 
184 185 0 
185 186 0 
186 187 0 
187 188 0 
188 189 0 
189 190 0 
190 191 0 
191 192 0 
192 193 0 
193 194 0 
194 195 0 
195 196 0 
196 197 0 
197 198 0 
198 199 0 
199 200 0 
200 201 0 
201 202 0 
202 203 0 
203 204 0 
204 205 0 
205 206 0 
206 207 0 
207 208 0 
208 209 0 
209 210 0 
210 211 0 
211 212 0 
212 213 0 
213 214 0 
214 215 0 
215 216 0 
216 217 0 
217 218 0 
218 219 0 
219 220 0 
220 221 0 
221 222 0 
222 223 0 
223 224 0 
224 225 0 
225 226 0 
226 227 0 
227 228 0 
228 229 0 
229 230 0 
230 231 0 
231 232 0 
232 233 0 
233 234 0 
234 235 0 
235 236 0 
236 237 0 
237 238 0 
238 239 0 
239 240 0 
240 241 0 
241 242 0 
242 243 0 
243 244 0 
244 245 0 
245 246 0 
246 247 0 
247 248 0 
248 249 0 
249 250 0 
250 251 0 
251 252 0 
252 253 0 
253 254 0 
254 255 0 
255 256 0 
256 257 0 
257 258 0 
258 259 0 
259 260 0 
260 261 0 
261 262 0 
262 263 0 
263 264 0 
264 265 0 
265 266 0 
266 267 0 
267 268 0 
268 269 0 
269 270 0 
270 271 0 
271 272 0 
272 273 0 
273 274 0 
274 275 0 
275 276 0 
276 277 0 
277 278 0 
278 279 0 
279 280 0 
280 281 0 
281 282 0 
282 283 0 
283 284 0 
284 285 0 
285 286 0 
286 287 0 
287 288 0 
288 289 0 
289 290 0 
290 291 0 
291 292 0 
292 293 0 
293 294 0 
294 295 0 
295 296 0 
296 297 0 
297 298 0 
298 299 0 
-1 -1 0 
-1 300 0 1 2 3 4 5 6 7 8 9 10 11 12 13 14 15 16 17 18 19 20 21 22 23 24 25 26 27 28 29 30 31 32 33 34 35 36 37 38 39 40 41 42 43 44 45 46 47 48 49 50 51 52 53 54 55 56 57 58 59 60 61 62 63 64 65 66 67 68 69 70 71 72 73 74 75 76 77 78 79 80 81 82 83 84 85 86 87 88 89 90 91 92 93 94 95 96 97 98 99 100 101 102 103 104 105 106 107 108 109 110 111 112 113 114 115 116 117 118 119 120 121 122 123 124 125 126 127 128 129 130 131 132 133 134 135 136 137 138 139 140 141 142 143 144 145 146 147 148 149 150 151 152 153 154 155 156 157 158 159 160 161 162 163 164 165 166 167 168 169 170 171 172 173 174 175 176 177 178 179 180 181 182 183 184 185 186 187 188 189 190 191 192 193 194 195 196 197 198 199 200 201 202 203 204 205 206 207 208 209 210 211 212 213 214 215 216 217 218 219 220 221 222 223 224 225 226 227 228 229 230 231 232 233 234 235 236 237 238 239 240 241 242 243 244 245 246 247 248 249 250 251 252 253 254 255 256 257 258 259 260 261 262 263 264 265 266 267 268 269 270 271 272 273 274 275 276 277 278 279 280 281 282 283 284 285 286 287 288 289 290 291 292 293 294 295 296 297 298 299 
