ply
format ascii 1.0
comment written by koba@oshima.lab
element vertex 300
property float x
property float y
property float z
property int label
property int attribute
property float radius
property float curvature
property float torsion
element edge 300
property int vertex1
property int vertex2
property int label
element vertex_seq 1
property int label
property list int int vertex_indices
end_header
-0.714362 26.1208 -7.49438 0 0 1.5 0.00799726 0.0467162 
-0.883009 25.7902 -7.4051 0 0 1.5 0.00798508 0.0489149 
-1.05165 25.4595 -7.31583 0 0 1.5 0.00797537 0.0527029 
-1.2203 25.1289 -7.22655 0 0 1.5 0.00796803 0.0581301 
-1.38895 24.7983 -7.13728 0 0 1.5 0.00796397 0.0739679 
-1.55759 24.4677 -7.048 0 0 1.5 0.00797022 0.0843201 
-1.72624 24.1371 -6.95873 0 0 1.5 0.00798531 0.0962216 
-1.89489 23.8065 -6.86945 0 0 1.5 0.00801382 0.109507 
-2.06353 23.4759 -6.78018 0 0 1.5 0.00813502 0.137404 
-2.23218 23.1453 -6.6909 0 0 1.5 0.00824019 0.150907 
-2.40082 22.8147 -6.60162 0 0 1.5 0.00838599 0.16346 
-2.56947 22.4841 -6.51235 0 0 1.5 0.00858157 0.173756 
-2.73812 22.1535 -6.42307 0 0 1.5 0.00914169 0.185172 
-2.90676 21.8229 -6.3338 0 0 1.5 0.00951196 0.186848 
-3.07541 21.4923 -6.24452 0 0 1.5 0.00994292 0.185714 
-3.24406 21.1616 -6.15525 0 0 1.5 0.0109524 0.177549 
-3.4127 20.831 -6.06597 0 0 1.5 0.011507 0.172896 
-3.58135 20.5004 -5.9767 0 0 1.5 0.0120765 0.168308 
-3.74999 20.1698 -5.88742 0 0 1.5 0.0126407 0.16416 
-3.91864 19.8392 -5.79815 0 0 1.5 0.013669 0.160986 
-4.08729 19.5086 -5.70887 0 0 1.5 0.014097 0.162545 
-4.25593 19.178 -5.61959 0 0 1.5 0.0144466 0.166186 
-4.42458 18.8474 -5.53032 0 0 1.5 0.0147061 0.172742 
-4.59322 18.5168 -5.44104 0 0 1.5 0.014945 0.197029 
-4.76187 18.1862 -5.35177 0 0 1.5 0.0149409 0.215081 
-4.93052 17.8556 -5.26249 0 0 1.5 0.0148848 0.237942 
-5.09916 17.525 -5.17322 0 0 1.5 0.0148359 0.295199 
-5.26781 17.1944 -5.08394 0 0 1.5 0.0150176 0.322014 
-5.43646 16.8637 -4.99467 0 0 1.5 0.0154859 0.340793 
-5.6051 16.5331 -4.90539 0 0 1.5 0.0163611 0.34644 
-5.77375 16.2025 -4.81612 0 0 1.5 0.019709 0.313072 
-5.94239 15.8719 -4.72684 0 0 1.5 0.022267 0.283751 
-6.11104 15.5413 -4.63757 0 0 1.5 0.0254226 0.253887 
-6.27969 15.2107 -4.54829 0 0 1.5 0.0291683 0.226301 
-6.43803 14.8754 -4.45795 0 0 1.5 0.0383602 0.183124 
-6.59085 14.5377 -4.36705 0 0 1.5 0.0437925 0.167915 
-6.73579 14.196 -4.27794 0 0 1.5 0.049795 0.155853 
-6.87886 13.8532 -4.18972 0 0 1.5 0.0563779 0.146298 
-7.01985 13.5083 -4.10716 0 0 1.5 0.071364 0.134068 
-7.16331 13.1634 -4.0288 0 0 1.5 0.0798345 0.130351 
-7.31016 12.8186 -3.95619 0 0 1.5 0.0890021 0.127489 
-7.46893 12.477 -3.89463 0 0 1.5 0.109552 0.125007 
-7.63744 12.139 -3.84051 0 0 1.5 0.120991 0.124942 
-7.81956 11.8065 -3.79617 0 0 1.5 0.133227 0.125084 
-8.02583 11.4866 -3.76826 0 0 1.5 0.146246 0.125675 
-8.2486 11.1775 -3.75407 0 0 1.5 0.17439 0.128406 
-8.48739 10.8802 -3.75729 0 0 1.5 0.189265 0.129908 
-8.73985 10.5953 -3.78283 0 0 1.5 0.204388 0.131566 
-8.99921 10.3222 -3.84503 0 0 1.5 0.21943 0.133507 
-9.24993 10.0552 -3.951 0 0 1.5 0.247558 0.137056 
-9.47809 9.79127 -4.10278 0 0 1.5 0.259634 0.138345 
-9.6713 9.53004 -4.29951 0 0 1.5 0.26963 0.139349 
-9.82231 9.27228 -4.53496 0 0 1.5 0.281347 0.140505 
-9.92259 9.02026 -4.80356 0 0 1.5 0.282396 0.140637 
-9.96414 8.77882 -5.0954 0 0 1.5 0.280068 0.140574 
-9.97161 8.54548 -5.39578 0 0 1.5 0.274481 0.140563 
-9.94576 8.32057 -5.70312 0 0 1.5 0.255069 0.141426 
-9.87549 8.1102 -6.01331 0 0 1.5 0.242286 0.142632 
-9.79081 7.90509 -6.3234 0 0 1.5 0.228202 0.144735 
-9.67279 7.71311 -6.6315 0 0 1.5 0.213385 0.148002 
-9.54044 7.52739 -6.93706 0 0 1.5 0.183463 0.158853 
-9.3888 7.3501 -7.23919 0 0 1.5 0.169094 0.166919 
-9.22118 7.17979 -7.53649 0 0 1.5 0.1555 0.176982 
-9.04254 7.01431 -7.83046 0 0 1.5 0.131443 0.203314 
-8.84849 6.85455 -8.11753 0 0 1.5 0.121299 0.219099 
-8.64838 6.69704 -8.40189 0 0 1.5 0.112604 0.235547 
-8.43437 6.5426 -8.67757 0 0 1.5 0.105504 0.251147 
-8.21731 6.38885 -8.95135 0 0 1.5 0.0967004 0.270583 
-7.98805 6.23491 -9.21485 0 0 1.5 0.0952687 0.269488 
-7.75752 6.08095 -9.47727 0 0 1.5 0.0959339 0.259686 
-7.51633 5.9236 -9.72782 0 0 1.5 0.0987152 0.242235 
-7.2747 5.76609 -9.97784 0 0 1.5 0.110467 0.194877 
-7.02382 5.60248 -10.2145 0 0 1.5 0.119301 0.170348 
-6.7727 5.43863 -10.4507 0 0 1.5 0.130039 0.147582 
-6.51347 5.26635 -10.6717 0 0 1.5 0.142672 0.127414 
-6.25394 5.09364 -10.8919 0 0 1.5 0.17373 0.0953435 
-5.98693 4.90972 -11.0934 0 0 1.5 0.192266 0.0828273 
-5.71944 4.72481 -11.2932 0 0 1.5 0.212896 0.0722329 
-5.4451 4.52545 -11.4684 0 0 1.5 0.260531 0.0554987 
-5.16975 4.32291 -11.6376 0 0 1.5 0.287374 0.0486436 
-4.88909 4.10354 -11.7748 0 0 1.5 0.315896 0.0424489 
-4.60751 3.8751 -11.8902 0 0 1.5 0.34562 0.0366952 
-4.32438 3.63161 -11.9693 0 0 1.5 0.40538 0.0256159 
-4.04881 3.37066 -11.9816 0 0 1.5 0.433051 0.0199702 
-3.78762 3.10232 -11.9352 0 0 1.5 0.457408 0.0141089 
-3.55219 2.82993 -11.8083 0 0 1.5 0.477036 0.00794591 
-3.38725 2.58507 -11.5669 0 0 1.5 0.497486 -0.00539836 
-3.2752 2.37338 -11.2756 0 0 1.5 0.497215 -0.0125831 
-3.20274 2.18792 -10.9515 0 0 1.5 0.49022 -0.0200462 
-3.18759 2.0455 -10.5977 0 0 1.5 0.459766 -0.0354838 
-3.19622 1.92191 -10.2381 0 0 1.5 0.438906 -0.0431319 
-3.23183 1.81968 -9.87208 0 0 1.5 0.416093 -0.0507094 
-3.29148 1.73597 -9.50527 0 0 1.5 0.392437 -0.0582888 
-3.36668 1.66423 -9.13797 0 0 1.5 0.345779 -0.0729011 
-3.46314 1.60777 -8.77354 0 0 1.5 0.323788 -0.0799829 
-3.57226 1.56039 -8.41082 0 0 1.5 0.303006 -0.0871862 
-3.70071 1.5264 -8.0535 0 0 1.5 0.283477 -0.0944458 
-3.84178 1.50113 -7.6997 0 0 1.5 0.247996 -0.109343 
-4.0026 1.49082 -7.35428 0 0 1.5 0.231832 -0.117743 
-4.17568 1.4898 -7.01405 0 0 1.5 0.216538 -0.127107 
-4.37179 1.51135 -6.688 0 0 1.5 0.188173 -0.149985 
-4.57688 1.5417 -6.36749 0 0 1.5 0.174946 -0.16501 
-4.80898 1.61297 -6.07324 0 0 1.5 0.162289 -0.183478 
-5.04781 1.70265 -5.79103 0 0 1.5 0.150243 -0.206141 
-5.2995 1.83241 -5.53504 0 0 1.5 0.128371 -0.26911 
-5.55078 2.00541 -5.3081 0 0 1.5 0.118882 -0.311658 
-5.7992 2.20394 -5.09823 0 0 1.5 0.110784 -0.360929 
-6.03026 2.44977 -4.91966 0 0 1.5 0.104557 -0.413214 
-6.24492 2.71598 -4.75239 0 0 1.5 0.100037 -0.491999 
-6.44375 3.00187 -4.59602 0 0 1.5 0.102911 -0.497188 
-6.61376 3.30736 -4.44386 0 0 1.5 0.10973 -0.475574 
-6.77606 3.6181 -4.29282 0 0 1.5 0.120572 -0.435872 
-6.90206 3.94022 -4.13144 0 0 1.5 0.15398 -0.344152 
-7.02264 4.26248 -3.96682 0 0 1.5 0.176369 -0.304467 
-7.10992 4.58401 -3.78051 0 0 1.5 0.20247 -0.271616 
-7.18539 4.90104 -3.58348 0 0 1.5 0.26555 -0.225118 
-7.23118 5.20675 -3.35952 0 0 1.5 0.302153 -0.209115 
-7.25066 5.49208 -3.10974 0 0 1.5 0.341397 -0.196314 
-7.24738 5.75977 -2.83764 0 0 1.5 0.382158 -0.186027 
-7.19027 5.96185 -2.5201 0 0 1.5 0.461026 -0.169502 
-7.10255 6.11191 -2.18603 0 0 1.5 0.494061 -0.161282 
-6.98088 6.20138 -1.83548 0 0 1.5 0.518989 -0.152553 
-6.81483 6.17221 -1.49301 0 0 1.5 0.533492 -0.143173 
-6.63799 6.0928 -1.16851 0 0 1.5 0.527519 -0.121413 
-6.45083 5.96533 -0.861197 0 0 1.5 0.508558 -0.109643 
-6.26006 5.77737 -0.590444 0 0 1.5 0.481891 -0.0980961 
-6.0692 5.57732 -0.327783 0 0 1.5 0.416376 -0.0760453 
-5.88281 5.33464 -0.0995816 0 0 1.5 0.382155 -0.0659116 
-5.69778 5.08716 0.123929 0 0 1.5 0.349141 -0.0566615 
-5.52078 4.81156 0.319965 0 0 1.5 0.318274 -0.0481245 
-5.34523 4.53289 0.512498 0 0 1.5 0.264588 -0.032714 
-5.18008 4.2322 0.679908 0 0 1.5 0.241889 -0.0259847 
-5.01587 3.93008 0.84537 0 0 1.5 0.22177 -0.0197845 
-4.8641 3.60885 0.984968 0 0 1.5 0.203985 -0.0139948 
-4.71284 3.28698 1.12349 0 0 1.5 0.174247 -0.00390873 
-4.57517 2.9484 1.23361 0 0 1.5 0.161712 0.000342172 
-4.43822 2.60909 1.34202 0 0 1.5 0.150364 0.00411045 
-4.31445 2.25638 1.4194 0 0 1.5 0.139946 0.00743666 
-4.19227 1.90238 1.49219 0 0 1.5 0.121019 0.0128907 
-4.08099 1.53958 1.53347 0 0 1.5 0.11214 0.0150417 
-3.97211 1.17549 1.5653 0 0 1.5 0.103442 0.0170224 
-3.87035 0.807603 1.56917 0 0 1.5 0.086163 0.0213558 
-3.7708 0.439653 1.55866 0 0 1.5 0.0774322 0.0239454 
-3.67442 0.0716188 1.52742 0 0 1.5 0.0685739 0.0276013 
-3.5784 -0.294443 1.47963 0 0 1.5 0.0595864 0.033628 
-3.48262 -0.659045 1.41958 0 0 1.5 0.0414446 0.0621726 
-3.38402 -1.02015 1.34533 0 0 1.5 0.0326372 0.0985644 
-3.28437 -1.37995 1.2658 0 0 1.5 0.024714 0.174408 
-3.17839 -1.73622 1.17898 0 0 1.5 0.0192747 0.296064 
-3.0714 -2.09193 1.09101 0 0 1.5 0.0245 0.19392 
-2.95504 -2.44549 1.00636 0 0 1.5 0.0330551 0.105143 
-2.83752 -2.79899 0.923236 0 0 1.5 0.0429694 0.057376 
-2.71058 -3.15228 0.854061 0 0 1.5 0.0642223 0.0119045 
-2.58146 -3.50567 0.790729 0 0 1.5 0.0749625 -0.00139035 
-2.44434 -3.85942 0.748632 0 0 1.5 0.0855214 -0.0124808 
-2.30398 -4.21275 0.719678 0 0 1.5 0.0957269 -0.0226884 
-2.15769 -4.56529 0.714745 0 0 1.5 0.114434 -0.0415788 
-2.00736 -4.91503 0.73209 0 0 1.5 0.122662 -0.05091 
-1.85314 -5.26204 0.770908 0 0 1.5 0.129971 -0.0606901 
-1.69403 -5.60133 0.840154 0 0 1.5 0.136267 -0.0706192 
-1.53255 -5.93684 0.924208 0 0 1.5 0.14568 -0.0901329 
-1.36449 -6.25802 1.04262 0 0 1.5 0.148816 -0.100065 
-1.19508 -6.57623 1.16812 0 0 1.5 0.15098 -0.109741 
-1.01575 -6.87365 1.32636 0 0 1.5 0.15287 -0.126771 
-0.834979 -7.16846 1.48767 0 0 1.5 0.15288 -0.133981 
-0.641174 -7.44091 1.67186 0 0 1.5 0.152471 -0.139884 
-0.444211 -7.70897 1.85864 0 0 1.5 0.151796 -0.144032 
-0.231676 -7.95542 2.05815 0 0 1.5 0.150167 -0.14636 
-0.0131816 -8.19472 2.25927 0 0 1.5 0.149407 -0.144484 
0.222712 -8.41314 2.46508 0 0 1.5 0.148765 -0.14075 
0.467988 -8.62082 2.67013 0 0 1.5 0.148268 -0.135155 
0.730646 -8.80859 2.87375 0 0 1.5 0.147649 -0.119008 
1.00625 -8.98056 3.07295 0 0 1.5 0.147436 -0.109372 
1.29677 -9.1343 3.26706 0 0 1.5 0.147194 -0.0989416 
1.60277 -9.26568 3.45217 0 0 1.5 0.146834 -0.0877888 
1.91909 -9.38216 3.6313 0 0 1.5 0.145398 -0.0655427 
2.2511 -9.46886 3.79724 0 0 1.5 0.144171 -0.0548485 
2.58829 -9.54571 3.95882 0 0 1.5 0.142511 -0.0442886 
2.93836 -9.58599 4.10499 0 0 1.5 0.137682 -0.0247904 
3.29019 -9.62003 4.24872 0 0 1.5 0.134469 -0.0159805 
3.64872 -9.61752 4.37973 0 0 1.5 0.130714 -0.00758055 
4.00747 -9.6071 4.50882 0 0 1.5 0.126421 0.000327134 
4.36703 -9.56814 4.63096 0 0 1.5 0.116367 0.0144267 
4.72529 -9.51779 4.75171 0 0 1.5 0.110693 0.0208093 
5.08125 -9.4469 4.86995 0 0 1.5 0.104653 0.0268906 
5.43413 -9.3634 4.98844 0 0 1.5 0.0983052 0.0327736 
5.78373 -9.26651 5.10721 0 0 1.5 0.0849179 0.0441099 
6.12903 -9.15821 5.22825 0 0 1.5 0.0779886 0.0499823 
6.47149 -9.04238 5.3508 0 0 1.5 0.070969 0.0566685 
6.80948 -8.91835 5.47748 0 0 1.5 0.0568465 0.0738924 
7.14565 -8.79099 5.60585 0 0 1.5 0.0498329 0.0865009 
7.47812 -8.65962 5.73968 0 0 1.5 0.0429019 0.105233 
7.80973 -8.52734 5.87476 0 0 1.5 0.0360948 0.134471 
8.139 -8.39549 6.01585 0 0 1.5 0.0231059 0.273918 
8.46804 -8.26377 6.15761 0 0 1.5 0.0171681 0.463793 
8.79618 -8.13588 6.30486 0 0 1.5 0.0120622 0.891224 
9.12433 -8.00876 6.45272 0 0 1.5 0.00894529 1.55417 
9.45259 -7.8865 6.60441 0 0 1.5 0.0131322 0.673629 
9.78107 -7.76581 6.75685 0 0 1.5 0.0177645 0.352707 
10.1102 -7.64969 6.91147 0 0 1.5 0.0226564 0.203679 
10.4398 -7.53596 7.06673 0 0 1.5 0.0323079 0.0787509 
10.7703 -7.4261 7.22303 0 0 1.5 0.0369331 0.047718 
11.1017 -7.31976 7.37978 0 0 1.5 0.0414056 0.0250809 
11.434 -7.21675 7.53695 0 0 1.5 0.0457363 0.0076699 
11.7677 -7.11927 7.69452 0 0 1.5 0.0540777 -0.0177796 
12.1022 -7.02481 7.85229 0 0 1.5 0.0581699 -0.0278197 
12.4387 -6.93912 8.01072 0 0 1.5 0.0622821 -0.0363001 
12.7758 -6.85594 8.16933 0 0 1.5 0.0664737 -0.0431835 
13.115 -6.78576 8.32977 0 0 1.5 0.0753638 -0.0534051 
13.4544 -6.71708 8.49042 0 0 1.5 0.0802132 -0.0567658 
13.795 -6.66618 8.65496 0 0 1.5 0.085427 -0.0587793 
14.1356 -6.61693 8.82002 0 0 1.5 0.091071 -0.0597134 
14.4756 -6.58664 8.99095 0 0 1.5 0.103905 -0.0590423 
14.8151 -6.55947 9.16319 0 0 1.5 0.111199 -0.0575178 
15.1514 -6.55189 9.34364 0 0 1.5 0.119123 -0.0554407 
15.4863 -6.54877 9.52641 0 0 1.5 0.136919 -0.050246 
15.8149 -6.56612 9.71989 0 0 1.5 0.146763 -0.047294 
16.1406 -6.58942 9.91698 0 0 1.5 0.157169 -0.0442201 
16.4562 -6.63412 10.1271 0 0 1.5 0.16804 -0.0410801 
16.7661 -6.68739 10.3427 0 0 1.5 0.19059 -0.0348755 
17.0614 -6.76281 10.5725 0 0 1.5 0.201852 -0.0318349 
17.3449 -6.85182 10.8108 0 0 1.5 0.21273 -0.0288017 
17.6098 -6.96234 11.0624 0 0 1.5 0.222881 -0.0258549 
17.85 -7.09514 11.3259 0 0 1.5 0.239546 -0.0203487 
18.0712 -7.24511 11.5985 0 0 1.5 0.245304 -0.017695 
18.2442 -7.42904 11.8834 0 0 1.5 0.24889 -0.0151671 
18.397 -7.6256 12.1714 0 0 1.5 0.24879 -0.0106521 
18.4884 -7.85528 12.4623 0 0 1.5 0.244989 -0.00859636 
18.5454 -8.09867 12.748 0 0 1.5 0.238795 -0.0067066 
18.5638 -8.35747 13.028 0 0 1.5 0.230468 -0.00502208 
18.5321 -8.63002 13.2918 0 0 1.5 0.208784 -0.00215774 
18.4854 -8.9066 13.5507 0 0 1.5 0.196157 -0.000941457 
18.391 -9.19151 13.7865 0 0 1.5 0.182846 0.000143525 
18.291 -9.47695 14.0189 0 0 1.5 0.169194 0.00111781 
18.1635 -9.76505 14.2345 0 0 1.5 0.141944 0.00282885 
18.0312 -10.0534 14.4466 0 0 1.5 0.128745 0.00365689 
17.884 -10.3423 14.648 0 0 1.5 0.116019 0.00450043 
17.7345 -10.6313 14.8475 0 0 1.5 0.103856 0.00537564 
17.5788 -10.9204 15.0421 0 0 1.5 0.0814167 0.0075221 
17.4237 -11.2097 15.237 0 0 1.5 0.0711863 0.00895482 
17.2699 -11.4992 15.4326 0 0 1.5 0.0616321 0.0107373 
17.1216 -11.7888 15.632 0 0 1.5 0.0445583 0.0163952 
16.9819 -12.0786 15.8374 0 0 1.5 0.0370266 0.0211745 
16.8421 -12.3684 16.0429 0 0 1.5 0.0301821 0.0283033 
16.7023 -12.6582 16.2483 0 0 1.5 0.0240657 0.0394982 
16.5626 -12.948 16.4537 0 0 1.5 0.0143655 0.0877621 
16.4228 -13.2378 16.6591 0 0 1.5 0.0112328 0.127529 
16.2831 -13.5276 16.8646 0 0 1.5 0.00972857 0.151036 
16.1433 -13.8174 17.07 0 0 1.5 0.00988437 0.130309 
16.0035 -14.1072 17.2754 0 0 1.5 0.0127363 0.0622554 
15.8638 -14.3969 17.4808 0 0 1.5 0.01434 0.0436921 
15.724 -14.6867 17.6863 0 0 1.5 0.015733 0.0323533 
15.5843 -14.9765 17.8917 0 0 1.5 0.0176095 0.0204852 
15.4445 -15.2663 18.0971 0 0 1.5 0.0180559 0.0173267 
15.3047 -15.5561 18.3025 0 0 1.5 0.0181846 0.0152234 
15.165 -15.8459 18.508 0 0 1.5 0.0180185 0.0138299 
15.0252 -16.1357 18.7134 0 0 1.5 0.0169228 0.0124368 
14.8854 -16.4255 18.9188 0 0 1.5 0.0160577 0.0123152 
14.7457 -16.7153 19.1242 0 0 1.5 0.0150255 0.0125368 
14.6059 -17.0051 19.3297 0 0 1.5 0.0138623 0.0130935 
14.4662 -17.2949 19.5351 0 0 1.5 0.011285 0.0156099 
14.3264 -17.5847 19.7405 0 0 1.5 0.00993583 0.0179141 
14.1866 -17.8745 19.9459 0 0 1.5 0.00859107 0.0212553 
14.0469 -18.1643 20.1514 0 0 1.5 0.00604365 0.0337887 
13.9071 -18.4541 20.3568 0 0 1.5 0.00490088 0.0456223 
13.7674 -18.7439 20.5622 0 0 1.5 0.00389823 0.0638438 
13.6276 -19.0337 20.7676 0 0 1.5 0.00309348 0.0896605 
13.4878 -19.3235 20.973 0 0 1.5 0.00235417 0.121571 
13.3481 -19.6133 21.1785 0 0 1.5 0.00244668 0.0994402 
13.2083 -19.903 21.3839 0 0 1.5 0.00271257 0.0713995 
13.0686 -20.1928 21.5893 0 0 1.5 0.0030352 0.0504444 
12.9288 -20.4826 21.7947 0 0 1.5 0.00360994 0.0278499 
12.789 -20.7724 22.0002 0 0 1.5 0.00381148 0.0220395 
12.6493 -21.0622 22.2056 0 0 1.5 0.00394585 0.018195 
12.5095 -21.352 22.411 0 0 1.5 0.00401404 0.0155744 
12.3698 -21.6418 22.6164 0 0 1.5 0.00396772 0.0124861 
12.23 -21.9316 22.8219 0 0 1.5 0.0038647 0.0117163 
12.0902 -22.2214 23.0273 0 0 1.5 0.00371767 0.0113157 
11.9505 -22.5112 23.2327 0 0 1.5 0.00332123 0.0113994 
11.8107 -22.801 23.4381 0 0 1.5 0.00308549 0.0119277 
11.6709 -23.0908 23.6436 0 0 1.5 0.00283306 0.0128261 
11.5312 -23.3806 23.849 0 0 1.5 0.0025703 0.0141473 
11.3914 -23.6704 24.0544 0 0 1.5 0.00203747 0.0187753 
11.2517 -23.9602 24.2598 0 0 1.5 0.00177776 0.0226512 
11.1119 -24.25 24.4653 0 0 1.5 0.00153005 0.0280825 
10.9721 -24.5398 24.6707 0 0 1.5 0.00130053 0.0357109 
10.8324 -24.8296 24.8761 0 0 1.5 0.000921054 0.0603108 
10.6926 -25.1194 25.0815 0 0 1.5 0.00078806 0.0755053 
10.5529 -25.4091 25.2869 0 0 1.5 0.000705336 0.0860789 
10.4131 -25.6989 25.4924 0 0 1.5 0.000693411 0.0737067 
10.2733 -25.9887 25.6978 0 0 1.5 0.00074281 0.0578855 
10.1336 -26.2785 25.9032 0 0 1.5 0.00080932 0.0436703 
9.99382 -26.5683 26.1086 0 0 1.5 0.000882127 0.0328092 
9.85406 -26.8581 26.3141 0 0 1.5 0.00102382 0.0191161 
9.7143 -27.1479 26.5195 0 0 1.5 0.00108757 0.0149095 
9.57454 -27.4377 26.7249 0 0 1.5 0.00114551 0.0118423 
9.43478 -27.7275 26.9303 0 0 1.5 0.00119781 0.00958002 
9.29502 -28.0173 27.1358 0 0 1.5 0.00128816 0.00665669 
9.15526 -28.3071 27.3412 0 0 1.5 0.00132791 0.00575361 
9.01549 -28.5969 27.5466 0 0 1.5 0.00136531 0.00512217 
0 1 0 
1 2 0 
2 3 0 
3 4 0 
4 5 0 
5 6 0 
6 7 0 
7 8 0 
8 9 0 
9 10 0 
10 11 0 
11 12 0 
12 13 0 
13 14 0 
14 15 0 
15 16 0 
16 17 0 
17 18 0 
18 19 0 
19 20 0 
20 21 0 
21 22 0 
22 23 0 
23 24 0 
24 25 0 
25 26 0 
26 27 0 
27 28 0 
28 29 0 
29 30 0 
30 31 0 
31 32 0 
32 33 0 
33 34 0 
34 35 0 
35 36 0 
36 37 0 
37 38 0 
38 39 0 
39 40 0 
40 41 0 
41 42 0 
42 43 0 
43 44 0 
44 45 0 
45 46 0 
46 47 0 
47 48 0 
48 49 0 
49 50 0 
50 51 0 
51 52 0 
52 53 0 
53 54 0 
54 55 0 
55 56 0 
56 57 0 
57 58 0 
58 59 0 
59 60 0 
60 61 0 
61 62 0 
62 63 0 
63 64 0 
64 65 0 
65 66 0 
66 67 0 
67 68 0 
68 69 0 
69 70 0 
70 71 0 
71 72 0 
72 73 0 
73 74 0 
74 75 0 
75 76 0 
76 77 0 
77 78 0 
78 79 0 
79 80 0 
80 81 0 
81 82 0 
82 83 0 
83 84 0 
84 85 0 
85 86 0 
86 87 0 
87 88 0 
88 89 0 
89 90 0 
90 91 0 
91 92 0 
92 93 0 
93 94 0 
94 95 0 
95 96 0 
96 97 0 
97 98 0 
98 99 0 
99 100 0 
100 101 0 
101 102 0 
102 103 0 
103 104 0 
104 105 0 
105 106 0 
106 107 0 
107 108 0 
108 109 0 
109 110 0 
110 111 0 
111 112 0 
112 113 0 
113 114 0 
114 115 0 
115 116 0 
116 117 0 
117 118 0 
118 119 0 
119 120 0 
120 121 0 
121 122 0 
122 123 0 
123 124 0 
124 125 0 
125 126 0 
126 127 0 
127 128 0 
128 129 0 
129 130 0 
130 131 0 
131 132 0 
132 133 0 
133 134 0 
134 135 0 
135 136 0 
136 137 0 
137 138 0 
138 139 0 
139 140 0 
140 141 0 
141 142 0 
142 143 0 
143 144 0 
144 145 0 
145 146 0 
146 147 0 
147 148 0 
148 149 0 
149 150 0 
150 151 0 
151 152 0 
152 153 0 
153 154 0 
154 155 0 
155 156 0 
156 157 0 
157 158 0 
158 159 0 
159 160 0 
160 161 0 
161 162 0 
162 163 0 
163 164 0 
164 165 0 
165 166 0 
166 167 0 
167 168 0 
168 169 0 
169 170 0 
170 171 0 
171 172 0 
172 173 0 
173 174 0 
174 175 0 
175 176 0 
176 177 0 
177 178 0 
178 179 0 
179 180 0 
180 181 0 
181 182 0 
182 183 0 
183 184 0 
184 185 0 
185 186 0 
186 187 0 
187 188 0 
188 189 0 
189 190 0 
190 191 0 
191 192 0 
192 193 0 
193 194 0 
194 195 0 
195 196 0 
196 197 0 
197 198 0 
198 199 0 
199 200 0 
200 201 0 
201 202 0 
202 203 0 
203 204 0 
204 205 0 
205 206 0 
206 207 0 
207 208 0 
208 209 0 
209 210 0 
210 211 0 
211 212 0 
212 213 0 
213 214 0 
214 215 0 
215 216 0 
216 217 0 
217 218 0 
218 219 0 
219 220 0 
220 221 0 
221 222 0 
222 223 0 
223 224 0 
224 225 0 
225 226 0 
226 227 0 
227 228 0 
228 229 0 
229 230 0 
230 231 0 
231 232 0 
232 233 0 
233 234 0 
234 235 0 
235 236 0 
236 237 0 
237 238 0 
238 239 0 
239 240 0 
240 241 0 
241 242 0 
242 243 0 
243 244 0 
244 245 0 
245 246 0 
246 247 0 
247 248 0 
248 249 0 
249 250 0 
250 251 0 
251 252 0 
252 253 0 
253 254 0 
254 255 0 
255 256 0 
256 257 0 
257 258 0 
258 259 0 
259 260 0 
260 261 0 
261 262 0 
262 263 0 
263 264 0 
264 265 0 
265 266 0 
266 267 0 
267 268 0 
268 269 0 
269 270 0 
270 271 0 
271 272 0 
272 273 0 
273 274 0 
274 275 0 
275 276 0 
276 277 0 
277 278 0 
278 279 0 
279 280 0 
280 281 0 
281 282 0 
282 283 0 
283 284 0 
284 285 0 
285 286 0 
286 287 0 
287 288 0 
288 289 0 
289 290 0 
290 291 0 
291 292 0 
292 293 0 
293 294 0 
294 295 0 
295 296 0 
296 297 0 
297 298 0 
298 299 0 
-1 -1 0 
-1 300 0 1 2 3 4 5 6 7 8 9 10 11 12 13 14 15 16 17 18 19 20 21 22 23 24 25 26 27 28 29 30 31 32 33 34 35 36 37 38 39 40 41 42 43 44 45 46 47 48 49 50 51 52 53 54 55 56 57 58 59 60 61 62 63 64 65 66 67 68 69 70 71 72 73 74 75 76 77 78 79 80 81 82 83 84 85 86 87 88 89 90 91 92 93 94 95 96 97 98 99 100 101 102 103 104 105 106 107 108 109 110 111 112 113 114 115 116 117 118 119 120 121 122 123 124 125 126 127 128 129 130 131 132 133 134 135 136 137 138 139 140 141 142 143 144 145 146 147 148 149 150 151 152 153 154 155 156 157 158 159 160 161 162 163 164 165 166 167 168 169 170 171 172 173 174 175 176 177 178 179 180 181 182 183 184 185 186 187 188 189 190 191 192 193 194 195 196 197 198 199 200 201 202 203 204 205 206 207 208 209 210 211 212 213 214 215 216 217 218 219 220 221 222 223 224 225 226 227 228 229 230 231 232 233 234 235 236 237 238 239 240 241 242 243 244 245 246 247 248 249 250 251 252 253 254 255 256 257 258 259 260 261 262 263 264 265 266 267 268 269 270 271 272 273 274 275 276 277 278 279 280 281 282 283 284 285 286 287 288 289 290 291 292 293 294 295 296 297 298 299 
