ply
format ascii 1.0
comment written by koba@oshima.lab
element vertex 300
property float x
property float y
property float z
property int label
property int attribute
property float radius
property float curvature
property float torsion
element edge 300
property int vertex1
property int vertex2
property int label
element vertex_seq 1
property int label
property list int int vertex_indices
end_header
12.8384 22.8667 -7.4748 0 0 1.5 0.0195078 0.0467351 
12.5689 22.6378 -7.47796 0 0 1.5 0.0190589 0.0498569 
12.2993 22.4089 -7.48113 0 0 1.5 0.0186009 0.0539334 
12.0298 22.1799 -7.4843 0 0 1.5 0.0181283 0.0591518 
11.7602 21.951 -7.48746 0 0 1.5 0.0171195 0.0739555 
11.4906 21.7221 -7.49063 0 0 1.5 0.016573 0.0841124 
11.2211 21.4932 -7.49379 0 0 1.5 0.0159917 0.0967405 
10.9515 21.2643 -7.49696 0 0 1.5 0.0153719 0.112544 
10.682 21.0354 -7.50012 0 0 1.5 0.0140059 0.156671 
10.4124 20.8065 -7.50329 0 0 1.5 0.0132578 0.187736 
10.1428 20.5775 -7.50646 0 0 1.5 0.0124701 0.227826 
9.87328 20.3486 -7.50962 0 0 1.5 0.0116517 0.2795 
9.60372 20.1197 -7.51279 0 0 1.5 0.0100003 0.431476 
9.33416 19.8908 -7.51595 0 0 1.5 0.00923875 0.538545 
9.0646 19.6619 -7.51912 0 0 1.5 0.00860114 0.660942 
8.79504 19.433 -7.52228 0 0 1.5 0.00806677 0.847368 
8.52548 19.204 -7.52545 0 0 1.5 0.00834936 0.842136 
8.25592 18.9751 -7.52861 0 0 1.5 0.00905253 0.763797 
7.98636 18.7462 -7.53178 0 0 1.5 0.0101421 0.649501 
7.71681 18.5173 -7.53495 0 0 1.5 0.0132043 0.441826 
7.44725 18.2884 -7.53811 0 0 1.5 0.015045 0.367758 
7.17769 18.0595 -7.54128 0 0 1.5 0.0170167 0.311428 
6.90813 17.8305 -7.54444 0 0 1.5 0.0190728 0.269657 
6.63857 17.6016 -7.54761 0 0 1.5 0.0232857 0.217003 
6.36901 17.3727 -7.55077 0 0 1.5 0.0253689 0.201068 
6.09945 17.1438 -7.55394 0 0 1.5 0.0273865 0.190425 
5.82989 16.9149 -7.55711 0 0 1.5 0.0310919 0.181684 
5.56033 16.686 -7.56027 0 0 1.5 0.0327148 0.181849 
5.29077 16.457 -7.56344 0 0 1.5 0.0341417 0.185067 
5.02121 16.2281 -7.5666 0 0 1.5 0.0353453 0.191655 
4.75165 15.9992 -7.56977 0 0 1.5 0.0370041 0.214281 
4.48209 15.7703 -7.57293 0 0 1.5 0.0374366 0.231209 
4.21254 15.5414 -7.5761 0 0 1.5 0.0376043 0.253209 
3.94298 15.3125 -7.57927 0 0 1.5 0.0375248 0.280493 
3.67342 15.0835 -7.58243 0 0 1.5 0.0368054 0.352206 
3.40386 14.8546 -7.5856 0 0 1.5 0.0363125 0.397875 
3.13356 14.6273 -7.57601 0 0 1.5 0.035881 0.447703 
2.86213 14.4025 -7.54698 0 0 1.5 0.0356743 0.496588 
2.58943 14.1814 -7.50539 0 0 1.5 0.0366998 0.56575 
2.31594 13.9627 -7.45588 0 0 1.5 0.0383174 0.571024 
2.03992 13.7494 -7.39807 0 0 1.5 0.0408743 0.552031 
1.76302 13.5379 -7.33735 0 0 1.5 0.049007 0.468145 
1.48198 13.3328 -7.27397 0 0 1.5 0.0545416 0.419116 
1.19992 13.1293 -7.20994 0 0 1.5 0.0609705 0.372449 
0.912091 12.933 -7.14946 0 0 1.5 0.0682088 0.331372 
0.623129 12.738 -7.08967 0 0 1.5 0.0847659 0.268621 
0.327 12.5511 -7.04054 0 0 1.5 0.0939021 0.24542 
0.0298156 12.3654 -6.99299 0 0 1.5 0.103471 0.226925 
-0.275365 12.1889 -6.96548 0 0 1.5 0.113352 0.212605 
-0.581551 12.0138 -6.9416 0 0 1.5 0.133489 0.192458 
-0.894004 11.8482 -6.94694 0 0 1.5 0.143414 0.185578 
-1.207 11.6857 -6.9646 0 0 1.5 0.152977 0.180611 
-1.5213 11.5307 -7.01221 0 0 1.5 0.170138 0.174395 
-1.83143 11.3817 -7.08987 0 0 1.5 0.177299 0.172645 
-2.13871 11.2368 -7.18814 0 0 1.5 0.18323 0.171811 
-2.42814 11.0994 -7.33752 0 0 1.5 0.187749 0.171615 
-2.70609 10.9632 -7.50658 0 0 1.5 0.192148 0.172305 
-2.96641 10.8288 -7.70465 0 0 1.5 0.191958 0.173367 
-3.19948 10.6905 -7.93103 0 0 1.5 0.190227 0.174887 
-3.41856 10.5484 -8.16889 0 0 1.5 0.18709 0.176758 
-3.61051 10.3958 -8.42375 0 0 1.5 0.177336 0.18208 
-3.7827 10.2309 -8.68421 0 0 1.5 0.17115 0.1858 
-3.94163 10.0577 -8.94844 0 0 1.5 0.164424 0.190251 
-4.07063 9.86095 -9.21237 0 0 1.5 0.150353 0.201455 
-4.18982 9.65637 -9.4745 0 0 1.5 0.143471 0.208169 
-4.28751 9.4346 -9.73208 0 0 1.5 0.136995 0.215351 
-4.36908 9.20199 -9.98509 0 0 1.5 0.131147 0.222552 
-4.43841 8.96116 -10.2346 0 0 1.5 0.122186 0.234204 
-4.4867 8.71073 -10.4793 0 0 1.5 0.119509 0.236642 
-4.52986 8.45795 -10.7229 0 0 1.5 0.118327 0.235398 
-4.55017 8.20029 -10.9643 0 0 1.5 0.118842 0.229767 
-4.56809 7.94253 -11.2057 0 0 1.5 0.125677 0.205636 
-4.56785 7.68474 -11.4478 0 0 1.5 0.132301 0.188776 
-4.56491 7.42726 -11.6901 0 0 1.5 0.141233 0.170428 
-4.54797 7.17135 -11.9337 0 0 1.5 0.1526 0.151991 
-4.52825 6.91549 -12.177 0 0 1.5 0.183268 0.11849 
-4.49768 6.65984 -12.4194 0 0 1.5 0.202974 0.104116 
-4.46415 6.40295 -12.6601 0 0 1.5 0.225945 0.0915625 
-4.4223 6.14256 -12.8957 0 0 1.5 0.282958 0.0715478 
-4.37645 5.87713 -13.1246 0 0 1.5 0.317619 0.0634535 
-4.32457 5.60413 -13.3433 0 0 1.5 0.356664 0.0564708 
-4.26581 5.31592 -13.5387 0 0 1.5 0.400077 0.050542 
-4.20202 5.01576 -13.7125 0 0 1.5 0.497721 0.0407777 
-4.12898 4.69091 -13.8317 0 0 1.5 0.549035 0.0367685 
-4.04734 4.34972 -13.8551 0 0 1.5 0.598628 0.0334676 
-3.96273 4.02516 -13.761 0 0 1.5 0.642829 0.0307872 
-3.88137 3.75165 -13.5609 0 0 1.5 0.698329 0.0272573 
-3.80457 3.5343 -13.2965 0 0 1.5 0.702915 0.0265712 
-3.73068 3.36095 -12.9981 0 0 1.5 0.690509 0.0266497 
-3.65751 3.2365 -12.6752 0 0 1.5 0.622922 0.0290288 
-3.58209 3.14315 -12.3434 0 0 1.5 0.575419 0.0311361 
-3.50506 3.06963 -12.0063 0 0 1.5 0.524322 0.0338544 
-3.42268 3.03743 -11.6639 0 0 1.5 0.472923 0.037256 
-3.33794 3.0255 -11.3215 0 0 1.5 0.37746 0.0455838 
-3.25034 3.038 -10.9791 0 0 1.5 0.335459 0.0506601 
-3.16156 3.08698 -10.6407 0 0 1.5 0.297665 0.0567114 
-3.07351 3.15162 -10.3047 0 0 1.5 0.263929 0.0638048 
-2.9893 3.24786 -9.975 0 0 1.5 0.207384 0.0819839 
-2.91183 3.3619 -9.64976 0 0 1.5 0.183828 0.0942201 
-2.83943 3.4893 -9.32789 0 0 1.5 0.162926 0.109353 
-2.78354 3.63576 -9.01096 0 0 1.5 0.12788 0.15182 
-2.73444 3.78648 -8.695 0 0 1.5 0.113279 0.182058 
-2.7026 3.94557 -8.38075 0 0 1.5 0.100435 0.220554 
-2.68392 4.10626 -8.06652 0 0 1.5 0.0893095 0.268725 
-2.67748 4.26842 -7.7523 0 0 1.5 0.0725681 0.392079 
-2.69133 4.42891 -7.43766 0 0 1.5 0.0673649 0.455304 
-2.71135 4.5889 -7.12289 0 0 1.5 0.0646378 0.501295 
-2.7567 4.74379 -6.80822 0 0 1.5 0.06458 0.515555 
-2.80649 4.8974 -6.49371 0 0 1.5 0.07223 0.450729 
-2.87586 5.0451 -6.17995 0 0 1.5 0.0793949 0.396934 
-2.95198 5.18975 -5.86651 0 0 1.5 0.0883416 0.344709 
-3.04157 5.32832 -5.5537 0 0 1.5 0.0987792 0.299272 
-3.13918 5.46053 -5.24072 0 0 1.5 0.123263 0.231633 
-3.24506 5.5862 -4.92755 0 0 1.5 0.136982 0.207419 
-3.35909 5.69887 -4.6125 0 0 1.5 0.151468 0.187977 
-3.47719 5.80507 -4.29651 0 0 1.5 0.181918 0.159609 
-3.60248 5.88509 -3.97577 0 0 1.5 0.197367 0.149009 
-3.72932 5.95438 -3.65341 0 0 1.5 0.212509 0.139924 
-3.85914 5.98784 -3.32615 0 0 1.5 0.226917 0.132014 
-3.98774 5.99036 -2.99798 0 0 1.5 0.251723 0.118348 
-4.11527 5.96592 -2.66902 0 0 1.5 0.261191 0.111873 
-4.23319 5.87531 -2.34837 0 0 1.5 0.268146 0.105506 
-4.34305 5.75284 -2.03743 0 0 1.5 0.272325 0.0992207 
-4.44301 5.59236 -1.73855 0 0 1.5 0.271997 0.0861538 
-4.52283 5.38187 -1.4666 0 0 1.5 0.267678 0.0794 
-4.5936 5.15414 -1.20665 0 0 1.5 0.260964 0.0727205 
-4.6474 4.89766 -0.969165 0 0 1.5 0.242019 0.0591483 
-4.68867 4.62636 -0.74708 0 0 1.5 0.230672 0.0523065 
-4.72073 4.34418 -0.536317 0 0 1.5 0.218641 0.0456259 
-4.73825 4.04984 -0.341489 0 0 1.5 0.206295 0.0389858 
-4.75167 3.75207 -0.151158 0 0 1.5 0.181801 0.0255487 
-4.75124 3.44595 0.0258251 0 0 1.5 0.170065 0.019001 
-4.74944 3.139 0.201481 0 0 1.5 0.158852 0.0125015 
-4.73577 2.8265 0.36649 0 0 1.5 0.148239 0.00594121 
-4.72145 2.5137 0.53086 0 0 1.5 0.128937 -0.00667865 
-4.69873 2.19719 0.686997 0 0 1.5 0.120232 -0.0125329 
-4.67503 1.88012 0.841797 0 0 1.5 0.112121 -0.0180717 
-4.6458 1.55987 0.988963 0 0 1.5 0.10456 -0.0231322 
-4.61538 1.2385 1.13333 0 0 1.5 0.0908328 -0.0310458 
-4.58162 0.91398 1.26979 0 0 1.5 0.0845338 -0.0335862 
-4.54665 0.587432 1.40082 0 0 1.5 0.078522 -0.0349512 
-4.50991 0.257968 1.52402 0 0 1.5 0.0670842 -0.0330475 
-4.47207 -0.0745766 1.638 0 0 1.5 0.0615329 -0.0287374 
-4.43347 -0.409241 1.74563 0 0 1.5 0.0560196 -0.0213386 
-4.39387 -0.747734 1.83986 0 0 1.5 0.0505023 -0.00976468 
-4.35402 -1.08724 1.93053 0 0 1.5 0.0393503 0.0373209 
-4.31298 -1.43052 2.00499 0 0 1.5 0.0337112 0.0845112 
-4.27155 -1.77436 2.07638 0 0 1.5 0.0281012 0.164793 
-4.22868 -2.12024 2.13641 0 0 1.5 0.0226892 0.310361 
-4.18459 -2.46666 2.19202 0 0 1.5 0.0146144 0.951227 
-4.13861 -2.81392 2.24073 0 0 1.5 0.0143703 1.03964 
-4.09003 -3.16134 2.28541 0 0 1.5 0.0175785 0.706489 
-4.03917 -3.50889 2.32655 0 0 1.5 0.0297755 0.222201 
-3.98401 -3.85603 2.36549 0 0 1.5 0.0371901 0.122156 
-3.92636 -4.20292 2.40315 0 0 1.5 0.0450652 0.0624093 
-3.86278 -4.54868 2.4414 0 0 1.5 0.0532757 0.023864 
-3.79657 -4.89395 2.47993 0 0 1.5 0.0704086 -0.0221738 
-3.7233 -5.23726 2.52254 0 0 1.5 0.0792087 -0.0374666 
-3.64741 -5.57985 2.56668 0 0 1.5 0.0880922 -0.0503422 
-3.56393 -5.91942 2.61917 0 0 1.5 0.0970063 -0.061556 
-3.47804 -6.25803 2.67431 0 0 1.5 0.1147 -0.0811 
-3.38468 -6.59191 2.74373 0 0 1.5 0.123356 -0.0905235 
-3.28966 -6.92474 2.81635 0 0 1.5 0.131798 -0.0997581 
-3.18811 -7.24946 2.91266 0 0 1.5 0.147827 -0.117514 
-3.08561 -7.57148 3.01602 0 0 1.5 0.155299 -0.126536 
-2.98036 -7.88219 3.14815 0 0 1.5 0.162339 -0.13535 
-2.87597 -8.18181 3.30246 0 0 1.5 0.168918 -0.143524 
-2.77239 -8.47081 3.47804 0 0 1.5 0.180583 -0.158318 
-2.67538 -8.72657 3.70218 0 0 1.5 0.185619 -0.1646 
-2.58322 -8.95532 3.95373 0 0 1.5 0.190124 -0.169487 
-2.4948 -9.15248 4.23246 0 0 1.5 0.194103 -0.172929 
-2.40774 -9.31503 4.53424 0 0 1.5 0.200444 -0.175248 
-2.30874 -9.43605 4.85146 0 0 1.5 0.202776 -0.173777 
-2.18881 -9.53604 5.16823 0 0 1.5 0.204517 -0.170516 
-2.04273 -9.62041 5.47811 0 0 1.5 0.205622 -0.165539 
-1.86791 -9.69367 5.77631 0 0 1.5 0.205724 -0.151251 
-1.64831 -9.75722 6.04615 0 0 1.5 0.204644 -0.142146 
-1.40089 -9.81532 6.29053 0 0 1.5 0.20275 -0.131808 
-1.13455 -9.86917 6.51621 0 0 1.5 0.196388 -0.109543 
-0.84134 -9.91443 6.70871 0 0 1.5 0.191914 -0.0980121 
-0.537795 -9.95297 6.88487 0 0 1.5 0.186595 -0.0860978 
-0.223979 -9.98482 7.04481 0 0 1.5 0.180461 -0.0742224 
0.0992011 -10.0036 7.1865 0 0 1.5 0.16601 -0.0514578 
0.425558 -10.0179 7.322 0 0 1.5 0.157849 -0.0400821 
0.757894 -10.0126 7.44253 0 0 1.5 0.149174 -0.0287446 
1.09089 -10.0051 7.56143 0 0 1.5 0.140082 -0.0175415 
1.42576 -9.97219 7.67029 0 0 1.5 0.121022 0.00610857 
1.76045 -9.93715 7.77877 0 0 1.5 0.111217 0.0194513 
2.09302 -9.87642 7.88263 0 0 1.5 0.101331 0.0345188 
2.42471 -9.81157 7.98632 0 0 1.5 0.0815913 0.0748923 
2.7514 -9.72335 8.08909 0 0 1.5 0.0718554 0.104666 
3.0762 -9.62943 8.19227 0 0 1.5 0.0622898 0.146426 
3.39478 -9.51693 8.29678 0 0 1.5 0.0529711 0.208512 
3.71054 -9.39834 8.40266 0 0 1.5 0.0356049 0.471091 
4.02065 -9.26755 8.51129 0 0 1.5 0.0281338 0.754122 
4.32761 -9.13204 8.62282 0 0 1.5 0.0223938 1.1841 
4.63067 -8.99068 8.73793 0 0 1.5 0.0197562 1.50787 
4.93116 -8.84826 8.85823 0 0 1.5 0.0259343 0.853173 
5.22977 -8.70507 8.98233 0 0 1.5 0.032382 0.538551 
5.52706 -8.56698 9.11494 0 0 1.5 0.0395945 0.353536 
5.82387 -8.43079 9.25072 0 0 1.5 0.0546348 0.178366 
6.12047 -8.30836 9.39928 0 0 1.5 0.062079 0.135471 
6.41703 -8.18961 9.55081 0 0 1.5 0.0693249 0.106584 
6.71336 -8.0903 9.71635 0 0 1.5 0.0762913 0.0867892 
7.00915 -7.99887 9.88676 0 0 1.5 0.0891328 0.0640539 
7.30377 -7.92463 10.0678 0 0 1.5 0.094892 0.0579679 
7.59647 -7.86321 10.256 0 0 1.5 0.100138 0.0544884 
7.88741 -7.81357 10.4508 0 0 1.5 0.10483 0.0533244 
8.17481 -7.77828 10.6536 0 0 1.5 0.112415 0.0567517 
8.46076 -7.74885 10.8596 0 0 1.5 0.115265 0.0610673 
8.74203 -7.73113 11.0732 0 0 1.5 0.11748 0.0670725 
9.02253 -7.71521 11.288 0 0 1.5 0.119071 0.0748288 
9.2978 -7.70537 11.5098 0 0 1.5 0.120493 0.095815 
9.57215 -7.69554 11.7327 0 0 1.5 0.120421 0.108784 
9.84163 -7.68578 11.9616 0 0 1.5 0.119913 0.123569 
10.1085 -7.67469 12.1932 0 0 1.5 0.117937 0.158935 
10.3701 -7.66083 12.4309 0 0 1.5 0.116668 0.178872 
10.6249 -7.64416 12.6754 0 0 1.5 0.11536 0.200176 
10.8741 -7.62515 12.9256 0 0 1.5 0.114135 0.222694 
11.1067 -7.60383 13.191 0 0 1.5 0.112458 0.266477 
11.3289 -7.58298 13.4648 0 0 1.5 0.112269 0.285467 
11.5295 -7.56463 13.7555 0 0 1.5 0.112662 0.301422 
11.7017 -7.55608 14.0637 0 0 1.5 0.113725 0.312995 
11.8514 -7.55849 14.3832 0 0 1.5 0.118038 0.319789 
11.9742 -7.57666 14.7144 0 0 1.5 0.121263 0.31564 
12.0666 -7.62538 15.0521 0 0 1.5 0.125104 0.307251 
12.1481 -7.6972 15.388 0 0 1.5 0.134133 0.281024 
12.223 -7.792 15.7201 0 0 1.5 0.138972 0.26536 
12.3016 -7.92417 16.0385 0 0 1.5 0.143746 0.249263 
12.3965 -8.08534 16.3374 0 0 1.5 0.148247 0.233263 
12.5054 -8.26678 16.6196 0 0 1.5 0.155577 0.202639 
12.6474 -8.48055 16.863 0 0 1.5 0.157991 0.188695 
12.8128 -8.70765 17.0742 0 0 1.5 0.159368 0.176025 
12.9986 -8.94633 17.2575 0 0 1.5 0.159613 0.164406 
13.2124 -9.19101 17.393 0 0 1.5 0.156477 0.14401 
13.4364 -9.43791 17.511 0 0 1.5 0.153118 0.135606 
13.6777 -9.68147 17.5917 0 0 1.5 0.148662 0.128203 
13.9294 -9.92301 17.6498 0 0 1.5 0.143216 0.121604 
14.1811 -10.1645 17.7079 0 0 1.5 0.129884 0.111575 
14.4328 -10.4061 17.766 0 0 1.5 0.122321 0.108136 
14.6845 -10.6476 17.8241 0 0 1.5 0.114366 0.105531 
14.9362 -10.8892 17.8822 0 0 1.5 0.0978411 0.103876 
15.1879 -11.1307 17.9402 0 0 1.5 0.0895243 0.105116 
15.4397 -11.3722 17.9983 0 0 1.5 0.0813141 0.107737 
15.6914 -11.6138 18.0564 0 0 1.5 0.0732951 0.112153 
15.9431 -11.8553 18.1145 0 0 1.5 0.0580747 0.128902 
16.1948 -12.0969 18.1726 0 0 1.5 0.0509741 0.142511 
16.4465 -12.3384 18.2307 0 0 1.5 0.0442693 0.161433 
16.6982 -12.5799 18.2888 0 0 1.5 0.037986 0.188343 
16.9499 -12.8215 18.3469 0 0 1.5 0.0268056 0.282445 
17.2017 -13.063 18.405 0 0 1.5 0.0219986 0.364449 
17.4534 -13.3045 18.463 0 0 1.5 0.0177956 0.486909 
17.7051 -13.5461 18.5211 0 0 1.5 0.0117064 0.870516 
17.9568 -13.7876 18.5792 0 0 1.5 0.0101868 1.01661 
18.2085 -14.0292 18.6373 0 0 1.5 0.00979357 0.978737 
18.4602 -14.2707 18.6954 0 0 1.5 0.0102867 0.793215 
18.7119 -14.5122 18.7535 0 0 1.5 0.0124093 0.439396 
18.9637 -14.7538 18.8116 0 0 1.5 0.0135068 0.334953 
19.2154 -14.9953 18.8697 0 0 1.5 0.0144553 0.264766 
19.4671 -15.2368 18.9278 0 0 1.5 0.0152003 0.216809 
19.7188 -15.4784 18.9858 0 0 1.5 0.0160002 0.161331 
19.9705 -15.7199 19.0439 0 0 1.5 0.0160583 0.145828 
20.2222 -15.9615 19.102 0 0 1.5 0.0159044 0.135142 
20.4739 -16.203 19.1601 0 0 1.5 0.0150332 0.125194 
20.7256 -16.4445 19.2182 0 0 1.5 0.014359 0.124983 
20.9774 -16.6861 19.2763 0 0 1.5 0.0135581 0.127348 
21.2291 -16.9276 19.3344 0 0 1.5 0.0126559 0.132613 
21.4808 -17.1692 19.3925 0 0 1.5 0.0106393 0.154794 
21.7325 -17.4107 19.4506 0 0 1.5 0.00957241 0.173077 
21.9842 -17.6522 19.5086 0 0 1.5 0.00849853 0.198461 
22.2359 -17.8938 19.5667 0 0 1.5 0.00743769 0.234501 
22.4876 -18.1353 19.6248 0 0 1.5 0.00544109 0.357721 
22.7394 -18.3768 19.6829 0 0 1.5 0.00455552 0.460195 
22.9911 -18.6184 19.741 0 0 1.5 0.00378281 0.603212 
23.2428 -18.8599 19.7991 0 0 1.5 0.0031609 0.781489 
23.4945 -19.1015 19.8572 0 0 1.5 0.0025363 0.992475 
23.7462 -19.343 19.9153 0 0 1.5 0.00255121 0.891926 
23.9979 -19.5845 19.9734 0 0 1.5 0.00271987 0.716218 
24.2496 -19.8261 20.0315 0 0 1.5 0.00324862 0.421385 
24.5014 -20.0676 20.0895 0 0 1.5 0.00351976 0.331122 
24.7531 -20.3092 20.1476 0 0 1.5 0.00376583 0.267837 
25.0048 -20.5507 20.2057 0 0 1.5 0.00397737 0.222758 
25.2565 -20.7922 20.2638 0 0 1.5 0.00428455 0.1671 
25.5082 -21.0338 20.3219 0 0 1.5 0.00438262 0.149789 
25.7599 -21.2753 20.38 0 0 1.5 0.00444792 0.136454 
26.0116 -21.5168 20.4381 0 0 1.5 0.0044844 0.126082 
26.2633 -21.7584 20.4962 0 0 1.5 0.00448702 0.111587 
26.5151 -21.9999 20.5543 0 0 1.5 0.00446167 0.106015 
26.7668 -22.2415 20.6123 0 0 1.5 0.00442417 0.101124 
27.0185 -22.483 20.6704 0 0 1.5 0.00432484 0.0929163 
27.2702 -22.7245 20.7285 0 0 1.5 0.0042688 0.0889841 
27.5219 -22.9661 20.7866 0 0 1.5 0.00421208 0.0850878 
27.7736 -23.2076 20.8447 0 0 1.5 0.00415599 0.0813814 
28.0253 -23.4492 20.9028 0 0 1.5 0.00404994 0.0741746 
28.2771 -23.6907 20.9609 0 0 1.5 0.00400196 0.0707069 
28.5288 -23.9322 21.019 0 0 1.5 0.00395763 0.0675732 
28.7805 -24.1738 21.0771 0 0 1.5 0.00391676 0.0648034 
29.0322 -24.4153 21.1351 0 0 1.5 0.00384495 0.0605135 
29.2839 -24.6568 21.1932 0 0 1.5 0.00381345 0.059182 
29.5356 -24.8984 21.2513 0 0 1.5 0.00378428 0.0584741 
0 1 0 
1 2 0 
2 3 0 
3 4 0 
4 5 0 
5 6 0 
6 7 0 
7 8 0 
8 9 0 
9 10 0 
10 11 0 
11 12 0 
12 13 0 
13 14 0 
14 15 0 
15 16 0 
16 17 0 
17 18 0 
18 19 0 
19 20 0 
20 21 0 
21 22 0 
22 23 0 
23 24 0 
24 25 0 
25 26 0 
26 27 0 
27 28 0 
28 29 0 
29 30 0 
30 31 0 
31 32 0 
32 33 0 
33 34 0 
34 35 0 
35 36 0 
36 37 0 
37 38 0 
38 39 0 
39 40 0 
40 41 0 
41 42 0 
42 43 0 
43 44 0 
44 45 0 
45 46 0 
46 47 0 
47 48 0 
48 49 0 
49 50 0 
50 51 0 
51 52 0 
52 53 0 
53 54 0 
54 55 0 
55 56 0 
56 57 0 
57 58 0 
58 59 0 
59 60 0 
60 61 0 
61 62 0 
62 63 0 
63 64 0 
64 65 0 
65 66 0 
66 67 0 
67 68 0 
68 69 0 
69 70 0 
70 71 0 
71 72 0 
72 73 0 
73 74 0 
74 75 0 
75 76 0 
76 77 0 
77 78 0 
78 79 0 
79 80 0 
80 81 0 
81 82 0 
82 83 0 
83 84 0 
84 85 0 
85 86 0 
86 87 0 
87 88 0 
88 89 0 
89 90 0 
90 91 0 
91 92 0 
92 93 0 
93 94 0 
94 95 0 
95 96 0 
96 97 0 
97 98 0 
98 99 0 
99 100 0 
100 101 0 
101 102 0 
102 103 0 
103 104 0 
104 105 0 
105 106 0 
106 107 0 
107 108 0 
108 109 0 
109 110 0 
110 111 0 
111 112 0 
112 113 0 
113 114 0 
114 115 0 
115 116 0 
116 117 0 
117 118 0 
118 119 0 
119 120 0 
120 121 0 
121 122 0 
122 123 0 
123 124 0 
124 125 0 
125 126 0 
126 127 0 
127 128 0 
128 129 0 
129 130 0 
130 131 0 
131 132 0 
132 133 0 
133 134 0 
134 135 0 
135 136 0 
136 137 0 
137 138 0 
138 139 0 
139 140 0 
140 141 0 
141 142 0 
142 143 0 
143 144 0 
144 145 0 
145 146 0 
146 147 0 
147 148 0 
148 149 0 
149 150 0 
150 151 0 
151 152 0 
152 153 0 
153 154 0 
154 155 0 
155 156 0 
156 157 0 
157 158 0 
158 159 0 
159 160 0 
160 161 0 
161 162 0 
162 163 0 
163 164 0 
164 165 0 
165 166 0 
166 167 0 
167 168 0 
168 169 0 
169 170 0 
170 171 0 
171 172 0 
172 173 0 
173 174 0 
174 175 0 
175 176 0 
176 177 0 
177 178 0 
178 179 0 
179 180 0 
180 181 0 
181 182 0 
182 183 0 
183 184 0 
184 185 0 
185 186 0 
186 187 0 
187 188 0 
188 189 0 
189 190 0 
190 191 0 
191 192 0 
192 193 0 
193 194 0 
194 195 0 
195 196 0 
196 197 0 
197 198 0 
198 199 0 
199 200 0 
200 201 0 
201 202 0 
202 203 0 
203 204 0 
204 205 0 
205 206 0 
206 207 0 
207 208 0 
208 209 0 
209 210 0 
210 211 0 
211 212 0 
212 213 0 
213 214 0 
214 215 0 
215 216 0 
216 217 0 
217 218 0 
218 219 0 
219 220 0 
220 221 0 
221 222 0 
222 223 0 
223 224 0 
224 225 0 
225 226 0 
226 227 0 
227 228 0 
228 229 0 
229 230 0 
230 231 0 
231 232 0 
232 233 0 
233 234 0 
234 235 0 
235 236 0 
236 237 0 
237 238 0 
238 239 0 
239 240 0 
240 241 0 
241 242 0 
242 243 0 
243 244 0 
244 245 0 
245 246 0 
246 247 0 
247 248 0 
248 249 0 
249 250 0 
250 251 0 
251 252 0 
252 253 0 
253 254 0 
254 255 0 
255 256 0 
256 257 0 
257 258 0 
258 259 0 
259 260 0 
260 261 0 
261 262 0 
262 263 0 
263 264 0 
264 265 0 
265 266 0 
266 267 0 
267 268 0 
268 269 0 
269 270 0 
270 271 0 
271 272 0 
272 273 0 
273 274 0 
274 275 0 
275 276 0 
276 277 0 
277 278 0 
278 279 0 
279 280 0 
280 281 0 
281 282 0 
282 283 0 
283 284 0 
284 285 0 
285 286 0 
286 287 0 
287 288 0 
288 289 0 
289 290 0 
290 291 0 
291 292 0 
292 293 0 
293 294 0 
294 295 0 
295 296 0 
296 297 0 
297 298 0 
298 299 0 
-1 -1 0 
-1 300 0 1 2 3 4 5 6 7 8 9 10 11 12 13 14 15 16 17 18 19 20 21 22 23 24 25 26 27 28 29 30 31 32 33 34 35 36 37 38 39 40 41 42 43 44 45 46 47 48 49 50 51 52 53 54 55 56 57 58 59 60 61 62 63 64 65 66 67 68 69 70 71 72 73 74 75 76 77 78 79 80 81 82 83 84 85 86 87 88 89 90 91 92 93 94 95 96 97 98 99 100 101 102 103 104 105 106 107 108 109 110 111 112 113 114 115 116 117 118 119 120 121 122 123 124 125 126 127 128 129 130 131 132 133 134 135 136 137 138 139 140 141 142 143 144 145 146 147 148 149 150 151 152 153 154 155 156 157 158 159 160 161 162 163 164 165 166 167 168 169 170 171 172 173 174 175 176 177 178 179 180 181 182 183 184 185 186 187 188 189 190 191 192 193 194 195 196 197 198 199 200 201 202 203 204 205 206 207 208 209 210 211 212 213 214 215 216 217 218 219 220 221 222 223 224 225 226 227 228 229 230 231 232 233 234 235 236 237 238 239 240 241 242 243 244 245 246 247 248 249 250 251 252 253 254 255 256 257 258 259 260 261 262 263 264 265 266 267 268 269 270 271 272 273 274 275 276 277 278 279 280 281 282 283 284 285 286 287 288 289 290 291 292 293 294 295 296 297 298 299 
