ply
format ascii 1.0
comment written by koba@oshima.lab
element vertex 300
property float x
property float y
property float z
property int label
property int attribute
property float radius
property float curvature
property float torsion
element edge 300
property int vertex1
property int vertex2
property int label
element vertex_seq 1
property int label
property list int int vertex_indices
end_header
3.01163 30.5143 -0.58349 0 0 1.5 0.037384 0.014307 
2.90956 30.1524 -0.669182 0 0 1.5 0.0365522 0.0151072 
2.8075 29.7905 -0.754874 0 0 1.5 0.0356997 0.0161713 
2.70544 29.4287 -0.840566 0 0 1.5 0.0348177 0.0175449 
2.60338 29.0668 -0.926257 0 0 1.5 0.03293 0.0214423 
2.50132 28.705 -1.01195 0 0 1.5 0.0319047 0.0240958 
2.39925 28.3431 -1.09764 0 0 1.5 0.0308104 0.0273763 
2.29719 27.9813 -1.18333 0 0 1.5 0.0296365 0.0314647 
2.19513 27.6194 -1.26902 0 0 1.5 0.0270039 0.0428376 
2.09307 27.2576 -1.35472 0 0 1.5 0.0255189 0.0509304 
1.99101 26.8957 -1.44041 0 0 1.5 0.0239045 0.0616364 
1.88894 26.5339 -1.5261 0 0 1.5 0.0221489 0.0760784 
1.78688 26.172 -1.61179 0 0 1.5 0.0181738 0.125959 
1.68482 25.8102 -1.69748 0 0 1.5 0.0159417 0.172905 
1.58276 25.4483 -1.78317 0 0 1.5 0.0135523 0.252672 
1.4807 25.0865 -1.86887 0 0 1.5 0.00849876 0.718264 
1.37863 24.7246 -1.95456 0 0 1.5 0.00623388 1.42048 
1.27657 24.3628 -2.04025 0 0 1.5 0.00514476 2.2294 
1.17451 24.0009 -2.12594 0 0 1.5 0.00635108 1.5717 
1.07245 23.6391 -2.21163 0 0 1.5 0.0130364 0.441341 
0.970386 23.2772 -2.29732 0 0 1.5 0.0172682 0.277214 
0.868324 22.9153 -2.38302 0 0 1.5 0.0218406 0.192432 
0.766262 22.5535 -2.46871 0 0 1.5 0.0266863 0.144365 
0.6642 22.1916 -2.5544 0 0 1.5 0.0370381 0.0964297 
0.562138 21.8298 -2.64009 0 0 1.5 0.0424629 0.0840709 
0.460076 21.4679 -2.72578 0 0 1.5 0.0479882 0.0759059 
0.358014 21.1061 -2.81148 0 0 1.5 0.0591292 0.0673705 
0.255952 20.7442 -2.89717 0 0 1.5 0.0646111 0.0655451 
0.15389 20.3824 -2.98286 0 0 1.5 0.0699244 0.0649895 
0.0518277 20.0205 -3.06855 0 0 1.5 0.0749814 0.0655957 
-0.0502343 19.6587 -3.15424 0 0 1.5 0.0839575 0.0695914 
-0.152296 19.2968 -3.23993 0 0 1.5 0.0876848 0.0730127 
-0.254358 18.935 -3.32563 0 0 1.5 0.0907819 0.0775908 
-0.35642 18.5731 -3.41132 0 0 1.5 0.0931682 0.0833001 
-0.499733 18.2208 -3.47288 0 0 1.5 0.0955892 0.098608 
-0.647103 17.8694 -3.53207 0 0 1.5 0.0955557 0.109053 
-0.832374 17.5327 -3.56364 0 0 1.5 0.094684 0.121744 
-1.02117 17.198 -3.59201 0 0 1.5 0.0930172 0.136986 
-1.23703 16.8784 -3.59553 0 0 1.5 0.0875942 0.17884 
-1.45844 16.5632 -3.59255 0 0 1.5 0.0840515 0.207327 
-1.69732 16.2614 -3.56916 0 0 1.5 0.0801776 0.241708 
-1.94269 15.9662 -3.53625 0 0 1.5 0.0723694 0.331351 
-2.19835 15.6815 -3.4883 0 0 1.5 0.0690337 0.384431 
-2.46074 15.4056 -3.42924 0 0 1.5 0.0665952 0.435929 
-2.72866 15.1368 -3.36105 0 0 1.5 0.0654951 0.476492 
-3.0038 14.8782 -3.28319 0 0 1.5 0.0688656 0.487675 
-3.28154 14.6234 -3.20184 0 0 1.5 0.0737924 0.454949 
-3.56836 14.3797 -3.118 0 0 1.5 0.0809029 0.407932 
-3.85801 14.1385 -3.0368 0 0 1.5 0.0900644 0.357376 
-4.1557 13.9042 -2.96479 0 0 1.5 0.113875 0.269345 
-4.45939 13.6736 -2.91008 0 0 1.5 0.128207 0.235691 
-4.76758 13.4456 -2.86836 0 0 1.5 0.143955 0.208719 
-5.08182 13.2223 -2.87601 0 0 1.5 0.179002 0.170894 
-5.39373 13.0014 -2.91488 0 0 1.5 0.197832 0.158031 
-5.70277 12.7833 -2.98977 0 0 1.5 0.21706 0.148153 
-5.99039 12.5716 -3.1346 0 0 1.5 0.236179 0.140677 
-6.25932 12.3641 -3.31288 0 0 1.5 0.271538 0.130851 
-6.5073 12.161 -3.52723 0 0 1.5 0.28623 0.127736 
-6.7092 11.966 -3.79082 0 0 1.5 0.297832 0.125463 
-6.88987 11.7745 -4.07076 0 0 1.5 0.305657 0.123781 
-7.03078 11.5892 -4.37821 0 0 1.5 0.308293 0.121596 
-7.13622 11.4094 -4.70111 0 0 1.5 0.302979 0.121015 
-7.21897 11.233 -5.03389 0 0 1.5 0.293724 0.120765 
-7.25326 11.0643 -5.37833 0 0 1.5 0.266198 0.121531 
-7.27645 10.8974 -5.72495 0 0 1.5 0.249527 0.122801 
-7.25072 10.7389 -6.07553 0 0 1.5 0.231954 0.124837 
-7.21429 10.5824 -6.42552 0 0 1.5 0.214136 0.127805 
-7.14276 10.4325 -6.77355 0 0 1.5 0.179692 0.137257 
-7.05595 10.2857 -7.11886 0 0 1.5 0.163729 0.143975 
-6.94611 10.1436 -7.46007 0 0 1.5 0.148884 0.152201 
-6.81883 10.0047 -7.79616 0 0 1.5 0.135273 0.162043 
-6.67867 9.86825 -8.12847 0 0 1.5 0.112015 0.186143 
-6.52092 9.7337 -8.45343 0 0 1.5 0.102461 0.199551 
-6.35796 9.59967 -8.77619 0 0 1.5 0.0943505 0.212646 
-6.17915 9.46377 -9.08965 0 0 1.5 0.0877368 0.223866 
-5.99738 9.32599 -9.4005 0 0 1.5 0.0792334 0.232293 
-5.80768 9.1832 -9.70434 0 0 1.5 0.0774413 0.22564 
-5.61396 9.03401 -10.0024 0 0 1.5 0.0773111 0.211191 
-5.41694 8.87956 -10.2957 0 0 1.5 0.081891 0.165875 
-5.21603 8.7125 -10.5792 0 0 1.5 0.0864747 0.13978 
-5.01413 8.54174 -10.8598 0 0 1.5 0.0925073 0.114605 
-4.80994 8.3536 -11.1274 0 0 1.5 0.0999573 0.091838 
-4.60575 8.16099 -11.3916 0 0 1.5 0.119186 0.0543537 
-4.40155 7.95287 -11.644 0 0 1.5 0.131121 0.0395561 
-4.19822 7.73741 -11.8904 0 0 1.5 0.144787 0.0272678 
-3.99656 7.50764 -12.1255 0 0 1.5 0.160379 0.0169229 
-3.7969 7.26833 -12.352 0 0 1.5 0.198313 0.00041874 
-3.60013 7.01507 -12.5661 0 0 1.5 0.221208 -0.00604494 
-3.40653 6.75005 -12.7676 0 0 1.5 0.247091 -0.0116562 
-3.21665 6.47116 -12.9544 0 0 1.5 0.308622 -0.020959 
-3.03143 6.17731 -13.1201 0 0 1.5 0.344312 -0.0244767 
-2.85006 5.87105 -13.2685 0 0 1.5 0.382835 -0.0272012 
-2.67622 5.54526 -13.3759 0 0 1.5 0.423252 -0.0290618 
-2.50588 5.21123 -13.4641 0 0 1.5 0.50262 -0.029502 
-2.34874 4.85924 -13.4743 0 0 1.5 0.536239 -0.0276194 
-2.20261 4.51003 -13.4264 0 0 1.5 0.561456 -0.024051 
-2.07044 4.16989 -13.3104 0 0 1.5 0.575223 -0.0189052 
-1.96387 3.87007 -13.0925 0 0 1.5 0.562474 -0.00471281 
-1.88415 3.63533 -12.8017 0 0 1.5 0.537178 0.0040307 
-1.823 3.45183 -12.4721 0 0 1.5 0.502517 0.013276 
-1.77997 3.32187 -12.1116 0 0 1.5 0.418495 0.0321637 
-1.75744 3.25631 -11.7333 0 0 1.5 0.374934 0.0422173 
-1.74228 3.2126 -11.3513 0 0 1.5 0.333001 0.0527881 
-1.74295 3.21371 -10.9656 0 0 1.5 0.293836 0.0640144 
-1.7525 3.23343 -10.5813 0 0 1.5 0.225696 0.0913397 
-1.77259 3.27527 -10.1985 0 0 1.5 0.196818 0.109054 
-1.80673 3.33452 -9.81935 0 0 1.5 0.171203 0.130667 
-1.848 3.40262 -9.44205 0 0 1.5 0.148635 0.157697 
-1.91059 3.48129 -9.06988 0 0 1.5 0.111917 0.235026 
-1.98016 3.56086 -8.69917 0 0 1.5 0.0975823 0.287608 
-2.0726 3.63757 -8.33274 0 0 1.5 0.0859817 0.347693 
-2.17866 3.7046 -7.96851 0 0 1.5 0.0772756 0.407619 
-2.29875 3.76165 -7.60655 0 0 1.5 0.069158 0.468487 
-2.44046 3.78824 -7.24914 0 0 1.5 0.0696351 0.448455 
-2.59012 3.79754 -6.89453 0 0 1.5 0.0726318 0.402364 
-2.75107 3.77809 -6.54465 0 0 1.5 0.0838093 0.293045 
-2.91778 3.72769 -6.20115 0 0 1.5 0.0909071 0.246956 
-3.0867 3.66276 -5.86082 0 0 1.5 0.0984352 0.20921 
-3.2569 3.56473 -5.52897 0 0 1.5 0.106054 0.179405 
-3.42664 3.45579 -5.20065 0 0 1.5 0.120511 0.138623 
-3.59559 3.32833 -4.87831 0 0 1.5 0.126885 0.124915 
-3.7642 3.1871 -4.56184 0 0 1.5 0.132405 0.114675 
-3.93255 3.03553 -4.24977 0 0 1.5 0.136903 0.107464 
-4.10224 2.86853 -3.94665 0 0 1.5 0.142313 0.100189 
-4.27246 2.69535 -3.64709 0 0 1.5 0.143058 0.0996899 
-4.44666 2.50448 -3.36107 0 0 1.5 0.142481 0.101216 
-4.6217 2.30989 -3.07788 0 0 1.5 0.137636 0.110237 
-4.80322 2.09443 -2.81471 0 0 1.5 0.13361 0.117825 
-4.98564 1.87606 -2.55459 0 0 1.5 0.128739 0.127566 
-5.17462 1.63629 -2.31902 0 0 1.5 0.123222 0.139657 
-5.36464 1.39177 -2.08973 0 0 1.5 0.111088 0.17154 
-5.55838 1.13023 -1.88295 0 0 1.5 0.1049 0.191159 
-5.75231 0.861268 -1.68677 0 0 1.5 0.0989173 0.212935 
-5.94652 0.580731 -1.5071 0 0 1.5 0.0933487 0.236192 
-6.13797 0.291441 -1.3392 0 0 1.5 0.0842589 0.280249 
-6.32738 -0.00434217 -1.18004 0 0 1.5 0.0810996 0.296058 
-6.50899 -0.308871 -1.02866 0 0 1.5 0.079063 0.303973 
-6.68817 -0.616132 -0.879721 0 0 1.5 0.0782428 0.302008 
-6.85229 -0.931073 -0.72952 0 0 1.5 0.0802886 0.26901 
-7.01236 -1.24711 -0.577491 0 0 1.5 0.0830311 0.241949 
-7.15429 -1.56714 -0.415828 0 0 1.5 0.0867692 0.212024 
-7.28639 -1.8877 -0.247757 0 0 1.5 0.0966567 0.153642 
-7.40131 -2.20919 -0.068491 0 0 1.5 0.102524 0.127518 
-7.49799 -2.53004 0.121445 0 0 1.5 0.108834 0.104311 
-7.58125 -2.85042 0.319231 0 0 1.5 0.115465 0.0842027 
-7.63719 -3.16908 0.528462 0 0 1.5 0.129234 0.0515951 
-7.68553 -3.48727 0.740878 0 0 1.5 0.136142 0.0385211 
-7.69758 -3.80366 0.960904 0 0 1.5 0.142915 0.0274279 
-7.70257 -4.11983 1.18114 0 0 1.5 0.14944 0.0179463 
-7.67444 -4.43504 1.40149 0 0 1.5 0.16125 0.00279186 
-7.63248 -4.7497 1.6195 0 0 1.5 0.166291 -0.00312537 
-7.5627 -5.06328 1.83279 0 0 1.5 0.170602 -0.00811539 
-7.47041 -5.37452 2.03962 0 0 1.5 0.176608 -0.0157063 
-7.35655 -5.68352 2.24025 0 0 1.5 0.178147 -0.0184011 
-7.21092 -5.98551 2.42941 0 0 1.5 0.178654 -0.020413 
-7.05162 -6.28448 2.61362 0 0 1.5 0.178113 -0.0217678 
-6.85219 -6.56795 2.78193 0 0 1.5 0.173986 -0.0228085 
-6.64398 -6.84715 2.94672 0 0 1.5 0.170535 -0.022543 
-6.39869 -7.10427 3.09647 0 0 1.5 0.166279 -0.0217255 
-6.14255 -7.35211 3.24192 0 0 1.5 0.161324 -0.0204065 
-5.86162 -7.57878 3.37755 0 0 1.5 0.149823 -0.0162994 
-5.56636 -7.78863 3.50777 0 0 1.5 0.143526 -0.0133589 
-5.25665 -7.98153 3.63255 0 0 1.5 0.137019 -0.00977497 
-4.93224 -8.15133 3.75193 0 0 1.5 0.123811 -0.000396368 
-4.60079 -8.31006 3.86873 0 0 1.5 0.1173 0.00573161 
-4.25651 -8.44242 3.98041 0 0 1.5 0.110958 0.0129874 
-3.90971 -8.56963 4.09108 0 0 1.5 0.104854 0.0214862 
-3.55289 -8.67099 4.19635 0 0 1.5 0.0936113 0.0431102 
-3.19516 -8.76978 4.30089 0 0 1.5 0.0885811 0.0564106 
-2.83145 -8.8509 4.40005 0 0 1.5 0.0840059 0.0711888 
-2.46682 -8.92941 4.49773 0 0 1.5 0.0799285 0.0873592 
-2.09874 -8.99815 4.58984 0 0 1.5 0.0734371 0.122312 
-1.72971 -9.06499 4.67942 0 0 1.5 0.0710919 0.139426 
-1.3586 -9.12762 4.7634 0 0 1.5 0.0693773 0.155059 
-0.986634 -9.18953 4.84392 0 0 1.5 0.0683069 0.168225 
-0.613407 -9.25039 4.91939 0 0 1.5 0.0680625 0.183125 
-0.239417 -9.31102 4.99107 0 0 1.5 0.0688083 0.184211 
0.135328 -9.37143 5.05899 0 0 1.5 0.0700557 0.18145 
0.510797 -9.43048 5.12401 0 0 1.5 0.0737322 0.167338 
0.88674 -9.48862 5.18712 0 0 1.5 0.0759573 0.157799 
1.26349 -9.54149 5.24998 0 0 1.5 0.0782962 0.147636 
1.64055 -9.59229 5.31275 0 0 1.5 0.0806373 0.137578 
2.01827 -9.63057 5.38007 0 0 1.5 0.0848568 0.119895 
2.39608 -9.66631 5.44836 0 0 1.5 0.086506 0.112799 
2.77322 -9.67888 5.52776 0 0 1.5 0.0877064 0.107244 
3.14951 -9.68472 5.61058 0 0 1.5 0.0883699 0.103481 
3.52261 -9.66558 5.7061 0 0 1.5 0.0878043 0.1019 
3.89183 -9.63047 5.80957 0 0 1.5 0.0864758 0.10455 
4.25596 -9.57445 5.92345 0 0 1.5 0.0844343 0.109918 
4.61102 -9.49394 6.04886 0 0 1.5 0.0783032 0.131126 
4.96145 -9.4009 6.18017 0 0 1.5 0.0743055 0.148638 
5.2979 -9.27965 6.32381 0 0 1.5 0.0698035 0.172212 
5.63152 -9.15301 6.4698 0 0 1.5 0.0649168 0.203825 
5.95129 -9.00374 6.62524 0 0 1.5 0.0545781 0.302404 
6.26889 -8.85148 6.78202 0 0 1.5 0.0495306 0.374933 
6.57802 -8.68752 6.94406 0 0 1.5 0.0449458 0.464103 
6.8855 -8.52196 7.10753 0 0 1.5 0.0412199 0.561728 
7.1895 -8.35299 7.27406 0 0 1.5 0.0382781 0.669481 
7.4937 -8.18593 7.44212 0 0 1.5 0.0398196 0.624267 
7.79817 -8.02149 7.61228 0 0 1.5 0.0434199 0.528321 
8.10531 -7.86454 7.78453 0 0 1.5 0.0555766 0.323684 
8.41482 -7.71423 7.95861 0 0 1.5 0.0634656 0.247354 
8.72931 -7.57915 8.13584 0 0 1.5 0.0722355 0.189264 
9.0464 -7.45204 8.3147 0 0 1.5 0.081734 0.145694 
9.36952 -7.34996 8.4983 0 0 1.5 0.102511 0.0879522 
9.69407 -7.2538 8.68302 0 0 1.5 0.11363 0.068387 
10.0232 -7.19314 8.87448 0 0 1.5 0.125132 0.052906 
10.3525 -7.13971 9.06737 0 0 1.5 0.136926 0.0405306 
10.6819 -7.11806 9.2666 0 0 1.5 0.160882 0.0217805 
11.0096 -7.11084 9.46891 0 0 1.5 0.172695 0.0144621 
11.3341 -7.12806 9.67643 0 0 1.5 0.18411 0.00820043 
11.6527 -7.16808 9.88896 0 0 1.5 0.194864 0.00271259 
11.967 -7.22457 10.1051 0 0 1.5 0.213151 -0.00665804 
12.2683 -7.3144 10.3277 0 0 1.5 0.220059 -0.0106818 
12.5648 -7.41524 10.5523 0 0 1.5 0.225101 -0.0143778 
12.8395 -7.55759 10.7824 0 0 1.5 0.228719 -0.0210869 
13.1024 -7.71768 11.0131 0 0 1.5 0.227082 -0.0242211 
13.3451 -7.90789 11.2446 0 0 1.5 0.223175 -0.0272955 
13.5594 -8.1314 11.4726 0 0 1.5 0.217126 -0.0303938 
13.7596 -8.37088 11.6987 0 0 1.5 0.199522 -0.0370668 
13.9165 -8.64989 11.9137 0 0 1.5 0.188594 -0.0408797 
14.0569 -8.94041 12.1231 0 0 1.5 0.176677 -0.0452374 
14.169 -9.25076 12.3226 0 0 1.5 0.16407 -0.0503979 
14.2564 -9.57432 12.512 0 0 1.5 0.137902 -0.0645142 
14.3299 -9.90534 12.6956 0 0 1.5 0.124781 -0.0745222 
14.378 -10.2466 12.8681 0 0 1.5 0.111853 -0.0876217 
14.4215 -10.5898 13.0385 0 0 1.5 0.0870661 -0.12926 
14.4448 -10.9392 13.1999 0 0 1.5 0.0754012 -0.163366 
14.4668 -11.2889 13.3609 0 0 1.5 0.0643392 -0.213209 
14.4781 -11.6408 13.5182 0 0 1.5 0.0539969 -0.288373 
14.4889 -11.9926 13.6757 0 0 1.5 0.0363404 -0.581514 
14.4964 -12.344 13.8343 0 0 1.5 0.0298941 -0.823681 
14.5047 -12.6947 13.9943 0 0 1.5 0.0260314 -1.04319 
14.5156 -13.0428 14.1599 0 0 1.5 0.0254335 -1.05013 
14.5294 -13.3889 14.3292 0 0 1.5 0.0322412 -0.601831 
14.5503 -13.73 14.508 0 0 1.5 0.0375663 -0.424902 
14.5775 -14.0663 14.6941 0 0 1.5 0.043183 -0.307363 
14.6146 -14.395 14.8923 0 0 1.5 0.0487042 -0.229819 
14.6633 -14.7134 15.1035 0 0 1.5 0.0585824 -0.141712 
14.7226 -15.0223 15.3265 0 0 1.5 0.062682 -0.115892 
14.8006 -15.3105 15.5694 0 0 1.5 0.0660966 -0.0967117 
14.8869 -15.5896 15.8212 0 0 1.5 0.07063 -0.0713173 
14.9991 -15.833 16.0978 0 0 1.5 0.0717075 -0.0627889 
15.1151 -16.071 16.3781 0 0 1.5 0.0719883 -0.0559846 
15.2312 -16.309 16.6584 0 0 1.5 0.071488 -0.0505889 
15.3473 -16.547 16.9387 0 0 1.5 0.068339 -0.0431177 
15.4634 -16.785 17.219 0 0 1.5 0.0658183 -0.040555 
15.5795 -17.023 17.4993 0 0 1.5 0.0627652 -0.038667 
15.6955 -17.261 17.7796 0 0 1.5 0.0592643 -0.0374684 
15.8116 -17.499 18.06 0 0 1.5 0.0512696 -0.0369309 
15.9277 -17.737 18.3403 0 0 1.5 0.0469477 -0.0376555 
16.0438 -17.975 18.6206 0 0 1.5 0.0425127 -0.0392622 
16.1598 -18.213 18.9009 0 0 1.5 0.0335819 -0.0459747 
16.2759 -18.451 19.1812 0 0 1.5 0.0292138 -0.0519881 
16.392 -18.689 19.4615 0 0 1.5 0.0249745 -0.0611264 
16.5081 -18.927 19.7419 0 0 1.5 0.0209031 -0.0752826 
16.6242 -19.165 20.0222 0 0 1.5 0.013418 -0.137419 
16.7402 -19.403 20.3025 0 0 1.5 0.0100733 -0.213026 
16.8563 -19.641 20.5828 0 0 1.5 0.00705357 -0.381276 
16.9724 -19.8791 20.8631 0 0 1.5 0.00448137 -0.831166 
17.0885 -20.1171 21.1434 0 0 1.5 0.0028866 -1.57214 
17.2046 -20.3551 21.4237 0 0 1.5 0.00422674 -0.654061 
17.3206 -20.5931 21.7041 0 0 1.5 0.00573732 -0.317085 
17.4367 -20.8311 21.9844 0 0 1.5 0.00827581 -0.122766 
17.5528 -21.0691 22.2647 0 0 1.5 0.0092185 -0.0892311 
17.6689 -21.3071 22.545 0 0 1.5 0.00993944 -0.0691956 
17.7849 -21.5451 22.8253 0 0 1.5 0.0104462 -0.0565198 
17.901 -21.7831 23.1056 0 0 1.5 0.010875 -0.0427579 
18.0171 -22.0211 23.3859 0 0 1.5 0.0108299 -0.038985 
18.1332 -22.2591 23.6663 0 0 1.5 0.0106347 -0.036547 
18.2493 -22.4971 23.9466 0 0 1.5 0.010307 -0.0352579 
18.3653 -22.7351 24.2269 0 0 1.5 0.00932663 -0.035327 
18.4814 -22.9731 24.5072 0 0 1.5 0.0087099 -0.0366499 
18.5975 -23.2111 24.7875 0 0 1.5 0.00803035 -0.0391202 
18.7136 -23.4491 25.0678 0 0 1.5 0.00730315 -0.0429682 
18.8297 -23.6871 25.3481 0 0 1.5 0.00576643 -0.0568673 
18.9457 -23.9251 25.6285 0 0 1.5 0.00498249 -0.0695927 
19.0618 -24.1632 25.9088 0 0 1.5 0.00420229 -0.0897238 
19.1779 -24.4012 26.1891 0 0 1.5 0.00269811 -0.184415 
19.294 -24.6392 26.4694 0 0 1.5 0.00199779 -0.311728 
19.41 -24.8772 26.7497 0 0 1.5 0.00135836 -0.627192 
19.5261 -25.1152 27.03 0 0 1.5 0.000847492 -1.50144 
19.6422 -25.3532 27.3103 0 0 1.5 0.000971701 -1.00249 
19.7583 -25.5912 27.5907 0 0 1.5 0.00141486 -0.445207 
19.8744 -25.8292 27.871 0 0 1.5 0.00187182 -0.239555 
19.9904 -26.0672 28.1513 0 0 1.5 0.00230708 -0.148621 
20.1065 -26.3052 28.4316 0 0 1.5 0.00308177 -0.0742724 
20.2226 -26.5432 28.7119 0 0 1.5 0.00341889 -0.0568503 
20.3387 -26.7812 28.9922 0 0 1.5 0.00372365 -0.0450685 
20.4548 -27.0192 29.2725 0 0 1.5 0.00424491 -0.0305934 
20.5708 -27.2572 29.5529 0 0 1.5 0.00446655 -0.025835 
20.6869 -27.4952 29.8332 0 0 1.5 0.00466574 -0.0220832 
20.803 -27.7332 30.1135 0 0 1.5 0.00484495 -0.0191019 
20.9191 -27.9712 30.3938 0 0 1.5 0.00515323 -0.0146563 
21.0351 -28.2093 30.6741 0 0 1.5 0.00528714 -0.0129753 
21.1512 -28.4473 30.9544 0 0 1.5 0.00541019 -0.0115938 
21.2673 -28.6853 31.2347 0 0 1.5 0.00552408 -0.0104553 
21.3834 -28.9233 31.5151 0 0 1.5 0.00573121 -0.00875315 
21.4995 -29.1613 31.7954 0 0 1.5 0.00582739 -0.00814943 
21.6155 -29.3993 32.0757 0 0 1.5 0.00592031 -0.00768537 
0 1 0 
1 2 0 
2 3 0 
3 4 0 
4 5 0 
5 6 0 
6 7 0 
7 8 0 
8 9 0 
9 10 0 
10 11 0 
11 12 0 
12 13 0 
13 14 0 
14 15 0 
15 16 0 
16 17 0 
17 18 0 
18 19 0 
19 20 0 
20 21 0 
21 22 0 
22 23 0 
23 24 0 
24 25 0 
25 26 0 
26 27 0 
27 28 0 
28 29 0 
29 30 0 
30 31 0 
31 32 0 
32 33 0 
33 34 0 
34 35 0 
35 36 0 
36 37 0 
37 38 0 
38 39 0 
39 40 0 
40 41 0 
41 42 0 
42 43 0 
43 44 0 
44 45 0 
45 46 0 
46 47 0 
47 48 0 
48 49 0 
49 50 0 
50 51 0 
51 52 0 
52 53 0 
53 54 0 
54 55 0 
55 56 0 
56 57 0 
57 58 0 
58 59 0 
59 60 0 
60 61 0 
61 62 0 
62 63 0 
63 64 0 
64 65 0 
65 66 0 
66 67 0 
67 68 0 
68 69 0 
69 70 0 
70 71 0 
71 72 0 
72 73 0 
73 74 0 
74 75 0 
75 76 0 
76 77 0 
77 78 0 
78 79 0 
79 80 0 
80 81 0 
81 82 0 
82 83 0 
83 84 0 
84 85 0 
85 86 0 
86 87 0 
87 88 0 
88 89 0 
89 90 0 
90 91 0 
91 92 0 
92 93 0 
93 94 0 
94 95 0 
95 96 0 
96 97 0 
97 98 0 
98 99 0 
99 100 0 
100 101 0 
101 102 0 
102 103 0 
103 104 0 
104 105 0 
105 106 0 
106 107 0 
107 108 0 
108 109 0 
109 110 0 
110 111 0 
111 112 0 
112 113 0 
113 114 0 
114 115 0 
115 116 0 
116 117 0 
117 118 0 
118 119 0 
119 120 0 
120 121 0 
121 122 0 
122 123 0 
123 124 0 
124 125 0 
125 126 0 
126 127 0 
127 128 0 
128 129 0 
129 130 0 
130 131 0 
131 132 0 
132 133 0 
133 134 0 
134 135 0 
135 136 0 
136 137 0 
137 138 0 
138 139 0 
139 140 0 
140 141 0 
141 142 0 
142 143 0 
143 144 0 
144 145 0 
145 146 0 
146 147 0 
147 148 0 
148 149 0 
149 150 0 
150 151 0 
151 152 0 
152 153 0 
153 154 0 
154 155 0 
155 156 0 
156 157 0 
157 158 0 
158 159 0 
159 160 0 
160 161 0 
161 162 0 
162 163 0 
163 164 0 
164 165 0 
165 166 0 
166 167 0 
167 168 0 
168 169 0 
169 170 0 
170 171 0 
171 172 0 
172 173 0 
173 174 0 
174 175 0 
175 176 0 
176 177 0 
177 178 0 
178 179 0 
179 180 0 
180 181 0 
181 182 0 
182 183 0 
183 184 0 
184 185 0 
185 186 0 
186 187 0 
187 188 0 
188 189 0 
189 190 0 
190 191 0 
191 192 0 
192 193 0 
193 194 0 
194 195 0 
195 196 0 
196 197 0 
197 198 0 
198 199 0 
199 200 0 
200 201 0 
201 202 0 
202 203 0 
203 204 0 
204 205 0 
205 206 0 
206 207 0 
207 208 0 
208 209 0 
209 210 0 
210 211 0 
211 212 0 
212 213 0 
213 214 0 
214 215 0 
215 216 0 
216 217 0 
217 218 0 
218 219 0 
219 220 0 
220 221 0 
221 222 0 
222 223 0 
223 224 0 
224 225 0 
225 226 0 
226 227 0 
227 228 0 
228 229 0 
229 230 0 
230 231 0 
231 232 0 
232 233 0 
233 234 0 
234 235 0 
235 236 0 
236 237 0 
237 238 0 
238 239 0 
239 240 0 
240 241 0 
241 242 0 
242 243 0 
243 244 0 
244 245 0 
245 246 0 
246 247 0 
247 248 0 
248 249 0 
249 250 0 
250 251 0 
251 252 0 
252 253 0 
253 254 0 
254 255 0 
255 256 0 
256 257 0 
257 258 0 
258 259 0 
259 260 0 
260 261 0 
261 262 0 
262 263 0 
263 264 0 
264 265 0 
265 266 0 
266 267 0 
267 268 0 
268 269 0 
269 270 0 
270 271 0 
271 272 0 
272 273 0 
273 274 0 
274 275 0 
275 276 0 
276 277 0 
277 278 0 
278 279 0 
279 280 0 
280 281 0 
281 282 0 
282 283 0 
283 284 0 
284 285 0 
285 286 0 
286 287 0 
287 288 0 
288 289 0 
289 290 0 
290 291 0 
291 292 0 
292 293 0 
293 294 0 
294 295 0 
295 296 0 
296 297 0 
297 298 0 
298 299 0 
-1 -1 0 
-1 300 0 1 2 3 4 5 6 7 8 9 10 11 12 13 14 15 16 17 18 19 20 21 22 23 24 25 26 27 28 29 30 31 32 33 34 35 36 37 38 39 40 41 42 43 44 45 46 47 48 49 50 51 52 53 54 55 56 57 58 59 60 61 62 63 64 65 66 67 68 69 70 71 72 73 74 75 76 77 78 79 80 81 82 83 84 85 86 87 88 89 90 91 92 93 94 95 96 97 98 99 100 101 102 103 104 105 106 107 108 109 110 111 112 113 114 115 116 117 118 119 120 121 122 123 124 125 126 127 128 129 130 131 132 133 134 135 136 137 138 139 140 141 142 143 144 145 146 147 148 149 150 151 152 153 154 155 156 157 158 159 160 161 162 163 164 165 166 167 168 169 170 171 172 173 174 175 176 177 178 179 180 181 182 183 184 185 186 187 188 189 190 191 192 193 194 195 196 197 198 199 200 201 202 203 204 205 206 207 208 209 210 211 212 213 214 215 216 217 218 219 220 221 222 223 224 225 226 227 228 229 230 231 232 233 234 235 236 237 238 239 240 241 242 243 244 245 246 247 248 249 250 251 252 253 254 255 256 257 258 259 260 261 262 263 264 265 266 267 268 269 270 271 272 273 274 275 276 277 278 279 280 281 282 283 284 285 286 287 288 289 290 291 292 293 294 295 296 297 298 299 
