ply
format ascii 1.0
comment written by koba@oshima.lab
element vertex 300
property float x
property float y
property float z
property int label
property int attribute
property float radius
property float curvature
property float torsion
element edge 300
property int vertex1
property int vertex2
property int label
element vertex_seq 1
property int label
property list int int vertex_indices
end_header
1.9052 26.5258 -11.9263 0 0 1.5 0.0418637 -0.019217 
1.77672 26.2965 -11.6877 0 0 1.5 0.0408036 -0.0201128 
1.64823 26.0672 -11.449 0 0 1.5 0.0397352 -0.0213362 
1.51975 25.8379 -11.2104 0 0 1.5 0.03865 -0.0229344 
1.39127 25.6086 -10.9717 0 0 1.5 0.0363969 -0.0274929 
1.26279 25.3794 -10.7331 0 0 1.5 0.0352119 -0.0306088 
1.13431 25.1501 -10.4944 0 0 1.5 0.0339761 -0.034442 
1.00583 24.9208 -10.2557 0 0 1.5 0.0326811 -0.0391659 
0.877348 24.6915 -10.0171 0 0 1.5 0.0298808 -0.0521092 
0.748867 24.4622 -9.77844 0 0 1.5 0.0283579 -0.0610756 
0.620386 24.2329 -9.53979 0 0 1.5 0.0267435 -0.0725455 
0.491905 24.0036 -9.30114 0 0 1.5 0.0250328 -0.0874003 
0.363424 23.7743 -9.06249 0 0 1.5 0.0213143 -0.133845 
0.234942 23.545 -8.82383 0 0 1.5 0.0193171 -0.171735 
0.106461 23.3157 -8.58518 0 0 1.5 0.0172539 -0.2268 
-0.0220198 23.0865 -8.34653 0 0 1.5 0.0131663 -0.432468 
-0.150501 22.8572 -8.10788 0 0 1.5 0.0114137 -0.608138 
-0.278982 22.6279 -7.86923 0 0 1.5 0.0102293 -0.801659 
-0.407463 22.3986 -7.63057 0 0 1.5 0.0100325 -0.884202 
-0.535944 22.1693 -7.39192 0 0 1.5 0.0133061 -0.572345 
-0.664425 21.94 -7.15327 0 0 1.5 0.0163927 -0.404892 
-0.792907 21.7107 -6.91462 0 0 1.5 0.0201114 -0.289769 
-0.921388 21.4814 -6.67597 0 0 1.5 0.0243157 -0.214454 
-1.04987 21.2521 -6.43731 0 0 1.5 0.0338976 -0.131036 
-1.17835 21.0229 -6.19866 0 0 1.5 0.0392024 -0.107365 
-1.30683 20.7936 -5.96001 0 0 1.5 0.0448211 -0.0903894 
-1.43531 20.5643 -5.72136 0 0 1.5 0.0569581 -0.0685653 
-1.56379 20.335 -5.48271 0 0 1.5 0.0634496 -0.0611976 
-1.69227 20.1057 -5.24405 0 0 1.5 0.0701965 -0.0554 
-1.82076 19.8764 -5.0054 0 0 1.5 0.0771766 -0.0508288 
-1.94924 19.6471 -4.76675 0 0 1.5 0.0917187 -0.04384 
-2.07772 19.4178 -4.5281 0 0 1.5 0.0991977 -0.0410711 
-2.2062 19.1885 -4.28944 0 0 1.5 0.106747 -0.0387037 
-2.33468 18.9592 -4.05079 0 0 1.5 0.114304 -0.0365288 
-2.46316 18.73 -3.81214 0 0 1.5 0.129154 -0.0322612 
-2.59164 18.5007 -3.57349 0 0 1.5 0.136278 -0.030169 
-2.7513 18.2525 -3.38403 0 0 1.5 0.143076 -0.027948 
-2.93624 17.9889 -3.23446 0 0 1.5 0.149457 -0.0254554 
-3.15461 17.7172 -3.16775 0 0 1.5 0.160593 -0.0196657 
-3.37958 17.4475 -3.12544 0 0 1.5 0.165171 -0.0162728 
-3.61429 17.1812 -3.11951 0 0 1.5 0.169001 -0.0124213 
-3.85449 16.9213 -3.14048 0 0 1.5 0.17424 -0.00325702 
-4.09687 16.6638 -3.17216 0 0 1.5 0.175608 0.00209878 
-4.34363 16.414 -3.22422 0 0 1.5 0.176152 0.00800216 
-4.5912 16.1655 -3.27897 0 0 1.5 0.17591 0.0145065 
-4.84169 15.9221 -3.34243 0 0 1.5 0.173291 0.0294868 
-5.09348 15.6806 -3.40809 0 0 1.5 0.171066 0.0379319 
-5.34714 15.4419 -3.47687 0 0 1.5 0.168351 0.0471121 
-5.60281 15.2065 -3.54922 0 0 1.5 0.165247 0.0571406 
-5.85954 14.973 -3.62379 0 0 1.5 0.158296 0.0792026 
-6.11881 14.7454 -3.70763 0 0 1.5 0.154671 0.0911995 
-6.37943 14.5236 -3.8014 0 0 1.5 0.151094 0.103962 
-6.6414 14.3081 -3.90592 0 0 1.5 0.144517 0.130623 
-6.90496 14.1097 -4.03697 0 0 1.5 0.141729 0.144108 
-7.16818 13.9281 -4.18983 0 0 1.5 0.139411 0.157535 
-7.43037 13.7625 -4.36169 0 0 1.5 0.137658 0.170326 
-7.68972 13.6205 -4.55822 0 0 1.5 0.136201 0.191772 
-7.94429 13.5001 -4.77369 0 0 1.5 0.136643 0.199919 
-8.19584 13.3909 -4.99883 0 0 1.5 0.137935 0.205787 
-8.4401 13.3015 -5.24047 0 0 1.5 0.140108 0.209032 
-8.67921 13.2197 -5.48949 0 0 1.5 0.147088 0.208497 
-8.91222 13.1469 -5.74724 0 0 1.5 0.151831 0.205304 
-9.13504 13.0804 -6.01528 0 0 1.5 0.15733 0.200543 
-9.35278 13.0171 -6.28844 0 0 1.5 0.170223 0.188176 
-9.55263 12.9561 -6.57527 0 0 1.5 0.177369 0.181384 
-9.74877 12.8956 -6.86492 0 0 1.5 0.184786 0.174581 
-9.91388 12.8306 -7.17241 0 0 1.5 0.192304 0.167978 
-10.0688 12.7627 -7.48384 0 0 1.5 0.206886 0.156025 
-10.1893 12.6851 -7.80863 0 0 1.5 0.213567 0.150898 
-10.2764 12.5957 -8.13942 0 0 1.5 0.219604 0.146364 
-10.3363 12.4969 -8.4751 0 0 1.5 0.224828 0.142432 
-10.3244 12.3715 -8.80677 0 0 1.5 0.232346 0.136722 
-10.277 12.233 -9.12757 0 0 1.5 0.234537 0.134917 
-10.1887 12.0794 -9.43524 0 0 1.5 0.235685 0.133754 
-10.0451 11.9055 -9.70865 0 0 1.5 0.235851 0.133286 
-9.88398 11.7249 -9.96695 0 0 1.5 0.233807 0.134328 
-9.69457 11.5335 -10.1983 0 0 1.5 0.231962 0.135673 
-9.49053 11.3357 -10.41 0 0 1.5 0.229846 0.137491 
-9.27614 11.1334 -10.6079 0 0 1.5 0.225777 0.142032 
-9.05055 10.9256 -10.7862 0 0 1.5 0.224291 0.144411 
-8.82113 10.7159 -10.9577 0 0 1.5 0.223455 0.146617 
-8.58358 10.5024 -11.1124 0 0 1.5 0.223457 0.148439 
-8.34409 10.2879 -11.263 0 0 1.5 0.226548 0.150312 
-8.09776 10.0712 -11.3985 0 0 1.5 0.229804 0.150209 
-7.84986 9.8541 -11.5305 0 0 1.5 0.234239 0.149397 
-7.59512 9.63602 -11.6467 0 0 1.5 0.239817 0.147926 
-7.33871 9.41769 -11.7591 0 0 1.5 0.253937 0.143465 
-7.07488 9.19879 -11.8508 0 0 1.5 0.26208 0.140754 
-6.80953 8.97977 -11.9383 0 0 1.5 0.270559 0.137932 
-6.53671 8.75946 -11.9931 0 0 1.5 0.286957 0.132536 
-6.26287 8.53862 -12.0366 0 0 1.5 0.293989 0.130123 
-5.98654 8.31574 -12.039 0 0 1.5 0.299629 0.127963 
-5.71606 8.09177 -12.0005 0 0 1.5 0.303417 0.126116 
-5.45426 7.86759 -11.9214 0 0 1.5 0.303938 0.123569 
-5.22252 7.64736 -11.767 0 0 1.5 0.300241 0.122929 
-5.03859 7.43962 -11.5497 0 0 1.5 0.293835 0.12281 
-4.89899 7.2454 -11.2914 0 0 1.5 0.284841 0.123314 
-4.80027 7.06444 -11.0023 0 0 1.5 0.260323 0.126535 
-4.76228 6.90287 -10.6886 0 0 1.5 0.245599 0.129573 
-4.74368 6.74572 -10.3716 0 0 1.5 0.229804 0.133875 
-4.75133 6.5945 -10.0505 0 0 1.5 0.196734 0.147295 
-4.78123 6.44332 -9.731 0 0 1.5 0.180189 0.157137 
-4.81996 6.29217 -9.41211 0 0 1.5 0.164015 0.169818 
-4.8781 6.13266 -9.10038 0 0 1.5 0.148437 0.186059 
-4.93919 5.97079 -8.79047 0 0 1.5 0.119729 0.232698 
-5.01243 5.79453 -8.49113 0 0 1.5 0.106853 0.265501 
-5.08803 5.61204 -8.1964 0 0 1.5 0.0951075 0.306523 
-5.16917 5.41498 -7.91247 0 0 1.5 0.0846155 0.356468 
-5.25188 5.20597 -7.63805 0 0 1.5 0.0679938 0.476681 
-5.33595 4.98661 -7.37187 0 0 1.5 0.0622084 0.534627 
-5.41819 4.75011 -7.12041 0 0 1.5 0.0583094 0.574868 
-5.49868 4.50719 -6.8745 0 0 1.5 0.0563397 0.584916 
-5.57268 4.25077 -6.64039 0 0 1.5 0.0575682 0.515004 
-5.63872 3.98822 -6.41094 0 0 1.5 0.0601468 0.456354 
-5.69869 3.721 -6.18504 0 0 1.5 0.0635488 0.397229 
-5.73908 3.44877 -5.96077 0 0 1.5 0.0715681 0.300826 
-5.76923 3.17624 -5.73556 0 0 1.5 0.0757228 0.265667 
-5.78606 2.90337 -5.50908 0 0 1.5 0.0797479 0.237938 
-5.78293 2.63154 -5.28089 0 0 1.5 0.0835196 0.216707 
-5.77145 2.35969 -5.05301 0 0 1.5 0.0899961 0.189675 
-5.74618 2.08736 -4.82667 0 0 1.5 0.0925998 0.181961 
-5.71279 1.81158 -4.60574 0 0 1.5 0.0947406 0.177343 
-5.67499 1.53394 -4.38775 0 0 1.5 0.0964196 0.175391 
-5.63134 1.2459 -4.18487 0 0 1.5 0.0984723 0.177853 
-5.58734 0.953593 -3.9886 0 0 1.5 0.0989172 0.181582 
-5.54273 0.651544 -3.80746 0 0 1.5 0.0990488 0.186469 
-5.49891 0.341299 -3.64114 0 0 1.5 0.0986561 0.198357 
-5.45566 0.0253407 -3.48514 0 0 1.5 0.0982855 0.204519 
-5.41268 -0.300179 -3.35044 0 0 1.5 0.0979013 0.210159 
-5.36923 -0.628054 -3.22162 0 0 1.5 0.0975768 0.214848 
-5.32249 -0.961516 -3.10913 0 0 1.5 0.0973659 0.219662 
-5.2716 -1.29558 -3.0005 0 0 1.5 0.097578 0.219066 
-5.21475 -1.6305 -2.89738 0 0 1.5 0.0980419 0.216214 
-5.14583 -1.96256 -2.79271 0 0 1.5 0.0987692 0.211071 
-5.07142 -2.29325 -2.68721 0 0 1.5 0.100978 0.195152 
-4.97394 -2.61351 -2.56902 0 0 1.5 0.102403 0.185049 
-4.86723 -2.92773 -2.44411 0 0 1.5 0.103982 0.173895 
-4.74318 -3.23061 -2.3066 0 0 1.5 0.105664 0.162277 
-4.6015 -3.51845 -2.15568 0 0 1.5 0.109096 0.139396 
-4.45161 -3.79928 -1.99851 0 0 1.5 0.110722 0.128391 
-4.27935 -4.05778 -1.82667 0 0 1.5 0.112207 0.118049 
-4.10203 -4.31112 -1.65271 0 0 1.5 0.114543 0.100105 
-3.91044 -4.54989 -1.47294 0 0 1.5 0.115304 0.0924021 
-3.71084 -4.78128 -1.29262 0 0 1.5 0.11574 0.0856252 
-3.50213 -5.0043 -1.11167 0 0 1.5 0.115828 0.0798509 
-3.28263 -5.21853 -0.933203 0 0 1.5 0.114903 0.0710319 
-3.05721 -5.42795 -0.756097 0 0 1.5 0.113877 0.0679132 
-2.81757 -5.62567 -0.584547 0 0 1.5 0.112486 0.0656261 
-2.57464 -5.82068 -0.414279 0 0 1.5 0.110752 0.0641351 
-2.31334 -5.99769 -0.251735 0 0 1.5 0.106351 0.0633997 
-2.0482 -6.1698 -0.0906184 0 0 1.5 0.103747 0.0639645 
-1.768 -6.32253 0.064935 0 0 1.5 0.100924 0.0651164 
-1.48059 -6.46239 0.218487 0 0 1.5 0.0947708 0.0690923 
-1.18375 -6.58545 0.369427 0 0 1.5 0.0915223 0.0716656 
-0.878522 -6.68605 0.519426 0 0 1.5 0.0882153 0.0745466 
-0.569635 -6.77686 0.669016 0 0 1.5 0.0848898 0.0776874 
-0.254837 -6.83894 0.820852 0 0 1.5 0.0783272 0.0841172 
0.0603163 -6.89506 0.97406 0 0 1.5 0.0751535 0.0870883 
0.375984 -6.93378 1.13183 0 0 1.5 0.0720886 0.0896825 
0.690204 -6.96707 1.29349 0 0 1.5 0.0691548 0.0917701 
1.00264 -6.99371 1.45995 0 0 1.5 0.0637251 0.0938917 
1.31146 -7.0194 1.63309 0 0 1.5 0.0612429 0.0935219 
1.61829 -7.04458 1.80988 0 0 1.5 0.0589183 0.0922075 
1.91935 -7.07585 1.99532 0 0 1.5 0.0546921 0.0872729 
2.21913 -7.10849 2.18269 0 0 1.5 0.0527609 0.0835517 
2.5112 -7.15424 2.37922 0 0 1.5 0.0509285 0.0794268 
2.80211 -7.20217 2.57689 0 0 1.5 0.0491676 0.0754983 
3.08578 -7.26389 2.78123 0 0 1.5 0.0457517 0.068964 
3.36753 -7.3291 2.98702 0 0 1.5 0.0440469 0.0671927 
3.64375 -7.40433 3.19697 0 0 1.5 0.0423092 0.067431 
3.91767 -7.48269 3.40872 0 0 1.5 0.0405135 0.0701702 
4.18833 -7.56551 3.62301 0 0 1.5 0.0366652 0.0861088 
4.45739 -7.64737 3.83966 0 0 1.5 0.0345794 0.101822 
4.72538 -7.72859 4.05789 0 0 1.5 0.0323718 0.125205 
4.99373 -7.79897 4.27934 0 0 1.5 0.0300415 0.159345 
5.26242 -7.86435 4.50184 0 0 1.5 0.0250952 0.278715 
5.53335 -7.90715 4.72723 0 0 1.5 0.0225994 0.379168 
5.80533 -7.93455 4.95309 0 0 1.5 0.0202533 0.519064 
6.07861 -7.94266 5.17956 0 0 1.5 0.0170827 0.859174 
6.35212 -7.92072 5.40438 0 0 1.5 0.0170289 0.924815 
6.62538 -7.88618 5.62804 0 0 1.5 0.0183947 0.840742 
6.89742 -7.82725 5.84841 0 0 1.5 0.021143 0.66838 
7.16874 -7.75892 6.06675 0 0 1.5 0.0297751 0.359886 
7.43947 -7.68277 6.28341 0 0 1.5 0.035195 0.262118 
7.71072 -7.6049 6.49881 0 0 1.5 0.0411529 0.192978 
7.9824 -7.5287 6.71421 0 0 1.5 0.047549 0.143803 
8.25605 -7.46329 6.9307 0 0 1.5 0.0613724 0.0819623 
8.53057 -7.40873 7.14873 0 0 1.5 0.0686882 0.062226 
8.80626 -7.3689 7.36883 0 0 1.5 0.0761996 0.0472105 
9.08135 -7.35334 7.5921 0 0 1.5 0.0915631 0.0262681 
9.35617 -7.3486 7.81679 0 0 1.5 0.0992781 0.0188938 
9.62473 -7.38235 8.04636 0 0 1.5 0.106918 0.0130587 
9.89018 -7.42672 8.27721 0 0 1.5 0.114401 0.00836868 
10.1454 -7.50317 8.51185 0 0 1.5 0.128517 0.00145421 
10.3919 -7.59728 8.74843 0 0 1.5 0.134945 -0.000970176 
10.6282 -7.71185 8.98725 0 0 1.5 0.140812 -0.0028618 
10.8493 -7.84922 9.22804 0 0 1.5 0.14601 -0.00431554 
11.0633 -7.99694 9.46972 0 0 1.5 0.154002 -0.00587779 
11.2567 -8.16959 9.71197 0 0 1.5 0.156654 -0.00600409 
11.4461 -8.34695 9.95416 0 0 1.5 0.158337 -0.00572877 
11.6148 -8.54647 10.1945 0 0 1.5 0.158711 -0.00398172 
11.779 -8.75076 10.4336 0 0 1.5 0.157437 -0.00248542 
11.9279 -8.97115 10.6687 0 0 1.5 0.155244 -0.000540333 
12.0697 -9.19912 10.9007 0 0 1.5 0.152195 0.00185386 
12.2003 -9.43884 11.1276 0 0 1.5 0.1439 0.00810391 
12.3204 -9.68928 11.3483 0 0 1.5 0.138856 0.0121232 
12.4326 -9.94779 11.5642 0 0 1.5 0.133351 0.0167912 
12.5287 -10.2203 11.77 0 0 1.5 0.127496 0.0221452 
12.6197 -10.4972 11.9727 0 0 1.5 0.115144 0.0355657 
12.6869 -10.79 12.1618 0 0 1.5 0.108831 0.0438843 
12.7462 -11.0866 12.3471 0 0 1.5 0.10254 0.0533585 
12.786 -11.3924 12.523 0 0 1.5 0.0963506 0.0642267 
12.8099 -11.7031 12.6925 0 0 1.5 0.0845495 0.0909631 
12.8222 -12.0172 12.8575 0 0 1.5 0.0790625 0.106842 
12.8143 -12.3345 13.0162 0 0 1.5 0.073929 0.124408 
12.801 -12.6524 13.1736 0 0 1.5 0.0649485 0.163447 
12.775 -12.9707 13.3287 0 0 1.5 0.0612058 0.183224 
12.7469 -13.2885 13.4844 0 0 1.5 0.0580223 0.201491 
12.716 -13.6058 13.6406 0 0 1.5 0.0554346 0.216538 
12.6889 -13.9224 13.7989 0 0 1.5 0.0521035 0.230327 
12.6635 -14.2387 13.9581 0 0 1.5 0.0513249 0.226995 
12.6514 -14.5547 14.1195 0 0 1.5 0.0510793 0.216693 
12.6439 -14.8707 14.281 0 0 1.5 0.0512985 0.200773 
12.6517 -15.1871 14.4417 0 0 1.5 0.0527801 0.159162 
12.6687 -15.5045 14.5995 0 0 1.5 0.0538629 0.13606 
12.6968 -15.8229 14.7541 0 0 1.5 0.0550605 0.113235 
12.737 -16.1438 14.9002 0 0 1.5 0.0575015 0.0716729 
12.7825 -16.4657 15.0427 0 0 1.5 0.0586182 0.0530084 
12.8388 -16.7927 15.1687 0 0 1.5 0.0595957 0.0359973 
12.8966 -17.1213 15.29 0 0 1.5 0.0603947 0.0208209 
12.9577 -17.4556 15.3927 0 0 1.5 0.0613333 -0.00510787 
13.0174 -17.7927 15.4856 0 0 1.5 0.061425 -0.0161872 
13.0744 -18.1346 15.5625 0 0 1.5 0.0612493 -0.0260609 
13.1243 -18.4804 15.6231 0 0 1.5 0.0608027 -0.0348839 
13.1688 -18.8293 15.6712 0 0 1.5 0.0590973 -0.0499546 
13.1985 -19.1817 15.6974 0 0 1.5 0.0578538 -0.0565989 
13.2225 -19.5355 15.715 0 0 1.5 0.0563693 -0.0627425 
13.2241 -19.8901 15.707 0 0 1.5 0.0546599 -0.0683976 
13.2208 -20.2448 15.6932 0 0 1.5 0.0506456 -0.0791712 
13.2175 -20.5995 15.6795 0 0 1.5 0.0483909 -0.0844948 
13.2141 -20.9543 15.6657 0 0 1.5 0.046005 -0.089725 
13.2108 -21.309 15.652 0 0 1.5 0.0409417 -0.101187 
13.2075 -21.6637 15.6382 0 0 1.5 0.0383193 -0.107778 
13.2042 -22.0185 15.6245 0 0 1.5 0.0356717 -0.114923 
13.2008 -22.3732 15.6108 0 0 1.5 0.033023 -0.123031 
13.1975 -22.7279 15.597 0 0 1.5 0.0278126 -0.144011 
13.1942 -23.0827 15.5833 0 0 1.5 0.0252932 -0.157275 
13.1909 -23.4374 15.5695 0 0 1.5 0.0228567 -0.173209 
13.1875 -23.7921 15.5558 0 0 1.5 0.0205195 -0.192911 
13.1842 -24.1469 15.542 0 0 1.5 0.0162056 -0.246921 
13.1809 -24.5016 15.5283 0 0 1.5 0.0142606 -0.283742 
13.1775 -24.8563 15.5146 0 0 1.5 0.0124761 -0.329772 
13.1742 -25.2111 15.5008 0 0 1.5 0.00945218 -0.45274 
13.1709 -25.5658 15.4871 0 0 1.5 0.00824857 -0.526933 
13.1676 -25.9205 15.4733 0 0 1.5 0.0072718 -0.601875 
13.1642 -26.2753 15.4596 0 0 1.5 0.00653262 -0.662717 
13.1609 -26.63 15.4458 0 0 1.5 0.00574398 -0.677597 
13.1576 -26.9847 15.4321 0 0 1.5 0.00563333 -0.627734 
13.1543 -27.3395 15.4183 0 0 1.5 0.00564664 -0.557315 
13.1509 -27.6942 15.4046 0 0 1.5 0.00573247 -0.482357 
13.1476 -28.0489 15.3909 0 0 1.5 0.00595942 -0.356708 
13.1443 -28.4037 15.3771 0 0 1.5 0.0060478 -0.310477 
13.141 -28.7584 15.3634 0 0 1.5 0.00609934 -0.273647 
13.1376 -29.1131 15.3496 0 0 1.5 0.0060666 -0.223353 
13.1343 -29.4679 15.3359 0 0 1.5 0.0059795 -0.207184 
13.131 -29.8226 15.3221 0 0 1.5 0.00584754 -0.19522 
13.1277 -30.1773 15.3084 0 0 1.5 0.00567419 -0.187 
13.1243 -30.5321 15.2947 0 0 1.5 0.00522021 -0.180909 
13.121 -30.8868 15.2809 0 0 1.5 0.00494977 -0.182163 
13.1177 -31.2415 15.2672 0 0 1.5 0.00465778 -0.186422 
13.1144 -31.5963 15.2534 0 0 1.5 0.00434923 -0.194326 
13.111 -31.951 15.2397 0 0 1.5 0.00370374 -0.22224 
13.1077 -32.3057 15.2259 0 0 1.5 0.003378 -0.243757 
13.1044 -32.6605 15.2122 0 0 1.5 0.00305702 -0.272554 
13.1011 -33.0152 15.1984 0 0 1.5 0.00274603 -0.310135 
13.0977 -33.3699 15.1847 0 0 1.5 0.00217813 -0.417701 
13.0944 -33.7247 15.171 0 0 1.5 0.00193397 -0.490845 
13.0911 -34.0794 15.1572 0 0 1.5 0.00172581 -0.573271 
13.0877 -34.4341 15.1435 0 0 1.5 0.00144862 -0.709214 
13.0844 -34.7889 15.1297 0 0 1.5 0.00138957 -0.723319 
13.0811 -35.1436 15.116 0 0 1.5 0.00138204 -0.687808 
13.0778 -35.4983 15.1022 0 0 1.5 0.00141787 -0.615103 
13.0744 -35.8531 15.0885 0 0 1.5 0.00157402 -0.444345 
13.0711 -36.2078 15.0748 0 0 1.5 0.00167394 -0.371338 
13.0678 -36.5625 15.061 0 0 1.5 0.00177858 -0.310486 
13.0645 -36.9173 15.0473 0 0 1.5 0.00188319 -0.261189 
13.0611 -37.272 15.0335 0 0 1.5 0.00208128 -0.189986 
13.0578 -37.6267 15.0198 0 0 1.5 0.00217191 -0.163837 
13.0545 -37.9815 15.006 0 0 1.5 0.00225614 -0.142248 
13.0512 -38.3362 14.9923 0 0 1.5 0.00240517 -0.10942 
13.0478 -38.6909 14.9785 0 0 1.5 0.00247055 -0.0965535 
13.0445 -39.0457 14.9648 0 0 1.5 0.00253049 -0.0855134 
13.0412 -39.4004 14.9511 0 0 1.5 0.00258543 -0.0761192 
13.0379 -39.7551 14.9373 0 0 1.5 0.00268239 -0.0610435 
13.0345 -40.1099 14.9236 0 0 1.5 0.00272558 -0.0550158 
13.0312 -40.4646 14.9098 0 0 1.5 0.00276589 -0.0499221 
13.0279 -40.8194 14.8961 0 0 1.5 0.00280374 -0.0456416 
13.0246 -41.1741 14.8823 0 0 1.5 0.00287393 -0.039161 
13.0212 -41.5288 14.8686 0 0 1.5 0.00290711 -0.0368567 
13.0179 -41.8836 14.8549 0 0 1.5 0.00293952 -0.0351089 
0 1 0 
1 2 0 
2 3 0 
3 4 0 
4 5 0 
5 6 0 
6 7 0 
7 8 0 
8 9 0 
9 10 0 
10 11 0 
11 12 0 
12 13 0 
13 14 0 
14 15 0 
15 16 0 
16 17 0 
17 18 0 
18 19 0 
19 20 0 
20 21 0 
21 22 0 
22 23 0 
23 24 0 
24 25 0 
25 26 0 
26 27 0 
27 28 0 
28 29 0 
29 30 0 
30 31 0 
31 32 0 
32 33 0 
33 34 0 
34 35 0 
35 36 0 
36 37 0 
37 38 0 
38 39 0 
39 40 0 
40 41 0 
41 42 0 
42 43 0 
43 44 0 
44 45 0 
45 46 0 
46 47 0 
47 48 0 
48 49 0 
49 50 0 
50 51 0 
51 52 0 
52 53 0 
53 54 0 
54 55 0 
55 56 0 
56 57 0 
57 58 0 
58 59 0 
59 60 0 
60 61 0 
61 62 0 
62 63 0 
63 64 0 
64 65 0 
65 66 0 
66 67 0 
67 68 0 
68 69 0 
69 70 0 
70 71 0 
71 72 0 
72 73 0 
73 74 0 
74 75 0 
75 76 0 
76 77 0 
77 78 0 
78 79 0 
79 80 0 
80 81 0 
81 82 0 
82 83 0 
83 84 0 
84 85 0 
85 86 0 
86 87 0 
87 88 0 
88 89 0 
89 90 0 
90 91 0 
91 92 0 
92 93 0 
93 94 0 
94 95 0 
95 96 0 
96 97 0 
97 98 0 
98 99 0 
99 100 0 
100 101 0 
101 102 0 
102 103 0 
103 104 0 
104 105 0 
105 106 0 
106 107 0 
107 108 0 
108 109 0 
109 110 0 
110 111 0 
111 112 0 
112 113 0 
113 114 0 
114 115 0 
115 116 0 
116 117 0 
117 118 0 
118 119 0 
119 120 0 
120 121 0 
121 122 0 
122 123 0 
123 124 0 
124 125 0 
125 126 0 
126 127 0 
127 128 0 
128 129 0 
129 130 0 
130 131 0 
131 132 0 
132 133 0 
133 134 0 
134 135 0 
135 136 0 
136 137 0 
137 138 0 
138 139 0 
139 140 0 
140 141 0 
141 142 0 
142 143 0 
143 144 0 
144 145 0 
145 146 0 
146 147 0 
147 148 0 
148 149 0 
149 150 0 
150 151 0 
151 152 0 
152 153 0 
153 154 0 
154 155 0 
155 156 0 
156 157 0 
157 158 0 
158 159 0 
159 160 0 
160 161 0 
161 162 0 
162 163 0 
163 164 0 
164 165 0 
165 166 0 
166 167 0 
167 168 0 
168 169 0 
169 170 0 
170 171 0 
171 172 0 
172 173 0 
173 174 0 
174 175 0 
175 176 0 
176 177 0 
177 178 0 
178 179 0 
179 180 0 
180 181 0 
181 182 0 
182 183 0 
183 184 0 
184 185 0 
185 186 0 
186 187 0 
187 188 0 
188 189 0 
189 190 0 
190 191 0 
191 192 0 
192 193 0 
193 194 0 
194 195 0 
195 196 0 
196 197 0 
197 198 0 
198 199 0 
199 200 0 
200 201 0 
201 202 0 
202 203 0 
203 204 0 
204 205 0 
205 206 0 
206 207 0 
207 208 0 
208 209 0 
209 210 0 
210 211 0 
211 212 0 
212 213 0 
213 214 0 
214 215 0 
215 216 0 
216 217 0 
217 218 0 
218 219 0 
219 220 0 
220 221 0 
221 222 0 
222 223 0 
223 224 0 
224 225 0 
225 226 0 
226 227 0 
227 228 0 
228 229 0 
229 230 0 
230 231 0 
231 232 0 
232 233 0 
233 234 0 
234 235 0 
235 236 0 
236 237 0 
237 238 0 
238 239 0 
239 240 0 
240 241 0 
241 242 0 
242 243 0 
243 244 0 
244 245 0 
245 246 0 
246 247 0 
247 248 0 
248 249 0 
249 250 0 
250 251 0 
251 252 0 
252 253 0 
253 254 0 
254 255 0 
255 256 0 
256 257 0 
257 258 0 
258 259 0 
259 260 0 
260 261 0 
261 262 0 
262 263 0 
263 264 0 
264 265 0 
265 266 0 
266 267 0 
267 268 0 
268 269 0 
269 270 0 
270 271 0 
271 272 0 
272 273 0 
273 274 0 
274 275 0 
275 276 0 
276 277 0 
277 278 0 
278 279 0 
279 280 0 
280 281 0 
281 282 0 
282 283 0 
283 284 0 
284 285 0 
285 286 0 
286 287 0 
287 288 0 
288 289 0 
289 290 0 
290 291 0 
291 292 0 
292 293 0 
293 294 0 
294 295 0 
295 296 0 
296 297 0 
297 298 0 
298 299 0 
-1 -1 0 
-1 300 0 1 2 3 4 5 6 7 8 9 10 11 12 13 14 15 16 17 18 19 20 21 22 23 24 25 26 27 28 29 30 31 32 33 34 35 36 37 38 39 40 41 42 43 44 45 46 47 48 49 50 51 52 53 54 55 56 57 58 59 60 61 62 63 64 65 66 67 68 69 70 71 72 73 74 75 76 77 78 79 80 81 82 83 84 85 86 87 88 89 90 91 92 93 94 95 96 97 98 99 100 101 102 103 104 105 106 107 108 109 110 111 112 113 114 115 116 117 118 119 120 121 122 123 124 125 126 127 128 129 130 131 132 133 134 135 136 137 138 139 140 141 142 143 144 145 146 147 148 149 150 151 152 153 154 155 156 157 158 159 160 161 162 163 164 165 166 167 168 169 170 171 172 173 174 175 176 177 178 179 180 181 182 183 184 185 186 187 188 189 190 191 192 193 194 195 196 197 198 199 200 201 202 203 204 205 206 207 208 209 210 211 212 213 214 215 216 217 218 219 220 221 222 223 224 225 226 227 228 229 230 231 232 233 234 235 236 237 238 239 240 241 242 243 244 245 246 247 248 249 250 251 252 253 254 255 256 257 258 259 260 261 262 263 264 265 266 267 268 269 270 271 272 273 274 275 276 277 278 279 280 281 282 283 284 285 286 287 288 289 290 291 292 293 294 295 296 297 298 299 
