ply
format ascii 1.0
comment written by koba@oshima.lab
element vertex 300
property float x
property float y
property float z
property int label
property int attribute
property float radius
property float curvature
property float torsion
element edge 300
property int vertex1
property int vertex2
property int label
element vertex_seq 1
property int label
property list int int vertex_indices
end_header
5.90896 25.2216 -12.0741 0 0 1.5 0.0366476 -0.0347768 
5.67272 25.0837 -11.8569 0 0 1.5 0.0357106 -0.0365051 
5.43648 24.9457 -11.6397 0 0 1.5 0.0347698 -0.038844 
5.20024 24.8078 -11.4225 0 0 1.5 0.0338172 -0.0418864 
4.96399 24.6698 -11.2053 0 0 1.5 0.0318469 -0.0505499 
4.72775 24.5318 -10.9881 0 0 1.5 0.0308138 -0.0564738 
4.49151 24.3939 -10.7709 0 0 1.5 0.0297386 -0.0637686 
4.25527 24.2559 -10.5538 0 0 1.5 0.0286146 -0.0727674 
4.01903 24.118 -10.3366 0 0 1.5 0.0261963 -0.0974136 
3.78278 23.98 -10.1194 0 0 1.5 0.0248911 -0.114426 
3.54654 23.842 -9.9022 0 0 1.5 0.0235182 -0.136055 
3.3103 23.7041 -9.68502 0 0 1.5 0.0220793 -0.163748 
3.07406 23.5661 -9.46783 0 0 1.5 0.019035 -0.247117 
2.83782 23.4281 -9.25065 0 0 1.5 0.0174706 -0.310846 
2.60158 23.2902 -9.03346 0 0 1.5 0.015935 -0.395888 
2.36533 23.1522 -8.81628 0 0 1.5 0.0133159 -0.637021 
2.12909 23.0143 -8.59909 0 0 1.5 0.0125394 -0.764 
1.89285 22.8763 -8.38191 0 0 1.5 0.012391 -0.83403 
1.65661 22.7383 -8.16472 0 0 1.5 0.0130359 -0.805213 
1.42037 22.6004 -7.94754 0 0 1.5 0.016737 -0.565022 
1.18413 22.4624 -7.73035 0 0 1.5 0.0195915 -0.446624 
0.947883 22.3244 -7.51317 0 0 1.5 0.0229622 -0.353523 
0.711642 22.1865 -7.29598 0 0 1.5 0.0267662 -0.28431 
0.4754 22.0485 -7.0788 0 0 1.5 0.0354753 -0.196442 
0.239158 21.9106 -6.86161 0 0 1.5 0.0403174 -0.168718 
0.00291614 21.7726 -6.64442 0 0 1.5 0.0454543 -0.147983 
-0.233326 21.6346 -6.42724 0 0 1.5 0.0565549 -0.120393 
-0.469567 21.4967 -6.21005 0 0 1.5 0.0624853 -0.110918 
-0.705809 21.3587 -5.99287 0 0 1.5 0.0686395 -0.103509 
-0.942051 21.2208 -5.77568 0 0 1.5 0.0749924 -0.0978037 
-1.17829 21.0828 -5.5585 0 0 1.5 0.0881718 -0.0895156 
-1.41453 20.9448 -5.34131 0 0 1.5 0.0949189 -0.0864963 
-1.65078 20.8069 -5.12413 0 0 1.5 0.101706 -0.0841565 
-1.88702 20.6689 -4.90694 0 0 1.5 0.108477 -0.0821741 
-2.12326 20.5309 -4.68976 0 0 1.5 0.121717 -0.0785258 
-2.3595 20.393 -4.47257 0 0 1.5 0.12804 -0.0769164 
-2.59574 20.255 -4.25539 0 0 1.5 0.134059 -0.0751949 
-2.82319 20.0325 -4.11145 0 0 1.5 0.139702 -0.0731095 
-3.03868 19.7837 -4.00483 0 0 1.5 0.149569 -0.067951 
-3.2417 19.5077 -3.93687 0 0 1.5 0.153652 -0.0647176 
-3.42204 19.209 -3.92375 0 0 1.5 0.157101 -0.0607974 
-3.59656 18.907 -3.92566 0 0 1.5 0.161962 -0.0508777 
-3.76276 18.6007 -3.94919 0 0 1.5 0.163338 -0.0448469 
-3.9271 18.2949 -3.98705 0 0 1.5 0.164019 -0.0380541 
-4.09103 17.9896 -4.03068 0 0 1.5 0.16403 -0.0304581 
-4.26163 17.6895 -4.08425 0 0 1.5 0.162207 -0.0127992 
-4.43747 17.3931 -4.1403 0 0 1.5 0.160482 -0.00288988 
-4.62226 17.1029 -4.20057 0 0 1.5 0.158304 0.00779975 
-4.82071 16.8234 -4.26719 0 0 1.5 0.15575 0.0193612 
-5.02724 16.5513 -4.3389 0 0 1.5 0.149834 0.0440161 
-5.24823 16.2941 -4.42284 0 0 1.5 0.146644 0.0569317 
-5.47797 16.0518 -4.52429 0 0 1.5 0.143412 0.0703446 
-5.71183 15.8212 -4.64186 0 0 1.5 0.13716 0.0971572 
-5.94715 15.6051 -4.78306 0 0 1.5 0.134294 0.110126 
-6.17397 15.4022 -4.95406 0 0 1.5 0.131699 0.122725 
-6.3915 15.2052 -5.14261 0 0 1.5 0.129439 0.134486 
-6.59799 15.0132 -5.34877 0 0 1.5 0.126133 0.153903 
-6.78353 14.8226 -5.575 0 0 1.5 0.125165 0.161319 
-6.95948 14.6308 -5.80759 0 0 1.5 0.124683 0.166904 
-7.12052 14.4364 -6.04904 0 0 1.5 0.124692 0.170486 
-7.26732 14.2372 -6.29535 0 0 1.5 0.126115 0.172213 
-7.40745 14.0358 -6.54394 0 0 1.5 0.127462 0.170809 
-7.5288 13.8264 -6.79579 0 0 1.5 0.129173 0.168255 
-7.64558 13.6151 -7.04813 0 0 1.5 0.133448 0.160936 
-7.74551 13.397 -7.30197 0 0 1.5 0.13588 0.15683 
-7.83638 13.1759 -7.55639 0 0 1.5 0.138422 0.152842 
-7.91279 12.9501 -7.81174 0 0 1.5 0.141007 0.149167 
-7.97164 12.7205 -8.06793 0 0 1.5 0.146072 0.143446 
-8.01911 12.4885 -8.32465 0 0 1.5 0.14846 0.141701 
-8.03569 12.2529 -8.58173 0 0 1.5 0.150717 0.140806 
-8.04071 12.0167 -8.83852 0 0 1.5 0.152827 0.140835 
-8.00999 11.7799 -9.09347 0 0 1.5 0.156651 0.143792 
-7.95749 11.5448 -9.34538 0 0 1.5 0.158453 0.1467 
-7.88115 11.3116 -9.59397 0 0 1.5 0.160267 0.150564 
-7.7697 11.0842 -9.83389 0 0 1.5 0.162178 0.155266 
-7.64599 10.8591 -10.0703 0 0 1.5 0.16678 0.166478 
-7.48832 10.642 -10.294 0 0 1.5 0.169746 0.172754 
-7.32085 10.4276 -10.5124 0 0 1.5 0.173355 0.179125 
-7.13358 10.2184 -10.7202 0 0 1.5 0.18319 0.190836 
-6.93511 10.0116 -10.9194 0 0 1.5 0.189748 0.195853 
-6.7254 9.80742 -11.11 0 0 1.5 0.197606 0.200015 
-6.5051 9.60414 -11.2889 0 0 1.5 0.206901 0.203114 
-6.27795 9.40148 -11.4602 0 0 1.5 0.230179 0.206477 
-6.04098 9.19753 -11.6154 0 0 1.5 0.244233 0.20703 
-5.79945 8.99297 -11.7632 0 0 1.5 0.259858 0.20697 
-5.54828 8.78486 -11.8874 0 0 1.5 0.276928 0.206462 
-5.29418 8.57566 -12.0043 0 0 1.5 0.314297 0.204664 
-5.03055 8.36098 -12.0834 0 0 1.5 0.333687 0.203498 
-4.76511 8.14497 -12.1505 0 0 1.5 0.352668 0.202174 
-4.49484 7.92447 -12.169 0 0 1.5 0.38576 0.199014 
-4.22733 7.70362 -12.1505 0 0 1.5 0.397868 0.197013 
-3.96264 7.4825 -12.0956 0 0 1.5 0.40575 0.194587 
-3.72282 7.26948 -11.9573 0 0 1.5 0.408652 0.191727 
-3.5132 7.06797 -11.7697 0 0 1.5 0.398174 0.18522 
-3.34159 6.88058 -11.5338 0 0 1.5 0.385192 0.181812 
-3.22179 6.71194 -11.2524 0 0 1.5 0.367884 0.178576 
-3.17406 6.56553 -10.9397 0 0 1.5 0.347167 0.17589 
-3.17246 6.4298 -10.6201 0 0 1.5 0.299678 0.173286 
-3.2107 6.30204 -10.2978 0 0 1.5 0.274791 0.173865 
-3.3025 6.17934 -9.98391 0 0 1.5 0.250133 0.176229 
-3.41969 6.05377 -9.68059 0 0 1.5 0.203565 0.187787 
-3.55454 5.92587 -9.3849 0 0 1.5 0.182289 0.197689 
-3.71258 5.78499 -9.10706 0 0 1.5 0.162574 0.211202 
-3.87328 5.63562 -8.83556 0 0 1.5 0.144497 0.229126 
-4.03767 5.47448 -8.57284 0 0 1.5 0.113393 0.280702 
-4.19469 5.29377 -8.31874 0 0 1.5 0.100399 0.315639 
-4.34627 5.10369 -8.06826 0 0 1.5 0.0891418 0.35693 
-4.47946 4.89166 -7.82472 0 0 1.5 0.079673 0.402477 
-4.59723 4.66687 -7.58546 0 0 1.5 0.066367 0.48439 
-4.7014 4.43082 -7.34999 0 0 1.5 0.0625934 0.505134 
-4.77955 4.1776 -7.1227 0 0 1.5 0.0606554 0.503434 
-4.84933 3.91913 -6.89866 0 0 1.5 0.0603498 0.479597 
-4.90148 3.65 -6.68218 0 0 1.5 0.0634049 0.396161 
-4.94634 3.3758 -6.47071 0 0 1.5 0.0661226 0.351817 
-4.9847 3.09709 -6.26368 0 0 1.5 0.0692554 0.311537 
-5.01913 2.81333 -6.06296 0 0 1.5 0.0759252 0.249169 
-5.05248 2.52818 -5.86399 0 0 1.5 0.07917 0.226542 
-5.08699 2.23894 -5.67122 0 0 1.5 0.0822142 0.208457 
-5.12224 1.9492 -5.47934 0 0 1.5 0.0849809 0.194328 
-5.16043 1.6575 -5.29103 0 0 1.5 0.0894979 0.175541 
-5.19957 1.3652 -5.10384 0 0 1.5 0.0911908 0.169683 
-5.24021 1.07196 -4.91845 0 0 1.5 0.0924854 0.165759 
-5.2797 0.777908 -4.73409 0 0 1.5 0.0933829 0.163568 
-5.31835 0.483263 -4.5505 0 0 1.5 0.0940382 0.163255 
-5.35025 0.187174 -4.36799 0 0 1.5 0.0938414 0.164825 
-5.38016 -0.10934 -4.18578 0 0 1.5 0.0933399 0.167462 
-5.39376 -0.408219 -4.00551 0 0 1.5 0.0916006 0.175149 
-5.40158 -0.707658 -3.82611 0 0 1.5 0.0904628 0.179905 
-5.39167 -1.0088 -3.6494 0 0 1.5 0.0892178 0.185125 
-5.36743 -1.31056 -3.47573 0 0 1.5 0.0879221 0.190549 
-5.32966 -1.61292 -3.30494 0 0 1.5 0.0854073 0.20082 
-5.26918 -1.9149 -3.14056 0 0 1.5 0.0842997 0.205057 
-5.20106 -2.21664 -2.97847 0 0 1.5 0.0833618 0.208195 
-5.10943 -2.51658 -2.82466 0 0 1.5 0.0826409 0.209842 
-5.01129 -2.81562 -2.67348 0 0 1.5 0.0820027 0.20751 
-4.89983 -3.11282 -2.52767 0 0 1.5 0.0821393 0.20315 
-4.78084 -3.40842 -2.38477 0 0 1.5 0.0826005 0.196564 
-4.65578 -3.70273 -2.24423 0 0 1.5 0.0833893 0.187939 
-4.52461 -3.99479 -2.1046 0 0 1.5 0.0858958 0.165851 
-4.39136 -4.28608 -1.96529 0 0 1.5 0.0875666 0.152997 
-4.25417 -4.57401 -1.82287 0 0 1.5 0.0894736 0.139541 
-4.11643 -4.86127 -1.67963 0 0 1.5 0.0938226 0.112457 
-3.97631 -5.14348 -1.52884 0 0 1.5 0.0961708 0.0991882 
-3.83553 -5.42386 -1.37541 0 0 1.5 0.0985696 0.0864695 
-3.69241 -5.69769 -1.21247 0 0 1.5 0.100967 0.0745563 
-3.54717 -5.9667 -1.04378 0 0 1.5 0.105546 0.0529998 
-3.3985 -6.22791 -0.865804 0 0 1.5 0.107626 0.0434469 
-3.24423 -6.47888 -0.67856 0 0 1.5 0.109505 0.0348828 
-3.08577 -6.72221 -0.4844 0 0 1.5 0.111141 0.027198 
-2.91529 -6.94634 -0.278128 0 0 1.5 0.113531 0.014162 
-2.74038 -7.16353 -0.0680061 0 0 1.5 0.114224 0.00881466 
-2.54696 -7.3528 0.15286 0 0 1.5 0.114552 0.00417817 
-2.34473 -7.52859 0.375992 0 0 1.5 0.11405 -0.00314815 
-2.12835 -7.68278 0.602753 0 0 1.5 0.113214 -0.0058519 
-1.89543 -7.80998 0.829034 0 0 1.5 0.111998 -0.00792934 
-1.65475 -7.92427 1.05466 0 0 1.5 0.110416 -0.00937917 
-1.39637 -8.00669 1.2748 0 0 1.5 0.10624 -0.0106651 
-1.13213 -8.07721 1.4915 0 0 1.5 0.103711 -0.0105222 
-0.85991 -8.13151 1.70354 0 0 1.5 0.100933 -0.00979074 
-0.581537 -8.1716 1.91048 0 0 1.5 0.0979436 -0.00855731 
-0.300913 -8.20642 2.11553 0 0 1.5 0.0914822 -0.00478961 
-0.0168536 -8.23145 2.31726 0 0 1.5 0.0880856 -0.0021132 
0.267207 -8.25554 2.5191 0 0 1.5 0.0846251 0.00103791 
0.551269 -8.27752 2.72119 0 0 1.5 0.077625 0.00854222 
0.834039 -8.30011 2.925 0 0 1.5 0.0741368 0.013032 
1.1158 -8.32319 3.13017 0 0 1.5 0.070686 0.0179754 
1.39497 -8.348 3.33864 0 0 1.5 0.0672841 0.0232961 
1.67338 -8.37323 3.54806 0 0 1.5 0.0606612 0.0353091 
1.94929 -8.39885 3.76074 0 0 1.5 0.0574545 0.042056 
2.22486 -8.42366 3.97394 0 0 1.5 0.0543159 0.0493027 
2.49964 -8.44657 4.18838 0 0 1.5 0.0512399 0.0571707 
2.77472 -8.46628 4.40274 0 0 1.5 0.0452555 0.0754831 
3.05004 -8.48328 4.61703 0 0 1.5 0.0423298 0.0865235 
3.3266 -8.49396 4.83011 0 0 1.5 0.0394322 0.0994671 
3.60356 -8.50251 5.04278 0 0 1.5 0.0365522 0.115077 
3.8819 -8.50289 5.25383 0 0 1.5 0.0308078 0.159674 
4.16035 -8.50077 5.46469 0 0 1.5 0.0279287 0.193341 
4.43903 -8.49352 5.67515 0 0 1.5 0.0250458 0.240116 
4.71693 -8.48274 5.88648 0 0 1.5 0.0193681 0.407365 
4.99434 -8.46971 6.09836 0 0 1.5 0.0167169 0.556589 
5.26908 -8.45314 6.31342 0 0 1.5 0.0144132 0.768231 
5.54268 -8.43567 6.52984 0 0 1.5 0.0127995 1.00701 
5.81299 -8.4162 6.75023 0 0 1.5 0.0134145 0.998799 
6.08101 -8.39545 6.97324 0 0 1.5 0.0159002 0.749186 
6.34684 -8.37346 7.19876 0 0 1.5 0.0194825 0.528138 
6.60934 -8.34889 7.42789 0 0 1.5 0.0238713 0.37318 
6.87074 -8.32332 7.65816 0 0 1.5 0.0344525 0.202997 
7.12915 -8.29389 7.89134 0 0 1.5 0.040517 0.156468 
7.38666 -8.26289 8.12529 0 0 1.5 0.0470623 0.12343 
7.64251 -8.22896 8.36067 0 0 1.5 0.0615753 0.0812893 
7.89724 -8.1933 8.597 0 0 1.5 0.0695541 0.0674084 
8.15113 -8.15636 8.83403 0 0 1.5 0.078017 0.0564644 
8.40391 -8.11994 9.07233 0 0 1.5 0.0869604 0.0476715 
8.65636 -8.08368 9.31102 0 0 1.5 0.106248 0.0344799 
8.90776 -8.05381 9.55168 0 0 1.5 0.116537 0.0294193 
9.15896 -8.02591 9.79274 0 0 1.5 0.127186 0.0250651 
9.40905 -8.01183 10.0362 0 0 1.5 0.138114 0.0212424 
9.65846 -8.00506 10.2804 0 0 1.5 0.160345 0.0149314 
9.9061 -8.01696 10.5264 0 0 1.5 0.171334 0.0122852 
10.1507 -8.04829 10.7731 0 0 1.5 0.181968 0.00986113 
10.3923 -8.09834 11.0203 0 0 1.5 0.201186 0.00575035 
10.6233 -8.18837 11.2656 0 0 1.5 0.209245 0.00403126 
10.8477 -8.29765 11.5088 0 0 1.5 0.215909 0.00247752 
11.0518 -8.455 11.7445 0 0 1.5 0.220928 0.00112455 
11.2356 -8.64472 11.9706 0 0 1.5 0.225354 -0.000879439 
11.4041 -8.85853 12.1895 0 0 1.5 0.224574 -0.00156708 
11.5298 -9.11836 12.3861 0 0 1.5 0.221796 -0.00203465 
11.6387 -9.39066 12.5737 0 0 1.5 0.217138 -0.00226097 
11.721 -9.68258 12.747 0 0 1.5 0.202958 -0.00198355 
11.7764 -9.98785 12.9061 0 0 1.5 0.193909 -0.00148821 
11.8208 -10.2985 13.0594 0 0 1.5 0.183918 -0.000765885 
11.8363 -10.6185 13.1984 0 0 1.5 0.17326 0.000216086 
11.8472 -10.9395 13.3355 0 0 1.5 0.15089 0.00309403 
11.8394 -11.264 13.4645 0 0 1.5 0.139579 0.00498809 
11.827 -11.5889 13.5919 0 0 1.5 0.1284 0.00728541 
11.8042 -11.9147 13.7158 0 0 1.5 0.106878 0.0135823 
11.7774 -12.2405 13.8388 0 0 1.5 0.0966845 0.0178027 
11.7456 -12.5663 13.9608 0 0 1.5 0.0869344 0.0230703 
11.7116 -12.8919 14.0827 0 0 1.5 0.0776564 0.0297936 
11.6761 -13.2172 14.2047 0 0 1.5 0.0605753 0.0496997 
11.6408 -13.5423 14.3276 0 0 1.5 0.0527824 0.0647498 
11.6056 -13.8673 14.4507 0 0 1.5 0.045496 0.0854134 
11.5738 -14.1922 14.5749 0 0 1.5 0.0387262 0.114574 
11.5431 -14.5172 14.6992 0 0 1.5 0.0267919 0.220992 
11.5174 -14.8424 14.824 0 0 1.5 0.0217136 0.319565 
11.4943 -15.1679 14.9488 0 0 1.5 0.01736 0.471528 
11.4757 -15.4937 15.0733 0 0 1.5 0.0116968 0.905719 
11.4614 -15.82 15.1971 0 0 1.5 0.0109327 0.956085 
11.4501 -16.1467 15.3202 0 0 1.5 0.0115011 0.790145 
11.4443 -16.4742 15.4415 0 0 1.5 0.0129017 0.570026 
11.44 -16.802 15.5621 0 0 1.5 0.0164336 0.281144 
11.4408 -17.1308 15.6801 0 0 1.5 0.0180922 0.204063 
11.4428 -17.46 15.7969 0 0 1.5 0.0195417 0.15229 
11.4476 -17.79 15.9111 0 0 1.5 0.0207421 0.116252 
11.4538 -18.1207 16.0233 0 0 1.5 0.022331 0.0708687 
11.4612 -18.4521 16.1334 0 0 1.5 0.022716 0.0560165 
11.4694 -18.7846 16.2403 0 0 1.5 0.0228385 0.0442872 
11.4779 -19.1174 16.3459 0 0 1.5 0.0227114 0.0347741 
11.4864 -19.4503 16.4514 0 0 1.5 0.0217746 0.0199321 
11.4949 -19.7832 16.5569 0 0 1.5 0.0210057 0.0138117 
11.5034 -20.1161 16.6624 0 0 1.5 0.0200667 0.00823509 
11.5119 -20.4489 16.768 0 0 1.5 0.0177762 -0.00246256 
11.5205 -20.7818 16.8735 0 0 1.5 0.0164739 -0.00805374 
11.529 -21.1147 16.979 0 0 1.5 0.0151011 -0.0140373 
11.5375 -21.4476 17.0845 0 0 1.5 0.0136833 -0.0208707 
11.546 -21.7804 17.1901 0 0 1.5 0.0107995 -0.0398344 
11.5545 -22.1133 17.2956 0 0 1.5 0.00937706 -0.053704 
11.563 -22.4462 17.4011 0 0 1.5 0.00799688 -0.0729779 
11.5715 -22.7791 17.5066 0 0 1.5 0.00667809 -0.101541 
11.58 -23.1119 17.6122 0 0 1.5 0.00431884 -0.217198 
11.5885 -23.4448 17.7177 0 0 1.5 0.00335059 -0.334409 
11.597 -23.7777 17.8232 0 0 1.5 0.00260686 -0.507861 
11.6055 -24.1106 17.9287 0 0 1.5 0.00216909 -0.604089 
11.614 -24.4434 18.0343 0 0 1.5 0.00244465 -0.426939 
11.6226 -24.7763 18.1398 0 0 1.5 0.00285447 -0.28018 
11.6311 -25.1092 18.2453 0 0 1.5 0.00328899 -0.188131 
11.6396 -25.4421 18.3508 0 0 1.5 0.00404507 -0.0977732 
11.6481 -25.7749 18.4563 0 0 1.5 0.00433163 -0.0753826 
11.6566 -26.1078 18.5619 0 0 1.5 0.00455065 -0.0602818 
11.6651 -26.4407 18.6674 0 0 1.5 0.00470213 -0.0497267 
11.6736 -26.7736 18.7729 0 0 1.5 0.00481257 -0.0367837 
11.6821 -27.1064 18.8784 0 0 1.5 0.00478058 -0.0328376 
11.6906 -27.4393 18.984 0 0 1.5 0.00469737 -0.0299563 
11.6991 -27.7722 19.0895 0 0 1.5 0.00439946 -0.0266015 
11.7076 -28.1051 19.195 0 0 1.5 0.00419617 -0.025886 
11.7161 -28.4379 19.3005 0 0 1.5 0.00396436 -0.0257018 
11.7247 -28.7708 19.4061 0 0 1.5 0.00370967 -0.0260615 
11.7332 -29.1037 19.5116 0 0 1.5 0.00315125 -0.0287251 
11.7417 -29.4366 19.6171 0 0 1.5 0.00285714 -0.0312462 
11.7502 -29.7694 19.7226 0 0 1.5 0.00255932 -0.0349034 
11.7587 -30.1023 19.8282 0 0 1.5 0.00226146 -0.0402251 
11.7672 -30.4352 19.9337 0 0 1.5 0.00168013 -0.0594817 
11.7757 -30.7681 20.0392 0 0 1.5 0.00140439 -0.077204 
11.7842 -31.1009 20.1447 0 0 1.5 0.00114363 -0.106068 
11.7927 -31.4338 20.2503 0 0 1.5 0.000902988 -0.15556 
11.8012 -31.7667 20.3558 0 0 1.5 0.000525363 0 
11.8097 -32.0995 20.4613 0 0 1.5 0.000434374 0 
11.8182 -32.4324 20.5668 0 0 1.5 0.000442186 0 
11.8268 -32.7653 20.6723 0 0 1.5 0.000644627 0 
11.8353 -33.0982 20.7779 0 0 1.5 0.000770897 -0.126332 
11.8438 -33.431 20.8834 0 0 1.5 0.000893987 -0.088398 
11.8523 -33.7639 20.9889 0 0 1.5 0.00100897 -0.0653622 
11.8608 -34.0968 21.0944 0 0 1.5 0.00120766 -0.0406869 
11.8693 -34.4297 21.2 0 0 1.5 0.00129095 -0.0336881 
11.8778 -34.7625 21.3055 0 0 1.5 0.00136405 -0.0285128 
11.8863 -35.0954 21.411 0 0 1.5 0.00142763 -0.0245763 
11.8948 -35.4283 21.5165 0 0 1.5 0.00152944 -0.0190714 
11.9033 -35.7612 21.6221 0 0 1.5 0.00156945 -0.0170304 
11.9118 -36.094 21.7276 0 0 1.5 0.00160341 -0.0153069 
11.9203 -36.4269 21.8331 0 0 1.5 0.00165626 -0.0125757 
11.9289 -36.7598 21.9386 0 0 1.5 0.00167668 -0.0114415 
11.9374 -37.0927 22.0442 0 0 1.5 0.00169407 -0.0104291 
11.9459 -37.4255 22.1497 0 0 1.5 0.00170894 -0.00953732 
11.9544 -37.7584 22.2552 0 0 1.5 0.00173298 -0.00803101 
11.9629 -38.0913 22.3607 0 0 1.5 0.00174302 -0.00739896 
11.9714 -38.4242 22.4663 0 0 1.5 0.00175214 -0.0068534 
11.9799 -38.757 22.5718 0 0 1.5 0.00176051 -0.00638787 
11.9884 -39.0899 22.6773 0 0 1.5 0.00177582 -0.005679 
11.9969 -39.4228 22.7828 0 0 1.5 0.00178304 -0.00543412 
12.0054 -39.7557 22.8883 0 0 1.5 0.00179009 -0.00526002 
0 1 0 
1 2 0 
2 3 0 
3 4 0 
4 5 0 
5 6 0 
6 7 0 
7 8 0 
8 9 0 
9 10 0 
10 11 0 
11 12 0 
12 13 0 
13 14 0 
14 15 0 
15 16 0 
16 17 0 
17 18 0 
18 19 0 
19 20 0 
20 21 0 
21 22 0 
22 23 0 
23 24 0 
24 25 0 
25 26 0 
26 27 0 
27 28 0 
28 29 0 
29 30 0 
30 31 0 
31 32 0 
32 33 0 
33 34 0 
34 35 0 
35 36 0 
36 37 0 
37 38 0 
38 39 0 
39 40 0 
40 41 0 
41 42 0 
42 43 0 
43 44 0 
44 45 0 
45 46 0 
46 47 0 
47 48 0 
48 49 0 
49 50 0 
50 51 0 
51 52 0 
52 53 0 
53 54 0 
54 55 0 
55 56 0 
56 57 0 
57 58 0 
58 59 0 
59 60 0 
60 61 0 
61 62 0 
62 63 0 
63 64 0 
64 65 0 
65 66 0 
66 67 0 
67 68 0 
68 69 0 
69 70 0 
70 71 0 
71 72 0 
72 73 0 
73 74 0 
74 75 0 
75 76 0 
76 77 0 
77 78 0 
78 79 0 
79 80 0 
80 81 0 
81 82 0 
82 83 0 
83 84 0 
84 85 0 
85 86 0 
86 87 0 
87 88 0 
88 89 0 
89 90 0 
90 91 0 
91 92 0 
92 93 0 
93 94 0 
94 95 0 
95 96 0 
96 97 0 
97 98 0 
98 99 0 
99 100 0 
100 101 0 
101 102 0 
102 103 0 
103 104 0 
104 105 0 
105 106 0 
106 107 0 
107 108 0 
108 109 0 
109 110 0 
110 111 0 
111 112 0 
112 113 0 
113 114 0 
114 115 0 
115 116 0 
116 117 0 
117 118 0 
118 119 0 
119 120 0 
120 121 0 
121 122 0 
122 123 0 
123 124 0 
124 125 0 
125 126 0 
126 127 0 
127 128 0 
128 129 0 
129 130 0 
130 131 0 
131 132 0 
132 133 0 
133 134 0 
134 135 0 
135 136 0 
136 137 0 
137 138 0 
138 139 0 
139 140 0 
140 141 0 
141 142 0 
142 143 0 
143 144 0 
144 145 0 
145 146 0 
146 147 0 
147 148 0 
148 149 0 
149 150 0 
150 151 0 
151 152 0 
152 153 0 
153 154 0 
154 155 0 
155 156 0 
156 157 0 
157 158 0 
158 159 0 
159 160 0 
160 161 0 
161 162 0 
162 163 0 
163 164 0 
164 165 0 
165 166 0 
166 167 0 
167 168 0 
168 169 0 
169 170 0 
170 171 0 
171 172 0 
172 173 0 
173 174 0 
174 175 0 
175 176 0 
176 177 0 
177 178 0 
178 179 0 
179 180 0 
180 181 0 
181 182 0 
182 183 0 
183 184 0 
184 185 0 
185 186 0 
186 187 0 
187 188 0 
188 189 0 
189 190 0 
190 191 0 
191 192 0 
192 193 0 
193 194 0 
194 195 0 
195 196 0 
196 197 0 
197 198 0 
198 199 0 
199 200 0 
200 201 0 
201 202 0 
202 203 0 
203 204 0 
204 205 0 
205 206 0 
206 207 0 
207 208 0 
208 209 0 
209 210 0 
210 211 0 
211 212 0 
212 213 0 
213 214 0 
214 215 0 
215 216 0 
216 217 0 
217 218 0 
218 219 0 
219 220 0 
220 221 0 
221 222 0 
222 223 0 
223 224 0 
224 225 0 
225 226 0 
226 227 0 
227 228 0 
228 229 0 
229 230 0 
230 231 0 
231 232 0 
232 233 0 
233 234 0 
234 235 0 
235 236 0 
236 237 0 
237 238 0 
238 239 0 
239 240 0 
240 241 0 
241 242 0 
242 243 0 
243 244 0 
244 245 0 
245 246 0 
246 247 0 
247 248 0 
248 249 0 
249 250 0 
250 251 0 
251 252 0 
252 253 0 
253 254 0 
254 255 0 
255 256 0 
256 257 0 
257 258 0 
258 259 0 
259 260 0 
260 261 0 
261 262 0 
262 263 0 
263 264 0 
264 265 0 
265 266 0 
266 267 0 
267 268 0 
268 269 0 
269 270 0 
270 271 0 
271 272 0 
272 273 0 
273 274 0 
274 275 0 
275 276 0 
276 277 0 
277 278 0 
278 279 0 
279 280 0 
280 281 0 
281 282 0 
282 283 0 
283 284 0 
284 285 0 
285 286 0 
286 287 0 
287 288 0 
288 289 0 
289 290 0 
290 291 0 
291 292 0 
292 293 0 
293 294 0 
294 295 0 
295 296 0 
296 297 0 
297 298 0 
298 299 0 
-1 -1 0 
-1 300 0 1 2 3 4 5 6 7 8 9 10 11 12 13 14 15 16 17 18 19 20 21 22 23 24 25 26 27 28 29 30 31 32 33 34 35 36 37 38 39 40 41 42 43 44 45 46 47 48 49 50 51 52 53 54 55 56 57 58 59 60 61 62 63 64 65 66 67 68 69 70 71 72 73 74 75 76 77 78 79 80 81 82 83 84 85 86 87 88 89 90 91 92 93 94 95 96 97 98 99 100 101 102 103 104 105 106 107 108 109 110 111 112 113 114 115 116 117 118 119 120 121 122 123 124 125 126 127 128 129 130 131 132 133 134 135 136 137 138 139 140 141 142 143 144 145 146 147 148 149 150 151 152 153 154 155 156 157 158 159 160 161 162 163 164 165 166 167 168 169 170 171 172 173 174 175 176 177 178 179 180 181 182 183 184 185 186 187 188 189 190 191 192 193 194 195 196 197 198 199 200 201 202 203 204 205 206 207 208 209 210 211 212 213 214 215 216 217 218 219 220 221 222 223 224 225 226 227 228 229 230 231 232 233 234 235 236 237 238 239 240 241 242 243 244 245 246 247 248 249 250 251 252 253 254 255 256 257 258 259 260 261 262 263 264 265 266 267 268 269 270 271 272 273 274 275 276 277 278 279 280 281 282 283 284 285 286 287 288 289 290 291 292 293 294 295 296 297 298 299 
