ply
format ascii 1.0
comment written by koba@oshima.lab
element vertex 300
property float x
property float y
property float z
property int label
property int attribute
property float radius
property float curvature
property float torsion
element edge 300
property int vertex1
property int vertex2
property int label
element vertex_seq 1
property int label
property list int int vertex_indices
end_header
-5.21899 29.5573 -8.309 0 0 1.5 0.0264085 0.0338378 
-5.33655 29.2279 -8.33605 0 0 1.5 0.0256289 0.036391 
-5.4541 28.8985 -8.36309 0 0 1.5 0.0248342 0.0397243 
-5.57165 28.5691 -8.39014 0 0 1.5 0.0240153 0.044019 
-5.68921 28.2397 -8.41719 0 0 1.5 0.0222701 0.0564799 
-5.80676 27.9103 -8.44423 0 0 1.5 0.0213261 0.065317 
-5.92432 27.5809 -8.47128 0 0 1.5 0.0203226 0.0766456 
-6.04187 27.2515 -8.49832 0 0 1.5 0.019252 0.0913698 
-6.15942 26.9221 -8.52537 0 0 1.5 0.0168843 0.136091 
-6.27698 26.5927 -8.55241 0 0 1.5 0.0155801 0.170939 
-6.39453 26.2633 -8.57946 0 0 1.5 0.0141976 0.220208 
-6.51209 25.9339 -8.6065 0 0 1.5 0.0127483 0.291599 
-6.62964 25.6045 -8.63355 0 0 1.5 0.00978895 0.559566 
-6.74719 25.2751 -8.6606 0 0 1.5 0.00844164 0.800021 
-6.86475 24.9457 -8.68764 0 0 1.5 0.00741685 1.10077 
-6.9823 24.6163 -8.71469 0 0 1.5 0.00748167 1.21776 
-7.09986 24.2869 -8.74173 0 0 1.5 0.00881284 0.933998 
-7.21741 23.9575 -8.76878 0 0 1.5 0.0107955 0.663432 
-7.33496 23.6281 -8.79582 0 0 1.5 0.0132148 0.472466 
-7.45252 23.2987 -8.82287 0 0 1.5 0.0188311 0.268048 
-7.57007 22.9693 -8.84992 0 0 1.5 0.0218737 0.214492 
-7.68763 22.64 -8.87696 0 0 1.5 0.0249949 0.177709 
-7.80518 22.3106 -8.90401 0 0 1.5 0.028144 0.152169 
-7.92273 21.9812 -8.93105 0 0 1.5 0.0343429 0.12189 
-8.04029 21.6518 -8.9581 0 0 1.5 0.0372926 0.113188 
-8.15784 21.3224 -8.98514 0 0 1.5 0.0400679 0.107645 
-8.27539 20.993 -9.01219 0 0 1.5 0.0448751 0.104174 
-8.39295 20.6636 -9.03924 0 0 1.5 0.046794 0.10528 
-8.5105 20.3342 -9.06628 0 0 1.5 0.0483126 0.108446 
-8.62806 20.0048 -9.09333 0 0 1.5 0.0493762 0.114085 
-8.74561 19.6754 -9.12037 0 0 1.5 0.0499503 0.133441 
-8.86316 19.346 -9.14742 0 0 1.5 0.0493895 0.148753 
-8.98072 19.0166 -9.17446 0 0 1.5 0.0482288 0.170081 
-9.09827 18.6872 -9.20151 0 0 1.5 0.0464608 0.199397 
-9.21583 18.3578 -9.22855 0 0 1.5 0.0412469 0.297109 
-9.33338 18.0284 -9.2556 0 0 1.5 0.0379654 0.380714 
-9.45093 17.699 -9.28265 0 0 1.5 0.0344675 0.501674 
-9.57438 17.3716 -9.28178 0 0 1.5 0.0311255 0.667812 
-9.70226 17.0457 -9.25991 0 0 1.5 0.0275861 1.01321 
-9.83338 16.7236 -9.21884 0 0 1.5 0.0290876 1.00247 
-9.96823 16.406 -9.15567 0 0 1.5 0.0333593 0.841904 
-10.1052 16.0932 -9.07738 0 0 1.5 0.0487013 0.493087 
-10.2446 15.7859 -8.98154 0 0 1.5 0.0588165 0.38248 
-10.3858 15.4843 -8.8721 0 0 1.5 0.0701115 0.306551 
-10.5284 15.1869 -8.75257 0 0 1.5 0.0823625 0.254905 
-10.6735 14.8956 -8.62178 0 0 1.5 0.109031 0.195599 
-10.8202 14.6062 -8.48841 0 0 1.5 0.123096 0.178725 
-10.9701 14.3187 -8.35455 0 0 1.5 0.137369 0.167355 
-11.1258 14.027 -8.23758 0 0 1.5 0.151591 0.160288 
-11.2881 13.7269 -8.16035 0 0 1.5 0.178687 0.15361 
-11.4527 13.4203 -8.16914 0 0 1.5 0.190903 0.152685 
-11.5999 13.1319 -8.29791 0 0 1.5 0.201755 0.15317 
-11.7156 12.8781 -8.51003 0 0 1.5 0.218062 0.15592 
-11.8074 12.6426 -8.75302 0 0 1.5 0.223046 0.157646 
-11.8843 12.4097 -9.00363 0 0 1.5 0.22573 0.159712 
-11.9504 12.1744 -9.25511 0 0 1.5 0.226101 0.161854 
-12.0049 11.9329 -9.50366 0 0 1.5 0.220493 0.165672 
-12.0446 11.6806 -9.74382 0 0 1.5 0.214999 0.167683 
-12.0769 11.4232 -9.97974 0 0 1.5 0.208117 0.169945 
-12.0884 11.1538 -10.2041 0 0 1.5 0.200203 0.172524 
-12.0866 10.8802 -10.423 0 0 1.5 0.182649 0.179279 
-12.0674 10.6012 -10.6348 0 0 1.5 0.173629 0.183885 
-12.0217 10.321 -10.84 0 0 1.5 0.164849 0.189497 
-11.9645 10.0402 -11.0423 0 0 1.5 0.149102 0.203113 
-11.8662 9.76739 -11.2394 0 0 1.5 0.142645 0.210544 
-11.7574 9.49851 -11.4358 0 0 1.5 0.137499 0.217586 
-11.6119 9.24525 -11.6301 0 0 1.5 0.133958 0.223144 
-11.4505 9.00229 -11.8235 0 0 1.5 0.1329 0.22515 
-11.264 8.7756 -12.0156 0 0 1.5 0.136019 0.219817 
-11.0594 8.56425 -12.2055 0 0 1.5 0.14198 0.210166 
-10.8397 8.36573 -12.3934 0 0 1.5 0.151061 0.197184 
-10.6036 8.18255 -12.5764 0 0 1.5 0.17975 0.166856 
-10.3584 8.00799 -12.7565 0 0 1.5 0.200062 0.151994 
-10.0997 7.84458 -12.9276 0 0 1.5 0.224949 0.138429 
-9.83488 7.68623 -13.0945 0 0 1.5 0.255 0.126572 
-9.55828 7.53312 -13.246 0 0 1.5 0.333549 0.108047 
-9.27735 7.38194 -13.3918 0 0 1.5 0.383639 0.100938 
-8.98466 7.22935 -13.5098 0 0 1.5 0.441811 0.0950528 
-8.68882 7.07574 -13.618 0 0 1.5 0.581844 0.0858535 
-8.38334 6.91398 -13.6778 0 0 1.5 0.660017 0.0815322 
-8.07844 6.74641 -13.6937 0 0 1.5 0.737347 0.0770136 
-7.78006 6.57374 -13.6488 0 0 1.5 0.80568 0.0721351 
-7.50818 6.40166 -13.5093 0 0 1.5 0.875893 0.0600588 
-7.31394 6.25919 -13.2543 0 0 1.5 0.863625 0.0532961 
-7.20048 6.16035 -12.9408 0 0 1.5 0.820203 0.0469552 
-7.14615 6.09901 -12.6029 0 0 1.5 0.7535 0.0414425 
-7.13108 6.06486 -12.2549 0 0 1.5 0.590409 0.0340874 
-7.15973 6.06609 -11.9053 0 0 1.5 0.509983 0.0326039 
-7.206 6.08505 -11.5589 0 0 1.5 0.436237 0.0326412 
-7.26721 6.11907 -11.2151 0 0 1.5 0.313274 0.0377217 
-7.34464 6.17444 -10.8778 0 0 1.5 0.26355 0.0432687 
-7.42607 6.23529 -10.5421 0 0 1.5 0.220567 0.0517306 
-7.51792 6.31667 -10.2134 0 0 1.5 0.18334 0.064517 
-7.61061 6.40206 -9.88616 0 0 1.5 0.122603 0.114134 
-7.70596 6.49997 -9.56309 0 0 1.5 0.0976958 0.164154 
-7.79992 6.60356 -9.24144 0 0 1.5 0.0758531 0.252716 
-7.89246 6.71301 -8.92127 0 0 1.5 0.05711 0.419217 
-7.97832 6.82648 -8.60067 0 0 1.5 0.0342169 1.06422 
-8.06031 6.9403 -8.27919 0 0 1.5 0.0357344 0.941427 
-8.13165 7.05092 -7.95403 0 0 1.5 0.0452716 0.568117 
-8.19361 7.1527 -7.6243 0 0 1.5 0.0743362 0.197229 
-8.24831 7.24704 -7.29097 0 0 1.5 0.0908935 0.125598 
-8.28712 7.31591 -6.9492 0 0 1.5 0.108208 0.0825107 
-8.31755 7.36518 -6.60385 0 0 1.5 0.126145 0.0545475 
-8.3403 7.39645 -6.2552 0 0 1.5 0.163396 0.0196291 
-8.3487 7.3836 -5.9048 0 0 1.5 0.182314 0.00731994 
-8.35116 7.34976 -5.55655 0 0 1.5 0.201049 -0.00312547 
-8.34568 7.28767 -5.21135 0 0 1.5 0.219195 -0.0125641 
-8.32891 7.18599 -4.87664 0 0 1.5 0.251527 -0.0302875 
-8.30678 7.06697 -4.54803 0 0 1.5 0.264474 -0.0387895 
-8.27215 6.91036 -4.23606 0 0 1.5 0.274463 -0.0472317 
-8.22844 6.7316 -3.93861 0 0 1.5 0.280976 -0.0557283 
-8.1765 6.53278 -3.65432 0 0 1.5 0.282494 -0.0721415 
-8.10898 6.30307 -3.39866 0 0 1.5 0.277611 -0.0798235 
-8.03605 6.06333 -3.15386 0 0 1.5 0.269412 -0.0871785 
-7.94839 5.79847 -2.94122 0 0 1.5 0.24535 -0.100607 
-7.85496 5.52409 -2.74494 0 0 1.5 0.230801 -0.106615 
-7.75395 5.23718 -2.5702 0 0 1.5 0.215405 -0.112188 
-7.64797 4.93941 -2.41907 0 0 1.5 0.199686 -0.117355 
-7.53977 4.63682 -2.27842 0 0 1.5 0.168883 -0.126304 
-7.43158 4.32368 -2.16339 0 0 1.5 0.154347 -0.129798 
-7.32446 4.00842 -2.05327 0 0 1.5 0.1406 -0.132575 
-7.22344 3.68567 -1.9601 0 0 1.5 0.127712 -0.134586 
-7.12722 3.36031 -1.87154 0 0 1.5 0.104541 -0.134403 
-7.03957 3.0303 -1.79116 0 0 1.5 0.0941872 -0.131534 
-6.96201 2.69698 -1.71474 0 0 1.5 0.084562 -0.126752 
-6.89215 2.36115 -1.64134 0 0 1.5 0.0671574 -0.106794 
-6.83756 2.0221 -1.57033 0 0 1.5 0.0592041 -0.0887777 
-6.78746 1.6821 -1.50001 0 0 1.5 0.0516384 -0.0628939 
-6.7557 1.33973 -1.4306 0 0 1.5 0.0443965 -0.0235703 
-6.72692 0.997122 -1.36124 0 0 1.5 0.0308233 0.14736 
-6.7113 0.653587 -1.29202 0 0 1.5 0.0246904 0.337169 
-6.69903 0.309945 -1.22283 0 0 1.5 0.0195223 0.669588 
-6.69387 -0.0339266 -1.1537 0 0 1.5 0.0163981 1.08065 
-6.69067 -0.377833 -1.08466 0 0 1.5 0.0206556 0.751621 
-6.68971 -0.721779 -1.01573 0 0 1.5 0.0268016 0.442239 
-6.68702 -1.06573 -0.94685 0 0 1.5 0.0341728 0.260437 
-6.68317 -1.40967 -0.878017 0 0 1.5 0.0422659 0.157687 
-6.67144 -1.75337 -0.808988 0 0 1.5 0.0596962 0.0613056 
-6.6569 -2.09698 -0.739891 0 0 1.5 0.068757 0.0383603 
-6.62504 -2.43921 -0.670039 0 0 1.5 0.0778973 0.0237396 
-6.58853 -2.78088 -0.599979 0 0 1.5 0.0959796 0.00897842 
-6.52613 -3.11865 -0.528744 0 0 1.5 0.104682 0.00600007 
-6.45109 -3.45325 -0.457076 0 0 1.5 0.112985 0.00485202 
-6.35158 -3.78172 -0.384565 0 0 1.5 0.120771 0.00505552 
-6.2247 -4.09978 -0.311727 0 0 1.5 0.134332 0.00873696 
-6.08233 -4.41195 -0.238703 0 0 1.5 0.139899 0.0117878 
-5.89793 -4.7014 -0.166578 0 0 1.5 0.144576 0.0153074 
-5.70065 -4.98171 -0.0952146 0 0 1.5 0.148336 0.0193326 
-5.4773 -5.24306 -0.0254986 0 0 1.5 0.153128 0.0288531 
-5.23619 -5.48792 0.0423336 0 0 1.5 0.15425 0.0339862 
-4.98413 -5.7226 0.109005 0 0 1.5 0.154634 0.039363 
-4.71495 -5.9379 0.173373 0 0 1.5 0.15362 0.0507538 
-4.44243 -6.14924 0.237324 0 0 1.5 0.15248 0.0562836 
-4.15856 -6.34553 0.300116 0 0 1.5 0.151102 0.0615984 
-3.87299 -6.53919 0.363076 0 0 1.5 0.14962 0.0666553 
-3.58153 -6.72376 0.426618 0 0 1.5 0.14682 0.0750413 
-3.28831 -6.90505 0.491234 0 0 1.5 0.145696 0.0780466 
-2.99161 -7.07989 0.557959 0 0 1.5 0.144851 0.0801644 
-2.69274 -7.24984 0.627243 0 0 1.5 0.144331 0.0813181 
-2.3911 -7.41357 0.699785 0 0 1.5 0.144291 0.0806547 
-2.0861 -7.56837 0.77707 0 0 1.5 0.144726 0.0789166 
-1.77843 -7.71609 0.858117 0 0 1.5 0.145399 0.0764301 
-1.46544 -7.84653 0.947113 0 0 1.5 0.147155 0.069844 
-1.15032 -7.97006 1.03928 0 0 1.5 0.148052 0.0659119 
-0.828162 -8.06143 1.1433 0 0 1.5 0.14882 0.0617762 
-0.504493 -8.14124 1.25083 0 0 1.5 0.149362 0.0575961 
-0.176979 -8.18465 1.36874 0 0 1.5 0.149379 0.0491329 
0.149756 -8.20087 1.49247 0 0 1.5 0.148672 0.0449707 
0.475765 -8.19168 1.62165 0 0 1.5 0.147406 0.0409825 
0.793967 -8.13734 1.75758 0 0 1.5 0.145546 0.0371069 
1.10825 -8.06715 1.89546 0 0 1.5 0.139972 0.0294786 
1.41031 -7.95865 2.03701 0 0 1.5 0.136268 0.0256569 
1.70486 -7.83385 2.17959 0 0 1.5 0.131993 0.0217216 
1.99029 -7.68932 2.32342 0 0 1.5 0.12719 0.0175668 
2.26575 -7.52799 2.46822 0 0 1.5 0.116226 0.00846801 
2.53639 -7.35858 2.61349 0 0 1.5 0.110217 0.0033245 
2.798 -7.17667 2.76005 0 0 1.5 0.103965 -0.00245422 
3.05796 -6.99247 2.90683 0 0 1.5 0.0910262 -0.0164246 
3.31228 -6.80205 3.05553 0 0 1.5 0.0844787 -0.0250592 
3.56643 -6.61159 3.20448 0 0 1.5 0.0779657 -0.0352682 
3.81993 -6.42175 3.35532 0 0 1.5 0.0715452 -0.0473696 
4.07425 -6.23336 3.50655 0 0 1.5 0.0591404 -0.0792683 
4.3313 -6.04975 3.65908 0 0 1.5 0.0532312 -0.100814 
4.59078 -5.86988 3.81184 0 0 1.5 0.0475662 -0.127675 
4.85422 -5.6961 3.96499 0 0 1.5 0.0421647 -0.161764 
5.12182 -5.52847 4.11763 0 0 1.5 0.0322565 -0.264714 
5.39279 -5.36582 4.26985 0 0 1.5 0.0278368 -0.343858 
5.66882 -5.2103 4.42034 0 0 1.5 0.0238568 -0.451617 
5.94659 -5.05724 4.57023 0 0 1.5 0.0177416 -0.764189 
6.22874 -4.9093 4.71704 0 0 1.5 0.0160505 -0.9132 
6.51134 -4.76149 4.86313 0 0 1.5 0.0156001 -0.957938 
6.7951 -4.61307 5.00632 0 0 1.5 0.0164551 -0.867247 
7.07796 -4.46192 5.14838 0 0 1.5 0.0212882 -0.556044 
7.35937 -4.30636 5.28861 0 0 1.5 0.0247705 -0.436878 
7.63729 -4.14358 5.42741 0 0 1.5 0.0287493 -0.350744 
7.91288 -3.97594 5.56525 0 0 1.5 0.0331584 -0.289496 
8.18189 -3.79676 5.70141 0 0 1.5 0.0431976 -0.210734 
8.44931 -3.61479 5.83716 0 0 1.5 0.0488267 -0.184724 
8.70837 -3.41971 5.97089 0 0 1.5 0.0548829 -0.164519 
8.96644 -3.22308 6.10421 0 0 1.5 0.0683564 -0.134662 
9.21998 -3.01939 6.23566 0 0 1.5 0.0757868 -0.123522 
9.47359 -2.81521 6.36619 0 0 1.5 0.0836892 -0.114431 
9.72733 -2.61008 6.49501 0 0 1.5 0.0920693 -0.106855 
9.98503 -2.40905 6.62229 0 0 1.5 0.110196 -0.0952107 
10.2464 -2.21185 6.74813 0 0 1.5 0.119886 -0.0910354 
10.5186 -2.02854 6.87147 0 0 1.5 0.129941 -0.0877106 
10.7953 -1.85087 6.99378 0 0 1.5 0.140298 -0.0850608 
11.0914 -1.70483 7.11191 0 0 1.5 0.161568 -0.081796 
11.3936 -1.57189 7.22851 0 0 1.5 0.172253 -0.0810308 
11.7115 -1.4753 7.34095 0 0 1.5 0.182797 -0.0806369 
12.0376 -1.41259 7.44985 0 0 1.5 0.193046 -0.0806166 
12.3698 -1.37525 7.55609 0 0 1.5 0.211931 -0.0816164 
12.7047 -1.39708 7.65691 0 0 1.5 0.220207 -0.0823823 
13.0373 -1.43979 7.7562 0 0 1.5 0.227485 -0.0832584 
13.363 -1.52752 7.8525 0 0 1.5 0.238422 -0.0852264 
13.6781 -1.64517 7.9481 0 0 1.5 0.241857 -0.0860973 
13.9849 -1.78617 8.04315 0 0 1.5 0.243859 -0.0868341 
14.2715 -1.96283 8.13944 0 0 1.5 0.24441 -0.0874368 
14.5533 -2.14811 8.23604 0 0 1.5 0.24133 -0.0879978 
14.8067 -2.36891 8.33641 0 0 1.5 0.237916 -0.0878416 
15.0552 -2.59433 8.43761 0 0 1.5 0.233427 -0.0873739 
15.2782 -2.84372 8.54313 0 0 1.5 0.22801 -0.0866423 
15.4918 -3.09987 8.65028 0 0 1.5 0.215038 -0.0844296 
15.6831 -3.37218 8.76133 0 0 1.5 0.207784 -0.0829011 
15.8606 -3.65209 8.87467 0 0 1.5 0.200184 -0.0811899 
16.019 -3.94254 8.99118 0 0 1.5 0.184398 -0.0774376 
16.1591 -4.24069 9.11037 0 0 1.5 0.176383 -0.0753172 
16.2839 -4.54522 9.23179 0 0 1.5 0.168366 -0.0731495 
16.385 -4.8568 9.35612 0 0 1.5 0.160397 -0.0710529 
16.4752 -5.17163 9.48179 0 0 1.5 0.144731 -0.0668536 
16.5359 -5.49192 9.61067 0 0 1.5 0.137069 -0.0648396 
16.5906 -5.81328 9.7402 0 0 1.5 0.129539 -0.0630808 
16.6097 -6.13731 9.87321 0 0 1.5 0.122152 -0.061521 
16.6222 -6.46112 10.0068 0 0 1.5 0.107828 -0.0589138 
16.6056 -6.78394 10.1431 0 0 1.5 0.100895 -0.0580822 
16.5757 -7.10483 10.2805 0 0 1.5 0.0941217 -0.0575684 
16.5238 -7.42252 10.4199 0 0 1.5 0.0875102 -0.0573306 
16.4719 -7.74021 10.5593 0 0 1.5 0.0747872 -0.0581664 
16.42 -8.0579 10.6987 0 0 1.5 0.0686898 -0.0594089 
16.3681 -8.37559 10.8381 0 0 1.5 0.0627822 -0.0612225 
16.3162 -8.69328 10.9775 0 0 1.5 0.0515815 -0.0674711 
16.2643 -9.01097 11.1169 0 0 1.5 0.0463126 -0.0724363 
16.2124 -9.32866 11.2563 0 0 1.5 0.0412893 -0.0789638 
16.1605 -9.64635 11.3957 0 0 1.5 0.0365347 -0.0875669 
16.1086 -9.96404 11.5351 0 0 1.5 0.0279138 -0.11428 
16.0567 -10.2817 11.6745 0 0 1.5 0.0241092 -0.1342 
16.0048 -10.5994 11.8139 0 0 1.5 0.0206989 -0.159961 
15.9529 -10.9171 11.9533 0 0 1.5 0.0177297 -0.192437 
15.901 -11.2348 12.0927 0 0 1.5 0.0133564 -0.266769 
15.8491 -11.5525 12.2321 0 0 1.5 0.0120602 -0.2914 
15.7972 -11.8702 12.3715 0 0 1.5 0.0113547 -0.294104 
15.7453 -12.1879 12.5109 0 0 1.5 0.0112954 -0.239574 
15.6934 -12.5056 12.6503 0 0 1.5 0.0116358 -0.20319 
15.6415 -12.8232 12.7897 0 0 1.5 0.0120389 -0.171565 
15.5896 -13.1409 12.9291 0 0 1.5 0.0124144 -0.146202 
15.5377 -13.4586 13.0685 0 0 1.5 0.0128805 -0.111583 
15.4858 -13.7763 13.2079 0 0 1.5 0.0129219 -0.100748 
15.4339 -14.094 13.3473 0 0 1.5 0.0128259 -0.0929474 
15.382 -14.4117 13.4867 0 0 1.5 0.0125964 -0.0873807 
15.3301 -14.7294 13.6261 0 0 1.5 0.0117769 -0.082171 
15.2782 -15.0471 13.7655 0 0 1.5 0.0112162 -0.0821451 
15.2263 -15.3648 13.9049 0 0 1.5 0.0105787 -0.0834539 
15.1744 -15.6825 14.0443 0 0 1.5 0.00914684 -0.0910039 
15.1225 -16.0001 14.1837 0 0 1.5 0.00838732 -0.0977209 
15.0706 -16.3178 14.3231 0 0 1.5 0.00762309 -0.106461 
15.0187 -16.6355 14.4625 0 0 1.5 0.00687203 -0.117723 
14.9668 -16.9532 14.6019 0 0 1.5 0.00546955 -0.150389 
14.9149 -17.2709 14.7413 0 0 1.5 0.00484938 -0.171558 
14.8631 -17.5886 14.8807 0 0 1.5 0.0043038 -0.19512 
14.8112 -17.9063 15.0201 0 0 1.5 0.00384472 -0.219451 
14.7593 -18.224 15.1595 0 0 1.5 0.00321982 -0.251751 
14.7074 -18.5417 15.2989 0 0 1.5 0.00305437 -0.250736 
14.6555 -18.8594 15.4383 0 0 1.5 0.00297145 -0.238166 
14.6036 -19.1771 15.5777 0 0 1.5 0.00295123 -0.217416 
14.5517 -19.4947 15.7171 0 0 1.5 0.00301317 -0.169425 
14.4998 -19.8124 15.8565 0 0 1.5 0.0030595 -0.149113 
14.4479 -20.1301 15.9959 0 0 1.5 0.00310035 -0.132354 
14.396 -20.4478 16.1353 0 0 1.5 0.00314163 -0.108131 
14.3441 -20.7655 16.2747 0 0 1.5 0.00313639 -0.100147 
14.2922 -21.0832 16.4141 0 0 1.5 0.00311322 -0.0942339 
14.2403 -21.4009 16.5535 0 0 1.5 0.00307317 -0.0898811 
14.1884 -21.7186 16.6929 0 0 1.5 0.00295008 -0.0853232 
14.1365 -22.0363 16.8323 0 0 1.5 0.00287236 -0.0846677 
14.0846 -22.354 16.9716 0 0 1.5 0.00278807 -0.0845998 
14.0327 -22.6716 17.111 0 0 1.5 0.00270036 -0.0850033 
13.9808 -22.9893 17.2504 0 0 1.5 0.0025247 -0.0868296 
13.9289 -23.307 17.3898 0 0 1.5 0.00244161 -0.0875658 
13.877 -23.6247 17.5292 0 0 1.5 0.00236462 -0.0879306 
13.8251 -23.9424 17.6686 0 0 1.5 0.00223313 -0.0873169 
13.7732 -24.2601 17.808 0 0 1.5 0.00218023 -0.0858487 
13.7213 -24.5778 17.9474 0 0 1.5 0.00213653 -0.0835982 
13.6694 -24.8955 18.0868 0 0 1.5 0.00210159 -0.0808147 
13.6175 -25.2132 18.2262 0 0 1.5 0.00205565 -0.0737764 
13.5656 -25.5309 18.3656 0 0 1.5 0.0020435 -0.0698092 
13.5137 -25.8485 18.505 0 0 1.5 0.00203743 -0.0659379 
13.4618 -26.1662 18.6444 0 0 1.5 0.00203658 -0.0622749 
13.4099 -26.4839 18.7838 0 0 1.5 0.00204809 -0.0559296 
13.358 -26.8016 18.9232 0 0 1.5 0.00205948 -0.0534627 
13.3061 -27.1193 19.0626 0 0 1.5 0.00207413 -0.0515272 
0 1 0 
1 2 0 
2 3 0 
3 4 0 
4 5 0 
5 6 0 
6 7 0 
7 8 0 
8 9 0 
9 10 0 
10 11 0 
11 12 0 
12 13 0 
13 14 0 
14 15 0 
15 16 0 
16 17 0 
17 18 0 
18 19 0 
19 20 0 
20 21 0 
21 22 0 
22 23 0 
23 24 0 
24 25 0 
25 26 0 
26 27 0 
27 28 0 
28 29 0 
29 30 0 
30 31 0 
31 32 0 
32 33 0 
33 34 0 
34 35 0 
35 36 0 
36 37 0 
37 38 0 
38 39 0 
39 40 0 
40 41 0 
41 42 0 
42 43 0 
43 44 0 
44 45 0 
45 46 0 
46 47 0 
47 48 0 
48 49 0 
49 50 0 
50 51 0 
51 52 0 
52 53 0 
53 54 0 
54 55 0 
55 56 0 
56 57 0 
57 58 0 
58 59 0 
59 60 0 
60 61 0 
61 62 0 
62 63 0 
63 64 0 
64 65 0 
65 66 0 
66 67 0 
67 68 0 
68 69 0 
69 70 0 
70 71 0 
71 72 0 
72 73 0 
73 74 0 
74 75 0 
75 76 0 
76 77 0 
77 78 0 
78 79 0 
79 80 0 
80 81 0 
81 82 0 
82 83 0 
83 84 0 
84 85 0 
85 86 0 
86 87 0 
87 88 0 
88 89 0 
89 90 0 
90 91 0 
91 92 0 
92 93 0 
93 94 0 
94 95 0 
95 96 0 
96 97 0 
97 98 0 
98 99 0 
99 100 0 
100 101 0 
101 102 0 
102 103 0 
103 104 0 
104 105 0 
105 106 0 
106 107 0 
107 108 0 
108 109 0 
109 110 0 
110 111 0 
111 112 0 
112 113 0 
113 114 0 
114 115 0 
115 116 0 
116 117 0 
117 118 0 
118 119 0 
119 120 0 
120 121 0 
121 122 0 
122 123 0 
123 124 0 
124 125 0 
125 126 0 
126 127 0 
127 128 0 
128 129 0 
129 130 0 
130 131 0 
131 132 0 
132 133 0 
133 134 0 
134 135 0 
135 136 0 
136 137 0 
137 138 0 
138 139 0 
139 140 0 
140 141 0 
141 142 0 
142 143 0 
143 144 0 
144 145 0 
145 146 0 
146 147 0 
147 148 0 
148 149 0 
149 150 0 
150 151 0 
151 152 0 
152 153 0 
153 154 0 
154 155 0 
155 156 0 
156 157 0 
157 158 0 
158 159 0 
159 160 0 
160 161 0 
161 162 0 
162 163 0 
163 164 0 
164 165 0 
165 166 0 
166 167 0 
167 168 0 
168 169 0 
169 170 0 
170 171 0 
171 172 0 
172 173 0 
173 174 0 
174 175 0 
175 176 0 
176 177 0 
177 178 0 
178 179 0 
179 180 0 
180 181 0 
181 182 0 
182 183 0 
183 184 0 
184 185 0 
185 186 0 
186 187 0 
187 188 0 
188 189 0 
189 190 0 
190 191 0 
191 192 0 
192 193 0 
193 194 0 
194 195 0 
195 196 0 
196 197 0 
197 198 0 
198 199 0 
199 200 0 
200 201 0 
201 202 0 
202 203 0 
203 204 0 
204 205 0 
205 206 0 
206 207 0 
207 208 0 
208 209 0 
209 210 0 
210 211 0 
211 212 0 
212 213 0 
213 214 0 
214 215 0 
215 216 0 
216 217 0 
217 218 0 
218 219 0 
219 220 0 
220 221 0 
221 222 0 
222 223 0 
223 224 0 
224 225 0 
225 226 0 
226 227 0 
227 228 0 
228 229 0 
229 230 0 
230 231 0 
231 232 0 
232 233 0 
233 234 0 
234 235 0 
235 236 0 
236 237 0 
237 238 0 
238 239 0 
239 240 0 
240 241 0 
241 242 0 
242 243 0 
243 244 0 
244 245 0 
245 246 0 
246 247 0 
247 248 0 
248 249 0 
249 250 0 
250 251 0 
251 252 0 
252 253 0 
253 254 0 
254 255 0 
255 256 0 
256 257 0 
257 258 0 
258 259 0 
259 260 0 
260 261 0 
261 262 0 
262 263 0 
263 264 0 
264 265 0 
265 266 0 
266 267 0 
267 268 0 
268 269 0 
269 270 0 
270 271 0 
271 272 0 
272 273 0 
273 274 0 
274 275 0 
275 276 0 
276 277 0 
277 278 0 
278 279 0 
279 280 0 
280 281 0 
281 282 0 
282 283 0 
283 284 0 
284 285 0 
285 286 0 
286 287 0 
287 288 0 
288 289 0 
289 290 0 
290 291 0 
291 292 0 
292 293 0 
293 294 0 
294 295 0 
295 296 0 
296 297 0 
297 298 0 
298 299 0 
-1 -1 0 
-1 300 0 1 2 3 4 5 6 7 8 9 10 11 12 13 14 15 16 17 18 19 20 21 22 23 24 25 26 27 28 29 30 31 32 33 34 35 36 37 38 39 40 41 42 43 44 45 46 47 48 49 50 51 52 53 54 55 56 57 58 59 60 61 62 63 64 65 66 67 68 69 70 71 72 73 74 75 76 77 78 79 80 81 82 83 84 85 86 87 88 89 90 91 92 93 94 95 96 97 98 99 100 101 102 103 104 105 106 107 108 109 110 111 112 113 114 115 116 117 118 119 120 121 122 123 124 125 126 127 128 129 130 131 132 133 134 135 136 137 138 139 140 141 142 143 144 145 146 147 148 149 150 151 152 153 154 155 156 157 158 159 160 161 162 163 164 165 166 167 168 169 170 171 172 173 174 175 176 177 178 179 180 181 182 183 184 185 186 187 188 189 190 191 192 193 194 195 196 197 198 199 200 201 202 203 204 205 206 207 208 209 210 211 212 213 214 215 216 217 218 219 220 221 222 223 224 225 226 227 228 229 230 231 232 233 234 235 236 237 238 239 240 241 242 243 244 245 246 247 248 249 250 251 252 253 254 255 256 257 258 259 260 261 262 263 264 265 266 267 268 269 270 271 272 273 274 275 276 277 278 279 280 281 282 283 284 285 286 287 288 289 290 291 292 293 294 295 296 297 298 299 
