ply
format ascii 1.0
comment written by koba@oshima.lab
element vertex 300
property float x
property float y
property float z
property int label
property int attribute
property float radius
property float curvature
property float torsion
element edge 300
property int vertex1
property int vertex2
property int label
element vertex_seq 1
property int label
property list int int vertex_indices
end_header
3.9418 24.6494 -9.27502 0 0 1.5 0.0116356 0.0573669 
3.78518 24.3542 -9.21114 0 0 1.5 0.0116267 0.059793 
3.62855 24.0589 -9.14726 0 0 1.5 0.0116194 0.0641536 
3.47193 23.7636 -9.08339 0 0 1.5 0.0116132 0.0704922 
3.3153 23.4683 -9.01951 0 0 1.5 0.0116064 0.0891881 
3.15868 23.1731 -8.95564 0 0 1.5 0.0116064 0.101548 
3.00206 22.8778 -8.89176 0 0 1.5 0.0116096 0.115947 
2.84543 22.5825 -8.82788 0 0 1.5 0.0116182 0.132365 
2.68881 22.2872 -8.76401 0 0 1.5 0.0116631 0.169112 
2.53219 21.9919 -8.70013 0 0 1.5 0.0117032 0.18896 
2.37556 21.6967 -8.63625 0 0 1.5 0.0117604 0.209668 
2.21894 21.4014 -8.57238 0 0 1.5 0.0118405 0.230098 
2.06232 21.1061 -8.5085 0 0 1.5 0.0120793 0.2677 
1.90569 20.8108 -8.44462 0 0 1.5 0.0122444 0.285145 
1.74907 20.5155 -8.38075 0 0 1.5 0.0124454 0.300688 
1.59244 20.2203 -8.31687 0 0 1.5 0.0129503 0.325707 
1.43582 19.925 -8.253 0 0 1.5 0.0132507 0.337018 
1.2792 19.6297 -8.18912 0 0 1.5 0.0135818 0.347333 
1.12257 19.3344 -8.12524 0 0 1.5 0.0139384 0.356762 
0.96595 19.0392 -8.06137 0 0 1.5 0.0147116 0.378526 
0.809326 18.7439 -7.99749 0 0 1.5 0.0151308 0.391147 
0.652702 18.4486 -7.93361 0 0 1.5 0.0155801 0.403885 
0.496079 18.1533 -7.86974 0 0 1.5 0.0160711 0.417238 
0.339455 17.858 -7.80586 0 0 1.5 0.0172638 0.44353 
0.182832 17.5628 -7.74199 0 0 1.5 0.0180215 0.453004 
0.0262078 17.2675 -7.67811 0 0 1.5 0.01893 0.459178 
-0.130416 16.9722 -7.61423 0 0 1.5 0.0213681 0.457243 
-0.287039 16.6769 -7.55036 0 0 1.5 0.0229822 0.446135 
-0.443663 16.3817 -7.48648 0 0 1.5 0.0249039 0.430012 
-0.600287 16.0864 -7.4226 0 0 1.5 0.0271624 0.410769 
-0.75691 15.7911 -7.35873 0 0 1.5 0.032779 0.365597 
-0.913534 15.4958 -7.29485 0 0 1.5 0.0361547 0.343059 
-1.07016 15.2005 -7.23097 0 0 1.5 0.0399185 0.322475 
-1.22678 14.9053 -7.1671 0 0 1.5 0.0440808 0.303468 
-1.38341 14.61 -7.10322 0 0 1.5 0.053599 0.270998 
-1.54003 14.3147 -7.03935 0 0 1.5 0.0589589 0.258559 
-1.69665 14.0194 -6.97547 0 0 1.5 0.0647317 0.247912 
-1.85354 13.7243 -6.91168 0 0 1.5 0.0709201 0.238623 
-2.02209 13.4348 -6.85193 0 0 1.5 0.0845553 0.225493 
-2.19321 13.1466 -6.79311 0 0 1.5 0.0920184 0.22103 
-2.37535 12.8645 -6.73829 0 0 1.5 0.0999172 0.217205 
-2.56214 12.5851 -6.68532 0 0 1.5 0.116995 0.21292 
-2.76008 12.3126 -6.63682 0 0 1.5 0.126151 0.212103 
-2.96507 12.045 -6.59174 0 0 1.5 0.135693 0.211466 
-3.18114 11.7851 -6.55204 0 0 1.5 0.145581 0.211346 
-3.40758 11.5336 -6.51922 0 0 1.5 0.16613 0.213037 
-3.64348 11.2898 -6.49269 0 0 1.5 0.176607 0.214056 
-3.89391 11.0602 -6.48133 0 0 1.5 0.187046 0.215363 
-4.15053 10.837 -6.4774 0 0 1.5 0.197279 0.217212 
-4.42217 10.6337 -6.50352 0 0 1.5 0.216369 0.220548 
-4.69705 10.4413 -6.55418 0 0 1.5 0.224836 0.221694 
-4.97375 10.2611 -6.63395 0 0 1.5 0.232295 0.222762 
-5.23986 10.0978 -6.76932 0 0 1.5 0.243434 0.223649 
-5.47856 9.9461 -6.95593 0 0 1.5 0.246861 0.223248 
-5.68451 9.80182 -7.18232 0 0 1.5 0.248747 0.222494 
-5.85651 9.66203 -7.43963 0 0 1.5 0.249071 0.221331 
-5.98851 9.52299 -7.72078 0 0 1.5 0.24536 0.217449 
-6.09284 9.37901 -8.0105 0 0 1.5 0.241583 0.215036 
-6.1829 9.23032 -8.30283 0 0 1.5 0.236745 0.212488 
-6.2576 9.07361 -8.59551 0 0 1.5 0.231066 0.209833 
-6.32329 8.90749 -8.88504 0 0 1.5 0.218058 0.204683 
-6.3843 8.73644 -9.17278 0 0 1.5 0.211135 0.202573 
-6.43805 8.55766 -9.45729 0 0 1.5 0.204219 0.200965 
-6.48344 8.37724 -9.74216 0 0 1.5 0.191222 0.199188 
-6.52088 8.19678 -10.0281 0 0 1.5 0.185516 0.199071 
-6.53739 8.02211 -10.3197 0 0 1.5 0.180626 0.199372 
-6.5273 7.85774 -10.6168 0 0 1.5 0.176788 0.199786 
-6.49169 7.70281 -10.9167 0 0 1.5 0.173293 0.199565 
-6.4175 7.56146 -11.2173 0 0 1.5 0.174278 0.19797 
-6.29994 7.42939 -11.5072 0 0 1.5 0.1776 0.19471 
-6.15816 7.29895 -11.7866 0 0 1.5 0.183683 0.189563 
-5.98352 7.16706 -12.0472 0 0 1.5 0.20617 0.174082 
-5.78506 7.0244 -12.2827 0 0 1.5 0.223824 0.164413 
-5.57559 6.87676 -12.5065 0 0 1.5 0.246744 0.15425 
-5.34507 6.70555 -12.6889 0 0 1.5 0.275872 0.144347 
-5.11228 6.52962 -12.8629 0 0 1.5 0.357879 0.127064 
-4.87081 6.33057 -12.9966 0 0 1.5 0.414071 0.11997 
-4.62911 6.12533 -13.1178 0 0 1.5 0.483138 0.114103 
-4.38672 5.90212 -13.2028 0 0 1.5 0.669031 0.105529 
-4.14632 5.67197 -13.2687 0 0 1.5 0.788606 0.101773 
-3.90924 5.43021 -13.3025 0 0 1.5 0.923517 0.0976367 
-3.67825 5.1821 -13.3021 0 0 1.5 1.06502 0.0923526 
-3.45158 4.9295 -13.2774 0 0 1.5 1.28922 0.0737576 
-3.24468 4.67952 -13.1749 0 0 1.5 1.32085 0.0599739 
-3.07203 4.45637 -12.994 0 0 1.5 1.27953 0.0448733 
-2.98878 4.32284 -12.7055 0 0 1.5 1.17602 0.0299893 
-3.02779 4.32521 -12.3746 0 0 1.5 0.884593 0.00536992 
-3.13343 4.40096 -12.0626 0 0 1.5 0.741092 -0.00381796 
-3.26512 4.50077 -11.7656 0 0 1.5 0.614066 -0.0115331 
-3.41118 4.61079 -11.4786 0 0 1.5 0.41545 -0.0251254 
-3.56579 4.71579 -11.1943 0 0 1.5 0.340509 -0.0319345 
-3.72091 4.81569 -10.9085 0 0 1.5 0.278476 -0.0397361 
-3.87482 4.90098 -10.6172 0 0 1.5 0.226966 -0.0495453 
-4.02291 4.97304 -10.3198 0 0 1.5 0.147924 -0.0811408 
-4.16539 5.03236 -10.0165 0 0 1.5 0.117643 -0.108645 
-4.29251 5.0714 -9.70363 0 0 1.5 0.092429 -0.151134 
-4.41384 5.10336 -9.3874 0 0 1.5 0.072091 -0.216793 
-4.51058 5.11456 -9.06134 0 0 1.5 0.0486114 -0.385257 
-4.59736 5.12029 -8.73273 0 0 1.5 0.0474264 -0.376838 
-4.66574 5.11594 -8.3994 0 0 1.5 0.0522852 -0.297613 
-4.71475 5.10409 -8.06316 0 0 1.5 0.0706172 -0.167996 
-4.75326 5.0882 -7.7255 0 0 1.5 0.0810156 -0.137247 
-4.76775 5.06356 -7.3864 0 0 1.5 0.0912756 -0.120433 
-4.77096 5.03363 -7.04768 0 0 1.5 0.101106 -0.112487 
-4.76258 4.99826 -6.70933 0 0 1.5 0.118837 -0.113537 
-4.73515 4.95114 -6.37347 0 0 1.5 0.126513 -0.120009 
-4.69919 4.89843 -6.03938 0 0 1.5 0.133333 -0.129331 
-4.65325 4.83912 -5.70746 0 0 1.5 0.139291 -0.141424 
-4.59332 4.77287 -5.37914 0 0 1.5 0.148738 -0.173536 
-4.5271 4.70499 -5.05239 0 0 1.5 0.152399 -0.192361 
-4.45245 4.63551 -4.72774 0 0 1.5 0.155537 -0.212615 
-4.3687 4.56642 -4.40526 0 0 1.5 0.158332 -0.233928 
-4.28072 4.49722 -4.08393 0 0 1.5 0.163726 -0.274413 
-4.18433 4.42713 -3.76519 0 0 1.5 0.166746 -0.291067 
-4.08266 4.35267 -3.44916 0 0 1.5 0.17022 -0.304042 
-3.97649 4.27451 -3.13544 0 0 1.5 0.178922 -0.315329 
-3.86175 4.17898 -2.82974 0 0 1.5 0.184136 -0.313146 
-3.74391 4.07274 -2.52914 0 0 1.5 0.189762 -0.306312 
-3.62035 3.94264 -2.23999 0 0 1.5 0.195565 -0.295718 
-3.4955 3.78343 -1.96738 0 0 1.5 0.206445 -0.266898 
-3.37103 3.60487 -1.70643 0 0 1.5 0.21076 -0.250303 
-3.25484 3.38393 -1.47515 0 0 1.5 0.213784 -0.233383 
-3.15181 3.13912 -1.26464 0 0 1.5 0.215178 -0.216681 
-3.05926 2.87529 -1.07066 0 0 1.5 0.212031 -0.184708 
-3.00337 2.57958 -0.911856 0 0 1.5 0.207175 -0.170161 
-2.96574 2.27627 -0.76482 0 0 1.5 0.200157 -0.157067 
-2.95479 1.96194 -0.634899 0 0 1.5 0.180337 -0.134591 
-2.97892 1.64301 -0.520659 0 0 1.5 0.168008 -0.125402 
-3.01671 1.32291 -0.412093 0 0 1.5 0.15446 -0.117957 
-3.09095 1.00542 -0.3147 0 0 1.5 0.13999 -0.112173 
-3.17466 0.690116 -0.218876 0 0 1.5 0.10925 -0.106674 
-3.27751 0.37925 -0.12622 0 0 1.5 0.0933792 -0.109512 
-3.38883 0.071663 -0.0327978 0 0 1.5 0.0773847 -0.119049 
-3.50745 -0.233094 0.061286 0 0 1.5 0.0613579 -0.141638 
-3.6284 -0.535453 0.159963 0 0 1.5 0.0294697 -0.38126 
-3.7503 -0.83683 0.260524 0 0 1.5 0.0140848 -1.47214 
-3.86558 -1.13764 0.370096 0 0 1.5 0.00699802 -5.83584 
-3.97959 -1.43836 0.481269 0 0 1.5 0.0206747 -0.723131 
-4.07773 -1.73964 0.605368 0 0 1.5 0.053252 -0.152911 
-4.17234 -2.04092 0.731817 0 0 1.5 0.0701248 -0.108582 
-4.24868 -2.34216 0.870471 0 0 1.5 0.0873281 -0.0863631 
-4.31731 -2.64285 1.01363 0 0 1.5 0.122697 -0.0644953 
-4.36825 -2.94226 1.16712 0 0 1.5 0.140741 -0.0583133 
-4.40656 -3.23985 1.32687 0 0 1.5 0.158843 -0.0534906 
-4.42899 -3.53515 1.49449 0 0 1.5 0.176805 -0.0493156 
-4.43195 -3.82641 1.66955 0 0 1.5 0.21108 -0.0415358 
-4.42149 -4.11489 1.84974 0 0 1.5 0.226574 -0.0375753 
-4.38066 -4.39528 2.03736 0 0 1.5 0.240378 -0.0334271 
-4.33069 -4.67323 2.22723 0 0 1.5 0.252035 -0.028881 
-4.23346 -4.93488 2.42183 0 0 1.5 0.267238 -0.0181333 
-4.12105 -5.18957 2.61572 0 0 1.5 0.270216 -0.0120687 
-3.96966 -5.42627 2.8077 0 0 1.5 0.269992 -0.00541108 
-3.78577 -5.64248 2.99274 0 0 1.5 0.26049 0.00992772 
-3.5807 -5.84535 3.17327 0 0 1.5 0.251889 0.0181851 
-3.33282 -6.01097 3.33678 0 0 1.5 0.241364 0.0269548 
-3.07417 -6.16448 3.49422 0 0 1.5 0.229425 0.036453 
-2.79221 -6.29011 3.63745 0 0 1.5 0.203269 0.0568968 
-2.50011 -6.3989 3.7725 0 0 1.5 0.189935 0.0678027 
-2.19894 -6.49261 3.90022 0 0 1.5 0.176904 0.0793697 
-1.89047 -6.56884 4.0214 0 0 1.5 0.164439 0.0913835 
-1.57923 -6.63844 4.14009 0 0 1.5 0.141977 0.115375 
-1.26445 -6.69309 4.25711 0 0 1.5 0.13224 0.126646 
-0.949152 -6.74554 4.37388 0 0 1.5 0.123602 0.136656 
-0.633852 -6.78617 4.49526 0 0 1.5 0.109639 0.149801 
-0.318865 -6.82574 4.61773 0 0 1.5 0.10425 0.15116 
-0.00657884 -6.85726 4.7492 0 0 1.5 0.099825 0.148597 
0.304457 -6.88687 4.88385 0 0 1.5 0.0962337 0.142431 
0.611336 -6.91013 5.02905 0 0 1.5 0.0909395 0.119499 
0.915447 -6.92978 5.18018 0 0 1.5 0.088909 0.104255 
1.21505 -6.94356 5.34095 0 0 1.5 0.0870613 0.0884042 
1.51007 -6.95066 5.51008 0 0 1.5 0.0852383 0.0722068 
1.8014 -6.95239 5.68593 0 0 1.5 0.0811236 0.0397035 
2.08659 -6.94277 5.87111 0 0 1.5 0.078605 0.024832 
2.36972 -6.92933 6.05942 0 0 1.5 0.0756585 0.01091 
2.64639 -6.89875 6.25512 0 0 1.5 0.0722152 -0.00236683 
2.92208 -6.86397 6.4514 0 0 1.5 0.0636648 -0.0256162 
3.1945 -6.81329 6.64894 0 0 1.5 0.0585281 -0.0352674 
3.46672 -6.75483 6.84434 0 0 1.5 0.0528139 -0.043719 
3.73866 -6.68483 7.03657 0 0 1.5 0.0397161 -0.0588227 
4.01244 -6.60402 7.22152 0 0 1.5 0.0324144 -0.0662945 
4.28735 -6.51673 7.4021 0 0 1.5 0.0246966 -0.0743511 
4.56675 -6.41816 7.5693 0 0 1.5 0.016734 -0.0885724 
4.84724 -6.31713 7.73333 0 0 1.5 0.00725494 -0.1696 
5.13374 -6.20812 7.88109 0 0 1.5 0.0142018 -0.0929069 
5.42145 -6.09864 8.02602 0 0 1.5 0.0235587 -0.0779093 
5.71381 -5.98735 8.15995 0 0 1.5 0.0336412 -0.0732987 
6.0078 -5.87734 8.29129 0 0 1.5 0.054917 -0.0711452 
6.30483 -5.76971 8.41773 0 0 1.5 0.0659107 -0.0708167 
6.60332 -5.66686 8.54461 0 0 1.5 0.0770317 -0.0701631 
6.90346 -5.56941 8.67197 0 0 1.5 0.0992818 -0.0694075 
7.20416 -5.48225 8.80497 0 0 1.5 0.110199 -0.069369 
7.50525 -5.40222 8.94187 0 0 1.5 0.120826 -0.0693867 
7.80465 -5.34161 9.09117 0 0 1.5 0.131036 -0.0695886 
8.10346 -5.28793 9.24491 0 0 1.5 0.149631 -0.070842 
8.3955 -5.26836 9.41813 0 0 1.5 0.157744 -0.0719041 
8.68453 -5.25985 9.59639 0 0 1.5 0.164904 -0.0732846 
8.96216 -5.28987 9.79086 0 0 1.5 0.171002 -0.0750289 
9.22968 -5.34579 9.99146 0 0 1.5 0.179751 -0.0792491 
9.48632 -5.42951 10.1986 0 0 1.5 0.182419 -0.0815814 
9.72221 -5.55609 10.4074 0 0 1.5 0.184006 -0.0840561 
9.95005 -5.69835 10.6157 0 0 1.5 0.184333 -0.0886525 
10.1556 -5.87988 10.8172 0 0 1.5 0.183376 -0.0904413 
10.3529 -6.07419 11.014 0 0 1.5 0.18189 -0.091764 
10.5376 -6.28802 11.2036 0 0 1.5 0.180036 -0.0923361 
10.7134 -6.514 11.387 0 0 1.5 0.175883 -0.0900964 
10.8837 -6.74775 11.5664 0 0 1.5 0.173856 -0.0869797 
11.0466 -6.98891 11.7427 0 0 1.5 0.171994 -0.0824086 
11.2074 -7.23224 11.918 0 0 1.5 0.17035 -0.0763515 
11.3611 -7.47754 12.0968 0 0 1.5 0.167756 -0.0596074 
11.5136 -7.7229 12.2766 0 0 1.5 0.166744 -0.049302 
11.6561 -7.96618 12.4672 0 0 1.5 0.165827 -0.0382633 
11.7943 -8.20865 12.6616 0 0 1.5 0.164903 -0.0264669 
11.9186 -8.44846 12.8686 0 0 1.5 0.162574 -0.000824443 
12.0291 -8.68743 13.0835 0 0 1.5 0.160929 0.0121878 
12.1239 -8.92544 13.3075 0 0 1.5 0.158814 0.0254311 
12.1866 -9.16496 13.5402 0 0 1.5 0.152784 0.0534037 
12.2336 -9.40557 13.7757 0 0 1.5 0.14874 0.0678714 
12.235 -9.65126 14.0111 0 0 1.5 0.143972 0.0830831 
12.2108 -9.90062 14.2398 0 0 1.5 0.138472 0.0996286 
12.1595 -10.1539 14.4612 0 0 1.5 0.125415 0.138032 
12.0704 -10.4137 14.6612 0 0 1.5 0.118032 0.161042 
11.9693 -10.6758 14.8526 0 0 1.5 0.110221 0.187976 
11.8423 -10.944 15.019 0 0 1.5 0.102105 0.220243 
11.7084 -11.2153 15.1741 0 0 1.5 0.0856488 0.307007 
11.5646 -11.4909 15.3126 0 0 1.5 0.077696 0.36485 
11.4185 -11.7712 15.4378 0 0 1.5 0.0702144 0.434309 
11.2706 -12.055 15.5536 0 0 1.5 0.0577441 0.598104 
11.1272 -12.3453 15.6581 0 0 1.5 0.0533151 0.671653 
10.9858 -12.6382 15.758 0 0 1.5 0.0503811 0.717075 
10.8575 -12.9393 15.8508 0 0 1.5 0.0490088 0.720028 
10.7324 -13.2424 15.9419 0 0 1.5 0.0502836 0.607456 
10.6316 -13.5546 16.0317 0 0 1.5 0.0522353 0.52614 
10.5353 -13.8682 16.1217 0 0 1.5 0.054561 0.449259 
10.4755 -14.1894 16.217 0 0 1.5 0.0569493 0.382116 
10.4288 -14.5109 16.3154 0 0 1.5 0.0609651 0.280256 
10.4217 -14.8337 16.423 0 0 1.5 0.0622823 0.244411 
10.4146 -15.1564 16.5306 0 0 1.5 0.0630276 0.215915 
10.4076 -15.4792 16.6382 0 0 1.5 0.0631557 0.192943 
10.4005 -15.802 16.7458 0 0 1.5 0.0615248 0.161111 
10.3934 -16.1247 16.8534 0 0 1.5 0.0598308 0.150653 
10.3864 -16.4475 16.961 0 0 1.5 0.0576169 0.142663 
10.3793 -16.7702 17.0686 0 0 1.5 0.0518801 0.134318 
10.3722 -17.093 17.1762 0 0 1.5 0.0485052 0.133866 
10.3652 -17.4157 17.2838 0 0 1.5 0.0448961 0.135578 
10.3581 -17.7385 17.3915 0 0 1.5 0.0411282 0.1399 
10.351 -18.0613 17.4991 0 0 1.5 0.0333792 0.159613 
10.344 -18.384 17.6067 0 0 1.5 0.0295262 0.176518 
10.3369 -18.7068 17.7143 0 0 1.5 0.0257687 0.200541 
10.3298 -19.0295 17.8219 0 0 1.5 0.0221527 0.235498 
10.3228 -19.3523 17.9295 0 0 1.5 0.0155334 0.361814 
10.3157 -19.675 18.0371 0 0 1.5 0.0126394 0.475386 
10.3086 -19.9978 18.1447 0 0 1.5 0.0101037 0.649605 
10.3016 -20.3206 18.2523 0 0 1.5 0.00652148 1.19358 
10.2945 -20.6433 18.3599 0 0 1.5 0.00574556 1.34708 
10.2874 -20.9661 18.4675 0 0 1.5 0.0056802 1.21296 
10.2804 -21.2888 18.5751 0 0 1.5 0.00610778 0.925983 
10.2733 -21.6116 18.6827 0 0 1.5 0.00742972 0.488552 
10.2662 -21.9343 18.7903 0 0 1.5 0.00802839 0.371174 
10.2592 -22.2571 18.8979 0 0 1.5 0.00850244 0.29398 
10.2521 -22.5799 19.0055 0 0 1.5 0.00883083 0.241741 
10.245 -22.9026 19.1131 0 0 1.5 0.00903806 0.182288 
10.238 -23.2254 19.2207 0 0 1.5 0.00893337 0.166259 
10.2309 -23.5481 19.3283 0 0 1.5 0.00870752 0.155601 
10.2238 -23.8709 19.4359 0 0 1.5 0.0079543 0.147728 
10.2168 -24.1936 19.5435 0 0 1.5 0.00745893 0.149833 
10.2097 -24.5164 19.6511 0 0 1.5 0.00690695 0.155459 
10.2026 -24.8392 19.7587 0 0 1.5 0.00631511 0.165317 
10.1956 -25.1619 19.8663 0 0 1.5 0.00506771 0.203833 
10.1885 -25.4847 19.9739 0 0 1.5 0.00444034 0.235906 
10.1814 -25.8074 20.0815 0 0 1.5 0.00382934 0.281534 
10.1744 -26.1302 20.1891 0 0 1.5 0.00324601 0.348533 
10.1673 -26.453 20.2967 0 0 1.5 0.00221452 0.591149 
10.1602 -26.7757 20.4043 0 0 1.5 0.00180074 0.792727 
10.1532 -27.0985 20.5119 0 0 1.5 0.00148365 1.0382 
10.1461 -27.4212 20.6195 0 0 1.5 0.00128806 1.22559 
10.139 -27.744 20.7271 0 0 1.5 0.00126868 0.997409 
10.132 -28.0667 20.8347 0 0 1.5 0.00137552 0.75792 
10.1249 -28.3895 20.9423 0 0 1.5 0.00150531 0.567292 
10.1178 -28.7123 21.0499 0 0 1.5 0.00174521 0.340993 
10.1108 -29.035 21.1575 0 0 1.5 0.00183541 0.278934 
10.1037 -29.3578 21.2651 0 0 1.5 0.00190144 0.235958 
10.0966 -29.6805 21.3727 0 0 1.5 0.0019432 0.205339 
10.0896 -30.0033 21.4803 0 0 1.5 0.00195973 0.168555 
10.0825 -30.326 21.5879 0 0 1.5 0.00193968 0.15805 
10.0754 -30.6488 21.6955 0 0 1.5 0.0019049 0.15047 
10.0684 -30.9716 21.8031 0 0 1.5 0.00185861 0.145156 
10.0613 -31.2943 21.9107 0 0 1.5 0.00174217 0.139728 
10.0542 -31.6171 22.0183 0 0 1.5 0.00167737 0.137998 
10.0472 -31.9398 22.1259 0 0 1.5 0.00161155 0.136362 
10.0401 -32.2626 22.2335 0 0 1.5 0.00148305 0.132856 
10.033 -32.5853 22.3411 0 0 1.5 0.00142315 0.129809 
10.026 -32.9081 22.4487 0 0 1.5 0.00136777 0.125636 
10.0189 -33.2309 22.5563 0 0 1.5 0.00131719 0.120688 
10.0118 -33.5536 22.6639 0 0 1.5 0.00123086 0.108046 
10.0048 -33.8764 22.7715 0 0 1.5 0.00119525 0.100635 
9.99769 -34.1991 22.8791 0 0 1.5 0.00116418 0.0932754 
9.99062 -34.5219 22.9867 0 0 1.5 0.00113706 0.0863001 
9.98355 -34.8446 23.0943 0 0 1.5 0.00109261 0.0747777 
9.97649 -35.1674 23.2019 0 0 1.5 0.00107416 0.0709032 
9.96942 -35.4902 23.3095 0 0 1.5 0.00105742 0.0686991 
0 1 0 
1 2 0 
2 3 0 
3 4 0 
4 5 0 
5 6 0 
6 7 0 
7 8 0 
8 9 0 
9 10 0 
10 11 0 
11 12 0 
12 13 0 
13 14 0 
14 15 0 
15 16 0 
16 17 0 
17 18 0 
18 19 0 
19 20 0 
20 21 0 
21 22 0 
22 23 0 
23 24 0 
24 25 0 
25 26 0 
26 27 0 
27 28 0 
28 29 0 
29 30 0 
30 31 0 
31 32 0 
32 33 0 
33 34 0 
34 35 0 
35 36 0 
36 37 0 
37 38 0 
38 39 0 
39 40 0 
40 41 0 
41 42 0 
42 43 0 
43 44 0 
44 45 0 
45 46 0 
46 47 0 
47 48 0 
48 49 0 
49 50 0 
50 51 0 
51 52 0 
52 53 0 
53 54 0 
54 55 0 
55 56 0 
56 57 0 
57 58 0 
58 59 0 
59 60 0 
60 61 0 
61 62 0 
62 63 0 
63 64 0 
64 65 0 
65 66 0 
66 67 0 
67 68 0 
68 69 0 
69 70 0 
70 71 0 
71 72 0 
72 73 0 
73 74 0 
74 75 0 
75 76 0 
76 77 0 
77 78 0 
78 79 0 
79 80 0 
80 81 0 
81 82 0 
82 83 0 
83 84 0 
84 85 0 
85 86 0 
86 87 0 
87 88 0 
88 89 0 
89 90 0 
90 91 0 
91 92 0 
92 93 0 
93 94 0 
94 95 0 
95 96 0 
96 97 0 
97 98 0 
98 99 0 
99 100 0 
100 101 0 
101 102 0 
102 103 0 
103 104 0 
104 105 0 
105 106 0 
106 107 0 
107 108 0 
108 109 0 
109 110 0 
110 111 0 
111 112 0 
112 113 0 
113 114 0 
114 115 0 
115 116 0 
116 117 0 
117 118 0 
118 119 0 
119 120 0 
120 121 0 
121 122 0 
122 123 0 
123 124 0 
124 125 0 
125 126 0 
126 127 0 
127 128 0 
128 129 0 
129 130 0 
130 131 0 
131 132 0 
132 133 0 
133 134 0 
134 135 0 
135 136 0 
136 137 0 
137 138 0 
138 139 0 
139 140 0 
140 141 0 
141 142 0 
142 143 0 
143 144 0 
144 145 0 
145 146 0 
146 147 0 
147 148 0 
148 149 0 
149 150 0 
150 151 0 
151 152 0 
152 153 0 
153 154 0 
154 155 0 
155 156 0 
156 157 0 
157 158 0 
158 159 0 
159 160 0 
160 161 0 
161 162 0 
162 163 0 
163 164 0 
164 165 0 
165 166 0 
166 167 0 
167 168 0 
168 169 0 
169 170 0 
170 171 0 
171 172 0 
172 173 0 
173 174 0 
174 175 0 
175 176 0 
176 177 0 
177 178 0 
178 179 0 
179 180 0 
180 181 0 
181 182 0 
182 183 0 
183 184 0 
184 185 0 
185 186 0 
186 187 0 
187 188 0 
188 189 0 
189 190 0 
190 191 0 
191 192 0 
192 193 0 
193 194 0 
194 195 0 
195 196 0 
196 197 0 
197 198 0 
198 199 0 
199 200 0 
200 201 0 
201 202 0 
202 203 0 
203 204 0 
204 205 0 
205 206 0 
206 207 0 
207 208 0 
208 209 0 
209 210 0 
210 211 0 
211 212 0 
212 213 0 
213 214 0 
214 215 0 
215 216 0 
216 217 0 
217 218 0 
218 219 0 
219 220 0 
220 221 0 
221 222 0 
222 223 0 
223 224 0 
224 225 0 
225 226 0 
226 227 0 
227 228 0 
228 229 0 
229 230 0 
230 231 0 
231 232 0 
232 233 0 
233 234 0 
234 235 0 
235 236 0 
236 237 0 
237 238 0 
238 239 0 
239 240 0 
240 241 0 
241 242 0 
242 243 0 
243 244 0 
244 245 0 
245 246 0 
246 247 0 
247 248 0 
248 249 0 
249 250 0 
250 251 0 
251 252 0 
252 253 0 
253 254 0 
254 255 0 
255 256 0 
256 257 0 
257 258 0 
258 259 0 
259 260 0 
260 261 0 
261 262 0 
262 263 0 
263 264 0 
264 265 0 
265 266 0 
266 267 0 
267 268 0 
268 269 0 
269 270 0 
270 271 0 
271 272 0 
272 273 0 
273 274 0 
274 275 0 
275 276 0 
276 277 0 
277 278 0 
278 279 0 
279 280 0 
280 281 0 
281 282 0 
282 283 0 
283 284 0 
284 285 0 
285 286 0 
286 287 0 
287 288 0 
288 289 0 
289 290 0 
290 291 0 
291 292 0 
292 293 0 
293 294 0 
294 295 0 
295 296 0 
296 297 0 
297 298 0 
298 299 0 
-1 -1 0 
-1 300 0 1 2 3 4 5 6 7 8 9 10 11 12 13 14 15 16 17 18 19 20 21 22 23 24 25 26 27 28 29 30 31 32 33 34 35 36 37 38 39 40 41 42 43 44 45 46 47 48 49 50 51 52 53 54 55 56 57 58 59 60 61 62 63 64 65 66 67 68 69 70 71 72 73 74 75 76 77 78 79 80 81 82 83 84 85 86 87 88 89 90 91 92 93 94 95 96 97 98 99 100 101 102 103 104 105 106 107 108 109 110 111 112 113 114 115 116 117 118 119 120 121 122 123 124 125 126 127 128 129 130 131 132 133 134 135 136 137 138 139 140 141 142 143 144 145 146 147 148 149 150 151 152 153 154 155 156 157 158 159 160 161 162 163 164 165 166 167 168 169 170 171 172 173 174 175 176 177 178 179 180 181 182 183 184 185 186 187 188 189 190 191 192 193 194 195 196 197 198 199 200 201 202 203 204 205 206 207 208 209 210 211 212 213 214 215 216 217 218 219 220 221 222 223 224 225 226 227 228 229 230 231 232 233 234 235 236 237 238 239 240 241 242 243 244 245 246 247 248 249 250 251 252 253 254 255 256 257 258 259 260 261 262 263 264 265 266 267 268 269 270 271 272 273 274 275 276 277 278 279 280 281 282 283 284 285 286 287 288 289 290 291 292 293 294 295 296 297 298 299 
