ply
format ascii 1.0
comment written by koba@oshima.lab
element vertex 300
property float x
property float y
property float z
property int label
property int attribute
property float radius
property float curvature
property float torsion
element edge 300
property int vertex1
property int vertex2
property int label
element vertex_seq 1
property int label
property list int int vertex_indices
end_header
5.95857 29.3238 0.424005 0 0 1.5 0.0269627 0.0208976 
5.79654 29.0516 0.231516 0 0 1.5 0.026141 0.0223383 
5.6345 28.7793 0.0390257 0 0 1.5 0.0253089 0.0245318 
5.47247 28.5071 -0.153464 0 0 1.5 0.024451 0.0276245 
5.31043 28.2349 -0.345954 0 0 1.5 0.0226006 0.0373993 
5.14839 27.9627 -0.538444 0 0 1.5 0.0215783 0.0448179 
4.98636 27.6904 -0.730934 0 0 1.5 0.0204714 0.054726 
4.82432 27.4182 -0.923424 0 0 1.5 0.0192667 0.0681411 
4.66228 27.146 -1.11591 0 0 1.5 0.0165206 0.112575 
4.50025 26.8737 -1.3084 0 0 1.5 0.0149661 0.150849 
4.33821 26.6015 -1.50089 0 0 1.5 0.0132948 0.209997 
4.17617 26.3293 -1.69338 0 0 1.5 0.0115316 0.305739 
4.01414 26.057 -1.88587 0 0 1.5 0.0080926 0.738508 
3.8521 25.7848 -2.07836 0 0 1.5 0.00692698 1.09844 
3.69006 25.5126 -2.27085 0 0 1.5 0.00682067 1.23351 
3.52803 25.2404 -2.46334 0 0 1.5 0.0105562 0.610162 
3.36599 24.9681 -2.65583 0 0 1.5 0.0137613 0.392306 
3.20395 24.6959 -2.84832 0 0 1.5 0.0175115 0.265396 
3.04192 24.4237 -3.04081 0 0 1.5 0.0216935 0.18994 
2.87988 24.1514 -3.2333 0 0 1.5 0.0311489 0.112878 
2.71784 23.8792 -3.42579 0 0 1.5 0.0363737 0.0923787 
2.55581 23.607 -3.61828 0 0 1.5 0.0418973 0.0780304 
2.39377 23.3347 -3.81077 0 0 1.5 0.0476924 0.0678616 
2.23173 23.0625 -4.00326 0 0 1.5 0.0599848 0.0554513 
2.0697 22.7903 -4.19575 0 0 1.5 0.0663988 0.0517864 
1.90766 22.5181 -4.38824 0 0 1.5 0.0729125 0.0493676 
1.74562 22.2458 -4.58073 0 0 1.5 0.0859432 0.0474503 
1.58359 21.9736 -4.77322 0 0 1.5 0.092272 0.0475239 
1.42155 21.7014 -4.96571 0 0 1.5 0.0983214 0.0482693 
1.25951 21.4291 -5.1582 0 0 1.5 0.103958 0.0497467 
1.09748 21.1569 -5.35069 0 0 1.5 0.113419 0.0545802 
0.935439 20.8847 -5.54318 0 0 1.5 0.116951 0.0580648 
0.773403 20.6124 -5.73567 0 0 1.5 0.119491 0.0625489 
0.611366 20.3402 -5.92816 0 0 1.5 0.120906 0.0680641 
0.449329 20.068 -6.12065 0 0 1.5 0.120044 0.0828224 
0.248753 19.79 -6.2514 0 0 1.5 0.117666 0.093128 
0.027921 19.5089 -6.3497 0 0 1.5 0.113973 0.10609 
-0.221068 19.2381 -6.37486 0 0 1.5 0.109024 0.122396 
-0.476478 18.9695 -6.38335 0 0 1.5 0.0957476 0.172253 
-0.745653 18.7218 -6.32495 0 0 1.5 0.0876671 0.211707 
-1.01549 18.4759 -6.2616 0 0 1.5 0.078884 0.267263 
-1.28871 18.2497 -6.15391 0 0 1.5 0.0603307 0.471276 
-1.56196 18.025 -6.0436 0 0 1.5 0.0513952 0.658159 
-1.83547 17.8154 -5.9069 0 0 1.5 0.0436798 0.923877 
-2.10915 17.6071 -5.76874 0 0 1.5 0.0384676 1.21116 
-2.38423 17.4092 -5.61851 0 0 1.5 0.0406723 1.13996 
-2.66039 17.2124 -5.46873 0 0 1.5 0.0478804 0.85393 
-2.94139 17.0211 -5.32095 0 0 1.5 0.0574941 0.620889 
-3.22698 16.8303 -5.182 0 0 1.5 0.0684349 0.464581 
-3.51997 16.6405 -5.05736 0 0 1.5 0.0917938 0.299302 
-3.82521 16.4487 -4.97423 0 0 1.5 0.103467 0.256693 
-4.13649 16.2559 -4.93829 0 0 1.5 0.114755 0.22873 
-4.44844 16.0636 -4.97684 0 0 1.5 0.135259 0.198085 
-4.73902 15.8794 -5.11481 0 0 1.5 0.144122 0.190154 
-4.98206 15.7103 -5.33645 0 0 1.5 0.151839 0.185419 
-5.19151 15.5477 -5.59347 0 0 1.5 0.158275 0.182688 
-5.37811 15.3873 -5.87037 0 0 1.5 0.16713 0.179469 
-5.53774 15.2225 -6.16155 0 0 1.5 0.169548 0.178156 
-5.68653 15.0478 -6.45235 0 0 1.5 0.170683 0.176524 
-5.82632 14.8648 -6.74285 0 0 1.5 0.170646 0.17414 
-5.95567 14.6589 -7.02237 0 0 1.5 0.167598 0.166164 
-6.08238 14.447 -7.29881 0 0 1.5 0.164876 0.160568 
-6.19837 14.2022 -7.55186 0 0 1.5 0.161552 0.154139 
-6.31166 13.9504 -7.7984 0 0 1.5 0.153644 0.138296 
-6.41468 13.6718 -8.02025 0 0 1.5 0.149293 0.12924 
-6.51126 13.3823 -8.22939 0 0 1.5 0.144794 0.12004 
-6.59742 13.075 -8.41801 0 0 1.5 0.140219 0.110637 
-6.67218 12.7564 -8.59077 0 0 1.5 0.131061 0.0915393 
-6.73738 12.4281 -8.75018 0 0 1.5 0.126563 0.082858 
-6.78573 12.0908 -8.8953 0 0 1.5 0.122164 0.0748382 
-6.82655 11.7495 -9.03403 0 0 1.5 0.117895 0.0673952 
-6.84494 11.4031 -9.16421 0 0 1.5 0.109856 0.0556668 
-6.85874 11.0556 -9.29264 0 0 1.5 0.10614 0.0517044 
-6.84466 10.708 -9.42069 0 0 1.5 0.102666 0.0489608 
-6.82642 10.3611 -9.54955 0 0 1.5 0.0994679 0.0475234 
-6.78234 10.0188 -9.68494 0 0 1.5 0.0940527 0.0488937 
-6.7312 9.67903 -9.82339 0 0 1.5 0.0919269 0.0517019 
-6.6597 9.34645 -9.97068 0 0 1.5 0.090263 0.0556807 
-6.57886 9.01868 -10.1231 0 0 1.5 0.0885735 0.0661809 
-6.48364 8.69831 -10.2835 0 0 1.5 0.0886934 0.0724034 
-6.37884 8.38425 -10.4497 0 0 1.5 0.0895655 0.0785908 
-6.26471 8.07633 -10.6217 0 0 1.5 0.0912692 0.0841495 
-6.14217 7.77462 -10.7986 0 0 1.5 0.097493 0.0929009 
-6.01369 7.4773 -10.9789 0 0 1.5 0.102181 0.0956603 
-5.87805 7.18471 -11.1615 0 0 1.5 0.108024 0.0970412 
-5.73826 6.89488 -11.3456 0 0 1.5 0.115099 0.0973521 
-5.59143 6.60776 -11.5283 0 0 1.5 0.133282 0.0959143 
-5.44098 6.32203 -11.7104 0 0 1.5 0.144561 0.0945014 
-5.28168 6.03697 -11.8856 0 0 1.5 0.157412 0.0929995 
-5.11853 5.7522 -12.058 0 0 1.5 0.18816 0.0905326 
-4.94184 5.46654 -12.2145 0 0 1.5 0.206183 0.0896724 
-4.76139 5.18064 -12.3665 0 0 1.5 0.225987 0.0891931 
-4.55864 4.89361 -12.4842 0 0 1.5 0.247495 0.0891801 
-4.34778 4.60747 -12.5857 0 0 1.5 0.294749 0.0905965 
-4.11634 4.32402 -12.6449 0 0 1.5 0.319655 0.0919804 
-3.86794 4.05173 -12.6486 0 0 1.5 0.344488 0.0937746 
-3.60997 3.79246 -12.6057 0 0 1.5 0.368257 0.095897 
-3.34522 3.5602 -12.4901 0 0 1.5 0.407816 0.100585 
-3.09167 3.36813 -12.304 0 0 1.5 0.421045 0.102927 
-2.8512 3.20356 -12.0788 0 0 1.5 0.428423 0.105111 
-2.63101 3.0737 -11.8103 0 0 1.5 0.423711 0.108637 
-2.43973 2.97981 -11.5085 0 0 1.5 0.411963 0.110072 
-2.26092 2.90039 -11.1942 0 0 1.5 0.394986 0.111417 
-2.11596 2.85473 -10.8561 0 0 1.5 0.373997 0.112786 
-1.98444 2.82007 -10.5122 0 0 1.5 0.325117 0.11654 
-1.87712 2.8052 -10.1576 0 0 1.5 0.299469 0.119455 
-1.79093 2.80427 -9.79784 0 0 1.5 0.27419 0.123383 
-1.72159 2.81446 -9.43383 0 0 1.5 0.249876 0.128632 
-1.68144 2.83968 -9.06668 0 0 1.5 0.205523 0.144584 
-1.65121 2.87 -8.69846 0 0 1.5 0.185827 0.156075 
-1.65905 2.91489 -8.33068 0 0 1.5 0.167873 0.170595 
-1.67613 2.96249 -7.96379 0 0 1.5 0.151662 0.188785 
-1.72409 3.01855 -7.60051 0 0 1.5 0.124461 0.237985 
-1.78743 3.07715 -7.24041 0 0 1.5 0.113549 0.268963 
-1.86899 3.13876 -6.88408 0 0 1.5 0.104534 0.30286 
-1.96984 3.20076 -6.533 0 0 1.5 0.092718 0.365857 
-2.07778 3.26292 -6.18385 0 0 1.5 0.0902032 0.384657 
-2.20464 3.32027 -5.84029 0 0 1.5 0.0900564 0.389172 
-2.33494 3.3747 -5.49763 0 0 1.5 0.0922357 0.378907 
-2.47517 3.4207 -5.15758 0 0 1.5 0.10296 0.328167 
-2.62071 3.45707 -4.81877 0 0 1.5 0.111056 0.297408 
-2.77152 3.4839 -4.4812 0 0 1.5 0.120651 0.267929 
-2.92974 3.48954 -4.14628 0 0 1.5 0.131524 0.241359 
-3.09053 3.48785 -3.81227 0 0 1.5 0.156237 0.198323 
-3.26092 3.44844 -3.48544 0 0 1.5 0.169596 0.181536 
-3.43333 3.39669 -3.1621 0 0 1.5 0.183265 0.167385 
-3.61134 3.30981 -2.84876 0 0 1.5 0.210142 0.144671 
-3.79014 3.19388 -2.5468 0 0 1.5 0.222492 0.135348 
-3.96962 3.05337 -2.25445 0 0 1.5 0.233479 0.127058 
-4.1414 2.86472 -1.98648 0 0 1.5 0.242609 0.11943 
-4.30754 2.65756 -1.7292 0 0 1.5 0.253484 0.105316 
-4.45533 2.40673 -1.49973 0 0 1.5 0.254587 0.0988552 
-4.58319 2.1308 -1.29066 0 0 1.5 0.252638 0.0926517 
-4.69425 1.83369 -1.0988 0 0 1.5 0.247715 0.0866131 
-4.76343 1.50663 -0.939994 0 0 1.5 0.230069 0.0760299 
-4.81661 1.17181 -0.792262 0 0 1.5 0.218217 0.0716752 
-4.83132 0.822361 -0.669445 0 0 1.5 0.205 0.0678916 
-4.82383 0.469609 -0.558533 0 0 1.5 0.190892 0.0649559 
-4.79483 0.11366 -0.459153 0 0 1.5 0.161677 0.0625664 
-4.74203 -0.2418 -0.369465 0 0 1.5 0.147226 0.0632362 
-4.68079 -0.597086 -0.283217 0 0 1.5 0.133191 0.0655734 
-4.60264 -0.94971 -0.199915 0 0 1.5 0.106926 0.0774248 
-4.52267 -1.30195 -0.116577 0 0 1.5 0.0948616 0.0882283 
-4.43823 -1.65201 -0.0285711 0 0 1.5 0.0835698 0.103842 
-4.35518 -2.00186 0.0614334 0 0 1.5 0.0730678 0.126255 
-4.27799 -2.35082 0.159855 0 0 1.5 0.054544 0.203816 
-4.20593 -2.6996 0.262258 0 0 1.5 0.0466576 0.267887 
-4.1447 -3.04802 0.37305 0 0 1.5 0.0398676 0.35492 
-4.09232 -3.39613 0.488654 0 0 1.5 0.034438 0.461762 
-4.05075 -3.74388 0.610139 0 0 1.5 0.0292375 0.604523 
-4.01911 -4.0913 0.735158 0 0 1.5 0.0300177 0.555392 
-3.9951 -4.43847 0.862896 0 0 1.5 0.0328436 0.447069 
-3.97805 -4.78585 0.991068 0 0 1.5 0.0427345 0.238646 
-3.96467 -5.13334 1.11947 0 0 1.5 0.0490322 0.169167 
-3.95191 -5.48202 1.24468 0 0 1.5 0.0559366 0.119003 
-3.93939 -5.83116 1.36861 0 0 1.5 0.0633465 0.0825367 
-3.91965 -6.18208 1.48629 0 0 1.5 0.0794846 0.0356141 
-3.89749 -6.5336 1.60189 0 0 1.5 0.0881438 0.0202733 
-3.86036 -6.88624 1.70958 0 0 1.5 0.0971565 0.00825171 
-3.81889 -7.23921 1.81498 0 0 1.5 0.106483 -0.0014282 
-3.75548 -7.59096 1.91271 0 0 1.5 0.125792 -0.0162892 
-3.68708 -7.94242 2.00869 0 0 1.5 0.135568 -0.0222975 
-3.59026 -8.28825 2.10002 0 0 1.5 0.145237 -0.0278128 
-3.48859 -8.63287 2.19093 0 0 1.5 0.163517 -0.0383398 
-3.35451 -8.96546 2.28486 0 0 1.5 0.171683 -0.0436507 
-3.21054 -9.29188 2.38369 0 0 1.5 0.178876 -0.0491524 
-3.04333 -9.60378 2.49404 0 0 1.5 0.184864 -0.0549356 
-2.85599 -9.89291 2.62843 0 0 1.5 0.192412 -0.0677775 
-2.65527 -10.1593 2.78676 0 0 1.5 0.193665 -0.0748792 
-2.44099 -10.3877 2.98508 0 0 1.5 0.193171 -0.082291 
-2.22802 -10.5503 3.2404 0 0 1.5 0.190979 -0.0901009 
-2.02892 -10.658 3.53122 0 0 1.5 0.181984 -0.107157 
-1.84497 -10.7211 3.84535 0 0 1.5 0.175565 -0.116154 
-1.67372 -10.7521 4.17254 0 0 1.5 0.168185 -0.125517 
-1.5102 -10.758 4.50517 0 0 1.5 0.160089 -0.135365 
-1.34114 -10.7588 4.83502 0 0 1.5 0.142725 -0.155774 
-1.16633 -10.7571 5.16179 0 0 1.5 0.133921 -0.165924 
-0.970334 -10.7589 5.47644 0 0 1.5 0.125291 -0.175798 
-0.757127 -10.765 5.77894 0 0 1.5 0.1091 -0.194176 
-0.52843 -10.775 6.07051 0 0 1.5 0.101735 -0.20195 
-0.269144 -10.7911 6.33459 0 0 1.5 0.0949353 -0.207965 
2.39782e-05 -10.8083 6.58824 0 0 1.5 0.0887247 -0.212058 
0.291492 -10.827 6.81652 0 0 1.5 0.078053 -0.213444 
0.593246 -10.844 7.03042 0 0 1.5 0.0735377 -0.209428 
0.905533 -10.8592 7.22957 0 0 1.5 0.0695058 -0.202333 
1.22702 -10.8698 7.41345 0 0 1.5 0.0658973 -0.192656 
1.5523 -10.8785 7.59103 0 0 1.5 0.059694 -0.164727 
1.88339 -10.8811 7.75766 0 0 1.5 0.0569671 -0.146986 
2.21533 -10.8828 7.92267 0 0 1.5 0.0544084 -0.127724 
2.54915 -10.8801 8.08383 0 0 1.5 0.049603 -0.083768 
2.88275 -10.8772 8.24545 0 0 1.5 0.0472821 -0.0591019 
3.21529 -10.8738 8.40923 0 0 1.5 0.0449808 -0.0331455 
3.54677 -10.8714 8.57512 0 0 1.5 0.042687 -0.00537013 
3.8762 -10.8709 8.74509 0 0 1.5 0.0381298 0.0577167 
4.20373 -10.8732 8.91863 0 0 1.5 0.0358905 0.09311 
4.52952 -10.878 9.09542 0 0 1.5 0.0337064 0.131452 
4.85348 -10.8863 9.2754 0 0 1.5 0.0316117 0.17282 
5.17671 -10.896 9.45662 0 0 1.5 0.0278521 0.259301 
5.49959 -10.9079 9.63835 0 0 1.5 0.0262638 0.300038 
5.82271 -10.9199 9.81964 0 0 1.5 0.0249149 0.335074 
6.14761 -10.9308 9.99779 0 0 1.5 0.0229872 0.376952 
6.47377 -10.9401 10.1737 0 0 1.5 0.0223768 0.381318 
6.80251 -10.9461 10.3449 0 0 1.5 0.0219439 0.375996 
7.13343 -10.9481 10.5118 0 0 1.5 0.0216232 0.364913 
7.46641 -10.9464 10.6747 0 0 1.5 0.0210379 0.342601 
7.80173 -10.9376 10.8324 0 0 1.5 0.0206381 0.338758 
8.13812 -10.9256 10.9877 0 0 1.5 0.0200928 0.344967 
8.47587 -10.9034 11.1388 0 0 1.5 0.0193789 0.364984 
8.81388 -10.8793 11.2891 0 0 1.5 0.0174809 0.465582 
9.15107 -10.8415 11.4383 0 0 1.5 0.0164104 0.556739 
9.48778 -10.8014 11.588 0 0 1.5 0.0154507 0.672884 
9.8215 -10.7481 11.7404 0 0 1.5 0.0148479 0.790689 
10.1535 -10.6903 11.8946 0 0 1.5 0.0158816 0.831917 
10.4813 -10.6214 12.0534 0 0 1.5 0.0178883 0.719197 
10.8059 -10.5464 12.2158 0 0 1.5 0.020847 0.578792 
11.1264 -10.4639 12.3827 0 0 1.5 0.0289751 0.352262 
11.4428 -10.3758 12.5546 0 0 1.5 0.0338403 0.276253 
11.7565 -10.2843 12.7295 0 0 1.5 0.039074 0.219393 
12.0668 -10.1917 12.9099 0 0 1.5 0.0445774 0.176585 
12.3763 -10.0988 13.0916 0 0 1.5 0.0560384 0.117958 
12.6852 -10.0144 13.2783 0 0 1.5 0.0618185 0.0972999 
12.9947 -9.93388 13.4656 0 0 1.5 0.0675112 0.0803639 
13.3064 -9.86952 13.6556 0 0 1.5 0.0730237 0.0663371 
13.6198 -9.81896 13.8464 0 0 1.5 0.0831534 0.0444757 
13.9354 -9.78637 14.0382 0 0 1.5 0.0875877 0.035511 
14.2518 -9.78319 14.2303 0 0 1.5 0.0914812 0.0275943 
14.5686 -9.79229 14.4226 0 0 1.5 0.0973769 0.0143214 
14.8807 -9.84851 14.6145 0 0 1.5 0.0992625 0.00839997 
15.1896 -9.91829 14.8061 0 0 1.5 0.10038 0.00291076 
15.4903 -10.0206 14.9971 0 0 1.5 0.100721 -0.00209647 
15.782 -10.1451 15.188 0 0 1.5 0.0991154 -0.0113681 
16.0666 -10.2866 15.3787 0 0 1.5 0.0972191 -0.0157812 
16.3377 -10.4507 15.5706 0 0 1.5 0.0946659 -0.020005 
16.6051 -10.6209 15.7628 0 0 1.5 0.0915278 -0.0241435 
16.8578 -10.8077 15.9593 0 0 1.5 0.0837952 -0.0325471 
17.1091 -10.9958 16.1565 0 0 1.5 0.0793603 -0.0369757 
17.3496 -11.19 16.3611 0 0 1.5 0.0746555 -0.0416647 
17.589 -11.3836 16.5675 0 0 1.5 0.0697567 -0.0467018 
17.8219 -11.5742 16.784 0 0 1.5 0.0596548 -0.0587025 
18.0539 -11.7618 17.0037 0 0 1.5 0.0545782 -0.0660951 
18.2829 -11.9384 17.2357 0 0 1.5 0.0495597 -0.0746801 
18.5118 -12.115 17.4677 0 0 1.5 0.0398802 -0.0980133 
18.7407 -12.2916 17.6997 0 0 1.5 0.0352928 -0.11442 
18.9696 -12.4683 17.9317 0 0 1.5 0.0309189 -0.135345 
19.1985 -12.6449 18.1637 0 0 1.5 0.02679 -0.162927 
19.4275 -12.8215 18.3957 0 0 1.5 0.0193654 -0.253039 
19.6564 -12.9981 18.6277 0 0 1.5 0.016132 -0.326578 
19.8853 -13.1747 18.8597 0 0 1.5 0.0132757 -0.430769 
20.1142 -13.3513 19.0916 0 0 1.5 0.0108562 -0.575285 
20.3431 -13.528 19.3236 0 0 1.5 0.00769253 -0.908766 
20.5721 -13.7046 19.5556 0 0 1.5 0.00710953 -0.944813 
20.801 -13.8812 19.7876 0 0 1.5 0.00713293 -0.83387 
21.0299 -14.0578 20.0196 0 0 1.5 0.00817979 -0.49891 
21.2588 -14.2344 20.2516 0 0 1.5 0.0088322 -0.379027 
21.4878 -14.411 20.4836 0 0 1.5 0.00942823 -0.295089 
21.7167 -14.5877 20.7156 0 0 1.5 0.00992069 -0.236667 
21.9456 -14.7643 20.9476 0 0 1.5 0.0105178 -0.166047 
22.1745 -14.9409 21.1795 0 0 1.5 0.0106136 -0.145042 
22.4034 -15.1175 21.4115 0 0 1.5 0.0105792 -0.129924 
22.6324 -15.2941 21.6435 0 0 1.5 0.0104231 -0.11903 
22.8613 -15.4707 21.8755 0 0 1.5 0.00978972 -0.107013 
23.0902 -15.6474 22.1075 0 0 1.5 0.00933797 -0.10496 
23.3191 -15.824 22.3395 0 0 1.5 0.00881502 -0.105044 
23.548 -16.0006 22.5715 0 0 1.5 0.00761167 -0.112403 
23.777 -16.1772 22.8035 0 0 1.5 0.00695674 -0.120458 
24.0059 -16.3538 23.0355 0 0 1.5 0.00628373 -0.132065 
24.2348 -16.5304 23.2674 0 0 1.5 0.00560545 -0.148489 
24.4637 -16.7071 23.4994 0 0 1.5 0.00427406 -0.205549 
24.6926 -16.8837 23.7314 0 0 1.5 0.00364226 -0.253769 
24.9216 -17.0603 23.9634 0 0 1.5 0.00304861 -0.324855 
25.1505 -17.2369 24.1954 0 0 1.5 0.00250467 -0.432724 
25.3794 -17.4135 24.4274 0 0 1.5 0.00163679 -0.82084 
25.6083 -17.5901 24.6594 0 0 1.5 0.00136855 -1.05752 
25.8373 -17.7668 24.8914 0 0 1.5 0.0012496 -1.14624 
26.0662 -17.9434 25.1234 0 0 1.5 0.00127557 -0.996145 
26.2951 -18.12 25.3554 0 0 1.5 0.00157142 -0.539799 
26.524 -18.2966 25.5873 0 0 1.5 0.00175187 -0.39623 
26.7529 -18.4732 25.8193 0 0 1.5 0.00192284 -0.301164 
26.9819 -18.6498 26.0513 0 0 1.5 0.00220345 -0.193546 
27.2108 -18.8265 26.2833 0 0 1.5 0.00230747 -0.162948 
27.4397 -19.0031 26.5153 0 0 1.5 0.00238722 -0.140866 
27.6686 -19.1797 26.7473 0 0 1.5 0.00244396 -0.12438 
27.8975 -19.3563 26.9793 0 0 1.5 0.00249613 -0.102551 
28.1265 -19.5329 27.2113 0 0 1.5 0.00249646 -0.09522 
28.3554 -19.7095 27.4433 0 0 1.5 0.00248323 -0.0891971 
28.5843 -19.8862 27.6752 0 0 1.5 0.00245912 -0.0841599 
28.8132 -20.0628 27.9072 0 0 1.5 0.00238704 -0.0762204 
29.0422 -20.2394 28.1392 0 0 1.5 0.00234337 -0.0726343 
29.2711 -20.416 28.3712 0 0 1.5 0.00229733 -0.0691204 
29.5 -20.5926 28.6032 0 0 1.5 0.00220329 -0.0622713 
29.7289 -20.7692 28.8352 0 0 1.5 0.00215764 -0.0586326 
29.9578 -20.9459 29.0672 0 0 1.5 0.0021143 -0.0548591 
30.1868 -21.1225 29.2992 0 0 1.5 0.00207367 -0.051106 
30.4157 -21.2991 29.5312 0 0 1.5 0.00200144 -0.0436611 
30.6446 -21.4757 29.7632 0 0 1.5 0.00197025 -0.0400853 
30.8735 -21.6523 29.9951 0 0 1.5 0.00194216 -0.0368036 
31.1024 -21.8289 30.2271 0 0 1.5 0.00191683 -0.0338851 
31.3314 -22.0055 30.4591 0 0 1.5 0.00187323 -0.029381 
31.5603 -22.1822 30.6911 0 0 1.5 0.00185419 -0.027905 
31.7892 -22.3588 30.9231 0 0 1.5 0.00183639 -0.0270209 
0 1 0 
1 2 0 
2 3 0 
3 4 0 
4 5 0 
5 6 0 
6 7 0 
7 8 0 
8 9 0 
9 10 0 
10 11 0 
11 12 0 
12 13 0 
13 14 0 
14 15 0 
15 16 0 
16 17 0 
17 18 0 
18 19 0 
19 20 0 
20 21 0 
21 22 0 
22 23 0 
23 24 0 
24 25 0 
25 26 0 
26 27 0 
27 28 0 
28 29 0 
29 30 0 
30 31 0 
31 32 0 
32 33 0 
33 34 0 
34 35 0 
35 36 0 
36 37 0 
37 38 0 
38 39 0 
39 40 0 
40 41 0 
41 42 0 
42 43 0 
43 44 0 
44 45 0 
45 46 0 
46 47 0 
47 48 0 
48 49 0 
49 50 0 
50 51 0 
51 52 0 
52 53 0 
53 54 0 
54 55 0 
55 56 0 
56 57 0 
57 58 0 
58 59 0 
59 60 0 
60 61 0 
61 62 0 
62 63 0 
63 64 0 
64 65 0 
65 66 0 
66 67 0 
67 68 0 
68 69 0 
69 70 0 
70 71 0 
71 72 0 
72 73 0 
73 74 0 
74 75 0 
75 76 0 
76 77 0 
77 78 0 
78 79 0 
79 80 0 
80 81 0 
81 82 0 
82 83 0 
83 84 0 
84 85 0 
85 86 0 
86 87 0 
87 88 0 
88 89 0 
89 90 0 
90 91 0 
91 92 0 
92 93 0 
93 94 0 
94 95 0 
95 96 0 
96 97 0 
97 98 0 
98 99 0 
99 100 0 
100 101 0 
101 102 0 
102 103 0 
103 104 0 
104 105 0 
105 106 0 
106 107 0 
107 108 0 
108 109 0 
109 110 0 
110 111 0 
111 112 0 
112 113 0 
113 114 0 
114 115 0 
115 116 0 
116 117 0 
117 118 0 
118 119 0 
119 120 0 
120 121 0 
121 122 0 
122 123 0 
123 124 0 
124 125 0 
125 126 0 
126 127 0 
127 128 0 
128 129 0 
129 130 0 
130 131 0 
131 132 0 
132 133 0 
133 134 0 
134 135 0 
135 136 0 
136 137 0 
137 138 0 
138 139 0 
139 140 0 
140 141 0 
141 142 0 
142 143 0 
143 144 0 
144 145 0 
145 146 0 
146 147 0 
147 148 0 
148 149 0 
149 150 0 
150 151 0 
151 152 0 
152 153 0 
153 154 0 
154 155 0 
155 156 0 
156 157 0 
157 158 0 
158 159 0 
159 160 0 
160 161 0 
161 162 0 
162 163 0 
163 164 0 
164 165 0 
165 166 0 
166 167 0 
167 168 0 
168 169 0 
169 170 0 
170 171 0 
171 172 0 
172 173 0 
173 174 0 
174 175 0 
175 176 0 
176 177 0 
177 178 0 
178 179 0 
179 180 0 
180 181 0 
181 182 0 
182 183 0 
183 184 0 
184 185 0 
185 186 0 
186 187 0 
187 188 0 
188 189 0 
189 190 0 
190 191 0 
191 192 0 
192 193 0 
193 194 0 
194 195 0 
195 196 0 
196 197 0 
197 198 0 
198 199 0 
199 200 0 
200 201 0 
201 202 0 
202 203 0 
203 204 0 
204 205 0 
205 206 0 
206 207 0 
207 208 0 
208 209 0 
209 210 0 
210 211 0 
211 212 0 
212 213 0 
213 214 0 
214 215 0 
215 216 0 
216 217 0 
217 218 0 
218 219 0 
219 220 0 
220 221 0 
221 222 0 
222 223 0 
223 224 0 
224 225 0 
225 226 0 
226 227 0 
227 228 0 
228 229 0 
229 230 0 
230 231 0 
231 232 0 
232 233 0 
233 234 0 
234 235 0 
235 236 0 
236 237 0 
237 238 0 
238 239 0 
239 240 0 
240 241 0 
241 242 0 
242 243 0 
243 244 0 
244 245 0 
245 246 0 
246 247 0 
247 248 0 
248 249 0 
249 250 0 
250 251 0 
251 252 0 
252 253 0 
253 254 0 
254 255 0 
255 256 0 
256 257 0 
257 258 0 
258 259 0 
259 260 0 
260 261 0 
261 262 0 
262 263 0 
263 264 0 
264 265 0 
265 266 0 
266 267 0 
267 268 0 
268 269 0 
269 270 0 
270 271 0 
271 272 0 
272 273 0 
273 274 0 
274 275 0 
275 276 0 
276 277 0 
277 278 0 
278 279 0 
279 280 0 
280 281 0 
281 282 0 
282 283 0 
283 284 0 
284 285 0 
285 286 0 
286 287 0 
287 288 0 
288 289 0 
289 290 0 
290 291 0 
291 292 0 
292 293 0 
293 294 0 
294 295 0 
295 296 0 
296 297 0 
297 298 0 
298 299 0 
-1 -1 0 
-1 300 0 1 2 3 4 5 6 7 8 9 10 11 12 13 14 15 16 17 18 19 20 21 22 23 24 25 26 27 28 29 30 31 32 33 34 35 36 37 38 39 40 41 42 43 44 45 46 47 48 49 50 51 52 53 54 55 56 57 58 59 60 61 62 63 64 65 66 67 68 69 70 71 72 73 74 75 76 77 78 79 80 81 82 83 84 85 86 87 88 89 90 91 92 93 94 95 96 97 98 99 100 101 102 103 104 105 106 107 108 109 110 111 112 113 114 115 116 117 118 119 120 121 122 123 124 125 126 127 128 129 130 131 132 133 134 135 136 137 138 139 140 141 142 143 144 145 146 147 148 149 150 151 152 153 154 155 156 157 158 159 160 161 162 163 164 165 166 167 168 169 170 171 172 173 174 175 176 177 178 179 180 181 182 183 184 185 186 187 188 189 190 191 192 193 194 195 196 197 198 199 200 201 202 203 204 205 206 207 208 209 210 211 212 213 214 215 216 217 218 219 220 221 222 223 224 225 226 227 228 229 230 231 232 233 234 235 236 237 238 239 240 241 242 243 244 245 246 247 248 249 250 251 252 253 254 255 256 257 258 259 260 261 262 263 264 265 266 267 268 269 270 271 272 273 274 275 276 277 278 279 280 281 282 283 284 285 286 287 288 289 290 291 292 293 294 295 296 297 298 299 
