ply
format ascii 1.0
comment written by koba@oshima.lab
element vertex 300
property float x
property float y
property float z
property int label
property int attribute
property float radius
property float curvature
property float torsion
element edge 300
property int vertex1
property int vertex2
property int label
element vertex_seq 1
property int label
property list int int vertex_indices
end_header
-3.46116 30.6972 -12.051 0 0 1.5 0.035985 -0.0236093 
-3.50186 30.4077 -11.9163 0 0 1.5 0.0356826 -0.0240483 
-3.54256 30.1182 -11.7817 0 0 1.5 0.0353749 -0.0247964 
-3.58326 29.8287 -11.6471 0 0 1.5 0.0350601 -0.0258615 
-3.62395 29.5392 -11.5124 0 0 1.5 0.0344023 -0.0289697 
-3.66465 29.2496 -11.3778 0 0 1.5 0.0340539 -0.0310238 
-3.70535 28.9601 -11.2432 0 0 1.5 0.0336876 -0.0334377 
-3.74605 28.6706 -11.1085 0 0 1.5 0.0332999 -0.0362393 
-3.78675 28.3811 -10.9739 0 0 1.5 0.03244 -0.0429769 
-3.82744 28.0916 -10.8393 0 0 1.5 0.031952 -0.0470086 
-3.86814 27.8021 -10.7046 0 0 1.5 0.0314148 -0.0516136 
-3.90884 27.5125 -10.57 0 0 1.5 0.0308202 -0.0568332 
-3.94954 27.223 -10.4354 0 0 1.5 0.0294089 -0.0697116 
-3.99024 26.9335 -10.3007 0 0 1.5 0.0285678 -0.0779992 
-4.03093 26.644 -10.1661 0 0 1.5 0.0276212 -0.0879942 
-4.07163 26.3545 -10.0315 0 0 1.5 0.025358 -0.11584 
-4.11233 26.065 -9.89684 0 0 1.5 0.0240186 -0.136214 
-4.15303 25.7754 -9.7622 0 0 1.5 0.0225306 -0.163483 
-4.19373 25.4859 -9.62757 0 0 1.5 0.0208916 -0.201044 
-4.23442 25.1964 -9.49294 0 0 1.5 0.0172029 -0.334553 
-4.27512 24.9069 -9.35831 0 0 1.5 0.0152291 -0.4558 
-4.31582 24.6174 -9.22367 0 0 1.5 0.0133023 -0.639616 
-4.35652 24.3279 -9.08904 0 0 1.5 0.0116457 -0.896919 
-4.39722 24.0383 -8.95441 0 0 1.5 0.0107952 -1.22205 
-4.43791 23.7488 -8.81978 0 0 1.5 0.0123516 -1.01587 
-4.47861 23.4593 -8.68514 0 0 1.5 0.015163 -0.736836 
-4.51931 23.1698 -8.55051 0 0 1.5 0.0234347 -0.37329 
-4.56001 22.8803 -8.41588 0 0 1.5 0.0285401 -0.277454 
-4.60071 22.5907 -8.28124 0 0 1.5 0.0341728 -0.213691 
-4.6414 22.3012 -8.14661 0 0 1.5 0.0402946 -0.170104 
-4.6821 22.0117 -8.01198 0 0 1.5 0.0539204 -0.115988 
-4.7228 21.7222 -7.87735 0 0 1.5 0.0613809 -0.0985908 
-4.7635 21.4327 -7.74271 0 0 1.5 0.069247 -0.0852232 
-4.8042 21.1432 -7.60808 0 0 1.5 0.0774953 -0.0744914 
-4.84489 20.8536 -7.47345 0 0 1.5 0.0949608 -0.0579145 
-4.88559 20.5641 -7.33881 0 0 1.5 0.10406 -0.0514245 
-4.92629 20.2746 -7.20418 0 0 1.5 0.113301 -0.0455649 
-4.96699 19.9851 -7.06955 0 0 1.5 0.122578 -0.0399862 
-5.00769 19.6956 -6.93492 0 0 1.5 0.140713 -0.0294083 
-5.04838 19.4061 -6.80028 0 0 1.5 0.149257 -0.0240894 
-5.1131 19.1083 -6.70011 0 0 1.5 0.157223 -0.018444 
-5.18736 18.8073 -6.61364 0 0 1.5 0.170666 -0.00593811 
-5.29156 18.507 -6.56697 0 0 1.5 0.175777 0.00110686 
-5.40425 18.2081 -6.53084 0 0 1.5 0.179613 0.00885003 
-5.54657 17.9194 -6.5285 0 0 1.5 0.182062 0.0174296 
-5.70251 17.639 -6.53794 0 0 1.5 0.18255 0.0377408 
-5.8769 17.3696 -6.56334 0 0 1.5 0.180594 0.0497671 
-6.0747 17.1191 -6.60108 0 0 1.5 0.177265 0.0634515 
-6.28353 16.8783 -6.6432 0 0 1.5 0.172684 0.0792522 
-6.51693 16.6615 -6.68934 0 0 1.5 0.160462 0.11781 
-6.76386 16.4606 -6.73265 0 0 1.5 0.153273 0.141495 
-7.02269 16.2736 -6.77348 0 0 1.5 0.145695 0.169202 
-7.30095 16.1148 -6.80268 0 0 1.5 0.130466 0.237155 
-7.58559 15.9672 -6.82586 0 0 1.5 0.123431 0.277239 
-7.87972 15.8372 -6.83934 0 0 1.5 0.117229 0.320382 
-8.18054 15.7233 -6.84338 0 0 1.5 0.112229 0.363243 
-8.48414 15.6165 -6.8436 0 0 1.5 0.107337 0.426692 
-8.79159 15.5213 -6.83907 0 0 1.5 0.108094 0.436986 
-9.09972 15.4284 -6.83672 0 0 1.5 0.111259 0.429466 
-9.40854 15.3376 -6.83651 0 0 1.5 0.116864 0.406422 
-9.71584 15.2429 -6.84931 0 0 1.5 0.134938 0.336173 
-10.0215 15.1448 -6.86974 0 0 1.5 0.147012 0.299391 
-10.322 15.0367 -6.91007 0 0 1.5 0.160804 0.265721 
-10.6143 14.9176 -6.96987 0 0 1.5 0.192533 0.211258 
-10.9008 14.7908 -7.04337 0 0 1.5 0.209895 0.190476 
-11.1646 14.6426 -7.15303 0 0 1.5 0.227803 0.173493 
-11.4154 14.486 -7.27741 0 0 1.5 0.245834 0.159716 
-11.645 14.3157 -7.42529 0 0 1.5 0.280138 0.139851 
-11.8417 14.1313 -7.59944 0 0 1.5 0.295204 0.133021 
-12.0199 13.9406 -7.78648 0 0 1.5 0.308037 0.127825 
-12.1563 13.7396 -7.99768 0 0 1.5 0.318032 0.124047 
-12.2607 13.5358 -8.22191 0 0 1.5 0.327751 0.11999 
-12.3412 13.3299 -8.45583 0 0 1.5 0.327118 0.119439 
-12.3656 13.1273 -8.7045 0 0 1.5 0.322936 0.119831 
-12.3681 12.9284 -8.95612 0 0 1.5 0.315541 0.121086 
-12.3354 12.7362 -9.21219 0 0 1.5 0.293321 0.125962 
-12.2664 12.5545 -9.46777 0 0 1.5 0.279755 0.12974 
-12.1812 12.3777 -9.72263 0 0 1.5 0.265382 0.134414 
-12.0587 12.214 -9.97124 0 0 1.5 0.236496 0.146173 
-11.9238 12.0543 -10.2154 0 0 1.5 0.222921 0.153216 
-11.7699 11.9008 -10.4527 0 0 1.5 0.210421 0.160773 
-11.5998 11.7496 -10.68 0 0 1.5 0.199309 0.168407 
-11.4223 11.5994 -10.9026 0 0 1.5 0.182245 0.181701 
-11.2283 11.445 -11.1077 0 0 1.5 0.176696 0.186027 
-11.0307 11.2876 -11.3069 0 0 1.5 0.173355 0.187915 
-10.824 11.1212 -11.489 0 0 1.5 0.17234 0.186817 
-10.6135 10.9462 -11.6577 0 0 1.5 0.177521 0.175499 
-10.3994 10.763 -11.8131 0 0 1.5 0.183713 0.166412 
-10.1826 10.5655 -11.945 0 0 1.5 0.192232 0.156025 
-9.96511 10.3636 -12.0695 0 0 1.5 0.215827 0.134389 
-9.7475 10.1448 -12.161 0 0 1.5 0.230624 0.124532 
-9.53033 9.92317 -12.2453 0 0 1.5 0.247177 0.115691 
-9.31477 9.69117 -12.3028 0 0 1.5 0.265221 0.107927 
-9.10049 9.45568 -12.3467 0 0 1.5 0.304255 0.0961581 
-8.88814 9.21489 -12.3697 0 0 1.5 0.324195 0.0920978 
-8.67805 8.97172 -12.3723 0 0 1.5 0.343464 0.0891074 
-8.46965 8.72675 -12.3594 0 0 1.5 0.361163 0.0871584 
-8.26525 8.48261 -12.3155 0 0 1.5 0.387973 0.0862241 
-8.06249 8.2392 -12.2597 0 0 1.5 0.3952 0.0871671 
-7.86748 8.00377 -12.159 0 0 1.5 0.397311 0.0889881 
-7.67963 7.77814 -12.0309 0 0 1.5 0.385263 0.0951901 
-7.50059 7.56463 -11.8703 0 0 1.5 0.37157 0.0998373 
-7.34888 7.39076 -11.6459 0 0 1.5 0.353613 0.105611 
-7.22694 7.25968 -11.3819 0 0 1.5 0.332348 0.11257 
-7.13728 7.17436 -11.0878 0 0 1.5 0.283901 0.131735 
-7.078 7.13157 -10.7749 0 0 1.5 0.258504 0.14499 
-7.05181 7.13393 -10.4541 0 0 1.5 0.2333 0.161521 
-7.04015 7.15424 -10.1335 0 0 1.5 0.208821 0.182505 
-7.03715 7.18436 -9.81305 0 0 1.5 0.16346 0.244888 
-7.04221 7.21932 -9.49312 0 0 1.5 0.143056 0.291202 
-7.04779 7.24633 -9.1725 0 0 1.5 0.124423 0.352296 
-7.05365 7.26702 -8.85138 0 0 1.5 0.107763 0.432343 
-7.05541 7.2563 -8.52969 0 0 1.5 0.0815472 0.654026 
-7.05449 7.2221 -8.21054 0 0 1.5 0.0728574 0.771395 
-7.0508 7.16326 -7.89418 0 0 1.5 0.0677312 0.846486 
-7.04456 7.05095 -7.5926 0 0 1.5 0.0683355 0.766757 
-7.03985 6.9119 -7.30362 0 0 1.5 0.0730006 0.652754 
-7.03672 6.74896 -7.02619 0 0 1.5 0.0794567 0.538617 
-7.04116 6.55085 -6.77254 0 0 1.5 0.0869361 0.442441 
-7.05042 6.34192 -6.52841 0 0 1.5 0.102848 0.309836 
-7.06514 6.12075 -6.29502 0 0 1.5 0.110537 0.266267 
-7.08757 5.88897 -6.07295 0 0 1.5 0.117676 0.233221 
-7.11223 5.6541 -5.85427 0 0 1.5 0.124072 0.207954 
-7.14085 5.41359 -5.64229 0 0 1.5 0.134019 0.172755 
-7.16792 5.17122 -5.43225 0 0 1.5 0.137315 0.160529 
-7.193 4.92646 -5.22473 0 0 1.5 0.139395 0.150994 
-7.20701 4.67839 -5.02023 0 0 1.5 0.139843 0.137375 
-7.21442 4.42868 -4.81746 0 0 1.5 0.13825 0.132808 
-7.19627 4.17436 -4.62102 0 0 1.5 0.135539 0.129823 
-7.15707 3.91819 -4.43134 0 0 1.5 0.131818 0.128164 
-7.09797 3.66028 -4.24806 0 0 1.5 0.121854 0.128616 
-6.99245 3.40398 -4.08456 0 0 1.5 0.115905 0.131488 
-6.86591 3.15155 -3.93208 0 0 1.5 0.10952 0.136258 
-6.71603 2.90355 -3.79196 0 0 1.5 0.102853 0.142957 
-6.53675 2.66637 -3.66911 0 0 1.5 0.0892557 0.164638 
-6.34884 2.43363 -3.55078 0 0 1.5 0.0826047 0.180477 
-6.14818 2.20825 -3.43878 0 0 1.5 0.0762306 0.19968 
-5.94337 1.98753 -3.32513 0 0 1.5 0.0702605 0.222338 
-5.73656 1.7691 -3.21057 0 0 1.5 0.0600039 0.275522 
-5.5356 1.55293 -3.08217 0 0 1.5 0.0559663 0.301225 
-5.34122 1.3362 -2.94561 0 0 1.5 0.0528229 0.321079 
-5.15861 1.11847 -2.79445 0 0 1.5 0.0495665 0.325764 
-4.99848 0.898035 -2.62395 0 0 1.5 0.0495525 0.305005 
-4.85228 0.675964 -2.44326 0 0 1.5 0.0506076 0.271189 
-4.73698 0.450373 -2.24472 0 0 1.5 0.0526501 0.230198 
-4.64323 0.221709 -2.03933 0 0 1.5 0.0592862 0.146834 
-4.56445 -0.00922392 -1.82946 0 0 1.5 0.0636866 0.111186 
-4.51018 -0.247346 -1.61981 0 0 1.5 0.0686801 0.0817631 
-4.46033 -0.490356 -1.41491 0 0 1.5 0.0741832 0.0582794 
-4.41575 -0.73916 -1.21563 0 0 1.5 0.0864525 0.0261036 
-4.36374 -0.99873 -1.03269 0 0 1.5 0.0930876 0.015849 
-4.30154 -1.26278 -0.860361 0 0 1.5 0.0999595 0.00854643 
-4.22204 -1.53265 -0.703993 0 0 1.5 0.114091 0.00054836 
-4.10681 -1.8017 -0.571242 0 0 1.5 0.121166 -0.00115537 
-3.9653 -2.0639 -0.452946 0 0 1.5 0.128105 -0.00169031 
-3.79367 -2.31607 -0.350209 0 0 1.5 0.134787 -0.00120952 
-3.5744 -2.53574 -0.265632 0 0 1.5 0.146884 0.00157707 
-3.33269 -2.7304 -0.185876 0 0 1.5 0.152064 0.00362288 
-3.07098 -2.90121 -0.109782 0 0 1.5 0.156509 0.00611516 
-2.78458 -3.02532 -0.0311894 0 0 1.5 0.160115 0.00893855 
-2.4917 -3.1263 0.0527532 0 0 1.5 0.164543 0.0153277 
-2.19263 -3.20524 0.141792 0 0 1.5 0.165281 0.019001 
-1.89111 -3.25163 0.243819 0 0 1.5 0.165013 0.0230128 
-1.58999 -3.28906 0.35053 0 0 1.5 0.161599 0.032135 
-1.29109 -3.30777 0.468457 0 0 1.5 0.158571 0.037412 
-0.99436 -3.32007 0.592245 0 0 1.5 0.154764 0.0432439 
-0.699865 -3.32584 0.722021 0 0 1.5 0.150273 0.0496894 
-0.407664 -3.32914 0.856914 0 0 1.5 0.139641 0.0650131 
-0.116339 -3.3315 0.993759 0 0 1.5 0.133697 0.0741232 
0.174601 -3.33686 1.13134 0 0 1.5 0.12746 0.0843018 
0.465967 -3.34339 1.26792 0 0 1.5 0.121017 0.0958228 
0.759632 -3.3549 1.39918 0 0 1.5 0.107823 0.124147 
1.05551 -3.36819 1.525 0 0 1.5 0.101201 0.141526 
1.35456 -3.38404 1.64299 0 0 1.5 0.0946331 0.161782 
1.65822 -3.39909 1.74825 0 0 1.5 0.0881703 0.185694 
1.964 -3.41379 1.84767 0 0 1.5 0.0757597 0.246977 
2.27602 -3.41925 1.92648 0 0 1.5 0.0699222 0.2861 
2.58937 -3.41892 1.999 0 0 1.5 0.0644167 0.332307 
2.90547 -3.40619 2.05833 0 0 1.5 0.0547482 0.446605 
3.22175 -3.37709 2.10878 0 0 1.5 0.0508064 0.511563 
3.53807 -3.33916 2.15453 0 0 1.5 0.0476329 0.575494 
3.85043 -3.27342 2.19597 0 0 1.5 0.0453636 0.629372 
4.15987 -3.19781 2.23998 0 0 1.5 0.0439521 0.667073 
4.46441 -3.10548 2.28834 0 0 1.5 0.0448512 0.643625 
4.76093 -2.99764 2.35058 0 0 1.5 0.0467184 0.599067 
5.05295 -2.88292 2.42153 0 0 1.5 0.0494166 0.543175 
5.33379 -2.75843 2.51764 0 0 1.5 0.0566705 0.430764 
5.60666 -2.6346 2.63354 0 0 1.5 0.0609285 0.382638 
5.87301 -2.51132 2.76569 0 0 1.5 0.065454 0.340888 
6.12433 -2.40237 2.93464 0 0 1.5 0.0749675 0.275024 
6.36936 -2.30483 3.1179 0 0 1.5 0.0798181 0.249249 
6.60642 -2.22204 3.31928 0 0 1.5 0.0846719 0.22685 
6.83454 -2.16763 3.53932 0 0 1.5 0.0894978 0.207114 
7.06009 -2.12714 3.76479 0 0 1.5 0.0989602 0.173478 
7.28251 -2.11088 3.99688 0 0 1.5 0.10356 0.158688 
7.50635 -2.11533 4.22767 0 0 1.5 0.10806 0.144782 
7.731 -2.13049 4.45765 0 0 1.5 0.112451 0.131497 
7.96295 -2.171 4.67711 0 0 1.5 0.120909 0.10666 
8.19826 -2.21802 4.89125 0 0 1.5 0.124995 0.0948447 
8.44039 -2.27824 5.09459 0 0 1.5 0.129002 0.0831874 
8.68871 -2.3473 5.287 0 0 1.5 0.136838 0.061195 
8.94091 -2.4219 5.47256 0 0 1.5 0.140697 0.0509159 
9.19978 -2.50602 5.64422 0 0 1.5 0.144533 0.0409479 
9.46002 -2.59263 5.81259 0 0 1.5 0.148358 0.0315355 
9.72353 -2.68806 5.9709 0 0 1.5 0.155984 0.0149824 
9.98656 -2.78746 6.12742 0 0 1.5 0.159773 0.00765317 
10.2487 -2.89451 6.2805 0 0 1.5 0.163526 0.00107813 
10.5065 -3.01059 6.43403 0 0 1.5 0.167214 -0.00459601 
10.7613 -3.13314 6.58788 0 0 1.5 0.174229 -0.0135444 
11.0037 -3.2733 6.74635 0 0 1.5 0.177449 -0.0168868 
11.2404 -3.42059 6.90682 0 0 1.5 0.180393 -0.0194677 
11.4578 -3.58946 7.07358 0 0 1.5 0.182991 -0.0213375 
11.6595 -3.77274 7.24347 0 0 1.5 0.186843 -0.0231887 
11.8458 -3.97017 7.41643 0 0 1.5 0.18795 -0.0233852 
11.9989 -4.19259 7.59097 0 0 1.5 0.188428 -0.0231433 
12.1366 -4.42503 7.76461 0 0 1.5 0.187275 -0.0214914 
12.2446 -4.67573 7.93518 0 0 1.5 0.185575 -0.0203164 
12.3274 -4.93903 8.09935 0 0 1.5 0.18311 -0.0189327 
12.3962 -5.20936 8.25997 0 0 1.5 0.179881 -0.0173226 
12.4304 -5.49376 8.40672 0 0 1.5 0.171241 -0.0138828 
12.4553 -5.78125 8.54842 0 0 1.5 0.165941 -0.0121342 
12.46 -6.07543 8.67893 0 0 1.5 0.160077 -0.0103228 
12.451 -6.3733 8.79972 0 0 1.5 0.153722 -0.00851145 
12.4325 -6.67375 8.91369 0 0 1.5 0.139882 -0.00506049 
12.3989 -6.97748 9.01443 0 0 1.5 0.132565 -0.00335678 
12.3614 -7.28201 9.11153 0 0 1.5 0.125085 -0.00166713 
12.312 -7.58859 9.19622 0 0 1.5 0.109926 0.00164799 
12.2595 -7.89557 9.27723 0 0 1.5 0.102375 0.00332782 
12.2009 -8.20336 9.35092 0 0 1.5 0.0949121 0.00506658 
12.1386 -8.51146 9.42002 0 0 1.5 0.0875822 0.00690289 
12.0737 -8.81978 9.48582 0 0 1.5 0.0734673 0.0110162 
12.0055 -9.12817 9.54786 0 0 1.5 0.0667429 0.0134343 
11.9368 -9.43657 9.60917 0 0 1.5 0.0602685 0.016268 
11.868 -9.74497 9.67048 0 0 1.5 0.0540607 0.0196391 
11.7992 -10.0534 9.7318 0 0 1.5 0.0425124 0.0287864 
11.7304 -10.3618 9.79311 0 0 1.5 0.0371985 0.0353836 
11.6616 -10.6702 9.85442 0 0 1.5 0.0322073 0.0441128 
11.5928 -10.9786 9.91573 0 0 1.5 0.0275575 0.0558824 
11.524 -11.287 9.97704 0 0 1.5 0.0193848 0.0957686 
11.4553 -11.5954 10.0384 0 0 1.5 0.0159378 0.129699 
11.3865 -11.9038 10.0997 0 0 1.5 0.0130096 0.177237 
11.3177 -12.2122 10.161 0 0 1.5 0.0091864 0.292017 
11.2489 -12.5206 10.2223 0 0 1.5 0.00851288 0.307164 
11.1801 -12.829 10.2836 0 0 1.5 0.00860801 0.270383 
11.1113 -13.1374 10.3449 0 0 1.5 0.00921592 0.211782 
11.0425 -13.4458 10.4062 0 0 1.5 0.0109577 0.120324 
10.9738 -13.7542 10.4675 0 0 1.5 0.0117843 0.0929341 
10.905 -14.0626 10.5288 0 0 1.5 0.0124809 0.0739021 
10.8362 -14.371 10.5902 0 0 1.5 0.0130174 0.0605976 
10.7674 -14.6794 10.6515 0 0 1.5 0.0135743 0.0442439 
10.6986 -14.9878 10.7128 0 0 1.5 0.0135988 0.0392449 
10.6298 -15.2962 10.7741 0 0 1.5 0.0134657 0.0356656 
10.561 -15.6046 10.8354 0 0 1.5 0.0127811 0.0314531 
10.4923 -15.913 10.8967 0 0 1.5 0.0122614 0.0304794 
10.4235 -16.2214 10.958 0 0 1.5 0.0116452 0.0302118 
10.3547 -16.5298 11.0193 0 0 1.5 0.0109493 0.0306146 
10.2859 -16.8382 11.0807 0 0 1.5 0.00938925 0.0335153 
10.2171 -17.1466 11.142 0 0 1.5 0.0085577 0.0363006 
10.1483 -17.455 11.2033 0 0 1.5 0.00771163 0.0402689 
10.0795 -17.7634 11.2646 0 0 1.5 0.00686654 0.0457406 
10.0108 -18.0718 11.3259 0 0 1.5 0.00523983 0.0639355 
9.94198 -18.3802 11.3872 0 0 1.5 0.00448759 0.0787978 
9.87319 -18.6886 11.4485 0 0 1.5 0.00379953 0.0992738 
9.80441 -18.997 11.5098 0 0 1.5 0.00270603 0.160003 
9.73562 -19.3054 11.5711 0 0 1.5 0.00235359 0.191542 
9.66684 -19.6139 11.6325 0 0 1.5 0.00216179 0.205342 
9.59805 -19.9223 11.6938 0 0 1.5 0.0021264 0.191934 
9.52927 -20.2307 11.7551 0 0 1.5 0.00236791 0.127134 
9.46048 -20.5391 11.8164 0 0 1.5 0.00255302 0.0990259 
9.3917 -20.8475 11.8777 0 0 1.5 0.00273727 0.0780183 
9.32291 -21.1559 11.939 0 0 1.5 0.00290335 0.0629628 
9.25412 -21.4643 12.0003 0 0 1.5 0.0031477 0.0442635 
9.18534 -21.7727 12.0616 0 0 1.5 0.003219 0.0385205 
9.11655 -22.0811 12.123 0 0 1.5 0.00325594 0.0343873 
9.04777 -22.3895 12.1843 0 0 1.5 0.00326004 0.0314038 
8.97898 -22.6979 12.2456 0 0 1.5 0.00317903 0.0278171 
8.9102 -23.0063 12.3069 0 0 1.5 0.00309964 0.0270284 
8.84141 -23.3147 12.3682 0 0 1.5 0.00299868 0.0267837 
8.77263 -23.6231 12.4295 0 0 1.5 0.00274607 0.0276991 
8.70384 -23.9315 12.4908 0 0 1.5 0.00260096 0.0289118 
8.63506 -24.2399 12.5521 0 0 1.5 0.00244736 0.0306571 
8.56627 -24.5483 12.6134 0 0 1.5 0.00228839 0.0329512 
8.49748 -24.8567 12.6748 0 0 1.5 0.00196625 0.0396427 
8.4287 -25.1651 12.7361 0 0 1.5 0.00180846 0.0442614 
8.35991 -25.4735 12.7974 0 0 1.5 0.00165662 0.0497711 
8.29113 -25.7819 12.8587 0 0 1.5 0.00151353 0.0562294 
8.22234 -26.0903 12.92 0 0 1.5 0.00126253 0.0718374 
8.15356 -26.3987 12.9813 0 0 1.5 0.00115914 0.0800876 
8.08477 -26.7071 13.0426 0 0 1.5 0.00107324 0.0876009 
8.01599 -27.0155 13.1039 0 0 1.5 0.000957646 0 
7.9472 -27.3239 13.1653 0 0 1.5 0.000927856 0 
7.87842 -27.6323 13.2266 0 0 1.5 0.000915042 0 
7.80963 -27.9407 13.2879 0 0 1.5 0.000916712 0 
7.74084 -28.2491 13.3492 0 0 1.5 0.000952329 0 
7.67206 -28.5575 13.4105 0 0 1.5 0.000981135 0.0599239 
7.60327 -28.8659 13.4718 0 0 1.5 0.00101449 0.052485 
7.53449 -29.1743 13.5331 0 0 1.5 0.00105094 0.0460468 
7.4657 -29.4827 13.5944 0 0 1.5 0.00112961 0.0360971 
7.39692 -29.7911 13.6557 0 0 1.5 0.00117092 0.0324308 
7.32813 -30.0995 13.7171 0 0 1.5 0.00121338 0.0294869 
0 1 0 
1 2 0 
2 3 0 
3 4 0 
4 5 0 
5 6 0 
6 7 0 
7 8 0 
8 9 0 
9 10 0 
10 11 0 
11 12 0 
12 13 0 
13 14 0 
14 15 0 
15 16 0 
16 17 0 
17 18 0 
18 19 0 
19 20 0 
20 21 0 
21 22 0 
22 23 0 
23 24 0 
24 25 0 
25 26 0 
26 27 0 
27 28 0 
28 29 0 
29 30 0 
30 31 0 
31 32 0 
32 33 0 
33 34 0 
34 35 0 
35 36 0 
36 37 0 
37 38 0 
38 39 0 
39 40 0 
40 41 0 
41 42 0 
42 43 0 
43 44 0 
44 45 0 
45 46 0 
46 47 0 
47 48 0 
48 49 0 
49 50 0 
50 51 0 
51 52 0 
52 53 0 
53 54 0 
54 55 0 
55 56 0 
56 57 0 
57 58 0 
58 59 0 
59 60 0 
60 61 0 
61 62 0 
62 63 0 
63 64 0 
64 65 0 
65 66 0 
66 67 0 
67 68 0 
68 69 0 
69 70 0 
70 71 0 
71 72 0 
72 73 0 
73 74 0 
74 75 0 
75 76 0 
76 77 0 
77 78 0 
78 79 0 
79 80 0 
80 81 0 
81 82 0 
82 83 0 
83 84 0 
84 85 0 
85 86 0 
86 87 0 
87 88 0 
88 89 0 
89 90 0 
90 91 0 
91 92 0 
92 93 0 
93 94 0 
94 95 0 
95 96 0 
96 97 0 
97 98 0 
98 99 0 
99 100 0 
100 101 0 
101 102 0 
102 103 0 
103 104 0 
104 105 0 
105 106 0 
106 107 0 
107 108 0 
108 109 0 
109 110 0 
110 111 0 
111 112 0 
112 113 0 
113 114 0 
114 115 0 
115 116 0 
116 117 0 
117 118 0 
118 119 0 
119 120 0 
120 121 0 
121 122 0 
122 123 0 
123 124 0 
124 125 0 
125 126 0 
126 127 0 
127 128 0 
128 129 0 
129 130 0 
130 131 0 
131 132 0 
132 133 0 
133 134 0 
134 135 0 
135 136 0 
136 137 0 
137 138 0 
138 139 0 
139 140 0 
140 141 0 
141 142 0 
142 143 0 
143 144 0 
144 145 0 
145 146 0 
146 147 0 
147 148 0 
148 149 0 
149 150 0 
150 151 0 
151 152 0 
152 153 0 
153 154 0 
154 155 0 
155 156 0 
156 157 0 
157 158 0 
158 159 0 
159 160 0 
160 161 0 
161 162 0 
162 163 0 
163 164 0 
164 165 0 
165 166 0 
166 167 0 
167 168 0 
168 169 0 
169 170 0 
170 171 0 
171 172 0 
172 173 0 
173 174 0 
174 175 0 
175 176 0 
176 177 0 
177 178 0 
178 179 0 
179 180 0 
180 181 0 
181 182 0 
182 183 0 
183 184 0 
184 185 0 
185 186 0 
186 187 0 
187 188 0 
188 189 0 
189 190 0 
190 191 0 
191 192 0 
192 193 0 
193 194 0 
194 195 0 
195 196 0 
196 197 0 
197 198 0 
198 199 0 
199 200 0 
200 201 0 
201 202 0 
202 203 0 
203 204 0 
204 205 0 
205 206 0 
206 207 0 
207 208 0 
208 209 0 
209 210 0 
210 211 0 
211 212 0 
212 213 0 
213 214 0 
214 215 0 
215 216 0 
216 217 0 
217 218 0 
218 219 0 
219 220 0 
220 221 0 
221 222 0 
222 223 0 
223 224 0 
224 225 0 
225 226 0 
226 227 0 
227 228 0 
228 229 0 
229 230 0 
230 231 0 
231 232 0 
232 233 0 
233 234 0 
234 235 0 
235 236 0 
236 237 0 
237 238 0 
238 239 0 
239 240 0 
240 241 0 
241 242 0 
242 243 0 
243 244 0 
244 245 0 
245 246 0 
246 247 0 
247 248 0 
248 249 0 
249 250 0 
250 251 0 
251 252 0 
252 253 0 
253 254 0 
254 255 0 
255 256 0 
256 257 0 
257 258 0 
258 259 0 
259 260 0 
260 261 0 
261 262 0 
262 263 0 
263 264 0 
264 265 0 
265 266 0 
266 267 0 
267 268 0 
268 269 0 
269 270 0 
270 271 0 
271 272 0 
272 273 0 
273 274 0 
274 275 0 
275 276 0 
276 277 0 
277 278 0 
278 279 0 
279 280 0 
280 281 0 
281 282 0 
282 283 0 
283 284 0 
284 285 0 
285 286 0 
286 287 0 
287 288 0 
288 289 0 
289 290 0 
290 291 0 
291 292 0 
292 293 0 
293 294 0 
294 295 0 
295 296 0 
296 297 0 
297 298 0 
298 299 0 
-1 -1 0 
-1 300 0 1 2 3 4 5 6 7 8 9 10 11 12 13 14 15 16 17 18 19 20 21 22 23 24 25 26 27 28 29 30 31 32 33 34 35 36 37 38 39 40 41 42 43 44 45 46 47 48 49 50 51 52 53 54 55 56 57 58 59 60 61 62 63 64 65 66 67 68 69 70 71 72 73 74 75 76 77 78 79 80 81 82 83 84 85 86 87 88 89 90 91 92 93 94 95 96 97 98 99 100 101 102 103 104 105 106 107 108 109 110 111 112 113 114 115 116 117 118 119 120 121 122 123 124 125 126 127 128 129 130 131 132 133 134 135 136 137 138 139 140 141 142 143 144 145 146 147 148 149 150 151 152 153 154 155 156 157 158 159 160 161 162 163 164 165 166 167 168 169 170 171 172 173 174 175 176 177 178 179 180 181 182 183 184 185 186 187 188 189 190 191 192 193 194 195 196 197 198 199 200 201 202 203 204 205 206 207 208 209 210 211 212 213 214 215 216 217 218 219 220 221 222 223 224 225 226 227 228 229 230 231 232 233 234 235 236 237 238 239 240 241 242 243 244 245 246 247 248 249 250 251 252 253 254 255 256 257 258 259 260 261 262 263 264 265 266 267 268 269 270 271 272 273 274 275 276 277 278 279 280 281 282 283 284 285 286 287 288 289 290 291 292 293 294 295 296 297 298 299 
