ply
format ascii 1.0
comment written by koba@oshima.lab
element vertex 300
property float x
property float y
property float z
property int label
property int attribute
property float radius
property float curvature
property float torsion
element edge 300
property int vertex1
property int vertex2
property int label
element vertex_seq 1
property int label
property list int int vertex_indices
end_header
-5.33409 31.2613 -7.73461 0 0 1.5 0.0438258 0.0264607 
-5.32333 30.8878 -7.65871 0 0 1.5 0.0428135 0.0277368 
-5.31258 30.5144 -7.5828 0 0 1.5 0.0417837 0.0294602 
-5.30182 30.1409 -7.50689 0 0 1.5 0.0407281 0.0316959 
-5.29107 29.7674 -7.43098 0 0 1.5 0.038509 0.0380072 
-5.28032 29.3939 -7.35508 0 0 1.5 0.0373281 0.0422495 
-5.26956 29.0205 -7.27917 0 0 1.5 0.036087 0.0474231 
-5.25881 28.647 -7.20326 0 0 1.5 0.0347772 0.0537581 
-5.24805 28.2735 -7.12735 0 0 1.5 0.0319166 0.070734 
-5.2373 27.9 -7.05145 0 0 1.5 0.0303456 0.0822796 
-5.22654 27.5266 -6.97554 0 0 1.5 0.0286704 0.0969434 
-5.21579 27.1531 -6.89963 0 0 1.5 0.0268863 0.115715 
-5.20503 26.7796 -6.82372 0 0 1.5 0.0229885 0.173275 
-5.19428 26.4061 -6.74782 0 0 1.5 0.020893 0.21961 
-5.18353 26.0327 -6.67191 0 0 1.5 0.0187379 0.285832 
-5.17277 25.6592 -6.596 0 0 1.5 0.0145738 0.519231 
-5.16202 25.2857 -6.52009 0 0 1.5 0.0129106 0.697805 
-5.15126 24.9122 -6.44419 0 0 1.5 0.0119535 0.862289 
-5.14051 24.5388 -6.36828 0 0 1.5 0.0121002 0.895551 
-5.12975 24.1653 -6.29237 0 0 1.5 0.016116 0.585055 
-5.119 23.7918 -6.21646 0 0 1.5 0.0195766 0.432062 
-5.10825 23.4183 -6.14056 0 0 1.5 0.0236879 0.323799 
-5.09749 23.0449 -6.06465 0 0 1.5 0.0282998 0.250977 
-5.08674 22.6714 -5.98874 0 0 1.5 0.0386978 0.168505 
-5.07598 22.2979 -5.91283 0 0 1.5 0.0443762 0.145089 
-5.06523 21.9244 -5.83693 0 0 1.5 0.0503144 0.128706 
-5.05447 21.551 -5.76102 0 0 1.5 0.0628285 0.109306 
-5.04372 21.1775 -5.68511 0 0 1.5 0.0693167 0.103701 
-5.03296 20.804 -5.6092 0 0 1.5 0.0758832 0.100131 
-5.02221 20.4305 -5.5333 0 0 1.5 0.0824659 0.0983288 
-5.01146 20.0571 -5.45739 0 0 1.5 0.095398 0.0984262 
-5.0007 19.6836 -5.38148 0 0 1.5 0.101581 0.100115 
-4.98995 19.3101 -5.30557 0 0 1.5 0.107456 0.102999 
-4.97919 18.9367 -5.22967 0 0 1.5 0.112931 0.106857 
-5.00304 18.5651 -5.15451 0 0 1.5 0.122356 0.1172 
-5.05924 18.1955 -5.08005 0 0 1.5 0.126157 0.124106 
-5.15026 17.8331 -5.01037 0 0 1.5 0.129271 0.132099 
-5.26653 17.4761 -4.94415 0 0 1.5 0.131684 0.141014 
-5.41691 17.1313 -4.88762 0 0 1.5 0.134444 0.162621 
-5.58374 16.7925 -4.83578 0 0 1.5 0.134873 0.175405 
-5.78215 16.4696 -4.79934 0 0 1.5 0.134793 0.189116 
-5.98949 16.1512 -4.76726 0 0 1.5 0.13366 0.219437 
-6.22426 15.8514 -4.75708 0 0 1.5 0.132922 0.235511 
-6.46254 15.5538 -4.74969 0 0 1.5 0.132332 0.251155 
-6.72279 15.2761 -4.77176 0 0 1.5 0.132098 0.265705 
-6.98474 15.0006 -4.79826 0 0 1.5 0.133484 0.288218 
-7.25819 14.741 -4.85463 0 0 1.5 0.135467 0.294029 
-7.53281 14.4861 -4.92233 0 0 1.5 0.138505 0.295412 
-7.8103 14.2427 -5.0179 0 0 1.5 0.142679 0.292405 
-8.0847 14.0064 -5.13494 0 0 1.5 0.154509 0.274613 
-8.35593 13.7775 -5.27412 0 0 1.5 0.162081 0.2612 
-8.61364 13.558 -5.44813 0 0 1.5 0.170593 0.246009 
-8.86485 13.3424 -5.63672 0 0 1.5 0.189605 0.213791 
-9.08715 13.1368 -5.86846 0 0 1.5 0.199579 0.197705 
-9.29076 12.935 -6.11796 0 0 1.5 0.209416 0.181917 
-9.46954 12.738 -6.39106 0 0 1.5 0.218719 0.16679 
-9.60372 12.5457 -6.69076 0 0 1.5 0.23411 0.138814 
-9.71382 12.3549 -7.0008 0 0 1.5 0.239389 0.1256 
-9.77918 12.1661 -7.32549 0 0 1.5 0.24257 0.113122 
-9.80351 11.9772 -7.6545 0 0 1.5 0.243417 0.101595 
-9.80302 11.788 -7.98514 0 0 1.5 0.237734 0.0806588 
-9.7494 11.5975 -8.31098 0 0 1.5 0.231311 0.0714643 
-9.671 11.4062 -8.63024 0 0 1.5 0.222796 0.063571 
-9.56532 11.2143 -8.94224 0 0 1.5 0.200884 0.0511665 
-9.42229 11.0224 -9.23854 0 0 1.5 0.188248 0.0467833 
-9.26556 10.831 -9.52822 0 0 1.5 0.174993 0.0439584 
-9.08001 10.6416 -9.80212 0 0 1.5 0.161454 0.0426994 
-8.88039 10.4545 -10.0672 0 0 1.5 0.134585 0.04547 
-8.66792 10.2696 -10.3242 0 0 1.5 0.121656 0.0503402 
-8.43971 10.0903 -10.5712 0 0 1.5 0.109254 0.058238 
-8.20679 9.91334 -10.8157 0 0 1.5 0.0974766 0.0699853 
-7.96515 9.74295 -11.0565 0 0 1.5 0.0760436 0.109663 
-7.72185 9.57733 -11.2988 0 0 1.5 0.066486 0.141443 
-7.47704 9.41601 -11.5425 0 0 1.5 0.0577897 0.184938 
-7.23539 9.26356 -11.7949 0 0 1.5 0.0500696 0.242575 
-6.99648 9.115 -12.0521 0 0 1.5 0.0383476 0.392686 
-6.76419 8.97427 -12.3196 0 0 1.5 0.0349901 0.453667 
-6.53944 8.83995 -12.5966 0 0 1.5 0.0337815 0.462367 
-6.31906 8.70936 -12.879 0 0 1.5 0.0379399 0.31405 
-6.11009 8.58637 -13.1732 0 0 1.5 0.0427141 0.220079 
-5.90372 8.46454 -13.4696 0 0 1.5 0.0487926 0.143281 
-5.70309 8.34512 -13.7711 0 0 1.5 0.0559062 0.086391 
-5.50403 8.22427 -14.0729 0 0 1.5 0.0727234 0.0154326 
-5.30619 8.1023 -14.3752 0 0 1.5 0.0823694 -0.00628495 
-5.10602 7.9728 -14.6727 0 0 1.5 0.0928689 -0.022067 
-4.9052 7.84118 -14.9688 0 0 1.5 0.104273 -0.0339311 
-4.69671 7.693 -15.2515 0 0 1.5 0.130081 -0.0507175 
-4.48626 7.54055 -15.5302 0 0 1.5 0.144634 -0.0568566 
-4.26654 7.36789 -15.7896 0 0 1.5 0.160371 -0.0621933 
-4.04259 7.18449 -16.0367 0 0 1.5 0.195532 -0.071688 
-3.8112 6.98225 -16.2624 0 0 1.5 0.21494 -0.0758943 
-3.57403 6.76013 -16.4598 0 0 1.5 0.235455 -0.0799024 
-3.33316 6.5253 -16.6392 0 0 1.5 0.256882 -0.0838287 
-3.08831 6.2617 -16.764 0 0 1.5 0.301143 -0.0910272 
-2.84404 5.98844 -16.8631 0 0 1.5 0.323017 -0.0940689 
-2.60222 5.69739 -16.9098 0 0 1.5 0.343835 -0.0966339 
-2.36953 5.39805 -16.8981 0 0 1.5 0.362795 -0.0985045 
-2.14463 5.09637 -16.8469 0 0 1.5 0.391934 -0.0991557 
-1.93812 4.79972 -16.7256 0 0 1.5 0.40066 -0.0976676 
-1.75139 4.52002 -16.5508 0 0 1.5 0.404812 -0.0948531 
-1.57956 4.25527 -16.3392 0 0 1.5 0.399187 -0.0850829 
-1.43455 4.02438 -16.0727 0 0 1.5 0.389998 -0.0782609 
-1.30891 3.82486 -15.7754 0 0 1.5 0.377315 -0.0704271 
-1.19603 3.64656 -15.4582 0 0 1.5 0.361911 -0.0617951 
-1.10796 3.51753 -15.1104 0 0 1.5 0.32604 -0.0424652 
-1.02901 3.41052 -14.7543 0 0 1.5 0.306922 -0.0321266 
-0.961859 3.33194 -14.3873 0 0 1.5 0.287758 -0.0216488 
-0.90707 3.28954 -14.0129 0 0 1.5 0.268958 -0.0109121 
-0.856928 3.26134 -13.6363 0 0 1.5 0.233497 0.0117788 
-0.817764 3.27119 -13.2571 0 0 1.5 0.21714 0.023677 
-0.7825 3.2956 -12.8788 0 0 1.5 0.201799 0.0362511 
-0.753286 3.34257 -12.5015 0 0 1.5 0.187489 0.0498633 
-0.73082 3.41182 -12.1276 0 0 1.5 0.161932 0.0800957 
-0.711387 3.49109 -11.7552 0 0 1.5 0.150668 0.0970769 
-0.703406 3.5972 -11.3891 0 0 1.5 0.140403 0.115836 
-0.699968 3.70992 -11.0251 0 0 1.5 0.122876 0.158391 
-0.707039 3.83772 -10.666 0 0 1.5 0.115661 0.181867 
-0.725874 3.97484 -10.3109 0 0 1.5 0.109537 0.206373 
-0.752353 4.11803 -9.95858 0 0 1.5 0.104564 0.230777 
-0.800962 4.26938 -9.61212 0 0 1.5 0.0983715 0.272579 
-0.857815 4.42195 -9.26758 0 0 1.5 0.0972835 0.286666 
-0.936943 4.57618 -8.928 0 0 1.5 0.0975856 0.294453 
-1.03203 4.7279 -8.5918 0 0 1.5 0.0992796 0.295517 
-1.14259 4.87721 -8.25886 0 0 1.5 0.106661 0.280781 
-1.27866 5.01686 -7.93157 0 0 1.5 0.112174 0.268128 
-1.42294 5.15317 -7.60611 0 0 1.5 0.118763 0.254092 
-1.59827 5.27023 -7.28844 0 0 1.5 0.134681 0.226254 
-1.78137 5.38014 -6.97312 0 0 1.5 0.143738 0.213934 
-1.98647 5.46985 -6.6645 0 0 1.5 0.153342 0.20317 
-2.20375 5.54334 -6.36077 0 0 1.5 0.163337 0.193974 
-2.43482 5.5985 -6.06256 0 0 1.5 0.183761 0.180076 
-2.67964 5.62651 -5.77251 0 0 1.5 0.193776 0.175194 
-2.93151 5.6406 -5.48663 0 0 1.5 0.203358 0.171489 
-3.19542 5.61581 -5.21322 0 0 1.5 0.212254 0.168839 
-3.4617 5.58306 -4.94239 0 0 1.5 0.227031 0.166276 
-3.73465 5.50146 -4.68902 0 0 1.5 0.232511 0.166087 
-4.00733 5.41091 -4.43927 0 0 1.5 0.236505 0.166504 
-4.27876 5.27892 -4.20631 0 0 1.5 0.238917 0.167476 
-4.54675 5.13028 -3.98099 0 0 1.5 0.238992 0.170814 
-4.80805 4.94911 -3.7706 0 0 1.5 0.236799 0.173138 
-5.06002 4.74494 -3.57204 0 0 1.5 0.2333 0.175893 
-5.30259 4.51761 -3.3854 0 0 1.5 0.223234 0.182538 
-5.52723 4.26267 -3.21446 0 0 1.5 0.217125 0.186444 
-5.74263 3.99353 -3.0516 0 0 1.5 0.210597 0.190705 
-5.92872 3.69432 -2.90747 0 0 1.5 0.203883 0.195197 
-6.10847 3.38872 -2.76735 0 0 1.5 0.190693 0.204577 
-6.24574 3.05396 -2.64711 0 0 1.5 0.184541 0.209256 
-6.37362 2.71513 -2.52995 0 0 1.5 0.178879 0.213605 
-6.46243 2.35933 -2.42565 0 0 1.5 0.173825 0.217356 
-6.53137 1.99897 -2.32533 0 0 1.5 0.165849 0.222075 
-6.56871 1.63136 -2.23137 0 0 1.5 0.163023 0.222501 
-6.57647 1.2623 -2.13945 0 0 1.5 0.160999 0.221364 
-6.56253 0.892179 -2.04902 0 0 1.5 0.159262 0.214245 
-6.51189 0.52662 -1.95559 0 0 1.5 0.159456 0.20829 
-6.4497 0.162495 -1.86122 0 0 1.5 0.160273 0.200853 
-6.34692 -0.189101 -1.75611 0 0 1.5 0.161616 0.192126 
-6.23732 -0.537692 -1.64829 0 0 1.5 0.165419 0.172146 
-6.09431 -0.868599 -1.52415 0 0 1.5 0.167643 0.161261 
-5.94242 -1.19218 -1.39325 0 0 1.5 0.169906 0.149899 
-5.76802 -1.49719 -1.24522 0 0 1.5 0.172067 0.13838 
-5.58187 -1.78745 -1.08441 0 0 1.5 0.175583 0.115441 
-5.38222 -2.06077 -0.908916 0 0 1.5 0.176702 0.103829 
-5.1699 -2.30971 -0.714652 0 0 1.5 0.177251 0.0923217 
-4.95103 -2.54606 -0.510699 0 0 1.5 0.176371 0.0699843 
-4.72045 -2.74712 -0.283844 0 0 1.5 0.174857 0.0587741 
-4.4874 -2.9397 -0.0518627 0 0 1.5 0.172605 0.0476488 
-4.2461 -3.09255 0.200669 0 0 1.5 0.169636 0.0367785 
-4.00333 -3.23451 0.457344 0 0 1.5 0.161733 0.0149876 
-3.75642 -3.34598 0.725623 0 0 1.5 0.156925 0.00400241 
-3.50765 -3.44079 0.997859 0 0 1.5 0.151655 -0.00682642 
-3.25654 -3.51465 1.27507 0 0 1.5 0.146015 -0.0176677 
-3.00264 -3.56902 1.55379 0 0 1.5 0.133993 -0.0399165 
-2.74691 -3.61052 1.8335 0 0 1.5 0.127777 -0.0513701 
-2.48651 -3.63231 2.11087 0 0 1.5 0.121524 -0.0631727 
-2.2245 -3.64727 2.38744 0 0 1.5 0.115295 -0.0754402 
-1.95511 -3.64385 2.65709 0 0 1.5 0.10312 -0.101419 
-1.68461 -3.63769 2.9257 0 0 1.5 0.0972555 -0.115139 
-1.40373 -3.61516 3.18252 0 0 1.5 0.0915838 -0.129336 
-1.12143 -3.59104 3.43754 0 0 1.5 0.0808922 -0.160146 
-0.828766 -3.55553 3.6793 0 0 1.5 0.0758876 -0.177107 
-0.533307 -3.51763 3.91706 0 0 1.5 0.0711149 -0.195141 
-0.228878 -3.47207 4.14203 0 0 1.5 0.0665736 -0.214782 
0.0794599 -3.42358 4.36072 0 0 1.5 0.0581822 -0.261305 
0.394587 -3.37002 4.56854 0 0 1.5 0.0543416 -0.288725 
0.714037 -3.31322 4.76852 0 0 1.5 0.0507543 -0.319765 
1.03792 -3.2531 4.96048 0 0 1.5 0.0474496 -0.35504 
1.36575 -3.18968 5.14436 0 0 1.5 0.041884 -0.435149 
1.696 -3.12424 5.32327 0 0 1.5 0.0397577 -0.4756 
2.02921 -3.05581 5.4954 0 0 1.5 0.0381823 -0.510629 
2.36345 -2.98633 5.66516 0 0 1.5 0.0370047 -0.540695 
2.69933 -2.91482 5.83076 0 0 1.5 0.0374902 -0.528253 
3.03549 -2.84298 5.99568 0 0 1.5 0.0386788 -0.498822 
3.37196 -2.77112 6.15995 0 0 1.5 0.040506 -0.457798 
3.70837 -2.69956 6.32448 0 0 1.5 0.0456861 -0.364851 
4.04409 -2.63079 6.49158 0 0 1.5 0.0488195 -0.321453 
4.37954 -2.56365 6.65983 0 0 1.5 0.0521746 -0.282844 
4.71411 -2.50204 6.83197 0 0 1.5 0.055662 -0.249418 
5.04825 -2.44488 7.00632 0 0 1.5 0.062744 -0.197196 
5.3817 -2.39523 7.18438 0 0 1.5 0.0662233 -0.177302 
5.71474 -2.35474 7.36529 0 0 1.5 0.0696057 -0.160706 
6.04741 -2.32232 7.5487 0 0 1.5 0.0759815 -0.135713 
6.3797 -2.3058 7.73461 0 0 1.5 0.0789524 -0.126509 
6.71184 -2.29591 7.92156 0 0 1.5 0.0817806 -0.119013 
7.04319 -2.31014 8.10942 0 0 1.5 0.084481 -0.112915 
7.37429 -2.32967 8.29727 0 0 1.5 0.0896143 -0.103914 
7.7035 -2.37689 8.48369 0 0 1.5 0.092125 -0.100647 
8.03168 -2.43199 8.66925 0 0 1.5 0.0946636 -0.0978728 
8.35686 -2.51017 8.8523 0 0 1.5 0.0972891 -0.0953491 
8.67938 -2.60055 9.03381 0 0 1.5 0.103052 -0.0907291 
8.99803 -2.70866 9.21308 0 0 1.5 0.106321 -0.0883447 
9.31184 -2.83129 9.39094 0 0 1.5 0.109934 -0.0856554 
9.6213 -2.96698 9.56752 0 0 1.5 0.113953 -0.0826796 
9.92348 -3.11778 9.74395 0 0 1.5 0.123408 -0.0759241 
10.221 -3.27832 9.92026 0 0 1.5 0.128926 -0.0720692 
10.5085 -3.45377 10.0985 0 0 1.5 0.135001 -0.0679683 
10.7908 -3.63691 10.2776 0 0 1.5 0.148819 -0.0592901 
11.0598 -3.83484 10.4611 0 0 1.5 0.156509 -0.0547761 
11.323 -4.03923 10.6463 0 0 1.5 0.164639 -0.0501999 
11.5678 -4.25909 10.8384 0 0 1.5 0.17311 -0.0455874 
11.8062 -4.48436 11.0328 0 0 1.5 0.190531 -0.036496 
12.0177 -4.72714 11.2363 0 0 1.5 0.199123 -0.0320255 
12.2235 -4.97371 11.4418 0 0 1.5 0.207333 -0.0275554 
12.3874 -5.24098 11.6585 0 0 1.5 0.214894 -0.0231616 
12.539 -5.51277 11.8774 0 0 1.5 0.226985 -0.014728 
12.645 -5.80055 12.104 0 0 1.5 0.230973 -0.0105735 
12.7163 -6.09544 12.3321 0 0 1.5 0.233264 -0.00652368 
12.7529 -6.39746 12.5619 0 0 1.5 0.232226 0.00107722 
12.7229 -6.70317 12.7862 0 0 1.5 0.228804 0.00473586 
12.6637 -7.00758 13.0055 0 0 1.5 0.223514 0.00826484 
12.5499 -7.30665 13.2129 0 0 1.5 0.216526 0.0116085 
12.3982 -7.59633 13.4062 0 0 1.5 0.198395 0.0179762 
12.2237 -7.88038 13.5913 0 0 1.5 0.187773 0.0210855 
12.0084 -8.14889 13.7546 0 0 1.5 0.176488 0.0241641 
11.7856 -8.4142 13.9132 0 0 1.5 0.164807 0.0272778 
11.5384 -8.66805 14.054 0 0 1.5 0.141137 0.0339408 
11.2866 -8.91983 14.1898 0 0 1.5 0.129498 0.0377233 
11.0236 -9.16659 14.3136 0 0 1.5 0.118169 0.0419512 
10.7586 -9.41353 14.4323 0 0 1.5 0.10724 0.0467461 
10.4903 -9.66074 14.543 0 0 1.5 0.0868206 0.0591533 
10.2236 -9.91155 14.6492 0 0 1.5 0.0774037 0.0674043 
9.95873 -10.1666 14.75 0 0 1.5 0.068546 0.0774997 
9.70038 -10.4296 14.8466 0 0 1.5 0.0525507 0.1069 
9.4475 -10.6993 14.9397 0 0 1.5 0.0454213 0.12881 
9.19463 -10.9691 15.0329 0 0 1.5 0.0388887 0.157815 
8.94176 -11.2388 15.126 0 0 1.5 0.0329788 0.197014 
8.68889 -11.5085 15.2191 0 0 1.5 0.0231755 0.322908 
8.43601 -11.7782 15.3122 0 0 1.5 0.0194306 0.412647 
8.18314 -12.0479 15.4053 0 0 1.5 0.0166022 0.507606 
7.93027 -12.3176 15.4985 0 0 1.5 0.0147823 0.576028 
7.6774 -12.5873 15.5916 0 0 1.5 0.0139916 0.5197 
7.42452 -12.857 15.6847 0 0 1.5 0.0145654 0.430501 
7.17165 -13.1267 15.7778 0 0 1.5 0.0154038 0.345942 
6.91878 -13.3965 15.871 0 0 1.5 0.0171 0.226191 
6.6659 -13.6662 15.9641 0 0 1.5 0.017737 0.188407 
6.41303 -13.9359 16.0572 0 0 1.5 0.0181638 0.161274 
6.16016 -14.2056 16.1503 0 0 1.5 0.0183635 0.141729 
5.90729 -14.4753 16.2435 0 0 1.5 0.0180861 0.117669 
5.65441 -14.745 16.3366 0 0 1.5 0.0176309 0.111234 
5.40154 -15.0147 16.4297 0 0 1.5 0.0169882 0.107627 
5.14867 -15.2844 16.5228 0 0 1.5 0.0161812 0.106388 
4.8958 -15.5542 16.6159 0 0 1.5 0.014177 0.111577 
4.64292 -15.8239 16.7091 0 0 1.5 0.0130339 0.118584 
4.39005 -16.0936 16.8022 0 0 1.5 0.0118357 0.128961 
4.13718 -16.3633 16.8953 0 0 1.5 0.00938968 0.164967 
3.8843 -16.633 16.9884 0 0 1.5 0.00819432 0.19461 
3.63143 -16.9027 17.0816 0 0 1.5 0.00705569 0.235372 
3.37856 -17.1724 17.1747 0 0 1.5 0.00600527 0.291179 
3.12569 -17.4421 17.2678 0 0 1.5 0.00430021 0.457747 
2.87281 -17.7118 17.3609 0 0 1.5 0.00372489 0.546505 
2.61994 -17.9816 17.454 0 0 1.5 0.00337978 0.594267 
2.36707 -18.2513 17.5472 0 0 1.5 0.00326207 0.572287 
2.1142 -18.521 17.6403 0 0 1.5 0.00350415 0.398785 
1.86132 -18.7907 17.7334 0 0 1.5 0.00372915 0.315496 
1.60845 -19.0604 17.8265 0 0 1.5 0.00395593 0.251961 
1.35558 -19.3301 17.9197 0 0 1.5 0.00415685 0.205398 
1.1027 -19.5998 18.0128 0 0 1.5 0.00442592 0.146979 
0.849832 -19.8695 18.1059 0 0 1.5 0.00448411 0.12981 
0.596959 -20.1393 18.199 0 0 1.5 0.00449231 0.117761 
0.344087 -20.409 18.2922 0 0 1.5 0.00437331 0.103953 
0.0912139 -20.6787 18.3853 0 0 1.5 0.00425532 0.101195 
-0.161659 -20.9484 18.4784 0 0 1.5 0.00410523 0.100638 
-0.414532 -21.2181 18.5715 0 0 1.5 0.00392872 0.101949 
-0.667404 -21.4878 18.6646 0 0 1.5 0.00351927 0.110734 
-0.920277 -21.7575 18.7578 0 0 1.5 0.00329755 0.118433 
-1.17315 -22.0272 18.8509 0 0 1.5 0.0030723 0.128209 
-1.42602 -22.2969 18.944 0 0 1.5 0.00284922 0.140259 
-1.6789 -22.5667 19.0371 0 0 1.5 0.00242758 0.171955 
-1.93177 -22.8364 19.1303 0 0 1.5 0.00223808 0.190526 
-2.18464 -23.1061 19.2234 0 0 1.5 0.00206864 0.209747 
-2.43751 -23.3758 19.3165 0 0 1.5 0.00180111 0.244428 
-2.69039 -23.6455 19.4096 0 0 1.5 0.00170711 0.254705 
-2.94326 -23.9152 19.5027 0 0 1.5 0.00164061 0.257622 
-3.19613 -24.1849 19.5959 0 0 1.5 0.00160011 0.253083 
-3.449 -24.4546 19.689 0 0 1.5 0.00158616 0.224595 
-3.70188 -24.7244 19.7821 0 0 1.5 0.00160596 0.204727 
-3.95475 -24.9941 19.8752 0 0 1.5 0.00163882 0.18448 
-4.20762 -25.2638 19.9684 0 0 1.5 0.0016817 0.16523 
-4.4605 -25.5335 20.0615 0 0 1.5 0.00178878 0.132521 
-4.71337 -25.8032 20.1546 0 0 1.5 0.00185015 0.119685 
-4.96624 -26.0729 20.2477 0 0 1.5 0.00191573 0.109089 
0 1 0 
1 2 0 
2 3 0 
3 4 0 
4 5 0 
5 6 0 
6 7 0 
7 8 0 
8 9 0 
9 10 0 
10 11 0 
11 12 0 
12 13 0 
13 14 0 
14 15 0 
15 16 0 
16 17 0 
17 18 0 
18 19 0 
19 20 0 
20 21 0 
21 22 0 
22 23 0 
23 24 0 
24 25 0 
25 26 0 
26 27 0 
27 28 0 
28 29 0 
29 30 0 
30 31 0 
31 32 0 
32 33 0 
33 34 0 
34 35 0 
35 36 0 
36 37 0 
37 38 0 
38 39 0 
39 40 0 
40 41 0 
41 42 0 
42 43 0 
43 44 0 
44 45 0 
45 46 0 
46 47 0 
47 48 0 
48 49 0 
49 50 0 
50 51 0 
51 52 0 
52 53 0 
53 54 0 
54 55 0 
55 56 0 
56 57 0 
57 58 0 
58 59 0 
59 60 0 
60 61 0 
61 62 0 
62 63 0 
63 64 0 
64 65 0 
65 66 0 
66 67 0 
67 68 0 
68 69 0 
69 70 0 
70 71 0 
71 72 0 
72 73 0 
73 74 0 
74 75 0 
75 76 0 
76 77 0 
77 78 0 
78 79 0 
79 80 0 
80 81 0 
81 82 0 
82 83 0 
83 84 0 
84 85 0 
85 86 0 
86 87 0 
87 88 0 
88 89 0 
89 90 0 
90 91 0 
91 92 0 
92 93 0 
93 94 0 
94 95 0 
95 96 0 
96 97 0 
97 98 0 
98 99 0 
99 100 0 
100 101 0 
101 102 0 
102 103 0 
103 104 0 
104 105 0 
105 106 0 
106 107 0 
107 108 0 
108 109 0 
109 110 0 
110 111 0 
111 112 0 
112 113 0 
113 114 0 
114 115 0 
115 116 0 
116 117 0 
117 118 0 
118 119 0 
119 120 0 
120 121 0 
121 122 0 
122 123 0 
123 124 0 
124 125 0 
125 126 0 
126 127 0 
127 128 0 
128 129 0 
129 130 0 
130 131 0 
131 132 0 
132 133 0 
133 134 0 
134 135 0 
135 136 0 
136 137 0 
137 138 0 
138 139 0 
139 140 0 
140 141 0 
141 142 0 
142 143 0 
143 144 0 
144 145 0 
145 146 0 
146 147 0 
147 148 0 
148 149 0 
149 150 0 
150 151 0 
151 152 0 
152 153 0 
153 154 0 
154 155 0 
155 156 0 
156 157 0 
157 158 0 
158 159 0 
159 160 0 
160 161 0 
161 162 0 
162 163 0 
163 164 0 
164 165 0 
165 166 0 
166 167 0 
167 168 0 
168 169 0 
169 170 0 
170 171 0 
171 172 0 
172 173 0 
173 174 0 
174 175 0 
175 176 0 
176 177 0 
177 178 0 
178 179 0 
179 180 0 
180 181 0 
181 182 0 
182 183 0 
183 184 0 
184 185 0 
185 186 0 
186 187 0 
187 188 0 
188 189 0 
189 190 0 
190 191 0 
191 192 0 
192 193 0 
193 194 0 
194 195 0 
195 196 0 
196 197 0 
197 198 0 
198 199 0 
199 200 0 
200 201 0 
201 202 0 
202 203 0 
203 204 0 
204 205 0 
205 206 0 
206 207 0 
207 208 0 
208 209 0 
209 210 0 
210 211 0 
211 212 0 
212 213 0 
213 214 0 
214 215 0 
215 216 0 
216 217 0 
217 218 0 
218 219 0 
219 220 0 
220 221 0 
221 222 0 
222 223 0 
223 224 0 
224 225 0 
225 226 0 
226 227 0 
227 228 0 
228 229 0 
229 230 0 
230 231 0 
231 232 0 
232 233 0 
233 234 0 
234 235 0 
235 236 0 
236 237 0 
237 238 0 
238 239 0 
239 240 0 
240 241 0 
241 242 0 
242 243 0 
243 244 0 
244 245 0 
245 246 0 
246 247 0 
247 248 0 
248 249 0 
249 250 0 
250 251 0 
251 252 0 
252 253 0 
253 254 0 
254 255 0 
255 256 0 
256 257 0 
257 258 0 
258 259 0 
259 260 0 
260 261 0 
261 262 0 
262 263 0 
263 264 0 
264 265 0 
265 266 0 
266 267 0 
267 268 0 
268 269 0 
269 270 0 
270 271 0 
271 272 0 
272 273 0 
273 274 0 
274 275 0 
275 276 0 
276 277 0 
277 278 0 
278 279 0 
279 280 0 
280 281 0 
281 282 0 
282 283 0 
283 284 0 
284 285 0 
285 286 0 
286 287 0 
287 288 0 
288 289 0 
289 290 0 
290 291 0 
291 292 0 
292 293 0 
293 294 0 
294 295 0 
295 296 0 
296 297 0 
297 298 0 
298 299 0 
-1 -1 0 
-1 300 0 1 2 3 4 5 6 7 8 9 10 11 12 13 14 15 16 17 18 19 20 21 22 23 24 25 26 27 28 29 30 31 32 33 34 35 36 37 38 39 40 41 42 43 44 45 46 47 48 49 50 51 52 53 54 55 56 57 58 59 60 61 62 63 64 65 66 67 68 69 70 71 72 73 74 75 76 77 78 79 80 81 82 83 84 85 86 87 88 89 90 91 92 93 94 95 96 97 98 99 100 101 102 103 104 105 106 107 108 109 110 111 112 113 114 115 116 117 118 119 120 121 122 123 124 125 126 127 128 129 130 131 132 133 134 135 136 137 138 139 140 141 142 143 144 145 146 147 148 149 150 151 152 153 154 155 156 157 158 159 160 161 162 163 164 165 166 167 168 169 170 171 172 173 174 175 176 177 178 179 180 181 182 183 184 185 186 187 188 189 190 191 192 193 194 195 196 197 198 199 200 201 202 203 204 205 206 207 208 209 210 211 212 213 214 215 216 217 218 219 220 221 222 223 224 225 226 227 228 229 230 231 232 233 234 235 236 237 238 239 240 241 242 243 244 245 246 247 248 249 250 251 252 253 254 255 256 257 258 259 260 261 262 263 264 265 266 267 268 269 270 271 272 273 274 275 276 277 278 279 280 281 282 283 284 285 286 287 288 289 290 291 292 293 294 295 296 297 298 299 
