ply
format ascii 1.0
comment written by koba@oshima.lab
element vertex 300
property float x
property float y
property float z
property int label
property int attribute
property float radius
property float curvature
property float torsion
element edge 300
property int vertex1
property int vertex2
property int label
element vertex_seq 1
property int label
property list int int vertex_indices
end_header
2.73489 27.9846 -14.4293 0 0 1.5 0.0259509 -0.0101832 
2.6699 27.7457 -14.1753 0 0 1.5 0.0256202 -0.0106863 
2.60491 27.5068 -13.9213 0 0 1.5 0.0252749 -0.011363 
2.53992 27.2679 -13.6672 0 0 1.5 0.0249098 -0.0122374 
2.47493 27.0291 -13.4132 0 0 1.5 0.0240995 -0.0146996 
2.40994 26.7902 -13.1592 0 0 1.5 0.0236422 -0.0163647 
2.34495 26.5513 -12.9052 0 0 1.5 0.0231413 -0.0183955 
2.27996 26.3124 -12.6511 0 0 1.5 0.0225899 -0.020872 
2.21497 26.0735 -12.3971 0 0 1.5 0.0213064 -0.0275372 
2.14998 25.8346 -12.1431 0 0 1.5 0.0205568 -0.0320597 
2.08499 25.5957 -11.889 0 0 1.5 0.0197238 -0.0377434 
2.02 25.3568 -11.635 0 0 1.5 0.018799 -0.0449663 
1.95501 25.1179 -11.381 0 0 1.5 0.0166377 -0.0668483 
1.89002 24.879 -11.1269 0 0 1.5 0.015385 -0.0842295 
1.82503 24.6402 -10.8729 0 0 1.5 0.0140098 -0.109265 
1.76004 24.4013 -10.6189 0 0 1.5 0.0108918 -0.208215 
1.69505 24.1624 -10.3649 0 0 1.5 0.00917237 -0.314978 
1.63006 23.9235 -10.1108 0 0 1.5 0.00740396 -0.518353 
1.56507 23.6846 -9.8568 0 0 1.5 0.00572898 -0.92763 
1.50008 23.4457 -9.60277 0 0 1.5 0.00454417 -1.69519 
1.43509 23.2068 -9.34874 0 0 1.5 0.00600653 -1.04077 
1.3701 22.9679 -9.09471 0 0 1.5 0.00836157 -0.575452 
1.30511 22.729 -8.84068 0 0 1.5 0.011194 -0.343896 
1.24012 22.4902 -8.58665 0 0 1.5 0.0177029 -0.157604 
1.17513 22.2513 -8.33262 0 0 1.5 0.0212613 -0.116633 
1.11014 22.0124 -8.07859 0 0 1.5 0.0249769 -0.090046 
1.04515 21.7735 -7.82456 0 0 1.5 0.0327876 -0.0588799 
0.980162 21.5346 -7.57053 0 0 1.5 0.0368311 -0.0490301 
0.915172 21.2957 -7.3165 0 0 1.5 0.0409268 -0.0414209 
0.850182 21.0568 -7.06247 0 0 1.5 0.0450457 -0.0354237 
0.785192 20.8179 -6.80844 0 0 1.5 0.0532306 -0.0261721 
0.720202 20.579 -6.55441 0 0 1.5 0.0572274 -0.0224145 
0.655212 20.3401 -6.30038 0 0 1.5 0.061116 -0.019084 
0.590222 20.1013 -6.04635 0 0 1.5 0.0648654 -0.0159681 
0.525232 19.8624 -5.79232 0 0 1.5 0.0718248 -0.00989026 
0.460242 19.6235 -5.53829 0 0 1.5 0.0749823 -0.0068859 
0.387104 19.383 -5.28864 0 0 1.5 0.0778979 -0.00377224 
0.285147 19.1368 -5.05446 0 0 1.5 0.0805612 -0.000439711 
0.169178 18.8895 -4.82919 0 0 1.5 0.085122 0.00695949 
0.0308974 18.6402 -4.61809 0 0 1.5 0.0870341 0.0111174 
-0.128406 18.3917 -4.42246 0 0 1.5 0.0887324 0.0156653 
-0.300237 18.1436 -4.23604 0 0 1.5 0.0916432 0.0260759 
-0.498645 17.9 -4.07168 0 0 1.5 0.0929568 0.0319373 
-0.7046 17.6585 -3.91393 0 0 1.5 0.0942668 0.038171 
-0.930128 17.4233 -3.77387 0 0 1.5 0.0956547 0.0447748 
-1.16497 17.1926 -3.64251 0 0 1.5 0.0990313 0.0588328 
-1.41014 16.9669 -3.52081 0 0 1.5 0.101225 0.0659125 
-1.66625 16.7488 -3.40894 0 0 1.5 0.103902 0.0728548 
-1.92673 16.5335 -3.30098 0 0 1.5 0.107178 0.0795422 
-2.19758 16.3276 -3.2009 0 0 1.5 0.115995 0.0908378 
-2.46985 16.123 -3.1018 0 0 1.5 0.121756 0.095183 
-2.74976 15.9271 -3.00629 0 0 1.5 0.128557 0.0987346 
-3.03032 15.7323 -2.91072 0 0 1.5 0.145634 0.103329 
-3.31523 15.544 -2.81482 0 0 1.5 0.156043 0.104672 
-3.6006 15.3567 -2.71834 0 0 1.5 0.167765 0.105716 
-3.88804 15.174 -2.61932 0 0 1.5 0.18082 0.106579 
-4.17565 14.992 -2.51942 0 0 1.5 0.210802 0.108365 
-4.46385 14.8126 -2.41662 0 0 1.5 0.227531 0.109683 
-4.75204 14.6334 -2.31325 0 0 1.5 0.245163 0.111425 
-5.04021 14.4549 -2.20877 0 0 1.5 0.263384 0.113645 
-5.32866 14.2754 -2.10684 0 0 1.5 0.29972 0.1199 
-5.61733 14.0951 -2.00693 0 0 1.5 0.316593 0.123986 
-5.90851 13.9099 -1.92487 0 0 1.5 0.331656 0.128592 
-6.20266 13.7197 -1.87434 0 0 1.5 0.353427 0.139235 
-6.49372 13.5273 -1.90733 0 0 1.5 0.358874 0.145132 
-6.71872 13.378 -2.12028 0 0 1.5 0.360201 0.151226 
-6.82807 13.3135 -2.45031 0 0 1.5 0.357366 0.157517 
-6.89305 13.285 -2.79783 0 0 1.5 0.340372 0.170696 
-6.93939 13.2752 -3.14936 0 0 1.5 0.327387 0.177182 
-6.98345 13.269 -3.50126 0 0 1.5 0.31242 0.183603 
-7.02607 13.2653 -3.85339 0 0 1.5 0.296241 0.190057 
-7.06991 13.2601 -4.20534 0 0 1.5 0.263008 0.20226 
-7.11382 13.2535 -4.55726 0 0 1.5 0.247093 0.207619 
-7.15794 13.241 -4.90899 0 0 1.5 0.232194 0.212276 
-7.20053 13.2241 -5.26068 0 0 1.5 0.218576 0.215939 
-7.24001 13.1985 -5.61226 0 0 1.5 0.195795 0.218887 
-7.27385 13.164 -5.96348 0 0 1.5 0.18675 0.217568 
-7.30087 13.1187 -6.31424 0 0 1.5 0.179248 0.214244 
-7.31388 13.0565 -6.6628 0 0 1.5 0.168573 0.201865 
-7.31829 12.984 -7.00999 0 0 1.5 0.165176 0.193101 
-7.29364 12.8821 -7.34845 0 0 1.5 0.162888 0.183252 
-7.25644 12.7686 -7.68162 0 0 1.5 0.161569 0.172879 
-7.18495 12.6249 -7.99798 0 0 1.5 0.161274 0.151789 
-7.08821 12.4621 -8.29622 0 0 1.5 0.162027 0.141819 
-6.97221 12.2848 -8.58065 0 0 1.5 0.163241 0.132679 
-6.81851 12.0833 -8.82856 0 0 1.5 0.164834 0.124372 
-6.65368 11.8759 -9.06328 0 0 1.5 0.168893 0.11023 
-6.46758 11.6576 -9.27189 0 0 1.5 0.171262 0.104395 
-6.26863 11.4339 -9.46114 0 0 1.5 0.173818 0.0992926 
-6.06077 11.2065 -9.63696 0 0 1.5 0.179417 0.0910062 
-5.84123 10.9744 -9.79054 0 0 1.5 0.182468 0.0876866 
-5.61886 10.7411 -9.93874 0 0 1.5 0.185713 0.0847826 
-5.38806 10.5024 -10.0634 0 0 1.5 0.189173 0.0822074 
-5.15662 10.2628 -10.185 0 0 1.5 0.196802 0.0777374 
-4.92169 10.0164 -10.2847 0 0 1.5 0.200994 0.0757052 
-4.68695 9.76798 -10.3788 0 0 1.5 0.205431 0.0737402 
-4.45293 9.51162 -10.4519 0 0 1.5 0.210087 0.0718155 
-4.22089 9.25121 -10.5144 0 0 1.5 0.219857 0.068 
-3.99274 8.98286 -10.5563 0 0 1.5 0.224809 0.0660727 
-3.77017 8.70839 -10.5798 0 0 1.5 0.229654 0.0641533 
-3.55317 8.42785 -10.5849 0 0 1.5 0.238428 0.0604228 
-3.34786 8.14041 -10.5603 0 0 1.5 0.242005 0.0586175 
-3.14749 7.85006 -10.5232 0 0 1.5 0.244786 0.0569058 
-2.96802 7.55519 -10.4424 0 0 1.5 0.246587 0.0553363 
-2.79593 7.26062 -10.3481 0 0 1.5 0.246583 0.0526732 
-2.64467 6.96794 -10.2167 0 0 1.5 0.244516 0.051654 
-2.51066 6.6812 -10.0592 0 0 1.5 0.240983 0.0509143 
-2.39086 6.39935 -9.88018 0 0 1.5 0.235982 0.0504834 
-2.30223 6.13459 -9.66212 0 0 1.5 0.221818 0.0507371 
-2.22679 5.87847 -9.42996 0 0 1.5 0.212888 0.0515454 
-2.17797 5.64084 -9.17116 0 0 1.5 0.202941 0.0529201 
-2.15148 5.42054 -8.89553 0 0 1.5 0.192156 0.0549875 
-2.13766 5.21005 -8.61035 0 0 1.5 0.168807 0.061823 
-2.15501 5.02409 -8.30879 0 0 1.5 0.156618 0.0670469 
-2.18105 4.84435 -8.00448 0 0 1.5 0.1443 0.0739662 
-2.22399 4.67669 -7.69486 0 0 1.5 0.119777 0.0952907 
-2.27954 4.51581 -7.38382 0 0 1.5 0.107783 0.111683 
-2.34178 4.35853 -7.07203 0 0 1.5 0.0960787 0.13418 
-2.41641 4.20394 -6.76163 0 0 1.5 0.0847353 0.165709 
-2.4934 4.04889 -6.45205 0 0 1.5 0.0635086 0.277413 
-2.57633 3.89153 -6.14516 0 0 1.5 0.0539313 0.37676 
-2.66072 3.73096 -5.84036 0 0 1.5 0.0454338 0.5234 
-2.74674 3.56676 -5.53794 0 0 1.5 0.0385844 0.720157 
-2.83285 3.39637 -5.23901 0 0 1.5 0.0333513 0.966576 
-2.919 3.22351 -4.94149 0 0 1.5 0.0360885 0.833797 
-3.00398 3.04183 -4.64894 0 0 1.5 0.0417505 0.632667 
-3.08866 2.85801 -4.35765 0 0 1.5 0.0581653 0.340483 
-3.17211 2.6662 -4.07118 0 0 1.5 0.0677204 0.25799 
-3.25498 2.47034 -3.78735 0 0 1.5 0.0777407 0.20163 
-3.33693 2.26814 -3.50767 0 0 1.5 0.0880341 0.162157 
-3.41746 2.05859 -3.23312 0 0 1.5 0.108816 0.112721 
-3.49708 1.84435 -2.96186 0 0 1.5 0.119 0.0969359 
-3.57251 1.61759 -2.69982 0 0 1.5 0.128823 0.0847865 
-3.64626 1.38679 -2.44086 0 0 1.5 0.138092 0.0752442 
-3.71129 1.13968 -2.19483 0 0 1.5 0.154134 0.0618647 
-3.7704 0.884919 -1.95569 0 0 1.5 0.160498 0.0572606 
-3.8195 0.617209 -1.72822 0 0 1.5 0.165495 0.0536726 
-3.85345 0.335363 -1.5163 0 0 1.5 0.168958 0.0510321 
-3.88005 0.0466569 -1.31194 0 0 1.5 0.170901 0.0484334 
-3.87927 -0.260544 -1.13464 0 0 1.5 0.169321 0.048374 
-3.86902 -0.572215 -0.966832 0 0 1.5 0.166095 0.0492213 
-3.83836 -0.893414 -0.819474 0 0 1.5 0.155253 0.0540971 
-3.79019 -1.21972 -0.690601 0 0 1.5 0.147999 0.0584103 
-3.7311 -1.5492 -0.573249 0 0 1.5 0.139796 0.0643136 
-3.65 -1.88174 -0.480921 0 0 1.5 0.130869 0.0721818 
-3.56369 -2.21468 -0.394807 0 0 1.5 0.111693 0.0961267 
-3.46009 -2.54776 -0.330425 0 0 1.5 0.10182 0.113943 
-3.35181 -2.88036 -0.272638 0 0 1.5 0.0919879 0.137359 
-3.23371 -3.21194 -0.228692 0 0 1.5 0.0823528 0.168434 
-3.11094 -3.54261 -0.192261 0 0 1.5 0.0642836 0.265823 
-2.98333 -3.87233 -0.163621 0 0 1.5 0.0561912 0.339879 
-2.85242 -4.20119 -0.141008 0 0 1.5 0.0490223 0.434877 
-2.71964 -4.52955 -0.121792 0 0 1.5 0.0387509 0.651486 
-2.58569 -4.85756 -0.104768 0 0 1.5 0.0363737 0.708758 
-2.45139 -5.18546 -0.0883587 0 0 1.5 0.0361104 0.683267 
-2.31827 -5.5136 -0.0678074 0 0 1.5 0.0377855 0.585883 
-2.1855 -5.84179 -0.0459062 0 0 1.5 0.0451201 0.345501 
-2.05573 -6.17025 -0.0128678 0 0 1.5 0.049855 0.25053 
-1.92708 -6.49849 0.0252972 0 0 1.5 0.0548545 0.176088 
-1.80165 -6.82608 0.0779659 0 0 1.5 0.0599029 0.118612 
-1.67828 -7.15204 0.142574 0 0 1.5 0.0696057 0.03831 
-1.55731 -7.47609 0.22119 0 0 1.5 0.0740799 0.00854379 
-1.43867 -7.79505 0.320175 0 0 1.5 0.0782194 -0.0166385 
-1.32113 -8.11159 0.428857 0 0 1.5 0.0853734 -0.0571412 
-1.20456 -8.41714 0.565887 0 0 1.5 0.0883528 -0.074489 
-1.08771 -8.71925 0.709976 0 0 1.5 0.0909249 -0.09024 
-0.968617 -9.00725 0.879377 0 0 1.5 0.0931036 -0.104273 
-0.846737 -9.28784 1.05822 0 0 1.5 0.096367 -0.128156 
-0.720206 -9.55604 1.25285 0 0 1.5 0.0975028 -0.137958 
-0.58592 -9.81092 1.4592 0 0 1.5 0.098356 -0.145948 
-0.446616 -10.0572 1.67315 0 0 1.5 0.0989649 -0.152015 
-0.29218 -10.2841 1.89751 0 0 1.5 0.0995757 -0.157918 
-0.133124 -10.5056 2.12422 0 0 1.5 0.0996269 -0.157563 
0.0462201 -10.7063 2.35524 0 0 1.5 0.0995301 -0.154877 
0.233392 -10.9003 2.58531 0 0 1.5 0.0992893 -0.149806 
0.436944 -11.0802 2.81338 0 0 1.5 0.0983575 -0.133398 
0.654107 -11.2502 3.03594 0 0 1.5 0.0976483 -0.122246 
0.881614 -11.4126 3.25432 0 0 1.5 0.0967566 -0.109077 
1.12647 -11.5643 3.46102 0 0 1.5 0.0943528 -0.0787049 
1.37604 -11.7132 3.66436 0 0 1.5 0.0928117 -0.0618045 
1.64252 -11.8537 3.85163 0 0 1.5 0.0910311 -0.0434687 
1.91213 -11.9931 4.035 0 0 1.5 0.0890077 -0.0240995 
2.19164 -12.1288 4.20607 0 0 1.5 0.0842583 0.0170251 
2.47498 -12.2636 4.37132 0 0 1.5 0.0815653 0.0396433 
2.76351 -12.3971 4.5287 0 0 1.5 0.0786952 0.0635991 
3.05549 -12.5296 4.68025 0 0 1.5 0.0756839 0.0886596 
3.3499 -12.6615 4.82772 0 0 1.5 0.0694166 0.143945 
3.64705 -12.7916 4.97127 0 0 1.5 0.0662686 0.174436 
3.9452 -12.9209 5.11341 0 0 1.5 0.0631917 0.20634 
4.24547 -13.0457 5.25516 0 0 1.5 0.0575161 0.273535 
4.54606 -13.1696 5.39697 0 0 1.5 0.0550562 0.3073 
4.84798 -13.2849 5.54313 0 0 1.5 0.0529408 0.339229 
5.14988 -13.3978 5.69114 0 0 1.5 0.0512324 0.367498 
5.45168 -13.5002 5.84683 0 0 1.5 0.049215 0.405941 
5.75247 -13.5962 6.00815 0 0 1.5 0.0489511 0.413888 
6.05171 -13.6822 6.17811 0 0 1.5 0.0491789 0.414241 
6.34695 -13.7561 6.3598 0 0 1.5 0.0498668 0.40824 
6.63989 -13.8232 6.54824 0 0 1.5 0.0524444 0.383846 
6.9226 -13.8727 6.75651 0 0 1.5 0.0542464 0.368601 
7.20063 -13.9168 6.97189 0 0 1.5 0.0563264 0.353282 
7.46622 -13.948 7.20493 0 0 1.5 0.0611613 0.324405 
7.72058 -13.9725 7.45044 0 0 1.5 0.0638668 0.311189 
7.96635 -13.9918 7.70548 0 0 1.5 0.0667327 0.299089 
8.19325 -14.0058 7.97766 0 0 1.5 0.0697371 0.287704 
8.41386 -14.019 8.25492 0 0 1.5 0.0761008 0.265578 
8.6202 -14.0319 8.54316 0 0 1.5 0.0794151 0.254958 
8.81928 -14.0467 8.83625 0 0 1.5 0.082776 0.244434 
9.01196 -14.0632 9.13362 0 0 1.5 0.0861461 0.233783 
9.19875 -14.0844 9.43439 0 0 1.5 0.0927149 0.212616 
9.384 -14.107 9.73604 0 0 1.5 0.0957897 0.202341 
9.5681 -14.1371 10.0377 0 0 1.5 0.0986321 0.192373 
9.75302 -14.1696 10.3387 0 0 1.5 0.101165 0.182781 
9.94059 -14.2097 10.637 0 0 1.5 0.104978 0.165223 
10.1306 -14.2562 10.9328 0 0 1.5 0.106104 0.157807 
10.3236 -14.3105 11.2255 0 0 1.5 0.106622 0.151356 
10.5192 -14.3789 11.5131 0 0 1.5 0.105606 0.141686 
10.7162 -14.4539 11.7985 0 0 1.5 0.103994 0.1391 
10.9113 -14.5569 12.0761 0 0 1.5 0.101623 0.138245 
11.103 -14.6723 12.3508 0 0 1.5 0.0984885 0.13937 
11.2864 -14.8143 12.6192 0 0 1.5 0.0900117 0.150368 
11.4526 -14.9862 12.8801 0 0 1.5 0.0847844 0.161883 
11.6061 -15.1768 13.1361 0 0 1.5 0.078991 0.17907 
11.7286 -15.4021 13.3812 0 0 1.5 0.0727158 0.204141 
11.8272 -15.645 13.6188 0 0 1.5 0.0592196 0.292622 
11.9091 -15.9002 13.8511 0 0 1.5 0.0523081 0.368772 
11.9568 -16.1717 14.0743 0 0 1.5 0.0455673 0.479716 
11.9962 -16.4453 14.2964 0 0 1.5 0.0340684 0.840969 
12.0217 -16.7221 14.5167 0 0 1.5 0.0304354 1.04375 
12.043 -16.9971 14.7397 0 0 1.5 0.0290915 1.13037 
12.0623 -17.2711 14.9641 0 0 1.5 0.0303006 1.02855 
12.0928 -17.5359 15.1982 0 0 1.5 0.038483 0.613886 
12.1305 -17.7961 15.4357 0 0 1.5 0.0440549 0.456327 
12.1936 -18.0414 15.6841 0 0 1.5 0.0499214 0.344679 
12.2817 -18.2711 15.9377 0 0 1.5 0.0557664 0.266292 
12.3967 -18.4839 16.1971 0 0 1.5 0.0665496 0.169928 
12.5599 -18.6595 16.4562 0 0 1.5 0.0712053 0.14017 
12.7394 -18.8225 16.7151 0 0 1.5 0.0752432 0.117647 
12.9754 -18.9276 16.9571 0 0 1.5 0.0785875 0.10014 
13.2156 -19.0284 17.1978 0 0 1.5 0.0829937 0.0756238 
13.4558 -19.1292 17.4386 0 0 1.5 0.0840244 0.0669303 
13.696 -19.23 17.6793 0 0 1.5 0.0842733 0.0597823 
13.9363 -19.3307 17.9201 0 0 1.5 0.0825247 0.0492784 
14.1765 -19.4315 18.1608 0 0 1.5 0.0806348 0.045485 
14.4167 -19.5323 18.4016 0 0 1.5 0.0781528 0.0423728 
14.6569 -19.633 18.6423 0 0 1.5 0.0751481 0.0398942 
14.8971 -19.7338 18.8831 0 0 1.5 0.0678855 0.0367058 
15.1374 -19.8346 19.1239 0 0 1.5 0.0637839 0.0358372 
15.3776 -19.9354 19.3646 0 0 1.5 0.0594673 0.0354635 
15.6178 -20.0361 19.6054 0 0 1.5 0.0550033 0.0356625 
15.858 -20.1369 19.8461 0 0 1.5 0.0458793 0.0379303 
16.0983 -20.2377 20.0869 0 0 1.5 0.0413299 0.0402419 
16.3385 -20.3384 20.3276 0 0 1.5 0.0368477 0.0437118 
16.5787 -20.4392 20.5684 0 0 1.5 0.0282299 0.0559087 
16.8189 -20.54 20.8091 0 0 1.5 0.0241596 0.0664168 
17.0591 -20.6407 21.0499 0 0 1.5 0.0202775 0.0824607 
17.2994 -20.7415 21.2906 0 0 1.5 0.0166005 0.108122 
17.5396 -20.8423 21.5314 0 0 1.5 0.00994084 0.235595 
17.7798 -20.9431 21.7721 0 0 1.5 0.00700618 0.422216 
18.02 -21.0438 22.0129 0 0 1.5 0.0044132 0.951023 
18.2603 -21.1446 22.2536 0 0 1.5 0.00245923 2.74379 
18.5005 -21.2454 22.4944 0 0 1.5 0.0036396 1.01643 
18.7407 -21.3461 22.7351 0 0 1.5 0.00524638 0.442969 
18.9809 -21.4469 22.9759 0 0 1.5 0.00673451 0.243682 
19.2211 -21.5477 23.2166 0 0 1.5 0.00912974 0.109721 
19.4614 -21.6485 23.4574 0 0 1.5 0.0100233 0.083099 
19.7016 -21.7492 23.6981 0 0 1.5 0.0107195 0.0663056 
19.9418 -21.85 23.9389 0 0 1.5 0.0112262 0.0552101 
20.182 -21.9508 24.1797 0 0 1.5 0.0117172 0.0425127 
20.4223 -22.0515 24.4204 0 0 1.5 0.0117268 0.0388498 
20.6625 -22.1523 24.6612 0 0 1.5 0.0115969 0.0363724 
20.9027 -22.2531 24.9019 0 0 1.5 0.0113412 0.0349037 
21.1429 -22.3538 25.1427 0 0 1.5 0.0105098 0.0342882 
21.3831 -22.4546 25.3834 0 0 1.5 0.00996291 0.0350647 
21.6234 -22.5554 25.6242 0 0 1.5 0.00934652 0.0367245 
21.8636 -22.6562 25.8649 0 0 1.5 0.00867351 0.0393805 
22.1038 -22.7569 26.1057 0 0 1.5 0.00720965 0.0487419 
22.344 -22.8577 26.3464 0 0 1.5 0.00644158 0.0567716 
22.5842 -22.9585 26.5872 0 0 1.5 0.00566246 0.0685355 
22.8245 -23.0592 26.8279 0 0 1.5 0.00411025 0.113867 
23.0647 -23.16 27.0687 0 0 1.5 0.00335436 0.16067 
23.3049 -23.2608 27.3094 0 0 1.5 0.00262281 0.247438 
23.5451 -23.3616 27.5502 0 0 1.5 0.00192745 0.431527 
23.7854 -23.4623 27.7909 0 0 1.5 0.000784969 2.31683 
24.0256 -23.5631 28.0317 0 0 1.5 0.000660173 0 
24.2658 -23.6639 28.2724 0 0 1.5 0.000997294 1.27955 
24.506 -23.7646 28.5132 0 0 1.5 0.00146965 0.555294 
24.7462 -23.8654 28.7539 0 0 1.5 0.00241245 0.182727 
24.9865 -23.9662 28.9947 0 0 1.5 0.00284554 0.12319 
25.2267 -24.067 29.2355 0 0 1.5 0.00324749 0.0884916 
25.4669 -24.1677 29.4762 0 0 1.5 0.00395923 0.0518849 
25.7071 -24.2685 29.717 0 0 1.5 0.00427163 0.0414286 
25.9474 -24.3693 29.9577 0 0 1.5 0.00455733 0.0337575 
26.1876 -24.47 30.1985 0 0 1.5 0.00481848 0.0280066 
26.4278 -24.5708 30.4392 0 0 1.5 0.00527629 0.0200807 
26.668 -24.6716 30.68 0 0 1.5 0.00547758 0.0173001 
26.9082 -24.7723 30.9207 0 0 1.5 0.00566343 0.0150888 
27.1485 -24.8731 31.1615 0 0 1.5 0.00583601 0.0133186 
27.3887 -24.9739 31.4022 0 0 1.5 0.00614994 0.0107604 
27.6289 -25.0747 31.643 0 0 1.5 0.00629533 0.00986455 
27.8691 -25.1754 31.8837 0 0 1.5 0.00643552 0.00916981 
0 1 0 
1 2 0 
2 3 0 
3 4 0 
4 5 0 
5 6 0 
6 7 0 
7 8 0 
8 9 0 
9 10 0 
10 11 0 
11 12 0 
12 13 0 
13 14 0 
14 15 0 
15 16 0 
16 17 0 
17 18 0 
18 19 0 
19 20 0 
20 21 0 
21 22 0 
22 23 0 
23 24 0 
24 25 0 
25 26 0 
26 27 0 
27 28 0 
28 29 0 
29 30 0 
30 31 0 
31 32 0 
32 33 0 
33 34 0 
34 35 0 
35 36 0 
36 37 0 
37 38 0 
38 39 0 
39 40 0 
40 41 0 
41 42 0 
42 43 0 
43 44 0 
44 45 0 
45 46 0 
46 47 0 
47 48 0 
48 49 0 
49 50 0 
50 51 0 
51 52 0 
52 53 0 
53 54 0 
54 55 0 
55 56 0 
56 57 0 
57 58 0 
58 59 0 
59 60 0 
60 61 0 
61 62 0 
62 63 0 
63 64 0 
64 65 0 
65 66 0 
66 67 0 
67 68 0 
68 69 0 
69 70 0 
70 71 0 
71 72 0 
72 73 0 
73 74 0 
74 75 0 
75 76 0 
76 77 0 
77 78 0 
78 79 0 
79 80 0 
80 81 0 
81 82 0 
82 83 0 
83 84 0 
84 85 0 
85 86 0 
86 87 0 
87 88 0 
88 89 0 
89 90 0 
90 91 0 
91 92 0 
92 93 0 
93 94 0 
94 95 0 
95 96 0 
96 97 0 
97 98 0 
98 99 0 
99 100 0 
100 101 0 
101 102 0 
102 103 0 
103 104 0 
104 105 0 
105 106 0 
106 107 0 
107 108 0 
108 109 0 
109 110 0 
110 111 0 
111 112 0 
112 113 0 
113 114 0 
114 115 0 
115 116 0 
116 117 0 
117 118 0 
118 119 0 
119 120 0 
120 121 0 
121 122 0 
122 123 0 
123 124 0 
124 125 0 
125 126 0 
126 127 0 
127 128 0 
128 129 0 
129 130 0 
130 131 0 
131 132 0 
132 133 0 
133 134 0 
134 135 0 
135 136 0 
136 137 0 
137 138 0 
138 139 0 
139 140 0 
140 141 0 
141 142 0 
142 143 0 
143 144 0 
144 145 0 
145 146 0 
146 147 0 
147 148 0 
148 149 0 
149 150 0 
150 151 0 
151 152 0 
152 153 0 
153 154 0 
154 155 0 
155 156 0 
156 157 0 
157 158 0 
158 159 0 
159 160 0 
160 161 0 
161 162 0 
162 163 0 
163 164 0 
164 165 0 
165 166 0 
166 167 0 
167 168 0 
168 169 0 
169 170 0 
170 171 0 
171 172 0 
172 173 0 
173 174 0 
174 175 0 
175 176 0 
176 177 0 
177 178 0 
178 179 0 
179 180 0 
180 181 0 
181 182 0 
182 183 0 
183 184 0 
184 185 0 
185 186 0 
186 187 0 
187 188 0 
188 189 0 
189 190 0 
190 191 0 
191 192 0 
192 193 0 
193 194 0 
194 195 0 
195 196 0 
196 197 0 
197 198 0 
198 199 0 
199 200 0 
200 201 0 
201 202 0 
202 203 0 
203 204 0 
204 205 0 
205 206 0 
206 207 0 
207 208 0 
208 209 0 
209 210 0 
210 211 0 
211 212 0 
212 213 0 
213 214 0 
214 215 0 
215 216 0 
216 217 0 
217 218 0 
218 219 0 
219 220 0 
220 221 0 
221 222 0 
222 223 0 
223 224 0 
224 225 0 
225 226 0 
226 227 0 
227 228 0 
228 229 0 
229 230 0 
230 231 0 
231 232 0 
232 233 0 
233 234 0 
234 235 0 
235 236 0 
236 237 0 
237 238 0 
238 239 0 
239 240 0 
240 241 0 
241 242 0 
242 243 0 
243 244 0 
244 245 0 
245 246 0 
246 247 0 
247 248 0 
248 249 0 
249 250 0 
250 251 0 
251 252 0 
252 253 0 
253 254 0 
254 255 0 
255 256 0 
256 257 0 
257 258 0 
258 259 0 
259 260 0 
260 261 0 
261 262 0 
262 263 0 
263 264 0 
264 265 0 
265 266 0 
266 267 0 
267 268 0 
268 269 0 
269 270 0 
270 271 0 
271 272 0 
272 273 0 
273 274 0 
274 275 0 
275 276 0 
276 277 0 
277 278 0 
278 279 0 
279 280 0 
280 281 0 
281 282 0 
282 283 0 
283 284 0 
284 285 0 
285 286 0 
286 287 0 
287 288 0 
288 289 0 
289 290 0 
290 291 0 
291 292 0 
292 293 0 
293 294 0 
294 295 0 
295 296 0 
296 297 0 
297 298 0 
298 299 0 
-1 -1 0 
-1 300 0 1 2 3 4 5 6 7 8 9 10 11 12 13 14 15 16 17 18 19 20 21 22 23 24 25 26 27 28 29 30 31 32 33 34 35 36 37 38 39 40 41 42 43 44 45 46 47 48 49 50 51 52 53 54 55 56 57 58 59 60 61 62 63 64 65 66 67 68 69 70 71 72 73 74 75 76 77 78 79 80 81 82 83 84 85 86 87 88 89 90 91 92 93 94 95 96 97 98 99 100 101 102 103 104 105 106 107 108 109 110 111 112 113 114 115 116 117 118 119 120 121 122 123 124 125 126 127 128 129 130 131 132 133 134 135 136 137 138 139 140 141 142 143 144 145 146 147 148 149 150 151 152 153 154 155 156 157 158 159 160 161 162 163 164 165 166 167 168 169 170 171 172 173 174 175 176 177 178 179 180 181 182 183 184 185 186 187 188 189 190 191 192 193 194 195 196 197 198 199 200 201 202 203 204 205 206 207 208 209 210 211 212 213 214 215 216 217 218 219 220 221 222 223 224 225 226 227 228 229 230 231 232 233 234 235 236 237 238 239 240 241 242 243 244 245 246 247 248 249 250 251 252 253 254 255 256 257 258 259 260 261 262 263 264 265 266 267 268 269 270 271 272 273 274 275 276 277 278 279 280 281 282 283 284 285 286 287 288 289 290 291 292 293 294 295 296 297 298 299 
