ply
format ascii 1.0
comment written by koba@oshima.lab
element vertex 300
property float x
property float y
property float z
property int label
property int attribute
property float radius
property float curvature
property float torsion
element edge 300
property int vertex1
property int vertex2
property int label
element vertex_seq 1
property int label
property list int int vertex_indices
end_header
4.67141 24.7818 -3.05933 0 0 1.5 0.0392175 0.00951694 
4.54361 24.4457 -3.06194 0 0 1.5 0.0387027 0.00984773 
4.4158 24.1096 -3.06455 0 0 1.5 0.038172 0.0103191 
4.28799 23.7735 -3.06716 0 0 1.5 0.0376204 0.0109438 
4.16018 23.4374 -3.06976 0 0 1.5 0.0364344 0.0127032 
4.03238 23.1012 -3.07237 0 0 1.5 0.0357866 0.0138536 
3.90457 22.7651 -3.07498 0 0 1.5 0.035091 0.0152206 
3.77676 22.429 -3.07759 0 0 1.5 0.0343396 0.0168456 
3.64895 22.0929 -3.0802 0 0 1.5 0.0326277 0.0209003 
3.52115 21.7568 -3.0828 0 0 1.5 0.0316387 0.023461 
3.39334 21.4207 -3.08541 0 0 1.5 0.0305419 0.0265579 
3.26553 21.0846 -3.08802 0 0 1.5 0.0293224 0.0302913 
3.13772 20.7485 -3.09063 0 0 1.5 0.0264395 0.040684 
3.00992 20.4124 -3.09323 0 0 1.5 0.0247382 0.0484922 
2.88211 20.0763 -3.09584 0 0 1.5 0.0228395 0.0592575 
2.7543 19.7402 -3.09845 0 0 1.5 0.0183825 0.0989511 
2.62649 19.4041 -3.10106 0 0 1.5 0.0157968 0.14004 
2.49869 19.068 -3.10367 0 0 1.5 0.0129674 0.217997 
2.37088 18.7319 -3.10627 0 0 1.5 0.00992465 0.392076 
2.24307 18.3958 -3.10888 0 0 1.5 0.0042284 2.4642 
2.11526 18.0597 -3.11149 0 0 1.5 0.00461308 2.24796 
1.98746 17.7236 -3.1141 0 0 1.5 0.00807256 0.805682 
1.85965 17.3875 -3.11671 0 0 1.5 0.0126122 0.366936 
1.73184 17.0514 -3.11931 0 0 1.5 0.0232226 0.13927 
1.60403 16.7153 -3.12192 0 0 1.5 0.0291216 0.10239 
1.47623 16.3792 -3.12453 0 0 1.5 0.0353687 0.0812365 
1.34842 16.043 -3.12714 0 0 1.5 0.0488187 0.0601547 
1.22061 15.7069 -3.12974 0 0 1.5 0.0559496 0.0549132 
1.0928 15.3708 -3.13235 0 0 1.5 0.0632779 0.0517151 
0.964996 15.0347 -3.13496 0 0 1.5 0.0707413 0.050013 
0.837189 14.6986 -3.13757 0 0 1.5 0.0857546 0.0497501 
0.709381 14.3625 -3.14018 0 0 1.5 0.093093 0.0509265 
0.581574 14.0264 -3.14278 0 0 1.5 0.100159 0.0529316 
0.453766 13.6903 -3.14539 0 0 1.5 0.106822 0.0556853 
0.325959 13.3542 -3.148 0 0 1.5 0.118366 0.0635278 
0.198151 13.0181 -3.15061 0 0 1.5 0.122962 0.0689037 
0.0457297 12.6934 -3.14508 0 0 1.5 0.126603 0.075318 
-0.125611 12.3775 -3.1333 0 0 1.5 0.129195 0.0828363 
-0.323947 12.0796 -3.10885 0 0 1.5 0.130999 0.102564 
-0.536786 11.7915 -3.07758 0 0 1.5 0.13018 0.115338 
-0.77925 11.5316 -3.02671 0 0 1.5 0.128286 0.130296 
-1.02933 11.2798 -2.97031 0 0 1.5 0.121748 0.169655 
-1.30441 11.0625 -2.89018 0 0 1.5 0.11743 0.195294 
-1.58455 10.8557 -2.8029 0 0 1.5 0.112727 0.225199 
-1.87676 10.6739 -2.69854 0 0 1.5 0.10793 0.259836 
-2.17362 10.5074 -2.58419 0 0 1.5 0.0994367 0.3408 
-2.47523 10.3563 -2.45964 0 0 1.5 0.0965677 0.380694 
-2.78006 10.2206 -2.32627 0 0 1.5 0.0952324 0.413127 
-3.08666 10.0933 -2.18806 0 0 1.5 0.0958778 0.431887 
-3.39635 9.97845 -2.04607 0 0 1.5 0.104472 0.413678 
-3.70704 9.86773 -1.90284 0 0 1.5 0.112749 0.38172 
-4.02272 9.76523 -1.76453 0 0 1.5 0.123674 0.34323 
-4.33932 9.66427 -1.62714 0 0 1.5 0.153069 0.268019 
-4.66448 9.56663 -1.50871 0 0 1.5 0.171299 0.236539 
-4.99167 9.46872 -1.39707 0 0 1.5 0.191708 0.209982 
-5.32777 9.3686 -1.31758 0 0 1.5 0.214119 0.188173 
-5.6669 9.26458 -1.26738 0 0 1.5 0.263876 0.156326 
-6.00931 9.15628 -1.24912 0 0 1.5 0.290295 0.144811 
-6.34259 9.03726 -1.30943 0 0 1.5 0.316767 0.135608 
-6.6568 8.91253 -1.42137 0 0 1.5 0.342306 0.128316 
-6.94655 8.78241 -1.58728 0 0 1.5 0.385601 0.117588 
-7.18294 8.64852 -1.82287 0 0 1.5 0.400653 0.113572 
-7.37571 8.51586 -2.09303 0 0 1.5 0.409803 0.11019 
-7.53814 8.38476 -2.38491 0 0 1.5 0.408368 0.104634 
-7.64953 8.25933 -2.70298 0 0 1.5 0.398118 0.102313 
-7.73473 8.13961 -3.0301 0 0 1.5 0.38262 0.10025 
-7.79672 8.02495 -3.36524 0 0 1.5 0.363118 0.0985077 
-7.82396 7.92314 -3.70872 0 0 1.5 0.317292 0.0962756 
-7.83958 7.82681 -4.05451 0 0 1.5 0.293263 0.0957582 
-7.82943 7.74482 -4.40448 0 0 1.5 0.269665 0.095726 
-7.80501 7.67293 -4.75563 0 0 1.5 0.247077 0.096267 
-7.76942 7.60896 -5.10769 0 0 1.5 0.206248 0.0989506 
-7.71384 7.55809 -5.45929 0 0 1.5 0.188313 0.101087 
-7.64976 7.5087 -5.80956 0 0 1.5 0.172075 0.103788 
-7.57612 7.46001 -6.15812 0 0 1.5 0.157496 0.107043 
-7.4877 7.40048 -6.50155 0 0 1.5 0.133056 0.114991 
-7.3882 7.32451 -6.83834 0 0 1.5 0.123062 0.119422 
-7.27805 7.23169 -7.16736 0 0 1.5 0.114486 0.123934 
-7.15548 7.11794 -7.48571 0 0 1.5 0.101522 0.131812 
-7.01621 6.98102 -7.7874 0 0 1.5 0.0971703 0.133994 
-6.86748 6.83458 -8.0798 0 0 1.5 0.0943058 0.134235 
-6.70644 6.67719 -8.36016 0 0 1.5 0.0930082 0.132077 
-6.53145 6.51397 -8.62831 0 0 1.5 0.0954808 0.119737 
-6.35126 6.34856 -8.8919 0 0 1.5 0.0994433 0.110287 
-6.15455 6.18209 -9.14265 0 0 1.5 0.105365 0.0997071 
-5.95661 6.01559 -9.39245 0 0 1.5 0.113374 0.0887776 
-5.74392 5.85163 -9.63159 0 0 1.5 0.136368 0.0682615 
-5.53123 5.68767 -9.87073 0 0 1.5 0.151871 0.0593473 
-5.30696 5.52684 -10.1012 0 0 1.5 0.170533 0.0514495 
-5.08234 5.3661 -10.3315 0 0 1.5 0.219559 0.0383572 
-4.84978 5.20655 -10.5545 0 0 1.5 0.251424 0.032887 
-4.61595 5.04719 -10.7764 0 0 1.5 0.289487 0.0278726 
-4.37645 4.88597 -10.9907 0 0 1.5 0.334967 0.0230845 
-4.13513 4.72415 -11.2026 0 0 1.5 0.453726 0.0133537 
-3.88833 4.55612 -11.4028 0 0 1.5 0.529565 0.00785477 
-3.63973 4.38604 -11.5993 0 0 1.5 0.617044 0.0014553 
-3.3826 4.20023 -11.7684 0 0 1.5 0.714604 -0.00606856 
-3.12037 4.00139 -11.9093 0 0 1.5 0.916524 -0.0249128 
-2.85388 3.77867 -11.978 0 0 1.5 0.997665 -0.0360256 
-2.62849 3.54816 -11.863 0 0 1.5 1.04528 -0.0472617 
-2.52699 3.39127 -11.568 0 0 1.5 1.00526 -0.0656446 
-2.50915 3.3015 -11.2231 0 0 1.5 0.926161 -0.0716957 
-2.52629 3.24196 -10.8693 0 0 1.5 0.826229 -0.0755736 
-2.5694 3.20434 -10.5143 0 0 1.5 0.72026 -0.0777031 
-2.62412 3.17441 -10.1603 0 0 1.5 0.526822 -0.0801191 
-2.68729 3.15007 -9.80718 0 0 1.5 0.446782 -0.0815894 
-2.76139 3.12977 -9.45595 0 0 1.5 0.378382 -0.0836615 
-2.8393 3.11088 -9.10541 0 0 1.5 0.320497 -0.08679 
-2.92735 3.09389 -8.75722 0 0 1.5 0.230386 -0.0980137 
-3.01787 3.07736 -8.40959 0 0 1.5 0.195383 -0.107052 
-3.11807 3.06333 -8.06456 0 0 1.5 0.165538 -0.119518 
-3.21994 3.04972 -7.71996 0 0 1.5 0.139947 -0.13686 
-3.33103 3.04308 -7.37803 0 0 1.5 0.0988334 -0.196214 
-3.44353 3.03907 -7.03656 0 0 1.5 0.0824098 -0.246828 
-3.56155 3.04785 -6.697 0 0 1.5 0.0684528 -0.320442 
-3.67992 3.06812 -6.35828 0 0 1.5 0.0485436 -0.552797 
-3.79872 3.10189 -6.02057 0 0 1.5 0.0436407 -0.663685 
-3.91023 3.16498 -5.68476 0 0 1.5 0.0428787 -0.686323 
-4.01298 3.24593 -5.35041 0 0 1.5 0.046115 -0.609467 
-4.10313 3.34928 -5.018 0 0 1.5 0.0612612 -0.394483 
-4.16275 3.48108 -4.68896 0 0 1.5 0.0716424 -0.320045 
-4.19896 3.62348 -4.36153 0 0 1.5 0.0833516 -0.268017 
-4.21136 3.77405 -4.03543 0 0 1.5 0.0962669 -0.23173 
-4.18261 3.92398 -3.70986 0 0 1.5 0.125701 -0.188962 
-4.12825 4.06218 -3.38311 0 0 1.5 0.142314 -0.176863 
-4.05426 4.18908 -3.05525 0 0 1.5 0.16029 -0.168387 
-3.95093 4.28434 -2.72426 0 0 1.5 0.2005 -0.158694 
-3.8355 4.35186 -2.39152 0 0 1.5 0.222645 -0.156299 
-3.71071 4.3979 -2.05744 0 0 1.5 0.24593 -0.154885 
-3.57721 4.38664 -1.72387 0 0 1.5 0.270001 -0.154049 
-3.44434 4.35179 -1.39295 0 0 1.5 0.318042 -0.15277 
-3.31308 4.27532 -1.06702 0 0 1.5 0.340267 -0.151755 
-3.18953 4.15559 -0.752774 0 0 1.5 0.359837 -0.149969 
-3.06954 4.01583 -0.443941 0 0 1.5 0.375538 -0.147062 
-2.9659 3.81809 -0.162127 0 0 1.5 0.391114 -0.138271 
-2.86737 3.60594 0.109428 0 0 1.5 0.389758 -0.132422 
-2.78228 3.3563 0.353852 0 0 1.5 0.382242 -0.125611 
-2.70658 3.08402 0.573831 0 0 1.5 0.36911 -0.11834 
-2.63915 2.79183 0.772286 0 0 1.5 0.330047 -0.104043 
-2.58408 2.47367 0.92833 0 0 1.5 0.306454 -0.0972985 
-2.53295 2.14748 1.07009 0 0 1.5 0.281618 -0.0912345 
-2.49402 1.80064 1.15665 0 0 1.5 0.231683 -0.0820124 
-2.45811 1.45054 1.22528 0 0 1.5 0.20777 -0.078899 
-2.42879 1.09336 1.25478 0 0 1.5 0.185018 -0.0769385 
-2.40289 0.73553 1.25675 0 0 1.5 0.163601 -0.076292 
-2.37962 0.377196 1.2377 0 0 1.5 0.124963 -0.0796526 
-2.35831 0.0214909 1.19143 0 0 1.5 0.107675 -0.0845873 
-2.33746 -0.333501 1.13806 0 0 1.5 0.0916375 -0.0930149 
-2.31569 -0.685735 1.06903 0 0 1.5 0.0767596 -0.10679 
-2.29298 -1.03805 1.00077 0 0 1.5 0.0501771 -0.169395 
-2.26739 -1.39063 0.934856 0 0 1.5 0.0383981 -0.245693 
-2.23892 -1.74464 0.879689 0 0 1.5 0.0277507 -0.41126 
-2.20749 -2.10013 0.835524 0 0 1.5 0.0135965 -1.47547 
-2.17107 -2.45719 0.82007 0 0 1.5 0.0151888 -1.18075 
-2.13277 -2.81452 0.816406 0 0 1.5 0.0216021 -0.611692 
-2.08947 -3.16954 0.853753 0 0 1.5 0.0295576 -0.357227 
-2.04484 -3.52182 0.906529 0 0 1.5 0.0463469 -0.188918 
-1.99795 -3.86942 0.985803 0 0 1.5 0.0547832 -0.157599 
-1.94966 -4.21146 1.0844 0 0 1.5 0.0631988 -0.138937 
-1.90048 -4.5499 1.19553 0 0 1.5 0.0715991 -0.126864 
-1.84926 -4.88259 1.32173 0 0 1.5 0.0884565 -0.111604 
-1.79744 -5.21357 1.45239 0 0 1.5 0.0969577 -0.106253 
-1.74137 -5.54089 1.59028 0 0 1.5 0.105524 -0.101457 
-1.6846 -5.86761 1.72933 0 0 1.5 0.122855 -0.0917764 
-1.6196 -6.19287 1.86819 0 0 1.5 0.131585 -0.0865154 
-1.55365 -6.51795 2.00704 0 0 1.5 0.140308 -0.0809095 
-1.47388 -6.84217 2.14046 0 0 1.5 0.14896 -0.0749567 
-1.39269 -7.16631 2.27333 0 0 1.5 0.165679 -0.0615259 
-1.2904 -7.48764 2.39802 0 0 1.5 0.173516 -0.054222 
-1.18647 -7.80876 2.52207 0 0 1.5 0.180822 -0.0468901 
-1.05172 -8.12152 2.63751 0 0 1.5 0.187447 -0.0393969 
-0.911821 -8.43198 2.75216 0 0 1.5 0.198022 -0.0238285 
-0.737806 -8.72692 2.86187 0 0 1.5 0.201674 -0.0162846 
-0.548583 -9.01122 2.97149 0 0 1.5 0.204066 -0.00888031 
-0.330235 -9.27513 3.08095 0 0 1.5 0.205098 -0.00151077 
-0.0837985 -9.50911 3.19447 0 0 1.5 0.202917 0.0119819 
0.178299 -9.72637 3.31026 0 0 1.5 0.199757 0.0178974 
0.475103 -9.8842 3.43794 0 0 1.5 0.195312 0.0233698 
0.77928 -10.0182 3.57118 0 0 1.5 0.183064 0.0326803 
1.09564 -10.1127 3.71363 0 0 1.5 0.175594 0.0364547 
1.4154 -10.1665 3.86686 0 0 1.5 0.167454 0.0396748 
1.73646 -10.2047 4.02425 0 0 1.5 0.158809 0.0424249 
2.05268 -10.2001 4.1954 0 0 1.5 0.140674 0.0466095 
2.36717 -10.1901 4.369 0 0 1.5 0.131472 0.0478899 
2.67473 -10.1575 4.55247 0 0 1.5 0.122335 0.0487475 
2.97941 -10.12 4.73948 0 0 1.5 0.113358 0.049331 
3.27819 -10.0722 4.93378 0 0 1.5 0.096182 0.0489009 
3.57404 -10.022 5.13182 0 0 1.5 0.0880883 0.0477824 
3.86569 -9.96839 5.33523 0 0 1.5 0.0803657 0.0463288 
4.15509 -9.91511 5.54187 0 0 1.5 0.0661034 0.0411994 
4.44198 -9.86221 5.75211 0 0 1.5 0.0595849 0.0371914 
4.72772 -9.81166 5.96448 0 0 1.5 0.0534663 0.0324549 
5.01247 -9.76312 6.17864 0 0 1.5 0.0477354 0.026646 
5.29754 -9.71804 6.39313 0 0 1.5 0.0374013 0.0102959 
5.58279 -9.67501 6.60781 0 0 1.5 0.0327659 -0.000225395 
5.87018 -9.63572 6.82032 0 0 1.5 0.0284569 -0.0127182 
6.15833 -9.59773 7.03207 0 0 1.5 0.024461 -0.0277914 
6.45057 -9.56279 7.23865 0 0 1.5 0.0173566 -0.0679563 
6.74359 -9.52832 7.44421 0 0 1.5 0.014213 -0.0956388 
7.0417 -9.49535 7.64259 0 0 1.5 0.0113404 -0.132475 
7.34085 -9.46235 7.83934 0 0 1.5 0.00658328 -0.275435 
7.64368 -9.42925 8.0304 0 0 1.5 0.00501774 -0.403791 
7.9478 -9.39557 8.21928 0 0 1.5 0.00451721 -0.462135 
8.2538 -9.36106 8.40498 0 0 1.5 0.00526678 -0.361412 
8.56039 -9.32511 8.58942 0 0 1.5 0.00880871 -0.201706 
8.86739 -9.28818 8.77298 0 0 1.5 0.0110404 -0.170377 
9.17356 -9.24907 8.95746 0 0 1.5 0.0134978 -0.14939 
9.47948 -9.20929 9.14223 0 0 1.5 0.0161972 -0.132212 
9.7829 -9.16681 9.33048 0 0 1.5 0.0224793 -0.103047 
10.0859 -9.12394 9.51934 0 0 1.5 0.0261626 -0.0898477 
10.3858 -9.0787 9.71257 0 0 1.5 0.0302633 -0.0774883 
10.685 -9.03314 9.90668 0 0 1.5 0.0348176 -0.0662735 
10.9817 -8.98626 10.1043 0 0 1.5 0.0454454 -0.0475798 
11.2778 -8.93947 10.3029 0 0 1.5 0.0515825 -0.0401148 
11.5724 -8.89286 10.5038 0 0 1.5 0.0582989 -0.0337788 
11.8667 -8.84747 10.7054 0 0 1.5 0.0735823 -0.0239241 
12.1604 -8.80397 10.9082 0 0 1.5 0.0821884 -0.0202156 
12.4541 -8.76408 11.1118 0 0 1.5 0.0914467 -0.0171451 
12.7479 -8.72819 11.3161 0 0 1.5 0.10136 -0.0145879 
13.0415 -8.70014 11.5216 0 0 1.5 0.123099 -0.0107545 
13.3351 -8.67821 11.7281 0 0 1.5 0.134833 -0.00934473 
13.6275 -8.67152 11.937 0 0 1.5 0.147036 -0.00818485 
13.9193 -8.67214 12.1472 0 0 1.5 0.159587 -0.00723383 
14.206 -8.7007 12.3619 0 0 1.5 0.185022 -0.00582753 
14.491 -8.73747 12.5779 0 0 1.5 0.197418 -0.00531543 
14.7631 -8.81637 12.7993 0 0 1.5 0.209187 -0.00489735 
15.0263 -8.91452 13.0219 0 0 1.5 0.229445 -0.00426521 
15.2731 -9.04807 13.2468 0 0 1.5 0.237186 -0.00403139 
15.4932 -9.22179 13.4696 0 0 1.5 0.24286 -0.00383574 
15.6996 -9.41542 13.6911 0 0 1.5 0.246215 -0.00366422 
15.8576 -9.66057 13.9014 0 0 1.5 0.245411 -0.00337984 
15.9975 -9.91943 14.1053 0 0 1.5 0.241242 -0.00326302 
16.1009 -10.206 14.2964 0 0 1.5 0.234787 -0.00315893 
16.176 -10.5072 14.4751 0 0 1.5 0.22634 -0.00306587 
16.2259 -10.8214 14.6425 0 0 1.5 0.204854 -0.00291405 
16.2483 -11.1449 14.7956 0 0 1.5 0.192553 -0.00286069 
16.2502 -11.475 14.938 0 0 1.5 0.179687 -0.00282225 
16.234 -11.8083 15.0699 0 0 1.5 0.166553 -0.00279816 
16.1941 -12.1456 15.188 0 0 1.5 0.14043 -0.00281968 
16.1541 -12.4829 15.306 0 0 1.5 0.127809 -0.00287226 
16.1142 -12.8202 15.4241 0 0 1.5 0.115652 -0.00295333 
16.0743 -13.1575 15.5421 0 0 1.5 0.093005 -0.00325265 
16.0344 -13.4948 15.6602 0 0 1.5 0.0825905 -0.00349765 
15.9944 -13.8322 15.7782 0 0 1.5 0.0728066 -0.00382357 
15.9545 -14.1695 15.8963 0 0 1.5 0.0636581 -0.0042644 
15.9146 -14.5068 16.0143 0 0 1.5 0.0472254 -0.00572693 
15.8746 -14.8441 16.1324 0 0 1.5 0.0399307 -0.00692455 
15.8347 -15.1814 16.2504 0 0 1.5 0.0332569 -0.00866699 
15.7948 -15.5187 16.3684 0 0 1.5 0.0272118 -0.0113099 
15.7548 -15.856 16.4865 0 0 1.5 0.0171983 -0.0218875 
15.7149 -16.1933 16.6045 0 0 1.5 0.0134818 -0.0314841 
15.675 -16.5306 16.7226 0 0 1.5 0.010945 -0.0424549 
15.635 -16.868 16.8406 0 0 1.5 0.0101513 -0.0393533 
15.5951 -17.2053 16.9587 0 0 1.5 0.0113049 -0.0284436 
15.5552 -17.5426 17.0767 0 0 1.5 0.0127866 -0.0200302 
15.5153 -17.8799 17.1948 0 0 1.5 0.0142724 -0.0145358 
15.4753 -18.2172 17.3128 0 0 1.5 0.0166836 -0.00873962 
15.4354 -18.5545 17.4309 0 0 1.5 0.0174951 -0.00723042 
15.3955 -18.8918 17.5489 0 0 1.5 0.0180218 -0.00620595 
15.3555 -19.2291 17.667 0 0 1.5 0.0182654 -0.00549601 
15.3156 -19.5664 17.785 0 0 1.5 0.0179544 -0.00471793 
15.2757 -19.9038 17.903 0 0 1.5 0.0174434 -0.00455812 
15.2357 -20.2411 18.0211 0 0 1.5 0.0167315 -0.00450743 
15.1958 -20.5784 18.1391 0 0 1.5 0.0148239 -0.00474916 
15.1559 -20.9157 18.2572 0 0 1.5 0.0136866 -0.00506678 
15.1159 -21.253 18.3752 0 0 1.5 0.0124684 -0.00553527 
15.076 -21.5903 18.4933 0 0 1.5 0.0112008 -0.00620839 
15.0361 -21.9276 18.6113 0 0 1.5 0.00862393 -0.00858503 
14.9961 -22.2649 18.7294 0 0 1.5 0.00737004 -0.0106009 
14.9562 -22.6022 18.8474 0 0 1.5 0.00617858 -0.0135802 
14.9163 -22.9395 18.9655 0 0 1.5 0.00507818 -0.0181202 
14.8764 -23.2769 19.0835 0 0 1.5 0.00331494 -0.0344254 
14.8364 -23.6142 19.2015 0 0 1.5 0.00277496 -0.0441144 
14.7965 -23.9515 19.3196 0 0 1.5 0.00254348 -0.0472601 
14.7566 -24.2888 19.4376 0 0 1.5 0.00260594 -0.0405583 
14.7166 -24.6261 19.5557 0 0 1.5 0.00320243 -0.0217874 
14.6767 -24.9634 19.6737 0 0 1.5 0.0035527 -0.0160388 
14.6368 -25.3007 19.7918 0 0 1.5 0.00387545 -0.0122603 
14.5968 -25.638 19.9098 0 0 1.5 0.00437459 -0.00802794 
14.5569 -25.9753 20.0279 0 0 1.5 0.00454096 -0.00685441 
14.517 -26.3127 20.1459 0 0 1.5 0.0046528 -0.00603071 
14.477 -26.65 20.264 0 0 1.5 0.00471336 -0.00544029 
14.4371 -26.9873 20.382 0 0 1.5 0.00469937 -0.00474735 
14.3972 -27.3246 20.5001 0 0 1.5 0.00463665 -0.00456801 
14.3572 -27.6619 20.6181 0 0 1.5 0.0045453 -0.00445583 
14.3173 -27.9992 20.7361 0 0 1.5 0.00443158 -0.00439936 
14.2774 -28.3365 20.8542 0 0 1.5 0.00415763 -0.00442588 
14.2375 -28.6738 20.9722 0 0 1.5 0.00400745 -0.00447519 
14.1975 -29.0111 21.0903 0 0 1.5 0.00385475 -0.0045377 
14.1576 -29.3485 21.2083 0 0 1.5 0.00355377 -0.0046934 
14.1177 -29.6858 21.3264 0 0 1.5 0.00341088 -0.00475786 
14.0777 -30.0231 21.4444 0 0 1.5 0.00327622 -0.00480612 
14.0378 -30.3604 21.5625 0 0 1.5 0.0031506 -0.00484511 
13.9979 -30.6977 21.6805 0 0 1.5 0.0029282 -0.00486887 
13.9579 -31.035 21.7986 0 0 1.5 0.00283208 -0.00485276 
13.918 -31.3723 21.9166 0 0 1.5 0.00274543 -0.00483489 
13.8781 -31.7096 22.0346 0 0 1.5 0.00266741 -0.00482004 
13.8381 -32.0469 22.1527 0 0 1.5 0.00253438 -0.00482438 
13.7982 -32.3843 22.2707 0 0 1.5 0.00247775 -0.00486642 
13.7583 -32.7216 22.3888 0 0 1.5 0.00242658 -0.00494797 
0 1 0 
1 2 0 
2 3 0 
3 4 0 
4 5 0 
5 6 0 
6 7 0 
7 8 0 
8 9 0 
9 10 0 
10 11 0 
11 12 0 
12 13 0 
13 14 0 
14 15 0 
15 16 0 
16 17 0 
17 18 0 
18 19 0 
19 20 0 
20 21 0 
21 22 0 
22 23 0 
23 24 0 
24 25 0 
25 26 0 
26 27 0 
27 28 0 
28 29 0 
29 30 0 
30 31 0 
31 32 0 
32 33 0 
33 34 0 
34 35 0 
35 36 0 
36 37 0 
37 38 0 
38 39 0 
39 40 0 
40 41 0 
41 42 0 
42 43 0 
43 44 0 
44 45 0 
45 46 0 
46 47 0 
47 48 0 
48 49 0 
49 50 0 
50 51 0 
51 52 0 
52 53 0 
53 54 0 
54 55 0 
55 56 0 
56 57 0 
57 58 0 
58 59 0 
59 60 0 
60 61 0 
61 62 0 
62 63 0 
63 64 0 
64 65 0 
65 66 0 
66 67 0 
67 68 0 
68 69 0 
69 70 0 
70 71 0 
71 72 0 
72 73 0 
73 74 0 
74 75 0 
75 76 0 
76 77 0 
77 78 0 
78 79 0 
79 80 0 
80 81 0 
81 82 0 
82 83 0 
83 84 0 
84 85 0 
85 86 0 
86 87 0 
87 88 0 
88 89 0 
89 90 0 
90 91 0 
91 92 0 
92 93 0 
93 94 0 
94 95 0 
95 96 0 
96 97 0 
97 98 0 
98 99 0 
99 100 0 
100 101 0 
101 102 0 
102 103 0 
103 104 0 
104 105 0 
105 106 0 
106 107 0 
107 108 0 
108 109 0 
109 110 0 
110 111 0 
111 112 0 
112 113 0 
113 114 0 
114 115 0 
115 116 0 
116 117 0 
117 118 0 
118 119 0 
119 120 0 
120 121 0 
121 122 0 
122 123 0 
123 124 0 
124 125 0 
125 126 0 
126 127 0 
127 128 0 
128 129 0 
129 130 0 
130 131 0 
131 132 0 
132 133 0 
133 134 0 
134 135 0 
135 136 0 
136 137 0 
137 138 0 
138 139 0 
139 140 0 
140 141 0 
141 142 0 
142 143 0 
143 144 0 
144 145 0 
145 146 0 
146 147 0 
147 148 0 
148 149 0 
149 150 0 
150 151 0 
151 152 0 
152 153 0 
153 154 0 
154 155 0 
155 156 0 
156 157 0 
157 158 0 
158 159 0 
159 160 0 
160 161 0 
161 162 0 
162 163 0 
163 164 0 
164 165 0 
165 166 0 
166 167 0 
167 168 0 
168 169 0 
169 170 0 
170 171 0 
171 172 0 
172 173 0 
173 174 0 
174 175 0 
175 176 0 
176 177 0 
177 178 0 
178 179 0 
179 180 0 
180 181 0 
181 182 0 
182 183 0 
183 184 0 
184 185 0 
185 186 0 
186 187 0 
187 188 0 
188 189 0 
189 190 0 
190 191 0 
191 192 0 
192 193 0 
193 194 0 
194 195 0 
195 196 0 
196 197 0 
197 198 0 
198 199 0 
199 200 0 
200 201 0 
201 202 0 
202 203 0 
203 204 0 
204 205 0 
205 206 0 
206 207 0 
207 208 0 
208 209 0 
209 210 0 
210 211 0 
211 212 0 
212 213 0 
213 214 0 
214 215 0 
215 216 0 
216 217 0 
217 218 0 
218 219 0 
219 220 0 
220 221 0 
221 222 0 
222 223 0 
223 224 0 
224 225 0 
225 226 0 
226 227 0 
227 228 0 
228 229 0 
229 230 0 
230 231 0 
231 232 0 
232 233 0 
233 234 0 
234 235 0 
235 236 0 
236 237 0 
237 238 0 
238 239 0 
239 240 0 
240 241 0 
241 242 0 
242 243 0 
243 244 0 
244 245 0 
245 246 0 
246 247 0 
247 248 0 
248 249 0 
249 250 0 
250 251 0 
251 252 0 
252 253 0 
253 254 0 
254 255 0 
255 256 0 
256 257 0 
257 258 0 
258 259 0 
259 260 0 
260 261 0 
261 262 0 
262 263 0 
263 264 0 
264 265 0 
265 266 0 
266 267 0 
267 268 0 
268 269 0 
269 270 0 
270 271 0 
271 272 0 
272 273 0 
273 274 0 
274 275 0 
275 276 0 
276 277 0 
277 278 0 
278 279 0 
279 280 0 
280 281 0 
281 282 0 
282 283 0 
283 284 0 
284 285 0 
285 286 0 
286 287 0 
287 288 0 
288 289 0 
289 290 0 
290 291 0 
291 292 0 
292 293 0 
293 294 0 
294 295 0 
295 296 0 
296 297 0 
297 298 0 
298 299 0 
-1 -1 0 
-1 300 0 1 2 3 4 5 6 7 8 9 10 11 12 13 14 15 16 17 18 19 20 21 22 23 24 25 26 27 28 29 30 31 32 33 34 35 36 37 38 39 40 41 42 43 44 45 46 47 48 49 50 51 52 53 54 55 56 57 58 59 60 61 62 63 64 65 66 67 68 69 70 71 72 73 74 75 76 77 78 79 80 81 82 83 84 85 86 87 88 89 90 91 92 93 94 95 96 97 98 99 100 101 102 103 104 105 106 107 108 109 110 111 112 113 114 115 116 117 118 119 120 121 122 123 124 125 126 127 128 129 130 131 132 133 134 135 136 137 138 139 140 141 142 143 144 145 146 147 148 149 150 151 152 153 154 155 156 157 158 159 160 161 162 163 164 165 166 167 168 169 170 171 172 173 174 175 176 177 178 179 180 181 182 183 184 185 186 187 188 189 190 191 192 193 194 195 196 197 198 199 200 201 202 203 204 205 206 207 208 209 210 211 212 213 214 215 216 217 218 219 220 221 222 223 224 225 226 227 228 229 230 231 232 233 234 235 236 237 238 239 240 241 242 243 244 245 246 247 248 249 250 251 252 253 254 255 256 257 258 259 260 261 262 263 264 265 266 267 268 269 270 271 272 273 274 275 276 277 278 279 280 281 282 283 284 285 286 287 288 289 290 291 292 293 294 295 296 297 298 299 
