ply
format ascii 1.0
comment written by koba@oshima.lab
element vertex 300
property float x
property float y
property float z
property int label
property int attribute
property float radius
property float curvature
property float torsion
element edge 300
property int vertex1
property int vertex2
property int label
element vertex_seq 1
property int label
property list int int vertex_indices
end_header
6.18069 24.9055 -3.60767 0 0 1.5 0.0387254 0.0130413 
5.93067 24.6686 -3.69047 0 0 1.5 0.037738 0.0139257 
5.68065 24.4317 -3.77328 0 0 1.5 0.0367251 0.0150859 
5.43062 24.1948 -3.85608 0 0 1.5 0.0356751 0.0165799 
5.1806 23.9579 -3.93888 0 0 1.5 0.0334178 0.0208776 
4.93058 23.721 -4.02168 0 0 1.5 0.0321853 0.023885 
4.68056 23.4841 -4.10448 0 0 1.5 0.0308658 0.0276955 
4.43054 23.2471 -4.18729 0 0 1.5 0.0294457 0.0325827 
4.18051 23.0102 -4.27009 0 0 1.5 0.0262499 0.047084 
3.93049 22.7733 -4.35289 0 0 1.5 0.024446 0.0581643 
3.68047 22.5364 -4.43569 0 0 1.5 0.0224869 0.0736919 
3.43045 22.2995 -4.51849 0 0 1.5 0.0203621 0.0962131 
3.18042 22.0626 -4.6013 0 0 1.5 0.0155999 0.186866 
2.9304 21.8257 -4.6841 0 0 1.5 0.0129816 0.288312 
2.68038 21.5887 -4.7669 0 0 1.5 0.0102709 0.492032 
2.43036 21.3518 -4.8497 0 0 1.5 0.00573385 1.80344 
2.18034 21.1149 -4.9325 0 0 1.5 0.00580753 1.88726 
1.93031 20.878 -5.01531 0 0 1.5 0.0082032 1.01813 
1.68029 20.6411 -5.09811 0 0 1.5 0.0118314 0.527974 
1.43027 20.4042 -5.18091 0 0 1.5 0.0206982 0.203577 
1.18025 20.1673 -5.26371 0 0 1.5 0.0256247 0.145256 
0.930227 19.9304 -5.34651 0 0 1.5 0.0307815 0.110332 
0.680204 19.6934 -5.42932 0 0 1.5 0.0361115 0.0881645 
0.430182 19.4565 -5.51212 0 0 1.5 0.0470785 0.0633851 
0.18016 19.2196 -5.59492 0 0 1.5 0.0525841 0.0562133 
-0.0698617 18.9827 -5.67772 0 0 1.5 0.0579961 0.0511728 
-0.319884 18.7458 -5.76052 0 0 1.5 0.0681823 0.0453956 
-0.569906 18.5089 -5.84333 0 0 1.5 0.0727523 0.0438083 
-0.819928 18.272 -5.92613 0 0 1.5 0.0768227 0.042955 
-1.06995 18.035 -6.00893 0 0 1.5 0.0802794 0.0428414 
-1.31997 17.7981 -6.09173 0 0 1.5 0.0849248 0.0442484 
-1.56999 17.5612 -6.17453 0 0 1.5 0.085925 0.0458368 
-1.82002 17.3243 -6.25734 0 0 1.5 0.0859373 0.0482881 
-2.07004 17.0874 -6.34014 0 0 1.5 0.084905 0.0516367 
-2.32006 16.8505 -6.42294 0 0 1.5 0.0796463 0.0619006 
-2.57008 16.6136 -6.50574 0 0 1.5 0.0754267 0.0702195 
-2.82221 16.3757 -6.56824 0 0 1.5 0.070175 0.081963 
-3.08165 16.1347 -6.56002 0 0 1.5 0.0639592 0.0988921 
-3.33913 15.8971 -6.52153 0 0 1.5 0.0489444 0.16863 
-3.59386 15.6645 -6.44092 0 0 1.5 0.0403324 0.248846 
-3.8431 15.4389 -6.33178 0 0 1.5 0.0312504 0.416912 
-4.08879 15.2179 -6.20424 0 0 1.5 0.0151867 1.84858 
-4.32951 15.0033 -6.05802 0 0 1.5 0.0153887 1.89324 
-4.56866 14.7908 -5.90588 0 0 1.5 0.023892 0.844844 
-4.80671 14.5812 -5.74813 0 0 1.5 0.0360096 0.410888 
-5.0448 14.3719 -5.59005 0 0 1.5 0.0650807 0.167666 
-5.28739 14.1604 -5.44199 0 0 1.5 0.0814913 0.128563 
-5.53235 13.9473 -5.3009 0 0 1.5 0.0991275 0.107053 
-5.78447 13.7292 -5.18098 0 0 1.5 0.118034 0.0951208 
-6.04266 13.5067 -5.08768 0 0 1.5 0.15982 0.0854487 
-6.30571 13.2806 -5.01571 0 0 1.5 0.182681 0.0847254 
-6.57437 13.0502 -5.00822 0 0 1.5 0.206702 0.0860126 
-6.8403 12.8212 -5.0378 0 0 1.5 0.257016 0.0920736 
-7.10272 12.5942 -5.10931 0 0 1.5 0.282276 0.0962555 
-7.34539 12.3784 -5.25021 0 0 1.5 0.306542 0.101135 
-7.57407 12.1694 -5.41887 0 0 1.5 0.328753 0.106229 
-7.78614 11.9683 -5.61909 0 0 1.5 0.362365 0.115344 
-7.96898 11.7771 -5.85389 0 0 1.5 0.371563 0.119167 
-8.13955 11.5887 -6.09998 0 0 1.5 0.374646 0.122175 
-8.28131 11.405 -6.36768 0 0 1.5 0.371424 0.124119 
-8.40327 11.2215 -6.64426 0 0 1.5 0.347759 0.125511 
-8.50593 11.0382 -6.92951 0 0 1.5 0.329122 0.125531 
-8.57407 10.8522 -7.22261 0 0 1.5 0.307526 0.1255 
-8.62876 10.665 -7.51801 0 0 1.5 0.260033 0.126814 
-8.63924 10.4738 -7.81603 0 0 1.5 0.235947 0.129123 
-8.6283 10.2817 -8.11239 0 0 1.5 0.212498 0.133279 
-8.58654 10.0885 -8.40637 0 0 1.5 0.190083 0.139898 
-8.5068 9.89752 -8.69295 0 0 1.5 0.14915 0.164458 
-8.41136 9.70771 -8.97624 0 0 1.5 0.130822 0.185433 
-8.27293 9.52547 -9.24665 0 0 1.5 0.113997 0.215254 
-8.12359 9.34642 -9.51274 0 0 1.5 0.0987459 0.257425 
-7.95017 9.17439 -9.76931 0 0 1.5 0.0738355 0.39297 
-7.76487 9.00677 -10.02 0 0 1.5 0.0652072 0.479668 
-7.56782 8.84349 -10.265 0 0 1.5 0.0602804 0.545458 
-7.3627 8.68275 -10.5048 0 0 1.5 0.0599772 0.546612 
-7.15253 8.52359 -10.7415 0 0 1.5 0.0739486 0.375712 
-6.93971 8.36267 -10.9745 0 0 1.5 0.0871659 0.284569 
-6.72555 8.20087 -11.2057 0 0 1.5 0.103856 0.215073 
-6.51428 8.03186 -11.4343 0 0 1.5 0.147602 0.129562 
-6.30437 7.85947 -11.6617 0 0 1.5 0.175429 0.103636 
-6.10341 7.67348 -11.8862 0 0 1.5 0.208222 0.0843511 
-5.90613 7.48192 -12.1096 0 0 1.5 0.247109 0.0695727 
-5.72688 7.26786 -12.3271 0 0 1.5 0.349437 0.0472239 
-5.55273 7.04762 -12.543 0 0 1.5 0.417028 0.0377551 
-5.41279 6.79232 -12.7448 0 0 1.5 0.499066 0.0286402 
-5.2932 6.52111 -12.9357 0 0 1.5 0.598441 0.0189606 
-5.20478 6.2255 -13.1097 0 0 1.5 0.856543 -0.00568665 
-5.18282 5.89672 -13.238 0 0 1.5 1.01121 -0.0218059 
-5.21947 5.55739 -13.316 0 0 1.5 1.16874 -0.0410197 
-5.32289 5.22433 -13.3272 0 0 1.5 1.39103 -0.0848682 
-5.48765 4.92215 -13.2636 0 0 1.5 1.40129 -0.103767 
-5.6957 4.67021 -13.1312 0 0 1.5 1.3335 -0.117245 
-5.92764 4.48488 -12.9379 0 0 1.5 1.20791 -0.124855 
-6.16182 4.36693 -12.7016 0 0 1.5 0.899838 -0.127023 
-6.38897 4.29653 -12.442 0 0 1.5 0.758322 -0.125211 
-6.60721 4.26527 -12.1655 0 0 1.5 0.636181 -0.123523 
-6.80579 4.28582 -11.8728 0 0 1.5 0.533908 -0.12279 
-6.98891 4.33474 -11.5747 0 0 1.5 0.380371 -0.125966 
-7.16134 4.40286 -11.2729 0 0 1.5 0.323634 -0.130642 
-7.31062 4.50335 -10.9678 0 0 1.5 0.276971 -0.137826 
-7.45104 4.61326 -10.6621 0 0 1.5 0.206658 -0.160965 
-7.57906 4.73635 -10.3555 0 0 1.5 0.180357 -0.177719 
-7.69317 4.86957 -10.0479 0 0 1.5 0.158708 -0.19827 
-7.80143 5.00651 -9.73971 0 0 1.5 0.141104 -0.222269 
-7.89501 5.14881 -9.42909 0 0 1.5 0.116532 -0.275063 
-7.98203 5.29118 -9.11669 0 0 1.5 0.109114 -0.298284 
-8.06011 5.43365 -8.80188 0 0 1.5 0.104745 -0.314338 
-8.12577 5.57304 -8.48299 0 0 1.5 0.103273 -0.320382 
-8.1857 5.71076 -8.16221 0 0 1.5 0.108115 -0.303514 
-8.22894 5.84201 -7.83602 0 0 1.5 0.113882 -0.285965 
-8.26297 5.96887 -7.50724 0 0 1.5 0.121517 -0.266608 
-8.28489 6.08996 -7.17504 0 0 1.5 0.130775 -0.247824 
-8.2881 6.2009 -6.83884 0 0 1.5 0.153368 -0.21662 
-8.28294 6.30709 -6.50105 0 0 1.5 0.166406 -0.204692 
-8.25272 6.39768 -6.15991 0 0 1.5 0.180401 -0.195074 
-8.20951 6.47858 -5.81825 0 0 1.5 0.210505 -0.181996 
-8.14891 6.54654 -5.4759 0 0 1.5 0.226155 -0.177849 
-8.06311 6.59132 -5.13561 0 0 1.5 0.241775 -0.174847 
-7.96489 6.62327 -4.79728 0 0 1.5 0.256946 -0.172778 
-7.83936 6.6229 -4.46601 0 0 1.5 0.284072 -0.170215 
-7.69623 6.5944 -4.14453 0 0 1.5 0.294987 -0.169057 
-7.5396 6.54345 -3.83121 0 0 1.5 0.303447 -0.16772 
-7.3609 6.43964 -3.54348 0 0 1.5 0.309052 -0.166006 
-7.17593 6.30547 -3.27498 0 0 1.5 0.310759 -0.160503 
-6.98538 6.14397 -3.02381 0 0 1.5 0.306786 -0.156648 
-6.79611 5.93017 -2.81415 0 0 1.5 0.299864 -0.152189 
-6.61245 5.69737 -2.62267 0 0 1.5 0.278792 -0.141168 
-6.43588 5.44067 -2.45409 0 0 1.5 0.265597 -0.134771 
-6.27584 5.15775 -2.31469 0 0 1.5 0.251283 -0.128034 
-6.12228 4.86631 -2.18512 0 0 1.5 0.236299 -0.120895 
-5.98947 4.55512 -2.08017 0 0 1.5 0.205741 -0.105361 
-5.86497 4.23869 -1.9822 0 0 1.5 0.190698 -0.0973048 
-5.75597 3.9125 -1.89727 0 0 1.5 0.17606 -0.0888805 
-5.6583 3.58138 -1.81898 0 0 1.5 0.161933 -0.0797959 
-5.57119 3.24566 -1.74688 0 0 1.5 0.135405 -0.0599646 
-5.496 2.90629 -1.67922 0 0 1.5 0.123021 -0.0487671 
-5.42743 2.56491 -1.61402 0 0 1.5 0.111205 -0.0358358 
-5.36949 2.22129 -1.55061 0 0 1.5 0.0999237 -0.0207371 
-5.31522 1.87689 -1.48782 0 0 1.5 0.0788021 0.0197725 
-5.26895 1.53144 -1.42457 0 0 1.5 0.068894 0.0499465 
-5.22424 1.18577 -1.36123 0 0 1.5 0.0593971 0.0920553 
-5.18386 0.8399 -1.29615 0 0 1.5 0.0417114 0.251197 
-5.14379 0.494027 -1.23087 0 0 1.5 0.0337476 0.413638 
-5.10352 0.148477 -1.16402 0 0 1.5 0.0268178 0.687429 
-5.06246 -0.196977 -1.09718 0 0 1.5 0.0217642 1.07534 
-5.01731 -0.541923 -1.03032 0 0 1.5 0.0221499 1.06894 
-4.96944 -0.88662 -0.964234 0 0 1.5 0.0274 0.704763 
-4.91509 -1.23073 -0.89996 0 0 1.5 0.0343459 0.45346 
-4.8549 -1.57425 -0.838176 0 0 1.5 0.0421821 0.30568 
-4.78743 -1.91703 -0.779494 0 0 1.5 0.0591636 0.1657 
-4.70993 -2.25838 -0.725812 0 0 1.5 0.0680101 0.132054 
-4.62584 -2.5988 -0.675412 0 0 1.5 0.0769902 0.11021 
-4.52663 -2.93605 -0.632669 0 0 1.5 0.0951385 0.0865091 
-4.42288 -3.27235 -0.59223 0 0 1.5 0.104214 0.0801539 
-4.29838 -3.60249 -0.561183 0 0 1.5 0.113227 0.0760572 
-4.16981 -3.93115 -0.531653 0 0 1.5 0.122124 0.0736889 
-4.01997 -4.25137 -0.50923 0 0 1.5 0.139345 0.071549 
-3.86273 -4.56783 -0.487938 0 0 1.5 0.147548 0.0711324 
-3.68767 -4.87525 -0.469367 0 0 1.5 0.155389 0.0710303 
-3.50002 -5.17469 -0.449682 0 0 1.5 0.162799 0.0709644 
-3.29913 -5.46573 -0.428826 0 0 1.5 0.176058 0.0701399 
-3.08018 -5.74237 -0.400995 0 0 1.5 0.181772 0.0693254 
-2.85359 -6.01293 -0.370218 0 0 1.5 0.186789 0.0681704 
-2.60373 -6.25927 -0.322137 0 0 1.5 0.194539 0.0645863 
-2.34762 -6.49696 -0.267143 0 0 1.5 0.197192 0.0620996 
-2.07496 -6.71041 -0.192367 0 0 1.5 0.198989 0.0592282 
-1.79322 -6.90294 -0.100763 0 0 1.5 0.199927 0.056044 
-1.50404 -7.07832 0.00463424 0 0 1.5 0.199256 0.0485844 
-1.2061 -7.2153 0.137585 0 0 1.5 0.197682 0.0444698 
-0.906342 -7.33715 0.280077 0 0 1.5 0.195342 0.0403414 
-0.60411 -7.42393 0.443232 0 0 1.5 0.192297 0.0361464 
-0.302762 -7.48676 0.616909 0 0 1.5 0.184338 0.0275098 
-0.0021526 -7.52953 0.799392 0 0 1.5 0.179554 0.0232722 
0.295211 -7.53918 0.991025 0 0 1.5 0.174325 0.0190717 
0.591622 -7.53965 1.18484 0 0 1.5 0.168709 0.0148563 
0.88401 -7.50725 1.38221 0 0 1.5 0.156544 0.0068165 
1.17547 -7.46729 1.57913 0 0 1.5 0.150116 0.00306023 
1.46426 -7.40546 1.77478 0 0 1.5 0.143525 -0.000579351 
1.75189 -7.33348 1.96824 0 0 1.5 0.130013 -0.00746857 
2.03796 -7.24757 2.15871 0 0 1.5 0.123153 -0.0107385 
2.32292 -7.15107 2.34548 0 0 1.5 0.116256 -0.0139397 
2.60704 -7.04651 2.52944 0 0 1.5 0.109341 -0.0171099 
2.89006 -6.93221 2.70913 0 0 1.5 0.0954955 -0.0235411 
3.17261 -6.81392 2.88707 0 0 1.5 0.0885819 -0.0269197 
3.45384 -6.68763 3.06155 0 0 1.5 0.0816829 -0.0305327 
3.73479 -6.55987 3.23544 0 0 1.5 0.0747988 -0.0345302 
4.01382 -6.42659 3.40829 0 0 1.5 0.0610799 -0.0445699 
4.29221 -6.29261 3.58162 0 0 1.5 0.0542506 -0.0513787 
4.56832 -6.15615 3.75664 0 0 1.5 0.0474429 -0.0603534 
4.84254 -6.01879 3.9339 0 0 1.5 0.0339023 -0.0927437 
5.11438 -5.88032 4.11397 0 0 1.5 0.0271849 -0.126994 
5.38213 -5.74033 4.29887 0 0 1.5 0.0205293 -0.19714 
5.64811 -5.5997 4.48588 0 0 1.5 0.0140048 -0.381579 
5.9072 -5.45601 4.68009 0 0 1.5 0.00458627 -3.24245 
6.16418 -5.31113 4.87617 0 0 1.5 0.00845853 -0.993309 
6.41568 -5.16313 5.07701 0 0 1.5 0.0146669 -0.367757 
6.66394 -5.01282 5.28012 0 0 1.5 0.0212961 -0.205707 
6.9095 -4.86059 5.48511 0 0 1.5 0.0350432 -0.116591 
7.15277 -4.7062 5.6912 0 0 1.5 0.0421196 -0.102027 
7.39567 -4.55139 5.89743 0 0 1.5 0.0493541 -0.0942405 
7.64022 -4.39748 6.10238 0 0 1.5 0.0644325 -0.0872161 
7.88689 -4.24554 6.3062 0 0 1.5 0.0723494 -0.0858469 
8.1383 -4.098 6.50749 0 0 1.5 0.0805763 -0.0854292 
8.39552 -3.95719 6.70605 0 0 1.5 0.0891635 -0.0853696 
8.65808 -3.82259 6.9021 0 0 1.5 0.1076 -0.0853751 
8.93036 -3.70242 7.09393 0 0 1.5 0.117534 -0.0856431 
9.20646 -3.58795 7.28408 0 0 1.5 0.127998 -0.0858283 
9.49457 -3.49814 7.46938 0 0 1.5 0.139015 -0.0857175 
9.78486 -3.41392 7.65387 0 0 1.5 0.162711 -0.0851511 
10.0844 -3.36048 7.8353 0 0 1.5 0.175332 -0.0846457 
10.3852 -3.31805 8.01673 0 0 1.5 0.188381 -0.0837794 
10.6891 -3.30389 8.19816 0 0 1.5 0.201736 -0.0826178 
10.9911 -3.3115 8.38186 0 0 1.5 0.228599 -0.0795062 
11.2911 -3.34134 8.5679 0 0 1.5 0.241597 -0.077448 
11.5799 -3.40714 8.76088 0 0 1.5 0.25388 -0.0750016 
11.8635 -3.48773 8.95686 0 0 1.5 0.274719 -0.0688871 
12.1199 -3.61632 9.16478 0 0 1.5 0.282466 -0.0652497 
12.3579 -3.76561 9.37789 0 0 1.5 0.287938 -0.0611806 
12.57 -3.94427 9.59839 0 0 1.5 0.290833 -0.0566513 
12.7346 -4.15887 9.82536 0 0 1.5 0.288265 -0.0468994 
12.8737 -4.38915 10.0538 0 0 1.5 0.282878 -0.0417816 
12.963 -4.64478 10.2822 0 0 1.5 0.275001 -0.0364486 
13.0141 -4.91298 10.5057 0 0 1.5 0.264937 -0.0311106 
13.0416 -5.18901 10.726 0 0 1.5 0.23989 -0.0208817 
13.0201 -5.47494 10.9337 0 0 1.5 0.225743 -0.0158082 
12.9882 -5.76241 11.1375 0 0 1.5 0.211022 -0.0108329 
12.925 -6.05372 11.3289 0 0 1.5 0.181181 -0.00132973 
12.8519 -6.34603 11.5147 0 0 1.5 0.166567 0.00347762 
12.7623 -6.64001 11.6908 0 0 1.5 0.152393 0.00840733 
12.6651 -6.93535 11.8603 0 0 1.5 0.138779 0.0134898 
12.56 -7.23208 12.0228 0 0 1.5 0.113523 0.0248137 
12.4513 -7.53104 12.1786 0 0 1.5 0.101953 0.0314912 
12.3401 -7.83166 12.3294 0 0 1.5 0.0910976 0.0392278 
12.2298 -8.13568 12.4739 0 0 1.5 0.0809511 0.0483894 
12.1202 -8.44157 12.615 0 0 1.5 0.0627547 0.0731887 
12.0163 -8.75209 12.75 0 0 1.5 0.0546815 0.0908503 
11.9145 -9.06433 12.8829 0 0 1.5 0.0472817 0.113798 
11.8234 -9.38234 13.0095 0 0 1.5 0.0405663 0.143772 
11.7344 -9.70147 13.1349 0 0 1.5 0.0293094 0.23577 
11.6454 -10.0206 13.2603 0 0 1.5 0.024876 0.301551 
11.5563 -10.3397 13.3857 0 0 1.5 0.0213591 0.374922 
11.4673 -10.6588 13.5111 0 0 1.5 0.0173856 0.472156 
11.3783 -10.978 13.6365 0 0 1.5 0.0168672 0.456964 
11.2893 -11.2971 13.7619 0 0 1.5 0.0170747 0.404502 
11.2003 -11.6162 13.8874 0 0 1.5 0.0177246 0.339521 
11.1112 -11.9354 14.0128 0 0 1.5 0.0194141 0.230524 
11.0222 -12.2545 14.1382 0 0 1.5 0.0201498 0.192171 
10.9332 -12.5736 14.2636 0 0 1.5 0.0206969 0.16312 
10.8442 -12.8927 14.389 0 0 1.5 0.0210159 0.141556 
10.7552 -13.2119 14.5144 0 0 1.5 0.0209193 0.113627 
10.6661 -13.531 14.6398 0 0 1.5 0.0205111 0.105047 
10.5771 -13.8501 14.7653 0 0 1.5 0.0198821 0.0993507 
10.4881 -14.1692 14.8907 0 0 1.5 0.0180578 0.0947528 
10.3991 -14.4884 15.0161 0 0 1.5 0.0169206 0.0955674 
10.3101 -14.8075 15.1415 0 0 1.5 0.0156724 0.0988341 
10.221 -15.1266 15.2669 0 0 1.5 0.0143441 0.104813 
10.132 -15.4458 15.3923 0 0 1.5 0.0115803 0.126978 
10.043 -15.7649 15.5177 0 0 1.5 0.0102075 0.145565 
9.95398 -16.084 15.6432 0 0 1.5 0.00888095 0.171433 
9.86496 -16.4031 15.7686 0 0 1.5 0.00763454 0.206609 
9.77593 -16.7223 15.894 0 0 1.5 0.00553158 0.313352 
9.68691 -17.0414 16.0194 0 0 1.5 0.00475697 0.378984 
9.59789 -17.3605 16.1448 0 0 1.5 0.00422351 0.429436 
9.50887 -17.6796 16.2702 0 0 1.5 0.00390662 0.401601 
9.41985 -17.9988 16.3956 0 0 1.5 0.00403137 0.33803 
9.33083 -18.3179 16.5211 0 0 1.5 0.00424765 0.272425 
9.24181 -18.637 16.6465 0 0 1.5 0.00449214 0.217873 
9.15279 -18.9561 16.7719 0 0 1.5 0.00491523 0.146318 
9.06377 -19.2753 16.8973 0 0 1.5 0.00505521 0.123796 
8.97475 -19.5944 17.0227 0 0 1.5 0.00513596 0.107297 
8.88573 -19.9135 17.1481 0 0 1.5 0.00515628 0.0954718 
8.79671 -20.2327 17.2735 0 0 1.5 0.00502555 0.0808362 
8.70769 -20.5518 17.3989 0 0 1.5 0.0048831 0.0767586 
8.61867 -20.8709 17.5244 0 0 1.5 0.00469648 0.0746383 
8.52965 -21.19 17.6498 0 0 1.5 0.00447188 0.0741835 
8.44063 -21.5092 17.7752 0 0 1.5 0.00393514 0.0779457 
8.3516 -21.8283 17.9006 0 0 1.5 0.00363547 0.0829447 
8.26258 -22.1474 18.026 0 0 1.5 0.00332291 0.0905817 
8.17356 -22.4665 18.1514 0 0 1.5 0.00268477 0.116629 
8.08454 -22.7857 18.2768 0 0 1.5 0.00237137 0.138126 
7.99552 -23.1048 18.4023 0 0 1.5 0.00207009 0.168202 
7.9065 -23.4239 18.5277 0 0 1.5 0.00178884 0.20954 
7.81748 -23.743 18.6531 0 0 1.5 0.00132738 0.333488 
7.72846 -24.0622 18.7785 0 0 1.5 0.00117329 0.401898 
7.63944 -24.3813 18.9039 0 0 1.5 0.00108885 0.4397 
7.55042 -24.7004 19.0293 0 0 1.5 0.00107883 0.422547 
7.4614 -25.0196 19.1547 0 0 1.5 0.00123426 0.288753 
7.37238 -25.3387 19.2802 0 0 1.5 0.00136212 0.223811 
7.28336 -25.6578 19.4056 0 0 1.5 0.00150282 0.173313 
7.19434 -25.9769 19.531 0 0 1.5 0.00178977 0.108392 
7.10532 -26.2961 19.6564 0 0 1.5 0.00192744 0.0876533 
7.0163 -26.6152 19.7818 0 0 1.5 0.00205846 0.0719162 
6.92728 -26.9343 19.9072 0 0 1.5 0.00218212 0.0598988 
6.83825 -27.2534 20.0326 0 0 1.5 0.00240742 0.0430376 
6.74923 -27.5726 20.1581 0 0 1.5 0.00250993 0.0370445 
6.66021 -27.8917 20.2835 0 0 1.5 0.00260649 0.0322705 
6.57119 -28.2108 20.4089 0 0 1.5 0.00269786 0.0284391 
6.48217 -28.53 20.5343 0 0 1.5 0.00286849 0.0228703 
6.39315 -28.8491 20.6597 0 0 1.5 0.00294949 0.0209166 
6.30413 -29.1682 20.7851 0 0 1.5 0.00302874 0.0193986 
0 1 0 
1 2 0 
2 3 0 
3 4 0 
4 5 0 
5 6 0 
6 7 0 
7 8 0 
8 9 0 
9 10 0 
10 11 0 
11 12 0 
12 13 0 
13 14 0 
14 15 0 
15 16 0 
16 17 0 
17 18 0 
18 19 0 
19 20 0 
20 21 0 
21 22 0 
22 23 0 
23 24 0 
24 25 0 
25 26 0 
26 27 0 
27 28 0 
28 29 0 
29 30 0 
30 31 0 
31 32 0 
32 33 0 
33 34 0 
34 35 0 
35 36 0 
36 37 0 
37 38 0 
38 39 0 
39 40 0 
40 41 0 
41 42 0 
42 43 0 
43 44 0 
44 45 0 
45 46 0 
46 47 0 
47 48 0 
48 49 0 
49 50 0 
50 51 0 
51 52 0 
52 53 0 
53 54 0 
54 55 0 
55 56 0 
56 57 0 
57 58 0 
58 59 0 
59 60 0 
60 61 0 
61 62 0 
62 63 0 
63 64 0 
64 65 0 
65 66 0 
66 67 0 
67 68 0 
68 69 0 
69 70 0 
70 71 0 
71 72 0 
72 73 0 
73 74 0 
74 75 0 
75 76 0 
76 77 0 
77 78 0 
78 79 0 
79 80 0 
80 81 0 
81 82 0 
82 83 0 
83 84 0 
84 85 0 
85 86 0 
86 87 0 
87 88 0 
88 89 0 
89 90 0 
90 91 0 
91 92 0 
92 93 0 
93 94 0 
94 95 0 
95 96 0 
96 97 0 
97 98 0 
98 99 0 
99 100 0 
100 101 0 
101 102 0 
102 103 0 
103 104 0 
104 105 0 
105 106 0 
106 107 0 
107 108 0 
108 109 0 
109 110 0 
110 111 0 
111 112 0 
112 113 0 
113 114 0 
114 115 0 
115 116 0 
116 117 0 
117 118 0 
118 119 0 
119 120 0 
120 121 0 
121 122 0 
122 123 0 
123 124 0 
124 125 0 
125 126 0 
126 127 0 
127 128 0 
128 129 0 
129 130 0 
130 131 0 
131 132 0 
132 133 0 
133 134 0 
134 135 0 
135 136 0 
136 137 0 
137 138 0 
138 139 0 
139 140 0 
140 141 0 
141 142 0 
142 143 0 
143 144 0 
144 145 0 
145 146 0 
146 147 0 
147 148 0 
148 149 0 
149 150 0 
150 151 0 
151 152 0 
152 153 0 
153 154 0 
154 155 0 
155 156 0 
156 157 0 
157 158 0 
158 159 0 
159 160 0 
160 161 0 
161 162 0 
162 163 0 
163 164 0 
164 165 0 
165 166 0 
166 167 0 
167 168 0 
168 169 0 
169 170 0 
170 171 0 
171 172 0 
172 173 0 
173 174 0 
174 175 0 
175 176 0 
176 177 0 
177 178 0 
178 179 0 
179 180 0 
180 181 0 
181 182 0 
182 183 0 
183 184 0 
184 185 0 
185 186 0 
186 187 0 
187 188 0 
188 189 0 
189 190 0 
190 191 0 
191 192 0 
192 193 0 
193 194 0 
194 195 0 
195 196 0 
196 197 0 
197 198 0 
198 199 0 
199 200 0 
200 201 0 
201 202 0 
202 203 0 
203 204 0 
204 205 0 
205 206 0 
206 207 0 
207 208 0 
208 209 0 
209 210 0 
210 211 0 
211 212 0 
212 213 0 
213 214 0 
214 215 0 
215 216 0 
216 217 0 
217 218 0 
218 219 0 
219 220 0 
220 221 0 
221 222 0 
222 223 0 
223 224 0 
224 225 0 
225 226 0 
226 227 0 
227 228 0 
228 229 0 
229 230 0 
230 231 0 
231 232 0 
232 233 0 
233 234 0 
234 235 0 
235 236 0 
236 237 0 
237 238 0 
238 239 0 
239 240 0 
240 241 0 
241 242 0 
242 243 0 
243 244 0 
244 245 0 
245 246 0 
246 247 0 
247 248 0 
248 249 0 
249 250 0 
250 251 0 
251 252 0 
252 253 0 
253 254 0 
254 255 0 
255 256 0 
256 257 0 
257 258 0 
258 259 0 
259 260 0 
260 261 0 
261 262 0 
262 263 0 
263 264 0 
264 265 0 
265 266 0 
266 267 0 
267 268 0 
268 269 0 
269 270 0 
270 271 0 
271 272 0 
272 273 0 
273 274 0 
274 275 0 
275 276 0 
276 277 0 
277 278 0 
278 279 0 
279 280 0 
280 281 0 
281 282 0 
282 283 0 
283 284 0 
284 285 0 
285 286 0 
286 287 0 
287 288 0 
288 289 0 
289 290 0 
290 291 0 
291 292 0 
292 293 0 
293 294 0 
294 295 0 
295 296 0 
296 297 0 
297 298 0 
298 299 0 
-1 -1 0 
-1 300 0 1 2 3 4 5 6 7 8 9 10 11 12 13 14 15 16 17 18 19 20 21 22 23 24 25 26 27 28 29 30 31 32 33 34 35 36 37 38 39 40 41 42 43 44 45 46 47 48 49 50 51 52 53 54 55 56 57 58 59 60 61 62 63 64 65 66 67 68 69 70 71 72 73 74 75 76 77 78 79 80 81 82 83 84 85 86 87 88 89 90 91 92 93 94 95 96 97 98 99 100 101 102 103 104 105 106 107 108 109 110 111 112 113 114 115 116 117 118 119 120 121 122 123 124 125 126 127 128 129 130 131 132 133 134 135 136 137 138 139 140 141 142 143 144 145 146 147 148 149 150 151 152 153 154 155 156 157 158 159 160 161 162 163 164 165 166 167 168 169 170 171 172 173 174 175 176 177 178 179 180 181 182 183 184 185 186 187 188 189 190 191 192 193 194 195 196 197 198 199 200 201 202 203 204 205 206 207 208 209 210 211 212 213 214 215 216 217 218 219 220 221 222 223 224 225 226 227 228 229 230 231 232 233 234 235 236 237 238 239 240 241 242 243 244 245 246 247 248 249 250 251 252 253 254 255 256 257 258 259 260 261 262 263 264 265 266 267 268 269 270 271 272 273 274 275 276 277 278 279 280 281 282 283 284 285 286 287 288 289 290 291 292 293 294 295 296 297 298 299 
