ply
format ascii 1.0
comment written by koba@oshima.lab
element vertex 300
property float x
property float y
property float z
property int label
property int attribute
property float radius
property float curvature
property float torsion
element edge 300
property int vertex1
property int vertex2
property int label
element vertex_seq 1
property int label
property list int int vertex_indices
end_header
-5.45856 28.4754 6.42878 0 0 1.5 0.029809 0.00352542 
-5.46604 28.2344 6.1682 0 0 1.5 0.0295286 0.00367114 
-5.47352 27.9934 5.90762 0 0 1.5 0.0292389 0.00393919 
-5.48099 27.7524 5.64704 0 0 1.5 0.0289343 0.00433469 
-5.48847 27.5113 5.38646 0 0 1.5 0.0282587 0.00553473 
-5.49595 27.2703 5.12589 0 0 1.5 0.0278716 0.00635994 
-5.50343 27.0293 4.86531 0 0 1.5 0.0274377 0.00736184 
-5.5109 26.7882 4.60473 0 0 1.5 0.0269465 0.00857068 
-5.51838 26.5472 4.34415 0 0 1.5 0.0257387 0.0116806 
-5.52586 26.3062 4.08357 0 0 1.5 0.0249846 0.013718 
-5.53334 26.0651 3.82299 0 0 1.5 0.0241049 0.0162554 
-5.54081 25.8241 3.56241 0 0 1.5 0.0230799 0.0194386 
-5.54829 25.5831 3.30183 0 0 1.5 0.0204947 0.0291188 
-5.55577 25.342 3.04125 0 0 1.5 0.0188844 0.0371768 
-5.56324 25.101 2.78067 0 0 1.5 0.0170294 0.049445 
-5.57072 24.86 2.52009 0 0 1.5 0.0124951 0.107145 
-5.5782 24.619 2.25951 0 0 1.5 0.00977596 0.190063 
-5.58568 24.3779 1.99894 0 0 1.5 0.00674971 0.434505 
-5.59315 24.1369 1.73836 0 0 1.5 0.00353152 1.73649 
-5.60063 23.8959 1.47778 0 0 1.5 0.0053732 0.919569 
-5.60811 23.6548 1.2172 0 0 1.5 0.00989301 0.304146 
-5.61559 23.4138 0.956619 0 0 1.5 0.0149193 0.150955 
-5.62306 23.1728 0.69604 0 0 1.5 0.0203871 0.0920379 
-5.63054 22.9317 0.435461 0 0 1.5 0.0325951 0.0479383 
-5.63802 22.6907 0.174882 0 0 1.5 0.0392995 0.038452 
-5.6455 22.4497 -0.0856973 0 0 1.5 0.0463623 0.0324536 
-5.65297 22.2087 -0.346276 0 0 1.5 0.0614119 0.0259813 
-5.66045 21.9676 -0.606856 0 0 1.5 0.0692686 0.0242568 
-5.66793 21.7266 -0.867435 0 0 1.5 0.0772161 0.0232145 
-5.6754 21.4856 -1.12801 0 0 1.5 0.0851377 0.0227371 
-5.68288 21.2445 -1.38859 0 0 1.5 0.100326 0.0229585 
-5.69036 21.0035 -1.64917 0 0 1.5 0.107235 0.0236109 
-5.69784 20.7625 -1.90975 0 0 1.5 0.113422 0.0246785 
-5.70531 20.5214 -2.17033 0 0 1.5 0.118679 0.0261135 
-5.71279 20.2804 -2.43091 0 0 1.5 0.125637 0.0301661 
-5.72027 20.0394 -2.69149 0 0 1.5 0.126992 0.0330812 
-5.76387 19.7781 -2.92362 0 0 1.5 0.126751 0.0366992 
-5.83588 19.5008 -3.13338 0 0 1.5 0.124868 0.041119 
-5.95543 19.207 -3.29248 0 0 1.5 0.116212 0.0540941 
-6.08741 18.9111 -3.43523 0 0 1.5 0.109544 0.0638297 
-6.23989 18.6118 -3.55044 0 0 1.5 0.101496 0.0768686 
-6.40432 18.3125 -3.64618 0 0 1.5 0.0819486 0.122774 
-6.5749 18.0132 -3.73192 0 0 1.5 0.070787 0.166437 
-6.75354 17.7146 -3.80211 0 0 1.5 0.0589762 0.241326 
-6.93331 17.416 -3.87001 0 0 1.5 0.0467833 0.385577 
-7.11546 17.1177 -3.93235 0 0 1.5 0.0237158 1.53202 
-7.29701 16.8193 -3.99584 0 0 1.5 0.0178435 2.76018 
-7.4771 16.5206 -4.06222 0 0 1.5 0.0224908 1.79059 
-7.65425 16.2218 -4.13526 0 0 1.5 0.0340375 0.817017 
-7.82821 15.9229 -4.21558 0 0 1.5 0.0630766 0.272944 
-7.9949 15.625 -4.3124 0 0 1.5 0.0786797 0.192966 
-8.15862 15.3275 -4.41597 0 0 1.5 0.0945877 0.149567 
-8.30769 15.0346 -4.55022 0 0 1.5 0.126481 0.109432 
-8.45037 14.7447 -4.69612 0 0 1.5 0.142004 0.100634 
-8.57974 14.4612 -4.86621 0 0 1.5 0.156843 0.096067 
-8.69281 14.1873 -5.06074 0 0 1.5 0.170625 0.0942964 
-8.79666 13.9191 -5.26856 0 0 1.5 0.193471 0.0960213 
-8.87523 13.6673 -5.50624 0 0 1.5 0.201738 0.0990628 
-8.94144 13.4235 -5.75484 0 0 1.5 0.207429 0.103119 
-8.99152 13.1902 -6.01771 0 0 1.5 0.210335 0.107857 
-9.01872 12.9703 -6.29468 0 0 1.5 0.207592 0.119916 
-9.03636 12.7557 -6.57674 0 0 1.5 0.202173 0.127444 
-9.02815 12.5537 -6.86863 0 0 1.5 0.194453 0.136 
-9.00768 12.3564 -7.16268 0 0 1.5 0.173771 0.158102 
-8.97021 12.1655 -7.4597 0 0 1.5 0.161678 0.172903 
-8.91244 11.9803 -7.75667 0 0 1.5 0.148988 0.191228 
-8.84596 11.7973 -8.05362 0 0 1.5 0.136085 0.214366 
-8.75252 11.6193 -8.34616 0 0 1.5 0.110956 0.28224 
-8.65284 11.4418 -8.63687 0 0 1.5 0.0993656 0.330839 
-8.53228 11.2662 -8.9209 0 0 1.5 0.0888924 0.391153 
-8.40259 11.0904 -9.20049 0 0 1.5 0.0799629 0.461472 
-8.25951 10.9142 -9.47354 0 0 1.5 0.0689692 0.583613 
-8.10614 10.7361 -9.7394 0 0 1.5 0.0680954 0.591247 
-7.94531 10.5565 -10 0 0 1.5 0.0707595 0.548164 
-7.77579 10.3721 -10.2515 0 0 1.5 0.0768493 0.471829 
-7.60289 10.1858 -10.4994 0 0 1.5 0.0978421 0.312953 
-7.42501 9.99091 -10.7369 0 0 1.5 0.112073 0.25269 
-7.24613 9.79432 -10.9723 0 0 1.5 0.128575 0.206292 
-7.06754 9.58418 -11.1958 0 0 1.5 0.168555 0.144105 
-6.88943 9.3719 -11.4177 0 0 1.5 0.192331 0.123356 
-6.71774 9.14178 -11.6265 0 0 1.5 0.218919 0.107119 
-6.54961 8.90554 -11.8309 0 0 1.5 0.248563 0.0941285 
-6.39215 8.65098 -12.0218 0 0 1.5 0.317661 0.074153 
-6.24706 8.38063 -12.199 0 0 1.5 0.357059 0.0659561 
-6.11293 8.09628 -12.364 0 0 1.5 0.399255 0.0583859 
-6.01222 7.78084 -12.4912 0 0 1.5 0.443401 0.0509312 
-5.93885 7.44931 -12.586 0 0 1.5 0.531011 0.0348102 
-5.90272 7.10189 -12.6356 0 0 1.5 0.569657 0.0257254 
-5.91958 6.74766 -12.6186 0 0 1.5 0.600946 0.0157223 
-5.99816 6.41659 -12.521 0 0 1.5 0.63069 -0.00682741 
-6.11666 6.12161 -12.3702 0 0 1.5 0.626403 -0.0186366 
-6.26363 5.8623 -12.1812 0 0 1.5 0.609963 -0.0304534 
-6.4341 5.64224 -11.9609 0 0 1.5 0.58342 -0.0421293 
-6.62329 5.46875 -11.7167 0 0 1.5 0.511343 -0.0637913 
-6.81908 5.31479 -11.4647 0 0 1.5 0.471438 -0.0737727 
-7.02585 5.19892 -11.2004 0 0 1.5 0.431854 -0.0835685 
-7.23711 5.10513 -10.9319 0 0 1.5 0.39397 -0.0931879 
-7.453 5.03418 -10.6591 0 0 1.5 0.326381 -0.112347 
-7.67221 4.99261 -10.3837 0 0 1.5 0.297248 -0.122679 
-7.89295 4.9647 -10.107 0 0 1.5 0.2712 -0.133692 
-8.11363 4.97282 -9.82945 0 0 1.5 0.227729 -0.157981 
-8.33429 4.98785 -9.55171 0 0 1.5 0.209894 -0.17188 
-8.54835 5.04613 -9.27454 0 0 1.5 0.194377 -0.186962 
-8.75977 5.11211 -8.99759 0 0 1.5 0.181023 -0.202895 
-8.95879 5.21365 -8.72166 0 0 1.5 0.160349 -0.236683 
-9.14831 5.3306 -8.44611 0 0 1.5 0.152871 -0.25362 
-9.32261 5.47228 -8.17115 0 0 1.5 0.147284 -0.269229 
-9.47554 5.63489 -7.89605 0 0 1.5 0.143623 -0.282404 
-9.6155 5.81021 -7.62087 0 0 1.5 0.142244 -0.297573 
-9.71849 6.00614 -7.34372 0 0 1.5 0.144632 -0.298146 
-9.8098 6.20643 -7.06566 0 0 1.5 0.149144 -0.294056 
-9.86097 6.41598 -6.78366 0 0 1.5 0.155812 -0.28613 
-9.89299 6.62436 -6.49898 0 0 1.5 0.175762 -0.263014 
-9.89616 6.83096 -6.21027 0 0 1.5 0.189179 -0.249609 
-9.86908 7.02673 -5.91628 0 0 1.5 0.204968 -0.236014 
-9.82571 7.21666 -5.61947 0 0 1.5 0.243875 -0.211072 
-9.74338 7.3797 -5.31544 0 0 1.5 0.267065 -0.200052 
-9.65052 7.533 -5.00969 0 0 1.5 0.292667 -0.189831 
-9.5249 7.6506 -4.69914 0 0 1.5 0.320461 -0.180582 
-9.38438 7.74409 -4.38841 0 0 1.5 0.380854 -0.164499 
-9.22505 7.80713 -4.07746 0 0 1.5 0.411807 -0.15675 
-9.04508 7.82071 -3.77322 0 0 1.5 0.441561 -0.149113 
-8.85638 7.81015 -3.47372 0 0 1.5 0.468462 -0.14163 
-8.65114 7.73602 -3.19365 0 0 1.5 0.50622 -0.125699 
-8.44152 7.6248 -2.9328 0 0 1.5 0.513643 -0.117339 
-8.22768 7.47783 -2.69047 0 0 1.5 0.512089 -0.109244 
-8.01578 7.27143 -2.49557 0 0 1.5 0.48292 -0.094175 
-7.80741 7.04422 -2.3233 0 0 1.5 0.457582 -0.087746 
-7.60695 6.78135 -2.19381 0 0 1.5 0.427426 -0.0825228 
-7.41726 6.49721 -2.10371 0 0 1.5 0.39434 -0.0786554 
-7.23379 6.20082 -2.0363 0 0 1.5 0.325621 -0.0756539 
-7.06766 5.88799 -2.02058 0 0 1.5 0.292262 -0.0768229 
-6.90525 5.57272 -2.01515 0 0 1.5 0.260523 -0.0801489 
-6.75989 5.25111 -2.05377 0 0 1.5 0.230732 -0.0861643 
-6.6185 4.92943 -2.10134 0 0 1.5 0.177365 -0.108828 
-6.49049 4.60756 -2.1792 0 0 1.5 0.153737 -0.12814 
-6.36735 4.28657 -2.26646 0 0 1.5 0.132015 -0.156324 
-6.25457 3.96747 -2.37376 0 0 1.5 0.112087 -0.197931 
-6.14708 3.64957 -2.48908 0 0 1.5 0.0774807 -0.358116 
-6.04719 3.33337 -2.61595 0 0 1.5 0.063084 -0.511698 
-5.95291 3.01756 -2.74777 0 0 1.5 0.0512887 -0.742037 
-5.86331 2.70206 -2.88374 0 0 1.5 0.0402219 -1.14683 
-5.77925 2.38406 -3.01736 0 0 1.5 0.0427564 -1.00584 
-5.69725 2.06439 -3.14811 0 0 1.5 0.0494754 -0.753461 
-5.61816 1.73782 -3.26279 0 0 1.5 0.0585827 -0.545868 
-5.5382 1.4049 -3.35483 0 0 1.5 0.0793825 -0.317593 
-5.45618 1.06636 -3.41908 0 0 1.5 0.0898273 -0.260752 
-5.3694 0.722788 -3.44109 0 0 1.5 0.099854 -0.224124 
-5.27335 0.383574 -3.401 0 0 1.5 0.109244 -0.200383 
-5.16926 0.0553549 -3.31882 0 0 1.5 0.125345 -0.176387 
-5.05749 -0.261165 -3.20514 0 0 1.5 0.131771 -0.171718 
-4.93878 -0.566509 -3.0683 0 0 1.5 0.137002 -0.17017 
-4.80844 -0.857571 -2.91232 0 0 1.5 0.14374 -0.173469 
-4.67228 -1.14407 -2.75308 0 0 1.5 0.145327 -0.17677 
-4.52893 -1.42514 -2.59028 0 0 1.5 0.145879 -0.180318 
-4.37513 -1.7015 -2.42909 0 0 1.5 0.145551 -0.183566 
-4.21792 -1.97639 -2.26857 0 0 1.5 0.142948 -0.187442 
-4.04721 -2.24675 -2.11424 0 0 1.5 0.141039 -0.187049 
-3.87332 -2.51592 -1.96155 0 0 1.5 0.138952 -0.184346 
-3.68805 -2.78083 -1.81475 0 0 1.5 0.13683 -0.179333 
-3.49717 -3.04284 -1.67021 0 0 1.5 0.132864 -0.162669 
-3.29651 -3.29978 -1.52961 0 0 1.5 0.131141 -0.150651 
-3.0877 -3.55085 -1.39065 0 0 1.5 0.129627 -0.136823 
-2.87068 -3.79601 -1.25334 0 0 1.5 0.127149 -0.106335 
-2.64242 -4.03034 -1.11585 0 0 1.5 0.126108 -0.089866 
-2.40794 -4.25869 -0.978263 0 0 1.5 0.125134 -0.0733265 
-2.15861 -4.46852 -0.837798 0 0 1.5 0.124167 -0.0574003 
-1.90547 -4.67343 -0.696538 0 0 1.5 0.122016 -0.0272135 
-1.63501 -4.85064 -0.54992 0 0 1.5 0.120719 -0.0131842 
-1.36014 -5.01874 -0.401712 0 0 1.5 0.119221 -0.000262619 
-1.07357 -5.16258 -0.249271 0 0 1.5 0.117492 0.0116923 
-0.779929 -5.28694 -0.0943556 0 0 1.5 0.11325 0.0331991 
-0.480335 -5.39485 0.0626464 0 0 1.5 0.110715 0.0428863 
-0.173212 -5.47382 0.221692 0 0 1.5 0.107907 0.0519677 
0.136052 -5.54359 0.381244 0 0 1.5 0.104831 0.0605153 
0.450295 -5.58435 0.541379 0 0 1.5 0.0979315 0.0761554 
0.765362 -5.61623 0.701422 0 0 1.5 0.0941735 0.0831503 
1.08204 -5.63071 0.861283 0 0 1.5 0.0902551 0.0894358 
1.3989 -5.63408 1.02111 0 0 1.5 0.0820713 0.100285 
1.7159 -5.62879 1.18092 0 0 1.5 0.0778795 0.104647 
2.03209 -5.6132 1.34155 0 0 1.5 0.0736672 0.107828 
2.34802 -5.59441 1.50245 0 0 1.5 0.0694633 0.109863 
2.6621 -5.56819 1.66589 0 0 1.5 0.0611686 0.110278 
2.97576 -5.54116 1.83002 0 0 1.5 0.0571176 0.107537 
3.28721 -5.51132 1.99784 0 0 1.5 0.0531529 0.102758 
3.59776 -5.48153 2.16729 0 0 1.5 0.0492783 0.0963207 
3.9063 -5.45185 2.34042 0 0 1.5 0.0418221 0.0761546 
4.21334 -5.42326 2.51635 0 0 1.5 0.0382608 0.0621741 
4.51885 -5.39579 2.69513 0 0 1.5 0.0348164 0.0466824 
4.82238 -5.37037 2.87753 0 0 1.5 0.0283147 0.00991369 
5.12503 -5.34586 3.06151 0 0 1.5 0.0252963 -0.010897 
5.42561 -5.32372 3.24917 0 0 1.5 0.022462 -0.0315599 
5.72579 -5.30199 3.43751 0 0 1.5 0.0198423 -0.0514741 
6.02465 -5.28145 3.62807 0 0 1.5 0.0154494 -0.0850644 
6.32336 -5.26079 3.81885 0 0 1.5 0.0138297 -0.0961969 
6.62177 -5.23989 4.01008 0 0 1.5 0.0127407 -0.104249 
6.92051 -5.21779 4.20066 0 0 1.5 0.0123147 -0.112693 
7.21951 -5.19471 4.3907 0 0 1.5 0.0138097 -0.138002 
7.51963 -5.16889 4.57861 0 0 1.5 0.0157321 -0.149703 
7.82014 -5.14212 4.76578 0 0 1.5 0.0183704 -0.157128 
8.12265 -5.11146 4.94907 0 0 1.5 0.0256718 -0.153387 
8.42552 -5.08021 5.13167 0 0 1.5 0.0303213 -0.145715 
8.73083 -5.04558 5.30955 0 0 1.5 0.0356627 -0.136933 
9.03665 -5.01066 5.48647 0 0 1.5 0.0417352 -0.127098 
9.34472 -4.97444 5.65919 0 0 1.5 0.0561899 -0.106966 
9.65356 -4.93875 5.83064 0 0 1.5 0.0646494 -0.098281 
9.96436 -4.90441 5.99879 0 0 1.5 0.0739979 -0.0903612 
10.276 -4.87255 6.16582 0 0 1.5 0.0842688 -0.0830871 
10.5892 -4.84509 6.33084 0 0 1.5 0.107706 -0.0713169 
10.9029 -4.82357 6.49543 0 0 1.5 0.120934 -0.0666455 
11.2175 -4.80946 6.6595 0 0 1.5 0.135174 -0.0625278 
11.5316 -4.80743 6.82459 0 0 1.5 0.15039 -0.0589977 
11.8454 -4.8148 6.99047 0 0 1.5 0.183391 -0.0535599 
12.1555 -4.8457 7.15997 0 0 1.5 0.200847 -0.0514266 
12.4642 -4.88537 7.33085 0 0 1.5 0.218584 -0.0496034 
12.76 -4.96765 7.50913 0 0 1.5 0.253178 -0.046704 
13.0455 -5.07127 7.69058 0 0 1.5 0.268935 -0.0454868 
13.3149 -5.20803 7.87696 0 0 1.5 0.282807 -0.0443441 
13.5461 -5.39673 8.06759 0 0 1.5 0.294096 -0.0432388 
13.747 -5.61546 8.258 0 0 1.5 0.306528 -0.0410867 
13.9118 -5.86672 8.44711 0 0 1.5 0.306962 -0.0399718 
14.0133 -6.15496 8.62703 0 0 1.5 0.303414 -0.0388088 
14.0844 -6.45468 8.80046 0 0 1.5 0.296083 -0.0376684 
14.121 -6.76652 8.96621 0 0 1.5 0.272093 -0.0356004 
14.1163 -7.08562 9.12056 0 0 1.5 0.256703 -0.0346715 
14.0987 -7.40635 9.27127 0 0 1.5 0.23992 -0.0339048 
14.0482 -7.72836 9.41201 0 0 1.5 0.204589 -0.0330632 
13.9893 -8.0498 9.55017 0 0 1.5 0.186991 -0.0329685 
13.9117 -8.36993 9.68263 0 0 1.5 0.16988 -0.033179 
13.826 -8.68877 9.81285 0 0 1.5 0.153475 -0.0337939 
13.7295 -9.00586 9.94007 0 0 1.5 0.123299 -0.0362807 
13.6268 -9.32147 10.066 0 0 1.5 0.109645 -0.0383323 
13.518 -9.63559 10.1906 0 0 1.5 0.0969517 -0.0412239 
13.4054 -9.94844 10.3151 0 0 1.5 0.0851998 -0.0451252 
13.2898 -10.2603 10.4395 0 0 1.5 0.0644209 -0.057116 
13.1729 -10.5712 10.5648 0 0 1.5 0.0553281 -0.0664992 
13.0553 -10.8816 10.6906 0 0 1.5 0.0470599 -0.0793589 
12.9391 -11.1919 10.8181 0 0 1.5 0.039611 -0.0970038 
12.8235 -11.5022 10.9464 0 0 1.5 0.0272448 -0.156001 
12.7079 -11.8124 11.0746 0 0 1.5 0.0224294 -0.202191 
12.5923 -12.1226 11.2029 0 0 1.5 0.0186721 -0.256667 
12.4767 -12.4329 11.3311 0 0 1.5 0.0147821 -0.320185 
12.3611 -12.7431 11.4594 0 0 1.5 0.0145465 -0.293939 
12.2455 -13.0533 11.5876 0 0 1.5 0.0150626 -0.243826 
12.1299 -13.3636 11.7158 0 0 1.5 0.0159523 -0.193602 
12.0143 -13.6738 11.8441 0 0 1.5 0.0178057 -0.124246 
11.8987 -13.9841 11.9723 0 0 1.5 0.0184873 -0.103034 
11.7831 -14.2943 12.1006 0 0 1.5 0.0189178 -0.0879638 
11.6676 -14.6045 12.2288 0 0 1.5 0.0190768 -0.0775038 
11.552 -14.9148 12.3571 0 0 1.5 0.0185968 -0.0653932 
11.4364 -15.225 12.4853 0 0 1.5 0.0179947 -0.0624136 
11.3208 -15.5352 12.6135 0 0 1.5 0.0171852 -0.0612459 
11.2052 -15.8455 12.7418 0 0 1.5 0.0150733 -0.0635227 
11.0896 -16.1557 12.87 0 0 1.5 0.0138441 -0.0670714 
10.974 -16.4659 12.9983 0 0 1.5 0.0125442 -0.0729069 
10.8584 -16.7762 13.1265 0 0 1.5 0.0112065 -0.0815442 
10.7428 -17.0864 13.2548 0 0 1.5 0.00856115 -0.110669 
10.6272 -17.3966 13.383 0 0 1.5 0.00731989 -0.134821 
10.5116 -17.7069 13.5112 0 0 1.5 0.0061766 -0.168527 
10.3961 -18.0171 13.6395 0 0 1.5 0.00517127 -0.213275 
10.2805 -18.3273 13.7677 0 0 1.5 0.00375288 -0.318398 
10.1649 -18.6376 13.896 0 0 1.5 0.00341314 -0.34156 
10.0493 -18.9478 14.0242 0 0 1.5 0.0033186 -0.319558 
9.93369 -19.258 14.1525 0 0 1.5 0.00359397 -0.213139 
9.8181 -19.5683 14.2807 0 0 1.5 0.00381358 -0.167651 
9.70251 -19.8785 14.4089 0 0 1.5 0.00401989 -0.133268 
9.58692 -20.1887 14.5372 0 0 1.5 0.00418599 -0.108459 
9.47133 -20.499 14.6654 0 0 1.5 0.00435438 -0.0784563 
9.35574 -20.8092 14.7937 0 0 1.5 0.00435197 -0.0693176 
9.24015 -21.1195 14.9219 0 0 1.5 0.00429435 -0.0627845 
9.12456 -21.4297 15.0502 0 0 1.5 0.00418616 -0.0584238 
9.00896 -21.7399 15.1784 0 0 1.5 0.00384253 -0.0541707 
8.89337 -22.0502 15.3066 0 0 1.5 0.00362054 -0.0538643 
8.77778 -22.3604 15.4349 0 0 1.5 0.00337364 -0.0549403 
8.66219 -22.6706 15.5631 0 0 1.5 0.00310816 -0.0574004 
8.5466 -22.9809 15.6914 0 0 1.5 0.00254765 -0.0671201 
8.43101 -23.2911 15.8196 0 0 1.5 0.00226395 -0.0757932 
8.31542 -23.6013 15.9479 0 0 1.5 0.00198466 -0.0882968 
8.19983 -23.9116 16.0761 0 0 1.5 0.00146222 -0.131265 
8.08424 -24.2218 16.2043 0 0 1.5 0.00123098 -0.167572 
7.96865 -24.532 16.3326 0 0 1.5 0.00102935 -0.217658 
7.85305 -24.8423 16.4608 0 0 1.5 0.00086774 -0.278581 
7.73746 -25.1525 16.5891 0 0 1.5 0.000708441 0 
7.62187 -25.4627 16.7173 0 0 1.5 0.000716436 -0.314571 
7.50628 -25.773 16.8456 0 0 1.5 0.000767324 -0.252204 
7.39069 -26.0832 16.9738 0 0 1.5 0.000842587 -0.192418 
7.2751 -26.3934 17.102 0 0 1.5 0.00101424 -0.112741 
7.15951 -26.7037 17.2303 0 0 1.5 0.00109678 -0.0884425 
7.04392 -27.0139 17.3585 0 0 1.5 0.00117281 -0.0706935 
6.92833 -27.3241 17.4868 0 0 1.5 0.00130171 -0.0475486 
6.81274 -27.6344 17.615 0 0 1.5 0.00135465 -0.0395858 
6.69714 -27.9446 17.7433 0 0 1.5 0.00140061 -0.033175 
6.58155 -28.2548 17.8715 0 0 1.5 0.00144019 -0.028012 
6.46596 -28.5651 17.9997 0 0 1.5 0.00150323 -0.0201852 
6.35037 -28.8753 18.128 0 0 1.5 0.00152838 -0.0171857 
6.23478 -29.1856 18.2562 0 0 1.5 0.00155016 -0.0147204 
6.11919 -29.4958 18.3845 0 0 1.5 0.00156913 -0.0127066 
6.0036 -29.806 18.5127 0 0 1.5 0.00160103 -0.00980561 
5.88801 -30.1163 18.6409 0 0 1.5 0.00161493 -0.00885036 
5.77242 -30.4265 18.7692 0 0 1.5 0.00162797 -0.00819426 
0 1 0 
1 2 0 
2 3 0 
3 4 0 
4 5 0 
5 6 0 
6 7 0 
7 8 0 
8 9 0 
9 10 0 
10 11 0 
11 12 0 
12 13 0 
13 14 0 
14 15 0 
15 16 0 
16 17 0 
17 18 0 
18 19 0 
19 20 0 
20 21 0 
21 22 0 
22 23 0 
23 24 0 
24 25 0 
25 26 0 
26 27 0 
27 28 0 
28 29 0 
29 30 0 
30 31 0 
31 32 0 
32 33 0 
33 34 0 
34 35 0 
35 36 0 
36 37 0 
37 38 0 
38 39 0 
39 40 0 
40 41 0 
41 42 0 
42 43 0 
43 44 0 
44 45 0 
45 46 0 
46 47 0 
47 48 0 
48 49 0 
49 50 0 
50 51 0 
51 52 0 
52 53 0 
53 54 0 
54 55 0 
55 56 0 
56 57 0 
57 58 0 
58 59 0 
59 60 0 
60 61 0 
61 62 0 
62 63 0 
63 64 0 
64 65 0 
65 66 0 
66 67 0 
67 68 0 
68 69 0 
69 70 0 
70 71 0 
71 72 0 
72 73 0 
73 74 0 
74 75 0 
75 76 0 
76 77 0 
77 78 0 
78 79 0 
79 80 0 
80 81 0 
81 82 0 
82 83 0 
83 84 0 
84 85 0 
85 86 0 
86 87 0 
87 88 0 
88 89 0 
89 90 0 
90 91 0 
91 92 0 
92 93 0 
93 94 0 
94 95 0 
95 96 0 
96 97 0 
97 98 0 
98 99 0 
99 100 0 
100 101 0 
101 102 0 
102 103 0 
103 104 0 
104 105 0 
105 106 0 
106 107 0 
107 108 0 
108 109 0 
109 110 0 
110 111 0 
111 112 0 
112 113 0 
113 114 0 
114 115 0 
115 116 0 
116 117 0 
117 118 0 
118 119 0 
119 120 0 
120 121 0 
121 122 0 
122 123 0 
123 124 0 
124 125 0 
125 126 0 
126 127 0 
127 128 0 
128 129 0 
129 130 0 
130 131 0 
131 132 0 
132 133 0 
133 134 0 
134 135 0 
135 136 0 
136 137 0 
137 138 0 
138 139 0 
139 140 0 
140 141 0 
141 142 0 
142 143 0 
143 144 0 
144 145 0 
145 146 0 
146 147 0 
147 148 0 
148 149 0 
149 150 0 
150 151 0 
151 152 0 
152 153 0 
153 154 0 
154 155 0 
155 156 0 
156 157 0 
157 158 0 
158 159 0 
159 160 0 
160 161 0 
161 162 0 
162 163 0 
163 164 0 
164 165 0 
165 166 0 
166 167 0 
167 168 0 
168 169 0 
169 170 0 
170 171 0 
171 172 0 
172 173 0 
173 174 0 
174 175 0 
175 176 0 
176 177 0 
177 178 0 
178 179 0 
179 180 0 
180 181 0 
181 182 0 
182 183 0 
183 184 0 
184 185 0 
185 186 0 
186 187 0 
187 188 0 
188 189 0 
189 190 0 
190 191 0 
191 192 0 
192 193 0 
193 194 0 
194 195 0 
195 196 0 
196 197 0 
197 198 0 
198 199 0 
199 200 0 
200 201 0 
201 202 0 
202 203 0 
203 204 0 
204 205 0 
205 206 0 
206 207 0 
207 208 0 
208 209 0 
209 210 0 
210 211 0 
211 212 0 
212 213 0 
213 214 0 
214 215 0 
215 216 0 
216 217 0 
217 218 0 
218 219 0 
219 220 0 
220 221 0 
221 222 0 
222 223 0 
223 224 0 
224 225 0 
225 226 0 
226 227 0 
227 228 0 
228 229 0 
229 230 0 
230 231 0 
231 232 0 
232 233 0 
233 234 0 
234 235 0 
235 236 0 
236 237 0 
237 238 0 
238 239 0 
239 240 0 
240 241 0 
241 242 0 
242 243 0 
243 244 0 
244 245 0 
245 246 0 
246 247 0 
247 248 0 
248 249 0 
249 250 0 
250 251 0 
251 252 0 
252 253 0 
253 254 0 
254 255 0 
255 256 0 
256 257 0 
257 258 0 
258 259 0 
259 260 0 
260 261 0 
261 262 0 
262 263 0 
263 264 0 
264 265 0 
265 266 0 
266 267 0 
267 268 0 
268 269 0 
269 270 0 
270 271 0 
271 272 0 
272 273 0 
273 274 0 
274 275 0 
275 276 0 
276 277 0 
277 278 0 
278 279 0 
279 280 0 
280 281 0 
281 282 0 
282 283 0 
283 284 0 
284 285 0 
285 286 0 
286 287 0 
287 288 0 
288 289 0 
289 290 0 
290 291 0 
291 292 0 
292 293 0 
293 294 0 
294 295 0 
295 296 0 
296 297 0 
297 298 0 
298 299 0 
-1 -1 0 
-1 300 0 1 2 3 4 5 6 7 8 9 10 11 12 13 14 15 16 17 18 19 20 21 22 23 24 25 26 27 28 29 30 31 32 33 34 35 36 37 38 39 40 41 42 43 44 45 46 47 48 49 50 51 52 53 54 55 56 57 58 59 60 61 62 63 64 65 66 67 68 69 70 71 72 73 74 75 76 77 78 79 80 81 82 83 84 85 86 87 88 89 90 91 92 93 94 95 96 97 98 99 100 101 102 103 104 105 106 107 108 109 110 111 112 113 114 115 116 117 118 119 120 121 122 123 124 125 126 127 128 129 130 131 132 133 134 135 136 137 138 139 140 141 142 143 144 145 146 147 148 149 150 151 152 153 154 155 156 157 158 159 160 161 162 163 164 165 166 167 168 169 170 171 172 173 174 175 176 177 178 179 180 181 182 183 184 185 186 187 188 189 190 191 192 193 194 195 196 197 198 199 200 201 202 203 204 205 206 207 208 209 210 211 212 213 214 215 216 217 218 219 220 221 222 223 224 225 226 227 228 229 230 231 232 233 234 235 236 237 238 239 240 241 242 243 244 245 246 247 248 249 250 251 252 253 254 255 256 257 258 259 260 261 262 263 264 265 266 267 268 269 270 271 272 273 274 275 276 277 278 279 280 281 282 283 284 285 286 287 288 289 290 291 292 293 294 295 296 297 298 299 
