ply
format ascii 1.0
comment written by koba@oshima.lab
element vertex 300
property float x
property float y
property float z
property int label
property int attribute
property float radius
property float curvature
property float torsion
element edge 300
property int vertex1
property int vertex2
property int label
element vertex_seq 1
property int label
property list int int vertex_indices
end_header
-2.49883 29.6504 4.1462 0 0 1.5 0.0268627 -0.00190218 
-2.49674 29.3339 3.91042 0 0 1.5 0.026657 -0.00202854 
-2.49466 29.0173 3.67463 0 0 1.5 0.0264443 -0.00228844 
-2.49257 28.7007 3.43885 0 0 1.5 0.0262203 -0.00268284 
-2.49049 28.3842 3.20306 0 0 1.5 0.0257214 -0.00389583 
-2.4884 28.0676 2.96728 0 0 1.5 0.0254307 -0.00474979 
-2.48632 27.7511 2.7315 0 0 1.5 0.0250977 -0.00579261 
-2.48423 27.4345 2.49571 0 0 1.5 0.0247115 -0.00704969 
-2.48215 27.118 2.25993 0 0 1.5 0.0237198 -0.0103093 
-2.48006 26.8014 2.02415 0 0 1.5 0.0230708 -0.0124655 
-2.47798 26.4848 1.78836 0 0 1.5 0.0222906 -0.0151662 
-2.47589 26.1683 1.55258 0 0 1.5 0.0213563 -0.0185955 
-2.47381 25.8517 1.31679 0 0 1.5 0.0189109 -0.0293701 
-2.47172 25.5352 1.08101 0 0 1.5 0.0173419 -0.0386845 
-2.46964 25.2186 0.845227 0 0 1.5 0.0155053 -0.0534353 
-2.46755 24.9021 0.609443 0 0 1.5 0.0109338 -0.130496 
-2.46547 24.5855 0.373659 0 0 1.5 0.00817157 -0.258551 
-2.46338 24.269 0.137875 0 0 1.5 0.00515274 -0.721553 
-2.4613 23.9524 -0.0979087 0 0 1.5 0.00255275 -3.27112 
-2.45921 23.6358 -0.333693 0 0 1.5 0.00812734 -0.407159 
-2.45712 23.3193 -0.569476 0 0 1.5 0.0130483 -0.179025 
-2.45504 23.0027 -0.80526 0 0 1.5 0.0185408 -0.10083 
-2.45295 22.6862 -1.04104 0 0 1.5 0.0245672 -0.0656629 
-2.45087 22.3696 -1.27683 0 0 1.5 0.0382206 -0.036095 
-2.44878 22.0531 -1.51261 0 0 1.5 0.0458345 -0.0290623 
-2.4467 21.7365 -1.7484 0 0 1.5 0.0539439 -0.0243795 
-2.44461 21.4199 -1.98418 0 0 1.5 0.0715305 -0.0188649 
-2.44253 21.1034 -2.21996 0 0 1.5 0.0808776 -0.0170979 
-2.44044 20.7868 -2.45575 0 0 1.5 0.0904464 -0.0157727 
-2.43836 20.4703 -2.69153 0 0 1.5 0.100092 -0.0148095 
-2.43627 20.1537 -2.92731 0 0 1.5 0.11885 -0.013366 
-2.43419 19.8372 -3.1631 0 0 1.5 0.127467 -0.0127861 
-2.4321 19.5206 -3.39888 0 0 1.5 0.135191 -0.0123111 
-2.45396 19.197 -3.62118 0 0 1.5 0.141711 -0.0118327 
-2.51093 18.863 -3.82371 0 0 1.5 0.150013 -0.0105752 
-2.59311 18.5259 -4.0083 0 0 1.5 0.151307 -0.00981196 
-2.71056 18.1845 -4.16779 0 0 1.5 0.150471 -0.00886491 
-2.85847 17.8453 -4.30029 0 0 1.5 0.147483 -0.00761001 
-3.03078 17.5079 -4.41114 0 0 1.5 0.135351 -0.0038599 
-3.23564 17.1802 -4.48612 0 0 1.5 0.126506 -0.00108165 
-3.45133 16.8557 -4.54915 0 0 1.5 0.116135 0.00266609 
-3.69494 16.5463 -4.57312 0 0 1.5 0.0918818 0.0160089 
-3.94198 16.2392 -4.59133 0 0 1.5 0.078449 0.0287217 
-4.20331 15.9435 -4.5821 0 0 1.5 0.0644211 0.0507153 
-4.4658 15.6492 -4.568 0 0 1.5 0.0499637 0.0950936 
-4.73175 15.3589 -4.53931 0 0 1.5 0.0203825 0.656691 
-4.99561 15.067 -4.50803 0 0 1.5 0.00729994 5.27118 
-5.25586 14.7724 -4.47227 0 0 1.5 0.0134595 1.56688 
-5.50825 14.4709 -4.43973 0 0 1.5 0.0287854 0.340595 
-5.75261 14.1623 -4.41048 0 0 1.5 0.0618125 0.0714903 
-5.97932 13.84 -4.39593 0 0 1.5 0.0790046 0.0434473 
-6.19725 13.511 -4.38867 0 0 1.5 0.0965669 0.0294262 
-6.38242 13.1639 -4.4163 0 0 1.5 0.132411 0.0188523 
-6.55589 12.8128 -4.45794 0 0 1.5 0.150364 0.0179265 
-6.69568 12.4533 -4.54169 0 0 1.5 0.167962 0.0186985 
-6.81481 12.0964 -4.65549 0 0 1.5 0.184793 0.0207804 
-6.9144 11.7419 -4.79771 0 0 1.5 0.214223 0.0282174 
-6.98821 11.4031 -4.98445 0 0 1.5 0.225711 0.0335374 
-7.05488 11.0693 -5.18396 0 0 1.5 0.234309 0.0396195 
-7.10133 10.761 -5.42598 0 0 1.5 0.239611 0.0461876 
-7.14455 10.4589 -5.67566 0 0 1.5 0.239547 0.0612461 
-7.17686 10.1782 -5.95128 0 0 1.5 0.234306 0.0695616 
-7.20483 9.90587 -6.23512 0 0 1.5 0.226037 0.0780336 
-7.22457 9.64946 -6.53456 0 0 1.5 0.202571 0.0967787 
-7.23674 9.40162 -6.84116 0 0 1.5 0.188547 0.107636 
-7.23929 9.16468 -7.15685 0 0 1.5 0.173741 0.119833 
-7.22652 8.93633 -7.47815 0 0 1.5 0.158628 0.134188 
-7.20172 8.71473 -7.80385 0 0 1.5 0.128926 0.173919 
-7.14662 8.50286 -8.13177 0 0 1.5 0.114899 0.202109 
-7.08087 8.29439 -8.46043 0 0 1.5 0.101728 0.238739 
-6.96328 8.09884 -8.78252 0 0 1.5 0.0896373 0.286666 
-6.82861 7.90732 -9.09917 0 0 1.5 0.0699563 0.42081 
-6.65769 7.72432 -9.4043 0 0 1.5 0.0633668 0.493385 
-6.45965 7.54708 -9.69522 0 0 1.5 0.0598197 0.539956 
-6.24656 7.37302 -9.97824 0 0 1.5 0.0598937 0.532795 
-6.0111 7.20019 -10.2436 0 0 1.5 0.0712217 0.38412 
-5.77283 7.02659 -10.506 0 0 1.5 0.0817421 0.300588 
-5.52828 6.84578 -10.7577 0 0 1.5 0.0949759 0.232613 
-5.2853 6.6612 -11.0079 0 0 1.5 0.12914 0.142201 
-5.04776 6.46353 -11.2535 0 0 1.5 0.15034 0.113006 
-4.81528 6.25879 -11.4977 0 0 1.5 0.17475 0.0906801 
-4.59533 6.03658 -11.7387 0 0 1.5 0.202905 0.0732301 
-4.38435 5.80311 -11.9761 0 0 1.5 0.273262 0.0466361 
-4.1899 5.54886 -12.2071 0 0 1.5 0.317177 0.0356802 
-4.01095 5.2754 -12.4266 0 0 1.5 0.368231 0.0256595 
-3.84891 4.98095 -12.6336 0 0 1.5 0.427345 0.0158094 
-3.71757 4.6515 -12.8032 0 0 1.5 0.571212 -0.00571285 
-3.60744 4.30182 -12.9422 0 0 1.5 0.654131 -0.0177618 
-3.54349 3.91725 -13.0041 0 0 1.5 0.739921 -0.030979 
-3.53748 3.53071 -12.9531 0 0 1.5 0.889541 -0.0601009 
-3.58028 3.17738 -12.8034 0 0 1.5 0.933227 -0.0739784 
-3.66235 2.87227 -12.5729 0 0 1.5 0.944792 -0.085855 
-3.77837 2.64354 -12.2729 0 0 1.5 0.922142 -0.0948961 
-3.90993 2.47736 -11.9432 0 0 1.5 0.797984 -0.103344 
-4.04849 2.33992 -11.6003 0 0 1.5 0.716447 -0.103745 
-4.19832 2.27918 -11.2402 0 0 1.5 0.633814 -0.102867 
-4.34921 2.23368 -10.8795 0 0 1.5 0.555536 -0.101541 
-4.504 2.24382 -10.5165 0 0 1.5 0.421753 -0.0998574 
-4.65852 2.27892 -10.1565 0 0 1.5 0.367069 -0.100502 
-4.81258 2.35765 -9.80174 0 0 1.5 0.319718 -0.102641 
-4.96297 2.47157 -9.45679 0 0 1.5 0.243419 -0.112846 
-5.11004 2.61728 -9.12072 0 0 1.5 0.212694 -0.122198 
-5.24736 2.80734 -8.80465 0 0 1.5 0.18588 -0.135532 
-5.38098 3.01419 -8.49617 0 0 1.5 0.162408 -0.153976 
-5.49725 3.26702 -8.2165 0 0 1.5 0.123893 -0.214197 
-5.60902 3.52766 -7.94247 0 0 1.5 0.108415 -0.261232 
-5.70419 3.81372 -7.68768 0 0 1.5 0.0955105 -0.321883 
-5.7914 4.10526 -7.43663 0 0 1.5 0.0855307 -0.393136 
-5.86559 4.40578 -7.1917 0 0 1.5 0.0767655 -0.503607 
-5.92755 4.7064 -6.94379 0 0 1.5 0.0791518 -0.498654 
-5.97919 5.00711 -6.69336 0 0 1.5 0.0862357 -0.452757 
-6.01312 5.29939 -6.43073 0 0 1.5 0.0976388 -0.389761 
-6.03865 5.58767 -6.1623 0 0 1.5 0.131746 -0.279746 
-6.03918 5.85597 -5.87339 0 0 1.5 0.154071 -0.24166 
-6.03364 6.11943 -5.57952 0 0 1.5 0.179929 -0.213542 
-5.99454 6.34728 -5.25988 0 0 1.5 0.242735 -0.17954 
-5.94912 6.56706 -4.93589 0 0 1.5 0.279787 -0.170156 
-5.87016 6.74037 -4.59015 0 0 1.5 0.320211 -0.164128 
-5.77895 6.88979 -4.23842 0 0 1.5 0.363068 -0.160633 
-5.66434 6.99364 -3.87525 0 0 1.5 0.448624 -0.157537 
-5.5314 7.03763 -3.50889 0 0 1.5 0.48531 -0.155986 
-5.38816 7.041 -3.14257 0 0 1.5 0.51289 -0.153518 
-5.23472 6.94452 -2.79192 0 0 1.5 0.528008 -0.149585 
-5.08954 6.77595 -2.47169 0 0 1.5 0.514984 -0.135903 
-4.95621 6.54608 -2.18385 0 0 1.5 0.488898 -0.126863 
-4.85224 6.24112 -1.95584 0 0 1.5 0.453926 -0.11736 
-4.77961 5.89871 -1.77916 0 0 1.5 0.372155 -0.0982113 
-4.72426 5.53837 -1.62936 0 0 1.5 0.331167 -0.0892694 
-4.70376 5.1582 -1.52517 0 0 1.5 0.292545 -0.0811304 
-4.69456 4.77558 -1.43054 0 0 1.5 0.257153 -0.0735522 
-4.70366 4.38897 -1.35142 0 0 1.5 0.196984 -0.0590805 
-4.72395 4.00269 -1.27345 0 0 1.5 0.171967 -0.0521707 
-4.75315 3.61666 -1.1964 0 0 1.5 0.149964 -0.0449058 
-4.79006 3.23359 -1.10908 0 0 1.5 0.130662 -0.036576 
-4.8305 2.85188 -1.01709 0 0 1.5 0.0989087 -0.0153482 
-4.87317 2.47569 -0.90583 0 0 1.5 0.0858693 -0.000989387 
-4.91635 2.10077 -0.790195 0 0 1.5 0.0744162 0.0177678 
-4.95484 1.7327 -0.652964 0 0 1.5 0.0643745 0.0424327 
-4.99173 1.36543 -0.513219 0 0 1.5 0.0478982 0.11831 
-5.01952 1.00161 -0.362662 0 0 1.5 0.0412854 0.176255 
-5.04286 0.637186 -0.212955 0 0 1.5 0.0357347 0.251813 
-5.05715 0.271528 -0.0649802 0 0 1.5 0.028053 0.444899 
-5.06398 -0.0980593 0.0729336 0 0 1.5 0.0261788 0.527173 
-5.06453 -0.470953 0.20238 0 0 1.5 0.0257648 0.561987 
-5.05617 -0.85094 0.307914 0 0 1.5 0.0267857 0.539846 
-5.04517 -1.23304 0.406336 0 0 1.5 0.0324248 0.408005 
-5.02627 -1.62228 0.469074 0 0 1.5 0.036622 0.341839 
-5.00648 -2.01223 0.525549 0 0 1.5 0.0415344 0.286208 
-4.98306 -2.40505 0.556392 0 0 1.5 0.0470734 0.241672 
-4.95866 -2.79818 0.580093 0 0 1.5 0.0598426 0.17852 
-4.93239 -3.1919 0.590156 0 0 1.5 0.0670097 0.155076 
-4.9043 -3.58554 0.597182 0 0 1.5 0.0746548 0.135398 
-4.87398 -3.97908 0.600476 0 0 1.5 0.091239 0.104027 
-4.83927 -4.37217 0.607676 0 0 1.5 0.100062 0.090787 
-4.80057 -4.76484 0.618436 0 0 1.5 0.109122 0.0787023 
-4.75257 -5.15577 0.641212 0 0 1.5 0.118307 0.0675183 
-4.69822 -5.5455 0.672189 0 0 1.5 0.136506 0.0478773 
-4.62643 -5.92973 0.723973 0 0 1.5 0.145177 0.0391817 
-4.54683 -6.31148 0.785089 0 0 1.5 0.1533 0.0309496 
-4.43763 -6.67925 0.875801 0 0 1.5 0.160669 0.0233965 
-4.32148 -7.04358 0.973263 0 0 1.5 0.17238 0.0106857 
-4.16217 -7.37983 1.10502 0 0 1.5 0.17637 0.00516607 
-3.991 -7.70601 1.24371 0 0 1.5 0.178934 0.000324269 
-3.78389 -8.00164 1.40345 0 0 1.5 0.179633 -0.00688959 
-3.55456 -8.27342 1.57131 0 0 1.5 0.177809 -0.00945325 
-3.30217 -8.52047 1.74758 0 0 1.5 0.17464 -0.0113257 
-3.02235 -8.73133 1.92716 0 0 1.5 0.170288 -0.0124512 
-2.732 -8.9283 2.10801 0 0 1.5 0.158794 -0.01243 
-2.41521 -9.08322 2.28477 0 0 1.5 0.15204 -0.0113699 
-2.09457 -9.23155 2.46043 0 0 1.5 0.144888 -0.00973897 
-1.75587 -9.34589 2.62781 0 0 1.5 0.137534 -0.00743136 
-1.41457 -9.45449 2.7932 0 0 1.5 0.122872 -0.000497193 
-1.06332 -9.54119 2.95104 0 0 1.5 0.115835 0.00387158 
-0.709854 -9.62214 3.10667 0 0 1.5 0.109142 0.00891893 
-0.351375 -9.69 3.25731 0 0 1.5 0.102879 0.0147634 
0.00848189 -9.75308 3.40661 0 0 1.5 0.0918902 0.0276195 
0.370455 -9.8088 3.55384 0 0 1.5 0.087239 0.0341129 
0.732905 -9.86053 3.7013 0 0 1.5 0.0831804 0.0404128 
1.09586 -9.90807 3.84899 0 0 1.5 0.0768193 0.050626 
1.45851 -9.95108 3.99874 0 0 1.5 0.0744409 0.0537941 
1.82095 -9.99099 4.1499 0 0 1.5 0.0725305 0.055343 
2.18252 -10.0239 4.30469 0 0 1.5 0.071024 0.0552311 
2.54375 -10.0541 4.46092 0 0 1.5 0.0688624 0.0503939 
2.90373 -10.0722 4.62176 0 0 1.5 0.068024 0.0457949 
3.26347 -10.0881 4.78341 0 0 1.5 0.067229 0.040212 
3.62144 -10.0855 4.94972 0 0 1.5 0.0663853 0.034112 
3.97895 -10.079 5.11668 0 0 1.5 0.0642198 0.0204792 
4.33429 -10.0538 5.2867 0 0 1.5 0.0627563 0.0133333 
4.68827 -10.0204 5.45772 0 0 1.5 0.0609646 0.0065085 
5.03968 -9.97126 5.63064 0 0 1.5 0.0562374 -0.00671815 
5.38836 -9.91038 5.80495 0 0 1.5 0.0532466 -0.0130743 
5.73447 -9.83842 5.98056 0 0 1.5 0.0498309 -0.0188979 
6.07641 -9.75347 6.15826 0 0 1.5 0.0459991 -0.0243559 
6.41638 -9.66239 6.33696 0 0 1.5 0.0371404 -0.034743 
6.75117 -9.55924 6.51874 0 0 1.5 0.0321673 -0.0392534 
7.08495 -9.45374 6.70113 0 0 1.5 0.0268849 -0.0432894 
7.41343 -9.3389 6.88745 0 0 1.5 0.0213422 -0.0470163 
7.74133 -9.22323 7.07427 0 0 1.5 0.010035 -0.0565398 
8.06591 -9.10295 7.26398 0 0 1.5 0.00591601 -0.0810327 
8.38996 -8.9821 7.45421 0 0 1.5 0.00753619 -0.0964265 
8.7127 -8.8598 7.64575 0 0 1.5 0.0200318 -0.0835353 
9.03572 -8.73794 7.8371 0 0 1.5 0.0272708 -0.0838559 
9.35914 -8.61669 8.02817 0 0 1.5 0.0348457 -0.0857997 
9.68448 -8.49818 8.21765 0 0 1.5 0.0427334 -0.0878052 
10.0114 -8.38187 8.40584 0 0 1.5 0.0594613 -0.0914437 
10.3425 -8.27303 8.59108 0 0 1.5 0.0683374 -0.0938961 
10.6755 -8.16767 8.77494 0 0 1.5 0.0775916 -0.0961656 
11.0147 -8.07777 8.95534 0 0 1.5 0.0872458 -0.0979319 
11.3555 -7.9916 9.13489 0 0 1.5 0.107799 -0.101756 
11.7031 -7.93247 9.31217 0 0 1.5 0.118694 -0.103632 
12.0515 -7.87786 9.48937 0 0 1.5 0.129973 -0.104955 
12.4031 -7.86007 9.66782 0 0 1.5 0.141575 -0.10606 
12.7538 -7.8525 9.84768 0 0 1.5 0.1653 -0.108065 
13.1012 -7.88243 10.0327 0 0 1.5 0.177104 -0.108371 
13.4424 -7.93296 10.2227 0 0 1.5 0.188575 -0.108244 
13.7739 -8.01575 10.4204 0 0 1.5 0.209289 -0.106806 
14.0871 -8.13041 10.629 0 0 1.5 0.217841 -0.105049 
14.3879 -8.26679 10.8452 0 0 1.5 0.224712 -0.102529 
14.6499 -8.4441 11.0797 0 0 1.5 0.229547 -0.0992734 
14.8983 -8.63347 11.32 0 0 1.5 0.232066 -0.0905658 
15.0918 -8.85863 11.5802 0 0 1.5 0.229542 -0.084981 
15.2598 -9.09328 11.8469 0 0 1.5 0.224527 -0.0784976 
15.3846 -9.34418 12.1249 0 0 1.5 0.217176 -0.0713719 
15.4676 -9.60204 12.4101 0 0 1.5 0.196691 -0.0554275 
15.5258 -9.86402 12.6996 0 0 1.5 0.184264 -0.0460607 
15.5357 -10.1255 12.9944 0 0 1.5 0.170844 -0.0357859 
15.536 -10.3866 13.2903 0 0 1.5 0.142406 -0.0116844 
15.4946 -10.6402 13.59 0 0 1.5 0.127947 0.00410029 
15.4486 -10.8921 13.8902 0 0 1.5 0.113605 0.023721 
15.3782 -11.1349 14.1933 0 0 1.5 0.0995484 0.0487793 
15.3031 -11.3747 14.4976 0 0 1.5 0.0728478 0.13326 
15.2157 -11.6067 14.8047 0 0 1.5 0.060475 0.210307 
15.1256 -11.8357 15.1133 0 0 1.5 0.0490103 0.334412 
15.0313 -12.0597 15.4243 0 0 1.5 0.0388348 0.541288 
14.9382 -12.2825 15.7365 0 0 1.5 0.0259208 1.18469 
14.8464 -12.5043 16.0499 0 0 1.5 0.0257272 1.16093 
14.7624 -12.7301 16.3625 0 0 1.5 0.0296317 0.8331 
14.6826 -12.9581 16.6747 0 0 1.5 0.0358309 0.534164 
14.6225 -13.2003 16.9803 0 0 1.5 0.0500299 0.230853 
14.5692 -13.4476 17.2831 0 0 1.5 0.0568321 0.160498 
14.548 -13.7187 17.5691 0 0 1.5 0.0630218 0.114779 
14.5437 -14.0011 17.843 0 0 1.5 0.072857 0.0625518 
14.5696 -14.3035 18.0955 0 0 1.5 0.0763091 0.0471074 
14.6272 -14.6219 18.3183 0 0 1.5 0.0786908 0.035649 
14.7061 -14.9512 18.5212 0 0 1.5 0.0799622 0.0269434 
14.7851 -15.2804 18.7241 0 0 1.5 0.0792943 0.0147769 
14.864 -15.6097 18.927 0 0 1.5 0.0774759 0.0104711 
14.9429 -15.939 19.1298 0 0 1.5 0.0747789 0.00691053 
15.0219 -16.2682 19.3327 0 0 1.5 0.071322 0.00381789 
15.1008 -16.5975 19.5356 0 0 1.5 0.0626529 -0.0013217 
15.1798 -16.9268 19.7385 0 0 1.5 0.0577044 -0.00361385 
15.2587 -17.256 19.9414 0 0 1.5 0.0525102 -0.00601245 
15.3376 -17.5853 20.1442 0 0 1.5 0.0418303 -0.0114482 
15.4166 -17.9145 20.3471 0 0 1.5 0.0365465 -0.014886 
15.4955 -18.2438 20.55 0 0 1.5 0.0313991 -0.019464 
15.5745 -18.5731 20.7529 0 0 1.5 0.0264458 -0.0258285 
15.6534 -18.9023 20.9558 0 0 1.5 0.0173337 -0.0500091 
15.7323 -19.2316 21.1586 0 0 1.5 0.0132514 -0.0767906 
15.8113 -19.5609 21.3615 0 0 1.5 0.00952341 -0.132164 
15.8902 -19.8901 21.5644 0 0 1.5 0.00619921 -0.274207 
15.9692 -20.2194 21.7673 0 0 1.5 0.00193092 -2.14636 
16.0481 -20.5487 21.9702 0 0 1.5 0.00296008 -0.791481 
16.127 -20.8779 22.173 0 0 1.5 0.00467217 -0.273769 
16.206 -21.2072 22.3759 0 0 1.5 0.00752476 -0.0778027 
16.2849 -21.5365 22.5788 0 0 1.5 0.00854114 -0.0517739 
16.3639 -21.8657 22.7817 0 0 1.5 0.00928911 -0.0374356 
16.4428 -22.195 22.9846 0 0 1.5 0.00978432 -0.028827 
16.5217 -22.5242 23.1874 0 0 1.5 0.010106 -0.0197864 
16.6007 -22.8535 23.3903 0 0 1.5 0.00998083 -0.017352 
16.6796 -23.1828 23.5932 0 0 1.5 0.00969773 -0.0157293 
16.7586 -23.512 23.7961 0 0 1.5 0.00928003 -0.014742 
16.8375 -23.8413 23.999 0 0 1.5 0.00813426 -0.0141959 
16.9164 -24.1706 24.2018 0 0 1.5 0.00745233 -0.0145723 
16.9954 -24.4998 24.4047 0 0 1.5 0.0067236 -0.0154892 
17.0743 -24.8291 24.6076 0 0 1.5 0.00596551 -0.0170756 
17.1533 -25.1584 24.8105 0 0 1.5 0.00443022 -0.0234203 
17.2322 -25.4876 25.0134 0 0 1.5 0.00368008 -0.0297518 
17.3111 -25.8169 25.2162 0 0 1.5 0.00295481 -0.0406688 
17.3901 -26.1461 25.4191 0 0 1.5 0.00161939 -0.106213 
17.469 -26.4754 25.622 0 0 1.5 0.00102992 -0.234533 
17.548 -26.8047 25.8249 0 0 1.5 0.000529411 -0.796325 
17.6269 -27.1339 26.0277 0 0 1.5 0.000344311 0 
17.7058 -27.4632 26.2306 0 0 1.5 0.00101579 -0.158796 
17.7848 -27.7925 26.4335 0 0 1.5 0.00135722 -0.0808687 
17.8637 -28.1217 26.6364 0 0 1.5 0.00165755 -0.0492425 
17.9427 -28.451 26.8393 0 0 1.5 0.00191531 -0.0334774 
18.0216 -28.7803 27.0421 0 0 1.5 0.00231336 -0.0189312 
18.1005 -29.1095 27.245 0 0 1.5 0.00246078 -0.0150939 
18.1795 -29.4388 27.4479 0 0 1.5 0.00257889 -0.0123282 
18.2584 -29.768 27.6508 0 0 1.5 0.00274244 -0.00864928 
18.3374 -30.0973 27.8537 0 0 1.5 0.00279556 -0.00730771 
18.4163 -30.4266 28.0565 0 0 1.5 0.00283451 -0.00617479 
18.4952 -30.7558 28.2594 0 0 1.5 0.00286198 -0.00522145 
18.5742 -31.0851 28.4623 0 0 1.5 0.00289239 -0.00367932 
18.6531 -31.4144 28.6652 0 0 1.5 0.00290002 -0.00305025 
18.7321 -31.7436 28.8681 0 0 1.5 0.00290452 -0.00251737 
18.811 -32.0729 29.0709 0 0 1.5 0.00290678 -0.00207346 
18.8899 -32.4022 29.2738 0 0 1.5 0.00290812 -0.00143048 
18.9689 -32.7314 29.4767 0 0 1.5 0.0029082 -0.00121912 
19.0478 -33.0607 29.6796 0 0 1.5 0.00290807 -0.00107903 
0 1 0 
1 2 0 
2 3 0 
3 4 0 
4 5 0 
5 6 0 
6 7 0 
7 8 0 
8 9 0 
9 10 0 
10 11 0 
11 12 0 
12 13 0 
13 14 0 
14 15 0 
15 16 0 
16 17 0 
17 18 0 
18 19 0 
19 20 0 
20 21 0 
21 22 0 
22 23 0 
23 24 0 
24 25 0 
25 26 0 
26 27 0 
27 28 0 
28 29 0 
29 30 0 
30 31 0 
31 32 0 
32 33 0 
33 34 0 
34 35 0 
35 36 0 
36 37 0 
37 38 0 
38 39 0 
39 40 0 
40 41 0 
41 42 0 
42 43 0 
43 44 0 
44 45 0 
45 46 0 
46 47 0 
47 48 0 
48 49 0 
49 50 0 
50 51 0 
51 52 0 
52 53 0 
53 54 0 
54 55 0 
55 56 0 
56 57 0 
57 58 0 
58 59 0 
59 60 0 
60 61 0 
61 62 0 
62 63 0 
63 64 0 
64 65 0 
65 66 0 
66 67 0 
67 68 0 
68 69 0 
69 70 0 
70 71 0 
71 72 0 
72 73 0 
73 74 0 
74 75 0 
75 76 0 
76 77 0 
77 78 0 
78 79 0 
79 80 0 
80 81 0 
81 82 0 
82 83 0 
83 84 0 
84 85 0 
85 86 0 
86 87 0 
87 88 0 
88 89 0 
89 90 0 
90 91 0 
91 92 0 
92 93 0 
93 94 0 
94 95 0 
95 96 0 
96 97 0 
97 98 0 
98 99 0 
99 100 0 
100 101 0 
101 102 0 
102 103 0 
103 104 0 
104 105 0 
105 106 0 
106 107 0 
107 108 0 
108 109 0 
109 110 0 
110 111 0 
111 112 0 
112 113 0 
113 114 0 
114 115 0 
115 116 0 
116 117 0 
117 118 0 
118 119 0 
119 120 0 
120 121 0 
121 122 0 
122 123 0 
123 124 0 
124 125 0 
125 126 0 
126 127 0 
127 128 0 
128 129 0 
129 130 0 
130 131 0 
131 132 0 
132 133 0 
133 134 0 
134 135 0 
135 136 0 
136 137 0 
137 138 0 
138 139 0 
139 140 0 
140 141 0 
141 142 0 
142 143 0 
143 144 0 
144 145 0 
145 146 0 
146 147 0 
147 148 0 
148 149 0 
149 150 0 
150 151 0 
151 152 0 
152 153 0 
153 154 0 
154 155 0 
155 156 0 
156 157 0 
157 158 0 
158 159 0 
159 160 0 
160 161 0 
161 162 0 
162 163 0 
163 164 0 
164 165 0 
165 166 0 
166 167 0 
167 168 0 
168 169 0 
169 170 0 
170 171 0 
171 172 0 
172 173 0 
173 174 0 
174 175 0 
175 176 0 
176 177 0 
177 178 0 
178 179 0 
179 180 0 
180 181 0 
181 182 0 
182 183 0 
183 184 0 
184 185 0 
185 186 0 
186 187 0 
187 188 0 
188 189 0 
189 190 0 
190 191 0 
191 192 0 
192 193 0 
193 194 0 
194 195 0 
195 196 0 
196 197 0 
197 198 0 
198 199 0 
199 200 0 
200 201 0 
201 202 0 
202 203 0 
203 204 0 
204 205 0 
205 206 0 
206 207 0 
207 208 0 
208 209 0 
209 210 0 
210 211 0 
211 212 0 
212 213 0 
213 214 0 
214 215 0 
215 216 0 
216 217 0 
217 218 0 
218 219 0 
219 220 0 
220 221 0 
221 222 0 
222 223 0 
223 224 0 
224 225 0 
225 226 0 
226 227 0 
227 228 0 
228 229 0 
229 230 0 
230 231 0 
231 232 0 
232 233 0 
233 234 0 
234 235 0 
235 236 0 
236 237 0 
237 238 0 
238 239 0 
239 240 0 
240 241 0 
241 242 0 
242 243 0 
243 244 0 
244 245 0 
245 246 0 
246 247 0 
247 248 0 
248 249 0 
249 250 0 
250 251 0 
251 252 0 
252 253 0 
253 254 0 
254 255 0 
255 256 0 
256 257 0 
257 258 0 
258 259 0 
259 260 0 
260 261 0 
261 262 0 
262 263 0 
263 264 0 
264 265 0 
265 266 0 
266 267 0 
267 268 0 
268 269 0 
269 270 0 
270 271 0 
271 272 0 
272 273 0 
273 274 0 
274 275 0 
275 276 0 
276 277 0 
277 278 0 
278 279 0 
279 280 0 
280 281 0 
281 282 0 
282 283 0 
283 284 0 
284 285 0 
285 286 0 
286 287 0 
287 288 0 
288 289 0 
289 290 0 
290 291 0 
291 292 0 
292 293 0 
293 294 0 
294 295 0 
295 296 0 
296 297 0 
297 298 0 
298 299 0 
-1 -1 0 
-1 300 0 1 2 3 4 5 6 7 8 9 10 11 12 13 14 15 16 17 18 19 20 21 22 23 24 25 26 27 28 29 30 31 32 33 34 35 36 37 38 39 40 41 42 43 44 45 46 47 48 49 50 51 52 53 54 55 56 57 58 59 60 61 62 63 64 65 66 67 68 69 70 71 72 73 74 75 76 77 78 79 80 81 82 83 84 85 86 87 88 89 90 91 92 93 94 95 96 97 98 99 100 101 102 103 104 105 106 107 108 109 110 111 112 113 114 115 116 117 118 119 120 121 122 123 124 125 126 127 128 129 130 131 132 133 134 135 136 137 138 139 140 141 142 143 144 145 146 147 148 149 150 151 152 153 154 155 156 157 158 159 160 161 162 163 164 165 166 167 168 169 170 171 172 173 174 175 176 177 178 179 180 181 182 183 184 185 186 187 188 189 190 191 192 193 194 195 196 197 198 199 200 201 202 203 204 205 206 207 208 209 210 211 212 213 214 215 216 217 218 219 220 221 222 223 224 225 226 227 228 229 230 231 232 233 234 235 236 237 238 239 240 241 242 243 244 245 246 247 248 249 250 251 252 253 254 255 256 257 258 259 260 261 262 263 264 265 266 267 268 269 270 271 272 273 274 275 276 277 278 279 280 281 282 283 284 285 286 287 288 289 290 291 292 293 294 295 296 297 298 299 
