ply
format ascii 1.0
comment written by koba@oshima.lab
element vertex 300
property float x
property float y
property float z
property int label
property int attribute
property float radius
property float curvature
property float torsion
element edge 300
property int vertex1
property int vertex2
property int label
element vertex_seq 1
property int label
property list int int vertex_indices
end_header
7.44286 26.3204 -12.2982 0 0 1.5 0.0262364 -0.0193104 
7.15735 26.131 -12.0795 0 0 1.5 0.0260091 -0.0200459 
6.87185 25.9416 -11.8609 0 0 1.5 0.025775 -0.0214342 
6.58634 25.7521 -11.6423 0 0 1.5 0.0255308 -0.0234908 
6.30084 25.5627 -11.4237 0 0 1.5 0.0250001 -0.0296875 
6.01533 25.3732 -11.205 0 0 1.5 0.0247039 -0.0338982 
5.72983 25.1838 -10.9864 0 0 1.5 0.0243788 -0.0389372 
5.44432 24.9943 -10.7678 0 0 1.5 0.0240194 -0.0448957 
5.15882 24.8049 -10.5492 0 0 1.5 0.02317 -0.0596029 
4.87331 24.6154 -10.3305 0 0 1.5 0.0226586 -0.0687274 
4.58781 24.426 -10.1119 0 0 1.5 0.0220782 -0.079521 
4.3023 24.2365 -9.89327 0 0 1.5 0.0214224 -0.0922048 
4.0168 24.0471 -9.67464 0 0 1.5 0.0198527 -0.125715 
3.73129 23.8577 -9.45601 0 0 1.5 0.0189353 -0.149007 
3.44579 23.6682 -9.23738 0 0 1.5 0.0179423 -0.178473 
3.16028 23.4788 -9.01876 0 0 1.5 0.0158431 -0.263708 
2.87477 23.2893 -8.80013 0 0 1.5 0.0148581 -0.322999 
2.58927 23.0999 -8.5815 0 0 1.5 0.0140657 -0.389265 
2.30376 22.9104 -8.36287 0 0 1.5 0.0136375 -0.44847 
2.01826 22.721 -8.14425 0 0 1.5 0.0146369 -0.465003 
1.73275 22.5315 -7.92562 0 0 1.5 0.016315 -0.412781 
1.44725 22.3421 -7.70699 0 0 1.5 0.0187828 -0.344971 
1.16174 22.1526 -7.48836 0 0 1.5 0.0219613 -0.281193 
0.876237 21.9632 -7.26974 0 0 1.5 0.030152 -0.188938 
0.590732 21.7738 -7.05111 0 0 1.5 0.0350573 -0.158418 
0.305226 21.5843 -6.83248 0 0 1.5 0.0404575 -0.135603 
0.0197209 21.3949 -6.61385 0 0 1.5 0.0527108 -0.105522 
-0.265784 21.2054 -6.39522 0 0 1.5 0.059556 -0.0951703 
-0.55129 21.016 -6.1766 0 0 1.5 0.0668709 -0.0871023 
-0.836795 20.8265 -5.95797 0 0 1.5 0.0746537 -0.0809257 
-1.1223 20.6371 -5.73934 0 0 1.5 0.0916088 -0.0717992 
-1.40781 20.4476 -5.52071 0 0 1.5 0.100749 -0.0684018 
-1.69046 20.2506 -5.30603 0 0 1.5 0.110294 -0.0657452 
-1.95928 20.0167 -5.11052 0 0 1.5 0.120204 -0.0634572 
-2.22675 19.7794 -4.91792 0 0 1.5 0.140873 -0.0591569 
-2.47872 19.503 -4.75876 0 0 1.5 0.151446 -0.0572271 
-2.72792 19.2204 -4.60827 0 0 1.5 0.162009 -0.0552065 
-2.96346 18.9072 -4.50044 0 0 1.5 0.172418 -0.052845 
-3.19265 18.5836 -4.41886 0 0 1.5 0.192036 -0.0470916 
-3.41225 18.2441 -4.37693 0 0 1.5 0.200809 -0.0435864 
-3.62044 17.897 -4.38984 0 0 1.5 0.208609 -0.0394947 
-3.82279 17.5477 -4.43089 0 0 1.5 0.220475 -0.0293137 
-4.01089 17.2046 -4.54103 0 0 1.5 0.224176 -0.0232499 
-4.19194 16.8711 -4.68199 0 0 1.5 0.226237 -0.0166285 
-4.36462 16.5488 -4.85951 0 0 1.5 0.226616 -0.00937758 
-4.52613 16.2475 -5.07781 0 0 1.5 0.22241 0.00704061 
-4.68423 15.9526 -5.30856 0 0 1.5 0.218011 0.015864 
-4.82864 15.6851 -5.57838 0 0 1.5 0.212286 0.025145 
-4.971 15.4213 -5.85246 0 0 1.5 0.205421 0.0350086 
-5.10175 15.1778 -6.15052 0 0 1.5 0.189082 0.0555437 
-5.22903 14.9389 -6.45341 0 0 1.5 0.18002 0.0661964 
-5.34509 14.7146 -6.77183 0 0 1.5 0.170615 0.0774101 
-5.45595 14.4945 -7.09481 0 0 1.5 0.15141 0.101354 
-5.55462 14.2844 -7.42848 0 0 1.5 0.141868 0.114416 
-5.64526 14.0781 -7.76651 0 0 1.5 0.132507 0.128735 
-5.7222 13.8783 -8.11199 0 0 1.5 0.123415 0.144551 
-5.78596 13.682 -8.46183 0 0 1.5 0.106339 0.181985 
-5.8355 13.4896 -8.81638 0 0 1.5 0.0985009 0.204693 
-5.86335 13.3009 -9.17494 0 0 1.5 0.0912335 0.230516 
-5.87952 13.1143 -9.53565 0 0 1.5 0.0846414 0.2593 
-5.86243 12.9326 -9.8986 0 0 1.5 0.0740049 0.322396 
-5.83487 12.7524 -10.2616 0 0 1.5 0.0702806 0.351805 
-5.77463 12.5773 -10.6234 0 0 1.5 0.0678775 0.373668 
-5.69897 12.4046 -10.9831 0 0 1.5 0.0677218 0.377475 
-5.60392 12.2349 -11.34 0 0 1.5 0.0701638 0.357216 
-5.48931 12.0673 -11.6918 0 0 1.5 0.0743023 0.326171 
-5.36689 11.9004 -12.0416 0 0 1.5 0.0800778 0.289991 
-5.22688 11.7311 -12.3836 0 0 1.5 0.0962541 0.219653 
-5.08456 11.5606 -12.7239 0 0 1.5 0.10657 0.189544 
-4.93283 11.3811 -13.0555 0 0 1.5 0.118373 0.1636 
-4.78005 11.1971 -13.384 0 0 1.5 0.131715 0.141567 
-4.62407 10.9989 -13.7027 0 0 1.5 0.163434 0.107222 
-4.46839 10.791 -14.0149 0 0 1.5 0.182097 0.093702 
-4.31326 10.5648 -14.3149 0 0 1.5 0.202851 0.0818574 
-4.1607 10.3216 -14.6016 0 0 1.5 0.225879 0.0713924 
-4.01108 10.0587 -14.8731 0 0 1.5 0.279445 0.0532812 
-3.8685 9.76782 -15.1168 0 0 1.5 0.310169 0.0447928 
-3.72989 9.46115 -15.3447 0 0 1.5 0.343455 0.0364413 
-3.60829 9.11262 -15.5132 0 0 1.5 0.416447 0.0195147 
-3.49704 8.74889 -15.6484 0 0 1.5 0.454675 0.010329 
-3.4063 8.359 -15.7188 0 0 1.5 0.492363 0.000630145 
-3.34729 7.96044 -15.6984 0 0 1.5 0.527769 -0.00941257 
-3.31249 7.56934 -15.6132 0 0 1.5 0.583135 -0.0304483 
-3.30736 7.19647 -15.4515 0 0 1.5 0.598732 -0.0408622 
-3.33986 6.87866 -15.2029 0 0 1.5 0.604253 -0.0504687 
-3.38911 6.59673 -14.9191 0 0 1.5 0.59928 -0.0589992 
-3.45842 6.36234 -14.5943 0 0 1.5 0.560886 -0.0721256 
-3.54548 6.19011 -14.2387 0 0 1.5 0.530879 -0.0764416 
-3.63872 6.04123 -13.8727 0 0 1.5 0.496506 -0.0794643 
-3.74573 5.96553 -13.488 0 0 1.5 0.422273 -0.0827993 
-3.85489 5.91084 -13.1018 0 0 1.5 0.385373 -0.0834186 
-3.96952 5.90973 -12.7119 0 0 1.5 0.349953 -0.0837132 
-4.08454 5.93976 -12.3247 0 0 1.5 0.316525 -0.08401 
-4.20005 6.00808 -11.9411 0 0 1.5 0.256415 -0.0856313 
-4.31214 6.11289 -11.566 0 0 1.5 0.229766 -0.087443 
-4.42181 6.2436 -11.1971 0 0 1.5 0.205233 -0.0903607 
-4.52288 6.41132 -10.8419 0 0 1.5 0.182629 -0.0948429 
-4.62029 6.5947 -10.4925 0 0 1.5 0.142514 -0.110953 
-4.70339 6.81096 -10.1591 0 0 1.5 0.124653 -0.124699 
-4.78304 7.03515 -9.82961 0 0 1.5 0.108038 -0.144944 
-4.84314 7.28443 -9.51447 0 0 1.5 0.0781632 -0.222387 
-4.90098 7.53661 -9.20101 0 0 1.5 0.0648793 -0.297531 
-4.93522 7.8036 -8.8965 0 0 1.5 0.0529127 -0.42126 
-4.9674 8.07108 -8.59222 0 0 1.5 0.0428481 -0.618665 
-4.97648 8.34106 -8.28852 0 0 1.5 0.0339604 -0.976816 
-4.98175 8.60949 -7.98353 0 0 1.5 0.0377846 -0.81318 
-4.96734 8.86996 -7.67185 0 0 1.5 0.0462161 -0.572579 
-4.9469 9.12415 -7.35572 0 0 1.5 0.0575896 -0.396423 
-4.91194 9.36323 -7.02888 0 0 1.5 0.0856045 -0.218957 
-4.86964 9.58671 -6.69267 0 0 1.5 0.101568 -0.175691 
-4.81912 9.79275 -6.34598 0 0 1.5 0.118686 -0.146965 
-4.76267 9.96746 -5.98407 0 0 1.5 0.1369 -0.127249 
-4.7038 10.1287 -5.61568 0 0 1.5 0.176284 -0.103026 
-4.64601 10.2364 -5.22804 0 0 1.5 0.197173 -0.0951319 
-4.5929 10.3204 -4.8352 0 0 1.5 0.218498 -0.0887479 
-4.54737 10.3662 -4.43391 0 0 1.5 0.260645 -0.0786596 
-4.52105 10.3579 -4.02935 0 0 1.5 0.280291 -0.0740796 
-4.50849 10.3182 -3.62645 0 0 1.5 0.298018 -0.0692837 
-4.51957 10.2304 -3.22974 0 0 1.5 0.313048 -0.0642446 
-4.55909 10.0949 -2.8499 0 0 1.5 0.332481 -0.0532151 
-4.6158 9.93154 -2.48338 0 0 1.5 0.336048 -0.0468627 
-4.69795 9.72867 -2.14089 0 0 1.5 0.335369 -0.0401461 
-4.79925 9.49443 -1.8259 0 0 1.5 0.330708 -0.0333341 
-4.91049 9.24293 -1.52723 0 0 1.5 0.311502 -0.0192783 
-5.03701 8.95973 -1.26456 0 0 1.5 0.298244 -0.0122515 
-5.16793 8.661 -1.02351 0 0 1.5 0.283465 -0.00553103 
-5.30319 8.34702 -0.803695 0 0 1.5 0.25171 0.00727672 
-5.43996 8.00998 -0.623232 0 0 1.5 0.235633 0.013448 
-5.57626 7.66432 -0.460057 0 0 1.5 0.219847 0.0194768 
-5.71 7.3011 -0.336007 0 0 1.5 0.204554 0.0254922 
-5.83989 6.92816 -0.244117 0 0 1.5 0.175851 0.0380966 
-5.96711 6.54844 -0.174609 0 0 1.5 0.162523 0.0450186 
-6.08624 6.16026 -0.1591 0 0 1.5 0.149889 0.052646 
-6.20199 5.77142 -0.162841 0 0 1.5 0.137924 0.0612751 
-6.31201 5.38181 -0.198929 0 0 1.5 0.115873 0.0833179 
-6.41586 4.99446 -0.262585 0 0 1.5 0.105742 0.0978278 
-6.51696 4.60813 -0.338131 0 0 1.5 0.096189 0.115622 
-6.60999 4.22506 -0.437152 0 0 1.5 0.0872095 0.137761 
-6.70037 3.84222 -0.539283 0 0 1.5 0.0710684 0.200129 
-6.78475 3.45991 -0.648438 0 0 1.5 0.064025 0.242647 
-6.86379 3.07624 -0.756739 0 0 1.5 0.0577989 0.293318 
-6.93824 2.69142 -0.864307 0 0 1.5 0.0484053 0.406424 
-7.00386 2.30311 -0.964574 0 0 1.5 0.0456005 0.450444 
-7.06627 1.91352 -1.06219 0 0 1.5 0.0442509 0.469399 
-7.11578 1.51911 -1.14675 0 0 1.5 0.0443745 0.456844 
-7.16337 1.12403 -1.2294 0 0 1.5 0.048496 0.360071 
-7.19508 0.724436 -1.29665 0 0 1.5 0.0520283 0.300027 
-7.22471 0.324465 -1.36215 0 0 1.5 0.0562172 0.244598 
-7.23901 -0.078323 -1.41467 0 0 1.5 0.0608687 0.196431 
-7.25027 -0.481401 -1.46502 0 0 1.5 0.071015 0.12182 
-7.24697 -0.885873 -1.50492 0 0 1.5 0.0763256 0.0941474 
-7.24046 -1.29042 -1.54283 0 0 1.5 0.0817161 0.0712919 
-7.21985 -1.6953 -1.57199 0 0 1.5 0.0926172 0.0363339 
-7.19639 -2.10007 -1.59953 0 0 1.5 0.098092 0.0235075 
-7.15856 -2.50429 -1.6189 0 0 1.5 0.103567 0.0131042 
-7.11846 -2.90829 -1.637 0 0 1.5 0.109038 0.00468898 
-7.06251 -3.31077 -1.64624 0 0 1.5 0.119939 -0.00678343 
-7.00484 -3.71296 -1.65452 0 0 1.5 0.125329 -0.0101665 
-6.9282 -4.11211 -1.65208 0 0 1.5 0.130641 -0.0122227 
-6.84994 -4.51088 -1.64873 0 0 1.5 0.135841 -0.0131287 
-6.74794 -4.90396 -1.63202 0 0 1.5 0.145679 -0.012005 
-6.64286 -5.296 -1.61363 0 0 1.5 0.150178 -0.0101083 
-6.5086 -5.67809 -1.57926 0 0 1.5 0.154295 -0.00756986 
-6.3663 -6.05633 -1.54061 0 0 1.5 0.161061 -0.00115343 
-6.1917 -6.41911 -1.48483 0 0 1.5 0.163548 0.00275961 
-5.99892 -6.76965 -1.41961 0 0 1.5 0.165339 0.00691253 
-5.77728 -7.10078 -1.3394 0 0 1.5 0.166392 0.0110835 
-5.52453 -7.4022 -1.24294 0 0 1.5 0.166193 0.0197239 
-5.25473 -7.68734 -1.13757 0 0 1.5 0.164934 0.0240473 
-4.94623 -7.91903 -1.01082 0 0 1.5 0.162959 0.0280745 
-4.62886 -8.13393 -0.878554 0 0 1.5 0.160339 0.0318468 
-4.29014 -8.30459 -0.732475 0 0 1.5 0.153485 0.0385899 
-3.9443 -8.45127 -0.579684 0 0 1.5 0.149441 0.0412351 
-3.59065 -8.57162 -0.419527 0 0 1.5 0.145119 0.0433058 
-3.23364 -8.66724 -0.251531 0 0 1.5 0.140614 0.0447569 
-2.87477 -8.74916 -0.0791955 0 0 1.5 0.13139 0.0452604 
-2.51667 -8.81136 0.102281 0 0 1.5 0.12683 0.0440098 
-2.15885 -8.86662 0.28698 0 0 1.5 0.122386 0.041557 
-1.80511 -8.90826 0.482553 0 0 1.5 0.113993 0.0333719 
-1.45249 -8.94618 0.681104 0 0 1.5 0.110074 0.0276006 
-1.10659 -8.97499 0.892415 0 0 1.5 0.106342 0.0205149 
-0.762253 -9.00166 1.10671 0 0 1.5 0.102785 0.0124491 
-0.42694 -9.02099 1.33546 0 0 1.5 0.0960746 -0.00552678 
-0.093292 -9.03897 1.56689 0 0 1.5 0.0928535 -0.0156303 
0.229305 -9.04816 1.81388 0 0 1.5 0.089675 -0.026057 
0.550641 -9.05632 2.06261 0 0 1.5 0.0864954 -0.0363033 
0.859845 -9.0512 2.32637 0 0 1.5 0.0799717 -0.056651 
1.16738 -9.0431 2.59184 0 0 1.5 0.0765582 -0.0666026 
1.46592 -9.01881 2.86659 0 0 1.5 0.073001 -0.0760009 
1.76187 -8.98619 3.143 0 0 1.5 0.0653458 -0.0938082 
2.05271 -8.93718 3.42265 0 0 1.5 0.0612014 -0.102752 
2.34132 -8.8728 3.70114 0 0 1.5 0.0568265 -0.112248 
2.62804 -8.79537 3.97863 0 0 1.5 0.0522119 -0.122919 
2.91418 -8.69649 4.24951 0 0 1.5 0.0422261 -0.153135 
3.20014 -8.59048 4.5182 0 0 1.5 0.0368537 -0.17895 
3.48808 -8.46103 4.77411 0 0 1.5 0.0312437 -0.220949 
3.77665 -8.32828 5.02759 0 0 1.5 0.025423 -0.297446 
4.06926 -8.17986 5.26749 0 0 1.5 0.0136546 -0.880775 
4.36344 -8.02936 5.50403 0 0 1.5 0.00899843 -1.99036 
4.66272 -7.87211 5.72964 0 0 1.5 0.00868571 -2.20164 
4.9646 -7.71498 5.95178 0 0 1.5 0.0204725 -0.477403 
5.27207 -7.55814 6.16639 0 0 1.5 0.0282255 -0.286999 
5.58274 -7.40475 6.37878 0 0 1.5 0.0364737 -0.199298 
5.89909 -7.25749 6.5872 0 0 1.5 0.0451022 -0.151618 
6.21861 -7.11728 6.79541 0 0 1.5 0.0632596 -0.102266 
6.54322 -6.98833 7.00327 0 0 1.5 0.0726898 -0.08811 
6.87025 -6.87033 7.21336 0 0 1.5 0.0822836 -0.077307 
7.2008 -6.7682 7.42669 0 0 1.5 0.0919752 -0.0685287 
7.53203 -6.68202 7.64514 0 0 1.5 0.111299 -0.0546932 
7.86409 -6.61514 7.86978 0 0 1.5 0.120708 -0.0489768 
8.19337 -6.57138 8.10284 0 0 1.5 0.12978 -0.0437834 
8.52022 -6.54793 8.3433 0 0 1.5 0.138371 -0.0389034 
8.83784 -6.55734 8.59538 0 0 1.5 0.153459 -0.0296664 
9.1506 -6.58408 8.85358 0 0 1.5 0.159645 -0.0254176 
9.44403 -6.65471 9.12479 0 0 1.5 0.164744 -0.0212867 
9.7331 -6.73527 9.39893 0 0 1.5 0.171241 -0.0131508 
9.99068 -6.86896 9.68349 0 0 1.5 0.172518 -0.00937413 
10.2418 -7.01152 9.96857 0 0 1.5 0.17248 -0.00573154 
10.464 -7.19385 10.2559 0 0 1.5 0.171166 -0.00213885 
10.6746 -7.39036 10.5416 0 0 1.5 0.165078 0.0043574 
10.8626 -7.61414 10.824 0 0 1.5 0.160593 0.00717643 
11.0369 -7.85399 11.1011 0 0 1.5 0.155359 0.0097746 
11.1955 -8.11196 11.3722 0 0 1.5 0.149533 0.0121022 
11.3411 -8.38552 11.6344 0 0 1.5 0.136754 0.0157302 
11.4767 -8.67124 11.8897 0 0 1.5 0.130086 0.0170081 
11.6018 -8.9708 12.1338 0 0 1.5 0.12339 0.0179393 
11.7206 -9.27874 12.371 0 0 1.5 0.110277 0.0186984 
11.8315 -9.59838 12.5958 0 0 1.5 0.104 0.0183577 
11.9384 -9.92395 12.8144 0 0 1.5 0.0979753 0.0175693 
12.039 -10.259 13.021 0 0 1.5 0.092229 0.0164145 
12.1368 -10.5983 13.2223 0 0 1.5 0.0816344 0.0125447 
12.2289 -10.9451 13.4131 0 0 1.5 0.0767969 0.00980708 
12.3186 -11.2948 13.5998 0 0 1.5 0.0722549 0.0067367 
12.4017 -11.6503 13.7781 0 0 1.5 0.0679943 0.00326021 
12.4826 -12.0079 13.9537 0 0 1.5 0.0602542 -0.00505149 
12.5549 -12.3701 14.1232 0 0 1.5 0.0567331 -0.00963271 
12.6248 -12.7336 14.2911 0 0 1.5 0.0534125 -0.0144496 
12.6836 -13.1009 14.4549 0 0 1.5 0.0502707 -0.0194983 
12.7403 -13.4689 14.6178 0 0 1.5 0.0444375 -0.0299933 
12.7833 -13.8402 14.7774 0 0 1.5 0.0417036 -0.0352933 
12.8248 -14.2118 14.9367 0 0 1.5 0.0390683 -0.0405334 
12.8505 -14.5865 15.092 0 0 1.5 0.034039 -0.0511663 
12.8752 -14.9614 15.2471 0 0 1.5 0.0316235 -0.0566292 
12.8838 -15.3394 15.3963 0 0 1.5 0.0292657 -0.0620965 
12.8911 -15.7176 15.5448 0 0 1.5 0.0269631 -0.0678086 
12.8837 -16.0991 15.685 0 0 1.5 0.0225247 -0.0811293 
12.8764 -16.4805 15.8252 0 0 1.5 0.0203964 -0.0888662 
12.8691 -16.8619 15.9655 0 0 1.5 0.0183369 -0.0978233 
12.8617 -17.2433 16.1057 0 0 1.5 0.0163531 -0.108766 
12.8544 -17.6248 16.2459 0 0 1.5 0.0126458 -0.139034 
12.847 -18.0062 16.3861 0 0 1.5 0.0109422 -0.160609 
12.8397 -18.3876 16.5263 0 0 1.5 0.00935034 -0.189473 
12.8324 -18.769 16.6665 0 0 1.5 0.00654111 -0.283235 
12.825 -19.1505 16.8067 0 0 1.5 0.0053491 -0.360046 
12.8177 -19.5319 16.947 0 0 1.5 0.0043183 -0.469274 
12.8104 -19.9133 17.0872 0 0 1.5 0.00347102 -0.616677 
12.803 -20.2948 17.2274 0 0 1.5 0.00245236 -0.889717 
12.7957 -20.6762 17.3676 0 0 1.5 0.00230859 -0.853452 
12.7883 -21.0576 17.5078 0 0 1.5 0.00235066 -0.700845 
12.781 -21.439 17.648 0 0 1.5 0.00249307 -0.53094 
12.7737 -21.8205 17.7882 0 0 1.5 0.00282069 -0.304062 
12.7663 -22.2019 17.9285 0 0 1.5 0.00294096 -0.241054 
12.759 -22.5833 18.0687 0 0 1.5 0.00301568 -0.198049 
12.7516 -22.9648 18.2089 0 0 1.5 0.00302265 -0.149014 
12.7443 -23.3462 18.3491 0 0 1.5 0.00296033 -0.13604 
12.737 -23.7276 18.4893 0 0 1.5 0.00286073 -0.127751 
12.7296 -24.109 18.6295 0 0 1.5 0.00272967 -0.12335 
12.7223 -24.4905 18.7697 0 0 1.5 0.00239524 -0.125387 
12.7149 -24.8719 18.91 0 0 1.5 0.00220345 -0.131172 
12.7076 -25.2533 19.0502 0 0 1.5 0.00200298 -0.140649 
12.7003 -25.6347 19.1904 0 0 1.5 0.00179842 -0.155177 
12.6929 -26.0162 19.3306 0 0 1.5 0.00139546 -0.204127 
12.6856 -26.3976 19.4708 0 0 1.5 0.00120662 -0.242756 
12.6782 -26.779 19.611 0 0 1.5 0.00103179 -0.296212 
12.6709 -27.1605 19.7512 0 0 1.5 0.0008755 -0.367528 
12.6636 -27.5419 19.8915 0 0 1.5 0.000640712 -0.546289 
12.6562 -27.9233 20.0317 0 0 1.5 0.000572344 -0.614229 
12.6489 -28.3047 20.1719 0 0 1.5 0.000539353 -0.622718 
12.6415 -28.6862 20.3121 0 0 1.5 0.000557305 -0.474913 
12.6342 -29.0676 20.4523 0 0 1.5 0.000589137 -0.385932 
12.6269 -29.449 20.5925 0 0 1.5 0.00062516 -0.312264 
12.6195 -29.8304 20.7327 0 0 1.5 0.000660227 -0.255276 
12.6122 -30.2119 20.873 0 0 1.5 0.000716773 -0.181842 
12.6048 -30.5933 21.0132 0 0 1.5 0.000736389 -0.158639 
12.5975 -30.9747 21.1534 0 0 1.5 0.000750219 -0.140641 
12.5902 -31.3562 21.2936 0 0 1.5 0.000758699 -0.126529 
12.5828 -31.7376 21.4338 0 0 1.5 0.00076206 -0.106434 
12.5755 -32.119 21.574 0 0 1.5 0.000758489 -0.098509 
12.5681 -32.5004 21.7143 0 0 1.5 0.000752516 -0.0914117 
12.5608 -32.8819 21.8545 0 0 1.5 0.000735752 -0.079108 
12.5535 -33.2633 21.9947 0 0 1.5 0.000726163 -0.0731582 
12.5461 -33.6447 22.1349 0 0 1.5 0.000716531 -0.0672535 
12.5388 -34.0262 22.2751 0 0 1.5 0.000707113 -0.0615936 
12.5314 -34.4076 22.4153 0 0 1.5 0.000689769 -0.0507184 
12.5241 -34.789 22.5555 0 0 1.5 0.000682266 -0.0455817 
12.5168 -35.1704 22.6958 0 0 1.5 0.000675576 -0.0409231 
12.5094 -35.5519 22.836 0 0 1.5 0.000669632 -0.0368038 
12.5021 -35.9333 22.9762 0 0 1.5 0.000659792 -0.0303972 
12.4948 -36.3147 23.1164 0 0 1.5 0.000655715 -0.0282353 
12.4874 -36.6961 23.2566 0 0 1.5 0.000652021 -0.0268416 
0 1 0 
1 2 0 
2 3 0 
3 4 0 
4 5 0 
5 6 0 
6 7 0 
7 8 0 
8 9 0 
9 10 0 
10 11 0 
11 12 0 
12 13 0 
13 14 0 
14 15 0 
15 16 0 
16 17 0 
17 18 0 
18 19 0 
19 20 0 
20 21 0 
21 22 0 
22 23 0 
23 24 0 
24 25 0 
25 26 0 
26 27 0 
27 28 0 
28 29 0 
29 30 0 
30 31 0 
31 32 0 
32 33 0 
33 34 0 
34 35 0 
35 36 0 
36 37 0 
37 38 0 
38 39 0 
39 40 0 
40 41 0 
41 42 0 
42 43 0 
43 44 0 
44 45 0 
45 46 0 
46 47 0 
47 48 0 
48 49 0 
49 50 0 
50 51 0 
51 52 0 
52 53 0 
53 54 0 
54 55 0 
55 56 0 
56 57 0 
57 58 0 
58 59 0 
59 60 0 
60 61 0 
61 62 0 
62 63 0 
63 64 0 
64 65 0 
65 66 0 
66 67 0 
67 68 0 
68 69 0 
69 70 0 
70 71 0 
71 72 0 
72 73 0 
73 74 0 
74 75 0 
75 76 0 
76 77 0 
77 78 0 
78 79 0 
79 80 0 
80 81 0 
81 82 0 
82 83 0 
83 84 0 
84 85 0 
85 86 0 
86 87 0 
87 88 0 
88 89 0 
89 90 0 
90 91 0 
91 92 0 
92 93 0 
93 94 0 
94 95 0 
95 96 0 
96 97 0 
97 98 0 
98 99 0 
99 100 0 
100 101 0 
101 102 0 
102 103 0 
103 104 0 
104 105 0 
105 106 0 
106 107 0 
107 108 0 
108 109 0 
109 110 0 
110 111 0 
111 112 0 
112 113 0 
113 114 0 
114 115 0 
115 116 0 
116 117 0 
117 118 0 
118 119 0 
119 120 0 
120 121 0 
121 122 0 
122 123 0 
123 124 0 
124 125 0 
125 126 0 
126 127 0 
127 128 0 
128 129 0 
129 130 0 
130 131 0 
131 132 0 
132 133 0 
133 134 0 
134 135 0 
135 136 0 
136 137 0 
137 138 0 
138 139 0 
139 140 0 
140 141 0 
141 142 0 
142 143 0 
143 144 0 
144 145 0 
145 146 0 
146 147 0 
147 148 0 
148 149 0 
149 150 0 
150 151 0 
151 152 0 
152 153 0 
153 154 0 
154 155 0 
155 156 0 
156 157 0 
157 158 0 
158 159 0 
159 160 0 
160 161 0 
161 162 0 
162 163 0 
163 164 0 
164 165 0 
165 166 0 
166 167 0 
167 168 0 
168 169 0 
169 170 0 
170 171 0 
171 172 0 
172 173 0 
173 174 0 
174 175 0 
175 176 0 
176 177 0 
177 178 0 
178 179 0 
179 180 0 
180 181 0 
181 182 0 
182 183 0 
183 184 0 
184 185 0 
185 186 0 
186 187 0 
187 188 0 
188 189 0 
189 190 0 
190 191 0 
191 192 0 
192 193 0 
193 194 0 
194 195 0 
195 196 0 
196 197 0 
197 198 0 
198 199 0 
199 200 0 
200 201 0 
201 202 0 
202 203 0 
203 204 0 
204 205 0 
205 206 0 
206 207 0 
207 208 0 
208 209 0 
209 210 0 
210 211 0 
211 212 0 
212 213 0 
213 214 0 
214 215 0 
215 216 0 
216 217 0 
217 218 0 
218 219 0 
219 220 0 
220 221 0 
221 222 0 
222 223 0 
223 224 0 
224 225 0 
225 226 0 
226 227 0 
227 228 0 
228 229 0 
229 230 0 
230 231 0 
231 232 0 
232 233 0 
233 234 0 
234 235 0 
235 236 0 
236 237 0 
237 238 0 
238 239 0 
239 240 0 
240 241 0 
241 242 0 
242 243 0 
243 244 0 
244 245 0 
245 246 0 
246 247 0 
247 248 0 
248 249 0 
249 250 0 
250 251 0 
251 252 0 
252 253 0 
253 254 0 
254 255 0 
255 256 0 
256 257 0 
257 258 0 
258 259 0 
259 260 0 
260 261 0 
261 262 0 
262 263 0 
263 264 0 
264 265 0 
265 266 0 
266 267 0 
267 268 0 
268 269 0 
269 270 0 
270 271 0 
271 272 0 
272 273 0 
273 274 0 
274 275 0 
275 276 0 
276 277 0 
277 278 0 
278 279 0 
279 280 0 
280 281 0 
281 282 0 
282 283 0 
283 284 0 
284 285 0 
285 286 0 
286 287 0 
287 288 0 
288 289 0 
289 290 0 
290 291 0 
291 292 0 
292 293 0 
293 294 0 
294 295 0 
295 296 0 
296 297 0 
297 298 0 
298 299 0 
-1 -1 0 
-1 300 0 1 2 3 4 5 6 7 8 9 10 11 12 13 14 15 16 17 18 19 20 21 22 23 24 25 26 27 28 29 30 31 32 33 34 35 36 37 38 39 40 41 42 43 44 45 46 47 48 49 50 51 52 53 54 55 56 57 58 59 60 61 62 63 64 65 66 67 68 69 70 71 72 73 74 75 76 77 78 79 80 81 82 83 84 85 86 87 88 89 90 91 92 93 94 95 96 97 98 99 100 101 102 103 104 105 106 107 108 109 110 111 112 113 114 115 116 117 118 119 120 121 122 123 124 125 126 127 128 129 130 131 132 133 134 135 136 137 138 139 140 141 142 143 144 145 146 147 148 149 150 151 152 153 154 155 156 157 158 159 160 161 162 163 164 165 166 167 168 169 170 171 172 173 174 175 176 177 178 179 180 181 182 183 184 185 186 187 188 189 190 191 192 193 194 195 196 197 198 199 200 201 202 203 204 205 206 207 208 209 210 211 212 213 214 215 216 217 218 219 220 221 222 223 224 225 226 227 228 229 230 231 232 233 234 235 236 237 238 239 240 241 242 243 244 245 246 247 248 249 250 251 252 253 254 255 256 257 258 259 260 261 262 263 264 265 266 267 268 269 270 271 272 273 274 275 276 277 278 279 280 281 282 283 284 285 286 287 288 289 290 291 292 293 294 295 296 297 298 299 
