ply
format ascii 1.0
comment written by koba@oshima.lab
element vertex 300
property float x
property float y
property float z
property int label
property int attribute
property float radius
property float curvature
property float torsion
element edge 300
property int vertex1
property int vertex2
property int label
element vertex_seq 1
property int label
property list int int vertex_indices
end_header
4.77357 27.4976 -7.54352 0 0 1.5 0.00841968 0.010522 
4.5214 27.2782 -7.54439 0 0 1.5 0.00825602 0.0112914 
4.26924 27.0588 -7.54527 0 0 1.5 0.00808504 0.0124426 
4.01707 26.8394 -7.54614 0 0 1.5 0.00790216 0.0140493 
3.7649 26.62 -7.54701 0 0 1.5 0.0074825 0.0190687 
3.51273 26.4006 -7.54789 0 0 1.5 0.00723594 0.0228387 
3.26056 26.1812 -7.54876 0 0 1.5 0.00695804 0.0278183 
3.0084 25.9618 -7.54963 0 0 1.5 0.0066439 0.0344593 
2.75623 25.7424 -7.55051 0 0 1.5 0.0058893 0.055744 
2.50406 25.523 -7.55138 0 0 1.5 0.0054418 0.0733238 
2.25189 25.3036 -7.55225 0 0 1.5 0.00494545 0.0994389 
1.99972 25.0842 -7.55313 0 0 1.5 0.00440313 0.139833 
1.74755 24.8648 -7.554 0 0 1.5 0.00324068 0.315657 
1.49539 24.6453 -7.55487 0 0 1.5 0.00270821 0.496967 
1.24322 24.4259 -7.55575 0 0 1.5 0.00235783 0.717223 
0.991051 24.2065 -7.55662 0 0 1.5 0.00286009 0.573706 
0.738883 23.9871 -7.55749 0 0 1.5 0.00369777 0.37032 
0.486715 23.7677 -7.55837 0 0 1.5 0.00476831 0.23899 
0.234546 23.5483 -7.55924 0 0 1.5 0.00599351 0.161157 
-0.0176216 23.3289 -7.56012 0 0 1.5 0.00874837 0.084461 
-0.26979 23.1095 -7.56099 0 0 1.5 0.0102308 0.064578 
-0.521958 22.8901 -7.56186 0 0 1.5 0.0117546 0.0505553 
-0.774126 22.6707 -7.56274 0 0 1.5 0.0132984 0.0403642 
-1.02629 22.4513 -7.56361 0 0 1.5 0.0163635 0.0267363 
-1.27846 22.2319 -7.56448 0 0 1.5 0.0178369 0.021701 
-1.53063 22.0125 -7.56536 0 0 1.5 0.0192341 0.0174055 
-1.7828 21.7931 -7.56623 0 0 1.5 0.0216892 0.0100837 
-2.03497 21.5737 -7.5671 0 0 1.5 0.0226871 0.00640704 
-2.28713 21.3542 -7.56798 0 0 1.5 0.0234893 0.00254188 
-2.5393 21.1348 -7.56885 0 0 1.5 0.0240645 -0.0016403 
-2.79147 20.9154 -7.56972 0 0 1.5 0.0244149 -0.0126395 
-3.04364 20.696 -7.5706 0 0 1.5 0.0241341 -0.0203826 
-3.29581 20.4766 -7.57147 0 0 1.5 0.0235149 -0.0305192 
-3.54797 20.2572 -7.57234 0 0 1.5 0.0225357 -0.044546 
-3.80014 20.0378 -7.57322 0 0 1.5 0.0194532 -0.0961119 
-4.05231 19.8184 -7.57409 0 0 1.5 0.0173458 -0.146787 
-4.30448 19.599 -7.57496 0 0 1.5 0.0148866 -0.236511 
-4.55665 19.3796 -7.57584 0 0 1.5 0.0121593 -0.411929 
-4.80569 19.1569 -7.56978 0 0 1.5 0.00723702 -1.48046 
-5.05147 18.9307 -7.55645 0 0 1.5 0.00719987 -1.63653 
-5.29228 18.7001 -7.5338 0 0 1.5 0.00995641 -0.913119 
-5.53134 18.4679 -7.50807 0 0 1.5 0.0198016 -0.240998 
-5.76571 18.2319 -7.47495 0 0 1.5 0.0258402 -0.136167 
-5.99807 17.9943 -7.43932 0 0 1.5 0.0324064 -0.077911 
-6.22762 17.7545 -7.4002 0 0 1.5 0.0394366 -0.0423283 
-6.45438 17.5124 -7.35891 0 0 1.5 0.0547525 -0.00205056 
-6.67985 17.2693 -7.31662 0 0 1.5 0.0629751 0.0106334 
-6.90228 17.0234 -7.27474 0 0 1.5 0.0715249 0.0208383 
-7.12403 16.7766 -7.23414 0 0 1.5 0.0803639 0.029524 
-7.34412 16.5277 -7.19757 0 0 1.5 0.0987157 0.0436765 
-7.56358 16.2774 -7.16771 0 0 1.5 0.108093 0.0498583 
-7.78253 16.026 -7.14308 0 0 1.5 0.117494 0.0559007 
-8.00093 15.7731 -7.13776 0 0 1.5 0.135971 0.0670372 
-8.2188 15.5202 -7.14539 0 0 1.5 0.144813 0.072304 
-8.43585 15.2674 -7.17214 0 0 1.5 0.153216 0.0776658 
-8.64898 15.018 -7.23504 0 0 1.5 0.161042 0.0828652 
-8.85696 14.773 -7.32381 0 0 1.5 0.174437 0.0922964 
-9.05841 14.5335 -7.44044 0 0 1.5 0.179759 0.0968894 
-9.24421 14.3052 -7.59893 0 0 1.5 0.184027 0.101231 
-9.41551 14.0849 -7.78166 0 0 1.5 0.187179 0.105101 
-9.57406 13.8701 -7.98226 0 0 1.5 0.190027 0.11205 
-9.71403 13.6609 -8.20218 0 0 1.5 0.189751 0.115213 
-9.83606 13.4518 -8.43233 0 0 1.5 0.188429 0.118059 
-9.94703 13.2415 -8.66707 0 0 1.5 0.183085 0.12328 
-10.038 13.0259 -8.90571 0 0 1.5 0.179321 0.1259 
-10.1138 12.8034 -9.143 0 0 1.5 0.175035 0.128654 
-10.1792 12.5763 -9.37934 0 0 1.5 0.170392 0.13162 
-10.2184 12.3365 -9.60883 0 0 1.5 0.160691 0.13855 
-10.2476 12.0928 -9.83515 0 0 1.5 0.155984 0.142716 
-10.2557 11.8408 -10.0547 0 0 1.5 0.151622 0.147305 
-10.244 11.5845 -10.2682 0 0 1.5 0.147797 0.152195 
-10.2196 11.3254 -10.478 0 0 1.5 0.142631 0.162274 
-10.1641 11.0657 -10.6807 0 0 1.5 0.141801 0.166688 
-10.0991 10.807 -10.8817 0 0 1.5 0.142506 0.170002 
-10.0051 10.5536 -11.0784 0 0 1.5 0.145047 0.171753 
-9.89645 10.3058 -11.2737 0 0 1.5 0.156953 0.169408 
-9.76827 10.0653 -11.4674 0 0 1.5 0.167001 0.165499 
-9.61942 9.8365 -11.6595 0 0 1.5 0.18027 0.160278 
-9.45985 9.61367 -11.8508 0 0 1.5 0.218254 0.148156 
-9.27646 9.40771 -12.0394 0 0 1.5 0.244055 0.142499 
-9.08777 9.20563 -12.2271 0 0 1.5 0.275312 0.137656 
-8.87761 9.02026 -12.4093 0 0 1.5 0.312882 0.133835 
-8.66151 8.83911 -12.5883 0 0 1.5 0.410929 0.129966 
-8.43151 8.66782 -12.7601 0 0 1.5 0.473389 0.13009 
-8.19103 8.50143 -12.9215 0 0 1.5 0.545729 0.131534 
-7.94315 8.33851 -13.0755 0 0 1.5 0.627655 0.134083 
-7.67835 8.17721 -13.2003 0 0 1.5 0.809412 0.14092 
-7.40456 8.01337 -13.2964 0 0 1.5 0.896254 0.144052 
-7.12186 7.84554 -13.3404 0 0 1.5 0.966229 0.145712 
-6.84547 7.67733 -13.2844 0 0 1.5 1.00968 0.141604 
-6.62784 7.53571 -13.0881 0 0 1.5 0.973053 0.136015 
-6.50704 7.44829 -12.7951 0 0 1.5 0.90409 0.129031 
-6.45801 7.4065 -12.4695 0 0 1.5 0.814655 0.121819 
-6.4489 7.39285 -12.1362 0 0 1.5 0.620496 0.1111 
-6.46984 7.40305 -11.8028 0 0 1.5 0.531066 0.10895 
-6.50709 7.42896 -11.4719 0 0 1.5 0.451258 0.109575 
-6.55123 7.46161 -11.1422 0 0 1.5 0.381614 0.113425 
-6.60786 7.50941 -10.8163 0 0 1.5 0.27024 0.133518 
-6.66596 7.55957 -10.491 0 0 1.5 0.226333 0.15236 
-6.72909 7.61772 -10.168 0 0 1.5 0.188821 0.179962 
-6.7929 7.67754 -9.84537 0 0 1.5 0.129729 0.277205 
-6.85797 7.74045 -9.5236 0 0 1.5 0.107221 0.357825 
-6.92229 7.80251 -9.20151 0 0 1.5 0.0893821 0.463128 
-6.98572 7.8636 -8.87907 0 0 1.5 0.0767045 0.575723 
-7.04623 7.91864 -8.55502 0 0 1.5 0.0692315 0.618516 
-7.10479 7.96966 -8.22991 0 0 1.5 0.0739272 0.516397 
-7.15666 8.00438 -7.90165 0 0 1.5 0.0824974 0.398541 
-7.20569 8.0319 -7.57232 0 0 1.5 0.0935238 0.299823 
-7.24383 8.03062 -7.24024 0 0 1.5 0.119199 0.173055 
-7.27405 8.00779 -6.90896 0 0 1.5 0.132718 0.134736 
-7.29607 7.96272 -6.57849 0 0 1.5 0.146188 0.106227 
-7.29974 7.86792 -6.25816 0 0 1.5 0.159275 0.0841783 
-7.29336 7.74634 -5.94829 0 0 1.5 0.182985 0.0527346 
-7.27667 7.59735 -5.64954 0 0 1.5 0.192986 0.0409384 
-7.24299 7.40392 -5.3791 0 0 1.5 0.201328 0.0305773 
-7.20312 7.19429 -5.12291 0 0 1.5 0.211943 0.0132252 
-7.1561 6.96598 -4.88334 0 0 1.5 0.213885 0.00577008 
-7.10156 6.71721 -4.66727 0 0 1.5 0.213499 -0.00121979 
-7.0448 6.46213 -4.45911 0 0 1.5 0.210841 -0.00772192 
-6.98364 6.19372 -4.26952 0 0 1.5 0.199477 -0.0191404 
-6.92135 5.92079 -4.08715 0 0 1.5 0.191324 -0.0242276 
-6.85752 5.64167 -3.91469 0 0 1.5 0.18195 -0.0288702 
-6.79316 5.35814 -3.74992 0 0 1.5 0.171688 -0.0329755 
-6.72848 5.07192 -3.58984 0 0 1.5 0.149727 -0.0394401 
-6.6641 4.78188 -3.43673 0 0 1.5 0.138549 -0.0416854 
-6.59979 4.49084 -3.28544 0 0 1.5 0.127506 -0.0431662 
-6.53671 4.19643 -3.14028 0 0 1.5 0.106362 -0.042766 
-6.47393 3.9015 -2.99606 0 0 1.5 0.0964487 -0.0402333 
-6.41286 3.60408 -2.85627 0 0 1.5 0.0870363 -0.0356425 
-6.35263 3.30577 -2.71807 0 0 1.5 0.0781406 -0.0281118 
-6.29414 3.00562 -2.58309 0 0 1.5 0.0619201 0.00112527 
-6.23741 2.70386 -2.45103 0 0 1.5 0.0545783 0.0263309 
-6.18211 2.4008 -2.32132 0 0 1.5 0.0477339 0.0631686 
-6.12973 2.09521 -2.19645 0 0 1.5 0.041398 0.117643 
-6.07836 1.78877 -2.07324 0 0 1.5 0.0304698 0.312798 
-6.03053 1.47932 -1.95627 0 0 1.5 0.0261497 0.471194 
-5.98387 1.16883 -1.84168 0 0 1.5 0.0229741 0.656996 
-5.9394 0.8564 -1.73151 0 0 1.5 0.0213695 0.797296 
-5.89623 0.542464 -1.62522 0 0 1.5 0.023778 0.669882 
-5.85381 0.227663 -1.52115 0 0 1.5 0.0273759 0.503736 
-5.81122 -0.0884757 -1.4213 0 0 1.5 0.0320327 0.361906 
-5.76799 -0.404798 -1.32233 0 0 1.5 0.0433859 0.184563 
-5.72202 -0.721384 -1.22543 0 0 1.5 0.0497649 0.133739 
-5.67279 -1.03751 -1.1287 0 0 1.5 0.0564962 0.0981824 
-5.61957 -1.35308 -1.03219 0 0 1.5 0.0635197 0.0731339 
-5.55815 -1.66679 -0.93467 0 0 1.5 0.0782426 0.0428151 
-5.49329 -1.97972 -0.836721 0 0 1.5 0.0858458 0.0339116 
-5.413 -2.28824 -0.736291 0 0 1.5 0.0935406 0.0276576 
-5.32773 -2.59508 -0.635144 0 0 1.5 0.101267 0.0234224 
-5.22619 -2.89627 -0.531704 0 0 1.5 0.11653 0.0192697 
-5.11337 -3.19275 -0.427173 0 0 1.5 0.123907 0.0185946 
-4.98758 -3.48381 -0.321388 0 0 1.5 0.130995 0.0186359 
-4.84192 -3.7648 -0.214718 0 0 1.5 0.143909 0.0204474 
-4.68861 -4.04185 -0.107732 0 0 1.5 0.149542 0.021837 
-4.50741 -4.30162 -0.000877417 0 0 1.5 0.154509 0.0234999 
-4.31741 -4.55464 0.105613 0 0 1.5 0.158726 0.0254532 
-4.10805 -4.79281 0.2113 0 0 1.5 0.164656 0.02966 
-3.88253 -5.01547 0.316082 0 0 1.5 0.166301 0.0318014 
-3.64688 -5.2284 0.420298 0 0 1.5 0.167046 0.0340077 
-3.39009 -5.41546 0.523727 0 0 1.5 0.166899 0.0361969 
-3.12725 -5.59354 0.627234 0 0 1.5 0.16411 0.0402581 
-2.85004 -5.74867 0.731228 0 0 1.5 0.161589 0.0421615 
-2.56544 -5.88778 0.836625 0 0 1.5 0.158412 0.0439711 
-2.27435 -6.01277 0.943258 0 0 1.5 0.150461 0.0472092 
-1.97565 -6.11354 1.05378 0 0 1.5 0.145868 0.0486172 
-1.67481 -6.20621 1.16584 0 0 1.5 0.140978 0.0499271 
-1.36958 -6.27478 1.28358 0 0 1.5 0.135875 0.0511762 
-1.06378 -6.33413 1.40416 0 0 1.5 0.125328 0.0533522 
-0.757053 -6.37877 1.52929 0 0 1.5 0.120006 0.0543539 
-0.45091 -6.41026 1.65931 0 0 1.5 0.114718 0.0554628 
-0.145083 -6.4346 1.792 0 0 1.5 0.109505 0.0566466 
0.158733 -6.44406 1.93094 0 0 1.5 0.0994228 0.0592403 
0.46195 -6.45002 2.07139 0 0 1.5 0.0945917 0.0609206 
0.762871 -6.4448 2.21682 0 0 1.5 0.0899134 0.0629138 
1.06291 -6.4358 2.36377 0 0 1.5 0.0853927 0.0652272 
1.36148 -6.4205 2.51327 0 0 1.5 0.0768171 0.071709 
1.65902 -6.40044 2.6642 0 0 1.5 0.0727472 0.0762719 
1.9559 -6.37733 2.81604 0 0 1.5 0.0688132 0.0819012 
2.25203 -6.34895 2.96844 0 0 1.5 0.0613148 0.0976265 
2.54801 -6.31917 3.12088 0 0 1.5 0.0577247 0.108519 
2.84382 -6.28463 3.27264 0 0 1.5 0.0542292 0.122055 
3.13971 -6.24859 3.42387 0 0 1.5 0.0508243 0.138835 
3.43578 -6.20956 3.57405 0 0 1.5 0.0442747 0.185665 
3.73205 -6.16817 3.72314 0 0 1.5 0.0411435 0.218105 
4.02849 -6.1251 3.87147 0 0 1.5 0.0381348 0.258328 
4.32496 -6.07885 4.01875 0 0 1.5 0.0352825 0.307719 
4.62139 -6.03163 4.16582 0 0 1.5 0.0302819 0.437088 
4.91729 -5.98118 4.31288 0 0 1.5 0.0283163 0.51248 
5.21267 -5.92945 4.46052 0 0 1.5 0.0268721 0.583811 
5.50715 -5.87547 4.60917 0 0 1.5 0.0260945 0.654562 
5.80009 -5.8193 4.76002 0 0 1.5 0.0269591 0.631929 
6.09209 -5.76182 4.91219 0 0 1.5 0.028684 0.575715 
6.38097 -5.70142 5.06912 0 0 1.5 0.0312062 0.502473 
6.66882 -5.64028 5.22762 0 0 1.5 0.0382689 0.358822 
6.95279 -5.57682 5.39213 0 0 1.5 0.0426304 0.300301 
7.23481 -5.51281 5.55968 0 0 1.5 0.0474507 0.252228 
7.51364 -5.44789 5.73221 0 0 1.5 0.0526829 0.213476 
7.78921 -5.38348 5.91003 0 0 1.5 0.0642564 0.156655 
8.06277 -5.31939 6.09109 0 0 1.5 0.0705432 0.135895 
8.33205 -5.25878 6.27958 0 0 1.5 0.0771357 0.118953 
8.60022 -5.1995 6.47007 0 0 1.5 0.0911615 0.0931217 
8.86436 -5.14787 6.6683 0 0 1.5 0.0985422 0.0831591 
9.12726 -5.1007 6.86912 0 0 1.5 0.106126 0.0747078 
9.3876 -5.06283 7.07532 0 0 1.5 0.113874 0.0674493 
9.64585 -5.03644 7.28562 0 0 1.5 0.129658 0.0555919 
9.90255 -5.01853 7.49896 0 0 1.5 0.13756 0.0507046 
10.1554 -5.02289 7.71728 0 0 1.5 0.145361 0.046371 
10.4067 -5.03583 7.93709 0 0 1.5 0.152971 0.0425037 
10.652 -5.07643 8.16042 0 0 1.5 0.167186 0.0358424 
10.8927 -5.13386 8.38439 0 0 1.5 0.173551 0.0329688 
11.1277 -5.2111 8.60913 0 0 1.5 0.179268 0.0303813 
11.3511 -5.31886 8.83257 0 0 1.5 0.184222 0.0280241 
11.5689 -5.43975 9.05501 0 0 1.5 0.191412 0.0238812 
11.7703 -5.59295 9.27341 0 0 1.5 0.193482 0.0221163 
11.9608 -5.76284 9.48823 0 0 1.5 0.19447 0.0205248 
12.1396 -5.95053 9.69922 0 0 1.5 0.193122 0.0177911 
12.2982 -6.16269 9.90249 0 0 1.5 0.190824 0.0166585 
12.4489 -6.38364 10.1026 0 0 1.5 0.187516 0.0156668 
12.5774 -6.62632 10.2932 0 0 1.5 0.183275 0.0148046 
12.6952 -6.87751 10.4788 0 0 1.5 0.17238 0.0134803 
12.7986 -7.14021 10.6578 0 0 1.5 0.165966 0.0130117 
12.8858 -7.41378 10.8284 0 0 1.5 0.159067 0.0126656 
12.9659 -7.69199 10.9954 0 0 1.5 0.151793 0.0124338 
13.0266 -7.98143 11.1511 0 0 1.5 0.136555 0.0122852 
13.083 -8.2731 11.3041 0 0 1.5 0.128779 0.0123699 
13.1257 -8.57167 11.4482 0 0 1.5 0.121 0.0125601 
13.1626 -8.87302 11.5877 0 0 1.5 0.105686 0.013254 
13.1918 -9.17794 11.7215 0 0 1.5 0.0982493 0.0137687 
13.2142 -9.48604 11.849 0 0 1.5 0.0910087 0.0144122 
13.2331 -9.79571 11.9734 0 0 1.5 0.0839907 0.0152033 
13.245 -10.1087 12.0902 0 0 1.5 0.0707038 0.0172859 
13.2554 -10.4224 12.205 0 0 1.5 0.0644657 0.0186473 
13.2605 -10.7386 12.3131 0 0 1.5 0.0585086 0.0203196 
13.2638 -11.0558 12.4184 0 0 1.5 0.0528384 0.022361 
13.264 -11.3745 12.5192 0 0 1.5 0.042389 0.0278993 
13.2642 -11.6933 12.6199 0 0 1.5 0.0376206 0.0317554 
13.2644 -12.012 12.7207 0 0 1.5 0.0331634 0.0366233 
13.2646 -12.3307 12.8214 0 0 1.5 0.0290283 0.0427645 
13.2648 -12.6494 12.9222 0 0 1.5 0.0217814 0.0607246 
13.2651 -12.9681 13.0229 0 0 1.5 0.0187054 0.0735974 
13.2653 -13.2868 13.1237 0 0 1.5 0.0160324 0.0893672 
13.2655 -13.6055 13.2244 0 0 1.5 0.0120399 0.125964 
13.2657 -13.9242 13.3252 0 0 1.5 0.0107771 0.14021 
13.2659 -14.243 13.4259 0 0 1.5 0.010002 0.144977 
13.2661 -14.5617 13.5267 0 0 1.5 0.00965296 0.138547 
13.2663 -14.8804 13.6274 0 0 1.5 0.00978691 0.106997 
13.2665 -15.1991 13.7282 0 0 1.5 0.0100407 0.0904738 
13.2668 -15.5178 13.829 0 0 1.5 0.010302 0.07647 
13.267 -15.8365 13.9297 0 0 1.5 0.0105166 0.065384 
13.2672 -16.1552 14.0305 0 0 1.5 0.0106922 0.0502308 
13.2674 -16.4739 14.1312 0 0 1.5 0.0106301 0.0452727 
13.2676 -16.7927 14.232 0 0 1.5 0.010466 0.0416782 
13.2678 -17.1114 14.3327 0 0 1.5 0.00985724 0.0374342 
13.268 -17.4301 14.4335 0 0 1.5 0.00943328 0.0364811 
13.2682 -17.7488 14.5342 0 0 1.5 0.00894471 0.0363081 
13.2685 -18.0675 14.635 0 0 1.5 0.00840415 0.0368588 
13.2687 -18.3862 14.7357 0 0 1.5 0.00722275 0.0400786 
13.2689 -18.7049 14.8365 0 0 1.5 0.00660764 0.0430057 
13.2691 -19.0236 14.9372 0 0 1.5 0.00599199 0.0469887 
13.2693 -19.3423 15.038 0 0 1.5 0.00538832 0.0521349 
13.2695 -19.6611 15.1387 0 0 1.5 0.00426512 0.0670887 
13.2697 -19.9798 15.2395 0 0 1.5 0.00376792 0.0772805 
13.2699 -20.2985 15.3402 0 0 1.5 0.00332966 0.0887994 
13.2701 -20.6172 15.441 0 0 1.5 0.00267209 0.111102 
13.2704 -20.9359 15.5417 0 0 1.5 0.002465 0.117325 
13.2706 -21.2546 15.6425 0 0 1.5 0.00233793 0.116986 
13.2708 -21.5733 15.7433 0 0 1.5 0.00227984 0.110289 
13.271 -21.892 15.844 0 0 1.5 0.00230005 0.0874253 
13.2712 -22.2108 15.9448 0 0 1.5 0.00234265 0.0755769 
13.2714 -22.5295 16.0455 0 0 1.5 0.00238761 0.065237 
13.2716 -22.8482 16.1463 0 0 1.5 0.00242547 0.0568151 
13.2718 -23.1669 16.247 0 0 1.5 0.00245845 0.0447215 
13.2721 -23.4856 16.3478 0 0 1.5 0.00244831 0.0405671 
13.2723 -23.8043 16.4485 0 0 1.5 0.00241953 0.0374915 
13.2725 -24.123 16.5493 0 0 1.5 0.00237285 0.0352562 
13.2727 -24.4417 16.65 0 0 1.5 0.00223185 0.0326984 
13.2729 -24.7605 16.7508 0 0 1.5 0.00214131 0.032373 
13.2731 -25.0792 16.8515 0 0 1.5 0.00204037 0.0326192 
13.2733 -25.3979 16.9523 0 0 1.5 0.00181737 0.0346575 
13.2735 -25.7166 17.053 0 0 1.5 0.00170005 0.0365562 
13.2738 -26.0353 17.1538 0 0 1.5 0.0015818 0.0390686 
13.274 -26.354 17.2545 0 0 1.5 0.00146495 0.0421619 
13.2742 -26.6727 17.3553 0 0 1.5 0.00124441 0.0503072 
13.2744 -26.9914 17.456 0 0 1.5 0.00114468 0.055266 
13.2746 -27.3102 17.5568 0 0 1.5 0.00105466 0.0604057 
13.2748 -27.6289 17.6576 0 0 1.5 0.000976142 0.0653287 
13.275 -27.9476 17.7583 0 0 1.5 0.000857519 0.0724504 
13.2752 -28.2663 17.8591 0 0 1.5 0.000818217 0 
13.2754 -28.585 17.9598 0 0 1.5 0.000791729 0 
13.2757 -28.9037 18.0606 0 0 1.5 0.00077095 0 
13.2759 -29.2224 18.1613 0 0 1.5 0.000772822 0 
13.2761 -29.5411 18.2621 0 0 1.5 0.000780264 0 
13.2763 -29.8599 18.3628 0 0 1.5 0.000791453 0 
13.2765 -30.1786 18.4636 0 0 1.5 0.000819646 0 
13.2767 -30.4973 18.5643 0 0 1.5 0.000834841 0 
13.2769 -30.816 18.6651 0 0 1.5 0.00084998 0 
13.2771 -31.1347 18.7658 0 0 1.5 0.000864753 0.0209262 
13.2774 -31.4534 18.8666 0 0 1.5 0.0008929 0.0163259 
13.2776 -31.7721 18.9673 0 0 1.5 0.000906379 0.0147767 
13.2778 -32.0908 19.0681 0 0 1.5 0.000919639 0.0136639 
0 1 0 
1 2 0 
2 3 0 
3 4 0 
4 5 0 
5 6 0 
6 7 0 
7 8 0 
8 9 0 
9 10 0 
10 11 0 
11 12 0 
12 13 0 
13 14 0 
14 15 0 
15 16 0 
16 17 0 
17 18 0 
18 19 0 
19 20 0 
20 21 0 
21 22 0 
22 23 0 
23 24 0 
24 25 0 
25 26 0 
26 27 0 
27 28 0 
28 29 0 
29 30 0 
30 31 0 
31 32 0 
32 33 0 
33 34 0 
34 35 0 
35 36 0 
36 37 0 
37 38 0 
38 39 0 
39 40 0 
40 41 0 
41 42 0 
42 43 0 
43 44 0 
44 45 0 
45 46 0 
46 47 0 
47 48 0 
48 49 0 
49 50 0 
50 51 0 
51 52 0 
52 53 0 
53 54 0 
54 55 0 
55 56 0 
56 57 0 
57 58 0 
58 59 0 
59 60 0 
60 61 0 
61 62 0 
62 63 0 
63 64 0 
64 65 0 
65 66 0 
66 67 0 
67 68 0 
68 69 0 
69 70 0 
70 71 0 
71 72 0 
72 73 0 
73 74 0 
74 75 0 
75 76 0 
76 77 0 
77 78 0 
78 79 0 
79 80 0 
80 81 0 
81 82 0 
82 83 0 
83 84 0 
84 85 0 
85 86 0 
86 87 0 
87 88 0 
88 89 0 
89 90 0 
90 91 0 
91 92 0 
92 93 0 
93 94 0 
94 95 0 
95 96 0 
96 97 0 
97 98 0 
98 99 0 
99 100 0 
100 101 0 
101 102 0 
102 103 0 
103 104 0 
104 105 0 
105 106 0 
106 107 0 
107 108 0 
108 109 0 
109 110 0 
110 111 0 
111 112 0 
112 113 0 
113 114 0 
114 115 0 
115 116 0 
116 117 0 
117 118 0 
118 119 0 
119 120 0 
120 121 0 
121 122 0 
122 123 0 
123 124 0 
124 125 0 
125 126 0 
126 127 0 
127 128 0 
128 129 0 
129 130 0 
130 131 0 
131 132 0 
132 133 0 
133 134 0 
134 135 0 
135 136 0 
136 137 0 
137 138 0 
138 139 0 
139 140 0 
140 141 0 
141 142 0 
142 143 0 
143 144 0 
144 145 0 
145 146 0 
146 147 0 
147 148 0 
148 149 0 
149 150 0 
150 151 0 
151 152 0 
152 153 0 
153 154 0 
154 155 0 
155 156 0 
156 157 0 
157 158 0 
158 159 0 
159 160 0 
160 161 0 
161 162 0 
162 163 0 
163 164 0 
164 165 0 
165 166 0 
166 167 0 
167 168 0 
168 169 0 
169 170 0 
170 171 0 
171 172 0 
172 173 0 
173 174 0 
174 175 0 
175 176 0 
176 177 0 
177 178 0 
178 179 0 
179 180 0 
180 181 0 
181 182 0 
182 183 0 
183 184 0 
184 185 0 
185 186 0 
186 187 0 
187 188 0 
188 189 0 
189 190 0 
190 191 0 
191 192 0 
192 193 0 
193 194 0 
194 195 0 
195 196 0 
196 197 0 
197 198 0 
198 199 0 
199 200 0 
200 201 0 
201 202 0 
202 203 0 
203 204 0 
204 205 0 
205 206 0 
206 207 0 
207 208 0 
208 209 0 
209 210 0 
210 211 0 
211 212 0 
212 213 0 
213 214 0 
214 215 0 
215 216 0 
216 217 0 
217 218 0 
218 219 0 
219 220 0 
220 221 0 
221 222 0 
222 223 0 
223 224 0 
224 225 0 
225 226 0 
226 227 0 
227 228 0 
228 229 0 
229 230 0 
230 231 0 
231 232 0 
232 233 0 
233 234 0 
234 235 0 
235 236 0 
236 237 0 
237 238 0 
238 239 0 
239 240 0 
240 241 0 
241 242 0 
242 243 0 
243 244 0 
244 245 0 
245 246 0 
246 247 0 
247 248 0 
248 249 0 
249 250 0 
250 251 0 
251 252 0 
252 253 0 
253 254 0 
254 255 0 
255 256 0 
256 257 0 
257 258 0 
258 259 0 
259 260 0 
260 261 0 
261 262 0 
262 263 0 
263 264 0 
264 265 0 
265 266 0 
266 267 0 
267 268 0 
268 269 0 
269 270 0 
270 271 0 
271 272 0 
272 273 0 
273 274 0 
274 275 0 
275 276 0 
276 277 0 
277 278 0 
278 279 0 
279 280 0 
280 281 0 
281 282 0 
282 283 0 
283 284 0 
284 285 0 
285 286 0 
286 287 0 
287 288 0 
288 289 0 
289 290 0 
290 291 0 
291 292 0 
292 293 0 
293 294 0 
294 295 0 
295 296 0 
296 297 0 
297 298 0 
298 299 0 
-1 -1 0 
-1 300 0 1 2 3 4 5 6 7 8 9 10 11 12 13 14 15 16 17 18 19 20 21 22 23 24 25 26 27 28 29 30 31 32 33 34 35 36 37 38 39 40 41 42 43 44 45 46 47 48 49 50 51 52 53 54 55 56 57 58 59 60 61 62 63 64 65 66 67 68 69 70 71 72 73 74 75 76 77 78 79 80 81 82 83 84 85 86 87 88 89 90 91 92 93 94 95 96 97 98 99 100 101 102 103 104 105 106 107 108 109 110 111 112 113 114 115 116 117 118 119 120 121 122 123 124 125 126 127 128 129 130 131 132 133 134 135 136 137 138 139 140 141 142 143 144 145 146 147 148 149 150 151 152 153 154 155 156 157 158 159 160 161 162 163 164 165 166 167 168 169 170 171 172 173 174 175 176 177 178 179 180 181 182 183 184 185 186 187 188 189 190 191 192 193 194 195 196 197 198 199 200 201 202 203 204 205 206 207 208 209 210 211 212 213 214 215 216 217 218 219 220 221 222 223 224 225 226 227 228 229 230 231 232 233 234 235 236 237 238 239 240 241 242 243 244 245 246 247 248 249 250 251 252 253 254 255 256 257 258 259 260 261 262 263 264 265 266 267 268 269 270 271 272 273 274 275 276 277 278 279 280 281 282 283 284 285 286 287 288 289 290 291 292 293 294 295 296 297 298 299 
