ply
format ascii 1.0
comment written by koba@oshima.lab
element vertex 300
property float x
property float y
property float z
property int label
property int attribute
property float radius
property float curvature
property float torsion
element edge 300
property int vertex1
property int vertex2
property int label
element vertex_seq 1
property int label
property list int int vertex_indices
end_header
-3.21244 30.5175 -2.75275 0 0 1.5 0.0417435 0.0483826 
-3.27389 30.1773 -2.90421 0 0 1.5 0.0400323 0.0519014 
-3.33534 29.8371 -3.05566 0 0 1.5 0.0383354 0.0565329 
-3.39679 29.4969 -3.20711 0 0 1.5 0.0366388 0.062537 
-3.45823 29.1567 -3.35857 0 0 1.5 0.0331989 0.0800866 
-3.51968 28.8165 -3.51002 0 0 1.5 0.0314342 0.0926053 
-3.58113 28.4763 -3.66148 0 0 1.5 0.0296284 0.108692 
-3.64258 28.136 -3.81293 0 0 1.5 0.0277776 0.129595 
-3.70402 27.7958 -3.96439 0 0 1.5 0.0239545 0.192423 
-3.76547 27.4556 -4.11584 0 0 1.5 0.022011 0.239895 
-3.82692 27.1154 -4.26729 0 0 1.5 0.0200919 0.303667 
-3.88837 26.7752 -4.41875 0 0 1.5 0.0182658 0.387585 
-3.94981 26.435 -4.5702 0 0 1.5 0.0153994 0.606759 
-4.01126 26.0948 -4.72166 0 0 1.5 0.0147486 0.700154 
-4.07271 25.7546 -4.87311 0 0 1.5 0.0149147 0.726047 
-4.13416 25.4144 -5.02457 0 0 1.5 0.0180239 0.563436 
-4.1956 25.0742 -5.17602 0 0 1.5 0.0208021 0.453853 
-4.25705 24.7339 -5.32747 0 0 1.5 0.0242071 0.361463 
-4.3185 24.3937 -5.47893 0 0 1.5 0.0281091 0.290548 
-4.37995 24.0535 -5.63038 0 0 1.5 0.037038 0.200948 
-4.44139 23.7133 -5.78184 0 0 1.5 0.041941 0.173571 
-4.50284 23.3731 -5.93329 0 0 1.5 0.0470642 0.153447 
-4.56429 23.0329 -6.08475 0 0 1.5 0.0523552 0.138887 
-4.62574 22.6927 -6.2362 0 0 1.5 0.0632393 0.121607 
-4.68718 22.3525 -6.38765 0 0 1.5 0.0687129 0.117053 
-4.74863 22.0123 -6.53911 0 0 1.5 0.0741104 0.114766 
-4.81008 21.672 -6.69056 0 0 1.5 0.0843527 0.116136 
-4.87153 21.3318 -6.84202 0 0 1.5 0.0890214 0.119011 
-4.93297 20.9916 -6.99347 0 0 1.5 0.0932609 0.123488 
-4.99442 20.6514 -7.14493 0 0 1.5 0.0969715 0.129875 
-5.05587 20.3112 -7.29638 0 0 1.5 0.102445 0.147837 
-5.11732 19.971 -7.44783 0 0 1.5 0.104067 0.159873 
-5.17876 19.6308 -7.59929 0 0 1.5 0.10487 0.174843 
-5.24021 19.2906 -7.75074 0 0 1.5 0.104824 0.192877 
-5.32365 18.9317 -7.80582 0 0 1.5 0.10231 0.239329 
-5.41884 18.568 -7.81114 0 0 1.5 0.0999726 0.269923 
-5.53152 18.2133 -7.74825 0 0 1.5 0.0970567 0.306244 
-5.65244 17.8658 -7.66757 0 0 1.5 0.0937483 0.348161 
-5.78407 17.5277 -7.56374 0 0 1.5 0.086881 0.44924 
-5.92664 17.1967 -7.45238 0 0 1.5 0.0838745 0.504867 
-6.07901 16.8722 -7.3343 0 0 1.5 0.0816002 0.556746 
-6.24388 16.5534 -7.21838 0 0 1.5 0.0805173 0.621034 
-6.42023 16.2397 -7.10444 0 0 1.5 0.0821347 0.622787 
-6.61003 15.9311 -6.99999 0 0 1.5 0.085291 0.603596 
-6.81356 15.6277 -6.90525 0 0 1.5 0.0898909 0.569195 
-7.03234 15.3308 -6.82852 0 0 1.5 0.102508 0.484367 
-7.26474 15.0397 -6.76787 0 0 1.5 0.109978 0.443829 
-7.51579 14.7604 -6.74248 0 0 1.5 0.117853 0.407992 
-7.77568 14.487 -6.73475 0 0 1.5 0.125848 0.377848 
-8.05302 14.2386 -6.79641 0 0 1.5 0.141216 0.331677 
-8.32822 14.01 -6.90679 0 0 1.5 0.148213 0.313747 
-8.59338 13.8073 -7.0775 0 0 1.5 0.154516 0.298603 
-8.83036 13.6372 -7.31701 0 0 1.5 0.164506 0.273361 
-9.00808 13.4979 -7.61928 0 0 1.5 0.16805 0.261998 
-9.14019 13.3625 -7.94459 0 0 1.5 0.170567 0.251175 
-9.23635 13.2165 -8.2781 0 0 1.5 0.172044 0.240716 
-9.30516 13.0501 -8.6092 0 0 1.5 0.172066 0.220029 
-9.35191 12.8437 -8.92173 0 0 1.5 0.170748 0.209663 
-9.39044 12.595 -9.2015 0 0 1.5 0.168655 0.199624 
-9.42625 12.3185 -9.45384 0 0 1.5 0.165892 0.1902 
-9.46123 12.013 -9.67265 0 0 1.5 0.158806 0.172979 
-9.49669 11.6837 -9.85254 0 0 1.5 0.154708 0.165622 
-9.53156 11.3468 -10.0184 0 0 1.5 0.150406 0.159657 
-9.56354 10.9979 -10.1588 0 0 1.5 0.141712 0.151365 
-9.59 10.6464 -10.2934 0 0 1.5 0.137579 0.149098 
-9.61001 10.2918 -10.4213 0 0 1.5 0.133776 0.148285 
-9.61367 9.93833 -10.553 0 0 1.5 0.130458 0.148734 
-9.60984 9.5853 -10.6865 0 0 1.5 0.125945 0.152438 
-9.57118 9.24208 -10.8382 0 0 1.5 0.125149 0.154913 
-9.52003 8.90409 -10.9964 0 0 1.5 0.125628 0.157163 
-9.4283 8.58494 -11.1758 0 0 1.5 0.127617 0.158744 
-9.31083 8.28223 -11.3653 0 0 1.5 0.137112 0.157378 
-9.16561 7.99724 -11.5657 0 0 1.5 0.145117 0.154105 
-8.98486 7.73882 -11.7715 0 0 1.5 0.155621 0.149577 
-8.79257 7.48904 -11.9791 0 0 1.5 0.168874 0.14401 
-8.56442 7.2642 -12.1786 0 0 1.5 0.20472 0.131175 
-8.33145 7.04159 -12.3747 0 0 1.5 0.227889 0.124914 
-8.07413 6.82863 -12.5504 0 0 1.5 0.254943 0.119063 
-7.81069 6.61491 -12.7146 0 0 1.5 0.321524 0.108614 
-7.53216 6.3993 -12.8503 0 0 1.5 0.360961 0.103893 
-7.24713 6.17749 -12.9551 0 0 1.5 0.403774 0.0993957 
-6.95564 5.9495 -13.0294 0 0 1.5 0.448624 0.0949407 
-6.66593 5.70987 -13.03 0 0 1.5 0.534295 0.084636 
-6.38602 5.46764 -12.9802 0 0 1.5 0.567658 0.0784717 
-6.1265 5.22479 -12.8532 0 0 1.5 0.589167 0.0718265 
-5.92569 5.00766 -12.6216 0 0 1.5 0.595592 0.0646432 
-5.77468 4.82298 -12.3361 0 0 1.5 0.560306 0.049646 
-5.66837 4.67026 -12.0093 0 0 1.5 0.522843 0.0429692 
-5.62483 4.5728 -11.6473 0 0 1.5 0.477423 0.0372255 
-5.60934 4.50675 -11.2779 0 0 1.5 0.378488 0.0291657 
-5.6159 4.46537 -10.9028 0 0 1.5 0.330745 0.0273252 
-5.64972 4.46364 -10.5274 0 0 1.5 0.286354 0.0270072 
-5.68914 4.47106 -10.1522 0 0 1.5 0.24592 0.0283291 
-5.74337 4.50779 -9.78053 0 0 1.5 0.176969 0.037482 
-5.79965 4.55097 -9.40996 0 0 1.5 0.147896 0.0471226 
-5.86052 4.60857 -9.04195 0 0 1.5 0.121889 0.0628103 
-5.92108 4.67062 -8.67463 0 0 1.5 0.0985408 0.0889133 
-5.98134 4.73702 -8.308 0 0 1.5 0.0586081 0.224113 
-6.0371 4.80203 -7.94043 0 0 1.5 0.0419396 0.418649 
-6.09117 4.86653 -7.5725 0 0 1.5 0.028574 0.864964 
-6.13473 4.92129 -7.20161 0 0 1.5 0.0268686 0.890267 
-6.17447 4.97215 -6.82985 0 0 1.5 0.0381847 0.41225 
-6.20314 5.01163 -6.45558 0 0 1.5 0.0518397 0.203855 
-6.22258 5.04173 -6.08007 0 0 1.5 0.0664369 0.108578 
-6.23309 5.06278 -5.70337 0 0 1.5 0.0971601 0.0274407 
-6.22722 5.06639 -5.32624 0 0 1.5 0.113096 0.00691023 
-6.21614 5.06445 -4.94897 0 0 1.5 0.129342 -0.00785272 
-6.18055 5.0325 -4.57458 0 0 1.5 0.145803 -0.019522 
-6.13847 4.99053 -4.20245 0 0 1.5 0.178604 -0.0384418 
-6.0768 4.91824 -3.83717 0 0 1.5 0.194369 -0.046252 
-6.00248 4.81922 -3.48189 0 0 1.5 0.209196 -0.053379 
-5.91646 4.69544 -3.13586 0 0 1.5 0.222593 -0.0600415 
-5.81597 4.52323 -2.8165 0 0 1.5 0.24304 -0.0708661 
-5.71148 4.33223 -2.50925 0 0 1.5 0.249198 -0.0745951 
-5.60181 4.09124 -2.24027 0 0 1.5 0.25221 -0.0770948 
-5.49536 3.82833 -1.99369 0 0 1.5 0.248466 -0.077928 
-5.39282 3.53876 -1.7744 0 0 1.5 0.242041 -0.0760253 
-5.30318 3.22405 -1.58829 0 0 1.5 0.233049 -0.072459 
-5.21859 2.8995 -1.41518 0 0 1.5 0.221961 -0.0674188 
-5.15687 2.55424 -1.27634 0 0 1.5 0.195569 -0.0531623 
-5.09906 2.20637 -1.1422 0 0 1.5 0.181218 -0.0434523 
-5.06691 1.84672 -1.03234 0 0 1.5 0.166618 -0.0320506 
-5.03976 1.48597 -0.925452 0 0 1.5 0.15207 -0.0189622 
-5.03553 1.12026 -0.832208 0 0 1.5 0.123964 0.015781 
-5.03778 0.754136 -0.741293 0 0 1.5 0.11068 0.0394053 
-5.05903 0.386804 -0.65719 0 0 1.5 0.0980209 0.0687801 
-5.08674 0.0197372 -0.574382 0 0 1.5 0.0748491 0.158801 
-5.12841 -0.346758 -0.494366 0 0 1.5 0.0645318 0.229995 
-5.17492 -0.712717 -0.414815 0 0 1.5 0.0552917 0.327692 
-5.22949 -1.07778 -0.336037 0 0 1.5 0.047465 0.456794 
-5.28544 -1.44265 -0.257333 0 0 1.5 0.0383724 0.714327 
-5.34315 -1.80728 -0.178726 0 0 1.5 0.0383234 0.716447 
-5.39642 -2.17259 -0.100312 0 0 1.5 0.0413706 0.612848 
-5.44564 -2.53853 -0.0220758 0 0 1.5 0.0468782 0.474945 
-5.48106 -2.90611 0.0552384 0 0 1.5 0.062426 0.265981 
-5.50857 -3.27463 0.132022 0 0 1.5 0.071493 0.203111 
-5.50781 -3.64437 0.206434 0 0 1.5 0.0810368 0.15917 
-5.49964 -4.01443 0.280223 0 0 1.5 0.0908783 0.128293 
-5.44324 -4.38114 0.34949 0 0 1.5 0.110953 0.0906452 
-5.3731 -4.74489 0.417452 0 0 1.5 0.120955 0.0794054 
-5.26093 -5.09954 0.48142 0 0 1.5 0.130775 0.0713085 
-5.12118 -5.4434 0.543274 0 0 1.5 0.149431 0.0611699 
-4.95437 -5.77665 0.603053 0 0 1.5 0.158033 0.0582601 
-4.75355 -6.08984 0.662205 0 0 1.5 0.165989 0.056221 
-4.5409 -6.39605 0.721138 0 0 1.5 0.173205 0.0546621 
-4.29674 -6.67672 0.783929 0 0 1.5 0.185082 0.0524871 
-4.04887 -6.95403 0.847558 0 0 1.5 0.18962 0.0515796 
-3.77909 -7.20775 0.920403 0 0 1.5 0.193191 0.0505366 
-3.50717 -7.45832 0.995306 0 0 1.5 0.195803 0.0492847 
-3.22176 -7.68914 1.08318 0 0 1.5 0.198267 0.0459145 
-2.93404 -7.91515 1.17496 0 0 1.5 0.198212 0.0437005 
-2.63726 -8.1223 1.28204 0 0 1.5 0.197378 0.041076 
-2.33764 -8.32117 1.39541 0 0 1.5 0.19362 0.0345667 
-2.03103 -8.49965 1.52421 0 0 1.5 0.190826 0.0308496 
-1.72029 -8.66197 1.66227 0 0 1.5 0.187504 0.0268143 
-1.40397 -8.80242 1.81284 0 0 1.5 0.183705 0.022421 
-1.08218 -8.9117 1.97499 0 0 1.5 0.174837 0.0131723 
-0.75714 -9.00241 2.14404 0 0 1.5 0.169846 0.00841546 
-0.427846 -9.04096 2.32343 0 0 1.5 0.164523 0.00349002 
-0.0982817 -9.06208 2.50472 0 0 1.5 0.158888 -0.00148735 
0.230139 -9.03473 2.68871 0 0 1.5 0.1468 -0.0113202 
0.55549 -8.98378 2.87138 0 0 1.5 0.140397 -0.0163466 
0.877387 -8.90627 3.05258 0 0 1.5 0.133783 -0.0214419 
1.1935 -8.80304 3.23032 0 0 1.5 0.120035 -0.0318132 
1.50732 -8.68959 3.40668 0 0 1.5 0.112956 -0.037324 
1.81506 -8.5562 3.57964 0 0 1.5 0.105769 -0.0431671 
2.12195 -8.42017 3.75216 0 0 1.5 0.0985006 -0.0494227 
2.42489 -8.27346 3.92293 0 0 1.5 0.0838135 -0.0640482 
2.72752 -8.12599 4.09357 0 0 1.5 0.0764344 -0.073173 
3.02868 -7.97475 4.26353 0 0 1.5 0.0690551 -0.0843792 
3.32984 -7.8231 4.43313 0 0 1.5 0.0616934 -0.098662 
3.63099 -7.6704 4.6018 0 0 1.5 0.0470983 -0.14455 
3.93263 -7.5173 4.76921 0 0 1.5 0.0399063 -0.185371 
4.23502 -7.36358 4.93471 0 0 1.5 0.0328265 -0.25246 
4.53853 -7.2089 5.09721 0 0 1.5 0.0259243 -0.374641 
4.84305 -7.05334 5.25697 0 0 1.5 0.0135037 -1.22998 
5.14942 -6.89627 5.41158 0 0 1.5 0.00970137 -2.3166 
5.45674 -6.7384 5.56354 0 0 1.5 0.0103439 -2.02935 
5.76688 -6.57961 5.70862 0 0 1.5 0.0205683 -0.548421 
6.0777 -6.42059 5.85199 0 0 1.5 0.0268043 -0.344469 
6.39253 -6.26314 5.98817 0 0 1.5 0.0331516 -0.244034 
6.708 -6.10627 6.12353 0 0 1.5 0.0394815 -0.18817 
7.02812 -5.95518 6.2545 0 0 1.5 0.0518535 -0.131099 
7.34934 -5.80645 6.38537 0 0 1.5 0.0578207 -0.115271 
7.67477 -5.66668 6.51582 0 0 1.5 0.063605 -0.103546 
8.00188 -5.53272 6.64788 0 0 1.5 0.0691872 -0.0943186 
8.33223 -5.41004 6.78305 0 0 1.5 0.0796866 -0.0803695 
8.66417 -5.29812 6.92305 0 0 1.5 0.084585 -0.0747596 
8.99781 -5.19786 7.06827 0 0 1.5 0.0892491 -0.0696679 
9.3316 -5.11504 7.22305 0 0 1.5 0.0979105 -0.0603533 
9.66546 -5.04221 7.38331 0 0 1.5 0.101942 -0.0559932 
9.99615 -4.99456 7.55832 0 0 1.5 0.105812 -0.0518217 
10.3261 -4.95292 7.73683 0 0 1.5 0.10956 -0.0477363 
10.6479 -4.9441 7.93389 0 0 1.5 0.116857 -0.0396291 
10.9676 -4.94118 8.13394 0 0 1.5 0.120498 -0.0356975 
11.2779 -4.96518 8.34747 0 0 1.5 0.124197 -0.031808 
11.5841 -4.99948 8.56477 0 0 1.5 0.127999 -0.0279203 
11.8824 -5.05412 8.78948 0 0 1.5 0.136081 -0.0204975 
12.1758 -5.12189 9.01656 0 0 1.5 0.140428 -0.0170166 
12.4637 -5.20426 9.24628 0 0 1.5 0.145003 -0.0136561 
12.747 -5.30164 9.47559 0 0 1.5 0.154823 -0.00756423 
13.0268 -5.40989 9.7046 0 0 1.5 0.160008 -0.00487134 
13.3019 -5.53523 9.93012 0 0 1.5 0.165302 -0.00238058 
13.5748 -5.66922 10.1539 0 0 1.5 0.170619 -0.000136048 
13.8408 -5.82345 10.3723 0 0 1.5 0.180866 0.00352627 
14.1045 -5.98469 10.589 0 0 1.5 0.185511 0.00500384 
14.355 -6.1716 10.8001 0 0 1.5 0.189619 0.00620067 
14.6031 -6.36334 11.0103 0 0 1.5 0.193022 0.00706095 
14.824 -6.58879 11.2172 0 0 1.5 0.197047 0.00785722 
15.0356 -6.8219 11.4241 0 0 1.5 0.19737 0.00771779 
15.2118 -7.08365 11.6312 0 0 1.5 0.196435 0.00708361 
15.3574 -7.36091 11.839 0 0 1.5 0.194196 0.00594126 
15.471 -7.65444 12.0473 0 0 1.5 0.185821 0.00192732 
15.5233 -7.96487 12.2535 0 0 1.5 0.179821 -0.0012197 
15.5508 -8.28002 12.4576 0 0 1.5 0.172781 -0.00530269 
15.52 -8.60099 12.6538 0 0 1.5 0.156192 -0.0170695 
15.4639 -8.92161 12.8428 0 0 1.5 0.146989 -0.0253623 
15.3788 -9.24185 13.0235 0 0 1.5 0.137424 -0.0358674 
15.2706 -9.56165 13.1913 0 0 1.5 0.127659 -0.0492674 
15.1518 -9.88123 13.3532 0 0 1.5 0.108154 -0.0875443 
15.0206 -10.2041 13.4978 0 0 1.5 0.0987316 -0.114708 
14.8872 -10.5276 13.6393 0 0 1.5 0.0897398 -0.149462 
14.7553 -10.8597 13.7608 0 0 1.5 0.0813517 -0.193054 
14.6243 -11.1928 13.8803 0 0 1.5 0.0672266 -0.307187 
14.5065 -11.5367 13.9818 0 0 1.5 0.0620179 -0.371507 
14.3925 -11.8825 14.0806 0 0 1.5 0.0584464 -0.427031 
14.2959 -12.2369 14.1675 0 0 1.5 0.0570407 -0.455804 
14.2059 -12.5933 14.2524 0 0 1.5 0.059225 -0.42099 
14.131 -12.9544 14.3328 0 0 1.5 0.0630515 -0.36656 
14.0629 -13.3162 14.4156 0 0 1.5 0.0681631 -0.306655 
14.0031 -13.6789 14.5013 0 0 1.5 0.0808315 -0.20073 
13.9455 -14.0389 14.5986 0 0 1.5 0.0877799 -0.159572 
13.8894 -14.3972 14.7031 0 0 1.5 0.0947984 -0.12623 
13.8235 -14.7443 14.8351 0 0 1.5 0.101665 -0.0991595 
13.7537 -15.087 14.976 0 0 1.5 0.114112 -0.0587456 
13.6575 -15.4026 15.1594 0 0 1.5 0.119317 -0.043867 
13.5481 -15.7014 15.3587 0 0 1.5 0.123628 -0.0315343 
13.4113 -15.9655 15.5911 0 0 1.5 0.126896 -0.0211732 
13.2522 -16.1919 15.8437 0 0 1.5 0.129882 -0.00506842 
13.0732 -16.3847 16.1143 0 0 1.5 0.129517 0.00118134 
12.8761 -16.5354 16.3956 0 0 1.5 0.127913 0.0064965 
12.6641 -16.6518 16.6854 0 0 1.5 0.121243 0.0151896 
12.4521 -16.7681 16.9752 0 0 1.5 0.116418 0.0188252 
12.2402 -16.8845 17.265 0 0 1.5 0.110792 0.0220531 
12.0282 -17.0009 17.5548 0 0 1.5 0.104517 0.0250973 
11.8162 -17.1172 17.8446 0 0 1.5 0.0906613 0.0313776 
11.6042 -17.2336 18.1344 0 0 1.5 0.0833772 0.0346795 
11.3923 -17.35 18.4241 0 0 1.5 0.0760264 0.0383692 
11.1803 -17.4663 18.7139 0 0 1.5 0.0687137 0.0428117 
10.9683 -17.5827 19.0037 0 0 1.5 0.0545448 0.0547985 
10.7563 -17.6991 19.2935 0 0 1.5 0.047826 0.0632846 
10.5444 -17.8154 19.5833 0 0 1.5 0.0414133 0.0747942 
10.3324 -17.9318 19.8731 0 0 1.5 0.0296403 0.113448 
10.1204 -18.0482 20.1629 0 0 1.5 0.0243409 0.147713 
9.90844 -18.1645 20.4527 0 0 1.5 0.0194588 0.203359 
9.69646 -18.2809 20.7425 0 0 1.5 0.0150194 0.300596 
9.48449 -18.3972 21.0323 0 0 1.5 0.00777106 0.870579 
9.27251 -18.5136 21.3221 0 0 1.5 0.00543208 1.57323 
9.06054 -18.63 21.6119 0 0 1.5 0.00471187 1.84856 
8.84857 -18.7463 21.9017 0 0 1.5 0.00561839 1.1491 
8.63659 -18.8627 22.1915 0 0 1.5 0.00879664 0.368304 
8.42462 -18.9791 22.4813 0 0 1.5 0.0102437 0.241657 
8.21264 -19.0954 22.7711 0 0 1.5 0.0114537 0.172051 
8.00067 -19.2118 23.0609 0 0 1.5 0.0130947 0.104963 
7.7887 -19.3282 23.3507 0 0 1.5 0.0135379 0.0880232 
7.57672 -19.4445 23.6405 0 0 1.5 0.0137482 0.0765085 
7.36475 -19.5609 23.9303 0 0 1.5 0.013743 0.0687074 
7.15277 -19.6773 24.2201 0 0 1.5 0.0131685 0.0607013 
6.9408 -19.7936 24.5099 0 0 1.5 0.0126433 0.059297 
6.72883 -19.91 24.7997 0 0 1.5 0.0119899 0.0593995 
6.51685 -20.0264 25.0895 0 0 1.5 0.0112292 0.0611673 
6.30488 -20.1427 25.3793 0 0 1.5 0.0094703 0.0702243 
6.0929 -20.2591 25.6691 0 0 1.5 0.00851482 0.0784844 
5.88093 -20.3755 25.9589 0 0 1.5 0.00753268 0.0908715 
5.66896 -20.4918 26.2487 0 0 1.5 0.00654037 0.109384 
5.45698 -20.6082 26.5385 0 0 1.5 0.0045937 0.182719 
5.24501 -20.7245 26.8283 0 0 1.5 0.00367004 0.261389 
5.03303 -20.8409 27.1181 0 0 1.5 0.00280149 0.411167 
4.82106 -20.9573 27.4079 0 0 1.5 0.00139096 1.41142 
4.60909 -21.0736 27.6977 0 0 1.5 0.00108664 2.14129 
4.39711 -21.19 27.9875 0 0 1.5 0.00124943 1.50479 
4.18514 -21.3064 28.2773 0 0 1.5 0.00168167 0.772959 
3.97316 -21.4227 28.5671 0 0 1.5 0.00266446 0.26933 
3.76119 -21.5391 28.8569 0 0 1.5 0.00311718 0.184905 
3.54922 -21.6555 29.1467 0 0 1.5 0.00352807 0.135636 
3.33724 -21.7718 29.4365 0 0 1.5 0.00389486 0.104638 
3.12527 -21.8882 29.7263 0 0 1.5 0.00450234 0.0694614 
2.91329 -22.0046 30.0161 0 0 1.5 0.00474892 0.0586539 
2.70132 -22.1209 30.3059 0 0 1.5 0.00496199 0.0503777 
2.48935 -22.2373 30.5957 0 0 1.5 0.00530206 0.0386956 
2.27737 -22.3537 30.8855 0 0 1.5 0.00543647 0.0343086 
2.0654 -22.47 31.1753 0 0 1.5 0.00555197 0.0305903 
1.85342 -22.5864 31.4651 0 0 1.5 0.00565134 0.0274545 
1.64145 -22.7028 31.7549 0 0 1.5 0.00581202 0.0223963 
1.42948 -22.8191 32.0447 0 0 1.5 0.00587832 0.0203422 
1.2175 -22.9355 32.3345 0 0 1.5 0.00593758 0.0185986 
1.00553 -23.0518 32.6243 0 0 1.5 0.00599109 0.0171235 
0.793553 -23.1682 32.9141 0 0 1.5 0.00608601 0.014865 
0.581579 -23.2846 33.2039 0 0 1.5 0.00612937 0.0140647 
0.369605 -23.4009 33.4937 0 0 1.5 0.00617094 0.0134665 
0 1 0 
1 2 0 
2 3 0 
3 4 0 
4 5 0 
5 6 0 
6 7 0 
7 8 0 
8 9 0 
9 10 0 
10 11 0 
11 12 0 
12 13 0 
13 14 0 
14 15 0 
15 16 0 
16 17 0 
17 18 0 
18 19 0 
19 20 0 
20 21 0 
21 22 0 
22 23 0 
23 24 0 
24 25 0 
25 26 0 
26 27 0 
27 28 0 
28 29 0 
29 30 0 
30 31 0 
31 32 0 
32 33 0 
33 34 0 
34 35 0 
35 36 0 
36 37 0 
37 38 0 
38 39 0 
39 40 0 
40 41 0 
41 42 0 
42 43 0 
43 44 0 
44 45 0 
45 46 0 
46 47 0 
47 48 0 
48 49 0 
49 50 0 
50 51 0 
51 52 0 
52 53 0 
53 54 0 
54 55 0 
55 56 0 
56 57 0 
57 58 0 
58 59 0 
59 60 0 
60 61 0 
61 62 0 
62 63 0 
63 64 0 
64 65 0 
65 66 0 
66 67 0 
67 68 0 
68 69 0 
69 70 0 
70 71 0 
71 72 0 
72 73 0 
73 74 0 
74 75 0 
75 76 0 
76 77 0 
77 78 0 
78 79 0 
79 80 0 
80 81 0 
81 82 0 
82 83 0 
83 84 0 
84 85 0 
85 86 0 
86 87 0 
87 88 0 
88 89 0 
89 90 0 
90 91 0 
91 92 0 
92 93 0 
93 94 0 
94 95 0 
95 96 0 
96 97 0 
97 98 0 
98 99 0 
99 100 0 
100 101 0 
101 102 0 
102 103 0 
103 104 0 
104 105 0 
105 106 0 
106 107 0 
107 108 0 
108 109 0 
109 110 0 
110 111 0 
111 112 0 
112 113 0 
113 114 0 
114 115 0 
115 116 0 
116 117 0 
117 118 0 
118 119 0 
119 120 0 
120 121 0 
121 122 0 
122 123 0 
123 124 0 
124 125 0 
125 126 0 
126 127 0 
127 128 0 
128 129 0 
129 130 0 
130 131 0 
131 132 0 
132 133 0 
133 134 0 
134 135 0 
135 136 0 
136 137 0 
137 138 0 
138 139 0 
139 140 0 
140 141 0 
141 142 0 
142 143 0 
143 144 0 
144 145 0 
145 146 0 
146 147 0 
147 148 0 
148 149 0 
149 150 0 
150 151 0 
151 152 0 
152 153 0 
153 154 0 
154 155 0 
155 156 0 
156 157 0 
157 158 0 
158 159 0 
159 160 0 
160 161 0 
161 162 0 
162 163 0 
163 164 0 
164 165 0 
165 166 0 
166 167 0 
167 168 0 
168 169 0 
169 170 0 
170 171 0 
171 172 0 
172 173 0 
173 174 0 
174 175 0 
175 176 0 
176 177 0 
177 178 0 
178 179 0 
179 180 0 
180 181 0 
181 182 0 
182 183 0 
183 184 0 
184 185 0 
185 186 0 
186 187 0 
187 188 0 
188 189 0 
189 190 0 
190 191 0 
191 192 0 
192 193 0 
193 194 0 
194 195 0 
195 196 0 
196 197 0 
197 198 0 
198 199 0 
199 200 0 
200 201 0 
201 202 0 
202 203 0 
203 204 0 
204 205 0 
205 206 0 
206 207 0 
207 208 0 
208 209 0 
209 210 0 
210 211 0 
211 212 0 
212 213 0 
213 214 0 
214 215 0 
215 216 0 
216 217 0 
217 218 0 
218 219 0 
219 220 0 
220 221 0 
221 222 0 
222 223 0 
223 224 0 
224 225 0 
225 226 0 
226 227 0 
227 228 0 
228 229 0 
229 230 0 
230 231 0 
231 232 0 
232 233 0 
233 234 0 
234 235 0 
235 236 0 
236 237 0 
237 238 0 
238 239 0 
239 240 0 
240 241 0 
241 242 0 
242 243 0 
243 244 0 
244 245 0 
245 246 0 
246 247 0 
247 248 0 
248 249 0 
249 250 0 
250 251 0 
251 252 0 
252 253 0 
253 254 0 
254 255 0 
255 256 0 
256 257 0 
257 258 0 
258 259 0 
259 260 0 
260 261 0 
261 262 0 
262 263 0 
263 264 0 
264 265 0 
265 266 0 
266 267 0 
267 268 0 
268 269 0 
269 270 0 
270 271 0 
271 272 0 
272 273 0 
273 274 0 
274 275 0 
275 276 0 
276 277 0 
277 278 0 
278 279 0 
279 280 0 
280 281 0 
281 282 0 
282 283 0 
283 284 0 
284 285 0 
285 286 0 
286 287 0 
287 288 0 
288 289 0 
289 290 0 
290 291 0 
291 292 0 
292 293 0 
293 294 0 
294 295 0 
295 296 0 
296 297 0 
297 298 0 
298 299 0 
-1 -1 0 
-1 300 0 1 2 3 4 5 6 7 8 9 10 11 12 13 14 15 16 17 18 19 20 21 22 23 24 25 26 27 28 29 30 31 32 33 34 35 36 37 38 39 40 41 42 43 44 45 46 47 48 49 50 51 52 53 54 55 56 57 58 59 60 61 62 63 64 65 66 67 68 69 70 71 72 73 74 75 76 77 78 79 80 81 82 83 84 85 86 87 88 89 90 91 92 93 94 95 96 97 98 99 100 101 102 103 104 105 106 107 108 109 110 111 112 113 114 115 116 117 118 119 120 121 122 123 124 125 126 127 128 129 130 131 132 133 134 135 136 137 138 139 140 141 142 143 144 145 146 147 148 149 150 151 152 153 154 155 156 157 158 159 160 161 162 163 164 165 166 167 168 169 170 171 172 173 174 175 176 177 178 179 180 181 182 183 184 185 186 187 188 189 190 191 192 193 194 195 196 197 198 199 200 201 202 203 204 205 206 207 208 209 210 211 212 213 214 215 216 217 218 219 220 221 222 223 224 225 226 227 228 229 230 231 232 233 234 235 236 237 238 239 240 241 242 243 244 245 246 247 248 249 250 251 252 253 254 255 256 257 258 259 260 261 262 263 264 265 266 267 268 269 270 271 272 273 274 275 276 277 278 279 280 281 282 283 284 285 286 287 288 289 290 291 292 293 294 295 296 297 298 299 
