ply
format ascii 1.0
comment written by koba@oshima.lab
element vertex 300
property float x
property float y
property float z
property int label
property int attribute
property float radius
property float curvature
property float torsion
element edge 300
property int vertex1
property int vertex2
property int label
element vertex_seq 1
property int label
property list int int vertex_indices
end_header
6.59222 27.4754 -4.39237 0 0 1.5 0.0365416 0.0266479 
6.30027 27.2311 -4.47785 0 0 1.5 0.0344372 0.0298046 
6.00833 26.9867 -4.56333 0 0 1.5 0.0323337 0.0337827 
5.71638 26.7423 -4.64881 0 0 1.5 0.0302217 0.0388641 
5.42443 26.498 -4.7343 0 0 1.5 0.0259366 0.0541538 
5.13248 26.2536 -4.81978 0 0 1.5 0.0237477 0.0658572 
4.84054 26.0092 -4.90526 0 0 1.5 0.0215195 0.082081 
4.54859 25.7648 -4.99074 0 0 1.5 0.0192489 0.10538 
4.25664 25.5205 -5.07623 0 0 1.5 0.0145992 0.19435 
3.96469 25.2761 -5.16171 0 0 1.5 0.0122639 0.284267 
3.67275 25.0317 -5.24719 0 0 1.5 0.0100029 0.441886 
3.3808 24.7873 -5.33267 0 0 1.5 0.00798295 0.717894 
3.08885 24.543 -5.41816 0 0 1.5 0.00638238 1.20291 
2.7969 24.2986 -5.50364 0 0 1.5 0.00762833 0.873359 
2.50496 24.0542 -5.58912 0 0 1.5 0.00989346 0.538984 
2.21301 23.8099 -5.6746 0 0 1.5 0.0158817 0.225917 
1.92106 23.5655 -5.76009 0 0 1.5 0.019249 0.160428 
1.62911 23.3211 -5.84557 0 0 1.5 0.0227638 0.119892 
1.33717 23.0767 -5.93105 0 0 1.5 0.0263764 0.0934443 
1.04522 22.8324 -6.01653 0 0 1.5 0.0337345 0.063103 
0.753273 22.588 -6.10202 0 0 1.5 0.0374087 0.0541504 
0.461325 22.3436 -6.1875 0 0 1.5 0.0410253 0.0475448 
0.169378 22.0993 -6.27298 0 0 1.5 0.0445398 0.0426691 
-0.122569 21.8549 -6.35846 0 0 1.5 0.0510802 0.0365079 
-0.414517 21.6105 -6.44395 0 0 1.5 0.0540035 0.0346178 
-0.706464 21.3661 -6.52943 0 0 1.5 0.0566197 0.033377 
-0.998411 21.1218 -6.61491 0 0 1.5 0.060704 0.0326075 
-1.29036 20.8774 -6.70039 0 0 1.5 0.0620648 0.0328468 
-1.58231 20.633 -6.78588 0 0 1.5 0.062905 0.0335515 
-1.87425 20.3887 -6.87136 0 0 1.5 0.0631784 0.0348366 
-2.1662 20.1443 -6.95684 0 0 1.5 0.0618845 0.0391801 
-2.45815 19.8999 -7.04232 0 0 1.5 0.0602787 0.0425492 
-2.7501 19.6555 -7.12781 0 0 1.5 0.0580183 0.0472265 
-3.04125 19.403 -7.18105 0 0 1.5 0.0551056 0.0536169 
-3.33179 19.144 -7.2088 0 0 1.5 0.0474822 0.0747888 
-3.61877 18.8805 -7.20246 0 0 1.5 0.042913 0.0932774 
-3.90447 18.6154 -7.18393 0 0 1.5 0.038022 0.121349 
-4.18544 18.3495 -7.13521 0 0 1.5 0.033117 0.163962 
-4.4652 18.0834 -7.07875 0 0 1.5 0.0259388 0.290416 
-4.74038 17.8192 -6.99801 0 0 1.5 0.0259522 0.310575 
-5.01415 17.5555 -6.90981 0 0 1.5 0.0295696 0.261865 
-5.28428 17.295 -6.80362 0 0 1.5 0.0456059 0.143455 
-5.5527 17.036 -6.68901 0 0 1.5 0.0565723 0.111182 
-5.81884 16.7806 -6.56216 0 0 1.5 0.0689338 0.0915628 
-6.0834 16.5277 -6.42689 0 0 1.5 0.082475 0.0799581 
-6.34733 16.2783 -6.28433 0 0 1.5 0.112505 0.0704178 
-6.61076 16.0316 -6.13589 0 0 1.5 0.128684 0.0696176 
-6.87639 15.7882 -5.98618 0 0 1.5 0.145355 0.0706613 
-7.1433 15.5465 -5.83572 0 0 1.5 0.162211 0.0733029 
-7.41954 15.3067 -5.70016 0 0 1.5 0.19484 0.0815929 
-7.7041 15.0663 -5.58704 0 0 1.5 0.209623 0.0868626 
-8.00167 14.8255 -5.52555 0 0 1.5 0.222621 0.0928977 
-8.30216 14.593 -5.58601 0 0 1.5 0.241056 0.105931 
-8.5548 14.3979 -5.80175 0 0 1.5 0.245692 0.112577 
-8.74116 14.2435 -6.10637 0 0 1.5 0.247002 0.119345 
-8.87812 14.1127 -6.44751 0 0 1.5 0.245039 0.125946 
-8.98616 13.9865 -6.80032 0 0 1.5 0.232612 0.137832 
-9.08373 13.8587 -7.15575 0 0 1.5 0.223133 0.143335 
-9.16768 13.7242 -7.51226 0 0 1.5 0.212225 0.148486 
-9.24616 13.5802 -7.86616 0 0 1.5 0.20046 0.153136 
-9.31938 13.4271 -8.21755 0 0 1.5 0.176311 0.161158 
-9.38742 13.2588 -8.56268 0 0 1.5 0.164686 0.164535 
-9.45249 13.0816 -8.90421 0 0 1.5 0.153731 0.167363 
-9.51094 12.8856 -9.23615 0 0 1.5 0.134534 0.170404 
-9.56656 12.6814 -9.564 0 0 1.5 0.126506 0.170122 
-9.61204 12.4568 -9.87948 0 0 1.5 0.119601 0.168382 
-9.65418 12.2255 -10.1909 0 0 1.5 0.113844 0.164813 
-9.68081 11.974 -10.4877 0 0 1.5 0.105795 0.151383 
-9.70393 11.718 -10.7813 0 0 1.5 0.103487 0.141978 
-9.70488 11.444 -11.0589 0 0 1.5 0.102299 0.131055 
-9.70335 11.1679 -11.3346 0 0 1.5 0.102204 0.118941 
-9.67281 10.8779 -11.5939 0 0 1.5 0.105179 0.0941901 
-9.63893 10.587 -11.8515 0 0 1.5 0.108204 0.0826192 
-9.57684 10.2894 -12.0961 0 0 1.5 0.112234 0.0719386 
-9.50813 9.99135 -12.338 0 0 1.5 0.117266 0.0624724 
-9.41409 9.69195 -12.5699 0 0 1.5 0.130402 0.0476988 
-9.31073 9.3934 -12.7984 0 0 1.5 0.138569 0.0422388 
-9.18563 9.09685 -13.019 0 0 1.5 0.14786 0.0379532 
-9.04905 8.80262 -13.2353 0 0 1.5 0.170065 0.0325312 
-8.89423 8.51206 -13.4448 0 0 1.5 0.183102 0.0312086 
-8.72548 8.22528 -13.6479 0 0 1.5 0.197497 0.0306582 
-8.54169 7.94258 -13.8443 0 0 1.5 0.213281 0.0307764 
-8.33975 7.66533 -14.0295 0 0 1.5 0.248895 0.0329849 
-8.12627 7.39156 -14.2076 0 0 1.5 0.26848 0.0349714 
-7.88675 7.12591 -14.3626 0 0 1.5 0.288937 0.0373945 
-7.63695 6.86371 -14.5066 0 0 1.5 0.309861 0.0402686 
-7.35679 6.61271 -14.6104 0 0 1.5 0.350636 0.04731 
-7.05806 6.37322 -14.6742 0 0 1.5 0.368824 0.0512549 
-6.74266 6.14702 -14.695 0 0 1.5 0.384228 0.0554102 
-6.4112 5.95049 -14.6336 0 0 1.5 0.402686 0.064076 
-6.0866 5.79001 -14.496 0 0 1.5 0.404252 0.0682208 
-5.77674 5.65942 -14.3041 0 0 1.5 0.400303 0.0721507 
-5.48736 5.5593 -14.0623 0 0 1.5 0.391032 0.075894 
-5.23663 5.49571 -13.7711 0 0 1.5 0.35914 0.0828627 
-5.00252 5.44473 -13.4645 0 0 1.5 0.338445 0.0862764 
-4.79915 5.41509 -13.1328 0 0 1.5 0.315953 0.0899067 
-4.61837 5.3976 -12.7884 0 0 1.5 0.292591 0.0939482 
-4.45607 5.39002 -12.4336 0 0 1.5 0.246259 0.104108 
-4.3228 5.39513 -12.0675 0 0 1.5 0.224326 0.110829 
-4.20029 5.40493 -11.6971 0 0 1.5 0.203629 0.119105 
-4.11239 5.42808 -11.3179 0 0 1.5 0.166558 0.141909 
-4.03061 5.45354 -10.9373 0 0 1.5 0.150305 0.15748 
-3.9872 5.49233 -10.5515 0 0 1.5 0.135586 0.176614 
-3.95234 5.53358 -10.1654 0 0 1.5 0.122411 0.199796 
-3.9471 5.58333 -9.77842 0 0 1.5 0.100814 0.25882 
-3.95824 5.63561 -9.39229 0 0 1.5 0.0925134 0.292988 
-3.98746 5.69069 -9.0071 0 0 1.5 0.0860137 0.3267 
-4.03867 5.74316 -8.62402 0 0 1.5 0.0814339 0.35506 
-4.0988 5.79285 -8.24179 0 0 1.5 0.0783165 0.375188 
-4.17532 5.83084 -7.86105 0 0 1.5 0.0797132 0.362823 
-4.25718 5.85568 -7.48055 0 0 1.5 0.0828751 0.338789 
-4.34326 5.87017 -7.10024 0 0 1.5 0.0875571 0.308221 
-4.42975 5.85482 -6.72006 0 0 1.5 0.100407 0.245361 
-4.51348 5.82515 -6.34045 0 0 1.5 0.108075 0.217665 
-4.59365 5.77728 -5.96159 0 0 1.5 0.116263 0.193331 
-4.6653 5.70148 -5.58576 0 0 1.5 0.133315 0.154965 
-4.73279 5.61261 -5.21217 0 0 1.5 0.141747 0.140092 
-4.7926 5.50017 -4.84334 0 0 1.5 0.149812 0.127335 
-4.84595 5.36542 -4.48149 0 0 1.5 0.157266 0.116514 
-4.89574 5.21834 -4.12353 0 0 1.5 0.169436 0.0998041 
-4.9362 5.03351 -3.78227 0 0 1.5 0.173728 0.0932409 
-4.97329 4.83436 -3.44957 0 0 1.5 0.17659 0.0877887 
-5.0042 4.60885 -3.13264 0 0 1.5 0.17792 0.083487 
-5.02826 4.35605 -2.83737 0 0 1.5 0.175874 0.0778004 
-5.04911 4.09051 -2.55221 0 0 1.5 0.172596 0.0764071 
-5.05987 3.79063 -2.30286 0 0 1.5 0.167987 0.0761118 
-5.06811 3.48356 -2.06307 0 0 1.5 0.155554 0.0788319 
-5.06915 3.15629 -1.85058 0 0 1.5 0.148162 0.0819707 
-5.06643 2.82046 -1.65281 0 0 1.5 0.140278 0.0864477 
-5.05927 2.47453 -1.47244 0 0 1.5 0.132111 0.0923945 
-5.04807 2.12129 -1.30764 0 0 1.5 0.115652 0.109336 
-5.03432 1.76346 -1.15263 0 0 1.5 0.107671 0.120614 
-5.01673 1.4006 -1.01049 0 0 1.5 0.100032 0.133975 
-4.99768 1.03582 -0.873264 0 0 1.5 0.0928475 0.149499 
-4.97474 0.668284 -0.744331 0 0 1.5 0.0802336 0.186061 
-4.95086 0.300072 -0.617413 0 0 1.5 0.0749761 0.205874 
-4.92222 -0.0688502 -0.493602 0 0 1.5 0.0705283 0.225095 
-4.89287 -0.437878 -0.37025 0 0 1.5 0.0669637 0.241836 
-4.85672 -0.805691 -0.245104 0 0 1.5 0.0626553 0.259826 
-4.82006 -1.1734 -0.119807 0 0 1.5 0.0619351 0.25805 
-4.7734 -1.53802 0.011108 0 0 1.5 0.0621332 0.248969 
-4.72571 -1.90227 0.142575 0 0 1.5 0.0649541 0.215401 
-4.66575 -2.26231 0.280551 0 0 1.5 0.0673698 0.194815 
-4.60325 -2.62149 0.419468 0 0 1.5 0.0703094 0.174208 
-4.52657 -2.97587 0.563664 0 0 1.5 0.0736639 0.15492 
-4.44541 -3.32882 0.708637 0 0 1.5 0.0812287 0.122287 
-4.34862 -3.67678 0.856333 0 0 1.5 0.0852681 0.109274 
-4.24488 -4.02258 1.00395 0 0 1.5 0.0893807 0.0984644 
-4.12445 -4.3632 1.15136 0 0 1.5 0.0935009 0.089644 
-3.99374 -4.70041 1.29719 0 0 1.5 0.101521 0.0771056 
-3.84575 -5.03186 1.44035 0 0 1.5 0.10531 0.0729383 
-3.6827 -5.35729 1.57985 0 0 1.5 0.108881 0.069973 
-3.50294 -5.67604 1.71528 0 0 1.5 0.115186 0.0671432 
-3.30156 -5.98359 1.84456 0 0 1.5 0.117842 0.066866 
-3.0863 -6.28395 1.96989 0 0 1.5 0.120131 0.0672379 
-2.84171 -6.56394 2.08683 0 0 1.5 0.122031 0.0682321 
-2.589 -6.83824 2.20145 0 0 1.5 0.124627 0.0712084 
-2.30109 -7.07936 2.30744 0 0 1.5 0.125331 0.0729462 
-2.00597 -7.31109 2.41248 0 0 1.5 0.125653 0.0748267 
-1.68906 -7.51454 2.51465 0 0 1.5 0.125611 0.0766769 
-1.36227 -7.69955 2.61854 0 0 1.5 0.124542 0.0797023 
-1.02551 -7.86595 2.72415 0 0 1.5 0.123569 0.080818 
-0.681333 -8.00934 2.83819 0 0 1.5 0.122341 0.081594 
-0.334458 -8.14433 2.9553 0 0 1.5 0.119215 0.0818991 
0.0139518 -8.25688 3.09003 0 0 1.5 0.11736 0.081375 
0.361843 -8.36599 3.22872 0 0 1.5 0.115328 0.0804706 
0.705453 -8.46052 3.38763 0 0 1.5 0.113129 0.0792782 
1.04654 -8.55163 3.55332 0 0 1.5 0.108233 0.0760318 
1.38117 -8.63398 3.73636 0 0 1.5 0.105532 0.074213 
1.71154 -8.71169 3.92845 0 0 1.5 0.102656 0.0725924 
2.03589 -8.78284 4.13336 0 0 1.5 0.0995991 0.0712054 
2.35553 -8.84682 4.3475 0 0 1.5 0.0929216 0.0694877 
2.67097 -8.90441 4.56985 0 0 1.5 0.089288 0.0696519 
2.98269 -8.95058 4.79972 0 0 1.5 0.0854502 0.0707376 
3.29226 -8.99018 5.03394 0 0 1.5 0.0814043 0.0729505 
3.59994 -9.01239 5.27264 0 0 1.5 0.0726925 0.0825798 
3.90696 -9.02847 5.51293 0 0 1.5 0.0680475 0.0911574 
4.21365 -9.0209 5.75386 0 0 1.5 0.0632296 0.103354 
4.52029 -9.00923 5.99489 0 0 1.5 0.053173 0.144316 
4.82708 -8.96932 6.23263 0 0 1.5 0.0480134 0.178012 
5.13383 -8.92611 6.46977 0 0 1.5 0.0428425 0.226276 
5.44011 -8.85927 6.70211 0 0 1.5 0.03775 0.29598 
5.74612 -8.78831 6.93345 0 0 1.5 0.0284567 0.538426 
6.05109 -8.70214 7.16109 0 0 1.5 0.024835 0.718549 
6.35558 -8.6129 7.38817 0 0 1.5 0.0225142 0.88698 
6.65902 -8.51719 7.61405 0 0 1.5 0.0220027 0.939153 
6.96199 -8.42211 7.84082 0 0 1.5 0.0266635 0.646852 
7.26433 -8.3279 8.06879 0 0 1.5 0.0310393 0.476945 
7.56623 -8.24052 8.29994 0 0 1.5 0.0361722 0.34916 
7.86775 -8.15921 8.53389 0 0 1.5 0.0476058 0.195673 
8.16835 -8.09293 8.7734 0 0 1.5 0.0535749 0.150677 
8.46845 -8.03487 9.01594 0 0 1.5 0.0595739 0.118023 
8.7659 -8.0011 9.26585 0 0 1.5 0.06553 0.0936753 
9.0626 -7.97426 9.51785 0 0 1.5 0.0770713 0.0604168 
9.35333 -7.98029 9.77785 0 0 1.5 0.0825523 0.0487408 
9.64291 -7.99157 10.039 0 0 1.5 0.0877785 0.0391749 
9.92362 -8.0367 10.3062 0 0 1.5 0.0927056 0.0311465 
10.2019 -8.08895 10.5743 0 0 1.5 0.101518 0.0185152 
10.4708 -8.16831 10.8457 0 0 1.5 0.105357 0.0134293 
10.7356 -8.25819 11.1174 0 0 1.5 0.108793 0.0088944 
10.9921 -8.36865 11.3899 0 0 1.5 0.114432 0.00126242 
11.2433 -8.49208 11.6613 0 0 1.5 0.116648 -0.0019658 
11.4882 -8.63083 11.9315 0 0 1.5 0.118479 -0.00490593 
11.7275 -8.78495 12.1981 0 0 1.5 0.119946 -0.00751329 
11.9626 -8.95041 12.462 0 0 1.5 0.12191 -0.0116061 
12.1921 -9.13404 12.7183 0 0 1.5 0.122474 -0.0131537 
12.4191 -9.3257 12.9712 0 0 1.5 0.122804 -0.0142949 
12.6404 -9.53866 13.2116 0 0 1.5 0.122935 -0.0149419 
12.8605 -9.75636 13.4491 0 0 1.5 0.122731 -0.0147755 
13.0739 -9.99797 13.6689 0 0 1.5 0.122448 -0.0139013 
13.2863 -10.2427 13.8861 0 0 1.5 0.122073 -0.0124131 
13.4907 -10.509 14.085 0 0 1.5 0.12162 -0.0103009 
13.6929 -10.7794 14.2802 0 0 1.5 0.120507 -0.00417737 
13.8859 -11.0666 14.4607 0 0 1.5 0.11985 -0.000191627 
14.0742 -11.3593 14.6365 0 0 1.5 0.119117 0.00444072 
14.2519 -11.6647 14.8021 0 0 1.5 0.117389 0.0157371 
14.4213 -11.9768 14.9633 0 0 1.5 0.116365 0.0223308 
14.5788 -12.2983 15.1184 0 0 1.5 0.115216 0.0296321 
14.7224 -12.6277 15.2698 0 0 1.5 0.113926 0.0377496 
14.8535 -12.964 15.4181 0 0 1.5 0.110879 0.0559371 
14.9633 -13.3088 15.5629 0 0 1.5 0.109115 0.0660242 
15.0618 -13.6582 15.706 0 0 1.5 0.107193 0.0769841 
15.1297 -14.0165 15.844 0 0 1.5 0.10512 0.0886799 
15.1905 -14.3768 15.9809 0 0 1.5 0.100598 0.113869 
15.2123 -14.7453 16.1075 0 0 1.5 0.0981977 0.127597 
15.2268 -15.1149 16.2308 0 0 1.5 0.0957445 0.141892 
15.213 -15.4888 16.3412 0 0 1.5 0.0908438 0.171032 
15.188 -15.8645 16.4424 0 0 1.5 0.0884805 0.185594 
15.147 -16.2424 16.5303 0 0 1.5 0.0862291 0.199646 
15.0962 -16.6225 16.601 0 0 1.5 0.0841308 0.212592 
15.0394 -17.0038 16.6611 0 0 1.5 0.0805212 0.233358 
14.9799 -17.3877 16.6953 0 0 1.5 0.0790455 0.240406 
14.9199 -17.7722 16.7236 0 0 1.5 0.0777978 0.244835 
14.8685 -18.159 16.7196 0 0 1.5 0.0767694 0.246415 
14.8206 -18.5459 16.7098 0 0 1.5 0.0752602 0.241295 
14.7883 -18.9331 16.6744 0 0 1.5 0.0746994 0.235483 
14.7651 -19.3196 16.6297 0 0 1.5 0.0742047 0.227925 
14.7603 -19.7046 16.5664 0 0 1.5 0.0737197 0.218943 
14.7703 -20.0872 16.493 0 0 1.5 0.0725545 0.1993 
14.7993 -20.4666 16.4066 0 0 1.5 0.0717806 0.189324 
14.8472 -20.8414 16.3117 0 0 1.5 0.070822 0.17939 
14.9145 -21.2115 16.2079 0 0 1.5 0.0682244 0.161507 
15.0012 -21.5753 16.0989 0 0 1.5 0.0665593 0.153807 
15.1094 -21.9321 15.9839 0 0 1.5 0.0646437 0.146772 
15.2176 -22.289 15.8688 0 0 1.5 0.0624801 0.140653 
15.3258 -22.6458 15.7538 0 0 1.5 0.0574776 0.131712 
15.434 -23.0026 15.6388 0 0 1.5 0.0546843 0.128602 
15.5422 -23.3594 15.5238 0 0 1.5 0.0517308 0.126557 
15.6504 -23.7162 15.4088 0 0 1.5 0.0486481 0.125841 
15.7586 -24.0731 15.2937 0 0 1.5 0.042226 0.128292 
15.8669 -24.4299 15.1787 0 0 1.5 0.0389519 0.131769 
15.9751 -24.7867 15.0637 0 0 1.5 0.0356767 0.137357 
16.0833 -25.1435 14.9487 0 0 1.5 0.0292417 0.156253 
16.1915 -25.5003 14.8337 0 0 1.5 0.0261405 0.171002 
16.2997 -25.8571 14.7186 0 0 1.5 0.0231493 0.191281 
16.4079 -26.214 14.6036 0 0 1.5 0.0202918 0.218962 
16.5161 -26.5708 14.4886 0 0 1.5 0.0150878 0.308259 
16.6243 -26.9276 14.3736 0 0 1.5 0.0128008 0.379618 
16.7325 -27.2844 14.2586 0 0 1.5 0.0107725 0.476454 
16.8408 -27.6412 14.1435 0 0 1.5 0.00905589 0.600164 
16.949 -27.9981 14.0285 0 0 1.5 0.00681328 0.847943 
17.0572 -28.3549 13.9135 0 0 1.5 0.00637525 0.870347 
17.1654 -28.7117 13.7985 0 0 1.5 0.00635174 0.788825 
17.2736 -29.0685 13.6835 0 0 1.5 0.00704758 0.522677 
17.3818 -29.4253 13.5684 0 0 1.5 0.00752474 0.415774 
17.49 -29.7821 13.4534 0 0 1.5 0.00798199 0.335124 
17.5982 -30.139 13.3384 0 0 1.5 0.00837633 0.276305 
17.7064 -30.4958 13.2234 0 0 1.5 0.00889686 0.203314 
17.8147 -30.8526 13.1084 0 0 1.5 0.00900874 0.180635 
17.9229 -31.2094 12.9933 0 0 1.5 0.00902128 0.16417 
18.0311 -31.5662 12.8783 0 0 1.5 0.00893891 0.15279 
18.1393 -31.923 12.7633 0 0 1.5 0.00851799 0.140733 
18.2475 -32.2799 12.6483 0 0 1.5 0.00819662 0.13908 
18.3557 -32.6367 12.5333 0 0 1.5 0.00781333 0.140521 
18.4639 -32.9935 12.4182 0 0 1.5 0.00737776 0.144993 
18.5721 -33.3503 12.3032 0 0 1.5 0.00639063 0.164169 
18.6803 -33.7071 12.1882 0 0 1.5 0.00585849 0.181258 
18.7885 -34.064 12.0732 0 0 1.5 0.00531327 0.20536 
18.8968 -34.4208 11.9582 0 0 1.5 0.00422677 0.28458 
19.005 -34.7776 11.8431 0 0 1.5 0.00370841 0.348661 
19.1132 -35.1344 11.7281 0 0 1.5 0.00322478 0.436551 
19.2214 -35.4912 11.6131 0 0 1.5 0.00279484 0.551594 
19.3296 -35.848 11.4981 0 0 1.5 0.00219724 0.812515 
19.4378 -36.2049 11.3831 0 0 1.5 0.00208257 0.867084 
19.546 -36.5617 11.268 0 0 1.5 0.0021058 0.813581 
19.6542 -36.9185 11.153 0 0 1.5 0.00224745 0.685957 
19.7624 -37.2753 11.038 0 0 1.5 0.00275013 0.424314 
19.8707 -37.6321 10.923 0 0 1.5 0.00305397 0.330788 
19.9789 -37.989 10.808 0 0 1.5 0.00336846 0.261204 
20.0871 -38.3458 10.6929 0 0 1.5 0.00399391 0.171457 
20.1953 -38.7026 10.5779 0 0 1.5 0.00429567 0.142051 
20.3035 -39.0594 10.4629 0 0 1.5 0.00458717 0.119286 
20.4117 -39.4162 10.3479 0 0 1.5 0.00486766 0.101519 
20.5199 -39.773 10.2329 0 0 1.5 0.00539619 0.0759114 
20.6281 -40.1299 10.1178 0 0 1.5 0.00564549 0.0665631 
20.7363 -40.4867 10.0028 0 0 1.5 0.00588593 0.0589511 
20.8446 -40.8435 9.88781 0 0 1.5 0.00611854 0.0526916 
20.9528 -41.2003 9.77279 0 0 1.5 0.006565 0.0431872 
21.061 -41.5571 9.65777 0 0 1.5 0.00678123 0.0396227 
21.1692 -41.9139 9.54275 0 0 1.5 0.00699438 0.0366708 
0 1 0 
1 2 0 
2 3 0 
3 4 0 
4 5 0 
5 6 0 
6 7 0 
7 8 0 
8 9 0 
9 10 0 
10 11 0 
11 12 0 
12 13 0 
13 14 0 
14 15 0 
15 16 0 
16 17 0 
17 18 0 
18 19 0 
19 20 0 
20 21 0 
21 22 0 
22 23 0 
23 24 0 
24 25 0 
25 26 0 
26 27 0 
27 28 0 
28 29 0 
29 30 0 
30 31 0 
31 32 0 
32 33 0 
33 34 0 
34 35 0 
35 36 0 
36 37 0 
37 38 0 
38 39 0 
39 40 0 
40 41 0 
41 42 0 
42 43 0 
43 44 0 
44 45 0 
45 46 0 
46 47 0 
47 48 0 
48 49 0 
49 50 0 
50 51 0 
51 52 0 
52 53 0 
53 54 0 
54 55 0 
55 56 0 
56 57 0 
57 58 0 
58 59 0 
59 60 0 
60 61 0 
61 62 0 
62 63 0 
63 64 0 
64 65 0 
65 66 0 
66 67 0 
67 68 0 
68 69 0 
69 70 0 
70 71 0 
71 72 0 
72 73 0 
73 74 0 
74 75 0 
75 76 0 
76 77 0 
77 78 0 
78 79 0 
79 80 0 
80 81 0 
81 82 0 
82 83 0 
83 84 0 
84 85 0 
85 86 0 
86 87 0 
87 88 0 
88 89 0 
89 90 0 
90 91 0 
91 92 0 
92 93 0 
93 94 0 
94 95 0 
95 96 0 
96 97 0 
97 98 0 
98 99 0 
99 100 0 
100 101 0 
101 102 0 
102 103 0 
103 104 0 
104 105 0 
105 106 0 
106 107 0 
107 108 0 
108 109 0 
109 110 0 
110 111 0 
111 112 0 
112 113 0 
113 114 0 
114 115 0 
115 116 0 
116 117 0 
117 118 0 
118 119 0 
119 120 0 
120 121 0 
121 122 0 
122 123 0 
123 124 0 
124 125 0 
125 126 0 
126 127 0 
127 128 0 
128 129 0 
129 130 0 
130 131 0 
131 132 0 
132 133 0 
133 134 0 
134 135 0 
135 136 0 
136 137 0 
137 138 0 
138 139 0 
139 140 0 
140 141 0 
141 142 0 
142 143 0 
143 144 0 
144 145 0 
145 146 0 
146 147 0 
147 148 0 
148 149 0 
149 150 0 
150 151 0 
151 152 0 
152 153 0 
153 154 0 
154 155 0 
155 156 0 
156 157 0 
157 158 0 
158 159 0 
159 160 0 
160 161 0 
161 162 0 
162 163 0 
163 164 0 
164 165 0 
165 166 0 
166 167 0 
167 168 0 
168 169 0 
169 170 0 
170 171 0 
171 172 0 
172 173 0 
173 174 0 
174 175 0 
175 176 0 
176 177 0 
177 178 0 
178 179 0 
179 180 0 
180 181 0 
181 182 0 
182 183 0 
183 184 0 
184 185 0 
185 186 0 
186 187 0 
187 188 0 
188 189 0 
189 190 0 
190 191 0 
191 192 0 
192 193 0 
193 194 0 
194 195 0 
195 196 0 
196 197 0 
197 198 0 
198 199 0 
199 200 0 
200 201 0 
201 202 0 
202 203 0 
203 204 0 
204 205 0 
205 206 0 
206 207 0 
207 208 0 
208 209 0 
209 210 0 
210 211 0 
211 212 0 
212 213 0 
213 214 0 
214 215 0 
215 216 0 
216 217 0 
217 218 0 
218 219 0 
219 220 0 
220 221 0 
221 222 0 
222 223 0 
223 224 0 
224 225 0 
225 226 0 
226 227 0 
227 228 0 
228 229 0 
229 230 0 
230 231 0 
231 232 0 
232 233 0 
233 234 0 
234 235 0 
235 236 0 
236 237 0 
237 238 0 
238 239 0 
239 240 0 
240 241 0 
241 242 0 
242 243 0 
243 244 0 
244 245 0 
245 246 0 
246 247 0 
247 248 0 
248 249 0 
249 250 0 
250 251 0 
251 252 0 
252 253 0 
253 254 0 
254 255 0 
255 256 0 
256 257 0 
257 258 0 
258 259 0 
259 260 0 
260 261 0 
261 262 0 
262 263 0 
263 264 0 
264 265 0 
265 266 0 
266 267 0 
267 268 0 
268 269 0 
269 270 0 
270 271 0 
271 272 0 
272 273 0 
273 274 0 
274 275 0 
275 276 0 
276 277 0 
277 278 0 
278 279 0 
279 280 0 
280 281 0 
281 282 0 
282 283 0 
283 284 0 
284 285 0 
285 286 0 
286 287 0 
287 288 0 
288 289 0 
289 290 0 
290 291 0 
291 292 0 
292 293 0 
293 294 0 
294 295 0 
295 296 0 
296 297 0 
297 298 0 
298 299 0 
-1 -1 0 
-1 300 0 1 2 3 4 5 6 7 8 9 10 11 12 13 14 15 16 17 18 19 20 21 22 23 24 25 26 27 28 29 30 31 32 33 34 35 36 37 38 39 40 41 42 43 44 45 46 47 48 49 50 51 52 53 54 55 56 57 58 59 60 61 62 63 64 65 66 67 68 69 70 71 72 73 74 75 76 77 78 79 80 81 82 83 84 85 86 87 88 89 90 91 92 93 94 95 96 97 98 99 100 101 102 103 104 105 106 107 108 109 110 111 112 113 114 115 116 117 118 119 120 121 122 123 124 125 126 127 128 129 130 131 132 133 134 135 136 137 138 139 140 141 142 143 144 145 146 147 148 149 150 151 152 153 154 155 156 157 158 159 160 161 162 163 164 165 166 167 168 169 170 171 172 173 174 175 176 177 178 179 180 181 182 183 184 185 186 187 188 189 190 191 192 193 194 195 196 197 198 199 200 201 202 203 204 205 206 207 208 209 210 211 212 213 214 215 216 217 218 219 220 221 222 223 224 225 226 227 228 229 230 231 232 233 234 235 236 237 238 239 240 241 242 243 244 245 246 247 248 249 250 251 252 253 254 255 256 257 258 259 260 261 262 263 264 265 266 267 268 269 270 271 272 273 274 275 276 277 278 279 280 281 282 283 284 285 286 287 288 289 290 291 292 293 294 295 296 297 298 299 
