ply
format ascii 1.0
comment written by koba@oshima.lab
element vertex 300
property float x
property float y
property float z
property int label
property int attribute
property float radius
property float curvature
property float torsion
element edge 300
property int vertex1
property int vertex2
property int label
element vertex_seq 1
property int label
property list int int vertex_indices
end_header
10.8517 27.6146 -10.1989 0 0 1.5 0.0142973 0.010766 
10.5404 27.4191 -10.0791 0 0 1.5 0.0141908 0.0113363 
10.2292 27.2236 -9.9593 0 0 1.5 0.0140774 0.0123067 
9.91786 27.0281 -9.83951 0 0 1.5 0.0139528 0.013711 
9.60657 26.8326 -9.71971 0 0 1.5 0.0136533 0.0180159 
9.29528 26.6371 -9.59992 0 0 1.5 0.0134672 0.0210828 
8.98399 26.4416 -9.48012 0 0 1.5 0.0132478 0.0249142 
8.6727 26.2461 -9.36033 0 0 1.5 0.0129883 0.0296797 
8.36141 26.0506 -9.24053 0 0 1.5 0.0123168 0.0429181 
8.05011 25.8551 -9.12074 0 0 1.5 0.0118843 0.052285 
7.73882 25.6597 -9.00094 0 0 1.5 0.0113735 0.0645432 
7.42753 25.4642 -8.88115 0 0 1.5 0.0107748 0.0809247 
7.11624 25.2687 -8.76135 0 0 1.5 0.00927312 0.1365 
6.80495 25.0732 -8.64156 0 0 1.5 0.00835529 0.187256 
6.49366 24.8777 -8.52176 0 0 1.5 0.00732519 0.270541 
6.18236 24.6822 -8.40197 0 0 1.5 0.00502992 0.702165 
5.87107 24.4867 -8.28217 0 0 1.5 0.00396301 1.2502 
5.55978 24.2912 -8.16238 0 0 1.5 0.00337975 1.89639 
5.24849 24.0957 -8.04258 0 0 1.5 0.00381232 1.63914 
4.9372 23.9002 -7.92279 0 0 1.5 0.00723704 0.547553 
4.62591 23.7048 -7.80299 0 0 1.5 0.00960712 0.339205 
4.31461 23.5093 -7.6832 0 0 1.5 0.0122343 0.226527 
4.00332 23.3138 -7.5634 0 0 1.5 0.0150622 0.160721 
3.69203 23.1183 -7.44361 0 0 1.5 0.0211795 0.0916878 
3.38074 22.9228 -7.32381 0 0 1.5 0.0244008 0.0715383 
3.06945 22.7273 -7.20402 0 0 1.5 0.0276793 0.0564476 
2.75815 22.5318 -7.08422 0 0 1.5 0.0342538 0.0350044 
2.44686 22.3363 -6.96443 0 0 1.5 0.0374593 0.0261647 
2.13557 22.1408 -6.84463 0 0 1.5 0.0405409 0.0180277 
1.82428 21.9453 -6.72484 0 0 1.5 0.0434471 0.0103635 
1.51299 21.7499 -6.60504 0 0 1.5 0.0485328 -0.00584197 
1.2017 21.5544 -6.48525 0 0 1.5 0.050617 -0.0150139 
0.890404 21.3589 -6.36545 0 0 1.5 0.0523383 -0.025165 
0.584436 21.1483 -6.26084 0 0 1.5 0.0536635 -0.0367941 
0.284856 20.9197 -6.17445 0 0 1.5 0.0550799 -0.0666465 
-0.00237176 20.6714 -6.10299 0 0 1.5 0.0551781 -0.086009 
-0.286105 20.4177 -6.03536 0 0 1.5 0.054903 -0.109034 
-0.55316 20.1448 -5.97473 0 0 1.5 0.0543255 -0.136172 
-0.817351 19.8693 -5.91387 0 0 1.5 0.0526943 -0.204969 
-1.06588 19.5797 -5.8518 0 0 1.5 0.0519456 -0.24499 
-1.31024 19.2872 -5.78807 0 0 1.5 0.0515305 -0.284308 
-1.53918 18.9836 -5.71821 0 0 1.5 0.0527554 -0.342042 
-1.76353 18.6774 -5.64564 0 0 1.5 0.0549114 -0.349075 
-1.97262 18.3626 -5.56401 0 0 1.5 0.0583554 -0.337542 
-2.17728 18.0459 -5.47921 0 0 1.5 0.0631716 -0.311336 
-2.36776 17.7231 -5.38431 0 0 1.5 0.0768769 -0.238222 
-2.55416 17.3991 -5.28621 0 0 1.5 0.0855967 -0.200219 
-2.7293 17.0714 -5.17927 0 0 1.5 0.0953848 -0.164949 
-2.90102 16.7429 -5.06965 0 0 1.5 0.10609 -0.133199 
-3.06639 16.4127 -4.95507 0 0 1.5 0.129523 -0.079877 
-3.23076 16.0819 -4.84105 0 0 1.5 0.141772 -0.0571252 
-3.39428 15.7505 -4.7275 0 0 1.5 0.153979 -0.0359258 
-3.5652 15.4182 -4.6286 0 0 1.5 0.176802 0.00255479 
-3.74514 15.0861 -4.54958 0 0 1.5 0.186609 0.0207845 
-3.94018 14.7562 -4.50822 0 0 1.5 0.194771 0.0392415 
-4.15662 14.4382 -4.54204 0 0 1.5 0.200887 0.0577335 
-4.38156 14.1576 -4.68394 0 0 1.5 0.205978 0.094553 
-4.58974 13.9261 -4.91198 0 0 1.5 0.204737 0.113854 
-4.77548 13.7247 -5.18336 0 0 1.5 0.201052 0.133606 
-4.94419 13.5365 -5.47533 0 0 1.5 0.195205 0.153366 
-5.09835 13.355 -5.77993 0 0 1.5 0.178618 0.194057 
-5.23322 13.168 -6.09018 0 0 1.5 0.168771 0.215013 
-5.36132 12.9762 -6.40027 0 0 1.5 0.158511 0.235763 
-5.47431 12.7709 -6.70777 0 0 1.5 0.138398 0.275241 
-5.57764 12.5543 -7.01043 0 0 1.5 0.129192 0.29274 
-5.6706 12.3255 -7.30793 0 0 1.5 0.120864 0.307577 
-5.74858 12.0798 -7.59558 0 0 1.5 0.113553 0.318636 
-5.81995 11.8266 -7.8789 0 0 1.5 0.102192 0.32611 
-5.87046 11.5541 -8.14823 0 0 1.5 0.0980914 0.322383 
-5.91596 11.2777 -8.41443 0 0 1.5 0.0949322 0.314206 
-5.93969 10.9868 -8.668 0 0 1.5 0.092589 0.302578 
-5.9553 10.6926 -8.91797 0 0 1.5 0.0898263 0.274731 
-5.95427 10.3915 -9.16054 0 0 1.5 0.0891981 0.26057 
-5.93964 10.0878 -9.39898 0 0 1.5 0.0889662 0.247164 
-5.91412 9.78199 -9.63411 0 0 1.5 0.089088 0.2348 
-5.87042 9.47511 -9.86494 0 0 1.5 0.0904621 0.21268 
-5.82151 9.16793 -10.0945 0 0 1.5 0.0918239 0.202581 
-5.75196 8.86033 -10.3182 0 0 1.5 0.093759 0.192577 
-5.67944 8.55243 -10.5403 0 0 1.5 0.0999373 0.171063 
-5.59221 8.24282 -10.7548 0 0 1.5 0.104528 0.159349 
-5.5017 7.93158 -10.9654 0 0 1.5 0.11039 0.146955 
-5.40251 7.61602 -11.1655 0 0 1.5 0.117758 0.133976 
-5.30128 7.29653 -11.3579 0 0 1.5 0.138068 0.107623 
-5.19648 6.97011 -11.5366 0 0 1.5 0.151641 0.0950152 
-5.09236 6.63711 -11.7023 0 0 1.5 0.168011 0.0831966 
-4.98917 6.29526 -11.8505 0 0 1.5 0.18766 0.0722067 
-4.89062 5.94465 -11.9781 0 0 1.5 0.23924 0.0525851 
-4.79679 5.58511 -12.0849 0 0 1.5 0.27271 0.0439138 
-4.71335 5.2161 -12.1591 0 0 1.5 0.312528 0.0356748 
-4.63681 4.84081 -12.2117 0 0 1.5 0.415208 0.0193161 
-4.57948 4.45967 -12.2119 0 0 1.5 0.479675 0.0109012 
-4.52914 4.07722 -12.1932 0 0 1.5 0.552908 0.00183559 
-4.50906 3.7032 -12.0974 0 0 1.5 0.633048 -0.00829998 
-4.50486 3.34432 -11.9632 0 0 1.5 0.792699 -0.0312002 
-4.52195 3.00574 -11.7773 0 0 1.5 0.853465 -0.0432179 
-4.57562 2.73387 -11.5097 0 0 1.5 0.886295 -0.0548202 
-4.65037 2.52336 -11.2012 0 0 1.5 0.88336 -0.0648644 
-4.74549 2.38255 -10.8567 0 0 1.5 0.777666 -0.0776135 
-4.86126 2.3534 -10.489 0 0 1.5 0.69418 -0.0810124 
-4.98313 2.40323 -10.1294 0 0 1.5 0.605315 -0.0833437 
-5.10737 2.50082 -9.77801 0 0 1.5 0.440617 -0.0879327 
-5.22943 2.67163 -9.45336 0 0 1.5 0.371127 -0.0920382 
-5.34705 2.86848 -9.14388 0 0 1.5 0.310846 -0.0985414 
-5.4594 3.09633 -8.85245 0 0 1.5 0.259039 -0.108492 
-5.56216 3.34686 -8.57739 0 0 1.5 0.176511 -0.146855 
-5.65955 3.6101 -8.31152 0 0 1.5 0.143668 -0.183366 
-5.74208 3.88745 -8.05548 0 0 1.5 0.115363 -0.242435 
-5.81948 4.16968 -7.80285 0 0 1.5 0.0911955 -0.340926 
-5.8757 4.45616 -7.54958 0 0 1.5 0.0568218 -0.743537 
-5.92748 4.74352 -7.29618 0 0 1.5 0.0499875 -0.924907 
-5.9498 5.02174 -7.02878 0 0 1.5 0.0524628 -0.831804 
-5.96559 5.29554 -6.75688 0 0 1.5 0.0626337 -0.594231 
-5.95194 5.54595 -6.46263 0 0 1.5 0.0951031 -0.288102 
-5.92465 5.77681 -6.15537 0 0 1.5 0.114586 -0.216544 
-5.87846 5.98057 -5.83008 0 0 1.5 0.135532 -0.17174 
-5.81393 6.13704 -5.4839 0 0 1.5 0.180957 -0.123075 
-5.74207 6.27025 -5.12891 0 0 1.5 0.205028 -0.109306 
-5.65934 6.34003 -4.75775 0 0 1.5 0.229508 -0.0992427 
-5.5764 6.37718 -4.3837 0 0 1.5 0.253786 -0.0916948 
-5.49322 6.375 -4.00615 0 0 1.5 0.298493 -0.0807686 
-5.41621 6.32012 -3.63242 0 0 1.5 0.316866 -0.0760701 
-5.34171 6.246 -3.26066 0 0 1.5 0.331111 -0.071541 
-5.27921 6.1108 -2.90389 0 0 1.5 0.34034 -0.067079 
-5.221 5.95706 -2.55532 0 0 1.5 0.341918 -0.0573391 
-5.17225 5.76249 -2.22482 0 0 1.5 0.334434 -0.0520997 
-5.13024 5.53816 -1.91444 0 0 1.5 0.322297 -0.0469253 
-5.09352 5.29052 -1.61983 0 0 1.5 0.288188 -0.0364911 
-5.06352 5.0077 -1.35914 0 0 1.5 0.26834 -0.0313175 
-5.0353 4.71547 -1.10767 0 0 1.5 0.247873 -0.0263555 
-5.0113 4.39012 -0.900205 0 0 1.5 0.227498 -0.0214871 
-4.98747 4.06021 -0.70094 0 0 1.5 0.18889 -0.0115843 
-4.96435 3.71186 -0.534839 0 0 1.5 0.171192 -0.00650308 
-4.94087 3.35854 -0.380659 0 0 1.5 0.15473 -0.00112597 
-4.91672 2.99591 -0.248796 0 0 1.5 0.139526 0.00478372 
-4.89189 2.62948 -0.128813 0 0 1.5 0.112735 0.0190859 
-4.86627 2.25863 -0.0225723 0 0 1.5 0.101003 0.0281389 
-4.84004 1.88533 0.07413 0 0 1.5 0.090276 0.0391161 
-4.81333 1.51005 0.163118 0 0 1.5 0.0804737 0.0527416 
-4.78613 1.13336 0.245632 0 0 1.5 0.0633221 0.0922292 
-4.75865 0.755836 0.324311 0 0 1.5 0.0558552 0.121134 
-4.73032 0.377641 0.399341 0 0 1.5 0.0490801 0.159207 
-4.70163 -0.000839713 0.472817 0 0 1.5 0.0375756 0.275877 
-4.67078 -0.379449 0.544731 0 0 1.5 0.0329329 0.359367 
-4.63934 -0.758093 0.616214 0 0 1.5 0.0291658 0.456673 
-4.60314 -1.13635 0.687497 0 0 1.5 0.0264235 0.552709 
-4.5663 -1.51454 0.758753 0 0 1.5 0.0245496 0.622187 
-4.52076 -1.89171 0.830483 0 0 1.5 0.0254181 0.566863 
-4.47367 -2.26864 0.90229 0 0 1.5 0.0272581 0.478548 
-4.41615 -2.64405 0.974615 0 0 1.5 0.0298186 0.385163 
-4.35476 -3.01876 1.04708 0 0 1.5 0.0362486 0.234027 
-4.28299 -3.39161 1.11991 0 0 1.5 0.0398213 0.180144 
-4.20494 -3.76306 1.193 0 0 1.5 0.0435099 0.137667 
-4.11812 -4.13257 1.26645 0 0 1.5 0.0510452 0.0769033 
-4.02338 -4.49992 1.34056 0 0 1.5 0.054844 0.0551699 
-3.92234 -4.86556 1.41519 0 0 1.5 0.0586565 0.0374297 
-3.81286 -5.22837 1.49144 0 0 1.5 0.0624949 0.0227573 
-3.69944 -5.58986 1.56845 0 0 1.5 0.0703404 0.000737002 
-3.5779 -5.94797 1.64865 0 0 1.5 0.0743999 -0.0073635 
-3.45414 -6.30515 1.72973 0 0 1.5 0.0785982 -0.0139561 
-3.32234 -6.65814 1.81621 0 0 1.5 0.0829768 -0.0191283 
-3.18929 -7.01048 1.90354 0 0 1.5 0.0923836 -0.0256681 
-3.04697 -7.35705 1.99886 0 0 1.5 0.097459 -0.0274208 
-2.90388 -7.70315 2.09484 0 0 1.5 0.102806 -0.0282678 
-2.74847 -8.04076 2.20127 0 0 1.5 0.11427 -0.0275865 
-2.59235 -8.37786 2.30825 0 0 1.5 0.12033 -0.0263439 
-2.41906 -8.70226 2.42743 0 0 1.5 0.126545 -0.0245946 
-2.24369 -9.02499 2.54774 0 0 1.5 0.132837 -0.0223782 
-2.0468 -9.33036 2.67984 0 0 1.5 0.145232 -0.0167975 
-1.84419 -9.63051 2.81421 0 0 1.5 0.151076 -0.0135624 
-1.61731 -9.90845 2.95824 0 0 1.5 0.156498 -0.0101126 
-1.37872 -10.1736 3.10531 0 0 1.5 0.161348 -0.00641549 
-1.11721 -10.4138 3.25829 0 0 1.5 0.168693 0.00181482 
-0.837031 -10.6283 3.4134 0 0 1.5 0.170898 0.00628225 
-0.540302 -10.8201 3.57039 0 0 1.5 0.171967 0.0110702 
-0.220788 -10.9698 3.72591 0 0 1.5 0.171807 0.0162911 
0.106279 -11.1057 3.88095 0 0 1.5 0.167643 0.0276956 
0.454134 -11.1855 4.02932 0 0 1.5 0.163707 0.033959 
0.80453 -11.2545 4.17593 0 0 1.5 0.158632 0.0408462 
1.16427 -11.2804 4.31517 0 0 1.5 0.145542 0.0564492 
1.52521 -11.2916 4.45168 0 0 1.5 0.137844 0.0654213 
1.88846 -11.2747 4.58295 0 0 1.5 0.129594 0.0756099 
2.25112 -11.2433 4.71222 0 0 1.5 0.120949 0.0872515 
2.6131 -11.1951 4.83918 0 0 1.5 0.103087 0.116298 
2.97319 -11.1361 4.96658 0 0 1.5 0.094148 0.135044 
3.33178 -11.0685 5.09432 0 0 1.5 0.0853613 0.157872 
3.68771 -10.9958 5.22646 0 0 1.5 0.076831 0.186124 
4.04222 -10.9202 5.36094 0 0 1.5 0.0609426 0.266155 
4.39335 -10.8465 5.50485 0 0 1.5 0.0538013 0.322929 
4.74344 -10.7733 5.65165 0 0 1.5 0.0473619 0.394604 
5.08857 -10.7098 5.81379 0 0 1.5 0.0373023 0.574206 
5.43254 -10.6488 5.97925 0 0 1.5 0.0341266 0.656255 
5.77024 -10.6013 6.16139 0 0 1.5 0.0324624 0.699249 
6.10531 -10.5586 6.34911 0 0 1.5 0.0323782 0.68289 
6.43467 -10.526 6.54894 0 0 1.5 0.0362948 0.524477 
6.75949 -10.4991 6.75664 0 0 1.5 0.0397191 0.434647 
7.0804 -10.477 6.97111 0 0 1.5 0.0437631 0.357129 
7.39592 -10.458 7.19365 0 0 1.5 0.0482355 0.294268 
7.70961 -10.4401 7.41892 0 0 1.5 0.0579934 0.203586 
8.01819 -10.4214 7.65106 0 0 1.5 0.0631478 0.170481 
8.32607 -10.4023 7.88411 0 0 1.5 0.0684377 0.142879 
8.63044 -10.3811 8.12155 0 0 1.5 0.0793424 0.0985901 
8.93419 -10.3599 8.35979 0 0 1.5 0.0849183 0.0801144 
9.23574 -10.3391 8.60083 0 0 1.5 0.0905573 0.0632815 
9.53655 -10.3208 8.84297 0 0 1.5 0.0962474 0.0478305 
9.83588 -10.3076 9.0873 0 0 1.5 0.107684 0.0201789 
10.134 -10.3027 9.3332 0 0 1.5 0.11338 0.00737928 
10.4307 -10.3079 9.58107 0 0 1.5 0.119031 -0.00469841 
10.7247 -10.3308 9.83054 0 0 1.5 0.124606 -0.0159527 
11.0168 -10.3669 10.0812 0 0 1.5 0.135395 -0.0369888 
11.3026 -10.434 10.3321 0 0 1.5 0.140546 -0.0467137 
11.5858 -10.5132 10.583 0 0 1.5 0.145499 -0.0555521 
11.855 -10.6385 10.8301 0 0 1.5 0.150227 -0.0637015 
12.1203 -10.774 11.0759 0 0 1.5 0.158897 -0.0781519 
12.3638 -10.958 11.3133 0 0 1.5 0.162799 -0.0838598 
12.5982 -11.1559 11.547 0 0 1.5 0.166392 -0.0885506 
12.8099 -11.3887 11.7716 0 0 1.5 0.172561 -0.0949156 
13.0045 -11.6397 11.9903 0 0 1.5 0.175092 -0.0961147 
13.1785 -11.9124 12.2021 0 0 1.5 0.177223 -0.0959523 
13.3274 -12.2027 12.4079 0 0 1.5 0.178917 -0.0944785 
13.4594 -12.5048 12.6098 0 0 1.5 0.180838 -0.0873862 
13.5589 -12.8204 12.8084 0 0 1.5 0.181006 -0.0816703 
13.6457 -13.1414 13.0058 0 0 1.5 0.180597 -0.074489 
13.6922 -13.4694 13.2041 0 0 1.5 0.179573 -0.066105 
13.7309 -13.7989 13.4027 0 0 1.5 0.175614 -0.0462358 
13.7208 -14.1267 13.6073 0 0 1.5 0.172667 -0.0344725 
13.7028 -14.4529 13.8132 0 0 1.5 0.169078 -0.0218158 
13.6405 -14.769 14.027 0 0 1.5 0.160138 0.00543196 
13.5634 -15.079 14.2434 0 0 1.5 0.154897 0.0206319 
13.4532 -15.3756 14.4655 0 0 1.5 0.149229 0.0366619 
13.3214 -15.6605 14.6899 0 0 1.5 0.143225 0.0531447 
13.1688 -15.9341 14.9165 0 0 1.5 0.130601 0.0887547 
12.9914 -16.1928 15.1416 0 0 1.5 0.124174 0.107946 
12.8039 -16.4457 15.3661 0 0 1.5 0.117808 0.127517 
12.5917 -16.6865 15.5814 0 0 1.5 0.1116 0.147431 
12.3749 -16.926 15.7936 0 0 1.5 0.100011 0.187307 
12.1408 -17.1636 15.989 0 0 1.5 0.094772 0.206194 
11.903 -17.4045 16.1753 0 0 1.5 0.0899745 0.223347 
11.6573 -17.6524 16.3415 0 0 1.5 0.0856455 0.237814 
11.4108 -17.9114 16.4868 0 0 1.5 0.0783824 0.257009 
11.1635 -18.1807 16.6125 0 0 1.5 0.0753919 0.260763 
10.9242 -18.4697 16.7015 0 0 1.5 0.0727517 0.26005 
10.6883 -18.767 16.7753 0 0 1.5 0.0681932 0.249684 
10.4746 -19.0873 16.7986 0 0 1.5 0.0661171 0.241502 
10.265 -19.4119 16.8128 0 0 1.5 0.0640701 0.231658 
10.0553 -19.7364 16.8271 0 0 1.5 0.0619773 0.22144 
9.84566 -20.0609 16.8413 0 0 1.5 0.0574722 0.203276 
9.636 -20.3854 16.8556 0 0 1.5 0.0550022 0.195215 
9.42634 -20.7099 16.8698 0 0 1.5 0.0523657 0.188436 
9.21668 -21.0344 16.884 0 0 1.5 0.0495672 0.183588 
9.00702 -21.359 16.8983 0 0 1.5 0.0435569 0.179119 
8.79736 -21.6835 16.9125 0 0 1.5 0.0403971 0.179781 
8.5877 -22.008 16.9267 0 0 1.5 0.0371752 0.183223 
8.37805 -22.3325 16.941 0 0 1.5 0.0306927 0.199326 
8.16839 -22.657 16.9552 0 0 1.5 0.0275117 0.213279 
7.95873 -22.9815 16.9694 0 0 1.5 0.0244167 0.233373 
7.74907 -23.306 16.9837 0 0 1.5 0.0214415 0.261359 
7.53941 -23.6306 16.9979 0 0 1.5 0.0160061 0.350945 
7.32975 -23.9551 17.0121 0 0 1.5 0.0136214 0.420953 
7.12009 -24.2796 17.0264 0 0 1.5 0.0115119 0.513174 
6.91043 -24.6041 17.0406 0 0 1.5 0.00972919 0.625858 
6.70077 -24.9286 17.0549 0 0 1.5 0.00734937 0.839192 
6.49111 -25.2531 17.0691 0 0 1.5 0.00679938 0.861927 
6.28145 -25.5776 17.0833 0 0 1.5 0.00662445 0.798366 
6.07179 -25.9022 17.0976 0 0 1.5 0.00694658 0.565281 
5.86213 -26.2267 17.1118 0 0 1.5 0.00722272 0.463363 
5.65247 -26.5512 17.126 0 0 1.5 0.00747657 0.382873 
5.44281 -26.8757 17.1403 0 0 1.5 0.00766756 0.322478 
5.23315 -27.2002 17.1545 0 0 1.5 0.00779102 0.247002 
5.0235 -27.5247 17.1687 0 0 1.5 0.00771594 0.223599 
4.81384 -27.8493 17.183 0 0 1.5 0.00755432 0.207029 
4.60418 -28.1738 17.1972 0 0 1.5 0.00731359 0.19658 
4.39452 -28.4983 17.2114 0 0 1.5 0.00663594 0.188894 
4.18486 -28.8228 17.2257 0 0 1.5 0.00622236 0.190756 
3.9752 -29.1473 17.2399 0 0 1.5 0.00577348 0.197305 
3.76554 -29.4718 17.2542 0 0 1.5 0.00530023 0.208668 
3.55588 -29.7963 17.2684 0 0 1.5 0.00432659 0.248085 
3.34622 -30.1209 17.2826 0 0 1.5 0.00384638 0.280884 
3.13656 -30.4454 17.2969 0 0 1.5 0.00338292 0.32605 
2.9269 -30.7699 17.3111 0 0 1.5 0.00254986 0.465028 
2.71724 -31.0944 17.3253 0 0 1.5 0.00220318 0.564337 
2.50758 -31.4189 17.3396 0 0 1.5 0.00191995 0.675544 
2.29792 -31.7434 17.3538 0 0 1.5 0.00171387 0.771444 
2.08826 -32.0679 17.368 0 0 1.5 0.00155713 0.781851 
1.8786 -32.3925 17.3823 0 0 1.5 0.00159 0.689399 
1.66895 -32.717 17.3965 0 0 1.5 0.00167114 0.573452 
1.45929 -33.0415 17.4108 0 0 1.5 0.00177957 0.464719 
1.24963 -33.366 17.425 0 0 1.5 0.00201971 0.305483 
1.03997 -33.6905 17.4392 0 0 1.5 0.00213466 0.250487 
0.830308 -34.015 17.4535 0 0 1.5 0.0022405 0.20749 
0.620649 -34.3396 17.4677 0 0 1.5 0.00241919 0.146967 
0.410989 -34.6641 17.4819 0 0 1.5 0.00249208 0.124656 
0.20133 -34.9886 17.4962 0 0 1.5 0.00255505 0.106055 
-0.00832945 -35.3131 17.5104 0 0 1.5 0.00260892 0.0906532 
-0.217989 -35.6376 17.5246 0 0 1.5 0.00269374 0.066521 
-0.427648 -35.9621 17.5389 0 0 1.5 0.00272727 0.0570155 
-0.637308 -36.2866 17.5531 0 0 1.5 0.00275613 0.049105 
-0.846967 -36.6112 17.5673 0 0 1.5 0.00278111 0.0425793 
-1.05663 -36.9357 17.5816 0 0 1.5 0.00282285 0.0330867 
-1.26629 -37.2602 17.5958 0 0 1.5 0.00284101 0.0299446 
-1.47595 -37.5847 17.6101 0 0 1.5 0.00285803 0.0277908 
0 1 0 
1 2 0 
2 3 0 
3 4 0 
4 5 0 
5 6 0 
6 7 0 
7 8 0 
8 9 0 
9 10 0 
10 11 0 
11 12 0 
12 13 0 
13 14 0 
14 15 0 
15 16 0 
16 17 0 
17 18 0 
18 19 0 
19 20 0 
20 21 0 
21 22 0 
22 23 0 
23 24 0 
24 25 0 
25 26 0 
26 27 0 
27 28 0 
28 29 0 
29 30 0 
30 31 0 
31 32 0 
32 33 0 
33 34 0 
34 35 0 
35 36 0 
36 37 0 
37 38 0 
38 39 0 
39 40 0 
40 41 0 
41 42 0 
42 43 0 
43 44 0 
44 45 0 
45 46 0 
46 47 0 
47 48 0 
48 49 0 
49 50 0 
50 51 0 
51 52 0 
52 53 0 
53 54 0 
54 55 0 
55 56 0 
56 57 0 
57 58 0 
58 59 0 
59 60 0 
60 61 0 
61 62 0 
62 63 0 
63 64 0 
64 65 0 
65 66 0 
66 67 0 
67 68 0 
68 69 0 
69 70 0 
70 71 0 
71 72 0 
72 73 0 
73 74 0 
74 75 0 
75 76 0 
76 77 0 
77 78 0 
78 79 0 
79 80 0 
80 81 0 
81 82 0 
82 83 0 
83 84 0 
84 85 0 
85 86 0 
86 87 0 
87 88 0 
88 89 0 
89 90 0 
90 91 0 
91 92 0 
92 93 0 
93 94 0 
94 95 0 
95 96 0 
96 97 0 
97 98 0 
98 99 0 
99 100 0 
100 101 0 
101 102 0 
102 103 0 
103 104 0 
104 105 0 
105 106 0 
106 107 0 
107 108 0 
108 109 0 
109 110 0 
110 111 0 
111 112 0 
112 113 0 
113 114 0 
114 115 0 
115 116 0 
116 117 0 
117 118 0 
118 119 0 
119 120 0 
120 121 0 
121 122 0 
122 123 0 
123 124 0 
124 125 0 
125 126 0 
126 127 0 
127 128 0 
128 129 0 
129 130 0 
130 131 0 
131 132 0 
132 133 0 
133 134 0 
134 135 0 
135 136 0 
136 137 0 
137 138 0 
138 139 0 
139 140 0 
140 141 0 
141 142 0 
142 143 0 
143 144 0 
144 145 0 
145 146 0 
146 147 0 
147 148 0 
148 149 0 
149 150 0 
150 151 0 
151 152 0 
152 153 0 
153 154 0 
154 155 0 
155 156 0 
156 157 0 
157 158 0 
158 159 0 
159 160 0 
160 161 0 
161 162 0 
162 163 0 
163 164 0 
164 165 0 
165 166 0 
166 167 0 
167 168 0 
168 169 0 
169 170 0 
170 171 0 
171 172 0 
172 173 0 
173 174 0 
174 175 0 
175 176 0 
176 177 0 
177 178 0 
178 179 0 
179 180 0 
180 181 0 
181 182 0 
182 183 0 
183 184 0 
184 185 0 
185 186 0 
186 187 0 
187 188 0 
188 189 0 
189 190 0 
190 191 0 
191 192 0 
192 193 0 
193 194 0 
194 195 0 
195 196 0 
196 197 0 
197 198 0 
198 199 0 
199 200 0 
200 201 0 
201 202 0 
202 203 0 
203 204 0 
204 205 0 
205 206 0 
206 207 0 
207 208 0 
208 209 0 
209 210 0 
210 211 0 
211 212 0 
212 213 0 
213 214 0 
214 215 0 
215 216 0 
216 217 0 
217 218 0 
218 219 0 
219 220 0 
220 221 0 
221 222 0 
222 223 0 
223 224 0 
224 225 0 
225 226 0 
226 227 0 
227 228 0 
228 229 0 
229 230 0 
230 231 0 
231 232 0 
232 233 0 
233 234 0 
234 235 0 
235 236 0 
236 237 0 
237 238 0 
238 239 0 
239 240 0 
240 241 0 
241 242 0 
242 243 0 
243 244 0 
244 245 0 
245 246 0 
246 247 0 
247 248 0 
248 249 0 
249 250 0 
250 251 0 
251 252 0 
252 253 0 
253 254 0 
254 255 0 
255 256 0 
256 257 0 
257 258 0 
258 259 0 
259 260 0 
260 261 0 
261 262 0 
262 263 0 
263 264 0 
264 265 0 
265 266 0 
266 267 0 
267 268 0 
268 269 0 
269 270 0 
270 271 0 
271 272 0 
272 273 0 
273 274 0 
274 275 0 
275 276 0 
276 277 0 
277 278 0 
278 279 0 
279 280 0 
280 281 0 
281 282 0 
282 283 0 
283 284 0 
284 285 0 
285 286 0 
286 287 0 
287 288 0 
288 289 0 
289 290 0 
290 291 0 
291 292 0 
292 293 0 
293 294 0 
294 295 0 
295 296 0 
296 297 0 
297 298 0 
298 299 0 
-1 -1 0 
-1 300 0 1 2 3 4 5 6 7 8 9 10 11 12 13 14 15 16 17 18 19 20 21 22 23 24 25 26 27 28 29 30 31 32 33 34 35 36 37 38 39 40 41 42 43 44 45 46 47 48 49 50 51 52 53 54 55 56 57 58 59 60 61 62 63 64 65 66 67 68 69 70 71 72 73 74 75 76 77 78 79 80 81 82 83 84 85 86 87 88 89 90 91 92 93 94 95 96 97 98 99 100 101 102 103 104 105 106 107 108 109 110 111 112 113 114 115 116 117 118 119 120 121 122 123 124 125 126 127 128 129 130 131 132 133 134 135 136 137 138 139 140 141 142 143 144 145 146 147 148 149 150 151 152 153 154 155 156 157 158 159 160 161 162 163 164 165 166 167 168 169 170 171 172 173 174 175 176 177 178 179 180 181 182 183 184 185 186 187 188 189 190 191 192 193 194 195 196 197 198 199 200 201 202 203 204 205 206 207 208 209 210 211 212 213 214 215 216 217 218 219 220 221 222 223 224 225 226 227 228 229 230 231 232 233 234 235 236 237 238 239 240 241 242 243 244 245 246 247 248 249 250 251 252 253 254 255 256 257 258 259 260 261 262 263 264 265 266 267 268 269 270 271 272 273 274 275 276 277 278 279 280 281 282 283 284 285 286 287 288 289 290 291 292 293 294 295 296 297 298 299 
