ply
format ascii 1.0
comment written by koba@oshima.lab
element vertex 300
property float x
property float y
property float z
property int label
property int attribute
property float radius
property float curvature
property float torsion
element edge 300
property int vertex1
property int vertex2
property int label
element vertex_seq 1
property int label
property list int int vertex_indices
end_header
1.26593 30.6901 -10.7024 0 0 1.5 0.00740738 -0.0278302 
1.05158 30.4123 -10.5869 0 0 1.5 0.0072048 -0.0305499 
0.837238 30.1345 -10.4715 0 0 1.5 0.00699141 -0.0346946 
0.622893 29.8567 -10.3561 0 0 1.5 0.00676038 -0.0406508 
0.408548 29.5789 -10.2407 0 0 1.5 0.00621857 -0.0604932 
0.194203 29.3011 -10.1252 0 0 1.5 0.0058941 -0.076538 
-0.020142 29.0233 -10.0098 0 0 1.5 0.00552501 -0.0993575 
-0.234487 28.7455 -9.8944 0 0 1.5 0.00510597 -0.132828 
-0.448832 28.4677 -9.77898 0 0 1.5 0.00411096 -0.263336 
-0.663177 28.1898 -9.66355 0 0 1.5 0.00354745 -0.397757 
-0.877522 27.912 -9.54813 0 0 1.5 0.00297407 -0.634265 
-1.09187 27.6342 -9.43271 0 0 1.5 0.00246889 -1.02499 
-1.30621 27.3564 -9.31729 0 0 1.5 0.00238351 -1.33941 
-1.52056 27.0786 -9.20187 0 0 1.5 0.00304252 -0.90418 
-1.7349 26.8008 -9.08644 0 0 1.5 0.00403586 -0.563749 
-1.94925 26.523 -8.97102 0 0 1.5 0.00659057 -0.253509 
-2.16359 26.2452 -8.8556 0 0 1.5 0.00804659 -0.187015 
-2.37794 25.9674 -8.74018 0 0 1.5 0.00958267 -0.145447 
-2.59228 25.6895 -8.62475 0 0 1.5 0.0111688 -0.118507 
-2.80663 25.4117 -8.50933 0 0 1.5 0.014375 -0.0893667 
-3.02097 25.1339 -8.39391 0 0 1.5 0.0159392 -0.082009 
-3.23532 24.8561 -8.27849 0 0 1.5 0.0174332 -0.0776921 
-3.44966 24.5783 -8.16306 0 0 1.5 0.0188211 -0.0759307 
-3.66401 24.3005 -8.04764 0 0 1.5 0.0211406 -0.0791925 
-3.87835 24.0227 -7.93222 0 0 1.5 0.0219981 -0.0842961 
-4.0927 23.7449 -7.8168 0 0 1.5 0.0226025 -0.0922747 
-4.30704 23.4671 -7.70137 0 0 1.5 0.0229144 -0.120302 
-4.52139 23.1893 -7.58595 0 0 1.5 0.0225677 -0.143122 
-4.73573 22.9114 -7.47053 0 0 1.5 0.0218627 -0.175635 
-4.95008 22.6336 -7.35511 0 0 1.5 0.0207956 -0.223244 
-5.16442 22.3558 -7.23969 0 0 1.5 0.0177019 -0.402348 
-5.37877 22.078 -7.12426 0 0 1.5 0.015882 -0.567584 
-5.59311 21.8002 -7.00884 0 0 1.5 0.0142006 -0.804163 
-5.80746 21.5224 -6.89342 0 0 1.5 0.0131583 -1.05537 
-6.0218 21.2446 -6.778 0 0 1.5 0.015498 -0.946823 
-6.22283 20.9648 -6.64545 0 0 1.5 0.0192232 -0.682077 
-6.41878 20.6842 -6.50637 0 0 1.5 0.0242658 -0.471029 
-6.60407 20.4019 -6.3568 0 0 1.5 0.0303214 -0.32854 
-6.78693 20.1193 -6.20484 0 0 1.5 0.0447683 -0.173967 
-6.9627 19.8342 -6.049 0 0 1.5 0.0529688 -0.131216 
-7.137 19.5487 -5.89234 0 0 1.5 0.0617211 -0.100149 
-7.30749 19.2598 -5.73774 0 0 1.5 0.0805946 -0.0587154 
-7.47711 18.9701 -5.58361 0 0 1.5 0.0905648 -0.044099 
-7.64568 18.6756 -5.43782 0 0 1.5 0.100767 -0.0318272 
-7.81404 18.38 -5.29384 0 0 1.5 0.111085 -0.0211187 
-7.9839 18.0773 -5.16748 0 0 1.5 0.131481 -0.00231899 
-8.15429 17.773 -5.04622 0 0 1.5 0.141222 0.00638885 
-8.32798 17.4604 -4.95363 0 0 1.5 0.1504 0.0150638 
-8.50321 17.1442 -4.88211 0 0 1.5 0.158801 0.024 
-8.68042 16.8232 -4.83742 0 0 1.5 0.172466 0.0424085 
-8.85705 16.4996 -4.85262 0 0 1.5 0.177428 0.0520578 
-9.02888 16.1801 -4.9115 0 0 1.5 0.180985 0.0623163 
-9.19331 15.868 -5.01756 0 0 1.5 0.183744 0.0838602 
-9.34277 15.572 -5.18033 0 0 1.5 0.183074 0.0950116 
-9.47507 15.2932 -5.38194 0 0 1.5 0.181199 0.106548 
-9.596 15.0241 -5.60344 0 0 1.5 0.178288 0.118131 
-9.70353 14.7651 -5.84388 0 0 1.5 0.170247 0.139914 
-9.79771 14.5106 -6.09431 0 0 1.5 0.165569 0.149757 
-9.88637 14.2569 -6.34775 0 0 1.5 0.160729 0.158404 
-9.96201 14.0006 -6.60273 0 0 1.5 0.155895 0.165401 
-10.0323 13.7408 -6.85561 0 0 1.5 0.146747 0.173304 
-10.0937 13.4754 -7.10499 0 0 1.5 0.142587 0.173994 
-10.1462 13.203 -7.34864 0 0 1.5 0.138719 0.172792 
-10.1922 12.9254 -7.58805 0 0 1.5 0.13171 0.165328 
-10.2248 12.6391 -7.81892 0 0 1.5 0.128445 0.160005 
-10.2526 12.3497 -8.04678 0 0 1.5 0.125222 0.154691 
-10.2613 12.0523 -8.26545 0 0 1.5 0.12195 0.149769 
-10.2662 11.7536 -8.48268 0 0 1.5 0.114944 0.142839 
-10.247 11.451 -8.6937 0 0 1.5 0.11109 0.142162 
-10.2209 11.1491 -8.90449 0 0 1.5 0.106953 0.143963 
-10.1721 10.8491 -9.11449 0 0 1.5 0.102526 0.148732 
-10.109 10.5539 -9.32665 0 0 1.5 0.0929192 0.169156 
-10.0277 10.2647 -9.54153 0 0 1.5 0.0878953 0.186096 
-9.9236 9.98843 -9.76278 0 0 1.5 0.0828827 0.208666 
-9.80889 9.71821 -9.98698 0 0 1.5 0.0780602 0.236756 
-9.6649 9.47181 -10.2213 0 0 1.5 0.0700983 0.303465 
-9.51412 9.23202 -10.4579 0 0 1.5 0.0677039 0.334831 
-9.34252 9.0138 -10.7016 0 0 1.5 0.0669811 0.354326 
-9.16301 8.80467 -10.9471 0 0 1.5 0.0723438 0.33073 
-8.9723 8.60845 -11.1952 0 0 1.5 0.079029 0.292243 
-8.77394 8.41955 -11.4429 0 0 1.5 0.0885747 0.247023 
-8.57032 8.23567 -11.6902 0 0 1.5 0.10104 0.202777 
-8.36092 8.05174 -11.9326 0 0 1.5 0.135289 0.13129 
-8.14949 7.8678 -12.1732 0 0 1.5 0.157719 0.104852 
-7.93508 7.6722 -12.4017 0 0 1.5 0.184406 0.083512 
-7.72037 7.47352 -12.6271 0 0 1.5 0.216156 0.0659247 
-7.50728 7.25056 -12.8303 0 0 1.5 0.299405 0.0376291 
-7.29707 7.0161 -13.0219 0 0 1.5 0.353965 0.0254832 
-7.09305 6.75691 -13.1881 0 0 1.5 0.419691 0.0134905 
-6.90324 6.46881 -13.3158 0 0 1.5 0.592885 -0.0133584 
-6.72742 6.16036 -13.4103 0 0 1.5 0.703068 -0.0290689 
-6.58123 5.82269 -13.4427 0 0 1.5 0.827348 -0.047192 
-6.48381 5.4725 -13.3916 0 0 1.5 0.958613 -0.0681456 
-6.43681 5.1341 -13.2661 0 0 1.5 1.17678 -0.112781 
-6.44341 4.82683 -13.0699 0 0 1.5 1.2198 -0.131396 
-6.49871 4.56457 -12.8165 0 0 1.5 1.19907 -0.144409 
-6.60589 4.38342 -12.513 0 0 1.5 1.12014 -0.150526 
-6.73375 4.25664 -12.1937 0 0 1.5 0.871009 -0.146219 
-6.87522 4.17004 -11.8646 0 0 1.5 0.741482 -0.140631 
-7.02952 4.1555 -11.5293 0 0 1.5 0.624121 -0.135322 
-7.18336 4.17347 -11.1959 0 0 1.5 0.436707 -0.129486 
-7.33663 4.23064 -10.8647 0 0 1.5 0.364912 -0.130477 
-7.48037 4.33132 -10.541 0 0 1.5 0.304938 -0.135211 
-7.62004 4.45053 -10.2205 0 0 1.5 0.2547 -0.144777 
-7.73924 4.61421 -9.91219 0 0 1.5 0.17649 -0.186407 
-7.85533 4.78461 -9.60572 0 0 1.5 0.14586 -0.226664 
-7.94153 4.99314 -9.31336 0 0 1.5 0.119743 -0.290016 
-8.02532 5.20384 -9.02193 0 0 1.5 0.0978114 -0.388891 
-8.07645 5.43908 -8.74176 0 0 1.5 0.0681976 -0.713849 
-8.12363 5.67569 -8.46231 0 0 1.5 0.0631207 -0.828304 
-8.13963 5.9232 -8.18858 0 0 1.5 0.0660135 -0.776674 
-8.1489 6.17039 -7.91459 0 0 1.5 0.0759086 -0.620562 
-8.13118 6.41631 -7.63953 0 0 1.5 0.109459 -0.359444 
-8.10256 6.65622 -7.36068 0 0 1.5 0.130852 -0.284598 
-8.05384 6.88508 -7.07486 0 0 1.5 0.154656 -0.234234 
-7.98843 7.0917 -6.77672 0 0 1.5 0.208623 -0.175929 
-7.91223 7.28359 -6.47051 0 0 1.5 0.238291 -0.15858 
-7.81467 7.41431 -6.13908 0 0 1.5 0.269066 -0.145528 
-7.7106 7.49554 -5.79721 0 0 1.5 0.300026 -0.135501 
-7.60151 7.51618 -5.44735 0 0 1.5 0.357213 -0.120379 
-7.49384 7.45049 -5.10017 0 0 1.5 0.379976 -0.113407 
-7.39697 7.30392 -4.7773 0 0 1.5 0.396369 -0.106442 
-7.30877 7.11283 -4.47641 0 0 1.5 0.404995 -0.0994505 
-7.22939 6.88274 -4.19856 0 0 1.5 0.396974 -0.0841786 
-7.16078 6.6138 -3.95553 0 0 1.5 0.381429 -0.0761855 
-7.09493 6.33446 -3.72365 0 0 1.5 0.360142 -0.0685452 
-7.03445 6.03407 -3.51736 0 0 1.5 0.307705 -0.0540994 
-6.9748 5.72677 -3.32184 0 0 1.5 0.279809 -0.0473955 
-6.91631 5.40984 -3.14135 0 0 1.5 0.252403 -0.0412157 
-6.85689 5.08712 -2.97215 0 0 1.5 0.22624 -0.0353612 
-6.79672 4.75962 -2.81225 0 0 1.5 0.179189 -0.0237958 
-6.73399 4.42758 -2.6633 0 0 1.5 0.158556 -0.0178406 
-6.66988 4.09307 -2.52036 0 0 1.5 0.139811 -0.0113515 
-6.60218 3.75485 -2.38836 0 0 1.5 0.122849 -0.00384273 
-6.53328 3.41538 -2.26008 0 0 1.5 0.0936935 0.0167369 
-6.4605 3.07259 -2.14338 0 0 1.5 0.0811842 0.0319116 
-6.38703 2.7292 -2.02882 0 0 1.5 0.0698761 0.0527794 
-6.31038 2.38276 -1.92612 0 0 1.5 0.0596665 0.0825175 
-6.23325 2.03567 -1.82611 0 0 1.5 0.042263 0.192519 
-6.15458 1.68652 -1.73474 0 0 1.5 0.0351005 0.29335 
-6.07535 1.33636 -1.64795 0 0 1.5 0.0291696 0.441162 
-5.99549 0.985054 -1.5664 0 0 1.5 0.0225743 0.773766 
-5.91478 0.632731 -1.49034 0 0 1.5 0.0227342 0.772476 
-5.83373 0.280003 -1.41645 0 0 1.5 0.0250695 0.637863 
-5.75069 -0.0732008 -1.3472 0 0 1.5 0.0289485 0.476048 
-5.66673 -0.426272 -1.27841 0 0 1.5 0.0391872 0.248536 
-5.57987 -0.778848 -1.21065 0 0 1.5 0.0449303 0.180985 
-5.49006 -1.13044 -1.14174 0 0 1.5 0.0508754 0.132909 
-5.39707 -1.48098 -1.07161 0 0 1.5 0.0569336 0.0978219 
-5.29743 -1.82874 -0.997056 0 0 1.5 0.0691376 0.0513586 
-5.19537 -2.17548 -0.920903 0 0 1.5 0.0751714 0.0358292 
-5.08108 -2.51626 -0.83578 0 0 1.5 0.0810857 0.0236264 
-4.96283 -2.85487 -0.747897 0 0 1.5 0.0923357 0.00623653 
-4.83237 -3.18673 -0.651494 0 0 1.5 0.0975628 0.000435452 
-4.69251 -3.51279 -0.549474 0 0 1.5 0.102456 -0.00386697 
-4.54276 -3.83274 -0.441536 0 0 1.5 0.106968 -0.0069228 
-4.37677 -4.14163 -0.326107 0 0 1.5 0.114703 -0.00972969 
-4.20506 -4.44662 -0.208031 0 0 1.5 0.117875 -0.00965431 
-4.01004 -4.73423 -0.0828127 0 0 1.5 0.120565 -0.00869269 
-3.80928 -5.01717 0.0433293 0 0 1.5 0.122773 -0.00698579 
-3.58971 -5.28474 0.172329 0 0 1.5 0.125803 -0.00167455 
-3.35953 -5.54267 0.301481 0 0 1.5 0.126677 0.00194529 
-3.11623 -5.78868 0.430821 0 0 1.5 0.127171 0.00600271 
-2.85839 -6.01963 0.558843 0 0 1.5 0.127208 0.0148738 
-2.59285 -6.24262 0.686167 0 0 1.5 0.12685 0.0197598 
-2.31041 -6.44501 0.810991 0 0 1.5 0.126309 0.024705 
-2.02457 -6.64316 0.935312 0 0 1.5 0.125634 0.0294506 
-1.72166 -6.81591 1.05717 0 0 1.5 0.124067 0.0384178 
-1.41626 -6.98393 1.17887 0 0 1.5 0.123249 0.0424379 
-1.09906 -7.12952 1.29984 0 0 1.5 0.122451 0.045848 
-0.778295 -7.26595 1.42124 0 0 1.5 0.121695 0.0486395 
-0.450064 -7.38316 1.54359 0 0 1.5 0.120348 0.0522621 
-0.118262 -7.48666 1.66772 0 0 1.5 0.119754 0.0529309 
0.2176 -7.57454 1.79389 0 0 1.5 0.119194 0.0528114 
0.55602 -7.64405 1.92373 0 0 1.5 0.118643 0.051908 
0.896062 -7.70191 2.0559 0 0 1.5 0.117428 0.0479945 
1.23671 -7.73678 2.19378 0 0 1.5 0.116689 0.0450279 
1.57755 -7.76433 2.33347 0 0 1.5 0.115803 0.0413656 
1.91625 -7.76467 2.48059 0 0 1.5 0.113405 0.0327822 
2.25442 -7.76048 2.62896 0 0 1.5 0.111806 0.0280095 
2.58791 -7.72939 2.78474 0 0 1.5 0.109889 0.0228281 
2.91988 -7.69245 2.94202 0 0 1.5 0.107619 0.0174708 
3.24648 -7.63474 3.10463 0 0 1.5 0.101933 0.00686725 
3.57016 -7.56812 3.26921 0 0 1.5 0.0984946 0.00143572 
3.88899 -7.48672 3.43705 0 0 1.5 0.0946562 -0.0039133 
4.20373 -7.39457 3.60668 0 0 1.5 0.0904294 -0.0089379 
4.51486 -7.29292 3.77787 0 0 1.5 0.0808963 -0.0182551 
4.82146 -7.1802 3.95011 0 0 1.5 0.0756483 -0.0224554 
5.12597 -7.06235 4.12284 0 0 1.5 0.0701276 -0.0260722 
5.42636 -6.9343 4.29544 0 0 1.5 0.0584366 -0.0311957 
5.72593 -6.80425 4.46802 0 0 1.5 0.0523562 -0.0324384 
6.0227 -6.66598 4.63906 0 0 1.5 0.0461827 -0.0325163 
6.31934 -6.52695 4.8097 0 0 1.5 0.0399685 -0.0308031 
6.61538 -6.38386 4.97801 0 0 1.5 0.0276947 -0.016498 
6.91176 -6.2403 5.14531 0 0 1.5 0.0218739 0.00200099 
7.20899 -6.09557 5.3101 0 0 1.5 0.0166372 0.0377655 
7.50733 -5.95123 5.47319 0 0 1.5 0.0127663 0.0935252 
7.80711 -5.8074 5.6341 0 0 1.5 0.0142499 0.0439871 
8.10882 -5.66536 5.79293 0 0 1.5 0.0189771 -0.00609592 
8.41195 -5.52461 5.95024 0 0 1.5 0.0247433 -0.0306143 
8.71769 -5.38739 6.10559 0 0 1.5 0.037715 -0.0460709 
9.02447 -5.2516 6.26015 0 0 1.5 0.0446759 -0.0475217 
9.33419 -5.12161 6.41381 0 0 1.5 0.0519279 -0.0475691 
9.6445 -4.99279 6.5673 0 0 1.5 0.0594939 -0.0465801 
9.95778 -4.87293 6.722 0 0 1.5 0.0756957 -0.0426117 
10.2713 -4.75418 6.87695 0 0 1.5 0.0844155 -0.0402807 
10.5873 -4.6479 7.03601 0 0 1.5 0.0936148 -0.0378161 
10.9035 -4.54416 7.19616 0 0 1.5 0.103338 -0.0352331 
11.2211 -4.45568 7.36286 0 0 1.5 0.124512 -0.0300167 
11.5386 -4.37338 7.53233 0 0 1.5 0.136031 -0.0274769 
11.8561 -4.30898 7.70986 0 0 1.5 0.148195 -0.0250233 
12.1723 -4.25712 7.89273 0 0 1.5 0.160994 -0.0226338 
12.4868 -4.2242 8.08365 0 0 1.5 0.188302 -0.0180271 
12.7969 -4.21435 8.28304 0 0 1.5 0.202628 -0.0159154 
13.1038 -4.22113 8.48853 0 0 1.5 0.217197 -0.0138897 
13.3989 -4.26662 8.70502 0 0 1.5 0.246045 -0.00999674 
13.6891 -4.32625 8.92497 0 0 1.5 0.259658 -0.00821881 
13.9584 -4.43408 9.15361 0 0 1.5 0.272186 -0.00652559 
14.2135 -4.56616 9.38361 0 0 1.5 0.283154 -0.00488355 
14.4498 -4.73009 9.6154 0 0 1.5 0.29857 -0.0019728 
14.6516 -4.93807 9.84279 0 0 1.5 0.302284 -0.00074083 
14.8347 -5.16665 10.066 0 0 1.5 0.302998 0.000363831 
14.9773 -5.43388 10.2774 0 0 1.5 0.300624 0.00132339 
15.0863 -5.72461 10.4745 0 0 1.5 0.28721 0.00275805 
15.1738 -6.03032 10.6625 0 0 1.5 0.276774 0.00325217 
15.207 -6.36203 10.8216 0 0 1.5 0.264388 0.00362265 
15.2231 -6.69872 10.97 0 0 1.5 0.235711 0.00405196 
15.2078 -7.04455 11.0989 0 0 1.5 0.220318 0.0041137 
15.1672 -7.3937 11.2101 0 0 1.5 0.204717 0.0041098 
15.1126 -7.74467 11.3115 0 0 1.5 0.189217 0.00407419 
15.0325 -8.09559 11.3935 0 0 1.5 0.159418 0.00386593 
14.9479 -8.44643 11.4721 0 0 1.5 0.1454 0.00370837 
14.8438 -8.79516 11.5354 0 0 1.5 0.13208 0.00355911 
14.7379 -9.14353 11.5972 0 0 1.5 0.1195 0.00340363 
14.6211 -9.48986 11.6507 0 0 1.5 0.0966122 0.00302613 
14.5026 -9.83576 11.7031 0 0 1.5 0.0862828 0.00283587 
14.3786 -10.1803 11.7521 0 0 1.5 0.0766673 0.00263658 
14.2536 -10.5244 11.8008 0 0 1.5 0.0677468 0.00240737 
14.1263 -10.8678 11.849 0 0 1.5 0.0519175 0.00184336 
13.9985 -11.2109 11.8978 0 0 1.5 0.0449761 0.00148667 
13.87 -11.5537 11.9473 0 0 1.5 0.0386859 0.00104237 
13.7415 -11.8964 11.9969 0 0 1.5 0.028133 -0.000287393 
13.613 -12.2392 12.0464 0 0 1.5 0.0239324 -0.00125247 
13.4845 -12.5819 12.096 0 0 1.5 0.0205264 -0.00239557 
13.356 -12.9247 12.1455 0 0 1.5 0.0179761 -0.00359175 
13.2275 -13.2674 12.1951 0 0 1.5 0.0154231 -0.00501345 
13.099 -13.6102 12.2446 0 0 1.5 0.0151966 -0.00482262 
12.9706 -13.9529 12.2942 0 0 1.5 0.0153943 -0.00422192 
12.8421 -14.2957 12.3437 0 0 1.5 0.0157997 -0.00348248 
12.7136 -14.6384 12.3933 0 0 1.5 0.0166213 -0.00213513 
12.5851 -14.9812 12.4428 0 0 1.5 0.0168544 -0.00160777 
12.4566 -15.3239 12.4924 0 0 1.5 0.0169075 -0.00116461 
12.3281 -15.6667 12.5419 0 0 1.5 0.0164343 -0.000478123 
12.1996 -16.0095 12.5915 0 0 1.5 0.0159221 -0.00020271 
12.0711 -16.3522 12.641 0 0 1.5 0.0152474 5.72389e-05 
11.9426 -16.695 12.6906 0 0 1.5 0.0144334 0.000307051 
11.8142 -17.0377 12.7401 0 0 1.5 0.0125032 0.000798729 
11.6857 -17.3805 12.7897 0 0 1.5 0.0114432 0.00108406 
11.5572 -17.7232 12.8392 0 0 1.5 0.0103557 0.00141242 
11.4287 -18.066 12.8887 0 0 1.5 0.00926953 0.00178959 
11.3002 -18.4087 12.9383 0 0 1.5 0.00721255 0.0028083 
11.1717 -18.7515 12.9878 0 0 1.5 0.00629247 0.00349653 
11.0432 -19.0942 13.0374 0 0 1.5 0.0054812 0.00427947 
10.9147 -19.437 13.0869 0 0 1.5 0.00428146 0.0058508 
10.7862 -19.7798 13.1365 0 0 1.5 0.00392043 0.00630118 
10.6578 -20.1225 13.186 0 0 1.5 0.00371468 0.00627311 
10.5293 -20.4653 13.2356 0 0 1.5 0.00363679 0.0058109 
10.4008 -20.808 13.2851 0 0 1.5 0.00370486 0.00437903 
10.2723 -21.1508 13.3347 0 0 1.5 0.00377788 0.00369675 
10.1438 -21.4935 13.3842 0 0 1.5 0.00384143 0.0031289 
10.0153 -21.8363 13.4338 0 0 1.5 0.00388036 0.00268459 
9.88683 -22.179 13.4833 0 0 1.5 0.00385642 0.00207451 
9.75834 -22.5218 13.5329 0 0 1.5 0.00378923 0.00187367 
9.62985 -22.8645 13.5824 0 0 1.5 0.00368658 0.00173035 
9.50136 -23.2073 13.632 0 0 1.5 0.00355171 0.00163189 
9.37287 -23.55 13.6815 0 0 1.5 0.00320288 0.00153949 
9.24439 -23.8928 13.7311 0 0 1.5 0.00299812 0.00154903 
9.1159 -24.2356 13.7806 0 0 1.5 0.00277949 0.00159657 
8.98741 -24.5783 13.8302 0 0 1.5 0.0023219 0.00181448 
8.85892 -24.9211 13.8797 0 0 1.5 0.00209266 0.00200607 
8.73043 -25.2638 13.9293 0 0 1.5 0.0018692 0.00226898 
8.60194 -25.6066 13.9788 0 0 1.5 0.00165673 0.00261327 
8.47345 -25.9493 14.0284 0 0 1.5 0.00128654 0.00359797 
8.34497 -26.2921 14.0779 0 0 1.5 0.00114004 0.00420363 
8.21648 -26.6348 14.1275 0 0 1.5 0.00102743 0.00475078 
8.08799 -26.9776 14.177 0 0 1.5 0.00095325 0.00507042 
7.9595 -27.3203 14.2266 0 0 1.5 0.00091762 0.00463862 
7.83101 -27.6631 14.2761 0 0 1.5 0.00094456 0.004015 
7.70252 -28.0058 14.3257 0 0 1.5 0.000989786 0.00334189 
7.57403 -28.3486 14.3752 0 0 1.5 0.00110481 0.00222332 
7.44555 -28.6914 14.4248 0 0 1.5 0.00116456 0.00180475 
7.31706 -29.0341 14.4743 0 0 1.5 0.0012219 0.00146921 
7.18857 -29.3769 14.5239 0 0 1.5 0.00127529 0.00120464 
7.06008 -29.7196 14.5734 0 0 1.5 0.00136802 0.000822542 
6.93159 -30.0624 14.623 0 0 1.5 0.00140748 0.000684203 
6.8031 -30.4051 14.6725 0 0 1.5 0.00144269 0.000574049 
6.67462 -30.7479 14.7221 0 0 1.5 0.00147412 0.000486508 
6.54613 -31.0906 14.7716 0 0 1.5 0.00152811 0.000364011 
6.41764 -31.4334 14.8212 0 0 1.5 0.00155191 0.000324237 
6.28915 -31.7761 14.8707 0 0 1.5 0.00157434 0.000296558 
0 1 0 
1 2 0 
2 3 0 
3 4 0 
4 5 0 
5 6 0 
6 7 0 
7 8 0 
8 9 0 
9 10 0 
10 11 0 
11 12 0 
12 13 0 
13 14 0 
14 15 0 
15 16 0 
16 17 0 
17 18 0 
18 19 0 
19 20 0 
20 21 0 
21 22 0 
22 23 0 
23 24 0 
24 25 0 
25 26 0 
26 27 0 
27 28 0 
28 29 0 
29 30 0 
30 31 0 
31 32 0 
32 33 0 
33 34 0 
34 35 0 
35 36 0 
36 37 0 
37 38 0 
38 39 0 
39 40 0 
40 41 0 
41 42 0 
42 43 0 
43 44 0 
44 45 0 
45 46 0 
46 47 0 
47 48 0 
48 49 0 
49 50 0 
50 51 0 
51 52 0 
52 53 0 
53 54 0 
54 55 0 
55 56 0 
56 57 0 
57 58 0 
58 59 0 
59 60 0 
60 61 0 
61 62 0 
62 63 0 
63 64 0 
64 65 0 
65 66 0 
66 67 0 
67 68 0 
68 69 0 
69 70 0 
70 71 0 
71 72 0 
72 73 0 
73 74 0 
74 75 0 
75 76 0 
76 77 0 
77 78 0 
78 79 0 
79 80 0 
80 81 0 
81 82 0 
82 83 0 
83 84 0 
84 85 0 
85 86 0 
86 87 0 
87 88 0 
88 89 0 
89 90 0 
90 91 0 
91 92 0 
92 93 0 
93 94 0 
94 95 0 
95 96 0 
96 97 0 
97 98 0 
98 99 0 
99 100 0 
100 101 0 
101 102 0 
102 103 0 
103 104 0 
104 105 0 
105 106 0 
106 107 0 
107 108 0 
108 109 0 
109 110 0 
110 111 0 
111 112 0 
112 113 0 
113 114 0 
114 115 0 
115 116 0 
116 117 0 
117 118 0 
118 119 0 
119 120 0 
120 121 0 
121 122 0 
122 123 0 
123 124 0 
124 125 0 
125 126 0 
126 127 0 
127 128 0 
128 129 0 
129 130 0 
130 131 0 
131 132 0 
132 133 0 
133 134 0 
134 135 0 
135 136 0 
136 137 0 
137 138 0 
138 139 0 
139 140 0 
140 141 0 
141 142 0 
142 143 0 
143 144 0 
144 145 0 
145 146 0 
146 147 0 
147 148 0 
148 149 0 
149 150 0 
150 151 0 
151 152 0 
152 153 0 
153 154 0 
154 155 0 
155 156 0 
156 157 0 
157 158 0 
158 159 0 
159 160 0 
160 161 0 
161 162 0 
162 163 0 
163 164 0 
164 165 0 
165 166 0 
166 167 0 
167 168 0 
168 169 0 
169 170 0 
170 171 0 
171 172 0 
172 173 0 
173 174 0 
174 175 0 
175 176 0 
176 177 0 
177 178 0 
178 179 0 
179 180 0 
180 181 0 
181 182 0 
182 183 0 
183 184 0 
184 185 0 
185 186 0 
186 187 0 
187 188 0 
188 189 0 
189 190 0 
190 191 0 
191 192 0 
192 193 0 
193 194 0 
194 195 0 
195 196 0 
196 197 0 
197 198 0 
198 199 0 
199 200 0 
200 201 0 
201 202 0 
202 203 0 
203 204 0 
204 205 0 
205 206 0 
206 207 0 
207 208 0 
208 209 0 
209 210 0 
210 211 0 
211 212 0 
212 213 0 
213 214 0 
214 215 0 
215 216 0 
216 217 0 
217 218 0 
218 219 0 
219 220 0 
220 221 0 
221 222 0 
222 223 0 
223 224 0 
224 225 0 
225 226 0 
226 227 0 
227 228 0 
228 229 0 
229 230 0 
230 231 0 
231 232 0 
232 233 0 
233 234 0 
234 235 0 
235 236 0 
236 237 0 
237 238 0 
238 239 0 
239 240 0 
240 241 0 
241 242 0 
242 243 0 
243 244 0 
244 245 0 
245 246 0 
246 247 0 
247 248 0 
248 249 0 
249 250 0 
250 251 0 
251 252 0 
252 253 0 
253 254 0 
254 255 0 
255 256 0 
256 257 0 
257 258 0 
258 259 0 
259 260 0 
260 261 0 
261 262 0 
262 263 0 
263 264 0 
264 265 0 
265 266 0 
266 267 0 
267 268 0 
268 269 0 
269 270 0 
270 271 0 
271 272 0 
272 273 0 
273 274 0 
274 275 0 
275 276 0 
276 277 0 
277 278 0 
278 279 0 
279 280 0 
280 281 0 
281 282 0 
282 283 0 
283 284 0 
284 285 0 
285 286 0 
286 287 0 
287 288 0 
288 289 0 
289 290 0 
290 291 0 
291 292 0 
292 293 0 
293 294 0 
294 295 0 
295 296 0 
296 297 0 
297 298 0 
298 299 0 
-1 -1 0 
-1 300 0 1 2 3 4 5 6 7 8 9 10 11 12 13 14 15 16 17 18 19 20 21 22 23 24 25 26 27 28 29 30 31 32 33 34 35 36 37 38 39 40 41 42 43 44 45 46 47 48 49 50 51 52 53 54 55 56 57 58 59 60 61 62 63 64 65 66 67 68 69 70 71 72 73 74 75 76 77 78 79 80 81 82 83 84 85 86 87 88 89 90 91 92 93 94 95 96 97 98 99 100 101 102 103 104 105 106 107 108 109 110 111 112 113 114 115 116 117 118 119 120 121 122 123 124 125 126 127 128 129 130 131 132 133 134 135 136 137 138 139 140 141 142 143 144 145 146 147 148 149 150 151 152 153 154 155 156 157 158 159 160 161 162 163 164 165 166 167 168 169 170 171 172 173 174 175 176 177 178 179 180 181 182 183 184 185 186 187 188 189 190 191 192 193 194 195 196 197 198 199 200 201 202 203 204 205 206 207 208 209 210 211 212 213 214 215 216 217 218 219 220 221 222 223 224 225 226 227 228 229 230 231 232 233 234 235 236 237 238 239 240 241 242 243 244 245 246 247 248 249 250 251 252 253 254 255 256 257 258 259 260 261 262 263 264 265 266 267 268 269 270 271 272 273 274 275 276 277 278 279 280 281 282 283 284 285 286 287 288 289 290 291 292 293 294 295 296 297 298 299 
