ply
format ascii 1.0
comment written by koba@oshima.lab
element vertex 300
property float x
property float y
property float z
property int label
property int attribute
property float radius
property float curvature
property float torsion
element edge 300
property int vertex1
property int vertex2
property int label
element vertex_seq 1
property int label
property list int int vertex_indices
end_header
10.7 21.8166 1.74048 0 0 1.5 0.0255956 0.00385766 
10.43 21.6013 1.59876 0 0 1.5 0.0254391 0.00413355 
10.1599 21.3861 1.45704 0 0 1.5 0.0252726 0.00468621 
9.8898 21.1708 1.31533 0 0 1.5 0.0250903 0.00552298 
9.61972 20.9556 1.17361 0 0 1.5 0.0246541 0.00811717 
9.34963 20.7403 1.03189 0 0 1.5 0.0243813 0.00996286 
9.07955 20.5251 0.89017 0 0 1.5 0.024055 0.0122432 
8.80947 20.3098 0.748452 0 0 1.5 0.0236626 0.0150337 
8.53938 20.0946 0.606733 0 0 1.5 0.022615 0.0224629 
8.2693 19.8793 0.465015 0 0 1.5 0.021915 0.0275256 
7.99922 19.6641 0.323296 0 0 1.5 0.0210673 0.0340279 
7.72913 19.4489 0.181578 0 0 1.5 0.020049 0.0425176 
7.45905 19.2336 0.0398596 0 0 1.5 0.0173918 0.0706156 
7.18897 19.0184 -0.101859 0 0 1.5 0.0157001 0.0963854 
6.91888 18.8031 -0.243577 0 0 1.5 0.013736 0.139557 
6.6488 18.5879 -0.385296 0 0 1.5 0.00896725 0.399918 
6.37872 18.3726 -0.527014 0 0 1.5 0.00626201 0.909891 
6.10864 18.1574 -0.668732 0 0 1.5 0.00388787 2.62512 
5.83855 17.9421 -0.810451 0 0 1.5 0.00405441 2.69088 
5.56847 17.7269 -0.952169 0 0 1.5 0.0116569 0.412283 
5.29839 17.5116 -1.09389 0 0 1.5 0.016683 0.228609 
5.0283 17.2964 -1.23561 0 0 1.5 0.0222249 0.146821 
4.75822 17.0812 -1.37732 0 0 1.5 0.0282299 0.104309 
4.48814 16.8659 -1.51904 0 0 1.5 0.0415134 0.0645122 
4.21805 16.6507 -1.66076 0 0 1.5 0.048706 0.0544374 
3.94797 16.4354 -1.80248 0 0 1.5 0.0561781 0.0477056 
3.67789 16.2202 -1.9442 0 0 1.5 0.0716409 0.0401718 
3.4078 16.0049 -2.08592 0 0 1.5 0.0793981 0.0380769 
3.13772 15.7897 -2.22763 0 0 1.5 0.0869613 0.0368399 
2.86764 15.5744 -2.36935 0 0 1.5 0.0941494 0.0363941 
2.59755 15.3592 -2.51107 0 0 1.5 0.106583 0.0370765 
2.32747 15.1439 -2.65279 0 0 1.5 0.111381 0.0382047 
2.05739 14.9287 -2.79451 0 0 1.5 0.114935 0.0400521 
1.7873 14.7134 -2.93623 0 0 1.5 0.117045 0.0425477 
1.51722 14.4982 -3.07794 0 0 1.5 0.116393 0.0497968 
1.24142 14.2616 -3.15577 0 0 1.5 0.113463 0.0554212 
0.96404 14.0191 -3.216 0 0 1.5 0.108761 0.062932 
0.690891 13.7662 -3.20867 0 0 1.5 0.102377 0.0729544 
0.418442 13.5116 -3.19083 0 0 1.5 0.0850562 0.108558 
0.156952 13.2574 -3.11106 0 0 1.5 0.0743957 0.142623 
-0.103163 13.0041 -3.02557 0 0 1.5 0.0626835 0.200886 
-0.354256 12.7568 -2.90247 0 0 1.5 0.0373594 0.569798 
-0.604122 12.5115 -2.77352 0 0 1.5 0.0253067 1.26353 
-0.849903 12.273 -2.6251 0 0 1.5 0.0183061 2.49024 
-1.09636 12.0369 -2.47394 0 0 1.5 0.0236355 1.5692 
-1.34424 11.8061 -2.31695 0 0 1.5 0.0541119 0.354905 
-1.59667 11.5777 -2.1638 0 0 1.5 0.072557 0.223296 
-1.85498 11.3526 -2.01562 0 0 1.5 0.0922554 0.1604 
-2.1245 11.1299 -1.88581 0 0 1.5 0.113056 0.127295 
-2.40071 10.9087 -1.76696 0 0 1.5 0.157554 0.0982555 
-2.69618 10.6915 -1.69862 0 0 1.5 0.180947 0.092699 
-2.99768 10.4779 -1.6622 0 0 1.5 0.204713 0.0906599 
-3.30753 10.2703 -1.67731 0 0 1.5 0.2514 0.092774 
-3.61108 10.0773 -1.77182 0 0 1.5 0.273048 0.0957731 
-3.90224 9.89506 -1.9112 0 0 1.5 0.292471 0.099785 
-4.17546 9.72602 -2.1013 0 0 1.5 0.308767 0.104358 
-4.41294 9.57348 -2.34417 0 0 1.5 0.329095 0.113455 
-4.63398 9.42668 -2.60542 0 0 1.5 0.332189 0.117682 
-4.82072 9.28968 -2.89819 0 0 1.5 0.330436 0.121458 
-4.98418 9.15582 -3.20484 0 0 1.5 0.324207 0.124571 
-5.12613 9.02486 -3.52431 0 0 1.5 0.301022 0.128824 
-5.23518 8.89427 -3.85595 0 0 1.5 0.285697 0.130242 
-5.33269 8.76382 -4.19186 0 0 1.5 0.268993 0.131449 
-5.38919 8.63024 -4.53565 0 0 1.5 0.234229 0.133626 
-5.43744 8.49572 -4.88023 0 0 1.5 0.217194 0.135037 
-5.44864 8.35628 -5.22634 0 0 1.5 0.200845 0.137107 
-5.44686 8.21469 -5.57125 0 0 1.5 0.185383 0.13994 
-5.41926 8.06883 -5.91378 0 0 1.5 0.157541 0.148559 
-5.37255 7.91956 -6.2523 0 0 1.5 0.145239 0.154944 
-5.31134 7.76769 -6.58778 0 0 1.5 0.13403 0.16293 
-5.22691 7.61204 -6.91623 0 0 1.5 0.123915 0.1726 
-5.13523 7.45538 -7.24235 0 0 1.5 0.10702 0.196811 
-5.02235 7.2967 -7.56085 0 0 1.5 0.100333 0.210513 
-4.90159 7.1383 -7.87639 0 0 1.5 0.0949329 0.224002 
-4.76796 6.98036 -8.18713 0 0 1.5 0.090946 0.235422 
-4.62181 6.82478 -8.49323 0 0 1.5 0.0878381 0.243133 
-4.4689 6.67048 -8.79682 0 0 1.5 0.0890385 0.236383 
-4.3 6.52085 -9.09415 0 0 1.5 0.0922625 0.222315 
-4.12786 6.37212 -9.3901 0 0 1.5 0.105159 0.179622 
-3.94111 6.22725 -9.67906 0 0 1.5 0.115008 0.155974 
-3.75179 6.08235 -9.96625 0 0 1.5 0.127293 0.133319 
-3.55265 5.9373 -10.2467 0 0 1.5 0.142195 0.112652 
-3.35117 5.78998 -10.5242 0 0 1.5 0.180988 0.0780614 
-3.14403 5.63717 -10.7946 0 0 1.5 0.205726 0.0639267 
-2.9358 5.47769 -11.06 0 0 1.5 0.234778 0.05165 
-2.72569 5.30676 -11.3169 0 0 1.5 0.268849 0.0406646 
-2.51706 5.1206 -11.5636 0 0 1.5 0.355342 0.0206996 
-2.30997 4.91876 -11.7996 0 0 1.5 0.409439 0.0113202 
-2.11133 4.68356 -12.0092 0 0 1.5 0.471556 0.00177677 
-1.91984 4.42732 -12.1988 0 0 1.5 0.617968 -0.0191765 
-1.74982 4.12368 -12.3339 0 0 1.5 0.697668 -0.0302374 
-1.61802 3.78188 -12.3832 0 0 1.5 0.774879 -0.0414712 
-1.53632 3.42981 -12.3296 0 0 1.5 0.84126 -0.0524733 
-1.50995 3.10129 -12.1697 0 0 1.5 0.904973 -0.0698332 
-1.52773 2.81903 -11.9295 0 0 1.5 0.89126 -0.0744387 
-1.5806 2.60605 -11.6275 0 0 1.5 0.84884 -0.0759901 
-1.64809 2.44985 -11.2976 0 0 1.5 0.785248 -0.074971 
-1.72217 2.32611 -10.9543 0 0 1.5 0.631499 -0.067968 
-1.80199 2.26182 -10.5953 0 0 1.5 0.55566 -0.0631876 
-1.8812 2.22758 -10.2335 0 0 1.5 0.485819 -0.0584972 
-1.95974 2.22606 -9.86855 0 0 1.5 0.368751 -0.0508911 
-2.03397 2.2656 -9.50563 0 0 1.5 0.321249 -0.0479635 
-2.10669 2.31942 -9.14348 0 0 1.5 0.280126 -0.0459136 
-2.17241 2.41755 -8.78935 0 0 1.5 0.244504 -0.0450416 
-2.23654 2.52552 -8.43815 0 0 1.5 0.186495 -0.0470551 
-2.29698 2.65638 -8.0938 0 0 1.5 0.162686 -0.0505014 
-2.35707 2.80006 -7.75468 0 0 1.5 0.141551 -0.0563858 
-2.41721 2.95128 -7.41872 0 0 1.5 0.122619 -0.0656131 
-2.48323 3.11055 -7.08761 0 0 1.5 0.0899246 -0.101321 
-2.5556 3.2695 -6.75774 0 0 1.5 0.0756115 -0.135047 
-2.6344 3.42815 -6.42913 0 0 1.5 0.0624169 -0.190182 
-2.72946 3.58117 -6.10217 0 0 1.5 0.0503018 -0.285488 
-2.83199 3.73097 -5.77608 0 0 1.5 0.0303998 -0.766248 
-2.94237 3.87738 -5.4509 0 0 1.5 0.0246901 -1.16396 
-3.06153 4.01965 -5.127 0 0 1.5 0.0244125 -1.20186 
-3.1816 4.16101 -4.80302 0 0 1.5 0.0382358 -0.510767 
-3.30235 4.3011 -4.47875 0 0 1.5 0.0485566 -0.327687 
-3.41804 4.44055 -4.15238 0 0 1.5 0.0598764 -0.225206 
-3.53106 4.57965 -3.82491 0 0 1.5 0.0719008 -0.165173 
-3.62957 4.71598 -3.49168 0 0 1.5 0.0976583 -0.104566 
-3.72392 4.85097 -3.15677 0 0 1.5 0.111328 -0.0890261 
-3.79801 4.97819 -2.81372 0 0 1.5 0.125516 -0.0787185 
-3.86338 5.0998 -2.46727 0 0 1.5 0.140222 -0.0719406 
-3.90882 5.20859 -2.11307 0 0 1.5 0.171137 -0.0654521 
-3.93854 5.30225 -1.75366 0 0 1.5 0.187303 -0.0646154 
-3.95174 5.38001 -1.38877 0 0 1.5 0.203908 -0.0648007 
-3.94242 5.42716 -1.01948 0 0 1.5 0.238208 -0.0676682 
-3.92271 5.4602 -0.648162 0 0 1.5 0.255729 -0.0700418 
-3.87605 5.4428 -0.278701 0 0 1.5 0.273346 -0.0727553 
-3.82347 5.41231 0.0889733 0 0 1.5 0.29089 -0.0757392 
-3.74957 5.32642 0.444673 0 0 1.5 0.324767 -0.0821859 
-3.67016 5.2196 0.791875 0 0 1.5 0.340471 -0.0853011 
-3.57959 5.0705 1.12192 0 0 1.5 0.354821 -0.0882036 
-3.48398 4.88944 1.43206 0 0 1.5 0.367316 -0.0908431 
-3.384 4.68084 1.72506 0 0 1.5 0.38463 -0.0950103 
-3.28179 4.43252 1.98247 0 0 1.5 0.388487 -0.0964392 
-3.17879 4.17032 2.22742 0 0 1.5 0.388598 -0.0974902 
-3.07844 3.86404 2.41519 0 0 1.5 0.384719 -0.0982549 
-2.97999 3.54856 2.58575 0 0 1.5 0.365224 -0.0993267 
-2.88836 3.20517 2.69998 0 0 1.5 0.350183 -0.100023 
-2.80387 2.85189 2.77542 0 0 1.5 0.332237 -0.101121 
-2.72683 2.4883 2.81046 0 0 1.5 0.290298 -0.105369 
-2.66507 2.1226 2.78364 0 0 1.5 0.267604 -0.109236 
-2.60896 1.75716 2.73544 0 0 1.5 0.244502 -0.114758 
-2.57296 1.4025 2.62462 0 0 1.5 0.221488 -0.122308 
-2.54334 1.05327 2.49873 0 0 1.5 0.177166 -0.146869 
-2.52825 0.716428 2.33852 0 0 1.5 0.156306 -0.166559 
-2.52194 0.387156 2.16381 0 0 1.5 0.136529 -0.193898 
-2.52523 0.0661555 1.97327 0 0 1.5 0.117961 -0.232481 
-2.53772 -0.249662 1.7749 0 0 1.5 0.0849642 -0.369354 
-2.55639 -0.561997 1.57129 0 0 1.5 0.0709785 -0.488301 
-2.58388 -0.874808 1.3695 0 0 1.5 0.0592633 -0.653944 
-2.61523 -1.18783 1.16852 0 0 1.5 0.046089 -0.981383 
-2.655 -1.5085 0.981796 0 0 1.5 0.0462281 -0.951152 
-2.69679 -1.83102 0.798504 0 0 1.5 0.050514 -0.789243 
-2.74654 -2.16842 0.646855 0 0 1.5 0.0576228 -0.610823 
-2.79755 -2.5092 0.504481 0 0 1.5 0.0757453 -0.377622 
-2.85314 -2.86347 0.400744 0 0 1.5 0.0854569 -0.313905 
-2.90945 -3.22258 0.320348 0 0 1.5 0.0951202 -0.271639 
-2.96672 -3.58824 0.271676 0 0 1.5 0.104525 -0.243634 
-3.02181 -3.95641 0.260657 0 0 1.5 0.122215 -0.212145 
-3.07592 -4.32572 0.266882 0 0 1.5 0.130403 -0.203745 
-3.12216 -4.69262 0.316315 0 0 1.5 0.138127 -0.197966 
-3.16626 -5.05875 0.373097 0 0 1.5 0.152378 -0.189086 
-3.19754 -5.42004 0.461724 0 0 1.5 0.159032 -0.184533 
-3.22417 -5.78007 0.555764 0 0 1.5 0.16546 -0.179121 
-3.23482 -6.13581 0.668441 0 0 1.5 0.17174 -0.172319 
-3.23704 -6.48997 0.785548 0 0 1.5 0.18407 -0.153307 
-3.22004 -6.84053 0.91275 0 0 1.5 0.190162 -0.141281 
-3.19026 -7.18883 1.04257 0 0 1.5 0.196183 -0.128142 
-3.13826 -7.53321 1.17695 0 0 1.5 0.202073 -0.113812 
-3.06833 -7.8734 1.31219 0 0 1.5 0.21304 -0.0820355 
-2.97464 -8.20804 1.44857 0 0 1.5 0.217822 -0.0658127 
-2.85673 -8.53421 1.58446 0 0 1.5 0.221892 -0.0494472 
-2.71658 -8.85261 1.71989 0 0 1.5 0.225048 -0.03279 
-2.54481 -9.15438 1.85447 0 0 1.5 0.227875 -0.0014876 
-2.35632 -9.44736 1.9886 0 0 1.5 0.22726 0.0127108 
-2.12862 -9.70967 2.12364 0 0 1.5 0.225155 0.0262717 
-1.89 -9.96205 2.25933 0 0 1.5 0.216371 0.0500255 
-1.61375 -10.1697 2.40043 0 0 1.5 0.209824 0.0600218 
-1.32572 -10.3543 2.5461 0 0 1.5 0.201992 0.0690276 
-1.01896 -10.5022 2.69906 0 0 1.5 0.193025 0.0770598 
-0.700954 -10.6015 2.86467 0 0 1.5 0.172572 0.0899288 
-0.379055 -10.6765 3.03698 0 0 1.5 0.161514 0.0947348 
-0.0583365 -10.6954 3.22709 0 0 1.5 0.150157 0.098687 
0.255945 -10.691 3.4266 0 0 1.5 0.1387 0.101893 
0.562959 -10.6601 3.63671 0 0 1.5 0.116151 0.10425 
0.855323 -10.6045 3.86148 0 0 1.5 0.105301 0.102857 
1.14278 -10.5417 4.09113 0 0 1.5 0.0948662 0.0997316 
1.41454 -10.4675 4.33609 0 0 1.5 0.0755364 0.0819493 
1.68294 -10.3944 4.58491 0 0 1.5 0.0667487 0.0637772 
1.94309 -10.3242 4.84327 0 0 1.5 0.0585876 0.03727 
2.20047 -10.2615 5.10613 0 0 1.5 0.0510884 -0.00223507 
2.45488 -10.2069 5.37381 0 0 1.5 0.0383455 -0.14552 
2.70894 -10.1666 5.64413 0 0 1.5 0.0333102 -0.256871 
2.96282 -10.1337 5.91584 0 0 1.5 0.0293915 -0.388844 
3.2196 -10.1188 6.18626 0 0 1.5 0.0268407 -0.510501 
3.47702 -10.1078 6.4564 0 0 1.5 0.026486 -0.53403 
3.74089 -10.1136 6.72038 0 0 1.5 0.0284447 -0.434991 
4.00596 -10.1209 6.9831 0 0 1.5 0.0314015 -0.317731 
4.27906 -10.1364 7.23714 0 0 1.5 0.0389631 -0.134409 
4.55477 -10.1517 7.48826 0 0 1.5 0.0430167 -0.0761072 
4.83853 -10.1665 7.73039 0 0 1.5 0.0469672 -0.0339609 
5.12658 -10.1771 7.96739 0 0 1.5 0.0506357 -0.00451449 
5.42145 -10.1812 8.19629 0 0 1.5 0.0564941 0.0275964 
5.72193 -10.1747 8.41732 0 0 1.5 0.0583836 0.0353693 
6.02717 -10.1592 8.63167 0 0 1.5 0.0593969 0.0396045 
6.3381 -10.1251 8.83493 0 0 1.5 0.0594442 0.0410348 
6.65138 -10.0832 9.03358 0 0 1.5 0.0563588 0.0369049 
6.96875 -10.0157 9.21782 0 0 1.5 0.0531185 0.0318179 
7.28674 -9.94341 9.39944 0 0 1.5 0.0487523 0.0246663 
7.60561 -9.84352 9.56588 0 0 1.5 0.0432946 0.0135121 
7.92414 -9.73941 9.73004 0 0 1.5 0.0292406 -0.0456537 
8.24103 -9.61528 9.88345 0 0 1.5 0.0208083 -0.147385 
8.55694 -9.48628 10.0346 0 0 1.5 0.0118074 -0.592621 
8.8703 -9.3446 10.1798 0 0 1.5 0.0127167 -0.617509 
9.18238 -9.19969 10.3245 0 0 1.5 0.0244949 -0.161789 
9.49209 -9.04879 10.4683 0 0 1.5 0.0375771 -0.061219 
9.80061 -8.89792 10.6146 0 0 1.5 0.0517014 -0.0250939 
10.1074 -8.74709 10.7646 0 0 1.5 0.0829764 -0.000702531 
10.4131 -8.60155 10.9215 0 0 1.5 0.100103 0.00368631 
10.7177 -8.46188 11.086 0 0 1.5 0.118188 0.00619098 
11.0208 -8.33674 11.2637 0 0 1.5 0.137162 0.00753774 
11.3228 -8.22189 11.4507 0 0 1.5 0.177197 0.00808515 
11.6202 -8.13929 11.6596 0 0 1.5 0.197708 0.00770343 
11.9154 -8.06945 11.8766 0 0 1.5 0.21797 0.0070403 
12.1969 -8.05625 12.1214 0 0 1.5 0.255387 0.00500205 
12.4667 -8.07406 12.3756 0 0 1.5 0.271063 0.00358143 
12.7201 -8.13475 12.6429 0 0 1.5 0.283644 0.00200428 
12.939 -8.25736 12.9174 0 0 1.5 0.29247 0.000378942 
13.1404 -8.4062 13.1923 0 0 1.5 0.297155 -0.00318325 
13.3028 -8.60523 13.4632 0 0 1.5 0.292804 -0.0050297 
13.4406 -8.82719 13.7277 0 0 1.5 0.284416 -0.00674786 
13.5548 -9.07124 13.9861 0 0 1.5 0.272622 -0.00837663 
13.6383 -9.33573 14.2348 0 0 1.5 0.24181 -0.0114747 
13.7092 -9.60852 14.4796 0 0 1.5 0.224312 -0.0128936 
13.7487 -9.89475 14.7153 0 0 1.5 0.206322 -0.0142575 
13.781 -10.1841 14.949 0 0 1.5 0.188352 -0.0156066 
13.7834 -10.4796 15.1766 0 0 1.5 0.153899 -0.0185216 
13.78 -10.7764 15.4031 0 0 1.5 0.13788 -0.0201797 
13.7468 -11.073 15.627 0 0 1.5 0.122833 -0.022005 
13.7079 -11.3695 15.8504 0 0 1.5 0.0958024 -0.026878 
13.6691 -11.6661 16.0737 0 0 1.5 0.083799 -0.0302785 
13.6303 -11.9627 16.2971 0 0 1.5 0.0727733 -0.0345126 
13.5914 -12.2593 16.5205 0 0 1.5 0.062696 -0.0400111 
13.5526 -12.5558 16.7439 0 0 1.5 0.0452205 -0.0577161 
13.5137 -12.8524 16.9672 0 0 1.5 0.0377835 -0.0717366 
13.4749 -13.149 17.1906 0 0 1.5 0.0312255 -0.0913432 
13.436 -13.4456 17.414 0 0 1.5 0.0255731 -0.119065 
13.3972 -13.7421 17.6373 0 0 1.5 0.0173313 -0.199473 
13.3583 -14.0387 17.8607 0 0 1.5 0.0149996 -0.234015 
13.3195 -14.3353 18.0841 0 0 1.5 0.0139172 -0.239799 
13.2807 -14.6319 18.3074 0 0 1.5 0.0144932 -0.172606 
13.2418 -14.9284 18.5308 0 0 1.5 0.0153913 -0.135238 
13.203 -15.225 18.7542 0 0 1.5 0.0163043 -0.106837 
13.1641 -15.5216 18.9775 0 0 1.5 0.0170782 -0.0864704 
13.1253 -15.8182 19.2009 0 0 1.5 0.0179296 -0.0617952 
13.0864 -16.1148 19.4243 0 0 1.5 0.0179581 -0.0547486 
13.0476 -16.4113 19.6476 0 0 1.5 0.0177239 -0.049945 
13.0087 -16.7079 19.871 0 0 1.5 0.0172454 -0.0467532 
12.9699 -17.0045 20.0944 0 0 1.5 0.0156618 -0.0444935 
12.9311 -17.3011 20.3178 0 0 1.5 0.01462 -0.0452729 
12.8922 -17.5976 20.5411 0 0 1.5 0.0134615 -0.0472094 
12.8534 -17.8942 20.7645 0 0 1.5 0.0109434 -0.0557662 
12.8145 -18.1908 20.9879 0 0 1.5 0.00964897 -0.0634249 
12.7757 -18.4874 21.2112 0 0 1.5 0.00837686 -0.0741721 
12.7368 -18.7839 21.4346 0 0 1.5 0.00716208 -0.0892988 
12.698 -19.0805 21.658 0 0 1.5 0.00502584 -0.140912 
12.6591 -19.3771 21.8813 0 0 1.5 0.00417757 -0.179133 
12.6203 -19.6737 22.1047 0 0 1.5 0.00353268 -0.219677 
12.5815 -19.9702 22.3281 0 0 1.5 0.00312374 -0.246888 
12.5426 -20.2668 22.5514 0 0 1.5 0.00297748 -0.209167 
12.5038 -20.5634 22.7748 0 0 1.5 0.00311741 -0.166967 
12.4649 -20.86 22.9982 0 0 1.5 0.00330209 -0.130562 
12.4261 -21.1565 23.2215 0 0 1.5 0.00348335 -0.103008 
12.3872 -21.4531 23.4449 0 0 1.5 0.00373618 -0.0687324 
12.3484 -21.7497 23.6683 0 0 1.5 0.00378779 -0.0588904 
12.3095 -22.0463 23.8917 0 0 1.5 0.00378827 -0.0520241 
12.2707 -22.3428 24.115 0 0 1.5 0.00365116 -0.0439168 
12.2318 -22.6394 24.3384 0 0 1.5 0.00352404 -0.0420175 
12.193 -22.936 24.5618 0 0 1.5 0.00336581 -0.0411938 
12.1542 -23.2326 24.7851 0 0 1.5 0.00318308 -0.0412204 
12.1153 -23.5292 25.0085 0 0 1.5 0.00277001 -0.0440547 
12.0765 -23.8257 25.2319 0 0 1.5 0.00255161 -0.0469688 
12.0376 -24.1223 25.4552 0 0 1.5 0.00233346 -0.0507683 
11.9988 -24.4189 25.6786 0 0 1.5 0.0021214 -0.0555168 
11.9599 -24.7155 25.902 0 0 1.5 0.00173128 -0.0682406 
11.9211 -25.012 26.1253 0 0 1.5 0.00156071 -0.0755374 
11.8822 -25.3086 26.3487 0 0 1.5 0.00141092 -0.0827229 
11.8434 -25.6052 26.5721 0 0 1.5 0.00117813 -0.0938206 
11.8046 -25.9018 26.7954 0 0 1.5 0.0010955 -0.0951956 
11.7657 -26.1983 27.0188 0 0 1.5 0.00103398 -0.0928079 
11.7269 -26.4949 27.2422 0 0 1.5 0.000990543 -0.0871826 
11.688 -26.7915 27.4656 0 0 1.5 0.00094402 -0.0691686 
11.6492 -27.0881 27.6889 0 0 1.5 0.000934543 -0.0588933 
11.6103 -27.3846 27.9123 0 0 1.5 0.000930481 -0.049248 
11.5715 -27.6812 28.1357 0 0 1.5 0.000929767 -0.0407513 
11.5326 -27.9778 28.359 0 0 1.5 0.000933529 -0.0280236 
11.4938 -28.2744 28.5824 0 0 1.5 0.00093664 -0.0237767 
11.455 -28.5709 28.8058 0 0 1.5 0.000940103 -0.0209337 
0 1 0 
1 2 0 
2 3 0 
3 4 0 
4 5 0 
5 6 0 
6 7 0 
7 8 0 
8 9 0 
9 10 0 
10 11 0 
11 12 0 
12 13 0 
13 14 0 
14 15 0 
15 16 0 
16 17 0 
17 18 0 
18 19 0 
19 20 0 
20 21 0 
21 22 0 
22 23 0 
23 24 0 
24 25 0 
25 26 0 
26 27 0 
27 28 0 
28 29 0 
29 30 0 
30 31 0 
31 32 0 
32 33 0 
33 34 0 
34 35 0 
35 36 0 
36 37 0 
37 38 0 
38 39 0 
39 40 0 
40 41 0 
41 42 0 
42 43 0 
43 44 0 
44 45 0 
45 46 0 
46 47 0 
47 48 0 
48 49 0 
49 50 0 
50 51 0 
51 52 0 
52 53 0 
53 54 0 
54 55 0 
55 56 0 
56 57 0 
57 58 0 
58 59 0 
59 60 0 
60 61 0 
61 62 0 
62 63 0 
63 64 0 
64 65 0 
65 66 0 
66 67 0 
67 68 0 
68 69 0 
69 70 0 
70 71 0 
71 72 0 
72 73 0 
73 74 0 
74 75 0 
75 76 0 
76 77 0 
77 78 0 
78 79 0 
79 80 0 
80 81 0 
81 82 0 
82 83 0 
83 84 0 
84 85 0 
85 86 0 
86 87 0 
87 88 0 
88 89 0 
89 90 0 
90 91 0 
91 92 0 
92 93 0 
93 94 0 
94 95 0 
95 96 0 
96 97 0 
97 98 0 
98 99 0 
99 100 0 
100 101 0 
101 102 0 
102 103 0 
103 104 0 
104 105 0 
105 106 0 
106 107 0 
107 108 0 
108 109 0 
109 110 0 
110 111 0 
111 112 0 
112 113 0 
113 114 0 
114 115 0 
115 116 0 
116 117 0 
117 118 0 
118 119 0 
119 120 0 
120 121 0 
121 122 0 
122 123 0 
123 124 0 
124 125 0 
125 126 0 
126 127 0 
127 128 0 
128 129 0 
129 130 0 
130 131 0 
131 132 0 
132 133 0 
133 134 0 
134 135 0 
135 136 0 
136 137 0 
137 138 0 
138 139 0 
139 140 0 
140 141 0 
141 142 0 
142 143 0 
143 144 0 
144 145 0 
145 146 0 
146 147 0 
147 148 0 
148 149 0 
149 150 0 
150 151 0 
151 152 0 
152 153 0 
153 154 0 
154 155 0 
155 156 0 
156 157 0 
157 158 0 
158 159 0 
159 160 0 
160 161 0 
161 162 0 
162 163 0 
163 164 0 
164 165 0 
165 166 0 
166 167 0 
167 168 0 
168 169 0 
169 170 0 
170 171 0 
171 172 0 
172 173 0 
173 174 0 
174 175 0 
175 176 0 
176 177 0 
177 178 0 
178 179 0 
179 180 0 
180 181 0 
181 182 0 
182 183 0 
183 184 0 
184 185 0 
185 186 0 
186 187 0 
187 188 0 
188 189 0 
189 190 0 
190 191 0 
191 192 0 
192 193 0 
193 194 0 
194 195 0 
195 196 0 
196 197 0 
197 198 0 
198 199 0 
199 200 0 
200 201 0 
201 202 0 
202 203 0 
203 204 0 
204 205 0 
205 206 0 
206 207 0 
207 208 0 
208 209 0 
209 210 0 
210 211 0 
211 212 0 
212 213 0 
213 214 0 
214 215 0 
215 216 0 
216 217 0 
217 218 0 
218 219 0 
219 220 0 
220 221 0 
221 222 0 
222 223 0 
223 224 0 
224 225 0 
225 226 0 
226 227 0 
227 228 0 
228 229 0 
229 230 0 
230 231 0 
231 232 0 
232 233 0 
233 234 0 
234 235 0 
235 236 0 
236 237 0 
237 238 0 
238 239 0 
239 240 0 
240 241 0 
241 242 0 
242 243 0 
243 244 0 
244 245 0 
245 246 0 
246 247 0 
247 248 0 
248 249 0 
249 250 0 
250 251 0 
251 252 0 
252 253 0 
253 254 0 
254 255 0 
255 256 0 
256 257 0 
257 258 0 
258 259 0 
259 260 0 
260 261 0 
261 262 0 
262 263 0 
263 264 0 
264 265 0 
265 266 0 
266 267 0 
267 268 0 
268 269 0 
269 270 0 
270 271 0 
271 272 0 
272 273 0 
273 274 0 
274 275 0 
275 276 0 
276 277 0 
277 278 0 
278 279 0 
279 280 0 
280 281 0 
281 282 0 
282 283 0 
283 284 0 
284 285 0 
285 286 0 
286 287 0 
287 288 0 
288 289 0 
289 290 0 
290 291 0 
291 292 0 
292 293 0 
293 294 0 
294 295 0 
295 296 0 
296 297 0 
297 298 0 
298 299 0 
-1 -1 0 
-1 300 0 1 2 3 4 5 6 7 8 9 10 11 12 13 14 15 16 17 18 19 20 21 22 23 24 25 26 27 28 29 30 31 32 33 34 35 36 37 38 39 40 41 42 43 44 45 46 47 48 49 50 51 52 53 54 55 56 57 58 59 60 61 62 63 64 65 66 67 68 69 70 71 72 73 74 75 76 77 78 79 80 81 82 83 84 85 86 87 88 89 90 91 92 93 94 95 96 97 98 99 100 101 102 103 104 105 106 107 108 109 110 111 112 113 114 115 116 117 118 119 120 121 122 123 124 125 126 127 128 129 130 131 132 133 134 135 136 137 138 139 140 141 142 143 144 145 146 147 148 149 150 151 152 153 154 155 156 157 158 159 160 161 162 163 164 165 166 167 168 169 170 171 172 173 174 175 176 177 178 179 180 181 182 183 184 185 186 187 188 189 190 191 192 193 194 195 196 197 198 199 200 201 202 203 204 205 206 207 208 209 210 211 212 213 214 215 216 217 218 219 220 221 222 223 224 225 226 227 228 229 230 231 232 233 234 235 236 237 238 239 240 241 242 243 244 245 246 247 248 249 250 251 252 253 254 255 256 257 258 259 260 261 262 263 264 265 266 267 268 269 270 271 272 273 274 275 276 277 278 279 280 281 282 283 284 285 286 287 288 289 290 291 292 293 294 295 296 297 298 299 
