ply
format ascii 1.0
comment written by koba@oshima.lab
element vertex 300
property float x
property float y
property float z
property int label
property int attribute
property float radius
property float curvature
property float torsion
element edge 300
property int vertex1
property int vertex2
property int label
element vertex_seq 1
property int label
property list int int vertex_indices
end_header
2.84265 29.398 -10.7645 0 0 1.5 0.0451996 0.048399 
2.69573 29.0845 -10.6966 0 0 1.5 0.0436842 0.0516387 
2.54881 28.7709 -10.6287 0 0 1.5 0.0421654 0.0555427 
2.40188 28.4574 -10.5608 0 0 1.5 0.0406381 0.0602463 
2.25496 28.1439 -10.4928 0 0 1.5 0.0375386 0.0727199 
2.10804 27.8303 -10.4249 0 0 1.5 0.035957 0.0808762 
1.96111 27.5168 -10.357 0 0 1.5 0.0343483 0.0907337 
1.81419 27.2032 -10.2891 0 0 1.5 0.0327095 0.102749 
1.66727 26.8897 -10.2212 0 0 1.5 0.0293349 0.135146 
1.52034 26.5762 -10.1532 0 0 1.5 0.027599 0.15719 
1.37342 26.2626 -10.0853 0 0 1.5 0.0258359 0.184924 
1.2265 25.9491 -10.0174 0 0 1.5 0.0240557 0.219887 
1.07957 25.6356 -9.94947 0 0 1.5 0.0205224 0.320638 
0.932652 25.322 -9.88155 0 0 1.5 0.01884 0.392695 
0.785729 25.0085 -9.81363 0 0 1.5 0.0172947 0.48144 
0.638805 24.6949 -9.74571 0 0 1.5 0.0150319 0.683009 
0.491882 24.3814 -9.67779 0 0 1.5 0.0145872 0.754956 
0.344959 24.0679 -9.60987 0 0 1.5 0.0147758 0.768828 
0.198036 23.7543 -9.54195 0 0 1.5 0.0156533 0.718569 
0.0511129 23.4408 -9.47403 0 0 1.5 0.0192838 0.530747 
-0.0958103 23.1273 -9.40611 0 0 1.5 0.0218426 0.442397 
-0.242733 22.8137 -9.33819 0 0 1.5 0.0247656 0.370136 
-0.389657 22.5002 -9.27027 0 0 1.5 0.0279736 0.314161 
-0.53658 22.1866 -9.20235 0 0 1.5 0.0350164 0.240211 
-0.683503 21.8731 -9.13443 0 0 1.5 0.0387577 0.216531 
-0.830426 21.5596 -9.06651 0 0 1.5 0.0425888 0.199259 
-0.977349 21.246 -8.99859 0 0 1.5 0.0503782 0.178674 
-1.12427 20.9325 -8.93067 0 0 1.5 0.0542632 0.173059 
-1.2712 20.619 -8.86275 0 0 1.5 0.0580883 0.170035 
-1.41812 20.3054 -8.79483 0 0 1.5 0.0618145 0.169441 
-1.56504 19.9919 -8.72691 0 0 1.5 0.0688202 0.17371 
-1.71196 19.6783 -8.65899 0 0 1.5 0.0720249 0.178418 
-1.85889 19.3648 -8.59107 0 0 1.5 0.0749852 0.18509 
-2.00581 19.0513 -8.52315 0 0 1.5 0.0776746 0.193425 
-2.15273 18.7377 -8.45523 0 0 1.5 0.0821848 0.214628 
-2.29966 18.4242 -8.38731 0 0 1.5 0.0839978 0.228093 
-2.44658 18.1107 -8.31939 0 0 1.5 0.0855315 0.243194 
-2.63084 17.8231 -8.23422 0 0 1.5 0.0868251 0.259435 
-2.82431 17.5419 -8.14478 0 0 1.5 0.088914 0.295553 
-3.04789 17.2885 -8.04572 0 0 1.5 0.0898557 0.314453 
-3.27984 17.0428 -7.944 0 0 1.5 0.0908639 0.332289 
-3.53759 16.8256 -7.84057 0 0 1.5 0.093529 0.362078 
-3.80013 16.6138 -7.73735 0 0 1.5 0.0954048 0.372002 
-4.08319 16.4258 -7.6422 0 0 1.5 0.0977853 0.376892 
-4.3709 16.2426 -7.55296 0 0 1.5 0.100752 0.376562 
-4.66911 16.0699 -7.47707 0 0 1.5 0.108609 0.361549 
-4.97295 15.9001 -7.42117 0 0 1.5 0.113505 0.347759 
-5.27986 15.7315 -7.37969 0 0 1.5 0.118993 0.331246 
-5.5868 15.5574 -7.37793 0 0 1.5 0.124995 0.313275 
-5.88618 15.3753 -7.40854 0 0 1.5 0.138112 0.275593 
-6.17544 15.1848 -7.47107 0 0 1.5 0.144983 0.256965 
-6.44262 14.9814 -7.57947 0 0 1.5 0.151865 0.239148 
-6.67988 14.7672 -7.72665 0 0 1.5 0.16503 0.206517 
-6.8951 14.5465 -7.89642 0 0 1.5 0.171009 0.191715 
-7.0844 14.3192 -8.0888 0 0 1.5 0.176384 0.177916 
-7.24414 14.0847 -8.29797 0 0 1.5 0.181013 0.16512 
-7.39147 13.8466 -8.51228 0 0 1.5 0.187627 0.142194 
-7.51664 13.6012 -8.73277 0 0 1.5 0.189465 0.131852 
-7.62896 13.3495 -8.95263 0 0 1.5 0.190269 0.122301 
-7.73041 13.0923 -9.17196 0 0 1.5 0.190054 0.113583 
-7.81481 12.824 -9.38471 0 0 1.5 0.186757 0.0981885 
-7.89455 12.5526 -9.59563 0 0 1.5 0.183836 0.0915775 
-7.95227 12.2659 -9.79306 0 0 1.5 0.180224 0.0858735 
-8.00472 11.9762 -9.98697 0 0 1.5 0.171498 0.0767482 
-8.03715 11.6748 -10.1676 0 0 1.5 0.166682 0.0733533 
-8.05773 11.3688 -10.3412 0 0 1.5 0.161777 0.0708975 
-8.06058 11.056 -10.5044 0 0 1.5 0.156947 0.0693125 
-8.04371 10.7398 -10.659 0 0 1.5 0.148179 0.068656 
-8.01286 10.4212 -10.8075 0 0 1.5 0.144601 0.0696986 
-7.9543 10.1036 -10.9488 0 0 1.5 0.141828 0.0715839 
-7.8869 9.78635 -11.0878 0 0 1.5 0.140072 0.0741983 
-7.78522 9.47737 -11.224 0 0 1.5 0.140583 0.0807035 
-7.67834 9.17006 -11.3603 0 0 1.5 0.143393 0.0840702 
-7.53703 8.8784 -11.4998 0 0 1.5 0.148291 0.0872293 
-7.38957 8.59101 -11.6409 0 0 1.5 0.155583 0.0898383 
-7.21451 8.32274 -11.7889 0 0 1.5 0.178728 0.0929114 
-7.03026 8.06336 -11.9401 0 0 1.5 0.195368 0.0938014 
-6.82523 7.82405 -12.0989 0 0 1.5 0.216029 0.0944427 
-6.60864 7.59942 -12.2622 0 0 1.5 0.272015 0.0957071 
-6.37772 7.39298 -12.4312 0 0 1.5 0.308988 0.0969909 
-6.1326 7.20858 -12.6044 0 0 1.5 0.353296 0.0989195 
-5.87912 7.03715 -12.7801 0 0 1.5 0.40609 0.101539 
-5.60697 6.89765 -12.9557 0 0 1.5 0.541213 0.109325 
-5.32629 6.77237 -13.1278 0 0 1.5 0.624165 0.114515 
-5.03027 6.67248 -13.2918 0 0 1.5 0.715522 0.120282 
-4.71238 6.60481 -13.428 0 0 1.5 0.810621 0.126022 
-4.37347 6.5696 -13.5107 0 0 1.5 0.974226 0.133716 
-4.03127 6.58125 -13.4611 0 0 1.5 1.01722 0.133844 
-3.82273 6.63279 -13.1897 0 0 1.5 1.02033 0.130599 
-3.73799 6.68049 -12.8531 0 0 1.5 0.91073 0.115919 
-3.71572 6.72046 -12.5036 0 0 1.5 0.818819 0.107189 
-3.73341 6.75417 -12.1528 0 0 1.5 0.719611 0.0990557 
-3.77049 6.78661 -11.8037 0 0 1.5 0.622793 0.0922428 
-3.81649 6.81897 -11.4554 0 0 1.5 0.45554 0.0843567 
-3.87657 6.8559 -11.1096 0 0 1.5 0.387832 0.0835639 
-3.93928 6.89677 -10.7649 0 0 1.5 0.330072 0.0849806 
-4.00741 6.9458 -10.4221 0 0 1.5 0.281049 0.0887551 
-4.0771 7.00446 -10.0814 0 0 1.5 0.204222 0.104755 
-4.14831 7.0724 -9.74254 0 0 1.5 0.174231 0.118321 
-4.21933 7.15717 -9.40767 0 0 1.5 0.1487 0.136818 
-4.29027 7.2496 -9.07461 0 0 1.5 0.108711 0.19356 
-4.35934 7.366 -8.74886 0 0 1.5 0.0935945 0.233814 
-4.42786 7.48875 -8.42536 0 0 1.5 0.0816263 0.279957 
-4.49439 7.63244 -8.11002 0 0 1.5 0.0729469 0.324081 
-4.56047 7.78376 -7.79834 0 0 1.5 0.0662514 0.349351 
-4.62598 7.94481 -7.49129 0 0 1.5 0.0681816 0.316429 
-4.69256 8.11065 -7.18706 0 0 1.5 0.073095 0.266826 
-4.76021 8.27622 -6.88292 0 0 1.5 0.0804043 0.215464 
-4.83125 8.43472 -6.57578 0 0 1.5 0.100286 0.134251 
-4.90643 8.57607 -6.26165 0 0 1.5 0.112244 0.106005 
-4.9851 8.69973 -5.94122 0 0 1.5 0.12532 0.0839699 
-5.06938 8.78539 -5.60946 0 0 1.5 0.13942 0.0664841 
-5.15713 8.82214 -5.27078 0 0 1.5 0.170423 0.041162 
-5.24589 8.81806 -4.93102 0 0 1.5 0.18719 0.0316805 
-5.33455 8.76873 -4.59307 0 0 1.5 0.204647 0.0234444 
-5.41872 8.65875 -4.26905 0 0 1.5 0.240818 0.00985394 
-5.49953 8.52283 -3.95491 0 0 1.5 0.258947 0.00410416 
-5.57559 8.35383 -3.65465 0 0 1.5 0.276558 -0.0012109 
-5.64535 8.15442 -3.37289 0 0 1.5 0.293126 -0.00605052 
-5.71277 7.94372 -3.098 0 0 1.5 0.32081 -0.0140338 
-5.77208 7.70172 -2.84831 0 0 1.5 0.330736 -0.0171867 
-5.83034 7.45596 -2.60215 0 0 1.5 0.337355 -0.0196631 
-5.88129 7.18536 -2.38151 0 0 1.5 0.34032 -0.021337 
-5.9311 6.91111 -2.16562 0 0 1.5 0.334861 -0.0221516 
-5.97464 6.61687 -1.9758 0 0 1.5 0.326739 -0.0212972 
-6.01671 6.31824 -1.79343 0 0 1.5 0.315535 -0.0196436 
-6.05322 6.00286 -1.63945 0 0 1.5 0.286098 -0.013927 
-6.08781 5.68239 -1.49744 0 0 1.5 0.269026 -0.00993209 
-6.11752 5.34889 -1.38607 0 0 1.5 0.251107 -0.00524574 
-6.14457 5.01019 -1.29439 0 0 1.5 0.232796 0.000260983 
-6.16758 4.66351 -1.23283 0 0 1.5 0.19634 0.0144935 
-6.18698 4.31365 -1.20178 0 0 1.5 0.17867 0.02361 
-6.20347 3.96125 -1.1952 0 0 1.5 0.161573 0.0347877 
-6.21542 3.61114 -1.22984 0 0 1.5 0.145126 0.0489963 
-6.22582 3.26182 -1.27856 0 0 1.5 0.114323 0.0917721 
-6.23107 2.9224 -1.37412 0 0 1.5 0.100029 0.125517 
-6.23542 2.58529 -1.47733 0 0 1.5 0.0865278 0.174156 
-6.23555 2.26055 -1.61535 0 0 1.5 0.0739192 0.246203 
-6.23447 1.93936 -1.76079 0 0 1.5 0.052545 0.512977 
-6.23014 1.62786 -1.92647 0 0 1.5 0.0450862 0.71467 
-6.22397 1.31983 -2.09824 0 0 1.5 0.0412984 0.874176 
-6.21493 1.01723 -2.2795 0 0 1.5 0.0477142 0.690214 
-6.20293 0.715866 -2.46261 0 0 1.5 0.0566789 0.501908 
-6.18812 0.415692 -2.64749 0 0 1.5 0.0679964 0.357145 
-6.16805 0.112265 -2.82637 0 0 1.5 0.0809395 0.257097 
-6.14535 -0.1928 -3.00223 0 0 1.5 0.1102 0.140178 
-6.11272 -0.508029 -3.15711 0 0 1.5 0.126085 0.10499 
-6.07569 -0.827507 -3.30108 0 0 1.5 0.142594 0.0784514 
-6.02628 -1.15864 -3.41249 0 0 1.5 0.159552 0.0574017 
-5.96475 -1.49635 -3.48835 0 0 1.5 0.19383 0.0245701 
-5.89349 -1.83808 -3.53541 0 0 1.5 0.210494 0.0109631 
-5.80219 -2.17859 -3.52065 0 0 1.5 0.226295 -0.0017347 
-5.69807 -2.50954 -3.46676 0 0 1.5 0.25331 -0.026011 
-5.58417 -2.83262 -3.38329 0 0 1.5 0.263551 -0.0375539 
-5.45141 -3.13046 -3.24848 0 0 1.5 0.271076 -0.0488784 
-5.31091 -3.41547 -3.09729 0 0 1.5 0.275608 -0.0601329 
-5.15977 -3.68284 -2.92359 0 0 1.5 0.275413 -0.0817434 
-4.99601 -3.92867 -2.73163 0 0 1.5 0.271009 -0.0919344 
-4.82684 -4.16525 -2.53184 0 0 1.5 0.264179 -0.101787 
-4.6412 -4.37462 -2.31722 0 0 1.5 0.255373 -0.111218 
-4.45305 -4.57985 -2.10055 0 0 1.5 0.233859 -0.12846 
-4.24658 -4.75526 -1.87449 0 0 1.5 0.222104 -0.136267 
-4.03751 -4.92631 -1.64783 0 0 1.5 0.210226 -0.143503 
-3.81205 -5.06967 -1.41735 0 0 1.5 0.18734 -0.155831 
-3.58222 -5.20494 -1.18688 0 0 1.5 0.176766 -0.160571 
-3.3385 -5.3145 -0.956446 0 0 1.5 0.166951 -0.164209 
-3.08888 -5.41152 -0.727461 0 0 1.5 0.157961 -0.166627 
-2.82863 -5.48592 -0.501102 0 0 1.5 0.142512 -0.16676 
-2.56147 -5.54292 -0.278588 0 0 1.5 0.135987 -0.16438 
-2.28728 -5.58217 -0.06 0 0 1.5 0.130177 -0.160625 
-2.00592 -5.59989 0.151499 0 0 1.5 0.124998 -0.155422 
-1.72077 -5.60616 0.35923 0 0 1.5 0.11614 -0.140868 
-1.42885 -5.58892 0.556301 0 0 1.5 0.112249 -0.13206 
-1.13548 -5.56666 0.751092 0 0 1.5 0.108574 -0.122362 
-0.835859 -5.52216 0.932072 0 0 1.5 0.105012 -0.111781 
-0.535352 -5.47499 1.11071 0 0 1.5 0.0978503 -0.0894451 
-0.230573 -5.41505 1.27811 0 0 1.5 0.0941031 -0.0778351 
0.0757619 -5.3521 1.44135 0 0 1.5 0.0901667 -0.0656048 
0.38516 -5.28325 1.59638 0 0 1.5 0.081559 -0.0394713 
0.696671 -5.2127 1.74623 0 0 1.5 0.0768405 -0.0250162 
1.01035 -5.14041 1.89074 0 0 1.5 0.0718327 -0.00866568 
1.32647 -5.06835 2.02988 0 0 1.5 0.0665382 0.0102086 
1.64397 -4.99642 2.16599 0 0 1.5 0.0551616 0.0606864 
1.96376 -4.92623 2.29754 0 0 1.5 0.0491445 0.098196 
2.28422 -4.85654 2.42776 0 0 1.5 0.0429748 0.151018 
2.60634 -4.78905 2.55499 0 0 1.5 0.036732 0.230079 
2.92865 -4.72182 2.68187 0 0 1.5 0.0246366 0.575865 
3.25152 -4.65571 2.80792 0 0 1.5 0.0194744 0.949662 
3.57428 -4.58947 2.93418 0 0 1.5 0.015993 1.43447 
3.89627 -4.52233 3.06194 0 0 1.5 0.0183594 1.11476 
4.21767 -4.45439 3.19073 0 0 1.5 0.0233492 0.699698 
4.53717 -4.38388 3.32283 0 0 1.5 0.0294015 0.451552 
4.8552 -4.31157 3.4574 0 0 1.5 0.0359523 0.312599 
5.17051 -4.23591 3.59655 0 0 1.5 0.0495818 0.184087 
5.48293 -4.15751 3.74046 0 0 1.5 0.0564282 0.153723 
5.79218 -4.0761 3.88961 0 0 1.5 0.0632079 0.134354 
6.09644 -3.99171 4.04691 0 0 1.5 0.0698761 0.122109 
6.39769 -3.90549 4.20916 0 0 1.5 0.0827527 0.109264 
6.69104 -3.81782 4.38438 0 0 1.5 0.0889212 0.106263 
6.98234 -3.72977 4.56297 0 0 1.5 0.0948892 0.104839 
7.26188 -3.64455 4.76071 0 0 1.5 0.106194 0.10417 
7.53825 -3.5614 4.96341 0 0 1.5 0.11153 0.104321 
7.80415 -3.48517 5.18247 0 0 1.5 0.116658 0.104714 
8.06259 -3.41679 5.41226 0 0 1.5 0.121583 0.105036 
8.31342 -3.35644 5.65298 0 0 1.5 0.130869 0.104617 
8.55163 -3.31358 5.90936 0 0 1.5 0.135248 0.10388 
8.78495 -3.27788 6.17145 0 0 1.5 0.13946 0.102662 
9.00329 -3.26693 6.44842 0 0 1.5 0.143511 0.100836 
9.21545 -3.26756 6.72983 0 0 1.5 0.15113 0.0953993 
9.41792 -3.28632 7.01821 0 0 1.5 0.154681 0.0918402 
9.61027 -3.32584 7.31094 0 0 1.5 0.158041 0.0877546 
9.79794 -3.37497 7.60567 0 0 1.5 0.161191 0.0831412 
9.97252 -3.45321 7.9021 0 0 1.5 0.166737 0.0724846 
10.1436 -3.53961 8.19804 0 0 1.5 0.169062 0.0667089 
10.3049 -3.64893 8.49223 0 0 1.5 0.171037 0.0606495 
10.4594 -3.77367 8.78339 0 0 1.5 0.173764 0.0477434 
10.6075 -3.9134 9.07158 0 0 1.5 0.174433 0.0411646 
10.744 -4.07778 9.352 0 0 1.5 0.174592 0.0344887 
10.876 -4.25136 9.6292 0 0 1.5 0.174205 0.0276572 
10.9919 -4.4546 9.89331 0 0 1.5 0.171714 0.0142178 
11.1001 -4.66969 10.1505 0 0 1.5 0.169606 0.00769181 
11.1956 -4.90412 10.3963 0 0 1.5 0.166934 0.00118354 
11.2753 -5.15767 10.6276 0 0 1.5 0.163715 -0.00519828 
11.3478 -5.41998 10.8522 0 0 1.5 0.155782 -0.0173221 
11.3967 -5.70428 11.0553 0 0 1.5 0.151156 -0.0232281 
11.4394 -5.99294 11.2531 0 0 1.5 0.146153 -0.0290172 
11.4638 -6.29398 11.4355 0 0 1.5 0.13525 -0.0401281 
11.4778 -6.59968 11.6106 0 0 1.5 0.129464 -0.0455664 
11.4792 -6.91097 11.7767 0 0 1.5 0.123526 -0.0509832 
11.4668 -7.22553 11.9356 0 0 1.5 0.11749 -0.0563979 
11.446 -7.54202 12.0902 0 0 1.5 0.105315 -0.0673093 
11.4086 -7.85936 12.2396 0 0 1.5 0.0992579 -0.0729591 
11.3659 -8.17695 12.3873 0 0 1.5 0.0932682 -0.0789312 
11.3036 -8.49244 12.5323 0 0 1.5 0.0873778 -0.085231 
11.2384 -8.80762 12.6769 0 0 1.5 0.0759985 -0.098981 
11.1502 -9.11752 12.8207 0 0 1.5 0.0705503 -0.10692 
11.0592 -9.42659 12.9644 0 0 1.5 0.065285 -0.11569 
10.9453 -9.72821 13.1078 0 0 1.5 0.0602171 -0.125286 
10.8314 -10.0298 13.2512 0 0 1.5 0.0507202 -0.14843 
10.7176 -10.3315 13.3946 0 0 1.5 0.046312 -0.16253 
10.6037 -10.6331 13.538 0 0 1.5 0.0421452 -0.178357 
10.4898 -10.9347 13.6814 0 0 1.5 0.0345748 -0.217475 
10.376 -11.2363 13.8248 0 0 1.5 0.0311882 -0.24157 
10.2621 -11.538 13.9681 0 0 1.5 0.0280816 -0.268457 
10.1483 -11.8396 14.1115 0 0 1.5 0.0252656 -0.298208 
10.0344 -12.1412 14.2549 0 0 1.5 0.0205314 -0.364613 
9.92053 -12.4428 14.3983 0 0 1.5 0.0186237 -0.397017 
9.80667 -12.7445 14.5417 0 0 1.5 0.0170211 -0.425319 
9.6928 -13.0461 14.6851 0 0 1.5 0.0157106 -0.446973 
9.57894 -13.3477 14.8285 0 0 1.5 0.0138688 -0.458864 
9.46508 -13.6494 14.9719 0 0 1.5 0.0132651 -0.448147 
9.35121 -13.951 15.1153 0 0 1.5 0.0128127 -0.429708 
9.23735 -14.2526 15.2587 0 0 1.5 0.0121845 -0.380264 
9.12349 -14.5542 15.4021 0 0 1.5 0.0119327 -0.354756 
9.00962 -14.8559 15.5455 0 0 1.5 0.0116833 -0.332007 
8.89576 -15.1575 15.6889 0 0 1.5 0.0114174 -0.312491 
8.7819 -15.4591 15.8323 0 0 1.5 0.0107958 -0.283081 
8.66803 -15.7607 15.9757 0 0 1.5 0.0104306 -0.273694 
8.55417 -16.0624 16.1191 0 0 1.5 0.0100286 -0.267529 
8.44031 -16.364 16.2625 0 0 1.5 0.00959307 -0.264057 
8.32645 -16.6656 16.4059 0 0 1.5 0.00864393 -0.266309 
8.21258 -16.9672 16.5493 0 0 1.5 0.00814444 -0.272028 
8.09872 -17.2689 16.6927 0 0 1.5 0.00763995 -0.280041 
7.98486 -17.5705 16.836 0 0 1.5 0.00665035 -0.304015 
7.87099 -17.8721 16.9794 0 0 1.5 0.00618058 -0.31974 
7.75713 -18.1737 17.1228 0 0 1.5 0.0057379 -0.336472 
7.64327 -18.4754 17.2662 0 0 1.5 0.00532907 -0.353703 
7.5294 -18.777 17.4096 0 0 1.5 0.00462998 -0.386736 
7.41554 -19.0786 17.553 0 0 1.5 0.00434558 -0.398195 
7.30168 -19.3802 17.6964 0 0 1.5 0.00410535 -0.404609 
7.18781 -19.6819 17.8398 0 0 1.5 0.00390667 -0.406084 
7.07395 -19.9835 17.9832 0 0 1.5 0.00361684 -0.391672 
6.96009 -20.2851 18.1266 0 0 1.5 0.00351413 -0.377408 
6.84622 -20.5868 18.27 0 0 1.5 0.00343078 -0.361387 
6.73236 -20.8884 18.4134 0 0 1.5 0.00336078 -0.344472 
6.6185 -21.19 18.5568 0 0 1.5 0.00324076 -0.311366 
6.50463 -21.4916 18.7002 0 0 1.5 0.00318303 -0.298039 
6.39077 -21.7933 18.8436 0 0 1.5 0.00312383 -0.287104 
6.27691 -22.0949 18.987 0 0 1.5 0.00299813 -0.271346 
6.16304 -22.3965 19.1304 0 0 1.5 0.00293151 -0.266888 
6.04918 -22.6981 19.2738 0 0 1.5 0.00286311 -0.26426 
5.93532 -22.9998 19.4172 0 0 1.5 0.00279409 -0.26284 
5.82145 -23.3014 19.5606 0 0 1.5 0.00265987 -0.26345 
5.70759 -23.603 19.7039 0 0 1.5 0.00259806 -0.26461 
5.59373 -23.9046 19.8473 0 0 1.5 0.00254228 -0.265128 
5.47986 -24.2063 19.9907 0 0 1.5 0.0024942 -0.264665 
5.366 -24.5079 20.1341 0 0 1.5 0.00242532 -0.25982 
5.25214 -24.8095 20.2775 0 0 1.5 0.00240613 -0.254196 
5.13827 -25.1111 20.4209 0 0 1.5 0.00239767 -0.246406 
5.02441 -25.4128 20.5643 0 0 1.5 0.00241141 -0.225903 
4.91055 -25.7144 20.7077 0 0 1.5 0.00243249 -0.213388 
4.79668 -26.016 20.8511 0 0 1.5 0.00246208 -0.20008 
4.68282 -26.3176 20.9945 0 0 1.5 0.00249912 -0.186732 
4.56896 -26.6193 21.1379 0 0 1.5 0.00259173 -0.160754 
4.4551 -26.9209 21.2813 0 0 1.5 0.00264575 -0.148652 
4.34123 -27.2225 21.4247 0 0 1.5 0.00270394 -0.137603 
4.22737 -27.5242 21.5681 0 0 1.5 0.00276569 -0.127611 
4.11351 -27.8258 21.7115 0 0 1.5 0.00289851 -0.110689 
3.99964 -28.1274 21.8549 0 0 1.5 0.00296918 -0.103784 
3.88578 -28.429 21.9983 0 0 1.5 0.00304258 -0.0978308 
0 1 0 
1 2 0 
2 3 0 
3 4 0 
4 5 0 
5 6 0 
6 7 0 
7 8 0 
8 9 0 
9 10 0 
10 11 0 
11 12 0 
12 13 0 
13 14 0 
14 15 0 
15 16 0 
16 17 0 
17 18 0 
18 19 0 
19 20 0 
20 21 0 
21 22 0 
22 23 0 
23 24 0 
24 25 0 
25 26 0 
26 27 0 
27 28 0 
28 29 0 
29 30 0 
30 31 0 
31 32 0 
32 33 0 
33 34 0 
34 35 0 
35 36 0 
36 37 0 
37 38 0 
38 39 0 
39 40 0 
40 41 0 
41 42 0 
42 43 0 
43 44 0 
44 45 0 
45 46 0 
46 47 0 
47 48 0 
48 49 0 
49 50 0 
50 51 0 
51 52 0 
52 53 0 
53 54 0 
54 55 0 
55 56 0 
56 57 0 
57 58 0 
58 59 0 
59 60 0 
60 61 0 
61 62 0 
62 63 0 
63 64 0 
64 65 0 
65 66 0 
66 67 0 
67 68 0 
68 69 0 
69 70 0 
70 71 0 
71 72 0 
72 73 0 
73 74 0 
74 75 0 
75 76 0 
76 77 0 
77 78 0 
78 79 0 
79 80 0 
80 81 0 
81 82 0 
82 83 0 
83 84 0 
84 85 0 
85 86 0 
86 87 0 
87 88 0 
88 89 0 
89 90 0 
90 91 0 
91 92 0 
92 93 0 
93 94 0 
94 95 0 
95 96 0 
96 97 0 
97 98 0 
98 99 0 
99 100 0 
100 101 0 
101 102 0 
102 103 0 
103 104 0 
104 105 0 
105 106 0 
106 107 0 
107 108 0 
108 109 0 
109 110 0 
110 111 0 
111 112 0 
112 113 0 
113 114 0 
114 115 0 
115 116 0 
116 117 0 
117 118 0 
118 119 0 
119 120 0 
120 121 0 
121 122 0 
122 123 0 
123 124 0 
124 125 0 
125 126 0 
126 127 0 
127 128 0 
128 129 0 
129 130 0 
130 131 0 
131 132 0 
132 133 0 
133 134 0 
134 135 0 
135 136 0 
136 137 0 
137 138 0 
138 139 0 
139 140 0 
140 141 0 
141 142 0 
142 143 0 
143 144 0 
144 145 0 
145 146 0 
146 147 0 
147 148 0 
148 149 0 
149 150 0 
150 151 0 
151 152 0 
152 153 0 
153 154 0 
154 155 0 
155 156 0 
156 157 0 
157 158 0 
158 159 0 
159 160 0 
160 161 0 
161 162 0 
162 163 0 
163 164 0 
164 165 0 
165 166 0 
166 167 0 
167 168 0 
168 169 0 
169 170 0 
170 171 0 
171 172 0 
172 173 0 
173 174 0 
174 175 0 
175 176 0 
176 177 0 
177 178 0 
178 179 0 
179 180 0 
180 181 0 
181 182 0 
182 183 0 
183 184 0 
184 185 0 
185 186 0 
186 187 0 
187 188 0 
188 189 0 
189 190 0 
190 191 0 
191 192 0 
192 193 0 
193 194 0 
194 195 0 
195 196 0 
196 197 0 
197 198 0 
198 199 0 
199 200 0 
200 201 0 
201 202 0 
202 203 0 
203 204 0 
204 205 0 
205 206 0 
206 207 0 
207 208 0 
208 209 0 
209 210 0 
210 211 0 
211 212 0 
212 213 0 
213 214 0 
214 215 0 
215 216 0 
216 217 0 
217 218 0 
218 219 0 
219 220 0 
220 221 0 
221 222 0 
222 223 0 
223 224 0 
224 225 0 
225 226 0 
226 227 0 
227 228 0 
228 229 0 
229 230 0 
230 231 0 
231 232 0 
232 233 0 
233 234 0 
234 235 0 
235 236 0 
236 237 0 
237 238 0 
238 239 0 
239 240 0 
240 241 0 
241 242 0 
242 243 0 
243 244 0 
244 245 0 
245 246 0 
246 247 0 
247 248 0 
248 249 0 
249 250 0 
250 251 0 
251 252 0 
252 253 0 
253 254 0 
254 255 0 
255 256 0 
256 257 0 
257 258 0 
258 259 0 
259 260 0 
260 261 0 
261 262 0 
262 263 0 
263 264 0 
264 265 0 
265 266 0 
266 267 0 
267 268 0 
268 269 0 
269 270 0 
270 271 0 
271 272 0 
272 273 0 
273 274 0 
274 275 0 
275 276 0 
276 277 0 
277 278 0 
278 279 0 
279 280 0 
280 281 0 
281 282 0 
282 283 0 
283 284 0 
284 285 0 
285 286 0 
286 287 0 
287 288 0 
288 289 0 
289 290 0 
290 291 0 
291 292 0 
292 293 0 
293 294 0 
294 295 0 
295 296 0 
296 297 0 
297 298 0 
298 299 0 
-1 -1 0 
-1 300 0 1 2 3 4 5 6 7 8 9 10 11 12 13 14 15 16 17 18 19 20 21 22 23 24 25 26 27 28 29 30 31 32 33 34 35 36 37 38 39 40 41 42 43 44 45 46 47 48 49 50 51 52 53 54 55 56 57 58 59 60 61 62 63 64 65 66 67 68 69 70 71 72 73 74 75 76 77 78 79 80 81 82 83 84 85 86 87 88 89 90 91 92 93 94 95 96 97 98 99 100 101 102 103 104 105 106 107 108 109 110 111 112 113 114 115 116 117 118 119 120 121 122 123 124 125 126 127 128 129 130 131 132 133 134 135 136 137 138 139 140 141 142 143 144 145 146 147 148 149 150 151 152 153 154 155 156 157 158 159 160 161 162 163 164 165 166 167 168 169 170 171 172 173 174 175 176 177 178 179 180 181 182 183 184 185 186 187 188 189 190 191 192 193 194 195 196 197 198 199 200 201 202 203 204 205 206 207 208 209 210 211 212 213 214 215 216 217 218 219 220 221 222 223 224 225 226 227 228 229 230 231 232 233 234 235 236 237 238 239 240 241 242 243 244 245 246 247 248 249 250 251 252 253 254 255 256 257 258 259 260 261 262 263 264 265 266 267 268 269 270 271 272 273 274 275 276 277 278 279 280 281 282 283 284 285 286 287 288 289 290 291 292 293 294 295 296 297 298 299 
