ply
format ascii 1.0
comment written by koba@oshima.lab
element vertex 300
property float x
property float y
property float z
property int label
property int attribute
property float radius
property float curvature
property float torsion
element edge 300
property int vertex1
property int vertex2
property int label
element vertex_seq 1
property int label
property list int int vertex_indices
end_header
4.03383 28.2701 -9.36217 0 0 1.5 0.00499034 0.00885719 
3.82391 27.9597 -9.26541 0 0 1.5 0.00489484 0.00985857 
3.61398 27.6493 -9.16865 0 0 1.5 0.00478909 0.0116605 
3.40405 27.339 -9.07189 0 0 1.5 0.00466616 0.0144403 
3.19412 27.0286 -8.97513 0 0 1.5 0.00434095 0.0242574 
2.98419 26.7183 -8.87836 0 0 1.5 0.00412299 0.0326625 
2.77427 26.4079 -8.7816 0 0 1.5 0.00385668 0.0451837 
2.56434 26.0975 -8.68484 0 0 1.5 0.00353391 0.0647024 
2.35441 25.7872 -8.58808 0 0 1.5 0.0026938 0.155431 
2.14448 25.4768 -8.49131 0 0 1.5 0.00217415 0.277511 
1.93456 25.1664 -8.39455 0 0 1.5 0.00161039 0.583875 
1.72463 24.8561 -8.29779 0 0 1.5 0.00110842 1.40827 
1.5147 24.5457 -8.20103 0 0 1.5 0.00167151 0.787201 
1.30477 24.2353 -8.10427 0 0 1.5 0.00263325 0.355411 
1.09485 23.925 -8.0075 0 0 1.5 0.00377513 0.192874 
0.884918 23.6146 -7.91074 0 0 1.5 0.00642222 0.0821774 
0.674991 23.3042 -7.81398 0 0 1.5 0.00788718 0.0606391 
0.465063 22.9939 -7.71722 0 0 1.5 0.00942513 0.0473177 
0.255136 22.6835 -7.62046 0 0 1.5 0.0110103 0.0386883 
0.0452079 22.3731 -7.52369 0 0 1.5 0.0142102 0.0293507 
-0.16472 22.0628 -7.42693 0 0 1.5 0.0157676 0.0269799 
-0.374647 21.7524 -7.33017 0 0 1.5 0.0172484 0.0255683 
-0.584575 21.4421 -7.23341 0 0 1.5 0.0186127 0.0249913 
-0.794503 21.1317 -7.13664 0 0 1.5 0.0208333 0.0261245 
-1.00443 20.8213 -7.03988 0 0 1.5 0.0216026 0.02787 
-1.21436 20.511 -6.94312 0 0 1.5 0.0220816 0.0306621 
-1.42429 20.2006 -6.84636 0 0 1.5 0.0219889 0.0410062 
-1.63421 19.8902 -6.7496 0 0 1.5 0.0213349 0.049951 
-1.84414 19.5799 -6.65283 0 0 1.5 0.0202268 0.0636294 
-2.05407 19.2695 -6.55607 0 0 1.5 0.0186306 0.0858525 
-2.264 18.9591 -6.45931 0 0 1.5 0.0138893 0.200079 
-2.47392 18.6488 -6.36255 0 0 1.5 0.0107626 0.377441 
-2.68385 18.3384 -6.26579 0 0 1.5 0.00725997 0.939416 
-2.89496 18.0299 -6.16611 0 0 1.5 0.00416566 3.22148 
-3.115 17.7358 -6.04433 0 0 1.5 0.00991843 0.716881 
-3.33572 17.4431 -5.92045 0 0 1.5 0.0159497 0.311617 
-3.56049 17.1592 -5.78407 0 0 1.5 0.0227543 0.1722 
-3.78539 16.8757 -5.64695 0 0 1.5 0.0302104 0.109972 
-4.01124 16.5958 -5.50414 0 0 1.5 0.04687 0.0587785 
-4.23694 16.3157 -5.36142 0 0 1.5 0.0560061 0.0473169 
-4.46091 16.0336 -5.21989 0 0 1.5 0.0656108 0.0401581 
-4.68447 15.7508 -5.0792 0 0 1.5 0.0859316 0.0330884 
-4.90354 15.4601 -4.94791 0 0 1.5 0.096466 0.0318608 
-5.12107 15.1666 -4.82069 0 0 1.5 0.107098 0.0317718 
-5.33158 14.8606 -4.71184 0 0 1.5 0.117682 0.032615 
-5.53649 14.5466 -4.6189 0 0 1.5 0.13798 0.0367433 
-5.73318 14.2207 -4.54927 0 0 1.5 0.147291 0.0399933 
-5.91375 13.8804 -4.52469 0 0 1.5 0.155758 0.0440394 
-6.08281 13.5339 -4.53097 0 0 1.5 0.163156 0.0489261 
-6.23068 13.1816 -4.59235 0 0 1.5 0.173979 0.0605795 
-6.35694 12.8354 -4.70588 0 0 1.5 0.177173 0.067252 
-6.47096 12.4951 -4.84858 0 0 1.5 0.178811 0.0745939 
-6.56805 12.168 -5.03107 0 0 1.5 0.177548 0.0900081 
-6.65734 11.8506 -5.23289 0 0 1.5 0.174887 0.0978145 
-6.74182 11.5393 -5.44665 0 0 1.5 0.171099 0.105776 
-6.82149 11.236 -5.67338 0 0 1.5 0.166381 0.113562 
-6.90039 10.9338 -5.90182 0 0 1.5 0.154962 0.127746 
-6.97697 10.6326 -6.13239 0 0 1.5 0.148641 0.13431 
-7.05268 10.3302 -6.36171 0 0 1.5 0.14213 0.140502 
-7.12503 10.0234 -6.58618 0 0 1.5 0.135543 0.146368 
-7.19404 9.71333 -6.8071 0 0 1.5 0.122477 0.158082 
-7.25619 9.39669 -7.02072 0 0 1.5 0.116123 0.164615 
-7.30877 9.07493 -7.22882 0 0 1.5 0.109945 0.17226 
-7.35115 8.74773 -7.43106 0 0 1.5 0.0982754 0.192905 
-7.37114 8.41578 -7.62839 0 0 1.5 0.0928995 0.207014 
-7.3817 8.08184 -7.82367 0 0 1.5 0.0879749 0.224105 
-7.3489 7.75049 -8.02086 0 0 1.5 0.0836744 0.244022 
-7.29792 7.42516 -8.22246 0 0 1.5 0.077971 0.286635 
-7.21502 7.1104 -8.43178 0 0 1.5 0.0773109 0.301593 
-7.09696 6.81821 -8.65495 0 0 1.5 0.0787185 0.306306 
-6.9634 6.5374 -8.88472 0 0 1.5 0.0826521 0.298424 
-6.7996 6.28722 -9.13036 0 0 1.5 0.0996957 0.249512 
-6.62799 6.0482 -9.38108 0 0 1.5 0.113477 0.218292 
-6.44469 5.82586 -9.6394 0 0 1.5 0.131263 0.188941 
-6.2564 5.61177 -9.90093 0 0 1.5 0.153619 0.163378 
-6.06475 5.40323 -10.1646 0 0 1.5 0.215561 0.125009 
-5.8718 5.19263 -10.4257 0 0 1.5 0.25788 0.111623 
-5.67841 4.98133 -10.686 0 0 1.5 0.310512 0.101408 
-5.48701 4.7513 -10.9312 0 0 1.5 0.459641 0.0882938 
-5.29721 4.51071 -11.1664 0 0 1.5 0.565135 0.0842934 
-5.11232 4.2395 -11.3714 0 0 1.5 0.698895 0.081563 
-4.94014 3.92633 -11.5133 0 0 1.5 0.866835 0.0796485 
-4.79743 3.57813 -11.5479 0 0 1.5 1.30424 0.0733133 
-4.71957 3.24022 -11.411 0 0 1.5 1.53529 0.0656605 
-4.71654 2.9843 -11.1333 0 0 1.5 1.70837 0.0532801 
-4.7609 2.81154 -10.794 0 0 1.5 1.76161 0.0363124 
-4.83503 2.70513 -10.4294 0 0 1.5 1.47949 -0.000244822 
-4.93413 2.66341 -10.0588 0 0 1.5 1.24618 -0.0141766 
-5.04148 2.64304 -9.68842 0 0 1.5 1.02187 -0.0246751 
-5.16951 2.676 -9.32471 0 0 1.5 0.671737 -0.0393803 
-5.30531 2.72774 -8.96739 0 0 1.5 0.546545 -0.0451527 
-5.4576 2.81927 -8.6236 0 0 1.5 0.447436 -0.0511311 
-5.61958 2.93364 -8.29302 0 0 1.5 0.368635 -0.0582357 
-5.79572 3.0814 -7.98173 0 0 1.5 0.253943 -0.0786502 
-5.98108 3.25311 -7.69077 0 0 1.5 0.211624 -0.0944786 
-6.1772 3.45278 -7.42351 0 0 1.5 0.176335 -0.117246 
-6.37901 3.674 -7.18063 0 0 1.5 0.146582 -0.150664 
-6.5866 3.91712 -6.96256 0 0 1.5 0.100314 -0.276187 
-6.79448 4.17668 -6.76656 0 0 1.5 0.0834133 -0.387761 
-7.00264 4.45271 -6.59269 0 0 1.5 0.0715424 -0.527581 
-7.2059 4.7402 -6.43334 0 0 1.5 0.0689215 -0.621985 
-7.40368 5.04044 -6.29019 0 0 1.5 0.0791436 -0.517297 
-7.59204 5.34884 -6.15256 0 0 1.5 0.0955442 -0.402011 
-7.76873 5.66732 -6.02177 0 0 1.5 0.117001 -0.313236 
-7.92908 5.99211 -5.8868 0 0 1.5 0.173931 -0.212726 
-8.07201 6.32361 -5.74738 0 0 1.5 0.210036 -0.18729 
-8.18114 6.65723 -5.58699 0 0 1.5 0.252186 -0.171569 
-8.27069 6.99139 -5.41426 0 0 1.5 0.301248 -0.162767 
-8.28731 7.30543 -5.18873 0 0 1.5 0.422507 -0.159709 
-8.24719 7.57924 -4.92603 0 0 1.5 0.494307 -0.163072 
-8.14228 7.78952 -4.62655 0 0 1.5 0.570959 -0.168149 
-7.976 7.91268 -4.3009 0 0 1.5 0.647497 -0.173626 
-7.76554 7.91081 -3.97615 0 0 1.5 0.767434 -0.179315 
-7.55042 7.8292 -3.66953 0 0 1.5 0.79285 -0.175936 
-7.33803 7.69334 -3.37886 0 0 1.5 0.787941 -0.167112 
-7.14064 7.49034 -3.11506 0 0 1.5 0.699782 -0.137883 
-6.9658 7.24467 -2.87583 0 0 1.5 0.63311 -0.120387 
-6.80328 6.97567 -2.65003 0 0 1.5 0.56283 -0.102403 
-6.67985 6.66261 -2.45961 0 0 1.5 0.494809 -0.0852584 
-6.56496 6.34232 -2.27665 0 0 1.5 0.377097 -0.0552891 
-6.4834 5.99689 -2.12242 0 0 1.5 0.329 -0.0416087 
-6.41173 5.64596 -1.97755 0 0 1.5 0.287643 -0.0287374 
-6.36234 5.28266 -1.85372 0 0 1.5 0.252262 -0.0167565 
-6.32173 4.915 -1.74141 0 0 1.5 0.196169 0.00670461 
-6.29345 4.54121 -1.64528 0 0 1.5 0.17395 0.0188015 
-6.26976 4.164 -1.56353 0 0 1.5 0.154748 0.0311975 
-6.2503 3.78361 -1.49509 0 0 1.5 0.123395 0.0587154 
-6.22883 3.40056 -1.44654 0 0 1.5 0.11044 0.0749513 
-6.20629 3.0161 -1.40863 0 0 1.5 0.0988669 0.0938425 
-6.17303 2.63091 -1.39902 0 0 1.5 0.0884284 0.116498 
-6.13669 2.24573 -1.39686 0 0 1.5 0.0702171 0.180547 
-6.08232 1.86387 -1.42824 0 0 1.5 0.0622233 0.228233 
-6.02238 1.48399 -1.46806 0 0 1.5 0.0549545 0.291839 
-5.94793 1.1093 -1.52989 0 0 1.5 0.0485144 0.375572 
-5.86481 0.738508 -1.60175 0 0 1.5 0.039207 0.593629 
-5.77275 0.371731 -1.68396 0 0 1.5 0.0372424 0.677011 
-5.67146 0.00865611 -1.77121 0 0 1.5 0.0376368 0.686795 
-5.56555 -0.352571 -1.86097 0 0 1.5 0.0404338 0.620112 
-5.45112 -0.712231 -1.94633 0 0 1.5 0.0517987 0.414016 
-5.3345 -1.07149 -2.03054 0 0 1.5 0.0594342 0.328924 
-5.20989 -1.43131 -2.09923 0 0 1.5 0.0678609 0.263123 
-5.08426 -1.79121 -2.16594 0 0 1.5 0.086052 0.174842 
-4.95014 -2.15193 -2.20617 0 0 1.5 0.0954027 0.144717 
-4.81538 -2.51263 -2.24435 0 0 1.5 0.104675 0.120806 
-4.67081 -2.87158 -2.24834 0 0 1.5 0.113697 0.10164 
-4.52498 -3.22981 -2.24834 0 0 1.5 0.130324 0.0722174 
-4.36808 -3.5818 -2.21302 0 0 1.5 0.137608 0.0606778 
-4.2083 -3.9312 -2.17011 0 0 1.5 0.144031 0.0509931 
-4.03631 -4.26964 -2.09503 0 0 1.5 0.149494 0.0426706 
-3.85903 -4.60208 -2.00913 0 0 1.5 0.157276 0.0289584 
-3.66919 -4.92029 -1.89749 0 0 1.5 0.15955 0.0234547 
-3.47095 -5.22773 -1.77318 0 0 1.5 0.160774 0.0186757 
-3.26088 -5.52002 -1.63106 0 0 1.5 0.160334 0.0108151 
-3.03891 -5.7959 -1.47642 0 0 1.5 0.158869 0.00754323 
-2.80715 -6.05829 -1.31151 0 0 1.5 0.156741 0.00462512 
-2.56017 -6.29838 -1.13615 0 0 1.5 0.154077 0.0020193 
-2.30655 -6.52873 -0.956229 0 0 1.5 0.147626 -0.00331617 
-2.03569 -6.73145 -0.768842 0 0 1.5 0.144054 -0.00635134 
-1.76145 -6.92859 -0.580039 0 0 1.5 0.140373 -0.00968381 
-1.47143 -7.09585 -0.385945 0 0 1.5 0.13665 -0.0135544 
-1.17915 -7.25702 -0.190495 0 0 1.5 0.129274 -0.0237855 
-0.878795 -7.39639 0.00980894 0 0 1.5 0.125681 -0.0303352 
-0.577242 -7.52541 0.214751 0 0 1.5 0.12217 -0.0379215 
-0.274065 -7.64041 0.425978 0 0 1.5 0.115396 -0.056558 
0.0253572 -7.74117 0.649059 0 0 1.5 0.112119 -0.0679774 
0.322819 -7.83451 0.878328 0 0 1.5 0.108903 -0.0805965 
0.606963 -7.90876 1.13016 0 0 1.5 0.105742 -0.0940979 
0.885197 -7.97653 1.38991 0 0 1.5 0.0995765 -0.124473 
1.14706 -8.02761 1.67022 0 0 1.5 0.0965733 -0.141043 
1.39617 -8.06542 1.96327 0 0 1.5 0.0936365 -0.157702 
1.63522 -8.09275 2.26637 0 0 1.5 0.0907808 -0.17438 
1.85886 -8.09693 2.58201 0 0 1.5 0.0853588 -0.206852 
2.07968 -8.092 2.89955 0 0 1.5 0.0828108 -0.221258 
2.29698 -8.06749 3.21884 0 0 1.5 0.0803725 -0.233876 
2.52044 -8.02788 3.53197 0 0 1.5 0.0780282 -0.244479 
2.74799 -7.9783 3.84104 0 0 1.5 0.0735101 -0.260041 
2.99713 -7.90849 4.12868 0 0 1.5 0.0712711 -0.265167 
3.25536 -7.8334 4.40621 0 0 1.5 0.0689842 -0.268779 
3.53432 -7.74741 4.66026 0 0 1.5 0.0640758 -0.277185 
3.82837 -7.65718 4.89404 0 0 1.5 0.0614033 -0.283903 
4.13393 -7.56372 5.11234 0 0 1.5 0.0585644 -0.293137 
4.45545 -7.46973 5.30553 0 0 1.5 0.0555599 -0.306807 
4.78105 -7.37561 5.49232 0 0 1.5 0.0492681 -0.35313 
5.11858 -7.28523 5.65855 0 0 1.5 0.0461497 -0.386324 
5.45695 -7.19529 5.82339 0 0 1.5 0.0431999 -0.425953 
5.80127 -7.11182 5.97906 0 0 1.5 0.0405768 -0.469242 
6.14566 -7.02898 6.13489 0 0 1.5 0.0369988 -0.536466 
6.49091 -6.95381 6.29273 0 0 1.5 0.0363282 -0.541581 
6.8358 -6.87957 6.45171 0 0 1.5 0.036488 -0.520634 
7.17741 -6.81404 6.62133 0 0 1.5 0.0390719 -0.417009 
7.51811 -6.74986 6.7931 0 0 1.5 0.0412327 -0.353397 
7.85238 -6.69531 6.98032 0 0 1.5 0.0437585 -0.293449 
8.18508 -6.6428 7.17066 0 0 1.5 0.0465094 -0.240047 
8.50983 -6.60063 7.37685 0 0 1.5 0.0522794 -0.155184 
8.83253 -6.56155 7.58662 0 0 1.5 0.0551608 -0.124248 
9.1481 -6.53318 7.80882 0 0 1.5 0.0579898 -0.0994043 
9.46183 -6.5093 8.03395 0 0 1.5 0.0607565 -0.0793631 
9.7712 -6.49605 8.26606 0 0 1.5 0.06614 -0.0528296 
10.08 -6.48905 8.49903 0 0 1.5 0.0688037 -0.0453389 
10.3879 -6.4924 8.73342 0 0 1.5 0.0714987 -0.0407859 
10.6972 -6.50409 8.96559 0 0 1.5 0.0771739 -0.0387195 
11.008 -6.52561 9.19513 0 0 1.5 0.0802543 -0.0405121 
11.3217 -6.558 9.41907 0 0 1.5 0.0835716 -0.0437932 
11.6379 -6.59963 9.63824 0 0 1.5 0.0871866 -0.0478497 
11.9571 -6.65504 9.84953 0 0 1.5 0.0955178 -0.0565214 
12.2782 -6.719 10.0559 0 0 1.5 0.100333 -0.0610545 
12.6002 -6.80008 10.2541 0 0 1.5 0.105641 -0.0650912 
12.9228 -6.88903 10.4486 0 0 1.5 0.111469 -0.0681807 
13.2423 -6.99903 10.6367 0 0 1.5 0.12471 -0.0723563 
13.5608 -7.11617 10.8227 0 0 1.5 0.132099 -0.0733701 
13.87 -7.25902 11.0059 0 0 1.5 0.139941 -0.0733817 
14.177 -7.40799 11.1885 0 0 1.5 0.14815 -0.0726533 
14.4658 -7.58785 11.3724 0 0 1.5 0.165159 -0.0696038 
14.7521 -7.77198 11.5564 0 0 1.5 0.173609 -0.0672235 
15.0083 -7.99201 11.7453 0 0 1.5 0.181721 -0.0643741 
15.2601 -8.2161 11.9347 0 0 1.5 0.195797 -0.0575478 
15.4735 -8.47337 12.1297 0 0 1.5 0.201155 -0.0535997 
15.6763 -8.73727 12.3257 0 0 1.5 0.204991 -0.0492828 
15.8389 -9.02621 12.5252 0 0 1.5 0.207026 -0.0445743 
15.9823 -9.32346 12.7253 0 0 1.5 0.204914 -0.0344293 
16.0886 -9.63666 12.9262 0 0 1.5 0.200632 -0.0289469 
16.1676 -9.95715 13.1259 0 0 1.5 0.194243 -0.023001 
16.2157 -10.2859 13.3244 0 0 1.5 0.185875 -0.0166667 
16.231 -10.6186 13.5194 0 0 1.5 0.164184 -0.00248344 
16.2226 -10.9542 13.7118 0 0 1.5 0.151405 0.00627901 
16.1795 -11.2896 13.8984 0 0 1.5 0.137686 0.0168002 
16.1192 -11.6248 14.0821 0 0 1.5 0.108503 0.0474792 
16.026 -11.9559 14.2583 0 0 1.5 0.0934726 0.0731011 
15.9212 -12.2856 14.4317 0 0 1.5 0.0783722 0.113304 
15.7893 -12.6093 14.597 0 0 1.5 0.0633835 0.182542 
15.65 -12.9314 14.7602 0 0 1.5 0.0348377 0.634025 
15.4929 -13.2487 14.9162 0 0 1.5 0.0229417 1.47164 
15.3321 -13.5649 15.0708 0 0 1.5 0.0173379 2.57194 
15.1659 -13.8807 15.2205 0 0 1.5 0.0227978 1.47479 
14.9989 -14.1964 15.3696 0 0 1.5 0.0468204 0.337569 
14.8448 -14.5191 15.5174 0 0 1.5 0.059765 0.20191 
14.6958 -14.8439 15.6653 0 0 1.5 0.0724108 0.133084 
14.581 -15.1817 15.8153 0 0 1.5 0.0844365 0.0937977 
14.4913 -15.5248 15.9662 0 0 1.5 0.105557 0.0535257 
14.4479 -15.8777 16.1189 0 0 1.5 0.114193 0.0424275 
14.4678 -16.2304 16.2694 0 0 1.5 0.121235 0.0343677 
14.5251 -16.5828 16.4186 0 0 1.5 0.12981 0.0238865 
14.6705 -16.9117 16.5561 0 0 1.5 0.131213 0.0203961 
14.832 -17.2363 16.6914 0 0 1.5 0.1307 0.0176285 
14.9935 -17.5609 16.8267 0 0 1.5 0.128356 0.0154365 
15.155 -17.8855 16.962 0 0 1.5 0.118974 0.0123539 
15.3165 -18.2101 17.0973 0 0 1.5 0.112428 0.0112765 
15.4779 -18.5347 17.2327 0 0 1.5 0.10499 0.0104509 
15.6394 -18.8593 17.368 0 0 1.5 0.0969189 0.00986326 
15.8009 -19.1839 17.5033 0 0 1.5 0.0798159 0.0093243 
15.9624 -19.5085 17.6386 0 0 1.5 0.0711833 0.00937781 
16.1239 -19.8331 17.7739 0 0 1.5 0.0626959 0.00969806 
16.2854 -20.1577 17.9093 0 0 1.5 0.04659 0.0114437 
16.4469 -20.4824 18.0446 0 0 1.5 0.0391426 0.0131956 
16.6084 -20.807 18.1799 0 0 1.5 0.0321571 0.0160556 
16.7699 -21.1316 18.3152 0 0 1.5 0.025656 0.0209081 
16.9313 -21.4562 18.4505 0 0 1.5 0.0141934 0.0481584 
17.0928 -21.7808 18.5859 0 0 1.5 0.00924942 0.0965646 
17.2543 -22.1054 18.7212 0 0 1.5 0.00483678 0.303231 
17.4158 -22.43 18.8565 0 0 1.5 0.00114779 4.64968 
17.5773 -22.7546 18.9918 0 0 1.5 0.00557137 0.150464 
17.7388 -23.0792 19.1271 0 0 1.5 0.00802312 0.0640547 
17.9003 -23.4038 19.2624 0 0 1.5 0.0100372 0.0362164 
18.0618 -23.7284 19.3978 0 0 1.5 0.0128204 0.0176001 
18.2233 -24.053 19.5331 0 0 1.5 0.013647 0.0139154 
18.3848 -24.3776 19.6684 0 0 1.5 0.0141368 0.0116043 
18.5462 -24.7022 19.8037 0 0 1.5 0.0143206 0.0101213 
18.7077 -25.0268 19.939 0 0 1.5 0.013903 0.00866397 
18.8692 -25.3514 20.0744 0 0 1.5 0.0133704 0.00838607 
19.0307 -25.676 20.2097 0 0 1.5 0.0126679 0.00834792 
19.1922 -26.0006 20.345 0 0 1.5 0.0118264 0.00857569 
19.3537 -26.3253 20.4803 0 0 1.5 0.00984758 0.00985974 
19.5152 -26.6499 20.6156 0 0 1.5 0.00877078 0.0110505 
19.6767 -26.9745 20.751 0 0 1.5 0.00766819 0.0128747 
19.8382 -27.2991 20.8863 0 0 1.5 0.00656087 0.015654 
19.9996 -27.6237 21.0216 0 0 1.5 0.00441507 0.0271607 
20.1611 -27.9483 21.1569 0 0 1.5 0.00340734 0.0405536 
20.3226 -28.2729 21.2922 0 0 1.5 0.00245638 0.0695388 
20.4841 -28.5975 21.4276 0 0 1.5 0.000768809 0.564064 
20.6456 -28.9221 21.5629 0 0 1.5 0.000183731 0 
20.8071 -29.2467 21.6982 0 0 1.5 0.000682068 0.576124 
20.9686 -29.5713 21.8335 0 0 1.5 0.00125663 0.152301 
21.1301 -29.8959 21.9688 0 0 1.5 0.00219552 0.0404878 
21.2916 -30.2205 22.1041 0 0 1.5 0.00256175 0.0269081 
21.453 -30.5451 22.2395 0 0 1.5 0.00286503 0.0194393 
21.6145 -30.8697 22.3748 0 0 1.5 0.00311048 0.0148918 
21.776 -31.1943 22.5101 0 0 1.5 0.00345274 0.00986103 
21.9375 -31.5189 22.6454 0 0 1.5 0.00356243 0.00831432 
22.099 -31.8435 22.7807 0 0 1.5 0.00363957 0.00711148 
22.2605 -32.1681 22.9161 0 0 1.5 0.00371791 0.00535814 
22.422 -32.4928 23.0514 0 0 1.5 0.00372966 0.00465664 
22.5835 -32.8174 23.1867 0 0 1.5 0.00372971 0.00403102 
22.745 -33.142 23.322 0 0 1.5 0.00372126 0.00347912 
22.9064 -33.4666 23.4573 0 0 1.5 0.00369 0.00253182 
23.0679 -33.7912 23.5927 0 0 1.5 0.00367235 0.00212538 
23.2294 -34.1158 23.728 0 0 1.5 0.00365504 0.00177212 
23.3909 -34.4404 23.8633 0 0 1.5 0.00363862 0.00147193 
23.5524 -34.765 23.9986 0 0 1.5 0.00361033 0.00102882 
23.7139 -35.0896 24.1339 0 0 1.5 0.00359857 0.000881176 
23.8754 -35.4142 24.2692 0 0 1.5 0.00358791 0.000783249 
0 1 0 
1 2 0 
2 3 0 
3 4 0 
4 5 0 
5 6 0 
6 7 0 
7 8 0 
8 9 0 
9 10 0 
10 11 0 
11 12 0 
12 13 0 
13 14 0 
14 15 0 
15 16 0 
16 17 0 
17 18 0 
18 19 0 
19 20 0 
20 21 0 
21 22 0 
22 23 0 
23 24 0 
24 25 0 
25 26 0 
26 27 0 
27 28 0 
28 29 0 
29 30 0 
30 31 0 
31 32 0 
32 33 0 
33 34 0 
34 35 0 
35 36 0 
36 37 0 
37 38 0 
38 39 0 
39 40 0 
40 41 0 
41 42 0 
42 43 0 
43 44 0 
44 45 0 
45 46 0 
46 47 0 
47 48 0 
48 49 0 
49 50 0 
50 51 0 
51 52 0 
52 53 0 
53 54 0 
54 55 0 
55 56 0 
56 57 0 
57 58 0 
58 59 0 
59 60 0 
60 61 0 
61 62 0 
62 63 0 
63 64 0 
64 65 0 
65 66 0 
66 67 0 
67 68 0 
68 69 0 
69 70 0 
70 71 0 
71 72 0 
72 73 0 
73 74 0 
74 75 0 
75 76 0 
76 77 0 
77 78 0 
78 79 0 
79 80 0 
80 81 0 
81 82 0 
82 83 0 
83 84 0 
84 85 0 
85 86 0 
86 87 0 
87 88 0 
88 89 0 
89 90 0 
90 91 0 
91 92 0 
92 93 0 
93 94 0 
94 95 0 
95 96 0 
96 97 0 
97 98 0 
98 99 0 
99 100 0 
100 101 0 
101 102 0 
102 103 0 
103 104 0 
104 105 0 
105 106 0 
106 107 0 
107 108 0 
108 109 0 
109 110 0 
110 111 0 
111 112 0 
112 113 0 
113 114 0 
114 115 0 
115 116 0 
116 117 0 
117 118 0 
118 119 0 
119 120 0 
120 121 0 
121 122 0 
122 123 0 
123 124 0 
124 125 0 
125 126 0 
126 127 0 
127 128 0 
128 129 0 
129 130 0 
130 131 0 
131 132 0 
132 133 0 
133 134 0 
134 135 0 
135 136 0 
136 137 0 
137 138 0 
138 139 0 
139 140 0 
140 141 0 
141 142 0 
142 143 0 
143 144 0 
144 145 0 
145 146 0 
146 147 0 
147 148 0 
148 149 0 
149 150 0 
150 151 0 
151 152 0 
152 153 0 
153 154 0 
154 155 0 
155 156 0 
156 157 0 
157 158 0 
158 159 0 
159 160 0 
160 161 0 
161 162 0 
162 163 0 
163 164 0 
164 165 0 
165 166 0 
166 167 0 
167 168 0 
168 169 0 
169 170 0 
170 171 0 
171 172 0 
172 173 0 
173 174 0 
174 175 0 
175 176 0 
176 177 0 
177 178 0 
178 179 0 
179 180 0 
180 181 0 
181 182 0 
182 183 0 
183 184 0 
184 185 0 
185 186 0 
186 187 0 
187 188 0 
188 189 0 
189 190 0 
190 191 0 
191 192 0 
192 193 0 
193 194 0 
194 195 0 
195 196 0 
196 197 0 
197 198 0 
198 199 0 
199 200 0 
200 201 0 
201 202 0 
202 203 0 
203 204 0 
204 205 0 
205 206 0 
206 207 0 
207 208 0 
208 209 0 
209 210 0 
210 211 0 
211 212 0 
212 213 0 
213 214 0 
214 215 0 
215 216 0 
216 217 0 
217 218 0 
218 219 0 
219 220 0 
220 221 0 
221 222 0 
222 223 0 
223 224 0 
224 225 0 
225 226 0 
226 227 0 
227 228 0 
228 229 0 
229 230 0 
230 231 0 
231 232 0 
232 233 0 
233 234 0 
234 235 0 
235 236 0 
236 237 0 
237 238 0 
238 239 0 
239 240 0 
240 241 0 
241 242 0 
242 243 0 
243 244 0 
244 245 0 
245 246 0 
246 247 0 
247 248 0 
248 249 0 
249 250 0 
250 251 0 
251 252 0 
252 253 0 
253 254 0 
254 255 0 
255 256 0 
256 257 0 
257 258 0 
258 259 0 
259 260 0 
260 261 0 
261 262 0 
262 263 0 
263 264 0 
264 265 0 
265 266 0 
266 267 0 
267 268 0 
268 269 0 
269 270 0 
270 271 0 
271 272 0 
272 273 0 
273 274 0 
274 275 0 
275 276 0 
276 277 0 
277 278 0 
278 279 0 
279 280 0 
280 281 0 
281 282 0 
282 283 0 
283 284 0 
284 285 0 
285 286 0 
286 287 0 
287 288 0 
288 289 0 
289 290 0 
290 291 0 
291 292 0 
292 293 0 
293 294 0 
294 295 0 
295 296 0 
296 297 0 
297 298 0 
298 299 0 
-1 -1 0 
-1 300 0 1 2 3 4 5 6 7 8 9 10 11 12 13 14 15 16 17 18 19 20 21 22 23 24 25 26 27 28 29 30 31 32 33 34 35 36 37 38 39 40 41 42 43 44 45 46 47 48 49 50 51 52 53 54 55 56 57 58 59 60 61 62 63 64 65 66 67 68 69 70 71 72 73 74 75 76 77 78 79 80 81 82 83 84 85 86 87 88 89 90 91 92 93 94 95 96 97 98 99 100 101 102 103 104 105 106 107 108 109 110 111 112 113 114 115 116 117 118 119 120 121 122 123 124 125 126 127 128 129 130 131 132 133 134 135 136 137 138 139 140 141 142 143 144 145 146 147 148 149 150 151 152 153 154 155 156 157 158 159 160 161 162 163 164 165 166 167 168 169 170 171 172 173 174 175 176 177 178 179 180 181 182 183 184 185 186 187 188 189 190 191 192 193 194 195 196 197 198 199 200 201 202 203 204 205 206 207 208 209 210 211 212 213 214 215 216 217 218 219 220 221 222 223 224 225 226 227 228 229 230 231 232 233 234 235 236 237 238 239 240 241 242 243 244 245 246 247 248 249 250 251 252 253 254 255 256 257 258 259 260 261 262 263 264 265 266 267 268 269 270 271 272 273 274 275 276 277 278 279 280 281 282 283 284 285 286 287 288 289 290 291 292 293 294 295 296 297 298 299 
