ply
format ascii 1.0
comment written by koba@oshima.lab
element vertex 300
property float x
property float y
property float z
property int label
property int attribute
property float radius
property float curvature
property float torsion
element edge 300
property int vertex1
property int vertex2
property int label
element vertex_seq 1
property int label
property list int int vertex_indices
end_header
6.91039 24.1568 -5.67889 0 0 1.5 0.0165516 0.0299174 
6.64049 23.9435 -5.7304 0 0 1.5 0.0157156 0.0337 
6.3706 23.7301 -5.78191 0 0 1.5 0.0148637 0.0387277 
6.1007 23.5167 -5.83342 0 0 1.5 0.0139857 0.0454778 
5.83081 23.3033 -5.88493 0 0 1.5 0.0121124 0.0674427 
5.56091 23.0899 -5.93644 0 0 1.5 0.011099 0.0856581 
5.29102 22.8765 -5.98795 0 0 1.5 0.0100243 0.112621 
5.02112 22.6632 -6.03946 0 0 1.5 0.00888369 0.154479 
4.75123 22.4498 -6.09096 0 0 1.5 0.00642359 0.344544 
4.48133 22.2364 -6.14247 0 0 1.5 0.00516334 0.576229 
4.21144 22.023 -6.19398 0 0 1.5 0.00402176 1.02664 
3.94154 21.8096 -6.24549 0 0 1.5 0.0033232 1.62269 
3.67164 21.5962 -6.297 0 0 1.5 0.00477519 0.908294 
3.40175 21.3828 -6.34851 0 0 1.5 0.00656428 0.515532 
3.13185 21.1695 -6.40002 0 0 1.5 0.00868967 0.314615 
2.86196 20.9561 -6.45153 0 0 1.5 0.0135805 0.145717 
2.59206 20.7427 -6.50304 0 0 1.5 0.0162677 0.107648 
2.32217 20.5293 -6.55454 0 0 1.5 0.0190859 0.0825774 
2.05227 20.3159 -6.60605 0 0 1.5 0.0220086 0.0652044 
1.78238 20.1025 -6.65756 0 0 1.5 0.0280607 0.0436612 
1.51248 19.8891 -6.70907 0 0 1.5 0.0311352 0.0366973 
1.24259 19.6758 -6.76058 0 0 1.5 0.034196 0.0311875 
0.972691 19.4624 -6.81209 0 0 1.5 0.0372038 0.0267731 
0.702796 19.249 -6.8636 0 0 1.5 0.0428976 0.020151 
0.4329 19.0356 -6.91511 0 0 1.5 0.0454911 0.0174317 
0.163005 18.8222 -6.96662 0 0 1.5 0.0478463 0.0149754 
-0.106891 18.6088 -7.01812 0 0 1.5 0.0516349 0.0104964 
-0.376786 18.3955 -7.06963 0 0 1.5 0.0529658 0.00813117 
-0.646681 18.1821 -7.12114 0 0 1.5 0.0538548 0.00557775 
-0.916577 17.9687 -7.17265 0 0 1.5 0.0542553 0.00275676 
-1.18647 17.7553 -7.22416 0 0 1.5 0.0534335 -0.00474168 
-1.45637 17.5419 -7.27567 0 0 1.5 0.0521537 -0.0100325 
-1.72626 17.3285 -7.32718 0 0 1.5 0.0502629 -0.0169409 
-1.99616 17.1151 -7.37869 0 0 1.5 0.0477451 -0.0263939 
-2.26605 16.9018 -7.4302 0 0 1.5 0.0408534 -0.0600668 
-2.53595 16.6884 -7.48171 0 0 1.5 0.0365083 -0.0918419 
-2.80584 16.475 -7.53321 0 0 1.5 0.0316054 -0.145713 
-3.06576 16.2474 -7.54389 0 0 1.5 0.0262388 -0.245732 
-3.31771 16.0085 -7.52195 0 0 1.5 0.0152175 -0.931974 
-3.55341 15.7619 -7.46024 0 0 1.5 0.0116578 -1.74446 
-3.78178 15.5119 -7.38058 0 0 1.5 0.0128919 -1.53449 
-3.99316 15.2596 -7.26904 0 0 1.5 0.0269584 -0.378657 
-4.20109 15.0069 -7.15101 0 0 1.5 0.0363833 -0.206204 
-4.39683 14.7546 -7.01297 0 0 1.5 0.0466915 -0.11845 
-4.5918 14.5024 -6.87364 0 0 1.5 0.057747 -0.068011 
-4.7841 14.2507 -6.72983 0 0 1.5 0.0818975 -0.0135075 
-4.97861 13.9988 -6.58941 0 0 1.5 0.0949276 0.00309534 
-5.17831 13.7466 -6.45702 0 0 1.5 0.10854 0.0164384 
-5.38788 13.494 -6.34294 0 0 1.5 0.122677 0.0279655 
-5.60446 13.2412 -6.24185 0 0 1.5 0.152164 0.047168 
-5.84233 12.9916 -6.19578 0 0 1.5 0.167245 0.0556992 
-6.08784 12.7484 -6.18951 0 0 1.5 0.182294 0.0641187 
-6.34008 12.5132 -6.22803 0 0 1.5 0.21124 0.0798439 
-6.58902 12.2978 -6.34061 0 0 1.5 0.224517 0.087162 
-6.82386 12.0973 -6.49685 0 0 1.5 0.236522 0.0943524 
-7.0474 11.9067 -6.68221 0 0 1.5 0.246887 0.101111 
-7.24249 11.7295 -6.90936 0 0 1.5 0.261456 0.112424 
-7.4205 11.5545 -7.15049 0 0 1.5 0.265192 0.117135 
-7.57901 11.3819 -7.40759 0 0 1.5 0.266401 0.121092 
-7.70875 11.2054 -7.67716 0 0 1.5 0.265119 0.12415 
-7.8278 11.0274 -7.95136 0 0 1.5 0.255739 0.128057 
-7.90703 10.8376 -8.23175 0 0 1.5 0.248166 0.129217 
-7.97774 10.6449 -8.51218 0 0 1.5 0.239131 0.130038 
-8.00884 10.4378 -8.78998 0 0 1.5 0.218127 0.13121 
-8.02449 10.2253 -9.06391 0 0 1.5 0.206821 0.131983 
-8.00866 10.0017 -9.32995 0 0 1.5 0.195366 0.133223 
-7.96785 9.77117 -9.58605 0 0 1.5 0.183999 0.135048 
-7.9064 9.53494 -9.83394 0 0 1.5 0.162264 0.14107 
-7.81291 9.29397 -10.066 0 0 1.5 0.152198 0.145692 
-7.71005 9.05166 -10.2934 0 0 1.5 0.142843 0.151463 
-7.57248 8.81054 -10.5031 0 0 1.5 0.134312 0.158342 
-7.42875 8.57112 -10.7102 0 0 1.5 0.120206 0.174942 
-7.26308 8.33779 -10.908 0 0 1.5 0.114927 0.183691 
-7.08845 8.10973 -11.1039 0 0 1.5 0.111052 0.191581 
-6.901 7.8892 -11.2969 0 0 1.5 0.108767 0.197451 
-6.70413 7.67776 -11.4904 0 0 1.5 0.109747 0.198708 
-6.50033 7.47297 -11.6842 0 0 1.5 0.113364 0.193175 
-6.28809 7.27952 -11.8804 0 0 1.5 0.119259 0.184084 
-6.07238 7.09073 -12.0775 0 0 1.5 0.138385 0.159853 
-5.84947 6.91266 -12.2765 0 0 1.5 0.151888 0.147187 
-5.62483 6.73718 -12.4759 0 0 1.5 0.168261 0.135329 
-5.3935 6.56878 -12.6737 0 0 1.5 0.187756 0.124729 
-5.16123 6.40137 -12.8714 0 0 1.5 0.237433 0.107923 
-4.92141 6.2352 -13.0608 0 0 1.5 0.268414 0.101738 
-4.68052 6.06868 -13.2486 0 0 1.5 0.304081 0.0969523 
-4.43093 5.89644 -13.4191 0 0 1.5 0.344825 0.0933661 
-4.17821 5.72013 -13.5796 0 0 1.5 0.441998 0.0890585 
-3.91812 5.53425 -13.7168 0 0 1.5 0.497462 0.088056 
-3.65218 5.33449 -13.815 0 0 1.5 0.555465 0.0874859 
-3.38495 5.12255 -13.8692 0 0 1.5 0.665297 0.0864556 
-3.12482 4.89602 -13.8477 0 0 1.5 0.707164 0.0855423 
-2.90151 4.66739 -13.7138 0 0 1.5 0.733045 0.083988 
-2.75147 4.46573 -13.4733 0 0 1.5 0.738932 0.0816551 
-2.68659 4.31054 -13.1689 0 0 1.5 0.689407 0.0754405 
-2.67738 4.18992 -12.8443 0 0 1.5 0.640889 0.0721726 
-2.70297 4.09122 -12.5128 0 0 1.5 0.58376 0.069251 
-2.75255 4.00771 -12.1788 0 0 1.5 0.523272 0.0669945 
-2.83136 3.94218 -11.8463 0 0 1.5 0.40709 0.0653591 
-2.91985 3.88248 -11.5154 0 0 1.5 0.35543 0.0663516 
-3.01895 3.82919 -11.1862 0 0 1.5 0.309031 0.0687651 
-3.12888 3.78357 -10.8594 0 0 1.5 0.231587 0.078834 
-3.24197 3.74082 -10.5332 0 0 1.5 0.199723 0.0874261 
-3.36084 3.70532 -10.2082 0 0 1.5 0.171754 0.0992952 
-3.48054 3.67406 -9.88305 0 0 1.5 0.147189 0.115516 
-3.60125 3.64787 -9.55782 0 0 1.5 0.106647 0.168844 
-3.7204 3.62865 -9.23157 0 0 1.5 0.090073 0.212245 
-3.83895 3.61207 -8.90492 0 0 1.5 0.0757352 0.273038 
-3.95301 3.60325 -8.57637 0 0 1.5 0.0636381 0.356441 
-4.06587 3.59537 -8.2474 0 0 1.5 0.0471142 0.573291 
-4.17439 3.59034 -7.91691 0 0 1.5 0.0434719 0.643316 
-4.281 3.58371 -7.58583 0 0 1.5 0.043165 0.630006 
-4.38494 3.57487 -7.25394 0 0 1.5 0.0457592 0.546604 
-4.48724 3.55674 -6.92199 0 0 1.5 0.0564484 0.351807 
-4.58869 3.53385 -6.59001 0 0 1.5 0.0631841 0.281823 
-4.69029 3.48559 -6.26085 0 0 1.5 0.0702651 0.230592 
-4.79265 3.4233 -5.9348 0 0 1.5 0.0845027 0.16722 
-4.89657 3.33416 -5.61498 0 0 1.5 0.0913565 0.148049 
-5.00235 3.20732 -5.30957 0 0 1.5 0.0978749 0.13417 
-5.10853 3.05564 -5.01611 0 0 1.5 0.103954 0.124198 
-5.21436 2.86925 -4.74209 0 0 1.5 0.114486 0.112193 
-5.31583 2.65164 -4.49102 0 0 1.5 0.118801 0.108949 
-5.41292 2.41908 -4.25169 0 0 1.5 0.122404 0.107004 
-5.50293 2.1701 -4.026 0 0 1.5 0.125266 0.10603 
-5.58098 1.91203 -3.80631 0 0 1.5 0.128726 0.106031 
-5.65172 1.65121 -3.58737 0 0 1.5 0.129348 0.106709 
-5.7072 1.38919 -3.36533 0 0 1.5 0.12928 0.107712 
-5.74907 1.13065 -3.13671 0 0 1.5 0.127323 0.110021 
-5.78187 0.874419 -2.90368 0 0 1.5 0.125583 0.111192 
-5.79185 0.627526 -2.65886 0 0 1.5 0.123443 0.112444 
-5.79468 0.38382 -2.41089 0 0 1.5 0.120986 0.113643 
-5.78083 0.147658 -2.15581 0 0 1.5 0.11545 0.115543 
-5.75662 -0.0845451 -1.8981 0 0 1.5 0.112523 0.116483 
-5.72339 -0.313302 -1.63811 0 0 1.5 0.109578 0.117359 
-5.6785 -0.539893 -1.37806 0 0 1.5 0.106674 0.118048 
-5.63002 -0.765816 -1.11798 0 0 1.5 0.101189 0.119467 
-5.57047 -0.99352 -0.861802 0 0 1.5 0.0986811 0.120329 
-5.50916 -1.22219 -0.606933 0 0 1.5 0.0963693 0.121205 
-5.44029 -1.45585 -0.358563 0 0 1.5 0.0942778 0.122157 
-5.36861 -1.69253 -0.113991 0 0 1.5 0.0908032 0.1246 
-5.29164 -1.93487 0.123447 0 0 1.5 0.0894355 0.126071 
-5.2094 -2.18291 0.352894 0 0 1.5 0.0883203 0.127648 
-5.1231 -2.43534 0.576195 0 0 1.5 0.086836 0.131051 
-5.02669 -2.69569 0.785652 0 0 1.5 0.0864566 0.132925 
-4.92632 -2.95857 0.990079 0 0 1.5 0.0863104 0.134761 
-4.81117 -3.22805 1.17756 0 0 1.5 0.0863881 0.136414 
-4.68766 -3.49878 1.35727 0 0 1.5 0.0871703 0.13938 
-4.55235 -3.77126 1.52602 0 0 1.5 0.0878511 0.140574 
-4.40041 -4.04168 1.68309 0 0 1.5 0.0887093 0.141341 
-4.2411 -4.31076 1.8354 0 0 1.5 0.0897323 0.14175 
-4.06067 -4.57163 1.9783 0 0 1.5 0.0922135 0.14162 
-3.87207 -4.82705 2.11995 0 0 1.5 0.0936404 0.140894 
-3.67037 -5.07374 2.25957 0 0 1.5 0.095168 0.139777 
-3.45593 -5.3079 2.4012 0 0 1.5 0.098441 0.136577 
-3.23537 -5.53604 2.54379 0 0 1.5 0.100143 0.134403 
-2.99987 -5.74386 2.69326 0 0 1.5 0.101856 0.131888 
-2.76106 -5.94618 2.84475 0 0 1.5 0.103555 0.129096 
-2.51151 -6.12933 3.00352 0 0 1.5 0.106796 0.122764 
-2.25764 -6.30299 3.16551 0 0 1.5 0.108283 0.119253 
-1.99716 -6.46207 3.33247 0 0 1.5 0.109641 0.115545 
-1.73108 -6.60702 3.5029 0 0 1.5 0.11084 0.111684 
-1.46106 -6.74203 3.67578 0 0 1.5 0.112645 0.103571 
-1.18443 -6.85894 3.85106 0 0 1.5 0.113197 0.0993034 
-0.905753 -6.97024 4.02708 0 0 1.5 0.113479 0.09494 
-0.61983 -7.05998 4.20367 0 0 1.5 0.113149 0.0859871 
-0.332737 -7.14596 4.38022 0 0 1.5 0.112502 0.0813351 
-0.0396146 -7.21132 4.55582 0 0 1.5 0.111513 0.0765939 
0.254797 -7.27086 4.73105 0 0 1.5 0.110174 0.0717926 
0.552875 -7.31383 4.90521 0 0 1.5 0.106432 0.0618066 
0.852137 -7.34734 5.07908 0 0 1.5 0.10403 0.0566623 
1.15295 -7.36845 5.25256 0 0 1.5 0.101286 0.0515396 
1.45394 -7.37666 5.42652 0 0 1.5 0.0982127 0.0463643 
1.75503 -7.37672 5.6008 0 0 1.5 0.09115 0.0356261 
2.05425 -7.36112 5.77742 0 0 1.5 0.0871993 0.0301164 
2.35299 -7.34163 5.95463 0 0 1.5 0.0829968 0.0244052 
2.64719 -7.30532 6.13671 0 0 1.5 0.0785647 0.018343 
2.9401 -7.26623 6.32019 0 0 1.5 0.0691059 0.00551208 
3.22817 -7.21677 6.50886 0 0 1.5 0.0641299 -0.00137764 
3.5133 -7.1637 6.70088 0 0 1.5 0.0590227 -0.00895241 
3.79453 -7.10583 6.89733 0 0 1.5 0.048508 -0.02677 
4.07141 -7.04563 7.09911 0 0 1.5 0.0431436 -0.0379803 
4.34603 -6.98421 7.30367 0 0 1.5 0.0377351 -0.0522735 
4.61587 -6.92346 7.51466 0 0 1.5 0.0323034 -0.0717831 
4.88467 -6.86322 7.72712 0 0 1.5 0.0214792 -0.150518 
5.15055 -6.80581 7.94401 0 0 1.5 0.016192 -0.250135 
5.41614 -6.74984 8.16163 0 0 1.5 0.0112011 -0.49611 
5.68126 -6.69618 8.3804 0 0 1.5 0.00721153 -1.15986 
5.94773 -6.64393 8.59787 0 0 1.5 0.00993235 -0.6506 
6.21494 -6.59247 8.81461 0 0 1.5 0.0148853 -0.323216 
6.4863 -6.54077 9.02607 0 0 1.5 0.0203398 -0.202142 
6.75913 -6.4887 9.23551 0 0 1.5 0.0319138 -0.122847 
7.03731 -6.43488 9.43737 0 0 1.5 0.0379492 -0.108291 
7.31828 -6.38017 9.635 0 0 1.5 0.0441489 -0.0993851 
7.60324 -6.32418 9.82655 0 0 1.5 0.0505248 -0.09382 
7.89224 -6.26831 10.0119 0 0 1.5 0.063875 -0.0881858 
8.18343 -6.21252 10.1939 0 0 1.5 0.0708824 -0.086634 
8.47891 -6.16083 10.3701 0 0 1.5 0.0781282 -0.0856712 
8.77524 -6.11046 10.5452 0 0 1.5 0.0856233 -0.0852468 
9.07455 -6.07021 10.7179 0 0 1.5 0.101382 -0.084699 
9.37404 -6.03416 10.8911 0 0 1.5 0.109632 -0.0844456 
9.67411 -6.01152 11.0656 0 0 1.5 0.118104 -0.0843218 
9.97323 -5.99866 11.2424 0 0 1.5 0.135566 -0.0840645 
10.2709 -6.00028 11.4224 0 0 1.5 0.144444 -0.0839082 
10.5651 -6.01884 11.6065 0 0 1.5 0.153316 -0.0838083 
10.8566 -6.05059 11.7938 0 0 1.5 0.162079 -0.0836988 
11.1402 -6.10769 11.9862 0 0 1.5 0.178803 -0.0832355 
11.4209 -6.17442 12.1806 0 0 1.5 0.18648 -0.0829223 
11.6871 -6.27623 12.3797 0 0 1.5 0.19349 -0.0825136 
11.9494 -6.38643 12.5795 0 0 1.5 0.199683 -0.0819379 
12.1916 -6.53418 12.7807 0 0 1.5 0.20904 -0.0802466 
12.4228 -6.69802 12.9809 0 0 1.5 0.211949 -0.0791014 
12.6344 -6.89027 13.1791 0 0 1.5 0.213573 -0.0776938 
12.8191 -7.11193 13.3714 0 0 1.5 0.213882 -0.0759934 
12.9893 -7.34912 13.5604 0 0 1.5 0.210589 -0.0716853 
13.1119 -7.62362 13.7355 0 0 1.5 0.207117 -0.0691056 
13.2134 -7.9091 13.9038 0 0 1.5 0.202579 -0.0661937 
13.2841 -8.21062 14.0623 0 0 1.5 0.190855 -0.0592549 
13.3174 -8.52316 14.2099 0 0 1.5 0.183976 -0.055244 
13.3351 -8.83915 14.3537 0 0 1.5 0.176629 -0.0507804 
13.3208 -9.15792 14.4923 0 0 1.5 0.168957 -0.0457587 
13.2938 -9.47475 14.6329 0 0 1.5 0.153148 -0.034385 
13.2535 -9.78956 14.7753 0 0 1.5 0.145243 -0.0279475 
13.2006 -10.0969 14.9292 0 0 1.5 0.137463 -0.0207733 
13.1438 -10.4005 15.0891 0 0 1.5 0.129877 -0.0129683 
13.0815 -10.6934 15.2662 0 0 1.5 0.115498 0.00432067 
13.0187 -10.9778 15.4559 0 0 1.5 0.10878 0.0141731 
12.9554 -11.2553 15.656 0 0 1.5 0.10241 0.0247538 
12.8928 -11.5189 15.8742 0 0 1.5 0.0907589 0.0475427 
12.8296 -11.7783 16.0971 0 0 1.5 0.085487 0.0598741 
12.7654 -12.0318 16.3265 0 0 1.5 0.0805854 0.0726417 
12.6958 -12.285 16.5547 0 0 1.5 0.0760454 0.0855519 
12.622 -12.5399 16.7795 0 0 1.5 0.0680035 0.111044 
12.5372 -12.8021 16.9918 0 0 1.5 0.0644727 0.1232 
12.4413 -13.0735 17.1862 0 0 1.5 0.061242 0.13471 
12.3373 -13.3517 17.3675 0 0 1.5 0.0582878 0.145236 
12.214 -13.6448 17.5076 0 0 1.5 0.0531033 0.162287 
12.0866 -13.9407 17.6377 0 0 1.5 0.0508158 0.168993 
11.9419 -14.2466 17.7186 0 0 1.5 0.0486924 0.174323 
11.7973 -14.5524 17.7996 0 0 1.5 0.0467025 0.178094 
11.6526 -14.8583 17.8806 0 0 1.5 0.043005 0.182388 
11.508 -15.1641 17.9616 0 0 1.5 0.0412475 0.183279 
11.3633 -15.47 18.0425 0 0 1.5 0.0395209 0.18328 
11.2186 -15.7758 18.1235 0 0 1.5 0.0360873 0.182646 
11.074 -16.0817 18.2045 0 0 1.5 0.0343584 0.182561 
10.9293 -16.3876 18.2854 0 0 1.5 0.0326123 0.182613 
10.7847 -16.6934 18.3664 0 0 1.5 0.0308461 0.183187 
10.64 -16.9993 18.4474 0 0 1.5 0.0272601 0.187338 
10.4953 -17.3051 18.5283 0 0 1.5 0.025451 0.191013 
10.3507 -17.611 18.6093 0 0 1.5 0.0236418 0.196188 
10.206 -17.9168 18.6903 0 0 1.5 0.0218419 0.203456 
10.0614 -18.2227 18.7712 0 0 1.5 0.0183163 0.225495 
9.91672 -18.5285 18.8522 0 0 1.5 0.0166174 0.241337 
9.77206 -18.8344 18.9332 0 0 1.5 0.0149782 0.261757 
9.6274 -19.1403 19.0141 0 0 1.5 0.0119348 0.31997 
9.48274 -19.4461 19.0951 0 0 1.5 0.0105619 0.360065 
9.33809 -19.752 19.1761 0 0 1.5 0.00930774 0.409627 
9.19343 -20.0578 19.2571 0 0 1.5 0.00818798 0.468702 
9.04877 -20.3637 19.338 0 0 1.5 0.00642259 0.600195 
8.90411 -20.6695 19.419 0 0 1.5 0.00580546 0.654466 
8.75945 -20.9754 19.5 0 0 1.5 0.00537171 0.682424 
8.6148 -21.2813 19.5809 0 0 1.5 0.00511 0.673713 
8.47014 -21.5871 19.6619 0 0 1.5 0.00498237 0.569211 
8.32548 -21.893 19.7429 0 0 1.5 0.00503887 0.500443 
8.18082 -22.1988 19.8238 0 0 1.5 0.0051276 0.4346 
8.03616 -22.5047 19.9048 0 0 1.5 0.00529993 0.330582 
7.89151 -22.8105 19.9858 0 0 1.5 0.00535204 0.293033 
7.74685 -23.1164 20.0667 0 0 1.5 0.00537016 0.262948 
7.60219 -23.4222 20.1477 0 0 1.5 0.00535055 0.239422 
7.45753 -23.7281 20.2287 0 0 1.5 0.00519614 0.208621 
7.31287 -24.034 20.3096 0 0 1.5 0.00506478 0.198992 
7.16822 -24.3398 20.3906 0 0 1.5 0.0049013 0.192672 
7.02356 -24.6457 20.4716 0 0 1.5 0.00470921 0.189769 
6.8789 -24.9515 20.5526 0 0 1.5 0.00425605 0.192643 
6.73424 -25.2574 20.6335 0 0 1.5 0.00400412 0.198458 
6.58958 -25.5632 20.7145 0 0 1.5 0.00374102 0.208053 
6.44493 -25.8691 20.7955 0 0 1.5 0.00347115 0.221694 
6.30027 -26.175 20.8764 0 0 1.5 0.00292992 0.263112 
6.15561 -26.4808 20.9574 0 0 1.5 0.00266754 0.293755 
6.01095 -26.7867 21.0384 0 0 1.5 0.00241668 0.332528 
5.86629 -27.0925 21.1193 0 0 1.5 0.00197121 0.434835 
5.72164 -27.3984 21.2003 0 0 1.5 0.00178797 0.495617 
5.57698 -27.7042 21.2813 0 0 1.5 0.00163876 0.554626 
5.43232 -28.0101 21.3622 0 0 1.5 0.00152883 0.599579 
5.28766 -28.3159 21.4432 0 0 1.5 0.0014355 0.605304 
5.143 -28.6218 21.5242 0 0 1.5 0.00144749 0.562774 
4.99835 -28.9277 21.6051 0 0 1.5 0.00149035 0.501309 
4.85369 -29.2335 21.6861 0 0 1.5 0.00155596 0.434013 
4.70903 -29.5394 21.7671 0 0 1.5 0.00172621 0.313839 
4.56437 -29.8452 21.8481 0 0 1.5 0.00181987 0.265474 
4.41971 -30.1511 21.929 0 0 1.5 0.00191421 0.225097 
4.27506 -30.4569 22.01 0 0 1.5 0.00209637 0.164563 
4.1304 -30.7628 22.091 0 0 1.5 0.00218184 0.141685 
3.98574 -31.0686 22.1719 0 0 1.5 0.00226287 0.12261 
3.84108 -31.3745 22.2529 0 0 1.5 0.00233926 0.106814 
3.69642 -31.6804 22.3339 0 0 1.5 0.00247867 0.0824574 
3.55177 -31.9862 22.4148 0 0 1.5 0.00254237 0.0730878 
3.40711 -32.2921 22.4958 0 0 1.5 0.00260258 0.065318 
3.26245 -32.5979 22.5768 0 0 1.5 0.00265973 0.058888 
3.11779 -32.9038 22.6577 0 0 1.5 0.00276695 0.0492848 
2.97313 -33.2096 22.7387 0 0 1.5 0.00281809 0.0458669 
2.82848 -33.5155 22.8197 0 0 1.5 0.00286826 0.0432296 
0 1 0 
1 2 0 
2 3 0 
3 4 0 
4 5 0 
5 6 0 
6 7 0 
7 8 0 
8 9 0 
9 10 0 
10 11 0 
11 12 0 
12 13 0 
13 14 0 
14 15 0 
15 16 0 
16 17 0 
17 18 0 
18 19 0 
19 20 0 
20 21 0 
21 22 0 
22 23 0 
23 24 0 
24 25 0 
25 26 0 
26 27 0 
27 28 0 
28 29 0 
29 30 0 
30 31 0 
31 32 0 
32 33 0 
33 34 0 
34 35 0 
35 36 0 
36 37 0 
37 38 0 
38 39 0 
39 40 0 
40 41 0 
41 42 0 
42 43 0 
43 44 0 
44 45 0 
45 46 0 
46 47 0 
47 48 0 
48 49 0 
49 50 0 
50 51 0 
51 52 0 
52 53 0 
53 54 0 
54 55 0 
55 56 0 
56 57 0 
57 58 0 
58 59 0 
59 60 0 
60 61 0 
61 62 0 
62 63 0 
63 64 0 
64 65 0 
65 66 0 
66 67 0 
67 68 0 
68 69 0 
69 70 0 
70 71 0 
71 72 0 
72 73 0 
73 74 0 
74 75 0 
75 76 0 
76 77 0 
77 78 0 
78 79 0 
79 80 0 
80 81 0 
81 82 0 
82 83 0 
83 84 0 
84 85 0 
85 86 0 
86 87 0 
87 88 0 
88 89 0 
89 90 0 
90 91 0 
91 92 0 
92 93 0 
93 94 0 
94 95 0 
95 96 0 
96 97 0 
97 98 0 
98 99 0 
99 100 0 
100 101 0 
101 102 0 
102 103 0 
103 104 0 
104 105 0 
105 106 0 
106 107 0 
107 108 0 
108 109 0 
109 110 0 
110 111 0 
111 112 0 
112 113 0 
113 114 0 
114 115 0 
115 116 0 
116 117 0 
117 118 0 
118 119 0 
119 120 0 
120 121 0 
121 122 0 
122 123 0 
123 124 0 
124 125 0 
125 126 0 
126 127 0 
127 128 0 
128 129 0 
129 130 0 
130 131 0 
131 132 0 
132 133 0 
133 134 0 
134 135 0 
135 136 0 
136 137 0 
137 138 0 
138 139 0 
139 140 0 
140 141 0 
141 142 0 
142 143 0 
143 144 0 
144 145 0 
145 146 0 
146 147 0 
147 148 0 
148 149 0 
149 150 0 
150 151 0 
151 152 0 
152 153 0 
153 154 0 
154 155 0 
155 156 0 
156 157 0 
157 158 0 
158 159 0 
159 160 0 
160 161 0 
161 162 0 
162 163 0 
163 164 0 
164 165 0 
165 166 0 
166 167 0 
167 168 0 
168 169 0 
169 170 0 
170 171 0 
171 172 0 
172 173 0 
173 174 0 
174 175 0 
175 176 0 
176 177 0 
177 178 0 
178 179 0 
179 180 0 
180 181 0 
181 182 0 
182 183 0 
183 184 0 
184 185 0 
185 186 0 
186 187 0 
187 188 0 
188 189 0 
189 190 0 
190 191 0 
191 192 0 
192 193 0 
193 194 0 
194 195 0 
195 196 0 
196 197 0 
197 198 0 
198 199 0 
199 200 0 
200 201 0 
201 202 0 
202 203 0 
203 204 0 
204 205 0 
205 206 0 
206 207 0 
207 208 0 
208 209 0 
209 210 0 
210 211 0 
211 212 0 
212 213 0 
213 214 0 
214 215 0 
215 216 0 
216 217 0 
217 218 0 
218 219 0 
219 220 0 
220 221 0 
221 222 0 
222 223 0 
223 224 0 
224 225 0 
225 226 0 
226 227 0 
227 228 0 
228 229 0 
229 230 0 
230 231 0 
231 232 0 
232 233 0 
233 234 0 
234 235 0 
235 236 0 
236 237 0 
237 238 0 
238 239 0 
239 240 0 
240 241 0 
241 242 0 
242 243 0 
243 244 0 
244 245 0 
245 246 0 
246 247 0 
247 248 0 
248 249 0 
249 250 0 
250 251 0 
251 252 0 
252 253 0 
253 254 0 
254 255 0 
255 256 0 
256 257 0 
257 258 0 
258 259 0 
259 260 0 
260 261 0 
261 262 0 
262 263 0 
263 264 0 
264 265 0 
265 266 0 
266 267 0 
267 268 0 
268 269 0 
269 270 0 
270 271 0 
271 272 0 
272 273 0 
273 274 0 
274 275 0 
275 276 0 
276 277 0 
277 278 0 
278 279 0 
279 280 0 
280 281 0 
281 282 0 
282 283 0 
283 284 0 
284 285 0 
285 286 0 
286 287 0 
287 288 0 
288 289 0 
289 290 0 
290 291 0 
291 292 0 
292 293 0 
293 294 0 
294 295 0 
295 296 0 
296 297 0 
297 298 0 
298 299 0 
-1 -1 0 
-1 300 0 1 2 3 4 5 6 7 8 9 10 11 12 13 14 15 16 17 18 19 20 21 22 23 24 25 26 27 28 29 30 31 32 33 34 35 36 37 38 39 40 41 42 43 44 45 46 47 48 49 50 51 52 53 54 55 56 57 58 59 60 61 62 63 64 65 66 67 68 69 70 71 72 73 74 75 76 77 78 79 80 81 82 83 84 85 86 87 88 89 90 91 92 93 94 95 96 97 98 99 100 101 102 103 104 105 106 107 108 109 110 111 112 113 114 115 116 117 118 119 120 121 122 123 124 125 126 127 128 129 130 131 132 133 134 135 136 137 138 139 140 141 142 143 144 145 146 147 148 149 150 151 152 153 154 155 156 157 158 159 160 161 162 163 164 165 166 167 168 169 170 171 172 173 174 175 176 177 178 179 180 181 182 183 184 185 186 187 188 189 190 191 192 193 194 195 196 197 198 199 200 201 202 203 204 205 206 207 208 209 210 211 212 213 214 215 216 217 218 219 220 221 222 223 224 225 226 227 228 229 230 231 232 233 234 235 236 237 238 239 240 241 242 243 244 245 246 247 248 249 250 251 252 253 254 255 256 257 258 259 260 261 262 263 264 265 266 267 268 269 270 271 272 273 274 275 276 277 278 279 280 281 282 283 284 285 286 287 288 289 290 291 292 293 294 295 296 297 298 299 
