ply
format ascii 1.0
comment written by koba@oshima.lab
element vertex 300
property float x
property float y
property float z
property int label
property int attribute
property float radius
property float curvature
property float torsion
element edge 300
property int vertex1
property int vertex2
property int label
element vertex_seq 1
property int label
property list int int vertex_indices
end_header
4.51812 23.947 2.24603 0 0 1.5 0.0310203 0.0286681 
4.35989 23.6983 2.10087 0 0 1.5 0.0303833 0.0300872 
4.20166 23.4496 1.9557 0 0 1.5 0.029737 0.0320044 
4.04342 23.2009 1.81054 0 0 1.5 0.0290748 0.0344929 
3.88519 22.9522 1.66537 0 0 1.5 0.027677 0.0415456 
3.72696 22.7035 1.52021 0 0 1.5 0.0269278 0.0463334 
3.56872 22.4548 1.37504 0 0 1.5 0.0261355 0.0521979 
3.41049 22.2061 1.22988 0 0 1.5 0.0252934 0.0593939 
3.25226 21.9574 1.08471 0 0 1.5 0.0234326 0.0788516 
3.09402 21.7087 0.939548 0 0 1.5 0.0223998 0.0921216 
2.93579 21.4601 0.794383 0 0 1.5 0.0212908 0.108893 
2.77756 21.2114 0.649218 0 0 1.5 0.0201014 0.130243 
2.61932 20.9627 0.504053 0 0 1.5 0.0174753 0.194578 
2.46109 20.714 0.358888 0 0 1.5 0.0160457 0.245004 
2.30286 20.4653 0.213723 0 0 1.5 0.0145564 0.315598 
2.14462 20.2166 0.0685579 0 0 1.5 0.0115548 0.560925 
1.98639 19.9679 -0.0766072 0 0 1.5 0.0102083 0.761745 
1.82816 19.7192 -0.221772 0 0 1.5 0.00918106 0.999178 
1.66993 19.4705 -0.366937 0 0 1.5 0.00872954 1.17374 
1.51169 19.2219 -0.512102 0 0 1.5 0.0103109 0.958677 
1.35346 18.9732 -0.657268 0 0 1.5 0.012265 0.727649 
1.19523 18.7245 -0.802433 0 0 1.5 0.0147652 0.541097 
1.03699 18.4758 -0.947598 0 0 1.5 0.0176656 0.409373 
0.878759 18.2271 -1.09276 0 0 1.5 0.0243176 0.257777 
0.720525 17.9784 -1.23793 0 0 1.5 0.0279563 0.214704 
0.562292 17.7297 -1.38309 0 0 1.5 0.0317463 0.184358 
0.404059 17.481 -1.52826 0 0 1.5 0.0396488 0.147298 
0.245825 17.2323 -1.67342 0 0 1.5 0.0436897 0.136002 
0.0875921 16.9836 -1.81859 0 0 1.5 0.047735 0.128082 
-0.0706412 16.735 -1.96375 0 0 1.5 0.0517427 0.122922 
-0.228875 16.4863 -2.10892 0 0 1.5 0.0594625 0.11846 
-0.387108 16.2376 -2.25408 0 0 1.5 0.0630702 0.118719 
-0.545341 15.9889 -2.39925 0 0 1.5 0.0664382 0.120645 
-0.703574 15.7402 -2.54441 0 0 1.5 0.0695131 0.124011 
-0.861808 15.4915 -2.68958 0 0 1.5 0.0745746 0.135 
-1.02004 15.2428 -2.83474 0 0 1.5 0.0764629 0.143217 
-1.17827 14.9941 -2.97991 0 0 1.5 0.077867 0.153359 
-1.33651 14.7454 -3.12507 0 0 1.5 0.0787617 0.165499 
-1.49474 14.4968 -3.27024 0 0 1.5 0.0789716 0.198239 
-1.67575 14.2554 -3.39862 0 0 1.5 0.0782949 0.219822 
-1.86904 14.018 -3.51797 0 0 1.5 0.0771461 0.245203 
-2.08529 13.7915 -3.61626 0 0 1.5 0.0737138 0.310989 
-2.3067 13.5675 -3.70965 0 0 1.5 0.0716317 0.35233 
-2.5479 13.356 -3.78069 0 0 1.5 0.069506 0.398377 
-2.79283 13.1475 -3.84658 0 0 1.5 0.0675299 0.447836 
-3.04909 12.9481 -3.89685 0 0 1.5 0.0649295 0.542534 
-3.31049 12.7538 -3.93878 0 0 1.5 0.0647963 0.574584 
-3.5775 12.5652 -3.97159 0 0 1.5 0.0657351 0.588377 
-3.85018 12.3835 -3.99478 0 0 1.5 0.0678882 0.581719 
-4.12521 12.2048 -4.01423 0 0 1.5 0.075976 0.51651 
-4.40532 12.0336 -4.02788 0 0 1.5 0.0817721 0.470423 
-4.68748 11.866 -4.04309 0 0 1.5 0.0885452 0.423917 
-4.97182 11.7023 -4.06032 0 0 1.5 0.104327 0.342004 
-5.2587 11.5455 -4.09313 0 0 1.5 0.11299 0.308942 
-5.5447 11.3941 -4.14802 0 0 1.5 0.121934 0.281348 
-5.82542 11.2497 -4.23561 0 0 1.5 0.13099 0.258555 
-6.09222 11.1142 -4.36805 0 0 1.5 0.148822 0.22428 
-6.33408 10.9884 -4.5495 0 0 1.5 0.157283 0.211778 
-6.54501 10.8705 -4.77159 0 0 1.5 0.165232 0.201591 
-6.72397 10.7575 -5.02289 0 0 1.5 0.172538 0.193127 
-6.87699 10.645 -5.29079 0 0 1.5 0.184749 0.180339 
-7.01545 10.5312 -5.56594 0 0 1.5 0.189452 0.175509 
-7.14331 10.4161 -5.84585 0 0 1.5 0.193149 0.171292 
-7.25609 10.297 -6.13053 0 0 1.5 0.197487 0.164225 
-7.36336 10.1756 -6.41629 0 0 1.5 0.198169 0.16121 
-7.46317 10.0511 -6.70352 0 0 1.5 0.197939 0.158424 
-7.55323 9.92143 -6.9916 0 0 1.5 0.196884 0.155828 
-7.63968 9.78982 -7.27997 0 0 1.5 0.192719 0.151171 
-7.71001 9.64835 -7.56806 0 0 1.5 0.189855 0.14911 
-7.7742 9.50302 -7.85543 0 0 1.5 0.186648 0.14719 
-7.82274 9.34787 -8.14096 0 0 1.5 0.183231 0.145388 
-7.85387 9.1825 -8.42266 0 0 1.5 0.176298 0.142387 
-7.87306 9.01014 -8.70173 0 0 1.5 0.173059 0.141124 
-7.85698 8.82024 -8.96922 0 0 1.5 0.170146 0.1399 
-7.82462 8.62407 -9.22981 0 0 1.5 0.167683 0.138729 
-7.7652 8.41783 -9.47859 0 0 1.5 0.164648 0.136294 
-7.67537 8.20481 -9.71118 0 0 1.5 0.164335 0.134754 
-7.57156 7.98927 -9.93604 0 0 1.5 0.164993 0.132905 
-7.43683 7.77178 -10.1422 0 0 1.5 0.169752 0.128032 
-7.29138 7.55531 -10.3414 0 0 1.5 0.174102 0.124932 
-7.12966 7.34037 -10.5301 0 0 1.5 0.17992 0.121441 
-6.95596 7.12808 -10.7106 0 0 1.5 0.187319 0.117638 
-6.77428 6.91755 -10.8856 0 0 1.5 0.207241 0.109594 
-6.58197 6.7098 -11.0522 0 0 1.5 0.219917 0.105655 
-6.38569 6.5031 -11.2156 0 0 1.5 0.23448 0.101947 
-6.18046 6.29756 -11.3691 0 0 1.5 0.250955 0.0985529 
-5.9732 6.09229 -11.5202 0 0 1.5 0.289446 0.0929489 
-5.75794 5.88489 -11.6566 0 0 1.5 0.311153 0.0908275 
-5.54133 5.67675 -11.7895 0 0 1.5 0.334086 0.0891633 
-5.31789 5.46216 -11.8989 0 0 1.5 0.381307 0.0871513 
-5.09246 5.2433 -11.9927 0 0 1.5 0.403941 0.0867718 
-4.86373 5.01737 -12.0605 0 0 1.5 0.424509 0.0867217 
-4.63618 4.7818 -12.0706 0 0 1.5 0.441771 0.0869353 
-4.41853 4.54556 -12.0215 0 0 1.5 0.461615 0.0880342 
-4.22285 4.31917 -11.8959 0 0 1.5 0.462468 0.0888479 
-4.06133 4.11759 -11.6949 0 0 1.5 0.456791 0.0898467 
-3.94547 3.95911 -11.4315 0 0 1.5 0.44484 0.0910539 
-3.86014 3.83524 -11.1408 0 0 1.5 0.405509 0.0943162 
-3.79085 3.73098 -10.8377 0 0 1.5 0.380455 0.096672 
-3.74076 3.65254 -10.5226 0 0 1.5 0.353442 0.0996873 
-3.69993 3.58843 -10.2033 0 0 1.5 0.297839 0.108285 
-3.66584 3.53477 -9.88096 0 0 1.5 0.270851 0.114418 
-3.63986 3.49375 -9.55611 0 0 1.5 0.245102 0.122143 
-3.61638 3.45662 -9.23049 0 0 1.5 0.220897 0.131765 
-3.60069 3.42732 -8.90364 0 0 1.5 0.177695 0.158774 
-3.58612 3.39915 -8.5766 0 0 1.5 0.158768 0.177522 
-3.58137 3.37253 -8.24916 0 0 1.5 0.141599 0.200891 
-3.57811 3.34548 -7.92174 0 0 1.5 0.126157 0.229863 
-3.5875 3.31293 -7.59493 0 0 1.5 0.100406 0.307983 
-3.6018 3.27681 -7.26882 0 0 1.5 0.0901527 0.357193 
-3.62978 3.23072 -6.94471 0 0 1.5 0.0817522 0.410107 
-3.66966 3.17414 -6.62389 0 0 1.5 0.0753212 0.460448 
-3.72033 3.10805 -6.30605 0 0 1.5 0.0687312 0.516731 
-3.79136 3.02146 -5.9974 0 0 1.5 0.0685465 0.508848 
-3.87073 2.92552 -5.6937 0 0 1.5 0.0702074 0.478706 
-3.9652 2.81142 -5.40042 0 0 1.5 0.0778238 0.387792 
-4.0681 2.68326 -5.11622 0 0 1.5 0.0831347 0.342184 
-4.17552 2.54645 -4.83753 0 0 1.5 0.0890655 0.301535 
-4.28591 2.39513 -4.56758 0 0 1.5 0.0953799 0.266992 
-4.39316 2.23791 -4.29982 0 0 1.5 0.108419 0.214929 
-4.49764 2.07582 -4.0338 0 0 1.5 0.114826 0.195707 
-4.58913 1.90812 -3.76647 0 0 1.5 0.120966 0.180172 
-4.67142 1.73939 -3.49699 0 0 1.5 0.126712 0.167813 
-4.74433 1.5696 -3.22531 0 0 1.5 0.13655 0.15033 
-4.79709 1.39823 -2.94998 0 0 1.5 0.140428 0.144606 
-4.83897 1.22398 -2.67478 0 0 1.5 0.143502 0.140749 
-4.87013 1.0461 -2.40037 0 0 1.5 0.147033 0.137749 
-4.88566 0.856936 -2.13217 0 0 1.5 0.147444 0.138456 
-4.89177 0.653849 -1.87433 0 0 1.5 0.146972 0.140674 
-4.89065 0.437613 -1.62746 0 0 1.5 0.145665 0.144355 
-4.88141 0.201516 -1.39914 0 0 1.5 0.140849 0.156086 
-4.86617 -0.0546411 -1.19458 0 0 1.5 0.137546 0.164123 
-4.84771 -0.321972 -1.00516 0 0 1.5 0.13381 0.173592 
-4.82543 -0.603035 -0.836448 0 0 1.5 0.129775 0.184458 
-4.79966 -0.893339 -0.685204 0 0 1.5 0.121372 0.209323 
-4.77216 -1.18752 -0.541557 0 0 1.5 0.117293 0.22258 
-4.73983 -1.48745 -0.411366 0 0 1.5 0.113479 0.235729 
-4.70482 -1.78805 -0.283498 0 0 1.5 0.110058 0.24796 
-4.66545 -2.08974 -0.159436 0 0 1.5 0.104828 0.266004 
-4.62034 -2.39035 -0.0348033 0 0 1.5 0.103186 0.270121 
-4.57149 -2.69026 0.0902011 0 0 1.5 0.102269 0.270146 
-4.51281 -2.98643 0.219676 0 0 1.5 0.10264 0.257664 
-4.45166 -3.28166 0.350272 0 0 1.5 0.10388 0.245862 
-4.37561 -3.56995 0.488315 0 0 1.5 0.105749 0.231488 
-4.29639 -3.85666 0.627679 0 0 1.5 0.108165 0.2156 
-4.20197 -4.13568 0.773242 0 0 1.5 0.114259 0.182268 
-4.10044 -4.41094 0.920719 0 0 1.5 0.117729 0.166193 
-3.9854 -4.67906 1.07184 0 0 1.5 0.121344 0.15127 
-3.85789 -4.94016 1.22464 0 0 1.5 0.125004 0.137593 
-3.71997 -5.19541 1.37886 0 0 1.5 0.132066 0.114092 
-3.56325 -5.43892 1.53361 0 0 1.5 0.135286 0.104354 
-3.40063 -5.67873 1.68852 0 0 1.5 0.13819 0.0958364 
-3.21239 -5.89984 1.84226 0 0 1.5 0.142749 0.0820546 
-3.01737 -6.11491 1.99536 0 0 1.5 0.144288 0.0766688 
-2.80347 -6.31314 2.14671 0 0 1.5 0.145279 0.0721593 
-2.57649 -6.49671 2.29641 0 0 1.5 0.145695 0.0684461 
-2.33855 -6.668 2.44474 0 0 1.5 0.14476 0.0630259 
-2.08322 -6.81409 2.59047 0 0 1.5 0.143439 0.061159 
-1.82238 -6.9512 2.73532 0 0 1.5 0.141584 0.0597915 
-1.5475 -7.0613 2.87771 0 0 1.5 0.139234 0.0588125 
-1.26798 -7.15908 3.01921 0 0 1.5 0.133265 0.0576057 
-0.981957 -7.23953 3.15948 0 0 1.5 0.129763 0.057288 
-0.691446 -7.30232 3.29899 0 0 1.5 0.125995 0.0570434 
-0.398864 -7.35698 3.43815 0 0 1.5 0.117904 0.0563516 
-0.103438 -7.39227 3.57746 0 0 1.5 0.113694 0.0557559 
0.192292 -7.42377 3.71703 0 0 1.5 0.109439 0.0548871 
0.488533 -7.44271 3.85788 0 0 1.5 0.105178 0.0536614 
0.784412 -7.45819 3.99984 0 0 1.5 0.0967675 0.0497164 
1.07968 -7.46785 4.14364 0 0 1.5 0.0926661 0.0469147 
1.37377 -7.47496 4.28996 0 0 1.5 0.0886489 0.0436401 
1.66699 -7.48019 4.43811 0 0 1.5 0.0847187 0.0398022 
1.95799 -7.48465 4.5906 0 0 1.5 0.0771212 0.0302036 
2.24834 -7.4889 4.74433 0 0 1.5 0.0734382 0.0246486 
2.53519 -7.49389 4.90448 0 0 1.5 0.0698129 0.0185529 
2.82122 -7.49898 5.06607 0 0 1.5 0.0662312 0.0118113 
3.10392 -7.50442 5.23341 0 0 1.5 0.0591337 -0.0026574 
3.38496 -7.50911 5.40352 0 0 1.5 0.0555766 -0.010189 
3.66347 -7.51267 5.57782 0 0 1.5 0.0519895 -0.0180804 
3.9396 -7.5127 5.75583 0 0 1.5 0.0446587 -0.0345638 
4.21426 -7.51055 5.93614 0 0 1.5 0.0408809 -0.0433369 
4.48638 -7.49975 6.11992 0 0 1.5 0.0370072 -0.0530234 
4.75788 -7.4861 6.30443 0 0 1.5 0.0330239 -0.0643292 
5.02769 -7.45907 6.48997 0 0 1.5 0.0246879 -0.0985294 
5.29732 -7.42611 6.67464 0 0 1.5 0.0203167 -0.130763 
5.56659 -7.38174 6.85763 0 0 1.5 0.0158031 -0.193573 
5.83628 -7.32665 7.0368 0 0 1.5 0.0111663 -0.352037 
6.10625 -7.26465 7.21353 0 0 1.5 0.00280332 -5.2058 
6.37806 -7.18979 7.38216 0 0 1.5 0.00521635 -1.59949 
6.65069 -7.11179 7.54806 0 0 1.5 0.0103421 -0.461999 
6.92618 -7.02653 7.70552 0 0 1.5 0.0218361 -0.153002 
7.20384 -6.94093 7.85884 0 0 1.5 0.0279916 -0.116409 
7.48414 -6.85491 8.00714 0 0 1.5 0.034403 -0.0960222 
7.76856 -6.77475 8.15069 0 0 1.5 0.0410698 -0.083426 
8.05466 -6.69742 8.29252 0 0 1.5 0.0551875 -0.069179 
8.34549 -6.6349 8.43202 0 0 1.5 0.0626423 -0.0646835 
8.63741 -6.5802 8.57217 0 0 1.5 0.0703566 -0.0612536 
8.93116 -6.53879 8.71343 0 0 1.5 0.0783248 -0.0586571 
9.22465 -6.51348 8.85854 0 0 1.5 0.0949691 -0.0547874 
9.51801 -6.49545 9.00541 0 0 1.5 0.103589 -0.0533216 
9.80753 -6.49985 9.1607 0 0 1.5 0.112351 -0.0521737 
10.0951 -6.51009 9.31892 0 0 1.5 0.130059 -0.0507127 
10.3781 -6.5343 9.48414 0 0 1.5 0.13884 -0.0503857 
10.6564 -6.56824 9.65508 0 0 1.5 0.14743 -0.0503442 
10.9312 -6.60962 9.8304 0 0 1.5 0.155702 -0.0506038 
11.1986 -6.66418 10.0132 0 0 1.5 0.170703 -0.0520909 
11.4639 -6.72261 10.198 0 0 1.5 0.177106 -0.0533748 
11.7201 -6.79724 10.3896 0 0 1.5 0.182547 -0.0550726 
11.9733 -6.87771 10.5827 0 0 1.5 0.186872 -0.0572285 
12.2188 -6.97261 10.7794 0 0 1.5 0.191616 -0.063209 
12.4574 -7.08058 10.9773 0 0 1.5 0.191819 -0.0672069 
12.6898 -7.2001 11.1764 0 0 1.5 0.190512 -0.0719928 
12.9086 -7.34262 11.3754 0 0 1.5 0.187701 -0.0777535 
13.122 -7.49366 11.5742 0 0 1.5 0.177768 -0.0932272 
13.314 -7.67407 11.7705 0 0 1.5 0.170865 -0.10347 
13.4946 -7.86685 11.9647 0 0 1.5 0.162878 -0.116021 
13.6568 -8.07948 12.1556 0 0 1.5 0.144343 -0.15123 
13.7943 -8.3123 12.341 0 0 1.5 0.13417 -0.175953 
13.9211 -8.55399 12.5239 0 0 1.5 0.12366 -0.207695 
14.0101 -8.81843 12.6974 0 0 1.5 0.11301 -0.249116 
14.0895 -9.08703 12.8683 0 0 1.5 0.0922127 -0.374106 
14.1417 -9.36722 13.0317 0 0 1.5 0.0826673 -0.464967 
14.1791 -9.6515 13.1913 0 0 1.5 0.0742095 -0.576666 
14.2 -9.94028 13.3466 0 0 1.5 0.0673509 -0.700099 
14.2053 -10.2311 13.499 0 0 1.5 0.0607316 -0.861685 
14.2023 -10.523 13.6498 0 0 1.5 0.0617198 -0.834847 
14.1873 -10.814 13.8016 0 0 1.5 0.0654373 -0.74303 
14.1694 -11.1047 13.9536 0 0 1.5 0.0787928 -0.511028 
14.1472 -11.3899 14.1152 0 0 1.5 0.087183 -0.414992 
14.1274 -11.6718 14.2824 0 0 1.5 0.0960157 -0.338932 
14.1147 -11.9442 14.4658 0 0 1.5 0.104902 -0.280081 
14.1223 -12.1967 14.6741 0 0 1.5 0.121576 -0.198686 
14.1563 -12.4204 14.9078 0 0 1.5 0.128817 -0.170603 
14.2367 -12.5891 15.1771 0 0 1.5 0.135046 -0.148439 
14.3913 -12.6327 15.4637 0 0 1.5 0.140099 -0.130574 
14.5459 -12.6762 15.7503 0 0 1.5 0.146152 -0.103795 
14.7005 -12.7198 16.037 0 0 1.5 0.147019 -0.093902 
14.8551 -12.7633 16.3236 0 0 1.5 0.146448 -0.0856618 
15.0097 -12.8069 16.6103 0 0 1.5 0.144489 -0.0786857 
15.1643 -12.8504 16.8969 0 0 1.5 0.136805 -0.0681307 
15.3189 -12.894 17.1835 0 0 1.5 0.131377 -0.064264 
15.4734 -12.9376 17.4702 0 0 1.5 0.125114 -0.0611026 
15.628 -12.9811 17.7568 0 0 1.5 0.110764 -0.0570612 
15.7826 -13.0247 18.0434 0 0 1.5 0.103012 -0.0561774 
15.9372 -13.0682 18.3301 0 0 1.5 0.0950775 -0.0559821 
16.0918 -13.1118 18.6167 0 0 1.5 0.087086 -0.0565873 
16.2464 -13.1553 18.9033 0 0 1.5 0.0713319 -0.0609144 
16.401 -13.1989 19.19 0 0 1.5 0.0637301 -0.064966 
16.5556 -13.2424 19.4766 0 0 1.5 0.0563958 -0.0708102 
16.7102 -13.286 19.7633 0 0 1.5 0.0493677 -0.0792342 
16.8648 -13.3295 20.0499 0 0 1.5 0.0363505 -0.108707 
17.0194 -13.3731 20.3365 0 0 1.5 0.0304145 -0.134727 
17.174 -13.4167 20.6232 0 0 1.5 0.0248821 -0.175679 
17.3286 -13.4602 20.9098 0 0 1.5 0.01512 -0.367286 
17.4832 -13.5038 21.1964 0 0 1.5 0.0110013 -0.613495 
17.6378 -13.5473 21.4831 0 0 1.5 0.00759132 -1.14663 
17.7924 -13.5909 21.7697 0 0 1.5 0.00538842 -2.0359 
17.947 -13.6344 22.0563 0 0 1.5 0.006643 -1.08389 
18.1016 -13.678 22.343 0 0 1.5 0.00861088 -0.584111 
18.2562 -13.7215 22.6296 0 0 1.5 0.0105666 -0.352359 
18.4108 -13.7651 22.9163 0 0 1.5 0.0123336 -0.235244 
18.5654 -13.8087 23.2029 0 0 1.5 0.0150971 -0.130871 
18.7199 -13.8522 23.4895 0 0 1.5 0.0160759 -0.105737 
18.8745 -13.8958 23.7762 0 0 1.5 0.0167918 -0.0887473 
19.0291 -13.9393 24.0628 0 0 1.5 0.0174798 -0.0689084 
19.1837 -13.9829 24.3494 0 0 1.5 0.0174843 -0.0632858 
19.3383 -14.0264 24.6361 0 0 1.5 0.0172867 -0.059407 
19.4929 -14.07 24.9227 0 0 1.5 0.0169061 -0.0569759 
19.6475 -14.1135 25.2093 0 0 1.5 0.0156741 -0.0559477 
19.8021 -14.1571 25.496 0 0 1.5 0.0148636 -0.0570617 
19.9567 -14.2006 25.7826 0 0 1.5 0.0139511 -0.059382 
20.1113 -14.2442 26.0693 0 0 1.5 0.0129552 -0.0632446 
20.2659 -14.2878 26.3559 0 0 1.5 0.010787 -0.0769576 
20.4205 -14.3313 26.6425 0 0 1.5 0.00965188 -0.0882865 
20.5751 -14.3749 26.9292 0 0 1.5 0.00850389 -0.104735 
20.7297 -14.4184 27.2158 0 0 1.5 0.00735753 -0.129051 
20.8843 -14.462 27.5024 0 0 1.5 0.00513167 -0.226212 
21.0389 -14.5055 27.7891 0 0 1.5 0.0040825 -0.33176 
21.1935 -14.5491 28.0757 0 0 1.5 0.00310162 -0.535202 
21.3481 -14.5926 28.3623 0 0 1.5 0.00157043 -1.82062 
21.5027 -14.6362 28.649 0 0 1.5 0.00134092 -2.34205 
21.6573 -14.6797 28.9356 0 0 1.5 0.00163402 -1.482 
21.8119 -14.7233 29.2223 0 0 1.5 0.00218752 -0.777197 
21.9664 -14.7669 29.5089 0 0 1.5 0.00340962 -0.283663 
22.121 -14.8104 29.7955 0 0 1.5 0.00398315 -0.195974 
22.2756 -14.854 30.0822 0 0 1.5 0.00451434 -0.143624 
22.4302 -14.8975 30.3688 0 0 1.5 0.00499998 -0.110092 
22.5848 -14.9411 30.6554 0 0 1.5 0.00583735 -0.0712943 
22.7394 -14.9846 30.9421 0 0 1.5 0.00619342 -0.0592659 
22.894 -15.0282 31.2287 0 0 1.5 0.00651148 -0.050048 
23.0486 -15.0717 31.5153 0 0 1.5 0.00704639 -0.0370702 
23.2032 -15.1153 31.802 0 0 1.5 0.00726999 -0.0322908 
23.3578 -15.1588 32.0886 0 0 1.5 0.00746884 -0.0283075 
23.5124 -15.2024 32.3753 0 0 1.5 0.0076458 -0.0249922 
23.667 -15.246 32.6619 0 0 1.5 0.00794506 -0.0198018 
23.8216 -15.2895 32.9485 0 0 1.5 0.00807274 -0.0177661 
23.9762 -15.3331 33.2352 0 0 1.5 0.00818862 -0.0160599 
24.1308 -15.3766 33.5218 0 0 1.5 0.00829455 -0.014635 
24.2854 -15.4202 33.8084 0 0 1.5 0.00848372 -0.01249 
24.44 -15.4637 34.0951 0 0 1.5 0.00857008 -0.0117287 
24.5946 -15.5073 34.3817 0 0 1.5 0.00865269 -0.0111498 
0 1 0 
1 2 0 
2 3 0 
3 4 0 
4 5 0 
5 6 0 
6 7 0 
7 8 0 
8 9 0 
9 10 0 
10 11 0 
11 12 0 
12 13 0 
13 14 0 
14 15 0 
15 16 0 
16 17 0 
17 18 0 
18 19 0 
19 20 0 
20 21 0 
21 22 0 
22 23 0 
23 24 0 
24 25 0 
25 26 0 
26 27 0 
27 28 0 
28 29 0 
29 30 0 
30 31 0 
31 32 0 
32 33 0 
33 34 0 
34 35 0 
35 36 0 
36 37 0 
37 38 0 
38 39 0 
39 40 0 
40 41 0 
41 42 0 
42 43 0 
43 44 0 
44 45 0 
45 46 0 
46 47 0 
47 48 0 
48 49 0 
49 50 0 
50 51 0 
51 52 0 
52 53 0 
53 54 0 
54 55 0 
55 56 0 
56 57 0 
57 58 0 
58 59 0 
59 60 0 
60 61 0 
61 62 0 
62 63 0 
63 64 0 
64 65 0 
65 66 0 
66 67 0 
67 68 0 
68 69 0 
69 70 0 
70 71 0 
71 72 0 
72 73 0 
73 74 0 
74 75 0 
75 76 0 
76 77 0 
77 78 0 
78 79 0 
79 80 0 
80 81 0 
81 82 0 
82 83 0 
83 84 0 
84 85 0 
85 86 0 
86 87 0 
87 88 0 
88 89 0 
89 90 0 
90 91 0 
91 92 0 
92 93 0 
93 94 0 
94 95 0 
95 96 0 
96 97 0 
97 98 0 
98 99 0 
99 100 0 
100 101 0 
101 102 0 
102 103 0 
103 104 0 
104 105 0 
105 106 0 
106 107 0 
107 108 0 
108 109 0 
109 110 0 
110 111 0 
111 112 0 
112 113 0 
113 114 0 
114 115 0 
115 116 0 
116 117 0 
117 118 0 
118 119 0 
119 120 0 
120 121 0 
121 122 0 
122 123 0 
123 124 0 
124 125 0 
125 126 0 
126 127 0 
127 128 0 
128 129 0 
129 130 0 
130 131 0 
131 132 0 
132 133 0 
133 134 0 
134 135 0 
135 136 0 
136 137 0 
137 138 0 
138 139 0 
139 140 0 
140 141 0 
141 142 0 
142 143 0 
143 144 0 
144 145 0 
145 146 0 
146 147 0 
147 148 0 
148 149 0 
149 150 0 
150 151 0 
151 152 0 
152 153 0 
153 154 0 
154 155 0 
155 156 0 
156 157 0 
157 158 0 
158 159 0 
159 160 0 
160 161 0 
161 162 0 
162 163 0 
163 164 0 
164 165 0 
165 166 0 
166 167 0 
167 168 0 
168 169 0 
169 170 0 
170 171 0 
171 172 0 
172 173 0 
173 174 0 
174 175 0 
175 176 0 
176 177 0 
177 178 0 
178 179 0 
179 180 0 
180 181 0 
181 182 0 
182 183 0 
183 184 0 
184 185 0 
185 186 0 
186 187 0 
187 188 0 
188 189 0 
189 190 0 
190 191 0 
191 192 0 
192 193 0 
193 194 0 
194 195 0 
195 196 0 
196 197 0 
197 198 0 
198 199 0 
199 200 0 
200 201 0 
201 202 0 
202 203 0 
203 204 0 
204 205 0 
205 206 0 
206 207 0 
207 208 0 
208 209 0 
209 210 0 
210 211 0 
211 212 0 
212 213 0 
213 214 0 
214 215 0 
215 216 0 
216 217 0 
217 218 0 
218 219 0 
219 220 0 
220 221 0 
221 222 0 
222 223 0 
223 224 0 
224 225 0 
225 226 0 
226 227 0 
227 228 0 
228 229 0 
229 230 0 
230 231 0 
231 232 0 
232 233 0 
233 234 0 
234 235 0 
235 236 0 
236 237 0 
237 238 0 
238 239 0 
239 240 0 
240 241 0 
241 242 0 
242 243 0 
243 244 0 
244 245 0 
245 246 0 
246 247 0 
247 248 0 
248 249 0 
249 250 0 
250 251 0 
251 252 0 
252 253 0 
253 254 0 
254 255 0 
255 256 0 
256 257 0 
257 258 0 
258 259 0 
259 260 0 
260 261 0 
261 262 0 
262 263 0 
263 264 0 
264 265 0 
265 266 0 
266 267 0 
267 268 0 
268 269 0 
269 270 0 
270 271 0 
271 272 0 
272 273 0 
273 274 0 
274 275 0 
275 276 0 
276 277 0 
277 278 0 
278 279 0 
279 280 0 
280 281 0 
281 282 0 
282 283 0 
283 284 0 
284 285 0 
285 286 0 
286 287 0 
287 288 0 
288 289 0 
289 290 0 
290 291 0 
291 292 0 
292 293 0 
293 294 0 
294 295 0 
295 296 0 
296 297 0 
297 298 0 
298 299 0 
-1 -1 0 
-1 300 0 1 2 3 4 5 6 7 8 9 10 11 12 13 14 15 16 17 18 19 20 21 22 23 24 25 26 27 28 29 30 31 32 33 34 35 36 37 38 39 40 41 42 43 44 45 46 47 48 49 50 51 52 53 54 55 56 57 58 59 60 61 62 63 64 65 66 67 68 69 70 71 72 73 74 75 76 77 78 79 80 81 82 83 84 85 86 87 88 89 90 91 92 93 94 95 96 97 98 99 100 101 102 103 104 105 106 107 108 109 110 111 112 113 114 115 116 117 118 119 120 121 122 123 124 125 126 127 128 129 130 131 132 133 134 135 136 137 138 139 140 141 142 143 144 145 146 147 148 149 150 151 152 153 154 155 156 157 158 159 160 161 162 163 164 165 166 167 168 169 170 171 172 173 174 175 176 177 178 179 180 181 182 183 184 185 186 187 188 189 190 191 192 193 194 195 196 197 198 199 200 201 202 203 204 205 206 207 208 209 210 211 212 213 214 215 216 217 218 219 220 221 222 223 224 225 226 227 228 229 230 231 232 233 234 235 236 237 238 239 240 241 242 243 244 245 246 247 248 249 250 251 252 253 254 255 256 257 258 259 260 261 262 263 264 265 266 267 268 269 270 271 272 273 274 275 276 277 278 279 280 281 282 283 284 285 286 287 288 289 290 291 292 293 294 295 296 297 298 299 
