ply
format ascii 1.0
comment written by koba@oshima.lab
element vertex 300
property float x
property float y
property float z
property int label
property int attribute
property float radius
property float curvature
property float torsion
element edge 300
property int vertex1
property int vertex2
property int label
element vertex_seq 1
property int label
property list int int vertex_indices
end_header
0.850513 17.9824 3.15453 0 0 1.5 0.0456396 0.00328768 
0.639936 17.9637 2.83927 0 0 1.5 0.0448312 0.00348259 
0.429358 17.945 2.524 0 0 1.5 0.0440185 0.00390359 
0.218781 17.9263 2.20873 0 0 1.5 0.0431921 0.00454905 
0.00820337 17.9075 1.89346 0 0 1.5 0.0414614 0.00654151 
-0.202374 17.8888 1.57819 0 0 1.5 0.0405285 0.00794964 
-0.412951 17.8701 1.26292 0 0 1.5 0.0395258 0.00967664 
-0.623529 17.8514 0.947654 0 0 1.5 0.0384357 0.0117728 
-0.834106 17.8326 0.632385 0 0 1.5 0.0359062 0.0173168 
-1.04468 17.8139 0.317117 0 0 1.5 0.0344061 0.0210832 
-1.25526 17.7952 0.00184834 0 0 1.5 0.0327103 0.0259142 
-1.46584 17.7765 -0.31342 0 0 1.5 0.0307905 0.0322371 
-1.67642 17.7578 -0.628689 0 0 1.5 0.0261433 0.0533511 
-1.88699 17.739 -0.943957 0 0 1.5 0.0233521 0.072882 
-2.09757 17.7203 -1.25923 0 0 1.5 0.0202149 0.105896 
-2.30815 17.7016 -1.57449 0 0 1.5 0.0129138 0.308569 
-2.51873 17.6829 -1.88976 0 0 1.5 0.00897122 0.703074 
-2.7293 17.6641 -2.20503 0 0 1.5 0.00588799 1.80516 
-2.93988 17.6454 -2.5203 0 0 1.5 0.00684511 1.4861 
-3.15046 17.6267 -2.83557 0 0 1.5 0.0183552 0.263725 
-3.36104 17.608 -3.15084 0 0 1.5 0.0259946 0.150827 
-3.57161 17.5892 -3.46611 0 0 1.5 0.034582 0.0985263 
-3.78219 17.5705 -3.78137 0 0 1.5 0.0441288 0.070687 
-3.99277 17.5518 -4.09664 0 0 1.5 0.0663901 0.0440928 
-4.20335 17.5331 -4.41191 0 0 1.5 0.0792659 0.0371825 
-4.41392 17.5143 -4.72718 0 0 1.5 0.0934022 0.0324798 
-4.6245 17.4956 -5.04245 0 0 1.5 0.125739 0.026994 
-4.83508 17.4769 -5.35772 0 0 1.5 0.143961 0.025241 
-5.04565 17.4582 -5.67299 0 0 1.5 0.163422 0.0239576 
-5.25623 17.4395 -5.98825 0 0 1.5 0.183892 0.0230859 
-5.46681 17.4207 -6.30352 0 0 1.5 0.226096 0.0215673 
-5.67739 17.402 -6.61879 0 0 1.5 0.246401 0.0206972 
-5.88796 17.3833 -6.93406 0 0 1.5 0.264844 0.0197374 
-6.09854 17.3646 -7.24933 0 0 1.5 0.280222 0.0184092 
-6.30934 17.3065 -7.55211 0 0 1.5 0.297273 0.0136571 
-6.52073 17.1422 -7.82119 0 0 1.5 0.297221 0.0100673 
-6.71397 16.9043 -8.03022 0 0 1.5 0.290971 0.00528156 
-6.89468 16.6156 -8.19783 0 0 1.5 0.27891 -0.0011799 
-7.03714 16.27 -8.26391 0 0 1.5 0.240798 -0.021275 
-7.17277 15.9201 -8.30948 0 0 1.5 0.216879 -0.0368368 
-7.29155 15.5596 -8.30453 0 0 1.5 0.191249 -0.058531 
-7.40707 15.1995 -8.28051 0 0 1.5 0.138524 -0.141175 
-7.51809 14.8401 -8.23025 0 0 1.5 0.112736 -0.226761 
-7.63111 14.4834 -8.16767 0 0 1.5 0.0881306 -0.384698 
-7.74657 14.1302 -8.08999 0 0 1.5 0.065651 -0.706561 
-7.86821 13.7806 -8.00657 0 0 1.5 0.0394684 -1.94969 
-7.99726 13.4353 -7.91627 0 0 1.5 0.0463436 -1.37774 
-8.13691 13.0938 -7.82772 0 0 1.5 0.0632933 -0.702987 
-8.28635 12.7558 -7.74078 0 0 1.5 0.0843729 -0.36275 
-8.45312 12.4224 -7.67103 0 0 1.5 0.130363 -0.103671 
-8.62853 12.0913 -7.61197 0 0 1.5 0.15357 -0.0471542 
-8.82482 11.7666 -7.60083 0 0 1.5 0.176049 -0.00773432 
-9.02666 11.45 -7.63895 0 0 1.5 0.215825 0.0450339 
-9.22752 11.1456 -7.73439 0 0 1.5 0.2315 0.0648421 
-9.41576 10.8603 -7.89956 0 0 1.5 0.243246 0.0829795 
-9.56303 10.6083 -8.14158 0 0 1.5 0.250382 0.099711 
-9.67706 10.3761 -8.41662 0 0 1.5 0.249996 0.129412 
-9.76413 10.1587 -8.71471 0 0 1.5 0.242918 0.143724 
-9.80436 9.96019 -9.03575 0 0 1.5 0.23206 0.158172 
-9.82186 9.76727 -9.36122 0 0 1.5 0.218358 0.172917 
-9.8141 9.58058 -9.69163 0 0 1.5 0.186268 0.206038 
-9.77572 9.39709 -10.0211 0 0 1.5 0.169556 0.226062 
-9.72502 9.2149 -10.3503 0 0 1.5 0.153338 0.249277 
-9.64272 9.0316 -10.672 0 0 1.5 0.124494 0.305257 
-9.55459 8.84809 -10.9924 0 0 1.5 0.112705 0.335898 
-9.43872 8.65891 -11.3002 0 0 1.5 0.103197 0.36379 
-9.31935 8.469 -11.6064 0 0 1.5 0.096366 0.381735 
-9.17878 8.26967 -11.8971 0 0 1.5 0.0920944 0.359021 
-9.03476 8.0688 -12.1852 0 0 1.5 0.0950434 0.317374 
-8.87658 7.85643 -12.4568 0 0 1.5 0.10138 0.264944 
-8.71428 7.64071 -12.7236 0 0 1.5 0.110973 0.211149 
-8.54363 7.41341 -12.9748 0 0 1.5 0.139702 0.123403 
-8.36846 7.17987 -13.2174 0 0 1.5 0.159113 0.091422 
-8.18878 6.93618 -13.4456 0 0 1.5 0.182385 0.0655634 
-8.00477 6.68273 -13.6601 0 0 1.5 0.210159 0.044815 
-7.81821 6.42096 -13.861 0 0 1.5 0.283028 0.0141484 
-7.62778 6.14646 -14.0412 0 0 1.5 0.330654 0.00166462 
-7.43548 5.86426 -14.2052 0 0 1.5 0.387824 -0.00969731 
-7.23991 5.56851 -14.3407 0 0 1.5 0.53739 -0.0303218 
-7.04232 5.26394 -14.4467 0 0 1.5 0.631551 -0.040549 
-6.8425 4.94962 -14.5199 0 0 1.5 0.736653 -0.0506118 
-6.64172 4.6296 -14.5207 0 0 1.5 0.846381 -0.059757 
-6.44444 4.31789 -14.4571 0 0 1.5 1.02475 -0.0712412 
-6.25858 4.03577 -14.2936 0 0 1.5 1.05725 -0.071338 
-6.1047 3.83519 -14.0105 0 0 1.5 1.03648 -0.0670841 
-6.00588 3.77019 -13.6504 0 0 1.5 0.967439 -0.0590957 
-5.94331 3.79664 -13.281 0 0 1.5 0.752397 -0.0377377 
-5.90168 3.87851 -12.915 0 0 1.5 0.64019 -0.027287 
-5.87928 4.01423 -12.5612 0 0 1.5 0.538159 -0.0175091 
-5.86735 4.18571 -12.2238 0 0 1.5 0.374131 0.000667227 
-5.85994 4.37265 -11.8935 0 0 1.5 0.310903 0.00922059 
-5.85833 4.58825 -11.5813 0 0 1.5 0.257978 0.0183317 
-5.85728 4.80779 -11.2716 0 0 1.5 0.213553 0.0290506 
-5.85702 5.04111 -10.9722 0 0 1.5 0.144042 0.0602472 
-5.85596 5.27459 -10.6729 0 0 1.5 0.116536 0.0861487 
-5.85335 5.50838 -10.3739 0 0 1.5 0.0926985 0.127118 
-5.84819 5.73073 -10.0664 0 0 1.5 0.0719941 0.197361 
-5.84132 5.9392 -9.7498 0 0 1.5 0.0399987 0.57293 
-5.83265 6.12296 -9.41776 0 0 1.5 0.0313218 0.89733 
-5.82476 6.26087 -9.06421 0 0 1.5 0.0313076 0.87292 
-5.8203 6.36585 -8.69982 0 0 1.5 0.0516143 0.315845 
-5.82005 6.4509 -8.33002 0 0 1.5 0.0660859 0.19465 
-5.82339 6.52882 -7.95853 0 0 1.5 0.0819459 0.129608 
-5.82936 6.6068 -7.58709 0 0 1.5 0.0990085 0.0922449 
-5.83771 6.6912 -7.2171 0 0 1.5 0.136863 0.0542187 
-5.84693 6.77728 -6.84752 0 0 1.5 0.157793 0.04404 
-5.85679 6.86459 -6.47824 0 0 1.5 0.180095 0.0369683 
-5.86797 6.94384 -6.10719 0 0 1.5 0.203677 0.0319576 
-5.87965 7.01579 -5.73483 0 0 1.5 0.25346 0.0258662 
-5.89247 7.07042 -5.35942 0 0 1.5 0.278476 0.0241516 
-5.9062 7.098 -4.98174 0 0 1.5 0.302325 0.0230839 
-5.92056 7.10737 -4.60253 0 0 1.5 0.323729 0.0225679 
-5.93506 7.0489 -4.228 0 0 1.5 0.353543 0.0227623 
-5.94815 6.94876 -3.8652 0 0 1.5 0.35952 0.0233482 
-5.95928 6.79525 -3.51822 0 0 1.5 0.358575 0.0242551 
-5.9624 6.55241 -3.22736 0 0 1.5 0.336694 0.0268506 
-5.95938 6.27269 -2.97591 0 0 1.5 0.317661 0.0285571 
-5.95025 5.95832 -2.76336 0 0 1.5 0.29502 0.0306602 
-5.92965 5.61076 -2.61362 0 0 1.5 0.270164 0.0332602 
-5.90569 5.25709 -2.47954 0 0 1.5 0.218672 0.0405292 
-5.87285 4.89122 -2.38391 0 0 1.5 0.193775 0.0457321 
-5.83658 4.52339 -2.29875 0 0 1.5 0.170147 0.0525302 
-5.79433 4.15213 -2.23187 0 0 1.5 0.148067 0.0615404 
-5.749 3.78047 -2.16973 0 0 1.5 0.108997 0.0902763 
-5.6995 3.40827 -2.11402 0 0 1.5 0.0920318 0.113661 
-5.64775 3.03666 -2.05652 0 0 1.5 0.0767159 0.147609 
-5.59327 2.66578 -1.99682 0 0 1.5 0.0509234 0.27509 
-5.5373 2.29662 -1.92899 0 0 1.5 0.0405604 0.393415 
-5.47981 1.92922 -1.85284 0 0 1.5 0.0321379 0.568449 
-5.42108 1.56555 -1.76214 0 0 1.5 0.0260874 0.779132 
-5.36146 1.20453 -1.66115 0 0 1.5 0.0227404 0.809616 
-5.29968 0.850299 -1.54023 0 0 1.5 0.0246916 0.597846 
-5.23709 0.498579 -1.41192 0 0 1.5 0.0277185 0.403108 
-5.16942 0.156522 -1.26209 0 0 1.5 0.0310499 0.262185 
-5.10024 -0.183558 -1.10844 0 0 1.5 0.0371546 0.0995227 
-5.02304 -0.515349 -0.940983 0 0 1.5 0.0396703 0.0509461 
-4.94209 -0.84524 -0.771687 0 0 1.5 0.0417969 0.0131602 
-4.85295 -1.17097 -0.598364 0 0 1.5 0.0435623 -0.0172906 
-4.75701 -1.49552 -0.426602 0 0 1.5 0.0462726 -0.0626558 
-4.65456 -1.81894 -0.256341 0 0 1.5 0.0473837 -0.079247 
-4.54308 -2.14275 -0.0927593 0 0 1.5 0.0484517 -0.0920761 
-4.4277 -2.46671 0.0679295 0 0 1.5 0.0507828 -0.105852 
-4.30251 -2.79233 0.217449 0 0 1.5 0.0522014 -0.106117 
-4.17552 -3.11826 0.364827 0 0 1.5 0.0538807 -0.10252 
-4.04003 -3.44585 0.500515 0 0 1.5 0.0558574 -0.0960306 
-3.90308 -3.77353 0.634465 0 0 1.5 0.0608136 -0.0759858 
-3.76057 -4.10151 0.761785 0 0 1.5 0.0638383 -0.0642042 
-3.61583 -4.42879 0.888316 0 0 1.5 0.0672222 -0.0528978 
-3.46713 -4.75485 1.01346 0 0 1.5 0.0709467 -0.0423356 
-3.31482 -5.07828 1.14098 0 0 1.5 0.0793383 -0.0242378 
-3.1591 -5.3992 1.27077 0 0 1.5 0.0839339 -0.01731 
-2.99691 -5.71391 1.40745 0 0 1.5 0.0887236 -0.0117271 
-2.83148 -6.02548 1.54761 0 0 1.5 0.0986293 -0.00395266 
-2.65442 -6.32499 1.69906 0 0 1.5 0.103586 -0.00150178 
-2.47482 -6.62189 1.85296 0 0 1.5 0.108415 0.000173689 
-2.27592 -6.89803 2.02106 0 0 1.5 0.113007 0.00119048 
-2.07276 -7.16931 2.19139 0 0 1.5 0.121038 0.00226298 
-1.84913 -7.41714 2.3721 0 0 1.5 0.124267 0.00256721 
-1.61594 -7.65272 2.55581 0 0 1.5 0.126833 0.00274732 
-1.36503 -7.8656 2.74506 0 0 1.5 0.128643 0.00298289 
-1.09952 -8.05647 2.93629 0 0 1.5 0.129797 0.00413475 
-0.821706 -8.22881 3.12918 0 0 1.5 0.12908 0.00507965 
-0.52701 -8.36986 3.32122 0 0 1.5 0.127492 0.00637408 
-0.226063 -8.49932 3.51294 0 0 1.5 0.121912 0.0104111 
0.0904313 -8.59213 3.70034 0 0 1.5 0.118063 0.0133178 
0.409066 -8.67965 3.88705 0 0 1.5 0.113617 0.01691 
0.738768 -8.73329 4.06735 0 0 1.5 0.108689 0.0212647 
1.06932 -8.78357 4.24682 0 0 1.5 0.0978593 0.032997 
1.40575 -8.8105 4.42053 0 0 1.5 0.092177 0.0406545 
1.74285 -8.83417 4.59326 0 0 1.5 0.0864589 0.0495722 
2.08292 -8.84346 4.76165 0 0 1.5 0.0808061 0.0599746 
2.42335 -8.85067 4.92934 0 0 1.5 0.0700632 0.0857965 
2.7651 -8.85044 5.09456 0 0 1.5 0.065129 0.100964 
3.10694 -8.84941 5.25959 0 0 1.5 0.0605741 0.11729 
3.44905 -8.84589 5.424 0 0 1.5 0.0564587 0.134135 
3.79093 -8.84248 5.58891 0 0 1.5 0.0497129 0.164881 
4.13215 -8.83937 5.75519 0 0 1.5 0.0471063 0.175988 
4.47269 -8.83658 5.92284 0 0 1.5 0.0450052 0.182175 
4.81164 -8.83453 6.09369 0 0 1.5 0.0421781 0.178408 
5.14932 -8.83218 6.26703 0 0 1.5 0.0413163 0.169256 
5.48464 -8.82926 6.44491 0 0 1.5 0.0407211 0.156146 
5.81783 -8.82416 6.62659 0 0 1.5 0.0403146 0.141027 
6.14819 -8.81615 6.81338 0 0 1.5 0.0397429 0.112014 
6.47538 -8.8027 7.0052 0 0 1.5 0.0394366 0.0997396 
6.79971 -8.78433 7.20156 0 0 1.5 0.0390393 0.0903222 
7.11979 -8.75626 7.40348 0 0 1.5 0.0385073 0.0848275 
7.43755 -8.72289 7.60842 0 0 1.5 0.0369062 0.0875667 
7.75022 -8.67544 7.8182 0 0 1.5 0.0357912 0.0970614 
8.06152 -8.62419 8.02927 0 0 1.5 0.0344609 0.113107 
8.3677 -8.55641 8.24311 0 0 1.5 0.0312096 0.171637 
8.6732 -8.48619 8.45715 0 0 1.5 0.0293509 0.218005 
8.97538 -8.40333 8.67141 0 0 1.5 0.0274235 0.277933 
9.27714 -8.31838 8.88542 0 0 1.5 0.0255326 0.35329 
9.57766 -8.22741 9.09873 0 0 1.5 0.0224984 0.534235 
9.87819 -8.13602 9.31184 0 0 1.5 0.0217936 0.604206 
10.1787 -8.04404 9.52468 0 0 1.5 0.0219434 0.624584 
10.4796 -7.95544 9.73844 0 0 1.5 0.0231029 0.583822 
10.7808 -7.86928 9.95286 0 0 1.5 0.0284439 0.398988 
11.0819 -7.79145 10.1705 0 0 1.5 0.0323978 0.307705 
11.3829 -7.71648 10.3891 0 0 1.5 0.0370339 0.233022 
11.6824 -7.65506 10.614 0 0 1.5 0.0479913 0.131508 
11.9815 -7.59624 10.8402 0 0 1.5 0.0541936 0.0986396 
12.2771 -7.55326 11.0744 0 0 1.5 0.0608353 0.0737602 
12.5715 -7.51458 11.3107 0 0 1.5 0.0679021 0.0548078 
12.8618 -7.49023 11.5542 0 0 1.5 0.0832511 0.0289544 
13.1496 -7.47323 11.8008 0 0 1.5 0.0915032 0.0199997 
13.4333 -7.4686 12.0529 0 0 1.5 0.100113 0.0128364 
13.7135 -7.4746 12.3086 0 0 1.5 0.109038 0.00704616 
13.9902 -7.49127 12.568 0 0 1.5 0.12756 -0.00179083 
14.2622 -7.52212 12.8307 0 0 1.5 0.136963 -0.00526142 
14.5313 -7.56199 13.0955 0 0 1.5 0.146276 -0.00826414 
14.794 -7.62038 13.3628 0 0 1.5 0.155311 -0.0109506 
15.0543 -7.68614 13.6312 0 0 1.5 0.171634 -0.0157822 
15.3055 -7.77635 13.9009 0 0 1.5 0.178406 -0.0179906 
15.5546 -7.87179 14.1708 0 0 1.5 0.183886 -0.0201655 
15.7891 -7.99981 14.4404 0 0 1.5 0.189916 -0.0247339 
16.0203 -8.13371 14.7097 0 0 1.5 0.190047 -0.0272006 
16.2315 -8.30223 14.9763 0 0 1.5 0.188084 -0.0299385 
16.433 -8.48337 15.241 0 0 1.5 0.183979 -0.0331287 
16.6124 -8.69353 15.5013 0 0 1.5 0.169606 -0.041546 
16.7699 -8.92518 15.7558 0 0 1.5 0.159696 -0.0474007 
16.9082 -9.17579 16.0051 0 0 1.5 0.148259 -0.0551563 
17.0103 -9.45267 16.2425 0 0 1.5 0.13553 -0.0657903 
17.1018 -9.73737 16.4763 0 0 1.5 0.107279 -0.103355 
17.1481 -10.0459 16.6925 0 0 1.5 0.0922304 -0.139002 
17.188 -10.3568 16.906 0 0 1.5 0.07685 -0.199779 
17.1962 -10.6793 17.106 0 0 1.5 0.0465719 -0.549874 
17.1978 -11.0033 17.3035 0 0 1.5 0.0335298 -1.07813 
17.1807 -11.3315 17.4934 0 0 1.5 0.0260665 -1.82674 
17.1602 -11.6597 17.6829 0 0 1.5 0.0295543 -1.46468 
17.1318 -11.9879 17.8716 0 0 1.5 0.0577125 -0.415261 
17.1049 -12.3141 18.0636 0 0 1.5 0.0752398 -0.255796 
17.0809 -12.6366 18.2624 0 0 1.5 0.0935537 -0.173593 
17.0658 -12.9533 18.4704 0 0 1.5 0.112212 -0.12648 
17.065 -13.2609 18.6928 0 0 1.5 0.148951 -0.0776211 
17.0887 -13.5508 18.9344 0 0 1.5 0.166135 -0.0640751 
17.1345 -13.8247 19.1931 0 0 1.5 0.181837 -0.0541422 
17.2345 -14.0463 19.4812 0 0 1.5 0.195437 -0.0465095 
17.3545 -14.247 19.7789 0 0 1.5 0.213988 -0.035792 
17.5462 -14.348 20.0906 0 0 1.5 0.218124 -0.0318755 
17.7472 -14.429 20.3986 0 0 1.5 0.218546 -0.0285292 
17.9895 -14.4221 20.6908 0 0 1.5 0.208746 -0.0234203 
18.2319 -14.4152 20.9829 0 0 1.5 0.199384 -0.0215086 
18.4742 -14.4084 21.275 0 0 1.5 0.18781 -0.0198913 
18.7165 -14.4015 21.5671 0 0 1.5 0.174634 -0.0185917 
18.9588 -14.3946 21.8592 0 0 1.5 0.145826 -0.0170056 
19.2011 -14.3878 22.1513 0 0 1.5 0.131157 -0.0166381 
19.4434 -14.3809 22.4434 0 0 1.5 0.116788 -0.0165869 
19.6857 -14.374 22.7355 0 0 1.5 0.102944 -0.016939 
19.928 -14.3672 23.0276 0 0 1.5 0.0774086 -0.0191061 
20.1703 -14.3603 23.3197 0 0 1.5 0.0658835 -0.0212391 
20.4126 -14.3534 23.6118 0 0 1.5 0.0552132 -0.0245845 
20.6549 -14.3465 23.904 0 0 1.5 0.036402 -0.0382976 
20.8972 -14.3397 24.1961 0 0 1.5 0.0282443 -0.0529684 
21.1395 -14.3328 24.4882 0 0 1.5 0.0208765 -0.0816316 
21.3818 -14.3259 24.7803 0 0 1.5 0.0142725 -0.148495 
21.6242 -14.3191 25.0724 0 0 1.5 0.00372082 -1.61475 
21.8665 -14.3122 25.3645 0 0 1.5 0.00301765 -2.13704 
22.1088 -14.3053 25.6566 0 0 1.5 0.0062917 -0.430771 
22.3511 -14.2985 25.9487 0 0 1.5 0.00952663 -0.165192 
22.5934 -14.2916 26.2408 0 0 1.5 0.0145193 -0.055824 
22.8357 -14.2847 26.5329 0 0 1.5 0.0162591 -0.039736 
23.078 -14.2779 26.825 0 0 1.5 0.0175237 -0.0305441 
23.3203 -14.271 27.1172 0 0 1.5 0.018748 -0.0214223 
23.5626 -14.2641 27.4093 0 0 1.5 0.0187824 -0.0191931 
23.8049 -14.2572 27.7014 0 0 1.5 0.0184856 -0.017779 
24.0472 -14.2504 27.9935 0 0 1.5 0.0178997 -0.0169992 
24.2895 -14.2435 28.2856 0 0 1.5 0.0160232 -0.0171154 
24.5318 -14.2366 28.5777 0 0 1.5 0.0148178 -0.0179013 
24.7741 -14.2298 28.8698 0 0 1.5 0.0134917 -0.0192706 
25.0165 -14.2229 29.1619 0 0 1.5 0.0120801 -0.021478 
25.2588 -14.216 29.454 0 0 1.5 0.00913655 -0.029782 
25.5011 -14.2092 29.7461 0 0 1.5 0.00767192 -0.0374485 
25.7434 -14.2023 30.0382 0 0 1.5 0.00624555 -0.0501661 
25.9857 -14.1954 30.3304 0 0 1.5 0.00487777 -0.0729661 
26.228 -14.1885 30.6225 0 0 1.5 0.00240267 -0.234773 
26.4703 -14.1817 30.9146 0 0 1.5 0.00134123 -0.667766 
26.7126 -14.1748 31.2067 0 0 1.5 0.000551792 0 
26.9549 -14.1679 31.4988 0 0 1.5 0.00151021 -0.36938 
27.1972 -14.1611 31.7909 0 0 1.5 0.00215893 -0.161398 
27.4395 -14.1542 32.083 0 0 1.5 0.00271809 -0.0911491 
27.6818 -14.1473 32.3751 0 0 1.5 0.00318358 -0.0594691 
27.9241 -14.1405 32.6672 0 0 1.5 0.0038487 -0.0328689 
28.1664 -14.1336 32.9593 0 0 1.5 0.0040644 -0.0266114 
28.4088 -14.1267 33.2514 0 0 1.5 0.00421409 -0.0223238 
28.6511 -14.1199 33.5436 0 0 1.5 0.00430678 -0.0192629 
28.8934 -14.113 33.8357 0 0 1.5 0.00435596 -0.0153132 
29.1357 -14.1061 34.1278 0 0 1.5 0.00432967 -0.0138909 
29.378 -14.0992 34.4199 0 0 1.5 0.00428044 -0.0126702 
29.6203 -14.0924 34.712 0 0 1.5 0.00413735 -0.0106357 
29.8626 -14.0855 35.0041 0 0 1.5 0.00405483 -0.00967278 
30.1049 -14.0786 35.2962 0 0 1.5 0.00397192 -0.00871702 
30.3472 -14.0718 35.5883 0 0 1.5 0.00389126 -0.0077952 
30.5895 -14.0649 35.8804 0 0 1.5 0.00374493 -0.00601067 
30.8318 -14.058 36.1725 0 0 1.5 0.0036829 -0.00516257 
31.0741 -14.0512 36.4646 0 0 1.5 0.00362868 -0.00438854 
31.3164 -14.0443 36.7568 0 0 1.5 0.00358171 -0.00370471 
31.5587 -14.0374 37.0489 0 0 1.5 0.00350707 -0.00265455 
31.8011 -14.0306 37.341 0 0 1.5 0.0034775 -0.00229557 
32.0434 -14.0237 37.6331 0 0 1.5 0.00345134 -0.00205767 
0 1 0 
1 2 0 
2 3 0 
3 4 0 
4 5 0 
5 6 0 
6 7 0 
7 8 0 
8 9 0 
9 10 0 
10 11 0 
11 12 0 
12 13 0 
13 14 0 
14 15 0 
15 16 0 
16 17 0 
17 18 0 
18 19 0 
19 20 0 
20 21 0 
21 22 0 
22 23 0 
23 24 0 
24 25 0 
25 26 0 
26 27 0 
27 28 0 
28 29 0 
29 30 0 
30 31 0 
31 32 0 
32 33 0 
33 34 0 
34 35 0 
35 36 0 
36 37 0 
37 38 0 
38 39 0 
39 40 0 
40 41 0 
41 42 0 
42 43 0 
43 44 0 
44 45 0 
45 46 0 
46 47 0 
47 48 0 
48 49 0 
49 50 0 
50 51 0 
51 52 0 
52 53 0 
53 54 0 
54 55 0 
55 56 0 
56 57 0 
57 58 0 
58 59 0 
59 60 0 
60 61 0 
61 62 0 
62 63 0 
63 64 0 
64 65 0 
65 66 0 
66 67 0 
67 68 0 
68 69 0 
69 70 0 
70 71 0 
71 72 0 
72 73 0 
73 74 0 
74 75 0 
75 76 0 
76 77 0 
77 78 0 
78 79 0 
79 80 0 
80 81 0 
81 82 0 
82 83 0 
83 84 0 
84 85 0 
85 86 0 
86 87 0 
87 88 0 
88 89 0 
89 90 0 
90 91 0 
91 92 0 
92 93 0 
93 94 0 
94 95 0 
95 96 0 
96 97 0 
97 98 0 
98 99 0 
99 100 0 
100 101 0 
101 102 0 
102 103 0 
103 104 0 
104 105 0 
105 106 0 
106 107 0 
107 108 0 
108 109 0 
109 110 0 
110 111 0 
111 112 0 
112 113 0 
113 114 0 
114 115 0 
115 116 0 
116 117 0 
117 118 0 
118 119 0 
119 120 0 
120 121 0 
121 122 0 
122 123 0 
123 124 0 
124 125 0 
125 126 0 
126 127 0 
127 128 0 
128 129 0 
129 130 0 
130 131 0 
131 132 0 
132 133 0 
133 134 0 
134 135 0 
135 136 0 
136 137 0 
137 138 0 
138 139 0 
139 140 0 
140 141 0 
141 142 0 
142 143 0 
143 144 0 
144 145 0 
145 146 0 
146 147 0 
147 148 0 
148 149 0 
149 150 0 
150 151 0 
151 152 0 
152 153 0 
153 154 0 
154 155 0 
155 156 0 
156 157 0 
157 158 0 
158 159 0 
159 160 0 
160 161 0 
161 162 0 
162 163 0 
163 164 0 
164 165 0 
165 166 0 
166 167 0 
167 168 0 
168 169 0 
169 170 0 
170 171 0 
171 172 0 
172 173 0 
173 174 0 
174 175 0 
175 176 0 
176 177 0 
177 178 0 
178 179 0 
179 180 0 
180 181 0 
181 182 0 
182 183 0 
183 184 0 
184 185 0 
185 186 0 
186 187 0 
187 188 0 
188 189 0 
189 190 0 
190 191 0 
191 192 0 
192 193 0 
193 194 0 
194 195 0 
195 196 0 
196 197 0 
197 198 0 
198 199 0 
199 200 0 
200 201 0 
201 202 0 
202 203 0 
203 204 0 
204 205 0 
205 206 0 
206 207 0 
207 208 0 
208 209 0 
209 210 0 
210 211 0 
211 212 0 
212 213 0 
213 214 0 
214 215 0 
215 216 0 
216 217 0 
217 218 0 
218 219 0 
219 220 0 
220 221 0 
221 222 0 
222 223 0 
223 224 0 
224 225 0 
225 226 0 
226 227 0 
227 228 0 
228 229 0 
229 230 0 
230 231 0 
231 232 0 
232 233 0 
233 234 0 
234 235 0 
235 236 0 
236 237 0 
237 238 0 
238 239 0 
239 240 0 
240 241 0 
241 242 0 
242 243 0 
243 244 0 
244 245 0 
245 246 0 
246 247 0 
247 248 0 
248 249 0 
249 250 0 
250 251 0 
251 252 0 
252 253 0 
253 254 0 
254 255 0 
255 256 0 
256 257 0 
257 258 0 
258 259 0 
259 260 0 
260 261 0 
261 262 0 
262 263 0 
263 264 0 
264 265 0 
265 266 0 
266 267 0 
267 268 0 
268 269 0 
269 270 0 
270 271 0 
271 272 0 
272 273 0 
273 274 0 
274 275 0 
275 276 0 
276 277 0 
277 278 0 
278 279 0 
279 280 0 
280 281 0 
281 282 0 
282 283 0 
283 284 0 
284 285 0 
285 286 0 
286 287 0 
287 288 0 
288 289 0 
289 290 0 
290 291 0 
291 292 0 
292 293 0 
293 294 0 
294 295 0 
295 296 0 
296 297 0 
297 298 0 
298 299 0 
-1 -1 0 
-1 300 0 1 2 3 4 5 6 7 8 9 10 11 12 13 14 15 16 17 18 19 20 21 22 23 24 25 26 27 28 29 30 31 32 33 34 35 36 37 38 39 40 41 42 43 44 45 46 47 48 49 50 51 52 53 54 55 56 57 58 59 60 61 62 63 64 65 66 67 68 69 70 71 72 73 74 75 76 77 78 79 80 81 82 83 84 85 86 87 88 89 90 91 92 93 94 95 96 97 98 99 100 101 102 103 104 105 106 107 108 109 110 111 112 113 114 115 116 117 118 119 120 121 122 123 124 125 126 127 128 129 130 131 132 133 134 135 136 137 138 139 140 141 142 143 144 145 146 147 148 149 150 151 152 153 154 155 156 157 158 159 160 161 162 163 164 165 166 167 168 169 170 171 172 173 174 175 176 177 178 179 180 181 182 183 184 185 186 187 188 189 190 191 192 193 194 195 196 197 198 199 200 201 202 203 204 205 206 207 208 209 210 211 212 213 214 215 216 217 218 219 220 221 222 223 224 225 226 227 228 229 230 231 232 233 234 235 236 237 238 239 240 241 242 243 244 245 246 247 248 249 250 251 252 253 254 255 256 257 258 259 260 261 262 263 264 265 266 267 268 269 270 271 272 273 274 275 276 277 278 279 280 281 282 283 284 285 286 287 288 289 290 291 292 293 294 295 296 297 298 299 
