ply
format ascii 1.0
comment written by koba@oshima.lab
element vertex 300
property float x
property float y
property float z
property int label
property int attribute
property float radius
property float curvature
property float torsion
element edge 300
property int vertex1
property int vertex2
property int label
element vertex_seq 1
property int label
property list int int vertex_indices
end_header
9.76495 20.3778 -9.9891 0 0 1.5 0.0105721 -0.018692 
9.45538 20.2499 -9.83716 0 0 1.5 0.0104703 -0.0202718 
9.14581 20.1219 -9.68522 0 0 1.5 0.0103601 -0.0232918 
8.83624 19.9939 -9.53329 0 0 1.5 0.0102358 -0.0278737 
8.52667 19.8659 -9.38135 0 0 1.5 0.0099222 -0.0426288 
8.2171 19.7379 -9.22941 0 0 1.5 0.00972028 -0.0537569 
7.90753 19.6099 -9.07747 0 0 1.5 0.00947928 -0.068195 
7.59797 19.4819 -8.92553 0 0 1.5 0.00919399 -0.0868543 
7.2884 19.3539 -8.7736 0 0 1.5 0.00847788 -0.142024 
6.97883 19.2259 -8.62166 0 0 1.5 0.00804724 -0.183089 
6.66926 19.0979 -8.46972 0 0 1.5 0.00757887 -0.237804 
6.35969 18.97 -8.31778 0 0 1.5 0.00709463 -0.309507 
6.05012 18.842 -8.16584 0 0 1.5 0.00626005 -0.503434 
5.74055 18.714 -8.01391 0 0 1.5 0.00606668 -0.598451 
5.43098 18.586 -7.86197 0 0 1.5 0.00616298 -0.643918 
5.12141 18.458 -7.71003 0 0 1.5 0.00750334 -0.529434 
4.81184 18.33 -7.55809 0 0 1.5 0.00874309 -0.430274 
4.50228 18.202 -7.40615 0 0 1.5 0.0103012 -0.3421 
4.19271 18.074 -7.25422 0 0 1.5 0.0121203 -0.273025 
3.88314 17.946 -7.10228 0 0 1.5 0.01636 -0.185156 
3.57357 17.818 -6.95034 0 0 1.5 0.0187138 -0.15837 
3.264 17.6901 -6.7984 0 0 1.5 0.0211799 -0.138918 
2.95443 17.5621 -6.64646 0 0 1.5 0.023727 -0.124999 
2.64486 17.4341 -6.49453 0 0 1.5 0.0289547 -0.108723 
2.33529 17.3061 -6.34259 0 0 1.5 0.0315757 -0.104815 
2.02572 17.1781 -6.19065 0 0 1.5 0.0341584 -0.103159 
1.71615 17.0501 -6.03871 0 0 1.5 0.0390985 -0.105482 
1.40658 16.9221 -5.88677 0 0 1.5 0.0414027 -0.109036 
1.09702 16.7941 -5.73483 0 0 1.5 0.0435631 -0.114236 
0.787447 16.6661 -5.5829 0 0 1.5 0.0455617 -0.121208 
0.477878 16.5382 -5.43096 0 0 1.5 0.0490438 -0.140362 
0.168309 16.4102 -5.27902 0 0 1.5 0.0505388 -0.152779 
-0.14126 16.2822 -5.12708 0 0 1.5 0.0518964 -0.167377 
-0.450829 16.1542 -4.97514 0 0 1.5 0.0531575 -0.183834 
-0.760399 16.0262 -4.82321 0 0 1.5 0.0556847 -0.22037 
-1.05275 15.859 -4.67715 0 0 1.5 0.0571453 -0.239536 
-1.33708 15.6758 -4.53336 0 0 1.5 0.0589021 -0.257322 
-1.60081 15.4608 -4.3936 0 0 1.5 0.061112 -0.271598 
-1.85548 15.2355 -4.25426 0 0 1.5 0.0675334 -0.285274 
-2.09707 14.9953 -4.11553 0 0 1.5 0.0720452 -0.282743 
-2.32741 14.7453 -3.97554 0 0 1.5 0.077594 -0.273404 
-2.55006 14.4886 -3.8347 0 0 1.5 0.0921144 -0.241251 
-2.76221 14.2248 -3.69123 0 0 1.5 0.101164 -0.221528 
-2.96971 13.9577 -3.5466 0 0 1.5 0.1114 -0.200803 
-3.16917 13.6859 -3.39967 0 0 1.5 0.122774 -0.180217 
-3.36558 13.4122 -3.25185 0 0 1.5 0.14857 -0.14153 
-3.55724 13.1352 -3.10427 0 0 1.5 0.162676 -0.123545 
-3.74707 12.8568 -2.95677 0 0 1.5 0.177263 -0.106344 
-3.93624 12.575 -2.81489 0 0 1.5 0.191988 -0.0896998 
-4.12517 12.2922 -2.67493 0 0 1.5 0.22007 -0.0579258 
-4.32006 12.0052 -2.55288 0 0 1.5 0.232372 -0.0423343 
-4.5191 11.717 -2.44192 0 0 1.5 0.242732 -0.0264755 
-4.73199 11.4267 -2.36668 0 0 1.5 0.255518 0.00494638 
-4.96478 11.1446 -2.3589 0 0 1.5 0.257261 0.0205412 
-5.20985 10.8983 -2.45605 0 0 1.5 0.255721 0.0364331 
-5.43666 10.7305 -2.67971 0 0 1.5 0.251011 0.052377 
-5.62155 10.6362 -2.97949 0 0 1.5 0.233639 0.0838739 
-5.77335 10.5771 -3.30861 0 0 1.5 0.222041 0.0999522 
-5.90369 10.5305 -3.64941 0 0 1.5 0.20928 0.116175 
-6.015 10.4682 -3.9944 0 0 1.5 0.195954 0.132244 
-6.12107 10.3848 -4.33594 0 0 1.5 0.169673 0.163739 
-6.22235 10.2817 -4.67419 0 0 1.5 0.157529 0.178674 
-6.31879 10.127 -4.99359 0 0 1.5 0.146441 0.192418 
-6.41404 9.95122 -5.3011 0 0 1.5 0.128191 0.212307 
-6.50771 9.74693 -5.59229 0 0 1.5 0.121271 0.216383 
-6.59997 9.51501 -5.86184 0 0 1.5 0.115873 0.215796 
-6.6917 9.27399 -6.12403 0 0 1.5 0.111973 0.209966 
-6.78165 9.01369 -6.36786 0 0 1.5 0.10839 0.183796 
-6.87051 8.75068 -6.60908 0 0 1.5 0.108456 0.166714 
-6.95658 8.48072 -6.84363 0 0 1.5 0.109542 0.148877 
-7.03867 8.20964 -7.07827 0 0 1.5 0.11148 0.131368 
-7.11586 7.93719 -7.31303 0 0 1.5 0.117245 0.101896 
-7.18226 7.66608 -7.55241 0 0 1.5 0.120758 0.0909513 
-7.24175 7.39584 -7.79474 0 0 1.5 0.124509 0.082549 
-7.27675 7.13077 -8.04701 0 0 1.5 0.128384 0.0764789 
-7.30326 6.86765 -8.30243 0 0 1.5 0.136143 0.070497 
-7.28686 6.61608 -8.57028 0 0 1.5 0.139888 0.0703468 
-7.24938 6.37189 -8.84117 0 0 1.5 0.143481 0.0715432 
-7.17523 6.14051 -9.11733 0 0 1.5 0.150207 0.0765766 
-7.0583 5.92844 -9.39251 0 0 1.5 0.153386 0.0804287 
-6.9223 5.72507 -9.66705 0 0 1.5 0.156511 0.0845999 
-6.73437 5.5501 -9.93042 0 0 1.5 0.159677 0.0885027 
-6.5359 5.38136 -10.1892 0 0 1.5 0.16659 0.0954428 
-6.30797 5.23009 -10.4351 0 0 1.5 0.170612 0.0980039 
-6.06832 5.08474 -10.6726 0 0 1.5 0.175229 0.0993309 
-5.81197 4.94784 -10.898 0 0 1.5 0.180618 0.099358 
-5.5457 4.8129 -11.1124 0 0 1.5 0.194405 0.0952876 
-5.26865 4.6801 -11.3146 0 0 1.5 0.203136 0.0910099 
-4.98328 4.54449 -11.5022 0 0 1.5 0.21329 0.0852959 
-4.68983 4.40615 -11.6756 0 0 1.5 0.238344 0.0701858 
-4.38885 4.26008 -11.8269 0 0 1.5 0.253426 0.0613958 
-4.08184 4.10784 -11.9606 0 0 1.5 0.270263 0.0518915 
-3.76874 3.94197 -12.0551 0 0 1.5 0.288807 0.0416522 
-3.45282 3.76982 -12.1317 0 0 1.5 0.330365 0.0207784 
-3.13918 3.57878 -12.1341 0 0 1.5 0.352751 0.0104275 
-2.83264 3.38329 -12.1023 0 0 1.5 0.375486 -3.57394e-05 
-2.54265 3.18046 -12.002 0 0 1.5 0.397771 -0.0101265 
-2.28607 2.98354 -11.8333 0 0 1.5 0.436981 -0.0276038 
-2.0496 2.79217 -11.629 0 0 1.5 0.451547 -0.0349855 
-1.86199 2.6229 -11.3617 0 0 1.5 0.461169 -0.0409623 
-1.69772 2.4695 -11.0731 0 0 1.5 0.462359 -0.0471638 
-1.56186 2.33541 -10.7587 0 0 1.5 0.453333 -0.0474296 
-1.45467 2.22873 -10.4248 0 0 1.5 0.438297 -0.0458673 
-1.36133 2.1353 -10.0815 0 0 1.5 0.418147 -0.0425415 
-1.29721 2.08091 -9.72415 0 0 1.5 0.367225 -0.0311574 
-1.23892 2.03432 -9.36397 0 0 1.5 0.338849 -0.0235733 
-1.21171 2.04204 -8.99729 0 0 1.5 0.309953 -0.0150624 
-1.19076 2.06254 -8.63169 0 0 1.5 0.281352 -0.0053865 
-1.19476 2.13423 -8.27093 0 0 1.5 0.227123 0.0188711 
-1.21292 2.2369 -7.92024 0 0 1.5 0.202091 0.0340326 
-1.24731 2.37506 -7.58109 0 0 1.5 0.178632 0.0527002 
-1.30295 2.56002 -7.26943 0 0 1.5 0.156762 0.0769226 
-1.36683 2.76302 -6.97014 0 0 1.5 0.117749 0.152615 
-1.44714 3.00167 -6.702 0 0 1.5 0.100682 0.214378 
-1.5328 3.25135 -6.44649 0 0 1.5 0.0854584 0.303844 
-1.62418 3.51278 -6.2044 0 0 1.5 0.0626665 0.585031 
-1.71958 3.77872 -5.96891 0 0 1.5 0.0571352 0.717278 
-1.81619 4.04406 -5.73326 0 0 1.5 0.057029 0.736651 
-1.91435 4.29985 -5.48784 0 0 1.5 0.0624522 0.631642 
-2.01308 4.53976 -5.22788 0 0 1.5 0.0857173 0.360043 
-2.11233 4.76547 -4.95492 0 0 1.5 0.101474 0.267634 
-2.21286 4.943 -4.64908 0 0 1.5 0.119171 0.20273 
-2.31382 5.09107 -4.32976 0 0 1.5 0.138523 0.157133 
-2.41526 5.20214 -3.99409 0 0 1.5 0.181414 0.0994508 
-2.51588 5.25355 -3.64478 0 0 1.5 0.204484 0.0805141 
-2.61534 5.27929 -3.29271 0 0 1.5 0.228199 0.0657552 
-2.71213 5.26017 -2.93835 0 0 1.5 0.275309 0.0436645 
-2.80488 5.20711 -2.58745 0 0 1.5 0.297073 0.035019 
-2.89509 5.13264 -2.23871 0 0 1.5 0.316309 0.027636 
-2.97752 5.01327 -1.9011 0 0 1.5 0.331926 0.0212248 
-3.05771 4.88186 -1.56753 0 0 1.5 0.348444 0.0108572 
-3.12949 4.70802 -1.25142 0 0 1.5 0.34821 0.00706777 
-3.19783 4.51627 -0.946305 0 0 1.5 0.342299 0.00421912 
-3.26032 4.2942 -0.659804 0 0 1.5 0.331234 0.00229934 
-3.31765 4.04307 -0.398941 0 0 1.5 0.297284 0.00114694 
-3.37197 3.77495 -0.153047 0 0 1.5 0.276574 0.00190868 
-3.41974 3.47045 0.0468702 0 0 1.5 0.254738 0.00361307 
-3.46553 3.15659 0.23148 0 0 1.5 0.232599 0.00620173 
-3.50603 2.81955 0.373117 0 0 1.5 0.189814 0.014217 
-3.54347 2.4743 0.491516 0 0 1.5 0.169922 0.0201724 
-3.57751 2.11998 0.584267 0 0 1.5 0.151293 0.0277581 
-3.60718 1.75991 0.651114 0 0 1.5 0.118073 0.0496483 
-3.63503 1.39747 0.707327 0 0 1.5 0.103485 0.0658318 
-3.65782 1.03234 0.745008 0 0 1.5 0.0902108 0.0871402 
-3.67974 0.666874 0.780376 0 0 1.5 0.0782153 0.115272 
-3.69714 0.300807 0.811871 0 0 1.5 0.0580622 0.201929 
-3.71369 -0.0650597 0.845704 0 0 1.5 0.0500202 0.264478 
-3.72711 -0.430203 0.888012 0 0 1.5 0.0434882 0.337641 
-3.73923 -0.794133 0.93885 0 0 1.5 0.0386516 0.408991 
-3.74924 -1.15611 1.00346 0 0 1.5 0.0347082 0.44872 
-3.7572 -1.5146 1.08412 0 0 1.5 0.0355018 0.395063 
-3.7636 -1.87044 1.17707 0 0 1.5 0.0377283 0.315444 
-3.76626 -2.21989 1.29118 0 0 1.5 0.0449334 0.162571 
-3.76776 -2.56733 1.41192 0 0 1.5 0.0493216 0.106718 
-3.76223 -2.90681 1.55333 0 0 1.5 0.0539914 0.0635871 
-3.75492 -3.24512 1.6974 0 0 1.5 0.0588458 0.0302482 
-3.73812 -3.57832 1.85231 0 0 1.5 0.0688876 -0.0133688 
-3.71673 -3.91082 2.00797 0 0 1.5 0.074002 -0.0265587 
-3.68459 -4.24172 2.16538 0 0 1.5 0.0791385 -0.0356829 
-3.64315 -4.57289 2.31964 0 0 1.5 0.0842637 -0.0413343 
-3.59084 -4.90438 2.47023 0 0 1.5 0.0943043 -0.04387 
-3.52298 -5.23676 2.61172 0 0 1.5 0.0991095 -0.0415301 
-3.44584 -5.56968 2.7478 0 0 1.5 0.103685 -0.0373844 
-3.34581 -5.90226 2.86818 0 0 1.5 0.111861 -0.0248672 
-3.24009 -6.23476 2.98466 0 0 1.5 0.115316 -0.0165436 
-3.10405 -6.56291 3.07996 0 0 1.5 0.118257 -0.00731322 
-2.96219 -6.88939 3.17149 0 0 1.5 0.120633 0.0024215 
-2.79428 -7.208 3.24629 0 0 1.5 0.123546 0.0239681 
-2.61568 -7.52154 3.31541 0 0 1.5 0.124048 0.0355336 
-2.41744 -7.82577 3.37414 0 0 1.5 0.123934 0.0471007 
-2.20428 -8.12024 3.42742 0 0 1.5 0.123243 0.0588338 
-1.97786 -8.40604 3.47588 0 0 1.5 0.12035 0.0830613 
-1.73381 -8.67699 3.5217 0 0 1.5 0.118295 0.0951088 
-1.4822 -8.94155 3.56638 0 0 1.5 0.11595 0.107086 
-1.21187 -9.18631 3.61325 0 0 1.5 0.113403 0.119012 
-0.938114 -9.42731 3.66069 0 0 1.5 0.108086 0.141309 
-0.647111 -9.64541 3.71591 0 0 1.5 0.105509 0.151017 
-0.353455 -9.85897 3.77351 0 0 1.5 0.103101 0.159406 
-0.0487241 -10.0536 3.84099 0 0 1.5 0.0990832 0.171009 
0.259563 -10.24 3.91392 0 0 1.5 0.0975901 0.173574 
0.574148 -10.4118 3.99648 0 0 1.5 0.0964934 0.173628 
0.892086 -10.5721 4.08776 0 0 1.5 0.0958122 0.171206 
1.21297 -10.7223 4.18669 0 0 1.5 0.0957021 0.159488 
1.53628 -10.858 4.29719 0 0 1.5 0.0962392 0.150502 
1.8606 -10.9877 4.4125 0 0 1.5 0.0971261 0.14004 
2.186 -11.1006 4.54136 0 0 1.5 0.0983169 0.128653 
2.51153 -11.2102 4.67281 0 0 1.5 0.101392 0.104112 
2.8368 -11.303 4.81732 0 0 1.5 0.103155 0.091633 
3.16177 -11.3921 4.96458 0 0 1.5 0.104979 0.0795385 
3.48577 -11.4683 5.12117 0 0 1.5 0.108545 0.0565723 
3.809 -11.5381 5.28196 0 0 1.5 0.11015 0.0458869 
4.13104 -11.5983 5.44918 0 0 1.5 0.111546 0.0359673 
4.45162 -11.6498 5.62179 0 0 1.5 0.11267 0.0267037 
4.77103 -11.6943 5.7987 0 0 1.5 0.113855 0.00983553 
5.08789 -11.7273 5.98237 0 0 1.5 0.113804 0.00232039 
5.40371 -11.7557 6.16879 0 0 1.5 0.113255 -0.00469411 
5.71525 -11.7689 6.36377 0 0 1.5 0.112168 -0.0113384 
6.02598 -11.7795 6.5603 0 0 1.5 0.108256 -0.0232893 
6.3298 -11.771 6.76747 0 0 1.5 0.105408 -0.0286484 
6.63186 -11.7584 6.97676 0 0 1.5 0.101963 -0.0337623 
6.92582 -11.7278 7.19572 0 0 1.5 0.0933444 -0.0433847 
7.21514 -11.6884 7.41895 0 0 1.5 0.0882374 -0.0480344 
7.49578 -11.6329 7.65015 0 0 1.5 0.0826494 -0.0527708 
7.7676 -11.5632 7.88738 0 0 1.5 0.076623 -0.0577302 
8.03152 -11.4809 8.13001 0 0 1.5 0.0634968 -0.0689484 
8.282 -11.3796 8.37914 0 0 1.5 0.0565128 -0.075836 
8.52699 -11.2706 8.63092 0 0 1.5 0.0493192 -0.0844199 
8.75556 -11.1403 8.88779 0 0 1.5 0.0419804 -0.095908 
8.98122 -11.0062 9.14541 0 0 1.5 0.0271077 -0.14084 
9.19316 -10.8546 9.40502 0 0 1.5 0.0196823 -0.200092 
9.40353 -10.7005 9.6644 0 0 1.5 0.0123579 -0.380956 
9.60834 -10.5377 9.92292 0 0 1.5 0.00534394 -1.63151 
9.81414 -10.374 10.1801 0 0 1.5 0.00949788 -0.57899 
10.0215 -10.2089 10.4351 0 0 1.5 0.0161466 -0.276142 
10.236 -10.0482 10.6869 0 0 1.5 0.0226319 -0.204673 
10.4562 -9.89093 10.9361 0 0 1.5 0.0349042 -0.177239 
10.6922 -9.74806 11.1791 0 0 1.5 0.0406714 -0.178222 
10.9331 -9.60974 11.4202 0 0 1.5 0.0462023 -0.183177 
11.1977 -9.49983 11.6509 0 0 1.5 0.0515118 -0.19101 
11.4677 -9.39889 11.8786 0 0 1.5 0.0615944 -0.207681 
11.7528 -9.32303 12.0982 0 0 1.5 0.0664682 -0.215166 
12.0448 -9.26466 12.3135 0 0 1.5 0.0712975 -0.222194 
12.3429 -9.22236 12.5248 0 0 1.5 0.0761332 -0.22773 
12.6442 -9.20138 12.7344 0 0 1.5 0.0860312 -0.231769 
12.9465 -9.18721 12.9434 0 0 1.5 0.0911586 -0.230761 
13.2451 -9.19303 13.158 0 0 1.5 0.0964172 -0.227616 
13.5419 -9.20171 13.3751 0 0 1.5 0.107254 -0.214926 
13.8291 -9.22208 13.6039 0 0 1.5 0.112726 -0.206256 
14.1099 -9.24562 13.84 0 0 1.5 0.118119 -0.19661 
14.3784 -9.27521 14.0896 0 0 1.5 0.12333 -0.18629 
14.6322 -9.30862 14.3531 0 0 1.5 0.132692 -0.164458 
14.8737 -9.34521 14.6281 0 0 1.5 0.136558 -0.153626 
15.0875 -9.38693 14.9239 0 0 1.5 0.139709 -0.143327 
15.2924 -9.43025 15.2262 0 0 1.5 0.142037 -0.133448 
15.4519 -9.48066 15.5538 0 0 1.5 0.143831 -0.114976 
15.5973 -9.53299 15.8866 0 0 1.5 0.14319 -0.106918 
15.7016 -9.59095 16.2345 0 0 1.5 0.141514 -0.099523 
15.7759 -9.65225 16.5881 0 0 1.5 0.138826 -0.0926324 
15.8183 -9.71712 16.9477 0 0 1.5 0.13065 -0.0810951 
15.8183 -9.78562 17.3078 0 0 1.5 0.12537 -0.0764268 
15.7962 -9.85603 17.6681 0 0 1.5 0.119448 -0.0722855 
15.7741 -9.92643 18.0285 0 0 1.5 0.10617 -0.0661411 
15.752 -9.99684 18.3888 0 0 1.5 0.0990718 -0.0641782 
15.7299 -10.0672 18.7492 0 0 1.5 0.0918257 -0.0628269 
15.7077 -10.1377 19.1095 0 0 1.5 0.084532 -0.0621965 
15.6856 -10.2081 19.4699 0 0 1.5 0.0701374 -0.0636715 
15.6635 -10.2785 19.8302 0 0 1.5 0.0631769 -0.0658771 
15.6414 -10.3489 20.1906 0 0 1.5 0.0564499 -0.0693641 
15.6193 -10.4193 20.551 0 0 1.5 0.0499927 -0.0746164 
15.5972 -10.4897 20.9113 0 0 1.5 0.0380079 -0.0927278 
15.5751 -10.5601 21.2717 0 0 1.5 0.0325361 -0.107751 
15.5529 -10.6305 21.632 0 0 1.5 0.0274341 -0.129716 
15.5308 -10.7009 21.9924 0 0 1.5 0.0184171 -0.213393 
15.5087 -10.7713 22.3527 0 0 1.5 0.0145703 -0.295244 
15.4866 -10.8417 22.7131 0 0 1.5 0.0112372 -0.432471 
15.4645 -10.9121 23.0734 0 0 1.5 0.00854031 -0.6558 
15.4424 -10.9825 23.4338 0 0 1.5 0.0060186 -1.02443 
15.4203 -11.0529 23.7941 0 0 1.5 0.00639095 -0.805581 
15.3982 -11.1233 24.1545 0 0 1.5 0.00736137 -0.540175 
15.376 -11.1938 24.5148 0 0 1.5 0.00850409 -0.360515 
15.3539 -11.2642 24.8752 0 0 1.5 0.0105291 -0.188098 
15.3318 -11.3346 25.2355 0 0 1.5 0.0112749 -0.147313 
15.3097 -11.405 25.5959 0 0 1.5 0.0118177 -0.120372 
15.2876 -11.4754 25.9562 0 0 1.5 0.0123069 -0.0897789 
15.2655 -11.5458 26.3166 0 0 1.5 0.012277 -0.0813162 
15.2434 -11.6162 26.6769 0 0 1.5 0.0120858 -0.075501 
15.2212 -11.6866 27.0373 0 0 1.5 0.011752 -0.0718073 
15.1991 -11.757 27.3976 0 0 1.5 0.0107295 -0.0698958 
15.177 -11.8274 27.758 0 0 1.5 0.0100795 -0.0711578 
15.1549 -11.8978 28.1183 0 0 1.5 0.00936334 -0.0740067 
15.1328 -11.9682 28.4787 0 0 1.5 0.00859742 -0.0789087 
15.1107 -12.0386 28.839 0 0 1.5 0.00698125 -0.0965058 
15.0886 -12.109 29.1994 0 0 1.5 0.0061635 -0.111006 
15.0665 -12.1795 29.5597 0 0 1.5 0.0053569 -0.132042 
15.0443 -12.2499 29.9201 0 0 1.5 0.00457352 -0.1629 
15.0222 -12.3203 30.2804 0 0 1.5 0.00313088 -0.280633 
15.0001 -12.3907 30.6408 0 0 1.5 0.00250111 -0.396835 
14.978 -12.4611 31.0012 0 0 1.5 0.00196062 -0.584344 
14.9559 -12.5315 31.3615 0 0 1.5 0.00132329 -1.05369 
14.9338 -12.6019 31.7219 0 0 1.5 0.00131353 -0.973019 
14.9117 -12.6723 32.0822 0 0 1.5 0.00147176 -0.706206 
14.8895 -12.7427 32.4426 0 0 1.5 0.00171241 -0.474958 
14.8674 -12.8131 32.8029 0 0 1.5 0.00222931 -0.232811 
14.8453 -12.8835 33.1633 0 0 1.5 0.00246236 -0.174044 
14.8232 -12.9539 33.5236 0 0 1.5 0.00266866 -0.134728 
14.8011 -13.0243 33.884 0 0 1.5 0.00284662 -0.107362 
14.779 -13.0947 34.2443 0 0 1.5 0.00312147 -0.0729093 
14.7569 -13.1651 34.6047 0 0 1.5 0.00322275 -0.0612793 
14.7348 -13.2356 34.965 0 0 1.5 0.00330356 -0.0519051 
14.7126 -13.306 35.3254 0 0 1.5 0.00341412 -0.0378212 
14.6905 -13.3764 35.6857 0 0 1.5 0.00344929 -0.0322321 
14.6684 -13.4468 36.0461 0 0 1.5 0.00347462 -0.0273504 
14.6463 -13.5172 36.4064 0 0 1.5 0.00349195 -0.0231267 
14.6242 -13.5876 36.7668 0 0 1.5 0.00350945 -0.0162094 
14.6021 -13.658 37.1271 0 0 1.5 0.00351291 -0.0134007 
14.58 -13.7284 37.4875 0 0 1.5 0.00351417 -0.0110172 
14.5578 -13.7988 37.8478 0 0 1.5 0.00351384 -0.00903916 
14.5357 -13.8692 38.2082 0 0 1.5 0.00351086 -0.00621559 
14.5136 -13.9396 38.5685 0 0 1.5 0.00350892 -0.00529204 
14.4915 -14.01 38.9289 0 0 1.5 0.00350682 -0.00467989 
0 1 0 
1 2 0 
2 3 0 
3 4 0 
4 5 0 
5 6 0 
6 7 0 
7 8 0 
8 9 0 
9 10 0 
10 11 0 
11 12 0 
12 13 0 
13 14 0 
14 15 0 
15 16 0 
16 17 0 
17 18 0 
18 19 0 
19 20 0 
20 21 0 
21 22 0 
22 23 0 
23 24 0 
24 25 0 
25 26 0 
26 27 0 
27 28 0 
28 29 0 
29 30 0 
30 31 0 
31 32 0 
32 33 0 
33 34 0 
34 35 0 
35 36 0 
36 37 0 
37 38 0 
38 39 0 
39 40 0 
40 41 0 
41 42 0 
42 43 0 
43 44 0 
44 45 0 
45 46 0 
46 47 0 
47 48 0 
48 49 0 
49 50 0 
50 51 0 
51 52 0 
52 53 0 
53 54 0 
54 55 0 
55 56 0 
56 57 0 
57 58 0 
58 59 0 
59 60 0 
60 61 0 
61 62 0 
62 63 0 
63 64 0 
64 65 0 
65 66 0 
66 67 0 
67 68 0 
68 69 0 
69 70 0 
70 71 0 
71 72 0 
72 73 0 
73 74 0 
74 75 0 
75 76 0 
76 77 0 
77 78 0 
78 79 0 
79 80 0 
80 81 0 
81 82 0 
82 83 0 
83 84 0 
84 85 0 
85 86 0 
86 87 0 
87 88 0 
88 89 0 
89 90 0 
90 91 0 
91 92 0 
92 93 0 
93 94 0 
94 95 0 
95 96 0 
96 97 0 
97 98 0 
98 99 0 
99 100 0 
100 101 0 
101 102 0 
102 103 0 
103 104 0 
104 105 0 
105 106 0 
106 107 0 
107 108 0 
108 109 0 
109 110 0 
110 111 0 
111 112 0 
112 113 0 
113 114 0 
114 115 0 
115 116 0 
116 117 0 
117 118 0 
118 119 0 
119 120 0 
120 121 0 
121 122 0 
122 123 0 
123 124 0 
124 125 0 
125 126 0 
126 127 0 
127 128 0 
128 129 0 
129 130 0 
130 131 0 
131 132 0 
132 133 0 
133 134 0 
134 135 0 
135 136 0 
136 137 0 
137 138 0 
138 139 0 
139 140 0 
140 141 0 
141 142 0 
142 143 0 
143 144 0 
144 145 0 
145 146 0 
146 147 0 
147 148 0 
148 149 0 
149 150 0 
150 151 0 
151 152 0 
152 153 0 
153 154 0 
154 155 0 
155 156 0 
156 157 0 
157 158 0 
158 159 0 
159 160 0 
160 161 0 
161 162 0 
162 163 0 
163 164 0 
164 165 0 
165 166 0 
166 167 0 
167 168 0 
168 169 0 
169 170 0 
170 171 0 
171 172 0 
172 173 0 
173 174 0 
174 175 0 
175 176 0 
176 177 0 
177 178 0 
178 179 0 
179 180 0 
180 181 0 
181 182 0 
182 183 0 
183 184 0 
184 185 0 
185 186 0 
186 187 0 
187 188 0 
188 189 0 
189 190 0 
190 191 0 
191 192 0 
192 193 0 
193 194 0 
194 195 0 
195 196 0 
196 197 0 
197 198 0 
198 199 0 
199 200 0 
200 201 0 
201 202 0 
202 203 0 
203 204 0 
204 205 0 
205 206 0 
206 207 0 
207 208 0 
208 209 0 
209 210 0 
210 211 0 
211 212 0 
212 213 0 
213 214 0 
214 215 0 
215 216 0 
216 217 0 
217 218 0 
218 219 0 
219 220 0 
220 221 0 
221 222 0 
222 223 0 
223 224 0 
224 225 0 
225 226 0 
226 227 0 
227 228 0 
228 229 0 
229 230 0 
230 231 0 
231 232 0 
232 233 0 
233 234 0 
234 235 0 
235 236 0 
236 237 0 
237 238 0 
238 239 0 
239 240 0 
240 241 0 
241 242 0 
242 243 0 
243 244 0 
244 245 0 
245 246 0 
246 247 0 
247 248 0 
248 249 0 
249 250 0 
250 251 0 
251 252 0 
252 253 0 
253 254 0 
254 255 0 
255 256 0 
256 257 0 
257 258 0 
258 259 0 
259 260 0 
260 261 0 
261 262 0 
262 263 0 
263 264 0 
264 265 0 
265 266 0 
266 267 0 
267 268 0 
268 269 0 
269 270 0 
270 271 0 
271 272 0 
272 273 0 
273 274 0 
274 275 0 
275 276 0 
276 277 0 
277 278 0 
278 279 0 
279 280 0 
280 281 0 
281 282 0 
282 283 0 
283 284 0 
284 285 0 
285 286 0 
286 287 0 
287 288 0 
288 289 0 
289 290 0 
290 291 0 
291 292 0 
292 293 0 
293 294 0 
294 295 0 
295 296 0 
296 297 0 
297 298 0 
298 299 0 
-1 -1 0 
-1 300 0 1 2 3 4 5 6 7 8 9 10 11 12 13 14 15 16 17 18 19 20 21 22 23 24 25 26 27 28 29 30 31 32 33 34 35 36 37 38 39 40 41 42 43 44 45 46 47 48 49 50 51 52 53 54 55 56 57 58 59 60 61 62 63 64 65 66 67 68 69 70 71 72 73 74 75 76 77 78 79 80 81 82 83 84 85 86 87 88 89 90 91 92 93 94 95 96 97 98 99 100 101 102 103 104 105 106 107 108 109 110 111 112 113 114 115 116 117 118 119 120 121 122 123 124 125 126 127 128 129 130 131 132 133 134 135 136 137 138 139 140 141 142 143 144 145 146 147 148 149 150 151 152 153 154 155 156 157 158 159 160 161 162 163 164 165 166 167 168 169 170 171 172 173 174 175 176 177 178 179 180 181 182 183 184 185 186 187 188 189 190 191 192 193 194 195 196 197 198 199 200 201 202 203 204 205 206 207 208 209 210 211 212 213 214 215 216 217 218 219 220 221 222 223 224 225 226 227 228 229 230 231 232 233 234 235 236 237 238 239 240 241 242 243 244 245 246 247 248 249 250 251 252 253 254 255 256 257 258 259 260 261 262 263 264 265 266 267 268 269 270 271 272 273 274 275 276 277 278 279 280 281 282 283 284 285 286 287 288 289 290 291 292 293 294 295 296 297 298 299 
