ply
format ascii 1.0
comment written by koba@oshima.lab
element vertex 300
property float x
property float y
property float z
property int label
property int attribute
property float radius
property float curvature
property float torsion
element edge 300
property int vertex1
property int vertex2
property int label
element vertex_seq 1
property int label
property list int int vertex_indices
end_header
5.39852 25.3791 -2.71847 0 0 1.5 0.0136347 0.0822214 
5.1798 25.1062 -2.76098 0 0 1.5 0.0136049 0.0840379 
4.96108 24.8332 -2.80349 0 0 1.5 0.0135819 0.0868269 
4.74237 24.5602 -2.84601 0 0 1.5 0.0135659 0.0905969 
4.52365 24.2872 -2.88852 0 0 1.5 0.0135583 0.100944 
4.30493 24.0142 -2.93103 0 0 1.5 0.013568 0.107309 
4.08621 23.7412 -2.97354 0 0 1.5 0.0135876 0.114419 
3.86749 23.4683 -3.01605 0 0 1.5 0.0136183 0.122233 
3.64877 23.1953 -3.05856 0 0 1.5 0.0137159 0.138614 
3.43006 22.9223 -3.10107 0 0 1.5 0.0137805 0.146991 
3.21134 22.6493 -3.14358 0 0 1.5 0.0138543 0.155593 
2.99262 22.3763 -3.18609 0 0 1.5 0.0139362 0.164021 
2.7739 22.1034 -3.2286 0 0 1.5 0.0141033 0.180215 
2.55518 21.8304 -3.27111 0 0 1.5 0.0141772 0.188804 
2.33646 21.5574 -3.31362 0 0 1.5 0.0142371 0.197754 
2.11775 21.2844 -3.35613 0 0 1.5 0.0142775 0.218124 
1.89903 21.0114 -3.39864 0 0 1.5 0.0142403 0.231355 
1.68031 20.7384 -3.44115 0 0 1.5 0.0141555 0.247277 
1.46159 20.4655 -3.48366 0 0 1.5 0.0140164 0.266573 
1.24287 20.1925 -3.52617 0 0 1.5 0.0135657 0.321984 
1.02415 19.9195 -3.56868 0 0 1.5 0.0132677 0.360697 
0.805435 19.6465 -3.61119 0 0 1.5 0.0129487 0.407295 
0.586716 19.3735 -3.65371 0 0 1.5 0.0126472 0.461823 
0.367998 19.1006 -3.69622 0 0 1.5 0.0123469 0.578409 
0.14928 18.8276 -3.73873 0 0 1.5 0.0125201 0.619702 
-0.0694387 18.5546 -3.78124 0 0 1.5 0.013036 0.633939 
-0.288157 18.2816 -3.82375 0 0 1.5 0.0153953 0.569864 
-0.506875 18.0086 -3.86626 0 0 1.5 0.0173034 0.50771 
-0.725594 17.7356 -3.90877 0 0 1.5 0.0196845 0.443343 
-0.944312 17.4627 -3.95128 0 0 1.5 0.0225115 0.384917 
-1.16303 17.1897 -3.99379 0 0 1.5 0.029387 0.293302 
-1.38175 16.9167 -4.0363 0 0 1.5 0.0333731 0.260076 
-1.60047 16.6437 -4.07881 0 0 1.5 0.0376929 0.233972 
-1.81919 16.3707 -4.12132 0 0 1.5 0.0423287 0.213232 
-2.0379 16.0977 -4.16383 0 0 1.5 0.052452 0.183804 
-2.25662 15.8248 -4.20634 0 0 1.5 0.0578947 0.174084 
-2.47534 15.5518 -4.24885 0 0 1.5 0.0635649 0.166663 
-2.70042 15.2842 -4.29215 0 0 1.5 0.0694351 0.161 
-2.92585 15.0168 -4.33549 0 0 1.5 0.0816533 0.154729 
-3.15757 14.7564 -4.38695 0 0 1.5 0.0879379 0.153563 
-3.38981 14.4968 -4.43974 0 0 1.5 0.0942919 0.153201 
-3.62737 14.2455 -4.50768 0 0 1.5 0.107037 0.155306 
-3.86586 13.9971 -4.58133 0 0 1.5 0.113335 0.157499 
-4.10749 13.758 -4.67422 0 0 1.5 0.119526 0.160008 
-4.34935 13.5265 -4.7824 0 0 1.5 0.125563 0.162944 
-4.59146 13.3036 -4.90847 0 0 1.5 0.136977 0.170107 
-4.82928 13.0963 -5.06431 0 0 1.5 0.142257 0.173788 
-5.06419 12.8965 -5.23404 0 0 1.5 0.147193 0.177541 
-5.28705 12.7167 -5.43935 0 0 1.5 0.151737 0.181455 
-5.49953 12.547 -5.66223 0 0 1.5 0.159508 0.188214 
-5.70115 12.3879 -5.90349 0 0 1.5 0.162692 0.190728 
-5.88013 12.2412 -6.16882 0 0 1.5 0.165382 0.192772 
-6.04982 12.0977 -6.44195 0 0 1.5 0.169232 0.194701 
-6.19575 11.959 -6.73111 0 0 1.5 0.170393 0.194501 
-6.3273 11.8188 -7.02595 0 0 1.5 0.171045 0.193692 
-6.44305 11.6769 -7.32703 0 0 1.5 0.171195 0.19229 
-6.53638 11.5278 -7.63201 0 0 1.5 0.17006 0.187884 
-6.6214 11.376 -7.93842 0 0 1.5 0.168819 0.185194 
-6.67658 11.211 -8.24474 0 0 1.5 0.167165 0.182391 
-6.72535 11.0431 -8.55039 0 0 1.5 0.165139 0.179593 
-6.74686 10.8628 -8.85241 0 0 1.5 0.160166 0.174523 
-6.75713 10.6785 -9.15204 0 0 1.5 0.15733 0.172521 
-6.74542 10.486 -9.44698 0 0 1.5 0.154365 0.170975 
-6.71615 10.2896 -9.7375 0 0 1.5 0.148406 0.1693 
-6.67014 10.0894 -10.0238 0 0 1.5 0.145608 0.169132 
-6.60038 9.88767 -10.3037 0 0 1.5 0.14309 0.16925 
-6.51934 9.68523 -10.5804 0 0 1.5 0.140985 0.169504 
-6.4092 9.48536 -10.8486 0 0 1.5 0.138588 0.169562 
-6.29337 9.28599 -11.1151 0 0 1.5 0.138626 0.168614 
-6.14511 9.0933 -11.3701 0 0 1.5 0.139732 0.166622 
-5.99278 8.90165 -11.6233 0 0 1.5 0.142097 0.163413 
-5.81477 8.71672 -11.8647 0 0 1.5 0.151444 0.152698 
-5.63071 8.53304 -12.1021 0 0 1.5 0.158876 0.145294 
-5.42857 8.35308 -12.3278 0 0 1.5 0.168457 0.136915 
-5.21946 8.17268 -12.5463 0 0 1.5 0.180446 0.127958 
-4.99907 7.99155 -12.7531 0 0 1.5 0.212815 0.109709 
-4.7722 7.80506 -12.9473 0 0 1.5 0.233865 0.100943 
-4.53984 7.614 -13.1308 0 0 1.5 0.25867 0.0927441 
-4.3037 7.40774 -13.2909 0 0 1.5 0.321301 0.0783191 
-4.06673 7.19421 -13.4399 0 0 1.5 0.35993 0.0718663 
-3.83319 6.95456 -13.5503 0 0 1.5 0.403764 0.0658857 
-3.60788 6.69748 -13.6286 0 0 1.5 0.452703 0.0603309 
-3.39333 6.42257 -13.6699 0 0 1.5 0.562247 0.0494334 
-3.20364 6.12671 -13.6444 0 0 1.5 0.618444 0.0438134 
-3.04833 5.82897 -13.544 0 0 1.5 0.670608 0.03811 
-2.92819 5.54812 -13.3757 0 0 1.5 0.713606 0.032195 
-2.84375 5.30013 -13.1451 0 0 1.5 0.751493 0.0199075 
-2.79125 5.09533 -12.865 0 0 1.5 0.74023 0.0140248 
-2.76896 4.94579 -12.5468 0 0 1.5 0.709557 0.00861634 
-2.77115 4.84987 -12.2087 0 0 1.5 0.607329 -0.000182861 
-2.78905 4.78669 -11.8637 0 0 1.5 0.546577 -0.00339917 
-2.82075 4.75179 -11.5145 0 0 1.5 0.485579 -0.00594568 
-2.87729 4.75409 -11.1668 0 0 1.5 0.427271 -0.00798124 
-2.9462 4.76864 -10.8221 0 0 1.5 0.324395 -0.0110293 
-3.03229 4.79948 -10.4818 0 0 1.5 0.280628 -0.0122983 
-3.14267 4.84516 -10.1507 0 0 1.5 0.241684 -0.0135766 
-3.26325 4.89656 -9.82383 0 0 1.5 0.207058 -0.0149719 
-3.41171 4.96049 -9.51072 0 0 1.5 0.148543 -0.0186739 
-3.57041 5.02877 -9.20405 0 0 1.5 0.12357 -0.0215219 
-3.74574 5.10409 -8.90781 0 0 1.5 0.10079 -0.0257924 
-3.93279 5.18576 -8.62087 0 0 1.5 0.0602029 -0.0463068 
-4.12742 5.27153 -8.33993 0 0 1.5 0.0418005 -0.0780765 
-4.33 5.36552 -8.06747 0 0 1.5 0.024666 -0.188792 
-4.53475 5.46175 -7.79732 0 0 1.5 0.0115498 -0.775341 
-4.74005 5.56795 -7.53137 0 0 1.5 0.0329651 -0.106875 
-4.94452 5.67576 -7.26544 0 0 1.5 0.0506199 -0.0572221 
-5.14096 5.79225 -6.9971 0 0 1.5 0.0692448 -0.0415522 
-5.3316 5.91074 -6.72567 0 0 1.5 0.0888595 -0.0357563 
-5.50942 6.03365 -6.4474 0 0 1.5 0.131536 -0.0342807 
-5.66902 6.15612 -6.15856 0 0 1.5 0.154784 -0.0355608 
-5.81454 6.27721 -5.86165 0 0 1.5 0.179303 -0.0377125 
-5.92258 6.38506 -5.54406 0 0 1.5 0.204919 -0.0407024 
-5.99505 6.46791 -5.21079 0 0 1.5 0.257789 -0.0478644 
-6.02648 6.5119 -4.86522 0 0 1.5 0.28368 -0.0516936 
-6.01299 6.49919 -4.51572 0 0 1.5 0.307846 -0.0556473 
-5.96217 6.42188 -4.17649 0 0 1.5 0.345808 -0.0628443 
-5.88817 6.27907 -3.86298 0 0 1.5 0.357114 -0.0655715 
-5.8102 6.0932 -3.57488 0 0 1.5 0.36205 -0.0675025 
-5.73434 5.88346 -3.30293 0 0 1.5 0.360271 -0.0685722 
-5.66255 5.65371 -3.04558 0 0 1.5 0.338289 -0.0679415 
-5.60089 5.40322 -2.80579 0 0 1.5 0.320071 -0.066212 
-5.54317 5.14594 -2.57233 0 0 1.5 0.298728 -0.0638441 
-5.49443 4.87468 -2.35277 0 0 1.5 0.275544 -0.0611129 
-5.44998 4.59569 -2.14259 0 0 1.5 0.227831 -0.0544042 
-5.41009 4.3085 -1.94234 0 0 1.5 0.204771 -0.0505972 
-5.3735 4.01032 -1.75863 0 0 1.5 0.182846 -0.0467839 
-5.33824 3.70773 -1.58154 0 0 1.5 0.143174 -0.0381408 
-5.30282 3.39162 -1.43012 0 0 1.5 0.125535 -0.0329127 
-5.26657 3.0726 -1.28543 0 0 1.5 0.109307 -0.0269237 
-5.22642 2.74392 -1.16492 0 0 1.5 0.0944064 -0.0194781 
-5.18285 2.41214 -1.05544 0 0 1.5 0.0682114 0.00460245 
-5.13455 2.07606 -0.961207 0 0 1.5 0.0567264 0.025373 
-5.07936 1.738 -0.879094 0 0 1.5 0.0462065 0.0583976 
-5.02085 1.399 -0.802848 0 0 1.5 0.0366054 0.115228 
-4.95216 1.06074 -0.731993 0 0 1.5 0.0202385 0.444667 
-4.88067 0.723334 -0.66002 0 0 1.5 0.0139138 0.945293 
-4.80065 0.389213 -0.581763 0 0 1.5 0.0101004 1.72732 
-4.7163 0.0587031 -0.494149 0 0 1.5 0.0104877 1.4763 
-4.62702 -0.267717 -0.395941 0 0 1.5 0.0185805 0.332439 
-4.53244 -0.58528 -0.2768 0 0 1.5 0.0232772 0.148207 
-4.43595 -0.899362 -0.149664 0 0 1.5 0.0278433 0.0505995 
-4.33515 -1.19927 0.00543508 0 0 1.5 0.0363803 -0.0448936 
-4.23357 -1.49458 0.168112 0 0 1.5 0.0403728 -0.0717178 
-4.13024 -1.77963 0.347653 0 0 1.5 0.0442232 -0.090889 
-4.0258 -2.05837 0.535965 0 0 1.5 0.0479793 -0.103878 
-3.92045 -2.33188 0.731567 0 0 1.5 0.0553993 -0.116472 
-3.81278 -2.60094 0.931963 0 0 1.5 0.0591468 -0.117153 
-3.70433 -2.86848 1.13401 0 0 1.5 0.0629627 -0.114337 
-3.59096 -3.13583 1.3336 0 0 1.5 0.0668695 -0.108452 
-3.47662 -3.40338 1.53234 0 0 1.5 0.0750072 -0.0892923 
-3.35434 -3.67459 1.72116 0 0 1.5 0.0792377 -0.0773 
-3.22965 -3.94683 1.90672 0 0 1.5 0.0835609 -0.0641102 
-3.09548 -4.22313 2.07941 0 0 1.5 0.0924266 -0.0353474 
-2.95581 -4.50054 2.24542 0 0 1.5 0.0969269 -0.0211137 
-2.80609 -4.78001 2.3992 0 0 1.5 0.101437 -0.00708854 
-2.64627 -5.05862 2.54349 0 0 1.5 0.10593 0.00683064 
-2.47711 -5.33645 2.67898 0 0 1.5 0.114766 0.0318212 
-2.29141 -5.60822 2.80408 0 0 1.5 0.119044 0.0425664 
-2.0989 -5.87749 2.9249 0 0 1.5 0.123183 0.052427 
-1.88158 -6.13081 3.03754 0 0 1.5 0.127145 0.0610312 
-1.65718 -6.37804 3.14919 0 0 1.5 0.134362 0.0736427 
-1.40967 -6.60341 3.25924 0 0 1.5 0.137514 0.0780381 
-1.14982 -6.8121 3.37148 0 0 1.5 0.140284 0.0811538 
-0.876005 -7.0019 3.48622 0 0 1.5 0.144445 0.0834053 
-0.586377 -7.15965 3.60872 0 0 1.5 0.145713 0.0827772 
-0.29121 -7.30477 3.73453 0 0 1.5 0.146356 0.0811978 
0.0149743 -7.41114 3.87274 0 0 1.5 0.146328 0.0788044 
0.322484 -7.50385 4.01633 0 0 1.5 0.144113 0.0716868 
0.632357 -7.57218 4.16954 0 0 1.5 0.141873 0.0673484 
0.940705 -7.62173 4.33184 0 0 1.5 0.138881 0.0629384 
1.24804 -7.65881 4.50017 0 0 1.5 0.13516 0.0584012 
1.55045 -7.67654 4.67979 0 0 1.5 0.125675 0.0490627 
1.85163 -7.68945 4.86224 0 0 1.5 0.12001 0.044897 
2.14563 -7.68492 5.05638 0 0 1.5 0.113812 0.041123 
2.43865 -7.67832 5.25191 0 0 1.5 0.107144 0.0376936 
2.72548 -7.65943 5.45571 0 0 1.5 0.0926624 0.0335581 
3.01115 -7.63798 5.66081 0 0 1.5 0.0849861 0.033564 
3.29297 -7.60804 5.8702 0 0 1.5 0.077102 0.0353992 
3.57396 -7.57461 6.08012 0 0 1.5 0.0609182 0.0489476 
3.8535 -7.53509 6.29098 0 0 1.5 0.0527119 0.0648829 
4.13336 -7.49118 6.5005 0 0 1.5 0.0444845 0.0930842 
4.41352 -7.44305 6.70871 0 0 1.5 0.0362822 0.14504 
4.69586 -7.39002 6.91271 0 0 1.5 0.0203463 0.495933 
4.97927 -7.33456 7.11461 0 0 1.5 0.0133413 1.1807 
5.26694 -7.27489 7.30912 0 0 1.5 0.00940951 2.3887 
5.55558 -7.21441 7.50196 0 0 1.5 0.0122039 1.39868 
5.84992 -7.15293 7.68567 0 0 1.5 0.0272058 0.249704 
6.14556 -7.09249 7.86758 0 0 1.5 0.0358691 0.126797 
6.44563 -7.03565 8.04333 0 0 1.5 0.0448796 0.0670347 
6.74771 -6.98373 8.21705 0 0 1.5 0.0637822 0.0136573 
7.05246 -6.93843 8.38803 0 0 1.5 0.0736759 0.00074352 
7.35885 -6.90513 8.55861 0 0 1.5 0.0838769 -0.00752051 
7.66619 -6.8788 8.72894 0 0 1.5 0.0943902 -0.0129591 
7.97283 -6.8744 8.90222 0 0 1.5 0.116324 -0.0188676 
8.279 -6.87595 9.07646 0 0 1.5 0.127685 -0.0200078 
8.57996 -6.90737 9.25701 0 0 1.5 0.139227 -0.0203128 
8.87783 -6.94848 9.43994 0 0 1.5 0.150853 -0.0199643 
9.16761 -7.01496 9.62908 0 0 1.5 0.173799 -0.0174917 
9.44919 -7.09887 9.82253 0 0 1.5 0.184749 -0.0154203 
9.72213 -7.20117 10.0205 0 0 1.5 0.195039 -0.0128151 
9.97998 -7.32705 10.2242 0 0 1.5 0.212547 -0.0065489 
10.2309 -7.46368 10.4304 0 0 1.5 0.2192 -0.0029573 
10.4589 -7.62799 10.6425 0 0 1.5 0.224093 0.00100492 
10.6819 -7.79779 10.8558 0 0 1.5 0.227004 0.0051275 
10.8763 -7.99464 11.074 0 0 1.5 0.226378 0.0133529 
11.063 -8.19732 11.293 0 0 1.5 0.222787 0.0176305 
11.2237 -8.41953 11.5142 0 0 1.5 0.217114 0.0218574 
11.3692 -8.65088 11.7356 0 0 1.5 0.209547 0.0258548 
11.4932 -8.89516 11.9573 0 0 1.5 0.18972 0.0337717 
11.5936 -9.15064 12.1772 0 0 1.5 0.177996 0.0378185 
11.6787 -9.41338 12.396 0 0 1.5 0.165438 0.0418577 
11.7328 -9.68801 12.6095 0 0 1.5 0.152297 0.0461386 
11.7791 -9.96558 12.8215 0 0 1.5 0.125051 0.0568041 
11.7909 -10.2542 13.0232 0 0 1.5 0.111254 0.0641052 
11.797 -10.5447 13.2222 0 0 1.5 0.0974991 0.0738719 
11.7807 -10.8422 13.4103 0 0 1.5 0.0704012 0.109488 
11.7571 -11.1428 13.5923 0 0 1.5 0.057243 0.14604 
11.722 -11.4482 13.7645 0 0 1.5 0.044646 0.213838 
11.6824 -11.7581 13.9272 0 0 1.5 0.0333279 0.348445 
11.6393 -12.0717 14.0819 0 0 1.5 0.0250253 0.573377 
11.5983 -12.3914 14.224 0 0 1.5 0.0332104 0.340884 
11.5584 -12.7138 14.3605 0 0 1.5 0.0463084 0.195898 
11.5302 -13.0433 14.4818 0 0 1.5 0.0620332 0.129575 
11.5043 -13.3742 14.6001 0 0 1.5 0.0989951 0.0815576 
11.5015 -13.7115 14.702 0 0 1.5 0.120113 0.0733373 
11.5038 -14.0492 14.8017 0 0 1.5 0.14311 0.0692987 
11.5323 -14.3889 14.8907 0 0 1.5 0.195111 0.0674006 
11.5738 -14.7274 14.978 0 0 1.5 0.224078 0.068545 
11.6388 -15.0634 15.0619 0 0 1.5 0.254715 0.0704792 
11.7292 -15.3917 15.1501 0 0 1.5 0.286494 0.0727536 
11.8351 -15.7152 15.2409 0 0 1.5 0.349505 0.0777511 
11.986 -16.0117 15.3567 0 0 1.5 0.377726 0.0800893 
12.1607 -16.2799 15.4969 0 0 1.5 0.40132 0.081917 
12.3641 -16.505 15.6711 0 0 1.5 0.41843 0.0829526 
12.5953 -16.6307 15.9054 0 0 1.5 0.427742 0.0821079 
12.8131 -16.6389 16.1752 0 0 1.5 0.419207 0.0804734 
13.0125 -16.5837 16.4546 0 0 1.5 0.402891 0.0781121 
13.1762 -16.4479 16.7356 0 0 1.5 0.38038 0.0751444 
13.3399 -16.3121 17.0165 0 0 1.5 0.32428 0.0689711 
13.5036 -16.1763 17.2975 0 0 1.5 0.294195 0.0661763 
13.6673 -16.0404 17.5784 0 0 1.5 0.26451 0.0636346 
13.831 -15.9046 17.8593 0 0 1.5 0.209365 0.0604305 
13.9947 -15.7688 18.1403 0 0 1.5 0.1847 0.0599857 
14.1584 -15.633 18.4212 0 0 1.5 0.162149 0.0602709 
14.322 -15.4972 18.7021 0 0 1.5 0.141675 0.0615279 
14.4857 -15.3614 18.9831 0 0 1.5 0.106463 0.0682167 
14.6494 -15.2256 19.264 0 0 1.5 0.0914305 0.0741551 
14.8131 -15.0898 19.545 0 0 1.5 0.0779158 0.0827028 
14.9768 -14.954 19.8259 0 0 1.5 0.0657694 0.0951919 
15.1405 -14.8181 20.1068 0 0 1.5 0.0451128 0.140344 
15.3042 -14.6823 20.3878 0 0 1.5 0.0364526 0.181603 
15.4679 -14.5465 20.6687 0 0 1.5 0.0288535 0.247704 
15.6315 -14.4107 20.9496 0 0 1.5 0.0171471 0.525986 
15.7952 -14.2749 21.2306 0 0 1.5 0.0135814 0.734754 
15.9589 -14.1391 21.5115 0 0 1.5 0.012088 0.82107 
16.1226 -14.0033 21.7925 0 0 1.5 0.0125994 0.674632 
16.2863 -13.8675 22.0734 0 0 1.5 0.0165367 0.317819 
16.45 -13.7317 22.3543 0 0 1.5 0.0187253 0.225491 
16.6137 -13.5958 22.6353 0 0 1.5 0.0206961 0.168729 
16.7773 -13.46 22.9162 0 0 1.5 0.0223467 0.132587 
16.941 -13.3242 23.1971 0 0 1.5 0.0245261 0.0933468 
17.1047 -13.1884 23.4781 0 0 1.5 0.0250444 0.0828116 
17.2684 -13.0526 23.759 0 0 1.5 0.0251953 0.0756441 
17.4321 -12.9168 24.04 0 0 1.5 0.0244771 0.0686797 
17.5958 -12.781 24.3209 0 0 1.5 0.0236635 0.0680893 
17.7595 -12.6452 24.6018 0 0 1.5 0.0225922 0.0690185 
17.9232 -12.5094 24.8828 0 0 1.5 0.0213014 0.0716038 
18.0868 -12.3735 25.1637 0 0 1.5 0.0182083 0.083276 
18.2505 -12.2377 25.4447 0 0 1.5 0.0164859 0.0931679 
18.4142 -12.1019 25.7256 0 0 1.5 0.0147024 0.107144 
18.5779 -11.9661 26.0065 0 0 1.5 0.0128935 0.127413 
18.7416 -11.8303 26.2875 0 0 1.5 0.00935002 0.201131 
18.9053 -11.6945 26.5684 0 0 1.5 0.00769998 0.269099 
19.069 -11.5587 26.8493 0 0 1.5 0.00619234 0.377863 
19.2327 -11.4229 27.1303 0 0 1.5 0.00489394 0.549101 
19.3963 -11.2871 27.4112 0 0 1.5 0.00337422 0.947308 
19.56 -11.1513 27.6922 0 0 1.5 0.00335042 0.873447 
19.7237 -11.0154 27.9731 0 0 1.5 0.00372029 0.645744 
19.8874 -10.8796 28.254 0 0 1.5 0.00489602 0.311315 
20.0511 -10.7438 28.535 0 0 1.5 0.00548253 0.228156 
20.2148 -10.608 28.8159 0 0 1.5 0.00600851 0.17512 
20.3785 -10.4722 29.0968 0 0 1.5 0.00645853 0.139925 
20.5422 -10.3364 29.3778 0 0 1.5 0.00711725 0.0991965 
20.7058 -10.2006 29.6587 0 0 1.5 0.00733399 0.0871001 
20.8695 -10.0648 29.9397 0 0 1.5 0.00748493 0.0779849 
21.0332 -9.92896 30.2206 0 0 1.5 0.00757806 0.0710094 
21.1969 -9.79315 30.5015 0 0 1.5 0.00762292 0.0613979 
21.3606 -9.65734 30.7825 0 0 1.5 0.00759103 0.0577934 
21.5243 -9.52152 31.0634 0 0 1.5 0.0075335 0.0546906 
21.688 -9.38571 31.3444 0 0 1.5 0.00736491 0.0496265 
21.8516 -9.2499 31.6253 0 0 1.5 0.00726489 0.0472995 
22.0153 -9.11409 31.9062 0 0 1.5 0.00716111 0.0450514 
22.179 -8.97828 32.1872 0 0 1.5 0.00705625 0.0429532 
22.3427 -8.84247 32.4681 0 0 1.5 0.00685199 0.0389801 
22.5064 -8.70666 32.749 0 0 1.5 0.00675656 0.0371083 
22.6701 -8.57085 33.03 0 0 1.5 0.00666642 0.0354326 
22.8338 -8.43504 33.3109 0 0 1.5 0.00658144 0.0339642 
22.9975 -8.29923 33.5919 0 0 1.5 0.00642663 0.0317189 
23.1611 -8.16342 33.8728 0 0 1.5 0.00635597 0.031037 
23.3248 -8.02761 34.1537 0 0 1.5 0.00628878 0.0306909 
0 1 0 
1 2 0 
2 3 0 
3 4 0 
4 5 0 
5 6 0 
6 7 0 
7 8 0 
8 9 0 
9 10 0 
10 11 0 
11 12 0 
12 13 0 
13 14 0 
14 15 0 
15 16 0 
16 17 0 
17 18 0 
18 19 0 
19 20 0 
20 21 0 
21 22 0 
22 23 0 
23 24 0 
24 25 0 
25 26 0 
26 27 0 
27 28 0 
28 29 0 
29 30 0 
30 31 0 
31 32 0 
32 33 0 
33 34 0 
34 35 0 
35 36 0 
36 37 0 
37 38 0 
38 39 0 
39 40 0 
40 41 0 
41 42 0 
42 43 0 
43 44 0 
44 45 0 
45 46 0 
46 47 0 
47 48 0 
48 49 0 
49 50 0 
50 51 0 
51 52 0 
52 53 0 
53 54 0 
54 55 0 
55 56 0 
56 57 0 
57 58 0 
58 59 0 
59 60 0 
60 61 0 
61 62 0 
62 63 0 
63 64 0 
64 65 0 
65 66 0 
66 67 0 
67 68 0 
68 69 0 
69 70 0 
70 71 0 
71 72 0 
72 73 0 
73 74 0 
74 75 0 
75 76 0 
76 77 0 
77 78 0 
78 79 0 
79 80 0 
80 81 0 
81 82 0 
82 83 0 
83 84 0 
84 85 0 
85 86 0 
86 87 0 
87 88 0 
88 89 0 
89 90 0 
90 91 0 
91 92 0 
92 93 0 
93 94 0 
94 95 0 
95 96 0 
96 97 0 
97 98 0 
98 99 0 
99 100 0 
100 101 0 
101 102 0 
102 103 0 
103 104 0 
104 105 0 
105 106 0 
106 107 0 
107 108 0 
108 109 0 
109 110 0 
110 111 0 
111 112 0 
112 113 0 
113 114 0 
114 115 0 
115 116 0 
116 117 0 
117 118 0 
118 119 0 
119 120 0 
120 121 0 
121 122 0 
122 123 0 
123 124 0 
124 125 0 
125 126 0 
126 127 0 
127 128 0 
128 129 0 
129 130 0 
130 131 0 
131 132 0 
132 133 0 
133 134 0 
134 135 0 
135 136 0 
136 137 0 
137 138 0 
138 139 0 
139 140 0 
140 141 0 
141 142 0 
142 143 0 
143 144 0 
144 145 0 
145 146 0 
146 147 0 
147 148 0 
148 149 0 
149 150 0 
150 151 0 
151 152 0 
152 153 0 
153 154 0 
154 155 0 
155 156 0 
156 157 0 
157 158 0 
158 159 0 
159 160 0 
160 161 0 
161 162 0 
162 163 0 
163 164 0 
164 165 0 
165 166 0 
166 167 0 
167 168 0 
168 169 0 
169 170 0 
170 171 0 
171 172 0 
172 173 0 
173 174 0 
174 175 0 
175 176 0 
176 177 0 
177 178 0 
178 179 0 
179 180 0 
180 181 0 
181 182 0 
182 183 0 
183 184 0 
184 185 0 
185 186 0 
186 187 0 
187 188 0 
188 189 0 
189 190 0 
190 191 0 
191 192 0 
192 193 0 
193 194 0 
194 195 0 
195 196 0 
196 197 0 
197 198 0 
198 199 0 
199 200 0 
200 201 0 
201 202 0 
202 203 0 
203 204 0 
204 205 0 
205 206 0 
206 207 0 
207 208 0 
208 209 0 
209 210 0 
210 211 0 
211 212 0 
212 213 0 
213 214 0 
214 215 0 
215 216 0 
216 217 0 
217 218 0 
218 219 0 
219 220 0 
220 221 0 
221 222 0 
222 223 0 
223 224 0 
224 225 0 
225 226 0 
226 227 0 
227 228 0 
228 229 0 
229 230 0 
230 231 0 
231 232 0 
232 233 0 
233 234 0 
234 235 0 
235 236 0 
236 237 0 
237 238 0 
238 239 0 
239 240 0 
240 241 0 
241 242 0 
242 243 0 
243 244 0 
244 245 0 
245 246 0 
246 247 0 
247 248 0 
248 249 0 
249 250 0 
250 251 0 
251 252 0 
252 253 0 
253 254 0 
254 255 0 
255 256 0 
256 257 0 
257 258 0 
258 259 0 
259 260 0 
260 261 0 
261 262 0 
262 263 0 
263 264 0 
264 265 0 
265 266 0 
266 267 0 
267 268 0 
268 269 0 
269 270 0 
270 271 0 
271 272 0 
272 273 0 
273 274 0 
274 275 0 
275 276 0 
276 277 0 
277 278 0 
278 279 0 
279 280 0 
280 281 0 
281 282 0 
282 283 0 
283 284 0 
284 285 0 
285 286 0 
286 287 0 
287 288 0 
288 289 0 
289 290 0 
290 291 0 
291 292 0 
292 293 0 
293 294 0 
294 295 0 
295 296 0 
296 297 0 
297 298 0 
298 299 0 
-1 -1 0 
-1 300 0 1 2 3 4 5 6 7 8 9 10 11 12 13 14 15 16 17 18 19 20 21 22 23 24 25 26 27 28 29 30 31 32 33 34 35 36 37 38 39 40 41 42 43 44 45 46 47 48 49 50 51 52 53 54 55 56 57 58 59 60 61 62 63 64 65 66 67 68 69 70 71 72 73 74 75 76 77 78 79 80 81 82 83 84 85 86 87 88 89 90 91 92 93 94 95 96 97 98 99 100 101 102 103 104 105 106 107 108 109 110 111 112 113 114 115 116 117 118 119 120 121 122 123 124 125 126 127 128 129 130 131 132 133 134 135 136 137 138 139 140 141 142 143 144 145 146 147 148 149 150 151 152 153 154 155 156 157 158 159 160 161 162 163 164 165 166 167 168 169 170 171 172 173 174 175 176 177 178 179 180 181 182 183 184 185 186 187 188 189 190 191 192 193 194 195 196 197 198 199 200 201 202 203 204 205 206 207 208 209 210 211 212 213 214 215 216 217 218 219 220 221 222 223 224 225 226 227 228 229 230 231 232 233 234 235 236 237 238 239 240 241 242 243 244 245 246 247 248 249 250 251 252 253 254 255 256 257 258 259 260 261 262 263 264 265 266 267 268 269 270 271 272 273 274 275 276 277 278 279 280 281 282 283 284 285 286 287 288 289 290 291 292 293 294 295 296 297 298 299 
