ply
format ascii 1.0
comment written by koba@oshima.lab
element vertex 300
property float x
property float y
property float z
property int label
property int attribute
property float radius
property float curvature
property float torsion
element edge 300
property int vertex1
property int vertex2
property int label
element vertex_seq 1
property int label
property list int int vertex_indices
end_header
8.69261 22.693 2.61682 0 0 1.5 0.0260838 0.0079129 
8.49659 22.437 2.4211 0 0 1.5 0.0258633 0.00847481 
8.30056 22.181 2.22537 0 0 1.5 0.0256322 0.0096043 
8.10454 21.925 2.02965 0 0 1.5 0.0253837 0.0113173 
7.90852 21.6689 1.83393 0 0 1.5 0.0248067 0.0166402 
7.7125 21.4129 1.63821 0 0 1.5 0.0244577 0.0204338 
7.51648 21.1569 1.44248 0 0 1.5 0.0240505 0.0251354 
7.32045 20.9009 1.24676 0 0 1.5 0.0235723 0.0309168 
7.12443 20.6449 1.05104 0 0 1.5 0.0223394 0.0464295 
6.92841 20.3888 0.855316 0 0 1.5 0.0215426 0.0571054 
6.73239 20.1328 0.659593 0 0 1.5 0.0205984 0.0709386 
6.53636 19.8768 0.463871 0 0 1.5 0.0194878 0.0891567 
6.34034 19.6208 0.268148 0 0 1.5 0.0166886 0.150183 
6.14432 19.3647 0.0724258 0 0 1.5 0.014973 0.20644 
5.9483 19.1087 -0.123297 0 0 1.5 0.0130512 0.299724 
5.75228 18.8527 -0.319019 0 0 1.5 0.00886485 0.787774 
5.55625 18.5967 -0.514742 0 0 1.5 0.00712478 1.35065 
5.36023 18.3407 -0.710464 0 0 1.5 0.00662882 1.73482 
5.16421 18.0846 -0.906186 0 0 1.5 0.00816484 1.27685 
4.96819 17.8286 -1.10191 0 0 1.5 0.0155541 0.450053 
4.77216 17.5726 -1.29763 0 0 1.5 0.0204732 0.297592 
4.57614 17.3166 -1.49335 0 0 1.5 0.0259689 0.213278 
4.38012 17.0605 -1.68908 0 0 1.5 0.0319713 0.163616 
4.1841 16.8045 -1.8848 0 0 1.5 0.0453558 0.112761 
3.98808 16.5485 -2.08052 0 0 1.5 0.0526572 0.099452 
3.79205 16.2925 -2.27624 0 0 1.5 0.0602881 0.0907778 
3.59603 16.0365 -2.47197 0 0 1.5 0.0762665 0.0823835 
3.40001 15.7804 -2.66769 0 0 1.5 0.0844128 0.0810193 
3.20399 15.5244 -2.86341 0 0 1.5 0.0924765 0.0812798 
3.00796 15.2684 -3.05913 0 0 1.5 0.100291 0.0831489 
2.81194 15.0124 -3.25486 0 0 1.5 0.114412 0.090761 
2.61592 14.7563 -3.45058 0 0 1.5 0.120292 0.0966894 
2.4199 14.5003 -3.6463 0 0 1.5 0.125091 0.104514 
2.22388 14.2443 -3.84202 0 0 1.5 0.128606 0.114184 
2.01897 13.9868 -4.02191 0 0 1.5 0.131253 0.139834 
1.77074 13.722 -4.12454 0 0 1.5 0.130229 0.157474 
1.51315 13.4605 -4.20054 0 0 1.5 0.127638 0.17901 
1.23463 13.2067 -4.21698 0 0 1.5 0.123618 0.204812 
0.949942 12.9618 -4.20444 0 0 1.5 0.112158 0.275721 
0.658108 12.7273 -4.1583 0 0 1.5 0.105286 0.323736 
0.362854 12.5035 -4.09061 0 0 1.5 0.0981805 0.380314 
0.0650493 12.2877 -4.00687 0 0 1.5 0.0852027 0.514259 
-0.236047 12.0813 -3.91256 0 0 1.5 0.0803748 0.578572 
-0.538981 11.8801 -3.81236 0 0 1.5 0.0773483 0.622876 
-0.847243 11.6865 -3.71375 0 0 1.5 0.0764899 0.633859 
-1.15768 11.4959 -3.61578 0 0 1.5 0.0814423 0.555166 
-1.47699 11.3122 -3.53543 0 0 1.5 0.0867221 0.49021 
-1.79864 11.1302 -3.46051 0 0 1.5 0.093297 0.426215 
-2.13165 10.9564 -3.4261 0 0 1.5 0.100715 0.370443 
-2.46721 10.7873 -3.41465 0 0 1.5 0.116638 0.290958 
-2.80719 10.6264 -3.44304 0 0 1.5 0.124662 0.26517 
-3.14293 10.4805 -3.52813 0 0 1.5 0.132495 0.246729 
-3.47383 10.3434 -3.64292 0 0 1.5 0.147239 0.226213 
-3.78988 10.2247 -3.81114 0 0 1.5 0.154178 0.221579 
-4.09308 10.1169 -4.00592 0 0 1.5 0.16089 0.219576 
-4.38601 10.0179 -4.22194 0 0 1.5 0.167458 0.219135 
-4.6628 9.92866 -4.46167 0 0 1.5 0.180718 0.218981 
-4.93562 9.84184 -4.70727 0 0 1.5 0.187666 0.218275 
-5.19431 9.75838 -4.96871 0 0 1.5 0.194953 0.2164 
-5.45191 9.67517 -5.23139 0 0 1.5 0.202619 0.212889 
-5.69732 9.58708 -5.50394 0 0 1.5 0.218901 0.201045 
-5.94231 9.49882 -5.77683 0 0 1.5 0.227215 0.193186 
-6.17316 9.39673 -6.05711 0 0 1.5 0.235295 0.184573 
-6.40273 9.29328 -6.33787 0 0 1.5 0.249262 0.166132 
-6.61105 9.16673 -6.62574 0 0 1.5 0.254298 0.157194 
-6.8106 9.03212 -6.9153 0 0 1.5 0.257483 0.1492 
-6.98038 8.87013 -7.21062 0 0 1.5 0.258478 0.142262 
-7.11348 8.68304 -7.50736 0 0 1.5 0.253063 0.132396 
-7.21313 8.47443 -7.80443 0 0 1.5 0.246641 0.130261 
-7.22628 8.22773 -8.08946 0 0 1.5 0.238008 0.13023 
-7.17778 7.96873 -8.3546 0 0 1.5 0.227498 0.132534 
-7.08112 7.70295 -8.60234 0 0 1.5 0.202602 0.145019 
-6.92159 7.4394 -8.81998 0 0 1.5 0.189246 0.155701 
-6.73743 7.18229 -9.02389 0 0 1.5 0.175936 0.169869 
-6.53323 6.93041 -9.2166 0 0 1.5 0.163122 0.187384 
-6.3126 6.68678 -9.40133 0 0 1.5 0.1408 0.229793 
-6.08702 6.44564 -9.58366 0 0 1.5 0.132178 0.252072 
-5.8572 6.20936 -9.76703 0 0 1.5 0.125843 0.270876 
-5.62653 5.97405 -9.95061 0 0 1.5 0.121644 0.281087 
-5.40162 5.73838 -10.1407 0 0 1.5 0.124382 0.267796 
-5.17817 5.50261 -10.3324 0 0 1.5 0.130535 0.244181 
-4.96751 5.26121 -10.5313 0 0 1.5 0.140063 0.214842 
-4.76149 5.01775 -10.7327 0 0 1.5 0.168861 0.15459 
-4.57416 4.76296 -10.9378 0 0 1.5 0.188006 0.128626 
-4.39457 4.50347 -11.1444 0 0 1.5 0.210312 0.106935 
-4.2423 4.22382 -11.3458 0 0 1.5 0.235821 0.0889457 
-4.09861 3.93776 -11.5451 0 0 1.5 0.296456 0.0615903 
-3.99689 3.61757 -11.7166 0 0 1.5 0.331337 0.0516625 
-3.91903 3.27976 -11.8582 0 0 1.5 0.368725 0.0436012 
-3.87401 2.91979 -11.9548 0 0 1.5 0.447009 0.0316551 
-3.87867 2.54263 -11.952 0 0 1.5 0.484738 0.0273561 
-3.92017 2.18991 -11.8351 0 0 1.5 0.518665 0.0239971 
-3.97895 1.88406 -11.6316 0 0 1.5 0.54626 0.021535 
-4.04394 1.62455 -11.3694 0 0 1.5 0.573737 0.0170257 
-4.10795 1.41677 -11.0611 0 0 1.5 0.571391 0.0143881 
-4.16546 1.25652 -10.7258 0 0 1.5 0.55863 0.0115296 
-4.22028 1.11584 -10.3806 0 0 1.5 0.53696 0.00795129 
-4.26953 1.01518 -10.0204 0 0 1.5 0.475824 -0.00268193 
-4.31933 0.93078 -9.65665 0 0 1.5 0.440825 -0.00958509 
-4.36987 0.867924 -9.28818 0 0 1.5 0.405275 -0.0175478 
-4.43144 0.829912 -8.91835 0 0 1.5 0.337085 -0.0371979 
-4.50152 0.805608 -8.5489 0 0 1.5 0.305714 -0.0494621 
-4.6025 0.812796 -8.18554 0 0 1.5 0.276505 -0.063365 
-4.7412 0.84768 -7.83831 0 0 1.5 0.249519 -0.0789545 
-4.91979 0.911004 -7.51501 0 0 1.5 0.202035 -0.119055 
-5.14297 1.00534 -7.22617 0 0 1.5 0.181353 -0.145225 
-5.41129 1.13694 -6.99603 0 0 1.5 0.16263 -0.17613 
-5.69217 1.28755 -6.79613 0 0 1.5 0.145862 -0.213327 
-5.97927 1.45228 -6.61566 0 0 1.5 0.118502 -0.310034 
-6.26503 1.63675 -6.4526 0 0 1.5 0.108306 -0.365044 
-6.54103 1.83428 -6.28861 0 0 1.5 0.100843 -0.416416 
-6.80989 2.04134 -6.12393 0 0 1.5 0.0964473 -0.453649 
-7.05087 2.26708 -5.94204 0 0 1.5 0.0976058 -0.450503 
-7.28079 2.49768 -5.7529 0 0 1.5 0.102994 -0.413028 
-7.47269 2.74131 -5.5382 0 0 1.5 0.111137 -0.365177 
-7.63949 2.98722 -5.30835 0 0 1.5 0.134031 -0.274033 
-7.77261 3.23616 -5.05818 0 0 1.5 0.148135 -0.237678 
-7.86153 3.47896 -4.78581 0 0 1.5 0.163684 -0.207832 
-7.92849 3.7187 -4.5024 0 0 1.5 0.180508 -0.183959 
-7.93763 3.93721 -4.19605 0 0 1.5 0.217637 -0.149906 
-7.93636 4.15128 -3.88581 0 0 1.5 0.237784 -0.13753 
-7.87872 4.33029 -3.55883 0 0 1.5 0.258865 -0.127488 
-7.81382 4.50255 -3.23047 0 0 1.5 0.280813 -0.119342 
-7.70759 4.63643 -2.89421 0 0 1.5 0.326787 -0.106337 
-7.59317 4.75952 -2.55752 0 0 1.5 0.350354 -0.100938 
-7.44846 4.8426 -2.21924 0 0 1.5 0.373888 -0.0962253 
-7.29607 4.9117 -1.88229 0 0 1.5 0.418771 -0.0876247 
-7.12135 4.94007 -1.5492 0 0 1.5 0.438636 -0.0835944 
-6.93909 4.95011 -1.22046 0 0 1.5 0.455568 -0.079934 
-6.74055 4.92051 -0.90111 0 0 1.5 0.468537 -0.0765694 
-6.5334 4.86409 -0.592875 0 0 1.5 0.478661 -0.0709092 
-6.3152 4.77325 -0.298904 0 0 1.5 0.474469 -0.0690408 
-6.08635 4.63986 -0.0329523 0 0 1.5 0.463872 -0.067989 
-5.8519 4.4837 0.21763 0 0 1.5 0.447218 -0.0679137 
-5.60771 4.26418 0.40326 0 0 1.5 0.399127 -0.0710911 
-5.36506 4.01743 0.543564 0 0 1.5 0.370107 -0.0747114 
-5.12521 3.74127 0.632137 0 0 1.5 0.339395 -0.0801884 
-4.90533 3.43486 0.625476 0 0 1.5 0.308034 -0.0877231 
-4.70582 3.12333 0.566644 0 0 1.5 0.246834 -0.110789 
-4.52219 2.80886 0.470125 0 0 1.5 0.218137 -0.128676 
-4.36814 2.49651 0.325259 0 0 1.5 0.191131 -0.152869 
-4.22625 2.18442 0.168941 0 0 1.5 0.142974 -0.230931 
-4.09787 1.87262 -0.000102862 0 0 1.5 0.12212 -0.294563 
-3.98239 1.55587 -0.169078 0 0 1.5 0.103686 -0.383468 
-3.87103 1.23754 -0.338031 0 0 1.5 0.0880731 -0.50254 
-3.76872 0.905975 -0.48594 0 0 1.5 0.0681262 -0.767078 
-3.66702 0.570638 -0.624321 0 0 1.5 0.0653059 -0.806263 
-3.56724 0.22317 -0.731975 0 0 1.5 0.0673675 -0.737313 
-3.46647 -0.130244 -0.812092 0 0 1.5 0.073319 -0.60893 
-3.36468 -0.489671 -0.864353 0 0 1.5 0.0916381 -0.37606 
-3.25976 -0.851026 -0.868506 0 0 1.5 0.101942 -0.299874 
-3.15377 -1.21264 -0.856342 0 0 1.5 0.112085 -0.244923 
-3.04393 -1.56697 -0.788068 0 0 1.5 0.129935 -0.176889 
-2.93332 -1.91772 -0.7072 0 0 1.5 0.136919 -0.157199 
-2.82056 -2.25837 -0.590917 0 0 1.5 0.142282 -0.143678 
-2.70714 -2.59253 -0.459112 0 0 1.5 0.145844 -0.134819 
-2.59284 -2.91797 -0.306455 0 0 1.5 0.147292 -0.129006 
-2.47842 -3.23586 -0.139415 0 0 1.5 0.145322 -0.131264 
-2.3639 -3.54727 0.040004 0 0 1.5 0.141777 -0.136647 
-2.24991 -3.85128 0.231667 0 0 1.5 0.136895 -0.145169 
-2.13628 -4.1506 0.431095 0 0 1.5 0.124359 -0.171778 
-2.02369 -4.44303 0.640886 0 0 1.5 0.117363 -0.189859 
-1.91162 -4.73209 0.85574 0 0 1.5 0.110315 -0.210708 
-1.80054 -5.01463 1.0795 0 0 1.5 0.0972695 -0.256795 
-1.68981 -5.29481 1.30648 0 0 1.5 0.0918254 -0.27825 
-1.57883 -5.56867 1.54087 0 0 1.5 0.0874208 -0.294634 
-1.46778 -5.84108 1.77697 0 0 1.5 0.0842162 -0.302644 
-1.35328 -6.10729 2.0184 0 0 1.5 0.081717 -0.284374 
-1.23821 -6.37273 2.26043 0 0 1.5 0.0823882 -0.258865 
-1.11427 -6.63219 2.50456 0 0 1.5 0.0841753 -0.22678 
-0.987766 -6.89063 2.74838 0 0 1.5 0.0868948 -0.191373 
-0.848124 -7.14381 2.99062 0 0 1.5 0.0943613 -0.121017 
-0.701101 -7.39432 3.23098 0 0 1.5 0.098732 -0.0900029 
-0.538823 -7.63931 3.46746 0 0 1.5 0.103299 -0.0622541 
-0.36178 -7.87775 3.69944 0 0 1.5 0.107911 -0.0373956 
-0.170839 -8.11003 3.92718 0 0 1.5 0.11676 0.00271552 
0.0436869 -8.32793 4.14736 0 0 1.5 0.120777 0.018495 
0.266879 -8.54054 4.36476 0 0 1.5 0.124391 0.0321938 
0.521446 -8.7257 4.57245 0 0 1.5 0.130082 0.0535666 
0.783368 -8.90178 4.77809 0 0 1.5 0.132046 0.061493 
1.0672 -9.04969 4.97769 0 0 1.5 0.133357 0.0678685 
1.36125 -9.17719 5.17519 0 0 1.5 0.13398 0.0728142 
1.66607 -9.28316 5.37047 0 0 1.5 0.133159 0.0784614 
1.97976 -9.35734 5.56538 0 0 1.5 0.131737 0.0790914 
2.2966 -9.42019 5.76016 0 0 1.5 0.129667 0.0784921 
2.61705 -9.44448 5.95752 0 0 1.5 0.126994 0.0768584 
2.93725 -9.46188 6.15573 0 0 1.5 0.120054 0.069712 
3.25568 -9.45165 6.35767 0 0 1.5 0.11589 0.0643105 
3.5725 -9.43291 6.56115 0 0 1.5 0.111342 0.058146 
3.88617 -9.39747 6.76762 0 0 1.5 0.101327 0.0423272 
4.19767 -9.35356 6.97556 0 0 1.5 0.0959671 0.0325823 
4.50683 -9.30056 7.18506 0 0 1.5 0.0904329 0.0220243 
4.81456 -9.24054 7.39469 0 0 1.5 0.0847664 0.0102634 
5.12138 -9.17603 7.60441 0 0 1.5 0.0731942 -0.0185399 
5.42857 -9.10602 7.81177 0 0 1.5 0.0673525 -0.035916 
5.73589 -9.03402 8.01828 0 0 1.5 0.0615098 -0.0562385 
6.04586 -8.95727 8.21902 0 0 1.5 0.0556977 -0.0808018 
6.35626 -8.87976 8.41883 0 0 1.5 0.0443044 -0.149708 
6.67108 -8.79727 8.60952 0 0 1.5 0.0388026 -0.200685 
6.98657 -8.71409 8.79876 0 0 1.5 0.0335161 -0.270716 
7.30595 -8.62689 8.97951 0 0 1.5 0.0240832 -0.511879 
7.62644 -8.53846 9.15762 0 0 1.5 0.0203885 -0.699996 
7.94955 -8.44713 9.32948 0 0 1.5 0.0178946 -0.89106 
8.27384 -8.35467 9.49847 0 0 1.5 0.0170629 -0.96577 
8.59955 -8.26083 9.66395 0 0 1.5 0.0205218 -0.666932 
8.92621 -8.16704 9.82759 0 0 1.5 0.0239632 -0.49849 
9.25348 -8.07329 9.99001 0 0 1.5 0.0279665 -0.378054 
9.58165 -7.9824 10.1523 0 0 1.5 0.0322823 -0.296556 
9.91011 -7.89246 10.3144 0 0 1.5 0.0413575 -0.20415 
10.2397 -7.80988 10.4782 0 0 1.5 0.0460125 -0.177508 
10.5695 -7.7286 10.6423 0 0 1.5 0.0507278 -0.157744 
10.9009 -7.65956 10.8086 0 0 1.5 0.0555133 -0.142753 
11.2327 -7.59343 10.9753 0 0 1.5 0.0654102 -0.121669 
11.5663 -7.5416 11.1435 0 0 1.5 0.070607 -0.113499 
11.9006 -7.49586 11.3119 0 0 1.5 0.0760381 -0.106354 
12.2364 -7.4648 11.4809 0 0 1.5 0.0878581 -0.0941496 
12.5727 -7.44339 11.6498 0 0 1.5 0.0943838 -0.0884701 
12.9099 -7.43615 11.8187 0 0 1.5 0.10141 -0.083038 
13.2469 -7.44194 11.9877 0 0 1.5 0.109009 -0.0778862 
13.5836 -7.46051 12.1567 0 0 1.5 0.126203 -0.0678949 
13.9181 -7.49564 12.3268 0 0 1.5 0.13591 -0.0630409 
14.2512 -7.54202 12.4976 0 0 1.5 0.14641 -0.0583588 
14.5788 -7.60907 12.6716 0 0 1.5 0.157725 -0.0538426 
14.9038 -7.68553 12.8471 0 0 1.5 0.182726 -0.0452579 
15.2172 -7.78833 13.0295 0 0 1.5 0.196262 -0.0411747 
15.5277 -7.89791 13.2136 0 0 1.5 0.210301 -0.0372631 
15.8161 -8.04262 13.4085 0 0 1.5 0.238926 -0.0299282 
16.0982 -8.19545 13.606 0 0 1.5 0.252807 -0.0263827 
16.3499 -8.38389 13.8144 0 0 1.5 0.265789 -0.0229712 
16.581 -8.59035 14.0268 0 0 1.5 0.277358 -0.0197537 
16.7822 -8.82303 14.2451 0 0 1.5 0.294057 -0.0136603 
16.9354 -9.08641 14.4646 0 0 1.5 0.298163 -0.010826 
17.065 -9.36376 14.6839 0 0 1.5 0.298996 -0.00825275 
17.123 -9.6721 14.8933 0 0 1.5 0.296448 -0.00590442 
17.1495 -9.98812 15.0932 0 0 1.5 0.281625 -0.00182195 
17.1281 -10.3158 15.2789 0 0 1.5 0.270025 -0.00013952 
17.0607 -10.6463 15.4433 0 0 1.5 0.256308 0.00132308 
16.967 -10.9784 15.5957 0 0 1.5 0.241018 0.00259306 
16.8295 -11.3051 15.7207 0 0 1.5 0.20781 0.00468643 
16.676 -11.6299 15.8356 0 0 1.5 0.190841 0.0055578 
16.4933 -11.9456 15.9268 0 0 1.5 0.174109 0.00633075 
16.2931 -12.2559 16.004 0 0 1.5 0.142275 0.00786078 
16.0929 -12.5662 16.0811 0 0 1.5 0.127479 0.0087038 
15.8927 -12.8764 16.1582 0 0 1.5 0.113546 0.00960947 
15.6925 -13.1867 16.2353 0 0 1.5 0.10051 0.0106686 
15.4924 -13.4969 16.3125 0 0 1.5 0.0771054 0.0137178 
15.2922 -13.8072 16.3896 0 0 1.5 0.0667124 0.0158747 
15.092 -14.1174 16.4667 0 0 1.5 0.0571737 0.0187287 
14.8918 -14.4277 16.5439 0 0 1.5 0.0484594 0.0226997 
14.6916 -14.7379 16.621 0 0 1.5 0.0334687 0.036254 
14.4914 -15.0482 16.6981 0 0 1.5 0.0272433 0.0478332 
14.2913 -15.3584 16.7752 0 0 1.5 0.0219387 0.0647901 
14.0911 -15.6687 16.8524 0 0 1.5 0.0146629 0.112437 
13.8909 -15.979 16.9295 0 0 1.5 0.0130464 0.125183 
13.6907 -16.2892 17.0066 0 0 1.5 0.0127458 0.116088 
13.4905 -16.5995 17.0837 0 0 1.5 0.0133721 0.0935802 
13.2903 -16.9097 17.1609 0 0 1.5 0.0156173 0.0540423 
13.0902 -17.22 17.238 0 0 1.5 0.0166646 0.0422199 
12.89 -17.5302 17.3151 0 0 1.5 0.0174812 0.034136 
12.6898 -17.8405 17.3923 0 0 1.5 0.0180153 0.0285292 
12.4896 -18.1507 17.4694 0 0 1.5 0.0181855 0.0220564 
12.2894 -18.461 17.5465 0 0 1.5 0.0178465 0.0203468 
12.0893 -18.7713 17.6236 0 0 1.5 0.0172608 0.0192707 
11.8891 -19.0815 17.7008 0 0 1.5 0.0154867 0.0187676 
11.6889 -19.3918 17.7779 0 0 1.5 0.0143682 0.0193161 
11.4887 -19.702 17.855 0 0 1.5 0.0131471 0.0203758 
11.2885 -20.0123 17.9322 0 0 1.5 0.0118631 0.0220665 
11.0883 -20.3225 18.0093 0 0 1.5 0.00923606 0.0283793 
10.8882 -20.6328 18.0864 0 0 1.5 0.00795963 0.0336126 
10.688 -20.943 18.1635 0 0 1.5 0.00675355 0.0410008 
10.4878 -21.2533 18.2407 0 0 1.5 0.00564666 0.0515969 
10.2876 -21.5635 18.3178 0 0 1.5 0.00387056 0.0846847 
10.0874 -21.8738 18.3949 0 0 1.5 0.00328624 0.102871 
9.88725 -22.1841 18.472 0 0 1.5 0.00294775 0.112233 
9.68707 -22.4943 18.5492 0 0 1.5 0.00284572 0.105766 
9.48689 -22.8046 18.6263 0 0 1.5 0.00309079 0.0688512 
9.28671 -23.1148 18.7034 0 0 1.5 0.00328958 0.0535259 
9.08653 -23.4251 18.7806 0 0 1.5 0.00347605 0.0423533 
8.88634 -23.7353 18.8577 0 0 1.5 0.00373476 0.0287544 
8.68616 -24.0456 18.9348 0 0 1.5 0.00379314 0.0248356 
8.48598 -24.3558 19.0119 0 0 1.5 0.00380432 0.0220701 
8.2858 -24.6661 19.0891 0 0 1.5 0.00377192 0.0200808 
8.08562 -24.9763 19.1662 0 0 1.5 0.00359745 0.0178439 
7.88543 -25.2866 19.2433 0 0 1.5 0.00346806 0.0173568 
7.68525 -25.5969 19.3204 0 0 1.5 0.00331989 0.0171084 
7.48507 -25.9071 19.3976 0 0 1.5 0.00315979 0.0170552 
7.28489 -26.2174 19.4747 0 0 1.5 0.0028243 0.017447 
7.0847 -26.5276 19.5518 0 0 1.5 0.00265876 0.0176939 
6.88452 -26.8379 19.629 0 0 1.5 0.00250077 0.0178841 
6.68434 -27.1481 19.7061 0 0 1.5 0.00221635 0.0179733 
6.48416 -27.4584 19.7832 0 0 1.5 0.00209357 0.0176561 
6.28398 -27.7686 19.8603 0 0 1.5 0.00198563 0.0170318 
6.08379 -28.0789 19.9375 0 0 1.5 0.00189202 0.0161581 
5.88361 -28.3891 20.0146 0 0 1.5 0.0017445 0.0136725 
5.68343 -28.6994 20.0917 0 0 1.5 0.00168895 0.0121614 
5.48325 -29.0097 20.1688 0 0 1.5 0.00164356 0.0106371 
5.28307 -29.3199 20.246 0 0 1.5 0.00160662 0.00918945 
5.08288 -29.6302 20.3231 0 0 1.5 0.00155237 0.00681223 
4.8827 -29.9404 20.4002 0 0 1.5 0.00153238 0.00596631 
4.68252 -30.2507 20.4774 0 0 1.5 0.00151543 0.00540646 
0 1 0 
1 2 0 
2 3 0 
3 4 0 
4 5 0 
5 6 0 
6 7 0 
7 8 0 
8 9 0 
9 10 0 
10 11 0 
11 12 0 
12 13 0 
13 14 0 
14 15 0 
15 16 0 
16 17 0 
17 18 0 
18 19 0 
19 20 0 
20 21 0 
21 22 0 
22 23 0 
23 24 0 
24 25 0 
25 26 0 
26 27 0 
27 28 0 
28 29 0 
29 30 0 
30 31 0 
31 32 0 
32 33 0 
33 34 0 
34 35 0 
35 36 0 
36 37 0 
37 38 0 
38 39 0 
39 40 0 
40 41 0 
41 42 0 
42 43 0 
43 44 0 
44 45 0 
45 46 0 
46 47 0 
47 48 0 
48 49 0 
49 50 0 
50 51 0 
51 52 0 
52 53 0 
53 54 0 
54 55 0 
55 56 0 
56 57 0 
57 58 0 
58 59 0 
59 60 0 
60 61 0 
61 62 0 
62 63 0 
63 64 0 
64 65 0 
65 66 0 
66 67 0 
67 68 0 
68 69 0 
69 70 0 
70 71 0 
71 72 0 
72 73 0 
73 74 0 
74 75 0 
75 76 0 
76 77 0 
77 78 0 
78 79 0 
79 80 0 
80 81 0 
81 82 0 
82 83 0 
83 84 0 
84 85 0 
85 86 0 
86 87 0 
87 88 0 
88 89 0 
89 90 0 
90 91 0 
91 92 0 
92 93 0 
93 94 0 
94 95 0 
95 96 0 
96 97 0 
97 98 0 
98 99 0 
99 100 0 
100 101 0 
101 102 0 
102 103 0 
103 104 0 
104 105 0 
105 106 0 
106 107 0 
107 108 0 
108 109 0 
109 110 0 
110 111 0 
111 112 0 
112 113 0 
113 114 0 
114 115 0 
115 116 0 
116 117 0 
117 118 0 
118 119 0 
119 120 0 
120 121 0 
121 122 0 
122 123 0 
123 124 0 
124 125 0 
125 126 0 
126 127 0 
127 128 0 
128 129 0 
129 130 0 
130 131 0 
131 132 0 
132 133 0 
133 134 0 
134 135 0 
135 136 0 
136 137 0 
137 138 0 
138 139 0 
139 140 0 
140 141 0 
141 142 0 
142 143 0 
143 144 0 
144 145 0 
145 146 0 
146 147 0 
147 148 0 
148 149 0 
149 150 0 
150 151 0 
151 152 0 
152 153 0 
153 154 0 
154 155 0 
155 156 0 
156 157 0 
157 158 0 
158 159 0 
159 160 0 
160 161 0 
161 162 0 
162 163 0 
163 164 0 
164 165 0 
165 166 0 
166 167 0 
167 168 0 
168 169 0 
169 170 0 
170 171 0 
171 172 0 
172 173 0 
173 174 0 
174 175 0 
175 176 0 
176 177 0 
177 178 0 
178 179 0 
179 180 0 
180 181 0 
181 182 0 
182 183 0 
183 184 0 
184 185 0 
185 186 0 
186 187 0 
187 188 0 
188 189 0 
189 190 0 
190 191 0 
191 192 0 
192 193 0 
193 194 0 
194 195 0 
195 196 0 
196 197 0 
197 198 0 
198 199 0 
199 200 0 
200 201 0 
201 202 0 
202 203 0 
203 204 0 
204 205 0 
205 206 0 
206 207 0 
207 208 0 
208 209 0 
209 210 0 
210 211 0 
211 212 0 
212 213 0 
213 214 0 
214 215 0 
215 216 0 
216 217 0 
217 218 0 
218 219 0 
219 220 0 
220 221 0 
221 222 0 
222 223 0 
223 224 0 
224 225 0 
225 226 0 
226 227 0 
227 228 0 
228 229 0 
229 230 0 
230 231 0 
231 232 0 
232 233 0 
233 234 0 
234 235 0 
235 236 0 
236 237 0 
237 238 0 
238 239 0 
239 240 0 
240 241 0 
241 242 0 
242 243 0 
243 244 0 
244 245 0 
245 246 0 
246 247 0 
247 248 0 
248 249 0 
249 250 0 
250 251 0 
251 252 0 
252 253 0 
253 254 0 
254 255 0 
255 256 0 
256 257 0 
257 258 0 
258 259 0 
259 260 0 
260 261 0 
261 262 0 
262 263 0 
263 264 0 
264 265 0 
265 266 0 
266 267 0 
267 268 0 
268 269 0 
269 270 0 
270 271 0 
271 272 0 
272 273 0 
273 274 0 
274 275 0 
275 276 0 
276 277 0 
277 278 0 
278 279 0 
279 280 0 
280 281 0 
281 282 0 
282 283 0 
283 284 0 
284 285 0 
285 286 0 
286 287 0 
287 288 0 
288 289 0 
289 290 0 
290 291 0 
291 292 0 
292 293 0 
293 294 0 
294 295 0 
295 296 0 
296 297 0 
297 298 0 
298 299 0 
-1 -1 0 
-1 300 0 1 2 3 4 5 6 7 8 9 10 11 12 13 14 15 16 17 18 19 20 21 22 23 24 25 26 27 28 29 30 31 32 33 34 35 36 37 38 39 40 41 42 43 44 45 46 47 48 49 50 51 52 53 54 55 56 57 58 59 60 61 62 63 64 65 66 67 68 69 70 71 72 73 74 75 76 77 78 79 80 81 82 83 84 85 86 87 88 89 90 91 92 93 94 95 96 97 98 99 100 101 102 103 104 105 106 107 108 109 110 111 112 113 114 115 116 117 118 119 120 121 122 123 124 125 126 127 128 129 130 131 132 133 134 135 136 137 138 139 140 141 142 143 144 145 146 147 148 149 150 151 152 153 154 155 156 157 158 159 160 161 162 163 164 165 166 167 168 169 170 171 172 173 174 175 176 177 178 179 180 181 182 183 184 185 186 187 188 189 190 191 192 193 194 195 196 197 198 199 200 201 202 203 204 205 206 207 208 209 210 211 212 213 214 215 216 217 218 219 220 221 222 223 224 225 226 227 228 229 230 231 232 233 234 235 236 237 238 239 240 241 242 243 244 245 246 247 248 249 250 251 252 253 254 255 256 257 258 259 260 261 262 263 264 265 266 267 268 269 270 271 272 273 274 275 276 277 278 279 280 281 282 283 284 285 286 287 288 289 290 291 292 293 294 295 296 297 298 299 
