ply
format ascii 1.0
comment written by koba@oshima.lab
element vertex 300
property float x
property float y
property float z
property int label
property int attribute
property float radius
property float curvature
property float torsion
element edge 300
property int vertex1
property int vertex2
property int label
element vertex_seq 1
property int label
property list int int vertex_indices
end_header
0.661175 24.2479 7.685 0 0 1.5 0.0297839 0.00442065 
0.548688 24.0691 7.41337 0 0 1.5 0.0282814 0.00488393 
0.436202 23.8902 7.14173 0 0 1.5 0.0267774 0.00546197 
0.323716 23.7114 6.8701 0 0 1.5 0.0252633 0.00619061 
0.21123 23.5325 6.59847 0 0 1.5 0.0221708 0.0083259 
0.0987435 23.3537 6.32684 0 0 1.5 0.0205751 0.00991768 
-0.0137427 23.1748 6.05521 0 0 1.5 0.018935 0.0120704 
-0.126229 22.996 5.78358 0 0 1.5 0.0172419 0.01507 
-0.238715 22.8171 5.51195 0 0 1.5 0.0136634 0.025973 
-0.351201 22.6383 5.24031 0 0 1.5 0.0117631 0.0365986 
-0.463688 22.4594 4.96868 0 0 1.5 0.00977913 0.055428 
-0.576174 22.2806 4.69705 0 0 1.5 0.00770539 0.0935568 
-0.68866 22.1017 4.42542 0 0 1.5 0.00329693 0.561464 
-0.801146 21.9229 4.15379 0 0 1.5 0.00113226 4.98942 
-0.913632 21.744 3.88216 0 0 1.5 0.00187319 1.90756 
-1.02612 21.5652 3.61052 0 0 1.5 0.00709106 0.144294 
-1.1386 21.3863 3.33889 0 0 1.5 0.00992257 0.0762959 
-1.25109 21.2075 3.06726 0 0 1.5 0.0128713 0.046616 
-1.36358 21.0286 2.79563 0 0 1.5 0.0159269 0.0309615 
-1.47606 20.8498 2.524 0 0 1.5 0.0223186 0.0156632 
-1.58855 20.6709 2.25237 0 0 1.5 0.0256338 0.0114739 
-1.70104 20.4921 1.98073 0 0 1.5 0.029007 0.00834921 
-1.81352 20.3132 1.7091 0 0 1.5 0.0324181 0.00591148 
-1.92601 20.1344 1.43747 0 0 1.5 0.0392664 0.00220399 
-2.03849 19.9555 1.16584 0 0 1.5 0.042648 0.000598873 
-2.15098 19.7767 0.894209 0 0 1.5 0.0459555 -0.00093785 
-2.26347 19.5978 0.622577 0 0 1.5 0.052197 -0.00402453 
-2.37595 19.4189 0.350946 0 0 1.5 0.0550462 -0.00573099 
-2.48844 19.2401 0.0793139 0 0 1.5 0.0576516 -0.0076074 
-2.60093 19.0612 -0.192318 0 0 1.5 0.0599642 -0.00970147 
-2.71341 18.8824 -0.463949 0 0 1.5 0.0635154 -0.0149387 
-2.8259 18.7035 -0.735581 0 0 1.5 0.0646597 -0.0182956 
-2.93838 18.5247 -1.00721 0 0 1.5 0.0653221 -0.0223244 
-3.05087 18.3458 -1.27884 0 0 1.5 0.0654616 -0.0272358 
-3.16336 18.167 -1.55048 0 0 1.5 0.0640599 -0.0409369 
-3.27584 17.9881 -1.82211 0 0 1.5 0.0624758 -0.0506859 
-3.38833 17.8093 -2.09374 0 0 1.5 0.0602853 -0.0633602 
-3.50082 17.6304 -2.36537 0 0 1.5 0.0574982 -0.0801488 
-3.63816 17.4353 -2.61272 0 0 1.5 0.0502235 -0.135034 
-3.78074 17.2368 -2.85495 0 0 1.5 0.0458111 -0.181339 
-3.95618 17.0186 -3.05481 0 0 1.5 0.0409872 -0.250446 
-4.14688 16.7926 -3.22767 0 0 1.5 0.0307332 -0.530016 
-4.35841 16.5568 -3.36003 0 0 1.5 0.0259209 -0.802126 
-4.58903 16.3146 -3.44112 0 0 1.5 0.022192 -1.16675 
-4.83064 16.0722 -3.47608 0 0 1.5 0.020683 -1.41916 
-5.07612 15.8315 -3.48997 0 0 1.5 0.0268756 -0.912657 
-5.32304 15.5923 -3.50446 0 0 1.5 0.0334268 -0.604951 
-5.56856 15.3548 -3.54348 0 0 1.5 0.0411999 -0.403393 
-5.80652 15.1226 -3.62832 0 0 1.5 0.0497353 -0.276528 
-6.02769 14.9015 -3.76837 0 0 1.5 0.0680949 -0.140188 
-6.2256 14.6944 -3.95665 0 0 1.5 0.0775926 -0.102002 
-6.40021 14.4989 -4.17865 0 0 1.5 0.0871269 -0.074159 
-6.5532 14.3119 -4.42371 0 0 1.5 0.105806 -0.0373379 
-6.67985 14.1283 -4.68562 0 0 1.5 0.114695 -0.024705 
-6.79345 13.943 -4.9521 0 0 1.5 0.123098 -0.0143757 
-6.89204 13.7552 -5.22307 0 0 1.5 0.130871 -0.0058298 
-6.97091 13.5592 -5.49448 0 0 1.5 0.143982 0.00737318 
-7.0431 13.3602 -5.7657 0 0 1.5 0.149064 0.0127151 
-7.09243 13.1485 -6.03254 0 0 1.5 0.153017 0.0174675 
-7.1354 12.9332 -6.29722 0 0 1.5 0.15577 0.0217441 
-7.16063 12.7077 -6.5559 0 0 1.5 0.157543 0.0294402 
-7.17571 12.4769 -6.81036 0 0 1.5 0.156577 0.0330886 
-7.17705 12.2391 -7.05913 0 0 1.5 0.154452 0.0367272 
-7.16477 11.9962 -7.30217 0 0 1.5 0.147132 0.0443984 
-7.14224 11.7494 -7.54088 0 0 1.5 0.142178 0.0486999 
-7.10209 11.4988 -7.77304 0 0 1.5 0.136542 0.0535357 
-7.05514 11.2468 -8.00266 0 0 1.5 0.130363 0.0590839 
-6.98528 10.9941 -8.22537 0 0 1.5 0.116898 0.0732546 
-6.90984 10.7417 -8.44659 0 0 1.5 0.109864 0.082443 
-6.81058 10.4924 -8.66205 0 0 1.5 0.102792 0.0935544 
-6.70152 10.2458 -8.87548 0 0 1.5 0.0957953 0.107108 
-6.57521 10.0041 -9.08532 0 0 1.5 0.0825028 0.143573 
-6.43268 9.76904 -9.29194 0 0 1.5 0.0764898 0.167362 
-6.28118 9.53771 -9.49679 0 0 1.5 0.0711307 0.194867 
-6.11026 9.31693 -9.69787 0 0 1.5 0.0666509 0.224639 
-5.93493 9.09897 -9.89818 0 0 1.5 0.0614625 0.275387 
-5.74824 8.88874 -10.0966 0 0 1.5 0.0613556 0.28518 
-5.55807 8.68154 -10.2949 0 0 1.5 0.0632334 0.279219 
-5.3637 8.47801 -10.4929 0 0 1.5 0.0732902 0.230388 
-5.16821 8.27634 -10.6917 0 0 1.5 0.0814307 0.19915 
-4.97209 8.07573 -10.891 0 0 1.5 0.0915923 0.169592 
-4.77796 7.8745 -11.0916 0 0 1.5 0.103778 0.14375 
-4.58445 7.67309 -11.2927 0 0 1.5 0.134586 0.104297 
-4.39524 7.46817 -11.4942 0 0 1.5 0.153588 0.0898702 
-4.20691 7.26252 -11.6959 0 0 1.5 0.175367 0.0782571 
-4.02391 7.05016 -11.8954 0 0 1.5 0.200296 0.0688385 
-3.84175 6.83675 -12.0947 0 0 1.5 0.261361 0.0546982 
-3.66514 6.61253 -12.2869 0 0 1.5 0.298417 0.0493607 
-3.48915 6.38708 -12.4782 0 0 1.5 0.340339 0.0447931 
-3.31891 6.14418 -12.6527 0 0 1.5 0.438957 0.0370993 
-3.15019 5.8956 -12.8197 0 0 1.5 0.494469 0.0337908 
-2.98647 5.62842 -12.9619 0 0 1.5 0.551902 0.0306449 
-2.83003 5.34174 -13.0656 0 0 1.5 0.60807 0.0275231 
-2.68506 5.03805 -13.1192 0 0 1.5 0.697865 0.0213086 
-2.56467 4.72099 -13.0858 0 0 1.5 0.721108 0.0182819 
-2.4898 4.42155 -12.9365 0 0 1.5 0.724704 0.0154094 
-2.47198 4.18281 -12.6893 0 0 1.5 0.707925 0.0128174 
-2.49625 4.00711 -12.3963 0 0 1.5 0.625069 0.00888965 
-2.54365 3.86976 -12.0861 0 0 1.5 0.569017 0.00765566 
-2.60632 3.75854 -11.7666 0 0 1.5 0.509958 0.00687286 
-2.69135 3.68588 -11.4411 0 0 1.5 0.396701 0.00646271 
-2.78179 3.62176 -11.1157 0 0 1.5 0.346266 0.00680963 
-2.8829 3.57448 -10.7901 0 0 1.5 0.30087 0.00747992 
-2.99046 3.5357 -10.4657 0 0 1.5 0.260485 0.00845849 
-3.10253 3.50286 -10.142 0 0 1.5 0.193322 0.0116756 
-3.21934 3.4738 -9.8196 0 0 1.5 0.165578 0.01415 
-3.33721 3.44524 -9.49755 0 0 1.5 0.14107 0.0174458 
-3.45526 3.41273 -9.17594 0 0 1.5 0.119358 0.0219734 
-3.57126 3.37577 -8.85413 0 0 1.5 0.0828826 0.0378295 
-3.68396 3.33162 -8.53199 0 0 1.5 0.0675848 0.0522095 
-3.78948 3.27563 -8.20936 0 0 1.5 0.0540531 0.0752428 
-3.8909 3.21322 -7.88657 0 0 1.5 0.0423451 0.113489 
-3.98221 3.13647 -7.56378 0 0 1.5 0.0263964 0.25296 
-4.06751 3.05211 -7.24136 0 0 1.5 0.0243043 0.279184 
-4.14777 2.96141 -6.91924 0 0 1.5 0.026723 0.216752 
-4.21967 2.86075 -6.59813 0 0 1.5 0.038907 0.0917555 
-4.28903 2.75673 -6.27756 0 0 1.5 0.0462352 0.0624289 
-4.35422 2.64707 -5.95795 0 0 1.5 0.0536816 0.0450414 
-4.41624 2.53105 -5.63999 0 0 1.5 0.0610331 0.0344942 
-4.4767 2.41171 -5.32294 0 0 1.5 0.0750253 0.0241095 
-4.53333 2.28076 -5.00979 0 0 1.5 0.0815165 0.0218766 
-4.58813 2.14327 -4.69925 0 0 1.5 0.0875807 0.0208758 
-4.64 1.99539 -4.39287 0 0 1.5 0.0931612 0.0208412 
-4.68729 1.83245 -4.09367 0 0 1.5 0.102642 0.0231136 
-4.73241 1.6626 -3.79785 0 0 1.5 0.106427 0.0252692 
-4.76963 1.47121 -3.51429 0 0 1.5 0.109518 0.0280361 
-4.80325 1.27214 -3.23592 0 0 1.5 0.113514 0.0355403 
-4.83048 1.05945 -2.96676 0 0 1.5 0.114395 0.040327 
-4.85038 0.835029 -2.70692 0 0 1.5 0.114544 0.0458091 
-4.86637 0.60437 -2.45204 0 0 1.5 0.113993 0.0520719 
-4.87134 0.36104 -2.20882 0 0 1.5 0.110982 0.0672505 
-4.87339 0.115008 -1.96833 0 0 1.5 0.108655 0.076193 
-4.86483 -0.13962 -1.73699 0 0 1.5 0.105889 0.0861341 
-4.85161 -0.396969 -1.50906 0 0 1.5 0.102773 0.0971572 
-4.83033 -0.659032 -1.28704 0 0 1.5 0.0958807 0.122159 
-4.802 -0.924306 -1.06981 0 0 1.5 0.0922988 0.135941 
-4.76822 -1.19207 -0.856299 0 0 1.5 0.0887569 0.150365 
-4.72572 -1.46324 -0.648828 0 0 1.5 0.0853497 0.165049 
-4.68033 -1.73554 -0.443362 0 0 1.5 0.0792746 0.193031 
-4.62561 -2.01122 -0.244826 0 0 1.5 0.0767605 0.20489 
-4.56931 -2.28744 -0.0474642 0 0 1.5 0.0746844 0.214212 
-4.50594 -2.56587 0.144588 0 0 1.5 0.0720143 0.222341 
-4.44079 -2.84461 0.335566 0 0 1.5 0.0714686 0.220112 
-4.37133 -3.12409 0.523965 0 0 1.5 0.0714548 0.213734 
-4.29937 -3.40311 0.712077 0 0 1.5 0.0719505 0.203821 
-4.22469 -3.68164 0.899878 0 0 1.5 0.0743165 0.176228 
-4.14582 -3.95783 1.08937 0 0 1.5 0.0760889 0.160437 
-4.06499 -4.23294 1.27966 0 0 1.5 0.0781774 0.144664 
-3.97578 -4.50241 1.47418 0 0 1.5 0.0805221 0.129413 
-3.88333 -4.76977 1.67001 0 0 1.5 0.0857475 0.101845 
-3.77867 -5.0293 1.87031 0 0 1.5 0.088517 0.0901276 
-3.66438 -5.28309 2.07228 0 0 1.5 0.0913209 0.0798388 
-3.53859 -5.53007 2.27625 0 0 1.5 0.0968342 0.0633693 
-3.39153 -5.76487 2.47998 0 0 1.5 0.0994531 0.0572212 
-3.23453 -5.99395 2.68284 0 0 1.5 0.101925 0.0523533 
-3.05151 -6.20791 2.8807 0 0 1.5 0.104211 0.048671 
-2.85427 -6.41316 3.07325 0 0 1.5 0.108088 0.0445182 
-2.64225 -6.60934 3.26029 0 0 1.5 0.109625 0.0439241 
-2.41013 -6.79235 3.43607 0 0 1.5 0.110862 0.0442783 
-2.17156 -6.97105 3.60784 0 0 1.5 0.111782 0.0454514 
-1.91648 -7.13818 3.76729 0 0 1.5 0.112633 0.0499205 
-1.65667 -7.30175 3.92244 0 0 1.5 0.112555 0.0532703 
-1.38826 -7.45887 4.06974 0 0 1.5 0.112142 0.0572359 
-1.11462 -7.61161 4.21171 0 0 1.5 0.110354 0.0666559 
-0.836738 -7.7608 4.34937 0 0 1.5 0.109007 0.0722316 
-0.553667 -7.90467 4.48189 0 0 1.5 0.10738 0.0782782 
-0.268541 -8.04645 4.61238 0 0 1.5 0.105495 0.0846611 
0.0220869 -8.18074 4.73851 0 0 1.5 0.101039 0.0987364 
0.313659 -8.31372 4.86391 0 0 1.5 0.0985139 0.106443 
0.611342 -8.4358 4.986 0 0 1.5 0.0958245 0.11449 
0.910115 -8.55537 5.10777 0 0 1.5 0.0929951 0.122957 
1.21402 -8.66308 5.22804 0 0 1.5 0.0870101 0.141446 
1.51996 -8.76451 5.34827 0 0 1.5 0.0838963 0.151538 
1.82959 -8.85464 5.46842 0 0 1.5 0.0807262 0.162349 
2.1417 -8.93345 5.58964 0 0 1.5 0.0775161 0.174047 
2.45575 -9.00344 5.71169 0 0 1.5 0.0710426 0.200709 
2.77163 -9.0566 5.83714 0 0 1.5 0.0678174 0.21603 
3.088 -9.10464 5.96368 0 0 1.5 0.064625 0.232995 
3.40414 -9.13208 6.09682 0 0 1.5 0.0584258 0.273158 
3.71954 -9.15428 6.23234 0 0 1.5 0.0554754 0.296815 
4.03294 -9.1624 6.37425 0 0 1.5 0.0526672 0.322996 
4.34394 -9.16207 6.52125 0 0 1.5 0.0500392 0.351632 
4.6527 -9.15388 6.673 0 0 1.5 0.0455258 0.413351 
4.9572 -9.13619 6.83218 0 0 1.5 0.0437518 0.44339 
5.26034 -9.11547 6.99373 0 0 1.5 0.0423752 0.469785 
5.55799 -9.08695 7.16406 0 0 1.5 0.0414533 0.489465 
5.85458 -9.05767 7.33608 0 0 1.5 0.0411322 0.498687 
6.1473 -9.02577 7.51419 0 0 1.5 0.0417566 0.486599 
6.4383 -8.99444 7.69514 0 0 1.5 0.0428844 0.464819 
6.72689 -8.96393 7.88011 0 0 1.5 0.0464669 0.403511 
7.01304 -8.93693 8.06929 0 0 1.5 0.048797 0.36981 
7.29767 -8.91212 8.2611 0 0 1.5 0.051401 0.336819 
7.57852 -8.89535 8.4592 0 0 1.5 0.0542174 0.305701 
7.85838 -8.88069 8.6589 0 0 1.5 0.0602542 0.251157 
8.13218 -8.87943 8.86736 0 0 1.5 0.0633706 0.227847 
8.40403 -8.88229 9.07815 0 0 1.5 0.0664913 0.20695 
8.66963 -8.89825 9.29638 0 0 1.5 0.0695741 0.188214 
8.93051 -8.92364 9.51904 0 0 1.5 0.0754848 0.156088 
9.18596 -8.95984 9.74676 0 0 1.5 0.0782599 0.142073 
9.43347 -9.01189 9.97981 0 0 1.5 0.0808839 0.129068 
9.67759 -9.07067 10.2151 0 0 1.5 0.0856074 0.105583 
9.91099 -9.15174 10.4546 0 0 1.5 0.0876861 0.0947526 
10.1419 -9.23839 10.6944 0 0 1.5 0.0895666 0.0842789 
10.3645 -9.34427 10.9345 0 0 1.5 0.0912457 0.0741487 
10.5839 -9.4591 11.1732 0 0 1.5 0.0940175 0.0547008 
10.7986 -9.5869 11.4098 0 0 1.5 0.0951266 0.0450914 
11.0101 -9.72679 11.6423 0 0 1.5 0.0960661 0.0355923 
11.2195 -9.874 11.8722 0 0 1.5 0.0968521 0.0262838 
11.4268 -10.0346 12.095 0 0 1.5 0.0980372 0.00782313 
11.6335 -10.1981 12.3163 0 0 1.5 0.0984767 -0.00126484 
11.8392 -10.3748 12.5282 0 0 1.5 0.098842 -0.0100406 
12.0448 -10.5533 12.7385 0 0 1.5 0.0991537 -0.0185583 
12.2501 -10.7408 12.9413 0 0 1.5 0.0996969 -0.0347662 
12.455 -10.9314 13.1415 0 0 1.5 0.0999627 -0.0421062 
12.6592 -11.1282 13.3364 0 0 1.5 0.100242 -0.0488909 
12.8618 -11.3294 13.5284 0 0 1.5 0.100879 -0.0607108 
13.0628 -11.5353 13.7172 0 0 1.5 0.101242 -0.0655432 
13.2596 -11.7476 13.9032 0 0 1.5 0.101629 -0.0696452 
13.4539 -11.9634 14.0878 0 0 1.5 0.102031 -0.0730418 
13.6389 -12.1888 14.2704 0 0 1.5 0.102821 -0.0775744 
13.8215 -12.4165 14.4526 0 0 1.5 0.103168 -0.0787242 
13.9873 -12.6576 14.6339 0 0 1.5 0.103451 -0.0791922 
14.1475 -12.9021 14.8151 0 0 1.5 0.10364 -0.0790822 
14.2901 -13.1578 14.9959 0 0 1.5 0.103623 -0.0774554 
14.4185 -13.4207 15.1764 0 0 1.5 0.103358 -0.0760115 
14.5323 -13.691 15.3565 0 0 1.5 0.102882 -0.0742939 
14.6217 -13.9708 15.535 0 0 1.5 0.101213 -0.0703891 
14.7024 -14.254 15.7131 0 0 1.5 0.0999819 -0.0682043 
14.7502 -14.5465 15.888 0 0 1.5 0.0984667 -0.0659862 
14.7895 -14.8406 16.0617 0 0 1.5 0.0966642 -0.0638409 
14.8049 -15.1391 16.2321 0 0 1.5 0.0922057 -0.0596595 
14.8064 -15.4391 16.4002 0 0 1.5 0.0895614 -0.0577005 
14.7924 -15.7405 16.5656 0 0 1.5 0.0866614 -0.0559641 
14.7621 -16.0422 16.7278 0 0 1.5 0.0835277 -0.0544149 
14.7223 -16.3442 16.8881 0 0 1.5 0.0766529 -0.0518371 
14.6663 -16.6452 17.0448 0 0 1.5 0.0729647 -0.0509442 
14.6043 -16.9459 17.2001 0 0 1.5 0.0691483 -0.0503192 
14.5422 -17.2466 17.3555 0 0 1.5 0.0652321 -0.0499433 
14.4802 -17.5473 17.5109 0 0 1.5 0.0572122 -0.0502233 
14.4181 -17.8481 17.6663 0 0 1.5 0.0531646 -0.050985 
14.3561 -18.1488 17.8217 0 0 1.5 0.0491273 -0.0521946 
14.2941 -18.4495 17.9771 0 0 1.5 0.0411801 -0.0566001 
14.232 -18.7502 18.1325 0 0 1.5 0.0373132 -0.0601849 
14.17 -19.0509 18.2879 0 0 1.5 0.033545 -0.0649923 
14.108 -19.3516 18.4433 0 0 1.5 0.0298944 -0.0714665 
14.0459 -19.6524 18.5987 0 0 1.5 0.0230042 -0.0925414 
13.9839 -19.9531 18.7541 0 0 1.5 0.0197936 -0.109697 
13.9219 -20.2538 18.9094 0 0 1.5 0.0167597 -0.134575 
13.8598 -20.5545 19.0648 0 0 1.5 0.013915 -0.17229 
13.7978 -20.8552 19.2202 0 0 1.5 0.00887011 -0.333209 
13.7357 -21.1559 19.3756 0 0 1.5 0.00674321 -0.513414 
13.6737 -21.4567 19.531 0 0 1.5 0.00498689 -0.839472 
13.6117 -21.7574 19.6864 0 0 1.5 0.00343827 -1.42607 
13.5496 -22.0581 19.8418 0 0 1.5 0.00388098 -1.01044 
13.4876 -22.3588 19.9972 0 0 1.5 0.00472374 -0.61862 
13.4256 -22.6595 20.1526 0 0 1.5 0.00565968 -0.392311 
13.3635 -22.9602 20.308 0 0 1.5 0.00734258 -0.194536 
13.3015 -23.261 20.4633 0 0 1.5 0.00801148 -0.14994 
13.2395 -23.5617 20.6187 0 0 1.5 0.00855064 -0.121005 
13.1774 -23.8624 20.7741 0 0 1.5 0.0089593 -0.101344 
13.1154 -24.1631 20.9295 0 0 1.5 0.00940033 -0.0781292 
13.0533 -24.4638 21.0849 0 0 1.5 0.00944699 -0.0713809 
12.9913 -24.7645 21.2403 0 0 1.5 0.00938913 -0.0665968 
12.9293 -25.0652 21.3957 0 0 1.5 0.00899739 -0.0616581 
12.8672 -25.366 21.5511 0 0 1.5 0.00868322 -0.0610881 
12.8052 -25.6667 21.7065 0 0 1.5 0.0083038 -0.0615406 
12.7432 -25.9674 21.8619 0 0 1.5 0.00786931 -0.0631028 
12.6811 -26.2681 22.0172 0 0 1.5 0.00687165 -0.0703797 
12.6191 -26.5688 22.1726 0 0 1.5 0.00632668 -0.076479 
12.5571 -26.8695 22.328 0 0 1.5 0.00576289 -0.0849202 
12.495 -27.1703 22.4834 0 0 1.5 0.00518766 -0.0967551 
12.433 -27.471 22.6388 0 0 1.5 0.00403212 -0.13686 
12.3709 -27.7717 22.7942 0 0 1.5 0.00346707 -0.171367 
12.3089 -28.0724 22.9496 0 0 1.5 0.00292007 -0.224394 
12.2469 -28.3731 23.105 0 0 1.5 0.00239976 -0.309373 
12.1848 -28.6738 23.2604 0 0 1.5 0.00149863 -0.691796 
12.1228 -28.9746 23.4158 0 0 1.5 0.00117694 -1.05389 
12.0608 -29.2753 23.5711 0 0 1.5 0.00101558 -1.33491 
11.9987 -29.576 23.7265 0 0 1.5 0.00125054 -0.78958 
11.9367 -29.8767 23.8819 0 0 1.5 0.00152037 -0.508427 
11.8747 -30.1774 24.0373 0 0 1.5 0.00181501 -0.340395 
11.8126 -30.4781 24.1927 0 0 1.5 0.0021103 -0.240539 
11.7506 -30.7788 24.3481 0 0 1.5 0.00266388 -0.138515 
11.6885 -31.0796 24.5035 0 0 1.5 0.00291526 -0.111022 
11.6265 -31.3803 24.6589 0 0 1.5 0.00314839 -0.0913339 
11.5645 -31.681 24.8143 0 0 1.5 0.00336341 -0.0767824 
11.5024 -31.9817 24.9697 0 0 1.5 0.0037425 -0.0571378 
11.4404 -32.2824 25.125 0 0 1.5 0.00390888 -0.0501864 
11.3784 -32.5831 25.2804 0 0 1.5 0.00406156 -0.0444967 
11.3163 -32.8839 25.4358 0 0 1.5 0.0043309 -0.0358416 
11.2543 -33.1846 25.5912 0 0 1.5 0.00445017 -0.0324314 
11.1923 -33.4853 25.7466 0 0 1.5 0.00456091 -0.0294858 
11.1302 -33.786 25.902 0 0 1.5 0.00466415 -0.0269538 
11.0682 -34.0867 26.0574 0 0 1.5 0.00485201 -0.0228195 
11.0061 -34.3874 26.2128 0 0 1.5 0.00493856 -0.0211302 
10.9441 -34.6882 26.3682 0 0 1.5 0.00502119 -0.0196747 
10.8821 -34.9889 26.5236 0 0 1.5 0.00510051 -0.018421 
10.82 -35.2896 26.6789 0 0 1.5 0.00525177 -0.0164259 
10.758 -35.5903 26.8343 0 0 1.5 0.00532479 -0.0156605 
10.696 -35.891 26.9897 0 0 1.5 0.00539669 -0.0150314 
0 1 0 
1 2 0 
2 3 0 
3 4 0 
4 5 0 
5 6 0 
6 7 0 
7 8 0 
8 9 0 
9 10 0 
10 11 0 
11 12 0 
12 13 0 
13 14 0 
14 15 0 
15 16 0 
16 17 0 
17 18 0 
18 19 0 
19 20 0 
20 21 0 
21 22 0 
22 23 0 
23 24 0 
24 25 0 
25 26 0 
26 27 0 
27 28 0 
28 29 0 
29 30 0 
30 31 0 
31 32 0 
32 33 0 
33 34 0 
34 35 0 
35 36 0 
36 37 0 
37 38 0 
38 39 0 
39 40 0 
40 41 0 
41 42 0 
42 43 0 
43 44 0 
44 45 0 
45 46 0 
46 47 0 
47 48 0 
48 49 0 
49 50 0 
50 51 0 
51 52 0 
52 53 0 
53 54 0 
54 55 0 
55 56 0 
56 57 0 
57 58 0 
58 59 0 
59 60 0 
60 61 0 
61 62 0 
62 63 0 
63 64 0 
64 65 0 
65 66 0 
66 67 0 
67 68 0 
68 69 0 
69 70 0 
70 71 0 
71 72 0 
72 73 0 
73 74 0 
74 75 0 
75 76 0 
76 77 0 
77 78 0 
78 79 0 
79 80 0 
80 81 0 
81 82 0 
82 83 0 
83 84 0 
84 85 0 
85 86 0 
86 87 0 
87 88 0 
88 89 0 
89 90 0 
90 91 0 
91 92 0 
92 93 0 
93 94 0 
94 95 0 
95 96 0 
96 97 0 
97 98 0 
98 99 0 
99 100 0 
100 101 0 
101 102 0 
102 103 0 
103 104 0 
104 105 0 
105 106 0 
106 107 0 
107 108 0 
108 109 0 
109 110 0 
110 111 0 
111 112 0 
112 113 0 
113 114 0 
114 115 0 
115 116 0 
116 117 0 
117 118 0 
118 119 0 
119 120 0 
120 121 0 
121 122 0 
122 123 0 
123 124 0 
124 125 0 
125 126 0 
126 127 0 
127 128 0 
128 129 0 
129 130 0 
130 131 0 
131 132 0 
132 133 0 
133 134 0 
134 135 0 
135 136 0 
136 137 0 
137 138 0 
138 139 0 
139 140 0 
140 141 0 
141 142 0 
142 143 0 
143 144 0 
144 145 0 
145 146 0 
146 147 0 
147 148 0 
148 149 0 
149 150 0 
150 151 0 
151 152 0 
152 153 0 
153 154 0 
154 155 0 
155 156 0 
156 157 0 
157 158 0 
158 159 0 
159 160 0 
160 161 0 
161 162 0 
162 163 0 
163 164 0 
164 165 0 
165 166 0 
166 167 0 
167 168 0 
168 169 0 
169 170 0 
170 171 0 
171 172 0 
172 173 0 
173 174 0 
174 175 0 
175 176 0 
176 177 0 
177 178 0 
178 179 0 
179 180 0 
180 181 0 
181 182 0 
182 183 0 
183 184 0 
184 185 0 
185 186 0 
186 187 0 
187 188 0 
188 189 0 
189 190 0 
190 191 0 
191 192 0 
192 193 0 
193 194 0 
194 195 0 
195 196 0 
196 197 0 
197 198 0 
198 199 0 
199 200 0 
200 201 0 
201 202 0 
202 203 0 
203 204 0 
204 205 0 
205 206 0 
206 207 0 
207 208 0 
208 209 0 
209 210 0 
210 211 0 
211 212 0 
212 213 0 
213 214 0 
214 215 0 
215 216 0 
216 217 0 
217 218 0 
218 219 0 
219 220 0 
220 221 0 
221 222 0 
222 223 0 
223 224 0 
224 225 0 
225 226 0 
226 227 0 
227 228 0 
228 229 0 
229 230 0 
230 231 0 
231 232 0 
232 233 0 
233 234 0 
234 235 0 
235 236 0 
236 237 0 
237 238 0 
238 239 0 
239 240 0 
240 241 0 
241 242 0 
242 243 0 
243 244 0 
244 245 0 
245 246 0 
246 247 0 
247 248 0 
248 249 0 
249 250 0 
250 251 0 
251 252 0 
252 253 0 
253 254 0 
254 255 0 
255 256 0 
256 257 0 
257 258 0 
258 259 0 
259 260 0 
260 261 0 
261 262 0 
262 263 0 
263 264 0 
264 265 0 
265 266 0 
266 267 0 
267 268 0 
268 269 0 
269 270 0 
270 271 0 
271 272 0 
272 273 0 
273 274 0 
274 275 0 
275 276 0 
276 277 0 
277 278 0 
278 279 0 
279 280 0 
280 281 0 
281 282 0 
282 283 0 
283 284 0 
284 285 0 
285 286 0 
286 287 0 
287 288 0 
288 289 0 
289 290 0 
290 291 0 
291 292 0 
292 293 0 
293 294 0 
294 295 0 
295 296 0 
296 297 0 
297 298 0 
298 299 0 
-1 -1 0 
-1 300 0 1 2 3 4 5 6 7 8 9 10 11 12 13 14 15 16 17 18 19 20 21 22 23 24 25 26 27 28 29 30 31 32 33 34 35 36 37 38 39 40 41 42 43 44 45 46 47 48 49 50 51 52 53 54 55 56 57 58 59 60 61 62 63 64 65 66 67 68 69 70 71 72 73 74 75 76 77 78 79 80 81 82 83 84 85 86 87 88 89 90 91 92 93 94 95 96 97 98 99 100 101 102 103 104 105 106 107 108 109 110 111 112 113 114 115 116 117 118 119 120 121 122 123 124 125 126 127 128 129 130 131 132 133 134 135 136 137 138 139 140 141 142 143 144 145 146 147 148 149 150 151 152 153 154 155 156 157 158 159 160 161 162 163 164 165 166 167 168 169 170 171 172 173 174 175 176 177 178 179 180 181 182 183 184 185 186 187 188 189 190 191 192 193 194 195 196 197 198 199 200 201 202 203 204 205 206 207 208 209 210 211 212 213 214 215 216 217 218 219 220 221 222 223 224 225 226 227 228 229 230 231 232 233 234 235 236 237 238 239 240 241 242 243 244 245 246 247 248 249 250 251 252 253 254 255 256 257 258 259 260 261 262 263 264 265 266 267 268 269 270 271 272 273 274 275 276 277 278 279 280 281 282 283 284 285 286 287 288 289 290 291 292 293 294 295 296 297 298 299 
