ply
format ascii 1.0
comment written by koba@oshima.lab
element vertex 300
property float x
property float y
property float z
property int label
property int attribute
property float radius
property float curvature
property float torsion
element edge 300
property int vertex1
property int vertex2
property int label
element vertex_seq 1
property int label
property list int int vertex_indices
end_header
-5.04733 9.93693 -19.6531 0 0 1.5 0.0663063 -0.00810332 
-5.03371 10.1577 -19.4108 0 0 1.5 0.0646914 -0.00821848 
-5.02008 10.3784 -19.1686 0 0 1.5 0.063106 -0.00854008 
-5.00646 10.5992 -18.9263 0 0 1.5 0.0615437 -0.00906319 
-4.99283 10.82 -18.684 0 0 1.5 0.058466 -0.0107047 
-4.97921 11.0407 -18.4417 0 0 1.5 0.0569343 -0.0118321 
-4.96558 11.2615 -18.1995 0 0 1.5 0.0553942 -0.0131758 
-4.95195 11.4822 -17.9572 0 0 1.5 0.0538369 -0.0147502 
-4.93833 11.703 -17.7149 0 0 1.5 0.0506252 -0.0185982 
-4.9247 11.9238 -17.4726 0 0 1.5 0.0489379 -0.0209512 
-4.91108 12.1445 -17.2304 0 0 1.5 0.0471764 -0.023694 
-4.89745 12.3653 -16.9881 0 0 1.5 0.0453263 -0.0268805 
-4.88383 12.586 -16.7458 0 0 1.5 0.0412795 -0.0351723 
-4.8702 12.8068 -16.5035 0 0 1.5 0.0390461 -0.0408824 
-4.85658 13.0275 -16.2613 0 0 1.5 0.0366523 -0.0481832 
-4.84295 13.2483 -16.019 0 0 1.5 0.0313251 -0.07104 
-4.82932 13.4691 -15.7767 0 0 1.5 0.028376 -0.0901806 
-4.8157 13.6898 -15.5344 0 0 1.5 0.0252451 -0.119027 
-4.80207 13.9106 -15.2922 0 0 1.5 0.0219706 -0.164724 
-4.78845 14.1313 -15.0499 0 0 1.5 0.0154998 -0.370817 
-4.77482 14.3521 -14.8076 0 0 1.5 0.0130492 -0.560058 
-4.7612 14.5728 -14.5654 0 0 1.5 0.0122586 -0.684285 
-4.74757 14.7936 -14.3231 0 0 1.5 0.0139753 -0.572969 
-4.73395 15.0144 -14.0808 0 0 1.5 0.023662 -0.244553 
-4.72032 15.2351 -13.8385 0 0 1.5 0.0305281 -0.165138 
-4.70669 15.4559 -13.5963 0 0 1.5 0.038433 -0.118579 
-4.69307 15.6766 -13.354 0 0 1.5 0.0573658 -0.0717052 
-4.67944 15.8974 -13.1117 0 0 1.5 0.068545 -0.0592483 
-4.66582 16.1182 -12.8694 0 0 1.5 0.0810251 -0.0506386 
-4.65219 16.3389 -12.6272 0 0 1.5 0.0949793 -0.0446245 
-4.63857 16.5597 -12.3849 0 0 1.5 0.128179 -0.0371312 
-4.62494 16.7804 -12.1426 0 0 1.5 0.147924 -0.0348936 
-4.61131 17.0012 -11.9003 0 0 1.5 0.170164 -0.0334323 
-4.59769 17.2219 -11.6581 0 0 1.5 0.195241 -0.0325074 
-4.58406 17.4427 -11.4158 0 0 1.5 0.255244 -0.0317608 
-4.57044 17.6635 -11.1735 0 0 1.5 0.290743 -0.0319306 
-4.55681 17.8842 -10.9312 0 0 1.5 0.330094 -0.0322804 
-4.54319 18.105 -10.689 0 0 1.5 0.373129 -0.0326207 
-4.52956 18.3257 -10.4467 0 0 1.5 0.467205 -0.0330961 
-4.5174 18.5409 -10.2006 0 0 1.5 0.515006 -0.0329193 
-4.52406 18.6849 -9.90595 0 0 1.5 0.559892 -0.032077 
-4.54836 18.7623 -9.59755 0 0 1.5 0.627072 -0.0277666 
-4.60431 18.7183 -9.28678 0 0 1.5 0.642639 -0.0240205 
-4.69361 18.5431 -9.02717 0 0 1.5 0.643447 -0.0190994 
-4.80446 18.2912 -8.8486 0 0 1.5 0.629608 -0.0131283 
-4.92826 18.0156 -8.72458 0 0 1.5 0.566706 0.00111511 
-5.05995 17.732 -8.62764 0 0 1.5 0.524402 0.00887042 
-5.20282 17.4439 -8.56287 0 0 1.5 0.47945 0.0169693 
-5.3565 17.1582 -8.51719 0 0 1.5 0.434516 0.0255014 
-5.51651 16.8739 -8.48267 0 0 1.5 0.351475 0.0433241 
-5.69201 16.5975 -8.46487 0 0 1.5 0.315151 0.0528438 
-5.87079 16.3229 -8.45015 0 0 1.5 0.2827 0.0631809 
-6.06554 16.0589 -8.4451 0 0 1.5 0.22914 0.0859232 
-6.2634 15.7974 -8.44068 0 0 1.5 0.207626 0.0983376 
-6.472 15.5442 -8.43842 0 0 1.5 0.189304 0.111518 
-6.6841 15.2941 -8.43517 0 0 1.5 0.173937 0.125011 
-6.9014 15.0484 -8.43042 0 0 1.5 0.151152 0.150524 
-7.11974 14.8037 -8.42291 0 0 1.5 0.143311 0.1615 
-7.33876 14.5596 -8.41356 0 0 1.5 0.137563 0.170512 
-7.55195 14.3106 -8.40179 0 0 1.5 0.133686 0.177203 
-7.76156 14.0586 -8.38999 0 0 1.5 0.130618 0.184233 
-7.95639 13.7949 -8.38069 0 0 1.5 0.130962 0.185634 
-8.13594 13.521 -8.37763 0 0 1.5 0.132282 0.186513 
-8.30106 13.2375 -8.38046 0 0 1.5 0.137183 0.189037 
-8.42494 12.935 -8.40501 0 0 1.5 0.140487 0.191727 
-8.52315 12.626 -8.44409 0 0 1.5 0.144245 0.195811 
-8.59075 12.31 -8.50061 0 0 1.5 0.148417 0.201544 
-8.60602 11.9943 -8.58661 0 0 1.5 0.157987 0.21854 
-8.59927 11.6824 -8.68425 0 0 1.5 0.16351 0.229192 
-8.55907 11.3778 -8.79924 0 0 1.5 0.169696 0.240932 
-8.49241 11.0833 -8.92556 0 0 1.5 0.176704 0.253543 
-8.41201 10.7941 -9.05778 0 0 1.5 0.193973 0.278292 
-8.306 10.5167 -9.19666 0 0 1.5 0.204684 0.289058 
-8.19539 10.2415 -9.33673 0 0 1.5 0.217052 0.298281 
-8.06378 9.9753 -9.47606 0 0 1.5 0.23124 0.305474 
-7.93045 9.70989 -9.61533 0 0 1.5 0.265387 0.312624 
-7.78053 9.449 -9.74591 0 0 1.5 0.285205 0.312836 
-7.6294 9.18845 -9.87587 0 0 1.5 0.306485 0.311215 
-7.46442 8.92816 -9.98818 0 0 1.5 0.351085 0.303422 
-7.29836 8.66786 -10.099 0 0 1.5 0.372579 0.297472 
-7.11961 8.40464 -10.1788 0 0 1.5 0.391905 0.29074 
-6.93851 8.1407 -10.2475 0 0 1.5 0.407695 0.283629 
-6.74953 7.87436 -10.2786 0 0 1.5 0.423443 0.268123 
-6.55822 7.61071 -10.2622 0 0 1.5 0.42145 0.260731 
-6.36947 7.35596 -10.192 0 0 1.5 0.412494 0.254749 
-6.19405 7.1254 -10.0421 0 0 1.5 0.397039 0.250458 
-6.05676 6.95093 -9.80058 0 0 1.5 0.350626 0.24954 
-5.97501 6.85025 -9.50038 0 0 1.5 0.322348 0.255029 
-5.93428 6.79942 -9.18099 0 0 1.5 0.292555 0.265737 
-5.9209 6.77866 -8.8548 0 0 1.5 0.232937 0.308681 
-5.92974 6.78 -8.52687 0 0 1.5 0.204914 0.344828 
-5.95824 6.79215 -8.20038 0 0 1.5 0.179021 0.393349 
-5.99253 6.80308 -7.87437 0 0 1.5 0.155795 0.455618 
-6.03413 6.80837 -7.54901 0 0 1.5 0.119275 0.611599 
-6.07527 6.79355 -7.22413 0 0 1.5 0.106927 0.680546 
-6.11365 6.76222 -6.90041 0 0 1.5 0.098982 0.711661 
-6.14112 6.6932 -6.58088 0 0 1.5 0.0953757 0.687442 
-6.14844 6.57928 -6.27482 0 0 1.5 0.0986206 0.51408 
-6.13558 6.42767 -5.98674 0 0 1.5 0.10354 0.411623 
-6.09945 6.23711 -5.72216 0 0 1.5 0.109394 0.321532 
-6.02832 6.00094 -5.50595 0 0 1.5 0.121259 0.189897 
-5.94247 5.7491 -5.31627 0 0 1.5 0.126371 0.14269 
-5.84508 5.485 -5.14803 0 0 1.5 0.130534 0.105094 
-5.7354 5.20781 -5.0111 0 0 1.5 0.133592 0.0756158 
-5.62512 4.92714 -4.88234 0 0 1.5 0.136089 0.0323064 
-5.51408 4.64214 -4.76376 0 0 1.5 0.135486 0.0162686 
-5.41045 4.35289 -4.64894 0 0 1.5 0.133702 0.00355993 
-5.31041 4.06209 -4.53485 0 0 1.5 0.130821 -0.00644361 
-5.22895 3.7676 -4.41546 0 0 1.5 0.122193 -0.0195831 
-5.15815 3.47263 -4.29148 0 0 1.5 0.116692 -0.0226892 
-5.10529 3.17685 -4.15981 0 0 1.5 0.110578 -0.0232811 
-5.07535 2.88276 -4.01856 0 0 1.5 0.103981 -0.0209817 
-5.05595 2.58947 -3.87291 0 0 1.5 0.0897986 -0.00729865 
-5.06862 2.30154 -3.71621 0 0 1.5 0.0824164 0.00545735 
-5.08927 2.01539 -3.55764 0 0 1.5 0.0749599 0.0242624 
-5.12817 1.73327 -3.39481 0 0 1.5 0.0601301 0.0866264 
-5.17714 1.45319 -3.23143 0 0 1.5 0.0528969 0.137693 
-5.23362 1.17463 -3.06764 0 0 1.5 0.0459034 0.212108 
-5.29687 0.896102 -2.9063 0 0 1.5 0.0392847 0.321252 
-5.3617 0.617497 -2.74571 0 0 1.5 0.0281169 0.69999 
-5.42615 0.33569 -2.59063 0 0 1.5 0.0244527 0.945099 
-5.48861 0.052583 -2.43721 0 0 1.5 0.0229196 1.0786 
-5.54477 -0.234653 -2.28903 0 0 1.5 0.0238785 0.980547 
-5.59406 -0.524603 -2.14398 0 0 1.5 0.0316573 0.52106 
-5.6352 -0.817773 -2.00264 0 0 1.5 0.0371987 0.358108 
-5.66241 -1.11422 -1.86519 0 0 1.5 0.043258 0.248939 
-5.68331 -1.41216 -1.7295 0 0 1.5 0.056099 0.127541 
-5.68225 -1.71238 -1.5974 0 0 1.5 0.0626455 0.09398 
-5.67506 -2.01268 -1.46591 0 0 1.5 0.0691814 0.0705523 
-5.64765 -2.31264 -1.33596 0 0 1.5 0.0756571 0.0539729 
-5.60986 -2.61128 -1.20611 0 0 1.5 0.0882557 0.0337622 
-5.55852 -2.9082 -1.07642 0 0 1.5 0.0943077 0.0278416 
-5.49252 -3.20182 -0.946252 0 0 1.5 0.100155 0.0238104 
-5.41951 -3.49385 -0.815865 0 0 1.5 0.105767 0.0212658 
-5.32935 -3.78057 -0.684545 0 0 1.5 0.116179 0.0191714 
-5.23546 -4.066 -0.553023 0 0 1.5 0.120939 0.0192176 
-5.12686 -4.34585 -0.420713 0 0 1.5 0.125376 0.0198778 
-5.01346 -4.62364 -0.288314 0 0 1.5 0.129475 0.0209749 
-4.88951 -4.8969 -0.155718 0 0 1.5 0.136618 0.0240275 
-4.75781 -5.16644 -0.0232461 0 0 1.5 0.139646 0.0259758 
-4.61849 -5.43231 0.109103 0 0 1.5 0.142307 0.0280924 
-4.46744 -5.69181 0.240948 0 0 1.5 0.146526 0.0325335 
-4.3113 -5.94855 0.372575 0 0 1.5 0.148089 0.0348924 
-4.13785 -6.19442 0.503098 0 0 1.5 0.149291 0.0372713 
-3.95963 -6.43693 0.633294 0 0 1.5 0.15014 0.0395929 
-3.76273 -6.66549 0.762165 0 0 1.5 0.150808 0.0441456 
-3.55658 -6.88565 0.890272 0 0 1.5 0.150642 0.046355 
-3.33635 -7.09302 1.01722 0 0 1.5 0.15016 0.0484532 
-3.10035 -7.28263 1.14251 0 0 1.5 0.149379 0.0504502 
-2.85691 -7.46388 1.26703 0 0 1.5 0.146978 0.0541668 
-2.59305 -7.61586 1.38896 0 0 1.5 0.145387 0.0558628 
-2.32406 -7.75845 1.5101 0 0 1.5 0.143557 0.0574498 
-2.04303 -7.87854 1.62933 0 0 1.5 0.139233 0.0603154 
-1.75517 -7.98128 1.74739 0 0 1.5 0.136771 0.0615756 
-1.4622 -8.07102 1.86456 0 0 1.5 0.134135 0.0626978 
-1.1629 -8.13742 1.98082 0 0 1.5 0.131341 0.0636651 
-0.862059 -8.19728 2.09693 0 0 1.5 0.125337 0.0652848 
-0.55768 -8.23548 2.21316 0 0 1.5 0.122157 0.0659432 
-0.252886 -8.26737 2.32984 0 0 1.5 0.118873 0.0664634 
0.0527946 -8.28578 2.44747 0 0 1.5 0.115496 0.0669226 
0.358239 -8.29576 2.56645 0 0 1.5 0.108484 0.0679001 
0.663474 -8.29828 2.68663 0 0 1.5 0.10486 0.0683845 
0.96761 -8.29162 2.80926 0 0 1.5 0.101162 0.0690016 
1.27135 -8.28161 2.9328 0 0 1.5 0.0935427 0.0711968 
1.5731 -8.26233 3.06001 0 0 1.5 0.0896211 0.0728601 
1.87438 -8.24124 3.18803 0 0 1.5 0.0856264 0.0751593 
2.17353 -8.21272 3.3196 0 0 1.5 0.0815563 0.0784118 
2.47179 -8.18139 3.45247 0 0 1.5 0.0731938 0.0886554 
2.76832 -8.14462 3.58789 0 0 1.5 0.0689103 0.0963992 
3.06336 -8.10295 3.72502 0 0 1.5 0.0645672 0.106718 
3.35721 -8.05732 3.86354 0 0 1.5 0.0601754 0.120366 
3.64899 -8.00402 4.00362 0 0 1.5 0.0513155 0.16227 
3.94016 -7.94846 4.14414 0 0 1.5 0.0468969 0.194115 
4.22876 -7.88233 4.28541 0 0 1.5 0.0425338 0.236899 
4.5168 -7.81374 4.42655 0 0 1.5 0.0382822 0.294685 
4.80309 -7.73726 4.56729 0 0 1.5 0.0304851 0.473876 
5.08855 -7.65662 4.70731 0 0 1.5 0.0272423 0.59929 
5.3731 -7.57138 4.84654 0 0 1.5 0.0247453 0.733143 
5.65707 -7.4823 4.9845 0 0 1.5 0.0231384 0.849303 
5.94081 -7.39167 5.12195 0 0 1.5 0.0243658 0.768072 
6.22475 -7.3001 5.25836 0 0 1.5 0.0268446 0.633144 
6.50893 -7.20932 5.39481 0 0 1.5 0.0303308 0.494978 
6.79393 -7.1217 5.5316 0 0 1.5 0.0394104 0.289766 
7.07949 -7.0381 5.66967 0 0 1.5 0.0446983 0.223156 
7.36567 -6.95897 5.80916 0 0 1.5 0.0503722 0.173653 
7.65196 -6.88874 5.95299 0 0 1.5 0.0563878 0.136614 
7.93823 -6.82199 6.09861 0 0 1.5 0.069368 0.0870101 
8.22279 -6.76795 6.25263 0 0 1.5 0.0763283 0.0701405 
8.50584 -6.71812 6.41057 0 0 1.5 0.0836063 0.0566928 
8.78594 -6.67652 6.57618 0 0 1.5 0.0991347 0.0368655 
9.06152 -6.64177 6.75049 0 0 1.5 0.107395 0.0293456 
9.3346 -6.61083 6.92963 0 0 1.5 0.115985 0.0228668 
9.59921 -6.58826 7.12216 0 0 1.5 0.124891 0.0171788 
9.86092 -6.56836 7.31879 0 0 1.5 0.143549 0.00737162 
10.1153 -6.55503 7.52548 0 0 1.5 0.153205 0.00286661 
10.3644 -6.54781 7.73858 0 0 1.5 0.162976 -0.00153388 
10.6093 -6.54557 7.95692 0 0 1.5 0.172756 -0.00592477 
10.8466 -6.55721 8.183 0 0 1.5 0.191791 -0.0148201 
11.0811 -6.57522 8.41147 0 0 1.5 0.20071 -0.0194528 
11.3082 -6.61316 8.64518 0 0 1.5 0.208959 -0.0243319 
11.5298 -6.66747 8.88026 0 0 1.5 0.222563 -0.0346228 
11.7459 -6.73811 9.1167 0 0 1.5 0.227488 -0.0400867 
11.9484 -6.84363 9.35177 0 0 1.5 0.230891 -0.045911 
12.1431 -6.96544 9.585 0 0 1.5 0.232607 -0.0519884 
12.3203 -7.12102 9.8131 0 0 1.5 0.23066 -0.0646856 
12.4784 -7.30278 10.0342 0 0 1.5 0.226972 -0.0716004 
12.6249 -7.50065 10.2511 0 0 1.5 0.221549 -0.0788914 
12.7361 -7.73263 10.4544 0 0 1.5 0.214545 -0.0864816 
12.8356 -7.97268 10.6535 0 0 1.5 0.196587 -0.103432 
12.9073 -8.23088 10.8427 0 0 1.5 0.186066 -0.113205 
12.9581 -8.49753 11.0256 0 0 1.5 0.174843 -0.124012 
12.9909 -8.77144 11.2031 0 0 1.5 0.16316 -0.136201 
12.9954 -9.05093 11.374 0 0 1.5 0.139239 -0.166651 
12.9904 -9.33231 11.5426 0 0 1.5 0.127368 -0.186148 
12.9522 -9.61412 11.7058 0 0 1.5 0.115775 -0.209471 
12.9077 -9.89534 11.8684 0 0 1.5 0.0939381 -0.271761 
12.8347 -10.1719 12.029 0 0 1.5 0.0839309 -0.313462 
12.7524 -10.4451 12.1903 0 0 1.5 0.0746881 -0.363611 
12.6526 -10.7119 12.353 0 0 1.5 0.0663265 -0.422339 
12.5401 -10.97 12.521 0 0 1.5 0.0527187 -0.55977 
12.4202 -11.222 12.6933 0 0 1.5 0.0477003 -0.625055 
12.2926 -11.4596 12.8801 0 0 1.5 0.0439652 -0.670997 
12.1696 -11.6837 13.0851 0 0 1.5 0.0414778 -0.687299 
12.0608 -11.8905 13.3139 0 0 1.5 0.0396157 -0.628448 
11.9836 -12.0729 13.5736 0 0 1.5 0.0397381 -0.56965 
11.9547 -12.2268 13.8604 0 0 1.5 0.0401858 -0.508407 
11.9717 -12.3598 14.1593 0 0 1.5 0.0412069 -0.40583 
12.0157 -12.4881 14.4579 0 0 1.5 0.041484 -0.367006 
12.069 -12.6243 14.7515 0 0 1.5 0.041477 -0.337021 
12.1129 -12.785 15.0341 0 0 1.5 0.0411502 -0.315432 
12.1431 -12.9633 15.307 0 0 1.5 0.039529 -0.290893 
12.1623 -13.1553 15.5722 0 0 1.5 0.0382672 -0.286504 
12.1542 -13.372 15.818 0 0 1.5 0.0367485 -0.287557 
12.1423 -13.5921 16.0609 0 0 1.5 0.0350193 -0.293292 
12.1303 -13.8122 16.3038 0 0 1.5 0.0311356 -0.316901 
12.1183 -14.0323 16.5467 0 0 1.5 0.0290822 -0.335812 
12.1064 -14.2525 16.7897 0 0 1.5 0.0270204 -0.359204 
12.0944 -14.4726 17.0326 0 0 1.5 0.0250003 -0.386071 
12.0824 -14.6927 17.2755 0 0 1.5 0.0212673 -0.44975 
12.0705 -14.9129 17.5185 0 0 1.5 0.0196316 -0.483626 
12.0585 -15.133 17.7614 0 0 1.5 0.0181935 -0.513724 
12.0465 -15.3531 18.0043 0 0 1.5 0.0159736 -0.551964 
12.0346 -15.5733 18.2473 0 0 1.5 0.015189 -0.554652 
12.0226 -15.7934 18.4902 0 0 1.5 0.0145987 -0.543426 
12.0106 -16.0135 18.7331 0 0 1.5 0.01417 -0.520945 
11.9987 -16.2337 18.9761 0 0 1.5 0.0136395 -0.458343 
11.9867 -16.4538 19.219 0 0 1.5 0.0134613 -0.42321 
11.9748 -16.6739 19.4619 0 0 1.5 0.0132958 -0.389531 
11.9628 -16.8941 19.7049 0 0 1.5 0.0131175 -0.359621 
11.9508 -17.1142 19.9478 0 0 1.5 0.0126573 -0.310727 
11.9389 -17.3343 20.1907 0 0 1.5 0.0123552 -0.291807 
11.9269 -17.5544 20.4336 0 0 1.5 0.0119997 -0.277136 
11.9149 -17.7746 20.6766 0 0 1.5 0.0111338 -0.257666 
11.903 -17.9947 20.9195 0 0 1.5 0.010632 -0.252426 
11.891 -18.2148 21.1624 0 0 1.5 0.0100919 -0.250836 
11.879 -18.435 21.4054 0 0 1.5 0.00952096 -0.25256 
11.8671 -18.6551 21.6483 0 0 1.5 0.00832203 -0.265135 
11.8551 -18.8752 21.8912 0 0 1.5 0.00771066 -0.277042 
11.8431 -19.0954 22.1342 0 0 1.5 0.00710188 -0.293013 
11.8312 -19.3155 22.3771 0 0 1.5 0.00650424 -0.312947 
11.8192 -19.5356 22.62 0 0 1.5 0.00537497 -0.368357 
11.8073 -19.7558 22.863 0 0 1.5 0.00485817 -0.404829 
11.7953 -19.9759 23.1059 0 0 1.5 0.00438371 -0.44572 
11.7833 -20.196 23.3488 0 0 1.5 0.00358863 -0.53527 
11.7714 -20.4162 23.5917 0 0 1.5 0.00327705 -0.576669 
11.7594 -20.6363 23.8347 0 0 1.5 0.00302629 -0.606573 
11.7474 -20.8564 24.0776 0 0 1.5 0.00283506 -0.619838 
11.7355 -21.0765 24.3205 0 0 1.5 0.00260641 -0.592332 
11.7235 -21.2967 24.5635 0 0 1.5 0.00255034 -0.55533 
11.7115 -21.5168 24.8064 0 0 1.5 0.00251849 -0.51116 
11.6996 -21.7369 25.0493 0 0 1.5 0.00250042 -0.466577 
11.6876 -21.9571 25.2923 0 0 1.5 0.00247354 -0.386526 
11.6756 -22.1772 25.5352 0 0 1.5 0.00245343 -0.353935 
11.6637 -22.3973 25.7781 0 0 1.5 0.0024242 -0.327624 
11.6517 -22.6175 26.0211 0 0 1.5 0.0023843 -0.306699 
11.6398 -22.8376 26.264 0 0 1.5 0.00227134 -0.277968 
11.6278 -23.0577 26.5069 0 0 1.5 0.00219933 -0.27048 
11.6158 -23.2779 26.7499 0 0 1.5 0.00211861 -0.266931 
11.6039 -23.498 26.9928 0 0 1.5 0.00193845 -0.269244 
11.5919 -23.7181 27.2357 0 0 1.5 0.00184275 -0.275169 
11.5799 -23.9382 27.4786 0 0 1.5 0.00174574 -0.2838 
11.568 -24.1584 27.7216 0 0 1.5 0.00164943 -0.294346 
11.556 -24.3785 27.9645 0 0 1.5 0.00146646 -0.320643 
11.544 -24.5986 28.2074 0 0 1.5 0.00138306 -0.335025 
11.5321 -24.8188 28.4504 0 0 1.5 0.00130717 -0.347888 
11.5201 -25.0389 28.6933 0 0 1.5 0.00124007 -0.357971 
11.5081 -25.259 28.9362 0 0 1.5 0.00113417 -0.365782 
11.4962 -25.4792 29.1792 0 0 1.5 0.00109561 -0.360304 
11.4842 -25.6993 29.4221 0 0 1.5 0.00106623 -0.348238 
11.4722 -25.9194 29.665 0 0 1.5 0.00103095 -0.309163 
11.4603 -26.1396 29.908 0 0 1.5 0.00102278 -0.283859 
11.4483 -26.3597 30.1509 0 0 1.5 0.00101943 -0.256906 
11.4364 -26.5798 30.3938 0 0 1.5 0.0010197 -0.230266 
11.4244 -26.8 30.6367 0 0 1.5 0.00102729 -0.180809 
11.4124 -27.0201 30.8797 0 0 1.5 0.00103328 -0.159116 
11.4005 -27.2402 31.1226 0 0 1.5 0.00104003 -0.140208 
11.3885 -27.4603 31.3655 0 0 1.5 0.00104718 -0.12411 
11.3765 -27.6805 31.6085 0 0 1.5 0.00106206 -0.100031 
11.3646 -27.9006 31.8514 0 0 1.5 0.00106969 -0.0918146 
11.3526 -28.1207 32.0943 0 0 1.5 0.00107744 -0.0860027 
0 1 0 
1 2 0 
2 3 0 
3 4 0 
4 5 0 
5 6 0 
6 7 0 
7 8 0 
8 9 0 
9 10 0 
10 11 0 
11 12 0 
12 13 0 
13 14 0 
14 15 0 
15 16 0 
16 17 0 
17 18 0 
18 19 0 
19 20 0 
20 21 0 
21 22 0 
22 23 0 
23 24 0 
24 25 0 
25 26 0 
26 27 0 
27 28 0 
28 29 0 
29 30 0 
30 31 0 
31 32 0 
32 33 0 
33 34 0 
34 35 0 
35 36 0 
36 37 0 
37 38 0 
38 39 0 
39 40 0 
40 41 0 
41 42 0 
42 43 0 
43 44 0 
44 45 0 
45 46 0 
46 47 0 
47 48 0 
48 49 0 
49 50 0 
50 51 0 
51 52 0 
52 53 0 
53 54 0 
54 55 0 
55 56 0 
56 57 0 
57 58 0 
58 59 0 
59 60 0 
60 61 0 
61 62 0 
62 63 0 
63 64 0 
64 65 0 
65 66 0 
66 67 0 
67 68 0 
68 69 0 
69 70 0 
70 71 0 
71 72 0 
72 73 0 
73 74 0 
74 75 0 
75 76 0 
76 77 0 
77 78 0 
78 79 0 
79 80 0 
80 81 0 
81 82 0 
82 83 0 
83 84 0 
84 85 0 
85 86 0 
86 87 0 
87 88 0 
88 89 0 
89 90 0 
90 91 0 
91 92 0 
92 93 0 
93 94 0 
94 95 0 
95 96 0 
96 97 0 
97 98 0 
98 99 0 
99 100 0 
100 101 0 
101 102 0 
102 103 0 
103 104 0 
104 105 0 
105 106 0 
106 107 0 
107 108 0 
108 109 0 
109 110 0 
110 111 0 
111 112 0 
112 113 0 
113 114 0 
114 115 0 
115 116 0 
116 117 0 
117 118 0 
118 119 0 
119 120 0 
120 121 0 
121 122 0 
122 123 0 
123 124 0 
124 125 0 
125 126 0 
126 127 0 
127 128 0 
128 129 0 
129 130 0 
130 131 0 
131 132 0 
132 133 0 
133 134 0 
134 135 0 
135 136 0 
136 137 0 
137 138 0 
138 139 0 
139 140 0 
140 141 0 
141 142 0 
142 143 0 
143 144 0 
144 145 0 
145 146 0 
146 147 0 
147 148 0 
148 149 0 
149 150 0 
150 151 0 
151 152 0 
152 153 0 
153 154 0 
154 155 0 
155 156 0 
156 157 0 
157 158 0 
158 159 0 
159 160 0 
160 161 0 
161 162 0 
162 163 0 
163 164 0 
164 165 0 
165 166 0 
166 167 0 
167 168 0 
168 169 0 
169 170 0 
170 171 0 
171 172 0 
172 173 0 
173 174 0 
174 175 0 
175 176 0 
176 177 0 
177 178 0 
178 179 0 
179 180 0 
180 181 0 
181 182 0 
182 183 0 
183 184 0 
184 185 0 
185 186 0 
186 187 0 
187 188 0 
188 189 0 
189 190 0 
190 191 0 
191 192 0 
192 193 0 
193 194 0 
194 195 0 
195 196 0 
196 197 0 
197 198 0 
198 199 0 
199 200 0 
200 201 0 
201 202 0 
202 203 0 
203 204 0 
204 205 0 
205 206 0 
206 207 0 
207 208 0 
208 209 0 
209 210 0 
210 211 0 
211 212 0 
212 213 0 
213 214 0 
214 215 0 
215 216 0 
216 217 0 
217 218 0 
218 219 0 
219 220 0 
220 221 0 
221 222 0 
222 223 0 
223 224 0 
224 225 0 
225 226 0 
226 227 0 
227 228 0 
228 229 0 
229 230 0 
230 231 0 
231 232 0 
232 233 0 
233 234 0 
234 235 0 
235 236 0 
236 237 0 
237 238 0 
238 239 0 
239 240 0 
240 241 0 
241 242 0 
242 243 0 
243 244 0 
244 245 0 
245 246 0 
246 247 0 
247 248 0 
248 249 0 
249 250 0 
250 251 0 
251 252 0 
252 253 0 
253 254 0 
254 255 0 
255 256 0 
256 257 0 
257 258 0 
258 259 0 
259 260 0 
260 261 0 
261 262 0 
262 263 0 
263 264 0 
264 265 0 
265 266 0 
266 267 0 
267 268 0 
268 269 0 
269 270 0 
270 271 0 
271 272 0 
272 273 0 
273 274 0 
274 275 0 
275 276 0 
276 277 0 
277 278 0 
278 279 0 
279 280 0 
280 281 0 
281 282 0 
282 283 0 
283 284 0 
284 285 0 
285 286 0 
286 287 0 
287 288 0 
288 289 0 
289 290 0 
290 291 0 
291 292 0 
292 293 0 
293 294 0 
294 295 0 
295 296 0 
296 297 0 
297 298 0 
298 299 0 
-1 -1 0 
-1 300 0 1 2 3 4 5 6 7 8 9 10 11 12 13 14 15 16 17 18 19 20 21 22 23 24 25 26 27 28 29 30 31 32 33 34 35 36 37 38 39 40 41 42 43 44 45 46 47 48 49 50 51 52 53 54 55 56 57 58 59 60 61 62 63 64 65 66 67 68 69 70 71 72 73 74 75 76 77 78 79 80 81 82 83 84 85 86 87 88 89 90 91 92 93 94 95 96 97 98 99 100 101 102 103 104 105 106 107 108 109 110 111 112 113 114 115 116 117 118 119 120 121 122 123 124 125 126 127 128 129 130 131 132 133 134 135 136 137 138 139 140 141 142 143 144 145 146 147 148 149 150 151 152 153 154 155 156 157 158 159 160 161 162 163 164 165 166 167 168 169 170 171 172 173 174 175 176 177 178 179 180 181 182 183 184 185 186 187 188 189 190 191 192 193 194 195 196 197 198 199 200 201 202 203 204 205 206 207 208 209 210 211 212 213 214 215 216 217 218 219 220 221 222 223 224 225 226 227 228 229 230 231 232 233 234 235 236 237 238 239 240 241 242 243 244 245 246 247 248 249 250 251 252 253 254 255 256 257 258 259 260 261 262 263 264 265 266 267 268 269 270 271 272 273 274 275 276 277 278 279 280 281 282 283 284 285 286 287 288 289 290 291 292 293 294 295 296 297 298 299 
