ply
format ascii 1.0
comment written by koba@oshima.lab
element vertex 300
property float x
property float y
property float z
property int label
property int attribute
property float radius
property float curvature
property float torsion
element edge 300
property int vertex1
property int vertex2
property int label
element vertex_seq 1
property int label
property list int int vertex_indices
end_header
8.3675 20.3426 -4.8224 0 0 1.5 0.0418532 0.00117158 
8.07159 20.21 -4.92373 0 0 1.5 0.040893 0.00122921 
7.77569 20.0774 -5.02506 0 0 1.5 0.0399191 0.00130758 
7.47978 19.9448 -5.12639 0 0 1.5 0.0389226 0.00140983 
7.18387 19.8121 -5.22772 0 0 1.5 0.0368251 0.00170471 
6.88796 19.6795 -5.32905 0 0 1.5 0.0357035 0.00191372 
6.59205 19.5469 -5.43038 0 0 1.5 0.0345179 0.00217681 
6.29614 19.4143 -5.53171 0 0 1.5 0.0332568 0.00250757 
6.00023 19.2817 -5.63304 0 0 1.5 0.0304566 0.00348562 
5.70433 19.1491 -5.73437 0 0 1.5 0.0288871 0.00421605 
5.40842 19.0165 -5.8357 0 0 1.5 0.0271838 0.00519462 
5.11251 18.8839 -5.93703 0 0 1.5 0.025331 0.00655361 
4.8166 18.7512 -6.03836 0 0 1.5 0.0211097 0.0114455 
4.52069 18.6186 -6.13969 0 0 1.5 0.0187066 0.0160716 
4.22478 18.486 -6.24102 0 0 1.5 0.016086 0.0239798 
3.92888 18.3534 -6.34235 0 0 1.5 0.0101444 0.073196 
3.63297 18.2208 -6.44368 0 0 1.5 0.00681096 0.178017 
3.33706 18.0882 -6.54501 0 0 1.5 0.00329986 0.826665 
3.04115 17.9556 -6.64634 0 0 1.5 0.00159991 3.79844 
2.74524 17.823 -6.74767 0 0 1.5 0.00977157 0.114329 
2.44933 17.6903 -6.849 0 0 1.5 0.0145823 0.0527505 
2.15342 17.5577 -6.95033 0 0 1.5 0.0197038 0.0286063 
1.85752 17.4251 -7.05166 0 0 1.5 0.0251162 0.0165455 
1.56161 17.2925 -7.15299 0 0 1.5 0.0367546 0.00480575 
1.2657 17.1599 -7.25432 0 0 1.5 0.0429295 0.00121056 
0.969791 17.0273 -7.35565 0 0 1.5 0.0492893 -0.00173201 
0.673883 16.8947 -7.45698 0 0 1.5 0.0623737 -0.00676198 
0.377974 16.7621 -7.55831 0 0 1.5 0.0689632 -0.009334 
0.0820658 16.6294 -7.65964 0 0 1.5 0.0754638 -0.012063 
-0.213843 16.4968 -7.76097 0 0 1.5 0.0817725 -0.0150135 
-0.509751 16.3642 -7.8623 0 0 1.5 0.0933451 -0.0222556 
-0.80566 16.2316 -7.96363 0 0 1.5 0.0983463 -0.0268171 
-1.10157 16.099 -8.06496 0 0 1.5 0.10264 -0.0321875 
-1.39748 15.9664 -8.16629 0 0 1.5 0.106092 -0.0386169 
-1.69338 15.8338 -8.26762 0 0 1.5 0.110026 -0.055935 
-1.98929 15.7012 -8.36895 0 0 1.5 0.110326 -0.0677078 
-2.2852 15.5686 -8.47028 0 0 1.5 0.109435 -0.0823564 
-2.58111 15.4359 -8.57162 0 0 1.5 0.107366 -0.100709 
-2.86579 15.2643 -8.62287 0 0 1.5 0.0999301 -0.154345 
-3.14423 15.0711 -8.64634 0 0 1.5 0.0947684 -0.193757 
-3.39246 14.8446 -8.60975 0 0 1.5 0.0889053 -0.245087 
-3.63193 14.61 -8.55731 0 0 1.5 0.0762874 -0.399301 
-3.83596 14.3578 -8.45644 0 0 1.5 0.0703771 -0.5061 
-4.03245 14.1038 -8.3472 0 0 1.5 0.0655536 -0.622114 
-4.20898 13.845 -8.21577 0 0 1.5 0.0625986 -0.72067 
-4.37937 13.5854 -8.07824 0 0 1.5 0.0650541 -0.724805 
-4.54217 13.3249 -7.93317 0 0 1.5 0.0709562 -0.624528 
-4.70493 13.0641 -7.78857 0 0 1.5 0.0795888 -0.502299 
-4.86767 12.8031 -7.64426 0 0 1.5 0.0904126 -0.38764 
-5.04141 12.5421 -7.51372 0 0 1.5 0.116621 -0.217034 
-5.22171 12.2815 -7.39253 0 0 1.5 0.131148 -0.158034 
-5.42032 12.0223 -7.29865 0 0 1.5 0.146133 -0.111059 
-5.63693 11.7684 -7.24208 0 0 1.5 0.176015 -0.0437285 
-5.86658 11.521 -7.22039 0 0 1.5 0.19012 -0.019052 
-6.10962 11.2854 -7.2497 0 0 1.5 0.203087 0.00207946 
-6.35368 11.0662 -7.335 0 0 1.5 0.214461 0.0199907 
-6.59183 10.8551 -7.45092 0 0 1.5 0.230794 0.0474569 
-6.8226 10.6505 -7.59349 0 0 1.5 0.235084 0.0584816 
-7.031 10.4453 -7.76629 0 0 1.5 0.236518 0.067971 
-7.22475 10.2338 -7.94737 0 0 1.5 0.235094 0.0759255 
-7.40167 10.0148 -8.13749 0 0 1.5 0.224324 0.0889333 
-7.54037 9.77403 -8.3325 0 0 1.5 0.215566 0.094839 
-7.65368 9.52066 -8.52613 0 0 1.5 0.205117 0.100864 
-7.7347 9.25166 -8.71716 0 0 1.5 0.180949 0.114785 
-7.75589 8.96491 -8.89709 0 0 1.5 0.168064 0.123891 
-7.74357 8.67443 -9.06957 0 0 1.5 0.155186 0.135497 
-7.69296 8.38107 -9.23325 0 0 1.5 0.142703 0.15012 
-7.59353 8.09508 -9.38616 0 0 1.5 0.120526 0.18991 
-7.47825 7.81356 -9.53637 0 0 1.5 0.111857 0.214203 
-7.33327 7.54336 -9.68262 0 0 1.5 0.105717 0.237151 
-7.17811 7.27983 -9.83001 0 0 1.5 0.102953 0.252105 
-7.01126 7.02397 -9.9787 0 0 1.5 0.110863 0.23638 
-6.83991 6.77402 -10.1321 0 0 1.5 0.122691 0.208713 
-6.6653 6.52835 -10.2888 0 0 1.5 0.140195 0.177299 
-6.49275 6.28557 -10.4521 0 0 1.5 0.163733 0.14819 
-6.32155 6.04465 -10.6197 0 0 1.5 0.232009 0.105015 
-6.15748 5.80324 -10.7933 0 0 1.5 0.279682 0.0903738 
-5.99827 5.5615 -10.9712 0 0 1.5 0.33963 0.0794289 
-5.85033 5.31587 -11.1531 0 0 1.5 0.512979 0.0660821 
-5.70961 5.06776 -11.3376 0 0 1.5 0.638868 0.0624324 
-5.58599 4.81073 -11.5218 0 0 1.5 0.802614 0.0605484 
-5.46989 4.54956 -11.7053 0 0 1.5 1.01491 0.0605251 
-5.38075 4.26959 -11.8759 0 0 1.5 1.60458 0.0648805 
-5.31385 3.97105 -12.0206 0 0 1.5 1.93741 0.068203 
-5.28871 3.64472 -12.086 0 0 1.5 2.19254 0.0709231 
-5.33901 3.43667 -11.8719 0 0 1.5 2.26083 0.0713814 
-5.38811 3.44801 -11.5408 0 0 1.5 1.80232 0.0653073 
-5.41592 3.53444 -11.2147 0 0 1.5 1.46218 0.0615806 
-5.42748 3.6564 -10.8978 0 0 1.5 1.15585 0.0592704 
-5.42028 3.80464 -10.5925 0 0 1.5 0.711687 0.0606146 
-5.40782 3.95939 -10.2905 0 0 1.5 0.561751 0.0641029 
-5.37776 4.13121 -9.99897 0 0 1.5 0.446075 0.0700233 
-5.3446 4.30501 -9.70908 0 0 1.5 0.355963 0.079202 
-5.29741 4.48778 -9.42662 0 0 1.5 0.228031 0.112004 
-5.24767 4.67121 -9.14509 0 0 1.5 0.182159 0.140574 
-5.18625 4.85765 -8.86781 0 0 1.5 0.145052 0.183176 
-5.12291 5.04336 -8.59051 0 0 1.5 0.115508 0.245545 
-5.0509 5.22575 -8.31309 0 0 1.5 0.0793203 0.406564 
-4.97745 5.40476 -8.03393 0 0 1.5 0.0745703 0.421257 
-4.89972 5.57379 -7.74967 0 0 1.5 0.0787695 0.353753 
-4.82244 5.73181 -7.45938 0 0 1.5 0.105016 0.186926 
-4.74573 5.87594 -7.16145 0 0 1.5 0.122959 0.136322 
-4.67684 5.99009 -6.84953 0 0 1.5 0.142633 0.103303 
-4.61508 6.08287 -6.52959 0 0 1.5 0.163547 0.0816033 
-4.56904 6.13503 -6.19706 0 0 1.5 0.207751 0.0570502 
-4.54586 6.13696 -5.85926 0 0 1.5 0.230268 0.050021 
-4.54061 6.09983 -5.5234 0 0 1.5 0.252396 0.0448622 
-4.55319 6.02378 -5.19273 0 0 1.5 0.273458 0.0409666 
-4.58714 5.89213 -4.88139 0 0 1.5 0.30893 0.0353745 
-4.62726 5.73033 -4.58669 0 0 1.5 0.321541 0.0329349 
-4.67088 5.54354 -4.30687 0 0 1.5 0.329707 0.030436 
-4.71184 5.32073 -4.05371 0 0 1.5 0.332908 0.027743 
-4.74368 5.07666 -3.82081 0 0 1.5 0.324062 0.0215237 
-4.7688 4.81815 -3.60205 0 0 1.5 0.312798 0.0178563 
-4.77187 4.53453 -3.41506 0 0 1.5 0.297944 0.0137061 
-4.76368 4.24347 -3.24143 0 0 1.5 0.261109 0.00449958 
-4.74031 3.94238 -3.08582 0 0 1.5 0.240897 -0.000573018 
-4.69819 3.6341 -2.95038 0 0 1.5 0.220468 -0.0061872 
-4.64938 3.32337 -2.82211 0 0 1.5 0.200362 -0.0122293 
-4.58163 3.00879 -2.71317 0 0 1.5 0.162501 -0.025524 
-4.51062 2.69392 -2.60751 0 0 1.5 0.145147 -0.0333612 
-4.43045 2.3782 -2.51101 0 0 1.5 0.128963 -0.042159 
-4.34805 2.06231 -2.41705 0 0 1.5 0.113944 -0.0519803 
-4.26305 1.74624 -2.32602 0 0 1.5 0.0872507 -0.0767045 
-4.17953 1.42977 -2.23498 0 0 1.5 0.0754647 -0.0930619 
-4.09678 1.1131 -2.14394 0 0 1.5 0.0646137 -0.113724 
-4.02088 0.795564 -2.05005 0 0 1.5 0.0454201 -0.178635 
-3.94691 0.477796 -1.9554 0 0 1.5 0.0369758 -0.234631 
-3.88445 0.158747 -1.8568 0 0 1.5 0.0292723 -0.325358 
-3.82596 -0.160739 -1.7574 0 0 1.5 0.0223811 -0.485368 
-3.77772 -0.481357 -1.65595 0 0 1.5 0.0126886 -1.21098 
-3.73667 -0.802893 -1.55449 0 0 1.5 0.0120585 -1.27559 
-3.70261 -1.12532 -1.45303 0 0 1.5 0.014846 -0.84749 
-3.67768 -1.44924 -1.35382 0 0 1.5 0.0195623 -0.522604 
-3.65609 -1.77369 -1.25544 0 0 1.5 0.0312785 -0.270301 
-3.64368 -2.10011 -1.16213 0 0 1.5 0.037778 -0.222038 
-3.63271 -2.42689 -1.06995 0 0 1.5 0.0446527 -0.192846 
-3.62707 -2.75518 -0.982697 0 0 1.5 0.0519268 -0.173177 
-3.62224 -3.08381 -0.896751 0 0 1.5 0.0677799 -0.146644 
-3.61905 -3.41315 -0.813452 0 0 1.5 0.076408 -0.136915 
-3.61496 -3.74247 -0.730097 0 0 1.5 0.0855254 -0.128324 
-3.60995 -4.07176 -0.646685 0 0 1.5 0.105151 -0.113006 
-3.60044 -4.39986 -0.559159 0 0 1.5 0.115574 -0.106112 
-3.58871 -4.72736 -0.469599 0 0 1.5 0.126307 -0.0996152 
-3.5662 -5.05086 -0.368556 0 0 1.5 0.137237 -0.0934465 
-3.54031 -5.37292 -0.263892 0 0 1.5 0.159064 -0.0818571 
-3.49659 -5.68625 -0.140071 0 0 1.5 0.169568 -0.0764417 
-3.44328 -5.99345 -0.00664052 0 0 1.5 0.179502 -0.0713278 
-3.37283 -6.2897 0.143987 0 0 1.5 0.188621 -0.0664006 
-3.27966 -6.56737 0.314492 0 0 1.5 0.203385 -0.0568732 
-3.174 -6.83437 0.495512 0 0 1.5 0.208562 -0.0523564 
-3.03484 -7.06722 0.700033 0 0 1.5 0.21202 -0.0479304 
-2.88 -7.28083 0.912163 0 0 1.5 0.213332 -0.0392556 
-2.70626 -7.47124 1.13346 0 0 1.5 0.211172 -0.0351947 
-2.50766 -7.62624 1.36051 0 0 1.5 0.207266 -0.0312629 
-2.2999 -7.76747 1.58858 0 0 1.5 0.201777 -0.0273876 
-2.07185 -7.87617 1.81572 0 0 1.5 0.18691 -0.0201475 
-1.83546 -7.96996 2.04018 0 0 1.5 0.17805 -0.0167774 
-1.58909 -8.04588 2.26144 0 0 1.5 0.168573 -0.0134634 
-1.33374 -8.10326 2.47762 0 0 1.5 0.158707 -0.0102459 
-1.07466 -8.15291 2.69168 0 0 1.5 0.138642 -0.00416395 
-0.808494 -8.18375 2.90046 0 0 1.5 0.128785 -0.0011501 
-0.541369 -8.21104 3.10851 0 0 1.5 0.11922 0.00188093 
-0.271665 -8.22533 3.3146 0 0 1.5 0.101348 0.00800355 
-0.00226353 -8.23578 3.52124 0 0 1.5 0.0931855 0.0111417 
0.266588 -8.23927 3.7289 0 0 1.5 0.0856108 0.014358 
0.533243 -8.23821 3.93935 0 0 1.5 0.0786551 0.0176498 
0.798345 -8.23394 4.15176 0 0 1.5 0.0667021 0.0239966 
1.05917 -8.225 4.36923 0 0 1.5 0.0617457 0.0267759 
1.31866 -8.21468 4.58824 0 0 1.5 0.0574711 0.029153 
1.57389 -8.2003 4.81199 0 0 1.5 0.0538677 0.0308192 
1.82808 -8.18428 5.0368 0 0 1.5 0.048598 0.0308555 
2.08059 -8.16563 5.26331 0 0 1.5 0.0468508 0.0291425 
2.33301 -8.14401 5.48965 0 0 1.5 0.0456151 0.0262685 
2.58539 -8.12089 5.71589 0 0 1.5 0.0448248 0.0223125 
2.83994 -8.09315 5.93916 0 0 1.5 0.044289 0.0124924 
3.09545 -8.06397 6.16112 0 0 1.5 0.0443872 0.00721376 
3.35396 -8.0306 6.37901 0 0 1.5 0.044641 0.00190481 
3.61453 -7.99446 6.59393 0 0 1.5 0.0453941 -0.0084821 
3.87735 -7.95529 6.8056 0 0 1.5 0.0457867 -0.0135229 
4.14305 -7.91158 7.01271 0 0 1.5 0.0461286 -0.0185092 
4.40983 -7.86616 7.21809 0 0 1.5 0.046378 -0.023582 
4.67965 -7.81437 7.41789 0 0 1.5 0.046421 -0.0347433 
4.94999 -7.7609 7.61654 0 0 1.5 0.0461254 -0.0412716 
5.22202 -7.70136 7.81115 0 0 1.5 0.04556 -0.048832 
5.4944 -7.63835 8.0041 0 0 1.5 0.044686 -0.0578635 
5.76729 -7.5704 8.19471 0 0 1.5 0.0418676 -0.0833948 
6.03988 -7.49652 8.38348 0 0 1.5 0.0398615 -0.102141 
6.31228 -7.41924 8.57119 0 0 1.5 0.037441 -0.127226 
6.58298 -7.33319 8.75753 0 0 1.5 0.0313854 -0.21424 
6.85312 -7.24481 8.94359 0 0 1.5 0.0278114 -0.293912 
7.12032 -7.14679 9.12909 0 0 1.5 0.0239969 -0.421922 
7.38629 -7.04565 9.31462 0 0 1.5 0.0201512 -0.636408 
7.64954 -6.93761 9.5002 0 0 1.5 0.0144958 -1.38203 
7.9108 -6.82522 9.68597 0 0 1.5 0.01471 -1.41813 
8.17032 -6.70903 9.87188 0 0 1.5 0.0177295 -1.03288 
8.42803 -6.58894 10.0578 0 0 1.5 0.0228221 -0.662212 
8.68514 -6.46757 10.2438 0 0 1.5 0.0364344 -0.297552 
8.94214 -6.3452 10.4292 0 0 1.5 0.0442612 -0.218095 
9.1996 -6.2235 10.6145 0 0 1.5 0.0525576 -0.168991 
9.45928 -6.10528 10.7989 0 0 1.5 0.0702417 -0.116374 
9.72084 -5.99078 10.9829 0 0 1.5 0.0794944 -0.102336 
9.98556 -5.88256 11.1663 0 0 1.5 0.088938 -0.0930595 
10.254 -5.78372 11.3493 0 0 1.5 0.0985088 -0.0870524 
10.5252 -5.69178 11.5322 0 0 1.5 0.117728 -0.0816362 
10.8012 -5.6177 11.7156 0 0 1.5 0.127197 -0.0815074 
11.0786 -5.54904 11.8993 0 0 1.5 0.136432 -0.0826538 
11.3598 -5.50843 12.0856 0 0 1.5 0.145329 -0.0848262 
11.6408 -5.47757 12.2732 0 0 1.5 0.161633 -0.0923453 
11.9216 -5.47142 12.4644 0 0 1.5 0.168797 -0.0975668 
12.1987 -5.48777 12.6592 0 0 1.5 0.175174 -0.10352 
12.4731 -5.52111 12.8568 0 0 1.5 0.180691 -0.110309 
12.7355 -5.59256 13.0599 0 0 1.5 0.188927 -0.126639 
12.9918 -5.67863 13.2645 0 0 1.5 0.191631 -0.135847 
13.2321 -5.79903 13.4723 0 0 1.5 0.193449 -0.145763 
13.4581 -5.94272 13.68 0 0 1.5 0.194736 -0.167691 
13.6728 -6.10476 13.8875 0 0 1.5 0.194449 -0.179021 
13.8628 -6.29867 14.0912 0 0 1.5 0.193745 -0.190363 
14.0448 -6.50178 14.2932 0 0 1.5 0.192781 -0.201596 
14.2043 -6.72855 14.4895 0 0 1.5 0.190701 -0.221405 
14.3531 -6.96422 14.6831 0 0 1.5 0.189892 -0.228959 
14.4871 -7.21204 14.8729 0 0 1.5 0.18939 -0.234561 
14.6059 -7.46873 15.0606 0 0 1.5 0.189258 -0.23787 
14.716 -7.73052 15.2471 0 0 1.5 0.190195 -0.236704 
14.8055 -7.99859 15.4353 0 0 1.5 0.191185 -0.232362 
14.89 -8.26797 15.6242 0 0 1.5 0.19239 -0.225963 
14.9471 -8.53803 15.8223 0 0 1.5 0.194889 -0.208462 
14.9949 -8.8059 16.025 0 0 1.5 0.195838 -0.197946 
15.0168 -9.06769 16.2404 0 0 1.5 0.196328 -0.186973 
15.0138 -9.31741 16.469 0 0 1.5 0.196194 -0.176013 
14.9908 -9.55748 16.7083 0 0 1.5 0.193472 -0.154334 
14.9194 -9.76102 16.9699 0 0 1.5 0.190647 -0.144151 
14.8288 -9.94536 17.238 0 0 1.5 0.186788 -0.134934 
14.696 -10.0837 17.5184 0 0 1.5 0.181909 -0.126522 
14.5395 -10.1853 17.7992 0 0 1.5 0.169304 -0.111856 
14.3608 -10.2524 18.0802 0 0 1.5 0.161763 -0.105925 
14.1821 -10.3195 18.3612 0 0 1.5 0.153566 -0.100825 
14.0034 -10.3866 18.6423 0 0 1.5 0.144842 -0.0964219 
13.8247 -10.4537 18.9233 0 0 1.5 0.126344 -0.0904881 
13.646 -10.5208 19.2043 0 0 1.5 0.116845 -0.0890851 
13.4673 -10.5879 19.4854 0 0 1.5 0.107342 -0.088629 
13.2886 -10.6549 19.7664 0 0 1.5 0.0887099 -0.0916001 
13.1099 -10.722 20.0475 0 0 1.5 0.0797365 -0.0955782 
12.9312 -10.7891 20.3285 0 0 1.5 0.0710788 -0.101555 
12.7525 -10.8562 20.6095 0 0 1.5 0.0627895 -0.110229 
12.5738 -10.9233 20.8906 0 0 1.5 0.0474515 -0.140663 
12.3951 -10.9904 21.1716 0 0 1.5 0.040473 -0.1661 
12.2164 -11.0575 21.4526 0 0 1.5 0.0340094 -0.203083 
12.0377 -11.1246 21.7337 0 0 1.5 0.0280985 -0.258608 
11.859 -11.1917 22.0147 0 0 1.5 0.0182299 -0.471633 
11.6803 -11.2588 22.2958 0 0 1.5 0.0145607 -0.652297 
11.5016 -11.3258 22.5768 0 0 1.5 0.0120448 -0.846581 
11.3229 -11.3929 22.8578 0 0 1.5 0.0110917 -0.797201 
11.1442 -11.46 23.1389 0 0 1.5 0.012127 -0.59892 
10.9655 -11.5271 23.4199 0 0 1.5 0.0135228 -0.435123 
10.7868 -11.5942 23.7009 0 0 1.5 0.0149551 -0.322713 
10.6081 -11.6613 23.982 0 0 1.5 0.0173154 -0.199061 
10.4295 -11.7284 24.263 0 0 1.5 0.0181142 -0.166048 
10.2508 -11.7955 24.5441 0 0 1.5 0.0186316 -0.143413 
10.0721 -11.8626 24.8251 0 0 1.5 0.0188678 -0.127557 
9.89336 -11.9296 25.1061 0 0 1.5 0.0185452 -0.109998 
9.71467 -11.9967 25.3872 0 0 1.5 0.0180312 -0.10629 
9.53597 -12.0638 25.6682 0 0 1.5 0.0173188 -0.104924 
9.35728 -12.1309 25.9493 0 0 1.5 0.015418 -0.109594 
9.17858 -12.198 26.2303 0 0 1.5 0.0142879 -0.116073 
8.99988 -12.2651 26.5113 0 0 1.5 0.0130789 -0.125558 
8.82119 -12.3322 26.7924 0 0 1.5 0.0118218 -0.139043 
8.64249 -12.3993 27.0734 0 0 1.5 0.00926768 -0.185316 
8.4638 -12.4664 27.3544 0 0 1.5 0.00802468 -0.222814 
8.2851 -12.5335 27.6355 0 0 1.5 0.00684229 -0.275833 
8.1064 -12.6005 27.9165 0 0 1.5 0.00574701 -0.352363 
7.92771 -12.6676 28.1976 0 0 1.5 0.00395671 -0.60192 
7.74901 -12.7347 28.4786 0 0 1.5 0.00335492 -0.752101 
7.57032 -12.8018 28.7596 0 0 1.5 0.00300948 -0.841725 
7.39162 -12.8689 29.0407 0 0 1.5 0.00292698 -0.802249 
7.21292 -12.936 29.3217 0 0 1.5 0.00330008 -0.513097 
7.03423 -13.0031 29.6027 0 0 1.5 0.0035935 -0.392569 
6.85553 -13.0702 29.8838 0 0 1.5 0.00388592 -0.305821 
6.67684 -13.1373 30.1648 0 0 1.5 0.00437308 -0.20216 
6.49814 -13.2043 30.4459 0 0 1.5 0.00454785 -0.172276 
6.31944 -13.2714 30.7269 0 0 1.5 0.00467356 -0.150959 
6.14075 -13.3385 31.0079 0 0 1.5 0.00475154 -0.135444 
5.96205 -13.4056 31.289 0 0 1.5 0.00477801 -0.116616 
5.78336 -13.4727 31.57 0 0 1.5 0.00473675 -0.111344 
5.60466 -13.5398 31.8511 0 0 1.5 0.004667 -0.107701 
5.42596 -13.6069 32.1321 0 0 1.5 0.00457466 -0.105376 
5.24727 -13.674 32.4131 0 0 1.5 0.0043421 -0.103886 
5.06857 -13.7411 32.6942 0 0 1.5 0.00421166 -0.103872 
4.88988 -13.8082 32.9752 0 0 1.5 0.00407799 -0.104074 
4.71118 -13.8752 33.2562 0 0 1.5 0.00381279 -0.104895 
4.53248 -13.9423 33.5373 0 0 1.5 0.00368665 -0.104875 
4.35379 -14.0094 33.8183 0 0 1.5 0.00356798 -0.10444 
4.17509 -14.0765 34.0994 0 0 1.5 0.00345757 -0.103768 
3.9964 -14.1436 34.3804 0 0 1.5 0.00326329 -0.101254 
3.8177 -14.2107 34.6614 0 0 1.5 0.00318013 -0.0994591 
3.639 -14.2778 34.9425 0 0 1.5 0.00310573 -0.0976848 
3.46031 -14.3449 35.2235 0 0 1.5 0.00303929 -0.0960327 
3.28161 -14.412 35.5045 0 0 1.5 0.00292763 -0.0935788 
3.10292 -14.479 35.7856 0 0 1.5 0.00288092 -0.0931964 
2.92422 -14.5461 36.0666 0 0 1.5 0.00283923 -0.0935924 
0 1 0 
1 2 0 
2 3 0 
3 4 0 
4 5 0 
5 6 0 
6 7 0 
7 8 0 
8 9 0 
9 10 0 
10 11 0 
11 12 0 
12 13 0 
13 14 0 
14 15 0 
15 16 0 
16 17 0 
17 18 0 
18 19 0 
19 20 0 
20 21 0 
21 22 0 
22 23 0 
23 24 0 
24 25 0 
25 26 0 
26 27 0 
27 28 0 
28 29 0 
29 30 0 
30 31 0 
31 32 0 
32 33 0 
33 34 0 
34 35 0 
35 36 0 
36 37 0 
37 38 0 
38 39 0 
39 40 0 
40 41 0 
41 42 0 
42 43 0 
43 44 0 
44 45 0 
45 46 0 
46 47 0 
47 48 0 
48 49 0 
49 50 0 
50 51 0 
51 52 0 
52 53 0 
53 54 0 
54 55 0 
55 56 0 
56 57 0 
57 58 0 
58 59 0 
59 60 0 
60 61 0 
61 62 0 
62 63 0 
63 64 0 
64 65 0 
65 66 0 
66 67 0 
67 68 0 
68 69 0 
69 70 0 
70 71 0 
71 72 0 
72 73 0 
73 74 0 
74 75 0 
75 76 0 
76 77 0 
77 78 0 
78 79 0 
79 80 0 
80 81 0 
81 82 0 
82 83 0 
83 84 0 
84 85 0 
85 86 0 
86 87 0 
87 88 0 
88 89 0 
89 90 0 
90 91 0 
91 92 0 
92 93 0 
93 94 0 
94 95 0 
95 96 0 
96 97 0 
97 98 0 
98 99 0 
99 100 0 
100 101 0 
101 102 0 
102 103 0 
103 104 0 
104 105 0 
105 106 0 
106 107 0 
107 108 0 
108 109 0 
109 110 0 
110 111 0 
111 112 0 
112 113 0 
113 114 0 
114 115 0 
115 116 0 
116 117 0 
117 118 0 
118 119 0 
119 120 0 
120 121 0 
121 122 0 
122 123 0 
123 124 0 
124 125 0 
125 126 0 
126 127 0 
127 128 0 
128 129 0 
129 130 0 
130 131 0 
131 132 0 
132 133 0 
133 134 0 
134 135 0 
135 136 0 
136 137 0 
137 138 0 
138 139 0 
139 140 0 
140 141 0 
141 142 0 
142 143 0 
143 144 0 
144 145 0 
145 146 0 
146 147 0 
147 148 0 
148 149 0 
149 150 0 
150 151 0 
151 152 0 
152 153 0 
153 154 0 
154 155 0 
155 156 0 
156 157 0 
157 158 0 
158 159 0 
159 160 0 
160 161 0 
161 162 0 
162 163 0 
163 164 0 
164 165 0 
165 166 0 
166 167 0 
167 168 0 
168 169 0 
169 170 0 
170 171 0 
171 172 0 
172 173 0 
173 174 0 
174 175 0 
175 176 0 
176 177 0 
177 178 0 
178 179 0 
179 180 0 
180 181 0 
181 182 0 
182 183 0 
183 184 0 
184 185 0 
185 186 0 
186 187 0 
187 188 0 
188 189 0 
189 190 0 
190 191 0 
191 192 0 
192 193 0 
193 194 0 
194 195 0 
195 196 0 
196 197 0 
197 198 0 
198 199 0 
199 200 0 
200 201 0 
201 202 0 
202 203 0 
203 204 0 
204 205 0 
205 206 0 
206 207 0 
207 208 0 
208 209 0 
209 210 0 
210 211 0 
211 212 0 
212 213 0 
213 214 0 
214 215 0 
215 216 0 
216 217 0 
217 218 0 
218 219 0 
219 220 0 
220 221 0 
221 222 0 
222 223 0 
223 224 0 
224 225 0 
225 226 0 
226 227 0 
227 228 0 
228 229 0 
229 230 0 
230 231 0 
231 232 0 
232 233 0 
233 234 0 
234 235 0 
235 236 0 
236 237 0 
237 238 0 
238 239 0 
239 240 0 
240 241 0 
241 242 0 
242 243 0 
243 244 0 
244 245 0 
245 246 0 
246 247 0 
247 248 0 
248 249 0 
249 250 0 
250 251 0 
251 252 0 
252 253 0 
253 254 0 
254 255 0 
255 256 0 
256 257 0 
257 258 0 
258 259 0 
259 260 0 
260 261 0 
261 262 0 
262 263 0 
263 264 0 
264 265 0 
265 266 0 
266 267 0 
267 268 0 
268 269 0 
269 270 0 
270 271 0 
271 272 0 
272 273 0 
273 274 0 
274 275 0 
275 276 0 
276 277 0 
277 278 0 
278 279 0 
279 280 0 
280 281 0 
281 282 0 
282 283 0 
283 284 0 
284 285 0 
285 286 0 
286 287 0 
287 288 0 
288 289 0 
289 290 0 
290 291 0 
291 292 0 
292 293 0 
293 294 0 
294 295 0 
295 296 0 
296 297 0 
297 298 0 
298 299 0 
-1 -1 0 
-1 300 0 1 2 3 4 5 6 7 8 9 10 11 12 13 14 15 16 17 18 19 20 21 22 23 24 25 26 27 28 29 30 31 32 33 34 35 36 37 38 39 40 41 42 43 44 45 46 47 48 49 50 51 52 53 54 55 56 57 58 59 60 61 62 63 64 65 66 67 68 69 70 71 72 73 74 75 76 77 78 79 80 81 82 83 84 85 86 87 88 89 90 91 92 93 94 95 96 97 98 99 100 101 102 103 104 105 106 107 108 109 110 111 112 113 114 115 116 117 118 119 120 121 122 123 124 125 126 127 128 129 130 131 132 133 134 135 136 137 138 139 140 141 142 143 144 145 146 147 148 149 150 151 152 153 154 155 156 157 158 159 160 161 162 163 164 165 166 167 168 169 170 171 172 173 174 175 176 177 178 179 180 181 182 183 184 185 186 187 188 189 190 191 192 193 194 195 196 197 198 199 200 201 202 203 204 205 206 207 208 209 210 211 212 213 214 215 216 217 218 219 220 221 222 223 224 225 226 227 228 229 230 231 232 233 234 235 236 237 238 239 240 241 242 243 244 245 246 247 248 249 250 251 252 253 254 255 256 257 258 259 260 261 262 263 264 265 266 267 268 269 270 271 272 273 274 275 276 277 278 279 280 281 282 283 284 285 286 287 288 289 290 291 292 293 294 295 296 297 298 299 
