ply
format ascii 1.0
comment written by koba@oshima.lab
element vertex 300
property float x
property float y
property float z
property int label
property int attribute
property float radius
property float curvature
property float torsion
element edge 300
property int vertex1
property int vertex2
property int label
element vertex_seq 1
property int label
property list int int vertex_indices
end_header
-3.47319 27.1594 1.80889 0 0 1.5 0.0183129 0.000721559 
-3.51857 26.8266 1.62374 0 0 1.5 0.0181248 0.000782923 
-3.56394 26.4938 1.43858 0 0 1.5 0.0179201 0.000900222 
-3.60932 26.161 1.25343 0 0 1.5 0.0176878 0.0010785 
-3.6547 25.8282 1.06828 0 0 1.5 0.0170956 0.00165708 
-3.70007 25.4954 0.883128 0 0 1.5 0.0167077 0.00210023 
-3.74545 25.1626 0.697977 0 0 1.5 0.0162361 0.00268488 
-3.79083 24.8298 0.512825 0 0 1.5 0.015664 0.00345905 
-3.8362 24.497 0.327673 0 0 1.5 0.0141454 0.0059263 
-3.88158 24.1642 0.142522 0 0 1.5 0.0131568 0.0079874 
-3.92696 23.8314 -0.0426299 0 0 1.5 0.0119874 0.0111341 
-3.97233 23.4986 -0.227782 0 0 1.5 0.010617 0.0162774 
-4.01771 23.1658 -0.412933 0 0 1.5 0.00720621 0.0453538 
-4.06309 22.833 -0.598085 0 0 1.5 0.00514236 0.10014 
-4.10846 22.5002 -0.783237 0 0 1.5 0.00286799 0.359795 
-4.15384 22.1674 -0.968388 0 0 1.5 0.00314798 0.366348 
-4.19922 21.8346 -1.15354 0 0 1.5 0.00628673 0.101241 
-4.24459 21.5018 -1.33869 0 0 1.5 0.0097883 0.0457467 
-4.28997 21.169 -1.52384 0 0 1.5 0.013588 0.0257621 
-4.33535 20.8362 -1.70899 0 0 1.5 0.0219669 0.0113592 
-4.38072 20.5033 -1.89415 0 0 1.5 0.0264963 0.00823968 
-4.4261 20.1705 -2.0793 0 0 1.5 0.0311938 0.00613501 
-4.47148 19.8377 -2.26445 0 0 1.5 0.0360034 0.00463925 
-4.51685 19.5049 -2.4496 0 0 1.5 0.04572 0.00261543 
-4.56223 19.1721 -2.63475 0 0 1.5 0.0504709 0.00179538 
-4.60761 18.8393 -2.81991 0 0 1.5 0.0550203 0.0010355 
-4.65298 18.5065 -3.00506 0 0 1.5 0.0630977 -0.000474722 
-4.69836 18.1737 -3.19021 0 0 1.5 0.0663966 -0.00137723 
-4.74374 17.8409 -3.37536 0 0 1.5 0.0690381 -0.0024323 
-4.78911 17.5081 -3.56051 0 0 1.5 0.0709005 -0.00369295 
-4.83449 17.1753 -3.74566 0 0 1.5 0.0718567 -0.00738987 
-4.87987 16.8425 -3.93082 0 0 1.5 0.0707815 -0.0102107 
-4.92524 16.5097 -4.11597 0 0 1.5 0.0685749 -0.0141124 
-4.97062 16.1769 -4.30112 0 0 1.5 0.06519 -0.0197264 
-5.03209 15.8372 -4.46255 0 0 1.5 0.0549753 -0.0414931 
-5.1281 15.4827 -4.57311 0 0 1.5 0.0482588 -0.0641844 
-5.23305 15.128 -4.66863 0 0 1.5 0.0406512 -0.105952 
-5.37099 14.7724 -4.70864 0 0 1.5 0.0325771 -0.189795 
-5.51649 14.4195 -4.73532 0 0 1.5 0.020753 -0.593419 
-5.6834 14.0744 -4.72423 0 0 1.5 0.0235035 -0.509978 
-5.85736 13.7336 -4.70292 0 0 1.5 0.032898 -0.281908 
-6.04179 13.3993 -4.66645 0 0 1.5 0.0610697 -0.0908298 
-6.23131 13.0677 -4.63151 0 0 1.5 0.0776416 -0.0574275 
-6.42361 12.7376 -4.59787 0 0 1.5 0.0953243 -0.038135 
-6.61216 12.4036 -4.59702 0 0 1.5 0.113855 -0.0260269 
-6.78776 12.0663 -4.63221 0 0 1.5 0.152237 -0.0122165 
-6.94123 11.7275 -4.71619 0 0 1.5 0.1713 -0.00839482 
-7.05438 11.3934 -4.86682 0 0 1.5 0.189589 -0.00576396 
-7.10096 11.0826 -5.08546 0 0 1.5 0.206432 -0.0039632 
-7.10258 10.7908 -5.33132 0 0 1.5 0.232892 -0.00233739 
-7.07066 10.5132 -5.59308 0 0 1.5 0.241245 -0.00234976 
-6.99502 10.2525 -5.86406 0 0 1.5 0.24569 -0.00283487 
-6.89648 9.99847 -6.13313 0 0 1.5 0.242279 -0.00414911 
-6.77992 9.74964 -6.4007 0 0 1.5 0.234884 -0.00475191 
-6.63701 9.50691 -6.66067 0 0 1.5 0.224355 -0.00534643 
-6.48827 9.26553 -6.91895 0 0 1.5 0.211344 -0.00561911 
-6.31424 9.03146 -7.16798 0 0 1.5 0.180678 -0.00422327 
-6.13745 8.79878 -7.41627 0 0 1.5 0.164264 -0.00247781 
-5.94375 8.57483 -7.66004 0 0 1.5 0.147777 0.000288047 
-5.74627 8.35471 -7.90412 0 0 1.5 0.131557 0.00451621 
-5.53903 8.14454 -8.14902 0 0 1.5 0.100775 0.0197031 
-5.32856 7.94202 -8.39739 0 0 1.5 0.086448 0.032739 
-5.11428 7.74857 -8.6499 0 0 1.5 0.0728944 0.0520888 
-4.89983 7.56666 -8.91052 0 0 1.5 0.0482309 0.133664 
-4.6853 7.39028 -9.17502 0 0 1.5 0.0373367 0.22532 
-4.47578 7.22655 -9.45137 0 0 1.5 0.0279299 0.395358 
-4.26812 7.06505 -9.7304 0 0 1.5 0.0213295 0.648706 
-4.06756 6.90935 -10.0179 0 0 1.5 0.0246991 0.403923 
-3.87038 6.75309 -10.3073 0 0 1.5 0.0329948 0.194135 
-3.67868 6.59591 -10.6 0 0 1.5 0.0430593 0.0907051 
-3.49105 6.43339 -10.8923 0 0 1.5 0.0542174 0.0389848 
-3.30692 6.26626 -11.1842 0 0 1.5 0.07936 -0.00402212 
-3.12672 6.08841 -11.4722 0 0 1.5 0.0935063 -0.0132573 
-2.94892 5.90405 -11.7577 0 0 1.5 0.108944 -0.0191693 
-2.77514 5.70486 -12.0352 0 0 1.5 0.125928 -0.022951 
-2.60362 5.49733 -12.3084 0 0 1.5 0.165756 -0.0266383 
-2.43677 5.27294 -12.5704 0 0 1.5 0.189332 -0.0274786 
-2.27288 5.03791 -12.8253 0 0 1.5 0.215929 -0.0278953 
-2.11491 4.78494 -13.0656 0 0 1.5 0.280132 -0.0276325 
-1.96117 4.5191 -13.2954 0 0 1.5 0.31869 -0.0269939 
-1.8156 4.23299 -13.5038 0 0 1.5 0.362055 -0.0260581 
-1.67534 3.9337 -13.6984 0 0 1.5 0.410352 -0.0248125 
-1.54848 3.60802 -13.8537 0 0 1.5 0.519625 -0.0207284 
-1.42818 3.27092 -13.9891 0 0 1.5 0.577431 -0.0178447 
-1.33041 2.90511 -14.0502 0 0 1.5 0.633518 -0.0146333 
-1.25599 2.53451 -14.031 0 0 1.5 0.683619 -0.0109739 
-1.21291 2.18215 -13.9097 0 0 1.5 0.746329 -0.00263435 
-1.20675 1.88292 -13.678 0 0 1.5 0.75141 0.0010152 
-1.23399 1.66694 -13.3622 0 0 1.5 0.737641 0.00399638 
-1.28559 1.53929 -13.0059 0 0 1.5 0.664349 0.00736015 
-1.34716 1.44882 -12.6401 0 0 1.5 0.613921 0.00713234 
-1.42049 1.40269 -12.2665 0 0 1.5 0.560459 0.00571158 
-1.50571 1.38872 -11.8936 0 0 1.5 0.507349 0.00325532 
-1.59742 1.39227 -11.5213 0 0 1.5 0.410034 -0.00414386 
-1.70628 1.42447 -11.1554 0 0 1.5 0.367597 -0.00901884 
-1.82041 1.4655 -10.7915 0 0 1.5 0.329481 -0.014796 
-1.95725 1.53273 -10.4401 0 0 1.5 0.295401 -0.0212869 
-2.09944 1.60613 -10.0915 0 0 1.5 0.237707 -0.0365224 
-2.26867 1.70672 -9.76286 0 0 1.5 0.213206 -0.0461859 
-2.44269 1.81213 -9.43774 0 0 1.5 0.191036 -0.0575296 
-2.64433 1.94899 -9.14195 0 0 1.5 0.15234 -0.0873269 
-2.84893 2.08965 -8.84979 0 0 1.5 0.135276 -0.108744 
-3.07305 2.26545 -8.59296 0 0 1.5 0.119468 -0.137058 
-3.29789 2.447 -8.34146 0 0 1.5 0.104833 -0.175121 
-3.52663 2.65919 -8.11841 0 0 1.5 0.0793036 -0.302539 
-3.75195 2.88075 -7.90192 0 0 1.5 0.068977 -0.404184 
-3.96835 3.12674 -7.70253 0 0 1.5 0.0612015 -0.525519 
-4.17469 3.38311 -7.50649 0 0 1.5 0.0571373 -0.626705 
-4.36427 3.65676 -7.31603 0 0 1.5 0.0639199 -0.57204 
-4.53696 3.93845 -7.12241 0 0 1.5 0.0746523 -0.462135 
-4.68937 4.22981 -6.92498 0 0 1.5 0.0893092 -0.363692 
-4.81914 4.52321 -6.71617 0 0 1.5 0.107301 -0.290429 
-4.9287 4.81843 -6.49722 0 0 1.5 0.152444 -0.204284 
-5.01093 5.10516 -6.25771 0 0 1.5 0.179653 -0.180469 
-5.07648 5.38671 -6.00565 0 0 1.5 0.210079 -0.164667 
-5.11059 5.64185 -5.7228 0 0 1.5 0.280488 -0.148423 
-5.13487 5.88873 -5.43029 0 0 1.5 0.319844 -0.145117 
-5.1246 6.07741 -5.09672 0 0 1.5 0.360785 -0.143828 
-5.10583 6.23893 -4.75221 0 0 1.5 0.401642 -0.143839 
-5.06872 6.33944 -4.38395 0 0 1.5 0.473448 -0.144395 
-5.02162 6.36031 -4.00727 0 0 1.5 0.498531 -0.143419 
-4.97044 6.32582 -3.63182 0 0 1.5 0.512806 -0.141032 
-4.91869 6.19806 -3.27391 0 0 1.5 0.514937 -0.137003 
-4.87276 6.00244 -2.95125 0 0 1.5 0.484833 -0.123755 
-4.83047 5.76988 -2.65044 0 0 1.5 0.456704 -0.115339 
-4.79736 5.47866 -2.40307 0 0 1.5 0.423664 -0.106507 
-4.76703 5.17272 -2.17593 0 0 1.5 0.353105 -0.0881989 
-4.741 4.84389 -1.98025 0 0 1.5 0.319156 -0.0790725 
-4.71654 4.5041 -1.80534 0 0 1.5 0.287468 -0.0701662 
-4.69336 4.15539 -1.64736 0 0 1.5 0.258479 -0.0612525 
-4.67021 3.80039 -1.50463 0 0 1.5 0.208851 -0.0424915 
-4.64708 3.44153 -1.37127 0 0 1.5 0.187922 -0.0325172 
-4.62401 3.0792 -1.2479 0 0 1.5 0.169266 -0.0216572 
-4.60098 2.715 -1.12989 0 0 1.5 0.152613 -0.00934822 
-4.58032 2.34828 -1.01965 0 0 1.5 0.124245 0.0207672 
-4.56067 1.98048 -0.912714 0 0 1.5 0.112041 0.0399609 
-4.54864 1.60962 -0.815872 0 0 1.5 0.100888 0.0637015 
-4.53857 1.238 -0.721588 0 0 1.5 0.0906311 0.0934305 
-4.54406 0.862134 -0.645485 0 0 1.5 0.0724289 0.180382 
-4.5553 0.485181 -0.577289 0 0 1.5 0.0644648 0.245664 
-4.58003 0.105671 -0.527709 0 0 1.5 0.0574025 0.330763 
-4.615 -0.274744 -0.498152 0 0 1.5 0.0472918 0.545246 
-4.65575 -0.65567 -0.479912 0 0 1.5 0.0452401 0.629152 
-4.70199 -1.03626 -0.490346 0 0 1.5 0.045821 0.648275 
-4.74487 -1.41687 -0.507432 0 0 1.5 0.0491397 0.596665 
-4.78152 -1.79752 -0.536853 0 0 1.5 0.0626051 0.415565 
-4.8006 -2.17895 -0.569765 0 0 1.5 0.0717685 0.338074 
-4.81118 -2.56078 -0.604365 0 0 1.5 0.0820053 0.277579 
-4.78169 -2.9423 -0.629291 0 0 1.5 0.0930069 0.231714 
-4.73811 -3.32209 -0.647932 0 0 1.5 0.116246 0.17091 
-4.65657 -3.69686 -0.649025 0 0 1.5 0.127994 0.150444 
-4.5487 -4.0632 -0.633538 0 0 1.5 0.139497 0.13413 
-4.41513 -4.42133 -0.601886 0 0 1.5 0.160659 0.109522 
-4.25054 -4.76188 -0.545116 0 0 1.5 0.169786 0.0994268 
-4.07276 -5.09496 -0.477665 0 0 1.5 0.17763 0.0899796 
-3.86864 -5.40455 -0.382065 0 0 1.5 0.183984 0.0807695 
-3.65869 -5.70893 -0.280224 0 0 1.5 0.191679 0.062255 
-3.43121 -5.98901 -0.151281 0 0 1.5 0.192958 0.0524471 
-3.20075 -6.26497 -0.0177323 0 0 1.5 0.192587 0.041906 
-2.96109 -6.5186 0.140661 0 0 1.5 0.19069 0.0307862 
-2.7196 -6.76782 0.303984 0 0 1.5 0.183103 0.00697459 
-2.47517 -6.99635 0.490747 0 0 1.5 0.177869 -0.00625941 
-2.23002 -7.21972 0.683362 0 0 1.5 0.17199 -0.0201148 
-1.98681 -7.42181 0.89983 0 0 1.5 0.159219 -0.0486779 
-1.7441 -7.61862 1.12221 0 0 1.5 0.152741 -0.0637364 
-1.50815 -7.78999 1.37095 0 0 1.5 0.146436 -0.0787545 
-1.27381 -7.95593 1.62498 0 0 1.5 0.140448 -0.0929467 
-1.05009 -8.09151 1.90545 0 0 1.5 0.129866 -0.117893 
-0.830223 -8.21477 2.19379 0 0 1.5 0.125413 -0.127649 
-0.617592 -8.31493 2.49686 0 0 1.5 0.121563 -0.1346 
-0.408251 -8.38825 2.80927 0 0 1.5 0.118311 -0.138311 
-0.198481 -8.44498 3.12497 0 0 1.5 0.113422 -0.135062 
0.0184363 -8.4726 3.44006 0 0 1.5 0.111627 -0.128341 
0.252097 -8.47784 3.74348 0 0 1.5 0.110129 -0.118299 
0.500268 -8.46765 4.0349 0 0 1.5 0.108803 -0.104985 
0.775432 -8.43673 4.30028 0 0 1.5 0.106163 -0.072722 
1.07298 -8.39358 4.53698 0 0 1.5 0.104634 -0.0545954 
1.38261 -8.34403 4.75747 0 0 1.5 0.102847 -0.0347881 
1.71381 -8.28499 4.94163 0 0 1.5 0.0982505 0.0059252 
2.04951 -8.22381 5.11611 0 0 1.5 0.0953915 0.0261634 
2.39363 -8.15859 5.27239 0 0 1.5 0.0921618 0.0468152 
2.73989 -8.09044 5.42239 0 0 1.5 0.088587 0.0672656 
3.08833 -8.01932 5.56604 0 0 1.5 0.0805651 0.105046 
3.43502 -7.9434 5.71136 0 0 1.5 0.0762217 0.122241 
3.78038 -7.8638 5.85794 0 0 1.5 0.0717287 0.138254 
4.11897 -7.77624 6.01494 0 0 1.5 0.0671268 0.153125 
4.45329 -7.68364 6.17851 0 0 1.5 0.0577208 0.178959 
4.77354 -7.57873 6.36077 0 0 1.5 0.0529578 0.19171 
5.08744 -7.46827 6.55145 0 0 1.5 0.0481713 0.207803 
5.37729 -7.34065 6.76704 0 0 1.5 0.038584 0.259512 
5.66174 -7.20919 6.98816 0 0 1.5 0.0338379 0.306726 
5.91413 -7.05781 7.23408 0 0 1.5 0.0292335 0.3834 
6.16105 -6.90304 7.48306 0 0 1.5 0.024954 0.503568 
6.38789 -6.73584 7.74322 0 0 1.5 0.0189068 0.855502 
6.6103 -6.56472 8.00457 0 0 1.5 0.0183963 0.907568 
6.82656 -6.38817 8.26755 0 0 1.5 0.0201572 0.758231 
7.04677 -6.21071 8.52658 0 0 1.5 0.0238926 0.535799 
7.26949 -6.03268 8.78308 0 0 1.5 0.0351981 0.22602 
7.50781 -5.86073 9.02931 0 0 1.5 0.0421073 0.14115 
7.75039 -5.69044 9.27274 0 0 1.5 0.0496747 0.0828188 
8.0169 -5.53623 9.50125 0 0 1.5 0.0667351 0.0138204 
8.28633 -5.38448 9.72798 0 0 1.5 0.0762826 -0.00699713 
8.57782 -5.25601 9.94158 0 0 1.5 0.0865906 -0.0229725 
8.87153 -5.13151 10.1542 0 0 1.5 0.0977432 -0.0348281 
9.17932 -5.03225 10.3604 0 0 1.5 0.122873 -0.0491748 
9.48841 -4.93875 10.5669 0 0 1.5 0.136977 -0.0537742 
9.80334 -4.87093 10.775 0 0 1.5 0.152163 -0.0569559 
10.1176 -4.81072 10.986 0 0 1.5 0.168416 -0.0587118 
10.4296 -4.776 11.2064 0 0 1.5 0.203689 -0.0595491 
10.7367 -4.75271 11.4339 0 0 1.5 0.222248 -0.0590057 
11.0338 -4.75366 11.6765 0 0 1.5 0.240917 -0.0578496 
11.3158 -4.77468 11.9339 0 0 1.5 0.259123 -0.0561131 
11.5828 -4.8158 12.2062 0 0 1.5 0.291095 -0.0511028 
11.8099 -4.89412 12.5037 0 0 1.5 0.303141 -0.0482139 
12.0112 -4.99319 12.8124 0 0 1.5 0.31145 -0.0450454 
12.1574 -5.13244 13.1385 0 0 1.5 0.314385 -0.0380278 
12.2431 -5.30794 13.4658 0 0 1.5 0.30858 -0.0347715 
12.287 -5.50693 13.7884 0 0 1.5 0.29825 -0.0317587 
12.2742 -5.73547 14.0962 0 0 1.5 0.283988 -0.02899 
12.2214 -5.98372 14.3821 0 0 1.5 0.246925 -0.0251968 
12.1502 -6.2412 14.6569 0 0 1.5 0.225931 -0.0244429 
12.0483 -6.51525 14.9051 0 0 1.5 0.20433 -0.0245385 
11.9402 -6.79355 15.1454 0 0 1.5 0.182702 -0.0256676 
11.8207 -7.07993 15.3708 0 0 1.5 0.14104 -0.0323634 
11.6971 -7.37046 15.5884 0 0 1.5 0.121491 -0.0392328 
11.5697 -7.665 15.7984 0 0 1.5 0.10294 -0.0500974 
11.4408 -7.96242 16.0033 0 0 1.5 0.0689042 -0.0976459 
11.3108 -8.2617 16.2049 0 0 1.5 0.0534062 -0.154183 
11.1812 -8.56205 16.4051 0 0 1.5 0.0389528 -0.276373 
11.0517 -8.86292 16.6046 0 0 1.5 0.0257459 -0.604623 
10.9245 -9.1629 16.8069 0 0 1.5 0.0114774 -2.77795 
10.7981 -9.46257 17.0102 0 0 1.5 0.0185296 -1.01525 
10.6772 -9.75902 17.2213 0 0 1.5 0.0284073 -0.410498 
10.5577 -10.0547 17.4344 0 0 1.5 0.0384292 -0.212107 
10.4492 -10.3439 17.6616 0 0 1.5 0.056962 -0.0841494 
10.342 -10.6323 17.8906 0 0 1.5 0.0651338 -0.0593385 
10.2545 -10.909 18.1414 0 0 1.5 0.0724327 -0.0437313 
10.1705 -11.1834 18.3955 0 0 1.5 0.0787463 -0.0331993 
10.1108 -11.4421 18.6722 0 0 1.5 0.0880249 -0.0204253 
10.0601 -11.6944 18.9557 0 0 1.5 0.0908776 -0.016394 
10.036 -11.9276 19.2592 0 0 1.5 0.0924878 -0.0132704 
10.0254 -12.1497 19.5706 0 0 1.5 0.0920059 -0.00885812 
10.0419 -12.3498 19.8973 0 0 1.5 0.0900491 -0.00727871 
10.0584 -12.55 20.2241 0 0 1.5 0.0870791 -0.00599134 
10.0749 -12.7501 20.5509 0 0 1.5 0.0832177 -0.0049221 
10.0914 -12.9502 20.8777 0 0 1.5 0.0734079 -0.00322673 
10.1079 -13.1503 21.2044 0 0 1.5 0.0677654 -0.00255459 
10.1244 -13.3504 21.5312 0 0 1.5 0.0618281 -0.00195232 
10.1409 -13.5505 21.858 0 0 1.5 0.0557236 -0.00137374 
10.1574 -13.7506 22.1848 0 0 1.5 0.0434719 -0.000234023 
10.1739 -13.9507 22.5116 0 0 1.5 0.0375285 0.000397226 
10.1904 -14.1508 22.8383 0 0 1.5 0.0318042 0.0011883 
10.2069 -14.3509 23.1651 0 0 1.5 0.0212305 0.00376612 
10.2234 -14.551 23.4919 0 0 1.5 0.0164778 0.00626457 
10.2399 -14.7511 23.8187 0 0 1.5 0.012115 0.0111175 
10.2564 -14.9512 24.1454 0 0 1.5 0.0081604 0.0226954 
10.2729 -15.1513 24.4722 0 0 1.5 0.0018686 0.342062 
10.2894 -15.3514 24.799 0 0 1.5 0.00204673 0.246822 
10.3059 -15.5515 25.1258 0 0 1.5 0.00414665 0.0512354 
10.3224 -15.7516 25.4525 0 0 1.5 0.00608387 0.0199607 
10.3389 -15.9518 25.7793 0 0 1.5 0.00897271 0.00620174 
10.3554 -16.1519 26.1061 0 0 1.5 0.00993496 0.0040827 
10.3719 -16.352 26.4329 0 0 1.5 0.010602 0.00286226 
10.3884 -16.5521 26.7597 0 0 1.5 0.0111466 0.00158902 
10.4049 -16.7522 27.0864 0 0 1.5 0.0110793 0.00123305 
10.4214 -16.9523 27.4132 0 0 1.5 0.0108237 0.000979035 
10.4379 -17.1524 27.74 0 0 1.5 0.0104078 0.000790536 
10.4544 -17.3525 28.0668 0 0 1.5 0.00919944 0.000526755 
10.4709 -17.5526 28.3935 0 0 1.5 0.00845869 0.000435602 
10.4874 -17.7527 28.7203 0 0 1.5 0.00766039 0.000360543 
10.5039 -17.9528 29.0471 0 0 1.5 0.00682416 0.000292492 
10.5204 -18.1529 29.3739 0 0 1.5 0.00511163 0.000170119 
10.5369 -18.353 29.7006 0 0 1.5 0.00427104 0.000106126 
10.5534 -18.5531 30.0274 0 0 1.5 0.003458 2.10425e-05 
10.5699 -18.7532 30.3542 0 0 1.5 0.00268262 -0.000107894 
10.5864 -18.9533 30.681 0 0 1.5 0.00128751 -0.000911673 
10.6029 -19.1534 31.0078 0 0 1.5 0.00069173 -0.00319442 
10.6194 -19.3536 31.3345 0 0 1.5 0.000268246 0 
10.6359 -19.5537 31.6613 0 0 1.5 0.000888613 -0.00126887 
10.6524 -19.7538 31.9881 0 0 1.5 0.00125365 -0.000489439 
10.6689 -19.9539 32.3149 0 0 1.5 0.0015668 -0.000221862 
10.6854 -20.154 32.6416 0 0 1.5 0.00182704 -0.000102922 
10.7019 -20.3541 32.9684 0 0 1.5 0.00219843 -3.70996e-06 
10.7184 -20.5542 33.2952 0 0 1.5 0.00231871 1.93769e-05 
10.7349 -20.7543 33.622 0 0 1.5 0.00240205 3.35103e-05 
10.7514 -20.9544 33.9488 0 0 1.5 0.00245348 4.27337e-05 
10.7679 -21.1545 34.2755 0 0 1.5 0.00247997 5.4401e-05 
10.7844 -21.3546 34.6023 0 0 1.5 0.00246467 5.68546e-05 
10.8009 -21.5547 34.9291 0 0 1.5 0.0024365 5.7796e-05 
10.8174 -21.7548 35.2559 0 0 1.5 0.00235519 5.72265e-05 
10.8339 -21.9549 35.5826 0 0 1.5 0.00230846 5.49579e-05 
10.8504 -22.155 35.9094 0 0 1.5 0.00226162 5.16669e-05 
10.8669 -22.3551 36.2362 0 0 1.5 0.00221616 4.7997e-05 
10.8834 -22.5552 36.563 0 0 1.5 0.00213406 3.90613e-05 
10.8999 -22.7554 36.8897 0 0 1.5 0.0020995 3.4081e-05 
10.9164 -22.9555 37.2165 0 0 1.5 0.00206949 2.94035e-05 
10.9329 -23.1556 37.5433 0 0 1.5 0.00204369 2.51272e-05 
10.9494 -23.3557 37.8701 0 0 1.5 0.0020033 1.81745e-05 
10.9659 -23.5558 38.1969 0 0 1.5 0.0019876 1.57556e-05 
10.9824 -23.7559 38.5236 0 0 1.5 0.00197386 1.41519e-05 
0 1 0 
1 2 0 
2 3 0 
3 4 0 
4 5 0 
5 6 0 
6 7 0 
7 8 0 
8 9 0 
9 10 0 
10 11 0 
11 12 0 
12 13 0 
13 14 0 
14 15 0 
15 16 0 
16 17 0 
17 18 0 
18 19 0 
19 20 0 
20 21 0 
21 22 0 
22 23 0 
23 24 0 
24 25 0 
25 26 0 
26 27 0 
27 28 0 
28 29 0 
29 30 0 
30 31 0 
31 32 0 
32 33 0 
33 34 0 
34 35 0 
35 36 0 
36 37 0 
37 38 0 
38 39 0 
39 40 0 
40 41 0 
41 42 0 
42 43 0 
43 44 0 
44 45 0 
45 46 0 
46 47 0 
47 48 0 
48 49 0 
49 50 0 
50 51 0 
51 52 0 
52 53 0 
53 54 0 
54 55 0 
55 56 0 
56 57 0 
57 58 0 
58 59 0 
59 60 0 
60 61 0 
61 62 0 
62 63 0 
63 64 0 
64 65 0 
65 66 0 
66 67 0 
67 68 0 
68 69 0 
69 70 0 
70 71 0 
71 72 0 
72 73 0 
73 74 0 
74 75 0 
75 76 0 
76 77 0 
77 78 0 
78 79 0 
79 80 0 
80 81 0 
81 82 0 
82 83 0 
83 84 0 
84 85 0 
85 86 0 
86 87 0 
87 88 0 
88 89 0 
89 90 0 
90 91 0 
91 92 0 
92 93 0 
93 94 0 
94 95 0 
95 96 0 
96 97 0 
97 98 0 
98 99 0 
99 100 0 
100 101 0 
101 102 0 
102 103 0 
103 104 0 
104 105 0 
105 106 0 
106 107 0 
107 108 0 
108 109 0 
109 110 0 
110 111 0 
111 112 0 
112 113 0 
113 114 0 
114 115 0 
115 116 0 
116 117 0 
117 118 0 
118 119 0 
119 120 0 
120 121 0 
121 122 0 
122 123 0 
123 124 0 
124 125 0 
125 126 0 
126 127 0 
127 128 0 
128 129 0 
129 130 0 
130 131 0 
131 132 0 
132 133 0 
133 134 0 
134 135 0 
135 136 0 
136 137 0 
137 138 0 
138 139 0 
139 140 0 
140 141 0 
141 142 0 
142 143 0 
143 144 0 
144 145 0 
145 146 0 
146 147 0 
147 148 0 
148 149 0 
149 150 0 
150 151 0 
151 152 0 
152 153 0 
153 154 0 
154 155 0 
155 156 0 
156 157 0 
157 158 0 
158 159 0 
159 160 0 
160 161 0 
161 162 0 
162 163 0 
163 164 0 
164 165 0 
165 166 0 
166 167 0 
167 168 0 
168 169 0 
169 170 0 
170 171 0 
171 172 0 
172 173 0 
173 174 0 
174 175 0 
175 176 0 
176 177 0 
177 178 0 
178 179 0 
179 180 0 
180 181 0 
181 182 0 
182 183 0 
183 184 0 
184 185 0 
185 186 0 
186 187 0 
187 188 0 
188 189 0 
189 190 0 
190 191 0 
191 192 0 
192 193 0 
193 194 0 
194 195 0 
195 196 0 
196 197 0 
197 198 0 
198 199 0 
199 200 0 
200 201 0 
201 202 0 
202 203 0 
203 204 0 
204 205 0 
205 206 0 
206 207 0 
207 208 0 
208 209 0 
209 210 0 
210 211 0 
211 212 0 
212 213 0 
213 214 0 
214 215 0 
215 216 0 
216 217 0 
217 218 0 
218 219 0 
219 220 0 
220 221 0 
221 222 0 
222 223 0 
223 224 0 
224 225 0 
225 226 0 
226 227 0 
227 228 0 
228 229 0 
229 230 0 
230 231 0 
231 232 0 
232 233 0 
233 234 0 
234 235 0 
235 236 0 
236 237 0 
237 238 0 
238 239 0 
239 240 0 
240 241 0 
241 242 0 
242 243 0 
243 244 0 
244 245 0 
245 246 0 
246 247 0 
247 248 0 
248 249 0 
249 250 0 
250 251 0 
251 252 0 
252 253 0 
253 254 0 
254 255 0 
255 256 0 
256 257 0 
257 258 0 
258 259 0 
259 260 0 
260 261 0 
261 262 0 
262 263 0 
263 264 0 
264 265 0 
265 266 0 
266 267 0 
267 268 0 
268 269 0 
269 270 0 
270 271 0 
271 272 0 
272 273 0 
273 274 0 
274 275 0 
275 276 0 
276 277 0 
277 278 0 
278 279 0 
279 280 0 
280 281 0 
281 282 0 
282 283 0 
283 284 0 
284 285 0 
285 286 0 
286 287 0 
287 288 0 
288 289 0 
289 290 0 
290 291 0 
291 292 0 
292 293 0 
293 294 0 
294 295 0 
295 296 0 
296 297 0 
297 298 0 
298 299 0 
-1 -1 0 
-1 300 0 1 2 3 4 5 6 7 8 9 10 11 12 13 14 15 16 17 18 19 20 21 22 23 24 25 26 27 28 29 30 31 32 33 34 35 36 37 38 39 40 41 42 43 44 45 46 47 48 49 50 51 52 53 54 55 56 57 58 59 60 61 62 63 64 65 66 67 68 69 70 71 72 73 74 75 76 77 78 79 80 81 82 83 84 85 86 87 88 89 90 91 92 93 94 95 96 97 98 99 100 101 102 103 104 105 106 107 108 109 110 111 112 113 114 115 116 117 118 119 120 121 122 123 124 125 126 127 128 129 130 131 132 133 134 135 136 137 138 139 140 141 142 143 144 145 146 147 148 149 150 151 152 153 154 155 156 157 158 159 160 161 162 163 164 165 166 167 168 169 170 171 172 173 174 175 176 177 178 179 180 181 182 183 184 185 186 187 188 189 190 191 192 193 194 195 196 197 198 199 200 201 202 203 204 205 206 207 208 209 210 211 212 213 214 215 216 217 218 219 220 221 222 223 224 225 226 227 228 229 230 231 232 233 234 235 236 237 238 239 240 241 242 243 244 245 246 247 248 249 250 251 252 253 254 255 256 257 258 259 260 261 262 263 264 265 266 267 268 269 270 271 272 273 274 275 276 277 278 279 280 281 282 283 284 285 286 287 288 289 290 291 292 293 294 295 296 297 298 299 
