ply
format ascii 1.0
comment written by koba@oshima.lab
element vertex 300
property float x
property float y
property float z
property int label
property int attribute
property float radius
property float curvature
property float torsion
element edge 300
property int vertex1
property int vertex2
property int label
element vertex_seq 1
property int label
property list int int vertex_indices
end_header
2.90333 26.5736 3.39034 0 0 1.5 0.0415924 -0.0037074 
2.77986 26.3152 3.18893 0 0 1.5 0.0408793 -0.00384266 
2.65639 26.0568 2.98752 0 0 1.5 0.0401534 -0.00403467 
2.53292 25.7984 2.7861 0 0 1.5 0.0394086 -0.00428926 
2.40945 25.54 2.58469 0 0 1.5 0.0378376 -0.00501405 
2.28598 25.2817 2.38328 0 0 1.5 0.036996 -0.00550193 
2.16251 25.0233 2.18186 0 0 1.5 0.0361047 -0.00609284 
2.03903 24.7649 1.98045 0 0 1.5 0.0351545 -0.00680742 
1.91556 24.5065 1.77904 0 0 1.5 0.0330332 -0.00870073 
1.79209 24.2482 1.57762 0 0 1.5 0.0318325 -0.00997072 
1.66862 23.9898 1.37621 0 0 1.5 0.0305187 -0.0115583 
1.54515 23.7314 1.1748 0 0 1.5 0.0290762 -0.0135707 
1.42168 23.473 0.973384 0 0 1.5 0.0257295 -0.0196923 
1.29821 23.2146 0.771971 0 0 1.5 0.0237868 -0.0246052 
1.17474 22.9563 0.570558 0 0 1.5 0.0216391 -0.031785 
1.05127 22.6979 0.369144 0 0 1.5 0.0166564 -0.0615571 
0.927795 22.4395 0.167731 0 0 1.5 0.0137864 -0.0966148 
0.804324 22.1811 -0.0336822 0 0 1.5 0.0106461 -0.174549 
0.680853 21.9227 -0.235095 0 0 1.5 0.00724567 -0.406456 
0.557382 21.6644 -0.436509 0 0 1.5 0.00200208 -6.23194 
0.433911 21.406 -0.637922 0 0 1.5 0.0056334 -0.852712 
0.31044 21.1476 -0.839335 0 0 1.5 0.0102991 -0.275731 
0.186969 20.8892 -1.04075 0 0 1.5 0.015394 -0.133133 
0.0634978 20.6308 -1.24216 0 0 1.5 0.026692 -0.0510713 
-0.0599733 20.3725 -1.44357 0 0 1.5 0.0328624 -0.0357154 
-0.183444 20.1141 -1.64499 0 0 1.5 0.0393531 -0.0261119 
-0.306915 19.8557 -1.8464 0 0 1.5 0.0532056 -0.0149681 
-0.430387 19.5973 -2.04781 0 0 1.5 0.060483 -0.011269 
-0.553858 19.339 -2.24923 0 0 1.5 0.0679069 -0.00824154 
-0.677329 19.0806 -2.45064 0 0 1.5 0.0753989 -0.00566666 
-0.8008 18.8222 -2.65205 0 0 1.5 0.0901858 -0.000979415 
-0.924271 18.5638 -2.85347 0 0 1.5 0.0972202 0.00136231 
-1.04774 18.3054 -3.05488 0 0 1.5 0.103816 0.00378528 
-1.17121 18.0471 -3.25629 0 0 1.5 0.109811 0.00640798 
-1.29468 17.7887 -3.45771 0 0 1.5 0.119311 0.0127025 
-1.41816 17.5303 -3.65912 0 0 1.5 0.122479 0.016585 
-1.54163 17.2719 -3.86053 0 0 1.5 0.12439 0.021141 
-1.71915 17.0357 -4.04695 0 0 1.5 0.124941 0.0265659 
-1.90836 16.8048 -4.2291 0 0 1.5 0.121707 0.041392 
-2.14141 16.597 -4.38739 0 0 1.5 0.11788 0.0516888 
-2.38426 16.395 -4.53672 0 0 1.5 0.11265 0.0647487 
-2.65058 16.2071 -4.66455 0 0 1.5 0.0983989 0.105543 
-2.92733 16.0254 -4.77666 0 0 1.5 0.0896323 0.138764 
-3.21487 15.8502 -4.87251 0 0 1.5 0.0800122 0.187248 
-3.51025 15.6786 -4.9474 0 0 1.5 0.0697684 0.262265 
-3.80956 15.5088 -5.01183 0 0 1.5 0.0487895 0.597774 
-4.1125 15.3384 -5.05247 0 0 1.5 0.039511 0.954894 
-4.41619 15.1679 -5.08821 0 0 1.5 0.0332838 1.40778 
-4.7188 14.9923 -5.10095 0 0 1.5 0.0328727 1.51213 
-5.02058 14.8152 -5.11098 0 0 1.5 0.0505748 0.707021 
-5.31862 14.6315 -5.10947 0 0 1.5 0.0647635 0.456977 
-5.61404 14.4437 -5.10759 0 0 1.5 0.080746 0.313949 
-5.90584 14.2503 -5.1052 0 0 1.5 0.116138 0.178067 
-6.19219 14.0493 -5.11545 0 0 1.5 0.134955 0.145125 
-6.47476 13.8444 -5.13705 0 0 1.5 0.154141 0.123721 
-6.74853 13.6329 -5.19101 0 0 1.5 0.173346 0.109741 
-7.00773 13.4212 -5.28968 0 0 1.5 0.210061 0.0953399 
-7.24885 13.2138 -5.43104 0 0 1.5 0.226456 0.0927054 
-7.46717 13.0147 -5.61825 0 0 1.5 0.240692 0.0920689 
-7.64464 12.836 -5.86147 0 0 1.5 0.252166 0.0928481 
-7.79607 12.6709 -6.12899 0 0 1.5 0.264861 0.0980834 
-7.92854 12.5152 -6.41287 0 0 1.5 0.265518 0.102182 
-8.03216 12.3721 -6.71508 0 0 1.5 0.262439 0.106893 
-8.12144 12.2325 -7.02309 0 0 1.5 0.246563 0.118814 
-8.19719 12.0962 -7.33657 0 0 1.5 0.234856 0.126363 
-8.25142 11.9606 -7.65457 0 0 1.5 0.221494 0.135146 
-8.29872 11.8249 -7.97374 0 0 1.5 0.207115 0.145623 
-8.31903 11.6859 -8.29443 0 0 1.5 0.177488 0.173864 
-8.32874 11.545 -8.61437 0 0 1.5 0.163183 0.192502 
-8.31568 11.3998 -8.93269 0 0 1.5 0.149756 0.214789 
-8.28127 11.2502 -9.24677 0 0 1.5 0.137561 0.240937 
-8.23134 11.0973 -9.55775 0 0 1.5 0.11836 0.300554 
-8.15058 10.9372 -9.85809 0 0 1.5 0.112217 0.327386 
-8.06116 10.7747 -10.1549 0 0 1.5 0.108989 0.344836 
-7.94385 10.6034 -10.4368 0 0 1.5 0.109083 0.347552 
-7.8196 10.4284 -10.713 0 0 1.5 0.120245 0.30684 
-7.68007 10.2452 -10.9767 0 0 1.5 0.131435 0.273103 
-7.53438 10.0551 -11.2317 0 0 1.5 0.146325 0.238631 
-7.38186 9.85726 -11.477 0 0 1.5 0.187392 0.180041 
-7.22622 9.64896 -11.711 0 0 1.5 0.21391 0.157484 
-7.06842 9.43344 -11.9374 0 0 1.5 0.244799 0.139059 
-6.91083 9.20362 -12.1489 0 0 1.5 0.280409 0.124064 
-6.75333 8.96746 -12.3538 0 0 1.5 0.36672 0.100953 
-6.59914 8.71181 -12.5361 0 0 1.5 0.417112 0.0915611 
-6.44599 8.45077 -12.7118 0 0 1.5 0.471162 0.0829733 
-6.29944 8.16473 -12.8507 0 0 1.5 0.526762 0.0744836 
-6.15762 7.86747 -12.9649 0 0 1.5 0.627354 0.0556345 
-6.02232 7.55469 -13.0452 0 0 1.5 0.662009 0.0449197 
-5.90724 7.22438 -13.039 0 0 1.5 0.679379 0.0332419 
-5.81934 6.90244 -12.9485 0 0 1.5 0.653331 0.00817574 
-5.7707 6.61499 -12.7656 0 0 1.5 0.613388 -0.00392406 
-5.7632 6.37975 -12.5118 0 0 1.5 0.561881 -0.0154066 
-5.78855 6.19381 -12.217 0 0 1.5 0.504366 -0.0263911 
-5.84702 6.06051 -11.8986 0 0 1.5 0.388746 -0.0472183 
-5.92254 5.95092 -11.5756 0 0 1.5 0.336013 -0.0579985 
-6.00838 5.85535 -11.2499 0 0 1.5 0.288231 -0.0701391 
-6.11264 5.77707 -10.925 0 0 1.5 0.245584 -0.0845064 
-6.2211 5.69957 -10.6013 0 0 1.5 0.17472 -0.125435 
-6.3378 5.6236 -10.2801 0 0 1.5 0.14567 -0.157023 
-6.45725 5.54154 -9.96146 0 0 1.5 0.120323 -0.201625 
-6.5786 5.4553 -9.64458 0 0 1.5 0.0797392 -0.361402 
-6.69548 5.35257 -9.33104 0 0 1.5 0.0645775 -0.49589 
-6.80911 5.24355 -9.01853 0 0 1.5 0.0534418 -0.659015 
-6.90806 5.11407 -8.70866 0 0 1.5 0.0471195 -0.781377 
-6.99261 4.97331 -8.40004 0 0 1.5 0.0492627 -0.630247 
-7.06179 4.8205 -8.09273 0 0 1.5 0.0553093 -0.479156 
-7.0957 4.65217 -7.788 0 0 1.5 0.062723 -0.36283 
-7.11095 4.47867 -7.48507 0 0 1.5 0.0705911 -0.283345 
-7.09272 4.29813 -7.18566 0 0 1.5 0.0856647 -0.196964 
-7.04161 4.11607 -6.8918 0 0 1.5 0.0923077 -0.175174 
-6.9724 3.93362 -6.60141 0 0 1.5 0.0981346 -0.161798 
-6.86809 3.75299 -6.32023 0 0 1.5 0.103018 -0.154613 
-6.74978 3.5732 -6.04453 0 0 1.5 0.109633 -0.152731 
-6.6166 3.39432 -5.77465 0 0 1.5 0.111337 -0.156151 
-6.46984 3.21381 -5.51313 0 0 1.5 0.111993 -0.161892 
-6.31943 3.03217 -5.2544 0 0 1.5 0.110397 -0.178431 
-6.16456 2.84398 -5.00306 0 0 1.5 0.108351 -0.18833 
-6.01176 2.65129 -4.75397 0 0 1.5 0.105637 -0.198778 
-5.86245 2.45103 -4.50867 0 0 1.5 0.102386 -0.209431 
-5.72213 2.2412 -4.26628 0 0 1.5 0.0948079 -0.229231 
-5.58688 2.02598 -4.02553 0 0 1.5 0.0907274 -0.236703 
-5.46959 1.7965 -3.78867 0 0 1.5 0.0865872 -0.241977 
-5.35829 1.5628 -3.55317 0 0 1.5 0.0824555 -0.244913 
-5.26384 1.31783 -3.32157 0 0 1.5 0.0743825 -0.240241 
-5.17897 1.06669 -3.09317 0 0 1.5 0.0704677 -0.232253 
-5.10341 0.809567 -2.8679 0 0 1.5 0.0666168 -0.22156 
-5.03926 0.543879 -2.64924 0 0 1.5 0.0589947 -0.190166 
-4.97877 0.274892 -2.43354 0 0 1.5 0.0551556 -0.169428 
-4.92493 -0.0020235 -2.22619 0 0 1.5 0.0512529 -0.146057 
-4.87227 -0.283301 -2.02462 0 0 1.5 0.047261 -0.118925 
-4.82077 -0.568849 -1.82871 0 0 1.5 0.0389523 -0.0458348 
-4.76758 -0.860871 -1.64312 0 0 1.5 0.03464 0.00518911 
-4.71287 -1.15513 -1.46157 0 0 1.5 0.0302577 0.0746867 
-4.6543 -1.4533 -1.28768 0 0 1.5 0.0258684 0.176664 
-4.59095 -1.7527 -1.11771 0 0 1.5 0.0176415 0.587178 
-4.52475 -2.05285 -0.950068 0 0 1.5 0.0144557 0.954469 
-4.44883 -2.35116 -0.783277 0 0 1.5 0.0127712 1.2718 
-4.36883 -2.64746 -0.614946 0 0 1.5 0.0132832 1.17838 
-4.28151 -2.94015 -0.44383 0 0 1.5 0.0196601 0.49534 
-4.18571 -3.22691 -0.267464 0 0 1.5 0.0241603 0.30243 
-4.08609 -3.51099 -0.0887423 0 0 1.5 0.0289992 0.189073 
-3.97437 -3.78529 0.0979504 0 0 1.5 0.0390753 0.0800925 
-3.85937 -4.05697 0.286325 0 0 1.5 0.0441523 0.0539388 
-3.73616 -4.32212 0.478901 0 0 1.5 0.0491914 0.0375166 
-3.60725 -4.58362 0.672631 0 0 1.5 0.0541662 0.0275977 
-3.47329 -4.84188 0.867383 0 0 1.5 0.0638491 0.0195722 
-3.3316 -5.09714 1.06054 0 0 1.5 0.06853 0.0192389 
-3.18724 -5.35138 1.25315 0 0 1.5 0.0730974 0.0204441 
-3.03284 -5.60384 1.44019 0 0 1.5 0.0775514 0.02288 
-2.87646 -5.85606 1.62589 0 0 1.5 0.0861289 0.0304694 
-2.70934 -6.10723 1.80353 0 0 1.5 0.0902632 0.0349771 
-2.53853 -6.35778 1.97834 0 0 1.5 0.0943046 0.0398694 
-2.35756 -6.6066 2.1454 0 0 1.5 0.102148 0.0504997 
-2.16957 -6.8531 2.30779 0 0 1.5 0.105972 0.0556351 
-1.9724 -7.09656 2.46408 0 0 1.5 0.109744 0.0606296 
-1.76391 -7.33398 2.61443 0 0 1.5 0.113472 0.0655412 
-1.54815 -7.56754 2.76097 0 0 1.5 0.120814 0.0740994 
-1.31604 -7.78872 2.90117 0 0 1.5 0.124422 0.077599 
-1.07968 -8.00665 3.03975 0 0 1.5 0.127973 0.0806844 
-0.822255 -8.20318 3.17272 0 0 1.5 0.131448 0.0832338 
-0.560097 -8.39334 3.30491 0 0 1.5 0.138049 0.0864775 
-0.282238 -8.56237 3.43451 0 0 1.5 0.141091 0.0873406 
0.00389945 -8.71643 3.56345 0 0 1.5 0.143889 0.0877468 
0.29951 -8.85336 3.69166 0 0 1.5 0.148516 0.0872956 
0.60469 -8.96588 3.82006 0 0 1.5 0.150208 0.0865757 
0.913912 -9.06811 3.94853 0 0 1.5 0.151392 0.0856598 
1.23128 -9.1379 4.0785 0 0 1.5 0.152003 0.0846451 
1.54985 -9.20052 4.20899 0 0 1.5 0.151269 0.0825349 
1.87194 -9.23489 4.34183 0 0 1.5 0.149827 0.0816942 
2.19414 -9.25892 4.47591 0 0 1.5 0.147636 0.0812404 
2.51652 -9.26301 4.61238 0 0 1.5 0.144696 0.0812284 
2.83755 -9.25266 4.75098 0 0 1.5 0.136624 0.0829819 
3.15733 -9.22912 4.89154 0 0 1.5 0.131554 0.0852158 
3.47388 -9.18797 5.03484 0 0 1.5 0.125858 0.0886544 
3.789 -9.13909 5.17933 0 0 1.5 0.119589 0.0936072 
4.09891 -9.06983 5.32652 0 0 1.5 0.105595 0.110217 
4.40772 -8.9965 5.47419 0 0 1.5 0.0980332 0.123389 
4.71019 -8.90268 5.62346 0 0 1.5 0.0902037 0.14139 
5.01116 -8.8045 5.77273 0 0 1.5 0.0740943 0.200475 
5.30709 -8.69173 5.92199 0 0 1.5 0.0660298 0.248897 
5.60067 -8.57251 6.07066 0 0 1.5 0.058142 0.31824 
5.89107 -8.44455 6.21855 0 0 1.5 0.0506366 0.417849 
6.17908 -8.31019 6.36531 0 0 1.5 0.0382412 0.734692 
6.46567 -8.17198 6.51139 0 0 1.5 0.034564 0.905599 
6.75098 -8.03037 6.65669 0 0 1.5 0.0335654 0.969985 
7.03605 -7.88815 6.80188 0 0 1.5 0.0355907 0.873693 
7.32154 -7.74811 6.94836 0 0 1.5 0.0469798 0.518023 
7.60746 -7.6103 7.09605 0 0 1.5 0.0550177 0.385173 
7.89462 -7.47902 7.24729 0 0 1.5 0.0639763 0.291035 
8.18246 -7.35448 7.40266 0 0 1.5 0.0836445 0.178383 
8.47106 -7.23737 7.56257 0 0 1.5 0.0940395 0.144632 
8.75943 -7.13335 7.73136 0 0 1.5 0.10466 0.11976 
9.0477 -7.03482 7.90388 0 0 1.5 0.115404 0.10099 
9.33312 -6.9569 8.09095 0 0 1.5 0.136815 0.0751028 
9.61715 -6.88508 8.28224 0 0 1.5 0.14722 0.0659653 
9.89617 -6.83316 8.48724 0 0 1.5 0.15722 0.0584957 
10.1709 -6.79443 8.70015 0 0 1.5 0.166637 0.0522751 
10.4406 -6.77065 8.922 0 0 1.5 0.182982 0.0424477 
10.7015 -6.77187 9.15498 0 0 1.5 0.189568 0.0384126 
10.9582 -6.78444 9.39235 0 0 1.5 0.194884 0.0347602 
11.2023 -6.83131 9.63896 0 0 1.5 0.201247 0.0282136 
11.4384 -6.89836 9.88754 0 0 1.5 0.202194 0.0251463 
11.6654 -6.98845 10.1384 0 0 1.5 0.201656 0.0221219 
11.8746 -7.11834 10.3867 0 0 1.5 0.199691 0.0191259 
12.0744 -7.26688 10.6317 0 0 1.5 0.191998 0.0131017 
12.2575 -7.44681 10.8698 0 0 1.5 0.186593 0.00995188 
12.4239 -7.65272 11.0979 0 0 1.5 0.180386 0.00671327 
12.5813 -7.87209 11.3205 0 0 1.5 0.173571 0.00340717 
12.7193 -8.11705 11.5291 0 0 1.5 0.158853 -0.00367146 
12.8505 -8.3698 11.7324 0 0 1.5 0.15127 -0.00746843 
12.9721 -8.63339 11.928 0 0 1.5 0.143722 -0.0113655 
13.0863 -8.90503 12.1169 0 0 1.5 0.136325 -0.0154105 
13.1973 -9.18001 12.303 0 0 1.5 0.122336 -0.0240086 
13.3019 -9.46128 12.4833 0 0 1.5 0.115868 -0.0284207 
13.4053 -9.74352 12.6628 0 0 1.5 0.109805 -0.032857 
13.5046 -10.029 12.8395 0 0 1.5 0.0989874 -0.0415528 
13.6017 -10.3156 13.0155 0 0 1.5 0.0942424 -0.0455785 
13.6951 -10.6042 13.1903 0 0 1.5 0.089927 -0.0492277 
13.7833 -10.895 13.3642 0 0 1.5 0.0860236 -0.0523603 
13.8677 -11.1872 13.5375 0 0 1.5 0.0793367 -0.0568 
13.9417 -11.4832 13.7092 0 0 1.5 0.0764724 -0.0579506 
14.0128 -11.7802 13.8803 0 0 1.5 0.0738698 -0.058247 
14.0668 -12.0827 14.0482 0 0 1.5 0.0714827 -0.0577952 
14.1161 -12.3864 14.2149 0 0 1.5 0.0671587 -0.0550951 
14.1501 -12.6944 14.3778 0 0 1.5 0.0651291 -0.0527883 
14.1744 -13.0047 14.5378 0 0 1.5 0.0631313 -0.0500284 
14.1877 -13.3175 14.6946 0 0 1.5 0.0590938 -0.0437936 
14.1875 -13.6328 14.8464 0 0 1.5 0.0569983 -0.0402648 
14.1814 -13.9492 14.9961 0 0 1.5 0.0548237 -0.0365883 
14.1603 -14.2679 15.1394 0 0 1.5 0.0525588 -0.0329186 
14.1363 -14.587 15.2813 0 0 1.5 0.0477413 -0.0254389 
14.1008 -14.9077 15.4173 0 0 1.5 0.0451912 -0.0216199 
14.0628 -15.2286 15.5518 0 0 1.5 0.0425578 -0.0178171 
14.0184 -15.5506 15.682 0 0 1.5 0.0398548 -0.0139914 
13.972 -15.873 15.8103 0 0 1.5 0.0343063 -0.00605225 
13.923 -16.1961 15.9358 0 0 1.5 0.0314986 -0.00172275 
13.8736 -16.5199 16.0594 0 0 1.5 0.0286956 0.00298364 
13.8238 -16.8443 16.1814 0 0 1.5 0.0259188 0.00818372 
13.774 -17.1686 16.3034 0 0 1.5 0.0205283 0.0214266 
13.7243 -17.493 16.4254 0 0 1.5 0.0179534 0.030418 
13.6745 -17.8174 16.5474 0 0 1.5 0.0154846 0.0418872 
13.6248 -18.1417 16.6695 0 0 1.5 0.0109342 0.0797418 
13.575 -18.4661 16.7915 0 0 1.5 0.0088803 0.113736 
13.5253 -18.7904 16.9135 0 0 1.5 0.00699486 0.168858 
13.4755 -19.1148 17.0355 0 0 1.5 0.00529864 0.266836 
13.4257 -19.4392 17.1575 0 0 1.5 0.00264296 0.853038 
13.376 -19.7635 17.2795 0 0 1.5 0.00193796 1.39087 
13.3262 -20.0879 17.4015 0 0 1.5 0.001913 1.24003 
13.2765 -20.4122 17.5236 0 0 1.5 0.00236851 0.698222 
13.2267 -20.7366 17.6456 0 0 1.5 0.00350271 0.233253 
13.1769 -21.061 17.7676 0 0 1.5 0.0039659 0.154248 
13.1272 -21.3853 17.8896 0 0 1.5 0.00432694 0.109467 
13.0774 -21.7097 18.0116 0 0 1.5 0.00474326 0.0644648 
13.0277 -22.034 18.1336 0 0 1.5 0.00480956 0.0526298 
12.9779 -22.3584 18.2556 0 0 1.5 0.00479231 0.0445213 
12.9282 -22.6827 18.3776 0 0 1.5 0.00470108 0.0389286 
12.8784 -23.0071 18.4997 0 0 1.5 0.00433618 0.0327084 
12.8286 -23.3315 18.6217 0 0 1.5 0.00408109 0.0313949 
12.7789 -23.6558 18.7437 0 0 1.5 0.00378903 0.0311082 
12.7291 -23.9802 18.8657 0 0 1.5 0.00346859 0.0318576 
12.6794 -24.3045 18.9877 0 0 1.5 0.00277428 0.0373463 
12.6296 -24.6289 19.1097 0 0 1.5 0.00241408 0.0431309 
12.5799 -24.9533 19.2317 0 0 1.5 0.00205416 0.0523422 
12.5301 -25.2776 19.3538 0 0 1.5 0.00135893 0.0939033 
12.4803 -25.602 19.4758 0 0 1.5 0.00103298 0.145137 
12.4306 -25.9263 19.5978 0 0 1.5 0.000728996 0 
12.3808 -26.2507 19.7198 0 0 1.5 0.000457143 0 
12.3311 -26.5751 19.8418 0 0 1.5 0.00023543 0 
12.2813 -26.8994 19.9638 0 0 1.5 0.000387613 0 
12.2315 -27.2238 20.0858 0 0 1.5 0.000558946 0 
12.1818 -27.5481 20.2079 0 0 1.5 0.000715139 0 
12.132 -27.8725 20.3299 0 0 1.5 0.000960506 0.0657428 
12.0823 -28.1969 20.4519 0 0 1.5 0.00104778 0.0498757 
12.0325 -28.5212 20.5739 0 0 1.5 0.00111232 0.0400652 
11.9828 -28.8456 20.6959 0 0 1.5 0.00115549 0.03365 
11.933 -29.1699 20.8179 0 0 1.5 0.00118353 0.0263252 
11.8832 -29.4943 20.9399 0 0 1.5 0.00117179 0.0244687 
11.8335 -29.8186 21.0619 0 0 1.5 0.00114543 0.0234204 
11.7837 -30.143 21.184 0 0 1.5 0.00105654 0.0231934 
11.734 -30.4674 21.306 0 0 1.5 0.000997612 0.0240454 
11.6842 -30.7917 21.428 0 0 1.5 0.000931244 0.0256051 
11.6345 -31.1161 21.55 0 0 1.5 0.000859099 0.0279731 
11.5847 -31.4404 21.672 0 0 1.5 0.000703638 0 
11.5349 -31.7648 21.794 0 0 1.5 0.000622981 0 
11.4852 -32.0892 21.916 0 0 1.5 0.000542132 0 
11.4354 -32.4135 22.0381 0 0 1.5 0.00046234 0 
11.3857 -32.7379 22.1601 0 0 1.5 0.000309524 0 
11.3359 -33.0622 22.2821 0 0 1.5 0.000238594 0 
11.2861 -33.3866 22.4041 0 0 1.5 0.000173524 0 
11.2364 -33.711 22.5261 0 0 1.5 8.33914e-05 0 
11.1866 -34.0353 22.6481 0 0 1.5 8.78029e-05 0 
11.1369 -34.3597 22.7701 0 0 1.5 0.000121649 0 
11.0871 -34.684 22.8922 0 0 1.5 0.000164132 0 
11.0374 -35.0084 23.0142 0 0 1.5 0.000249242 0 
10.9876 -35.3328 23.1362 0 0 1.5 0.00028887 0 
10.9378 -35.6571 23.2582 0 0 1.5 0.000326233 0 
10.8881 -35.9815 23.3802 0 0 1.5 0.000361481 0 
10.8383 -36.3058 23.5022 0 0 1.5 0.00042667 0 
10.7886 -36.6302 23.6242 0 0 1.5 0.000457238 0 
10.7388 -36.9545 23.7463 0 0 1.5 0.000486912 0 
0 1 0 
1 2 0 
2 3 0 
3 4 0 
4 5 0 
5 6 0 
6 7 0 
7 8 0 
8 9 0 
9 10 0 
10 11 0 
11 12 0 
12 13 0 
13 14 0 
14 15 0 
15 16 0 
16 17 0 
17 18 0 
18 19 0 
19 20 0 
20 21 0 
21 22 0 
22 23 0 
23 24 0 
24 25 0 
25 26 0 
26 27 0 
27 28 0 
28 29 0 
29 30 0 
30 31 0 
31 32 0 
32 33 0 
33 34 0 
34 35 0 
35 36 0 
36 37 0 
37 38 0 
38 39 0 
39 40 0 
40 41 0 
41 42 0 
42 43 0 
43 44 0 
44 45 0 
45 46 0 
46 47 0 
47 48 0 
48 49 0 
49 50 0 
50 51 0 
51 52 0 
52 53 0 
53 54 0 
54 55 0 
55 56 0 
56 57 0 
57 58 0 
58 59 0 
59 60 0 
60 61 0 
61 62 0 
62 63 0 
63 64 0 
64 65 0 
65 66 0 
66 67 0 
67 68 0 
68 69 0 
69 70 0 
70 71 0 
71 72 0 
72 73 0 
73 74 0 
74 75 0 
75 76 0 
76 77 0 
77 78 0 
78 79 0 
79 80 0 
80 81 0 
81 82 0 
82 83 0 
83 84 0 
84 85 0 
85 86 0 
86 87 0 
87 88 0 
88 89 0 
89 90 0 
90 91 0 
91 92 0 
92 93 0 
93 94 0 
94 95 0 
95 96 0 
96 97 0 
97 98 0 
98 99 0 
99 100 0 
100 101 0 
101 102 0 
102 103 0 
103 104 0 
104 105 0 
105 106 0 
106 107 0 
107 108 0 
108 109 0 
109 110 0 
110 111 0 
111 112 0 
112 113 0 
113 114 0 
114 115 0 
115 116 0 
116 117 0 
117 118 0 
118 119 0 
119 120 0 
120 121 0 
121 122 0 
122 123 0 
123 124 0 
124 125 0 
125 126 0 
126 127 0 
127 128 0 
128 129 0 
129 130 0 
130 131 0 
131 132 0 
132 133 0 
133 134 0 
134 135 0 
135 136 0 
136 137 0 
137 138 0 
138 139 0 
139 140 0 
140 141 0 
141 142 0 
142 143 0 
143 144 0 
144 145 0 
145 146 0 
146 147 0 
147 148 0 
148 149 0 
149 150 0 
150 151 0 
151 152 0 
152 153 0 
153 154 0 
154 155 0 
155 156 0 
156 157 0 
157 158 0 
158 159 0 
159 160 0 
160 161 0 
161 162 0 
162 163 0 
163 164 0 
164 165 0 
165 166 0 
166 167 0 
167 168 0 
168 169 0 
169 170 0 
170 171 0 
171 172 0 
172 173 0 
173 174 0 
174 175 0 
175 176 0 
176 177 0 
177 178 0 
178 179 0 
179 180 0 
180 181 0 
181 182 0 
182 183 0 
183 184 0 
184 185 0 
185 186 0 
186 187 0 
187 188 0 
188 189 0 
189 190 0 
190 191 0 
191 192 0 
192 193 0 
193 194 0 
194 195 0 
195 196 0 
196 197 0 
197 198 0 
198 199 0 
199 200 0 
200 201 0 
201 202 0 
202 203 0 
203 204 0 
204 205 0 
205 206 0 
206 207 0 
207 208 0 
208 209 0 
209 210 0 
210 211 0 
211 212 0 
212 213 0 
213 214 0 
214 215 0 
215 216 0 
216 217 0 
217 218 0 
218 219 0 
219 220 0 
220 221 0 
221 222 0 
222 223 0 
223 224 0 
224 225 0 
225 226 0 
226 227 0 
227 228 0 
228 229 0 
229 230 0 
230 231 0 
231 232 0 
232 233 0 
233 234 0 
234 235 0 
235 236 0 
236 237 0 
237 238 0 
238 239 0 
239 240 0 
240 241 0 
241 242 0 
242 243 0 
243 244 0 
244 245 0 
245 246 0 
246 247 0 
247 248 0 
248 249 0 
249 250 0 
250 251 0 
251 252 0 
252 253 0 
253 254 0 
254 255 0 
255 256 0 
256 257 0 
257 258 0 
258 259 0 
259 260 0 
260 261 0 
261 262 0 
262 263 0 
263 264 0 
264 265 0 
265 266 0 
266 267 0 
267 268 0 
268 269 0 
269 270 0 
270 271 0 
271 272 0 
272 273 0 
273 274 0 
274 275 0 
275 276 0 
276 277 0 
277 278 0 
278 279 0 
279 280 0 
280 281 0 
281 282 0 
282 283 0 
283 284 0 
284 285 0 
285 286 0 
286 287 0 
287 288 0 
288 289 0 
289 290 0 
290 291 0 
291 292 0 
292 293 0 
293 294 0 
294 295 0 
295 296 0 
296 297 0 
297 298 0 
298 299 0 
-1 -1 0 
-1 300 0 1 2 3 4 5 6 7 8 9 10 11 12 13 14 15 16 17 18 19 20 21 22 23 24 25 26 27 28 29 30 31 32 33 34 35 36 37 38 39 40 41 42 43 44 45 46 47 48 49 50 51 52 53 54 55 56 57 58 59 60 61 62 63 64 65 66 67 68 69 70 71 72 73 74 75 76 77 78 79 80 81 82 83 84 85 86 87 88 89 90 91 92 93 94 95 96 97 98 99 100 101 102 103 104 105 106 107 108 109 110 111 112 113 114 115 116 117 118 119 120 121 122 123 124 125 126 127 128 129 130 131 132 133 134 135 136 137 138 139 140 141 142 143 144 145 146 147 148 149 150 151 152 153 154 155 156 157 158 159 160 161 162 163 164 165 166 167 168 169 170 171 172 173 174 175 176 177 178 179 180 181 182 183 184 185 186 187 188 189 190 191 192 193 194 195 196 197 198 199 200 201 202 203 204 205 206 207 208 209 210 211 212 213 214 215 216 217 218 219 220 221 222 223 224 225 226 227 228 229 230 231 232 233 234 235 236 237 238 239 240 241 242 243 244 245 246 247 248 249 250 251 252 253 254 255 256 257 258 259 260 261 262 263 264 265 266 267 268 269 270 271 272 273 274 275 276 277 278 279 280 281 282 283 284 285 286 287 288 289 290 291 292 293 294 295 296 297 298 299 
