ply
format ascii 1.0
comment written by koba@oshima.lab
element vertex 300
property float x
property float y
property float z
property int label
property int attribute
property float radius
property float curvature
property float torsion
element edge 300
property int vertex1
property int vertex2
property int label
element vertex_seq 1
property int label
property list int int vertex_indices
end_header
4.62201 21.1646 8.95836 0 0 1.5 0.022042 0.00709181 
4.45589 20.9801 8.72959 0 0 1.5 0.02167 0.0074784 
4.28978 20.7955 8.50082 0 0 1.5 0.0212866 0.00808982 
4.12367 20.6109 8.27205 0 0 1.5 0.0208838 0.00895418 
3.95755 20.4263 8.04328 0 0 1.5 0.019988 0.0116019 
3.79144 20.2417 7.81451 0 0 1.5 0.0194769 0.0135115 
3.62532 20.0571 7.58574 0 0 1.5 0.0189105 0.0159363 
3.45921 19.8726 7.35698 0 0 1.5 0.0182789 0.0190188 
3.29309 19.688 7.12821 0 0 1.5 0.0167784 0.0279606 
3.12698 19.5034 6.89944 0 0 1.5 0.0158865 0.0345858 
2.96086 19.3188 6.67067 0 0 1.5 0.014885 0.0435936 
2.79475 19.1342 6.4419 0 0 1.5 0.0137629 0.0561881 
2.62863 18.9497 6.21313 0 0 1.5 0.0111187 0.103172 
2.46252 18.7651 5.98436 0 0 1.5 0.00958129 0.151568 
2.2964 18.5805 5.75559 0 0 1.5 0.00789818 0.242604 
2.13029 18.3959 5.52682 0 0 1.5 0.00422646 0.994721 
1.96418 18.2113 5.29806 0 0 1.5 0.00266676 2.70707 
1.79806 18.0267 5.06929 0 0 1.5 0.00274084 2.77548 
1.63195 17.8422 4.84052 0 0 1.5 0.00469899 1.02202 
1.46583 17.6576 4.61175 0 0 1.5 0.0103392 0.248664 
1.29972 17.473 4.38298 0 0 1.5 0.013574 0.157039 
1.1336 17.2884 4.15421 0 0 1.5 0.0170174 0.108815 
0.967487 17.1038 3.92544 0 0 1.5 0.0206435 0.0806905 
0.801373 16.9193 3.69667 0 0 1.5 0.0283645 0.0512974 
0.635258 16.7347 3.4679 0 0 1.5 0.032409 0.043097 
0.469143 16.5501 3.23913 0 0 1.5 0.0365326 0.0372603 
0.303029 16.3655 3.01037 0 0 1.5 0.0448752 0.0299227 
0.136914 16.1809 2.7816 0 0 1.5 0.0490027 0.0274969 
-0.0292007 15.9963 2.55283 0 0 1.5 0.0530254 0.0256644 
-0.195315 15.8118 2.32406 0 0 1.5 0.056882 0.024339 
-0.36143 15.6272 2.09529 0 0 1.5 0.0638294 0.0225638 
-0.527545 15.4426 1.86652 0 0 1.5 0.0667723 0.0220137 
-0.693659 15.258 1.63775 0 0 1.5 0.0692585 0.021718 
-0.859774 15.0734 1.40898 0 0 1.5 0.0712115 0.0215661 
-1.02589 14.8888 1.18021 0 0 1.5 0.0732421 0.0214586 
-1.192 14.7043 0.951445 0 0 1.5 0.0731892 0.0216139 
-1.35812 14.5197 0.722676 0 0 1.5 0.0723475 0.0218187 
-1.52423 14.3351 0.493907 0 0 1.5 0.0706877 0.0219373 
-1.68966 14.1224 0.292283 0 0 1.5 0.0648375 0.0220271 
-1.85476 13.8964 0.103418 0 0 1.5 0.0606266 0.0218132 
-2.01691 13.6459 -0.0537549 0 0 1.5 0.05559 0.0209659 
-2.17854 13.3912 -0.205444 0 0 1.5 0.04322 0.0152299 
-2.33605 13.1174 -0.324579 0 0 1.5 0.0360039 0.00711733 
-2.49317 12.8422 -0.440816 0 0 1.5 0.0282654 -0.011765 
-2.64658 12.5549 -0.529665 0 0 1.5 0.0202915 -0.0629185 
-2.79944 12.2661 -0.614147 0 0 1.5 0.0100484 -0.44585 
-2.94966 11.9704 -0.677386 0 0 1.5 0.0154305 -0.179381 
-3.09927 11.6732 -0.734006 0 0 1.5 0.0245799 -0.0468041 
-3.24758 11.3729 -0.776219 0 0 1.5 0.034902 0.00191642 
-3.39584 11.0715 -0.810397 0 0 1.5 0.0568531 0.0399914 
-3.54407 10.7695 -0.838097 0 0 1.5 0.0680517 0.0509943 
-3.69438 10.4681 -0.862104 0 0 1.5 0.079193 0.0607494 
-3.84726 10.1688 -0.893441 0 0 1.5 0.10074 0.0783239 
-4.00404 9.87548 -0.947183 0 0 1.5 0.11088 0.0870209 
-4.16228 9.6046 -1.06352 0 0 1.5 0.120406 0.096288 
-4.30308 9.39643 -1.28177 0 0 1.5 0.129175 0.105829 
-4.41163 9.26222 -1.56992 0 0 1.5 0.14402 0.125103 
-4.5024 9.1615 -1.87889 0 0 1.5 0.14992 0.135312 
-4.58984 9.06509 -2.19043 0 0 1.5 0.15472 0.145454 
-4.67844 8.96473 -2.50032 0 0 1.5 0.158415 0.154989 
-4.77136 8.85379 -2.80537 0 0 1.5 0.162602 0.172609 
-4.86855 8.73043 -3.1041 0 0 1.5 0.163209 0.180387 
-4.96768 8.60144 -3.39997 0 0 1.5 0.162943 0.186969 
-5.06927 8.45505 -3.68675 0 0 1.5 0.160221 0.196701 
-5.17006 8.30563 -3.97218 0 0 1.5 0.15798 0.199903 
-5.26728 8.14392 -4.25218 0 0 1.5 0.15528 0.202067 
-5.35977 7.97823 -4.53131 0 0 1.5 0.152207 0.203357 
-5.4431 7.80483 -4.80878 0 0 1.5 0.145225 0.204107 
-5.51359 7.62776 -5.08717 0 0 1.5 0.14144 0.204023 
-5.57137 7.44708 -5.36648 0 0 1.5 0.13753 0.203934 
-5.60168 7.26561 -5.64906 0 0 1.5 0.133539 0.204081 
-5.62074 7.08391 -5.93295 0 0 1.5 0.125508 0.206027 
-5.59194 6.90926 -6.22047 0 0 1.5 0.121591 0.208085 
-5.54428 6.74031 -6.50772 0 0 1.5 0.117826 0.210986 
-5.46399 6.58122 -6.79451 0 0 1.5 0.114292 0.2146 
-5.35012 6.43726 -7.07707 0 0 1.5 0.108361 0.22255 
-5.22122 6.30053 -7.35733 0 0 1.5 0.106219 0.226108 
-5.06366 6.18042 -7.63073 0 0 1.5 0.104824 0.228397 
-4.89774 6.0656 -7.9012 0 0 1.5 0.105016 0.225341 
-4.72105 5.95762 -8.16788 0 0 1.5 0.106992 0.218885 
-4.53827 5.85169 -8.43122 0 0 1.5 0.110486 0.208851 
-4.35301 5.7466 -8.6932 0 0 1.5 0.115701 0.195538 
-4.16642 5.63513 -8.95157 0 0 1.5 0.132087 0.162798 
-3.98013 5.52097 -9.20892 0 0 1.5 0.143696 0.145657 
-3.79588 5.39384 -9.46169 0 0 1.5 0.157942 0.129307 
-3.61282 5.25916 -9.71113 0 0 1.5 0.175173 0.114179 
-3.43196 5.11046 -9.95439 0 0 1.5 0.220483 0.088322 
-3.2523 4.94746 -10.1888 0 0 1.5 0.24985 0.0777623 
-3.0736 4.7731 -10.4161 0 0 1.5 0.284834 0.0685191 
-2.89485 4.57645 -10.6238 0 0 1.5 0.376385 0.0530267 
-2.71594 4.37132 -10.8231 0 0 1.5 0.43595 0.0465943 
-2.53556 4.13942 -10.9895 0 0 1.5 0.507044 0.0406473 
-2.35512 3.89321 -11.1307 0 0 1.5 0.591401 0.0348238 
-2.17459 3.63178 -11.2449 0 0 1.5 0.80337 0.0230201 
-2.00115 3.34505 -11.2862 0 0 1.5 0.927741 0.016607 
-1.84287 3.05129 -11.2651 0 0 1.5 1.05535 0.00951868 
-1.71196 2.76158 -11.1669 0 0 1.5 1.17189 0.00191889 
-1.62262 2.49488 -10.9871 0 0 1.5 1.29497 -0.0127285 
-1.58237 2.26899 -10.7398 0 0 1.5 1.27295 -0.0185366 
-1.60292 2.10998 -10.4427 0 0 1.5 1.19683 -0.0225895 
-1.65843 1.99693 -10.1319 0 0 1.5 0.953357 -0.0254519 
-1.73785 1.91738 -9.8148 0 0 1.5 0.822807 -0.0251018 
-1.84519 1.88106 -9.49675 0 0 1.5 0.701911 -0.0241848 
-1.96924 1.8758 -9.18387 0 0 1.5 0.595198 -0.0230233 
-2.10236 1.88739 -8.8738 0 0 1.5 0.425888 -0.0206634 
-2.25182 1.93804 -8.57547 0 0 1.5 0.360422 -0.0197052 
-2.40399 1.99725 -8.28034 0 0 1.5 0.305209 -0.0190175 
-2.56444 2.08528 -7.9966 0 0 1.5 0.258448 -0.018605 
-2.72651 2.18472 -7.71805 0 0 1.5 0.184259 -0.0187978 
-2.89116 2.30229 -7.44774 0 0 1.5 0.154438 -0.0197423 
-3.05533 2.43326 -7.18366 0 0 1.5 0.128231 -0.0215688 
-3.21917 2.57364 -6.92394 0 0 1.5 0.104924 -0.0247965 
-3.37903 2.72641 -6.66886 0 0 1.5 0.0648021 -0.0426118 
-3.53721 2.88258 -6.41474 0 0 1.5 0.0471684 -0.0694002 
-3.68817 3.04448 -6.15979 0 0 1.5 0.0308494 -0.146808 
-3.83456 3.20488 -5.90133 0 0 1.5 0.00956352 -1.45699 
-3.97524 3.36339 -5.6385 0 0 1.5 0.019782 -0.355565 
-4.10588 3.50999 -5.36394 0 0 1.5 0.0339275 -0.130686 
-4.23084 3.64663 -5.08199 0 0 1.5 0.0487761 -0.0701149 
-4.34807 3.76807 -4.78957 0 0 1.5 0.0798197 -0.0334723 
-4.45578 3.86364 -4.4844 0 0 1.5 0.0961241 -0.0262959 
-4.55842 3.94263 -4.17307 0 0 1.5 0.113041 -0.0216257 
-4.6554 4.00193 -3.85514 0 0 1.5 0.130623 -0.0182823 
-4.74582 4.03307 -3.5315 0 0 1.5 0.16774 -0.0134476 
-4.83339 4.05035 -3.20622 0 0 1.5 0.187076 -0.0114731 
-4.9169 4.0469 -2.87908 0 0 1.5 0.206675 -0.00964909 
-4.99625 4.02061 -2.55228 0 0 1.5 0.245265 -0.00592905 
-5.07353 3.98319 -2.22586 0 0 1.5 0.263251 -0.00394261 
-5.14426 3.91386 -1.90307 0 0 1.5 0.279541 -0.00191143 
-5.21108 3.82986 -1.58355 0 0 1.5 0.293445 0.000227604 
-5.2717 3.72259 -1.26919 0 0 1.5 0.311465 0.00489127 
-5.32173 3.58646 -0.965023 0 0 1.5 0.314608 0.00722502 
-5.36674 3.43703 -0.665722 0 0 1.5 0.313561 0.00953949 
-5.39102 3.2465 -0.38804 0 0 1.5 0.308425 0.0118498 
-5.40568 3.04208 -0.121055 0 0 1.5 0.287479 0.0161781 
-5.40301 2.81265 0.126641 0 0 1.5 0.272903 0.0181509 
-5.37953 2.56163 0.349713 0 0 1.5 0.256517 0.0200402 
-5.34658 2.30083 0.56157 0 0 1.5 0.238984 0.0218885 
-5.28425 2.01894 0.736652 0 0 1.5 0.20277 0.0256396 
-5.21477 1.73378 0.902404 0 0 1.5 0.18496 0.0276444 
-5.12691 1.44019 1.04413 0 0 1.5 0.167746 0.0298952 
-5.02895 1.14417 1.17259 0 0 1.5 0.135791 0.0357214 
-4.92114 0.845773 1.28805 0 0 1.5 0.121233 0.0395236 
-4.80353 0.546828 1.39145 0 0 1.5 0.107666 0.0442961 
-4.68143 0.247631 1.48929 0 0 1.5 0.0950861 0.0504956 
-4.55145 -0.0505128 1.5798 0 0 1.5 0.0728106 0.0689662 
-4.41989 -0.348445 1.66883 0 0 1.5 0.0630706 0.0828591 
-4.28272 -0.643996 1.75733 0 0 1.5 0.0542223 0.10183 
-4.145 -0.939064 1.84656 0 0 1.5 0.0462457 0.127742 
-4.00446 -1.23099 1.94159 0 0 1.5 0.0329423 0.210174 
-3.86351 -1.52154 2.03997 0 0 1.5 0.0276919 0.271477 
-3.72149 -1.80857 2.14694 0 0 1.5 0.0234841 0.342193 
-3.5793 -2.09271 2.26087 0 0 1.5 0.0186817 0.423484 
-3.43692 -2.37362 2.38261 0 0 1.5 0.0181658 0.382357 
-3.29484 -2.65006 2.51429 0 0 1.5 0.0187179 0.294109 
-3.1529 -2.9244 2.65064 0 0 1.5 0.0200739 0.192881 
-3.01191 -3.19377 2.79742 0 0 1.5 0.0243275 0.037363 
-2.87118 -3.46225 2.94611 0 0 1.5 0.0269938 -0.0103932 
-2.7318 -3.72811 3.10067 0 0 1.5 0.0299847 -0.0427597 
-2.59295 -3.99416 3.25539 0 0 1.5 0.0333216 -0.0625177 
-2.45531 -4.26063 3.41047 0 0 1.5 0.0411293 -0.0745127 
-2.31842 -4.52902 3.56284 0 0 1.5 0.0456455 -0.0716587 
-2.1823 -4.79941 3.71237 0 0 1.5 0.0505873 -0.0652901 
-2.04653 -5.07371 3.85482 0 0 1.5 0.0616732 -0.0468249 
-1.91094 -5.35004 3.99358 0 0 1.5 0.0677499 -0.0361867 
-1.774 -5.63132 4.12043 0 0 1.5 0.0741197 -0.0254814 
-1.63675 -5.91372 4.24459 0 0 1.5 0.0807117 -0.0151279 
-1.49408 -6.19999 4.35269 0 0 1.5 0.0942213 0.00489727 
-1.34969 -6.48636 4.45801 0 0 1.5 0.100948 0.0143883 
-1.19557 -6.77269 4.54889 0 0 1.5 0.107519 0.023222 
-1.03523 -7.05699 4.63451 0 0 1.5 0.113826 0.031687 
-0.862508 -7.33721 4.70962 0 0 1.5 0.125196 0.0482546 
-0.674653 -7.60916 4.77655 0 0 1.5 0.130039 0.0563123 
-0.475492 -7.87493 4.83738 0 0 1.5 0.13419 0.0644503 
-0.248357 -8.11931 4.88715 0 0 1.5 0.137558 0.0729004 
-0.00997917 -8.35315 4.93285 0 0 1.5 0.14171 0.0903295 
0.255053 -8.5591 4.9695 0 0 1.5 0.142462 0.0993729 
0.536271 -8.74162 5.00055 0 0 1.5 0.142344 0.108897 
0.829781 -8.90634 5.02734 0 0 1.5 0.139688 0.129301 
1.14146 -9.03411 5.04676 0 0 1.5 0.137327 0.140213 
1.4573 -9.15124 5.0642 0 0 1.5 0.134414 0.151738 
1.78206 -9.24272 5.07704 0 0 1.5 0.131064 0.163755 
2.10951 -9.32338 5.08819 0 0 1.5 0.123579 0.188391 
2.44005 -9.39162 5.09737 0 0 1.5 0.119701 0.200681 
2.77227 -9.45094 5.1058 0 0 1.5 0.115887 0.212499 
3.10538 -9.50542 5.11383 0 0 1.5 0.112241 0.223336 
3.43924 -9.55484 5.12331 0 0 1.5 0.105794 0.240119 
3.77329 -9.60289 5.13319 0 0 1.5 0.103109 0.245206 
4.10739 -9.64932 5.14812 0 0 1.5 0.100818 0.247745 
4.44147 -9.69557 5.16379 0 0 1.5 0.0973951 0.244614 
4.77495 -9.74182 5.18934 0 0 1.5 0.0961956 0.239522 
5.10822 -9.78793 5.21717 0 0 1.5 0.0952641 0.233006 
5.44033 -9.83321 5.25783 0 0 1.5 0.0945325 0.225456 
5.77168 -9.87717 5.30462 0 0 1.5 0.0933686 0.209282 
6.10128 -9.91816 5.36529 0 0 1.5 0.0927874 0.202143 
6.42878 -9.95464 5.43771 0 0 1.5 0.0921169 0.196157 
6.7541 -9.98646 5.52229 0 0 1.5 0.0912967 0.191584 
7.0747 -10.0081 5.62505 0 0 1.5 0.0890366 0.188588 
7.3933 -10.0254 5.73545 0 0 1.5 0.0875672 0.190636 
7.70311 -10.0248 5.86944 0 0 1.5 0.0858715 0.19521 
8.01027 -10.0191 6.00895 0 0 1.5 0.0818946 0.212039 
8.30791 -9.99558 6.1666 0 0 1.5 0.079715 0.224103 
8.60033 -9.96293 6.33152 0 0 1.5 0.0774927 0.238382 
8.88547 -9.91759 6.50656 0 0 1.5 0.0753029 0.254115 
9.16303 -9.85984 6.68954 0 0 1.5 0.0713858 0.285214 
9.43648 -9.79537 6.8768 0 0 1.5 0.0698393 0.298015 
9.70204 -9.7188 7.07065 0 0 1.5 0.0686741 0.30661 
9.96598 -9.63985 7.26582 0 0 1.5 0.0679475 0.309225 
10.2255 -9.55506 7.46453 0 0 1.5 0.0679088 0.293325 
10.4849 -9.47111 7.66361 0 0 1.5 0.068573 0.275218 
10.7443 -9.38899 7.86353 0 0 1.5 0.0696225 0.251953 
11.0061 -9.31424 8.06312 0 0 1.5 0.0709766 0.224876 
11.2697 -9.24514 8.26248 0 0 1.5 0.0742289 0.164825 
11.5385 -9.19545 8.46043 0 0 1.5 0.0759324 0.13499 
11.8091 -9.15398 8.65782 0 0 1.5 0.0775643 0.105952 
12.0837 -9.13824 8.8536 0 0 1.5 0.0803033 0.050604 
12.3585 -9.13845 9.049 0 0 1.5 0.0812873 0.0252109 
12.6336 -9.15613 9.24399 0 0 1.5 0.0819551 0.000942598 
12.9045 -9.19877 9.44055 0 0 1.5 0.0822777 -0.0227381 
13.1733 -9.25023 9.63809 0 0 1.5 0.0818471 -0.0670187 
13.4327 -9.32446 9.84108 0 0 1.5 0.081116 -0.0876535 
13.6868 -9.40518 10.0479 0 0 1.5 0.0800698 -0.107764 
13.932 -9.49689 10.2611 0 0 1.5 0.07874 -0.127207 
14.167 -9.59441 10.4828 0 0 1.5 0.0754088 -0.163193 
14.3956 -9.69553 10.7098 0 0 1.5 0.0734993 -0.179659 
14.6095 -9.7983 10.9498 0 0 1.5 0.0714854 -0.194961 
14.8198 -9.90119 11.1931 0 0 1.5 0.0673212 -0.220911 
15.0133 -9.99996 11.4515 0 0 1.5 0.0652409 -0.230803 
15.203 -10.0965 11.7134 0 0 1.5 0.0631922 -0.238614 
15.38 -10.1858 11.9867 0 0 1.5 0.0611929 -0.24444 
15.5506 -10.2694 12.2656 0 0 1.5 0.0573679 -0.248859 
15.7125 -10.345 12.552 0 0 1.5 0.0555301 -0.247861 
15.8663 -10.41 12.8453 0 0 1.5 0.0537299 -0.245648 
16.0148 -10.468 13.1429 0 0 1.5 0.0519562 -0.242128 
16.154 -10.5091 13.4476 0 0 1.5 0.0484233 -0.231728 
16.2906 -10.5456 13.7541 0 0 1.5 0.0466342 -0.226265 
16.4273 -10.5822 14.0607 0 0 1.5 0.0448163 -0.220804 
16.564 -10.6187 14.3673 0 0 1.5 0.0429602 -0.215273 
16.7007 -10.6552 14.6738 0 0 1.5 0.0391093 -0.206192 
16.8374 -10.6917 14.9804 0 0 1.5 0.0371171 -0.203066 
16.9741 -10.7283 15.287 0 0 1.5 0.035086 -0.2007 
17.1108 -10.7648 15.5935 0 0 1.5 0.0309357 -0.200146 
17.2474 -10.8013 15.9001 0 0 1.5 0.0288384 -0.202493 
17.3841 -10.8379 16.2067 0 0 1.5 0.0267443 -0.206536 
17.5208 -10.8744 16.5132 0 0 1.5 0.0246678 -0.212744 
17.6575 -10.9109 16.8198 0 0 1.5 0.0206216 -0.234203 
17.7942 -10.9475 17.1264 0 0 1.5 0.0186818 -0.250103 
17.9309 -10.984 17.4329 0 0 1.5 0.016819 -0.270522 
18.0675 -11.0205 17.7395 0 0 1.5 0.015046 -0.29696 
18.2042 -11.0571 18.0461 0 0 1.5 0.0118284 -0.371902 
18.3409 -11.0936 18.3526 0 0 1.5 0.0104172 -0.422367 
18.4776 -11.1301 18.6592 0 0 1.5 0.00915801 -0.482733 
18.6143 -11.1666 18.9658 0 0 1.5 0.0071592 -0.618818 
18.751 -11.2032 19.2723 0 0 1.5 0.00644712 -0.676567 
18.8876 -11.2397 19.5789 0 0 1.5 0.00593033 -0.71161 
19.0243 -11.2762 19.8855 0 0 1.5 0.00559636 -0.713016 
19.161 -11.3128 20.192 0 0 1.5 0.00535976 -0.621097 
19.2977 -11.3493 20.4986 0 0 1.5 0.00537741 -0.553467 
19.4344 -11.3858 20.8052 0 0 1.5 0.00543426 -0.486783 
19.5711 -11.4224 21.1117 0 0 1.5 0.00550039 -0.426536 
19.7078 -11.4589 21.4183 0 0 1.5 0.0055801 -0.335171 
19.8444 -11.4954 21.7248 0 0 1.5 0.00557137 -0.302984 
19.9811 -11.532 22.0314 0 0 1.5 0.00552368 -0.277378 
20.1178 -11.5685 22.338 0 0 1.5 0.0053092 -0.243556 
20.2545 -11.605 22.6445 0 0 1.5 0.00514622 -0.233812 
20.3912 -11.6415 22.9511 0 0 1.5 0.00495102 -0.227444 
20.5279 -11.6781 23.2577 0 0 1.5 0.00472818 -0.224432 
20.6645 -11.7146 23.5642 0 0 1.5 0.00421774 -0.229271 
20.8012 -11.7511 23.8708 0 0 1.5 0.00394032 -0.236432 
20.9379 -11.7877 24.1774 0 0 1.5 0.00365515 -0.247216 
21.0746 -11.8242 24.4839 0 0 1.5 0.00336665 -0.262747 
21.2113 -11.8607 24.7905 0 0 1.5 0.00279813 -0.3094 
21.348 -11.8973 25.0971 0 0 1.5 0.00252777 -0.341946 
21.4847 -11.9338 25.4036 0 0 1.5 0.00227225 -0.382825 
21.6213 -11.9703 25.7102 0 0 1.5 0.0020358 -0.432214 
21.758 -12.0069 26.0168 0 0 1.5 0.00163852 -0.549216 
21.8947 -12.0434 26.3233 0 0 1.5 0.00148579 -0.609469 
22.0314 -12.0799 26.6299 0 0 1.5 0.00136786 -0.658504 
22.1681 -12.1165 26.9365 0 0 1.5 0.00123992 -0.67636 
22.3048 -12.153 27.243 0 0 1.5 0.00122463 -0.640137 
22.4414 -12.1895 27.5496 0 0 1.5 0.00123422 -0.58312 
22.5781 -12.226 27.8562 0 0 1.5 0.00126175 -0.516378 
22.7148 -12.2626 28.1627 0 0 1.5 0.00134533 -0.39074 
22.8515 -12.2991 28.4693 0 0 1.5 0.00139212 -0.338981 
22.9882 -12.3356 28.7759 0 0 1.5 0.00143827 -0.294434 
23.1249 -12.3722 29.0824 0 0 1.5 0.00148198 -0.2567 
23.2616 -12.4087 29.389 0 0 1.5 0.00155817 -0.198319 
23.3982 -12.4452 29.6956 0 0 1.5 0.00159002 -0.174999 
23.5349 -12.4818 30.0021 0 0 1.5 0.00161782 -0.154684 
23.6716 -12.5183 30.3087 0 0 1.5 0.00166207 -0.121581 
23.8083 -12.5548 30.6153 0 0 1.5 0.00167931 -0.107602 
23.945 -12.5914 30.9218 0 0 1.5 0.00169397 -0.0950663 
24.0817 -12.6279 31.2284 0 0 1.5 0.00170636 -0.0840088 
24.2183 -12.6644 31.535 0 0 1.5 0.00172573 -0.0654455 
24.355 -12.7009 31.8415 0 0 1.5 0.00173351 -0.0577418 
24.4917 -12.7375 32.1481 0 0 1.5 0.00174036 -0.0511404 
24.6284 -12.774 32.4547 0 0 1.5 0.00174643 -0.0455744 
24.7651 -12.8105 32.7612 0 0 1.5 0.00175708 -0.0373281 
24.9018 -12.8471 33.0678 0 0 1.5 0.00176197 -0.0345639 
25.0385 -12.8836 33.3744 0 0 1.5 0.0017667 -0.0326731 
0 1 0 
1 2 0 
2 3 0 
3 4 0 
4 5 0 
5 6 0 
6 7 0 
7 8 0 
8 9 0 
9 10 0 
10 11 0 
11 12 0 
12 13 0 
13 14 0 
14 15 0 
15 16 0 
16 17 0 
17 18 0 
18 19 0 
19 20 0 
20 21 0 
21 22 0 
22 23 0 
23 24 0 
24 25 0 
25 26 0 
26 27 0 
27 28 0 
28 29 0 
29 30 0 
30 31 0 
31 32 0 
32 33 0 
33 34 0 
34 35 0 
35 36 0 
36 37 0 
37 38 0 
38 39 0 
39 40 0 
40 41 0 
41 42 0 
42 43 0 
43 44 0 
44 45 0 
45 46 0 
46 47 0 
47 48 0 
48 49 0 
49 50 0 
50 51 0 
51 52 0 
52 53 0 
53 54 0 
54 55 0 
55 56 0 
56 57 0 
57 58 0 
58 59 0 
59 60 0 
60 61 0 
61 62 0 
62 63 0 
63 64 0 
64 65 0 
65 66 0 
66 67 0 
67 68 0 
68 69 0 
69 70 0 
70 71 0 
71 72 0 
72 73 0 
73 74 0 
74 75 0 
75 76 0 
76 77 0 
77 78 0 
78 79 0 
79 80 0 
80 81 0 
81 82 0 
82 83 0 
83 84 0 
84 85 0 
85 86 0 
86 87 0 
87 88 0 
88 89 0 
89 90 0 
90 91 0 
91 92 0 
92 93 0 
93 94 0 
94 95 0 
95 96 0 
96 97 0 
97 98 0 
98 99 0 
99 100 0 
100 101 0 
101 102 0 
102 103 0 
103 104 0 
104 105 0 
105 106 0 
106 107 0 
107 108 0 
108 109 0 
109 110 0 
110 111 0 
111 112 0 
112 113 0 
113 114 0 
114 115 0 
115 116 0 
116 117 0 
117 118 0 
118 119 0 
119 120 0 
120 121 0 
121 122 0 
122 123 0 
123 124 0 
124 125 0 
125 126 0 
126 127 0 
127 128 0 
128 129 0 
129 130 0 
130 131 0 
131 132 0 
132 133 0 
133 134 0 
134 135 0 
135 136 0 
136 137 0 
137 138 0 
138 139 0 
139 140 0 
140 141 0 
141 142 0 
142 143 0 
143 144 0 
144 145 0 
145 146 0 
146 147 0 
147 148 0 
148 149 0 
149 150 0 
150 151 0 
151 152 0 
152 153 0 
153 154 0 
154 155 0 
155 156 0 
156 157 0 
157 158 0 
158 159 0 
159 160 0 
160 161 0 
161 162 0 
162 163 0 
163 164 0 
164 165 0 
165 166 0 
166 167 0 
167 168 0 
168 169 0 
169 170 0 
170 171 0 
171 172 0 
172 173 0 
173 174 0 
174 175 0 
175 176 0 
176 177 0 
177 178 0 
178 179 0 
179 180 0 
180 181 0 
181 182 0 
182 183 0 
183 184 0 
184 185 0 
185 186 0 
186 187 0 
187 188 0 
188 189 0 
189 190 0 
190 191 0 
191 192 0 
192 193 0 
193 194 0 
194 195 0 
195 196 0 
196 197 0 
197 198 0 
198 199 0 
199 200 0 
200 201 0 
201 202 0 
202 203 0 
203 204 0 
204 205 0 
205 206 0 
206 207 0 
207 208 0 
208 209 0 
209 210 0 
210 211 0 
211 212 0 
212 213 0 
213 214 0 
214 215 0 
215 216 0 
216 217 0 
217 218 0 
218 219 0 
219 220 0 
220 221 0 
221 222 0 
222 223 0 
223 224 0 
224 225 0 
225 226 0 
226 227 0 
227 228 0 
228 229 0 
229 230 0 
230 231 0 
231 232 0 
232 233 0 
233 234 0 
234 235 0 
235 236 0 
236 237 0 
237 238 0 
238 239 0 
239 240 0 
240 241 0 
241 242 0 
242 243 0 
243 244 0 
244 245 0 
245 246 0 
246 247 0 
247 248 0 
248 249 0 
249 250 0 
250 251 0 
251 252 0 
252 253 0 
253 254 0 
254 255 0 
255 256 0 
256 257 0 
257 258 0 
258 259 0 
259 260 0 
260 261 0 
261 262 0 
262 263 0 
263 264 0 
264 265 0 
265 266 0 
266 267 0 
267 268 0 
268 269 0 
269 270 0 
270 271 0 
271 272 0 
272 273 0 
273 274 0 
274 275 0 
275 276 0 
276 277 0 
277 278 0 
278 279 0 
279 280 0 
280 281 0 
281 282 0 
282 283 0 
283 284 0 
284 285 0 
285 286 0 
286 287 0 
287 288 0 
288 289 0 
289 290 0 
290 291 0 
291 292 0 
292 293 0 
293 294 0 
294 295 0 
295 296 0 
296 297 0 
297 298 0 
298 299 0 
-1 -1 0 
-1 300 0 1 2 3 4 5 6 7 8 9 10 11 12 13 14 15 16 17 18 19 20 21 22 23 24 25 26 27 28 29 30 31 32 33 34 35 36 37 38 39 40 41 42 43 44 45 46 47 48 49 50 51 52 53 54 55 56 57 58 59 60 61 62 63 64 65 66 67 68 69 70 71 72 73 74 75 76 77 78 79 80 81 82 83 84 85 86 87 88 89 90 91 92 93 94 95 96 97 98 99 100 101 102 103 104 105 106 107 108 109 110 111 112 113 114 115 116 117 118 119 120 121 122 123 124 125 126 127 128 129 130 131 132 133 134 135 136 137 138 139 140 141 142 143 144 145 146 147 148 149 150 151 152 153 154 155 156 157 158 159 160 161 162 163 164 165 166 167 168 169 170 171 172 173 174 175 176 177 178 179 180 181 182 183 184 185 186 187 188 189 190 191 192 193 194 195 196 197 198 199 200 201 202 203 204 205 206 207 208 209 210 211 212 213 214 215 216 217 218 219 220 221 222 223 224 225 226 227 228 229 230 231 232 233 234 235 236 237 238 239 240 241 242 243 244 245 246 247 248 249 250 251 252 253 254 255 256 257 258 259 260 261 262 263 264 265 266 267 268 269 270 271 272 273 274 275 276 277 278 279 280 281 282 283 284 285 286 287 288 289 290 291 292 293 294 295 296 297 298 299 
