ply
format ascii 1.0
comment written by koba@oshima.lab
element vertex 300
property float x
property float y
property float z
property int label
property int attribute
property float radius
property float curvature
property float torsion
element edge 300
property int vertex1
property int vertex2
property int label
element vertex_seq 1
property int label
property list int int vertex_indices
end_header
7.72904 24.4906 -7.30535 0 0 1.5 0.0165731 -0.0304039 
7.50755 24.2805 -7.16039 0 0 1.5 0.016698 -0.0305074 
7.28606 24.0704 -7.01542 0 0 1.5 0.0168288 -0.031327 
7.06456 23.8602 -6.87046 0 0 1.5 0.0169698 -0.0327908 
6.84307 23.6501 -6.72549 0 0 1.5 0.0172997 -0.0373494 
6.62158 23.44 -6.58053 0 0 1.5 0.0174956 -0.0403001 
6.40009 23.2299 -6.43556 0 0 1.5 0.0177159 -0.0435931 
6.17859 23.0198 -6.29059 0 0 1.5 0.0179634 -0.0471406 
5.9571 22.8096 -6.14563 0 0 1.5 0.0185435 -0.0543572 
5.73561 22.5995 -6.00066 0 0 1.5 0.018871 -0.0579011 
5.51411 22.3894 -5.8557 0 0 1.5 0.0192198 -0.0613985 
5.29262 22.1793 -5.71073 0 0 1.5 0.0195856 -0.0647024 
5.07113 21.9691 -5.56577 0 0 1.5 0.0203254 -0.07078 
4.84964 21.759 -5.4208 0 0 1.5 0.0206765 -0.0738771 
4.62814 21.5489 -5.27584 0 0 1.5 0.0209986 -0.0770587 
4.40665 21.3388 -5.13087 0 0 1.5 0.0214802 -0.084356 
4.18516 21.1287 -4.9859 0 0 1.5 0.021601 -0.0891752 
3.96366 20.9185 -4.84094 0 0 1.5 0.0216166 -0.0951169 
3.74217 20.7084 -4.69597 0 0 1.5 0.0215036 -0.102596 
3.52068 20.4983 -4.55101 0 0 1.5 0.0208028 -0.125688 
3.29919 20.2882 -4.40604 0 0 1.5 0.0201769 -0.143647 
3.07769 20.0781 -4.26108 0 0 1.5 0.0193484 -0.168295 
2.8562 19.8679 -4.11611 0 0 1.5 0.0183105 -0.20321 
2.63471 19.6578 -3.97115 0 0 1.5 0.0156353 -0.330667 
2.41321 19.4477 -3.82618 0 0 1.5 0.0140722 -0.447577 
2.19172 19.2376 -3.68121 0 0 1.5 0.0124934 -0.626061 
1.97023 19.0275 -3.53625 0 0 1.5 0.0104264 -1.11103 
1.74874 18.8173 -3.39128 0 0 1.5 0.0108949 -1.13664 
1.52724 18.6072 -3.24632 0 0 1.5 0.0128125 -0.921718 
1.30575 18.3971 -3.10135 0 0 1.5 0.0160384 -0.662962 
1.08426 18.187 -2.95639 0 0 1.5 0.0254188 -0.337807 
0.862765 17.9769 -2.81142 0 0 1.5 0.0312667 -0.253559 
0.641272 17.7667 -2.66646 0 0 1.5 0.037803 -0.197825 
0.419779 17.5566 -2.52149 0 0 1.5 0.0450136 -0.159408 
0.198286 17.3465 -2.37652 0 0 1.5 0.0614233 -0.11189 
-0.0232065 17.1364 -2.23156 0 0 1.5 0.0706255 -0.0970692 
-0.244699 16.9263 -2.08659 0 0 1.5 0.080499 -0.0856483 
-0.466192 16.7161 -1.94163 0 0 1.5 0.0910286 -0.0765189 
-0.687685 16.506 -1.79666 0 0 1.5 0.113927 -0.0633434 
-0.899129 16.2919 -1.64287 0 0 1.5 0.126188 -0.0583775 
-1.10861 16.0771 -1.48736 0 0 1.5 0.138865 -0.0539103 
-1.31266 15.8588 -1.32964 0 0 1.5 0.164849 -0.0461916 
-1.5119 15.6373 -1.16996 0 0 1.5 0.177739 -0.0426017 
-1.70726 15.4103 -1.01356 0 0 1.5 0.190218 -0.0388582 
-1.89965 15.1789 -0.85968 0 0 1.5 0.201981 -0.0349167 
-2.09069 14.9337 -0.727112 0 0 1.5 0.222004 -0.0261077 
-2.28461 14.6764 -0.628853 0 0 1.5 0.229614 -0.0208663 
-2.48302 14.4081 -0.606248 0 0 1.5 0.235263 -0.0149366 
-2.67653 14.155 -0.704899 0 0 1.5 0.238751 -0.00824449 
-2.85163 13.9466 -0.902473 0 0 1.5 0.238965 0.00773474 
-3.01456 13.7728 -1.14166 0 0 1.5 0.235868 0.0172465 
-3.17553 13.6149 -1.3933 0 0 1.5 0.230901 0.027976 
-3.3386 13.4647 -1.6483 0 0 1.5 0.216572 0.0527224 
-3.50492 13.3188 -1.9038 0 0 1.5 0.207946 0.0668739 
-3.67952 13.1779 -2.15655 0 0 1.5 0.198839 0.0825033 
-3.85823 13.0399 -2.408 0 0 1.5 0.189595 0.099352 
-4.04267 12.9062 -2.65763 0 0 1.5 0.171956 0.135564 
-4.23369 12.7802 -2.90628 0 0 1.5 0.164103 0.154635 
-4.42722 12.6574 -3.15466 0 0 1.5 0.1572 0.173302 
-4.62661 12.5467 -3.40407 0 0 1.5 0.151417 0.19038 
-4.82668 12.4401 -3.65465 0 0 1.5 0.143683 0.216361 
-5.02813 12.3419 -3.90764 0 0 1.5 0.141855 0.223472 
-5.22744 12.2488 -4.16417 0 0 1.5 0.14136 0.225923 
-5.42517 12.1595 -4.42329 0 0 1.5 0.143948 0.218476 
-5.61396 12.0719 -4.68954 0 0 1.5 0.146708 0.21027 
-5.79935 11.9844 -4.95816 0 0 1.5 0.150164 0.200498 
-5.96637 11.8916 -5.23694 0 0 1.5 0.154071 0.190109 
-6.12249 11.7943 -5.51996 0 0 1.5 0.162224 0.170428 
-6.25887 11.6889 -5.81067 0 0 1.5 0.165973 0.162228 
-6.36551 11.5722 -6.10857 0 0 1.5 0.169196 0.155492 
-6.45453 11.4492 -6.41013 0 0 1.5 0.171688 0.150389 
-6.49236 11.3121 -6.71674 0 0 1.5 0.173862 0.14555 
-6.49822 11.1706 -7.02194 0 0 1.5 0.17339 0.145908 
-6.47268 11.0248 -7.32577 0 0 1.5 0.171853 0.148249 
-6.38723 10.8796 -7.61838 0 0 1.5 0.169294 0.15256 
-6.27851 10.7374 -7.9037 0 0 1.5 0.161662 0.166928 
-6.13544 10.6004 -8.17758 0 0 1.5 0.156954 0.177217 
-5.96292 10.4716 -8.43727 0 0 1.5 0.15195 0.189386 
-5.77918 10.3458 -8.6915 0 0 1.5 0.142192 0.217409 
-5.56969 10.2284 -8.92929 0 0 1.5 0.138052 0.23206 
-5.35728 10.1113 -9.16456 0 0 1.5 0.134839 0.245405 
-5.13399 9.99578 -9.39042 0 0 1.5 0.132894 0.255518 
-4.90936 9.87786 -9.61366 0 0 1.5 0.134102 0.259497 
-4.68221 9.75551 -9.83197 0 0 1.5 0.137816 0.25162 
-4.457 9.62597 -10.048 0 0 1.5 0.14389 0.237717 
-4.2342 9.4875 -10.261 0 0 1.5 0.152466 0.219182 
-4.01742 9.33589 -10.4709 0 0 1.5 0.177514 0.175467 
-3.80593 9.17274 -10.678 0 0 1.5 0.194131 0.153701 
-3.60518 8.98991 -10.8785 0 0 1.5 0.21356 0.133125 
-3.41069 8.79562 -11.0751 0 0 1.5 0.261031 0.096446 
-3.23219 8.57499 -11.2576 0 0 1.5 0.289052 0.0807447 
-3.05873 8.34609 -11.4358 0 0 1.5 0.319734 0.0663573 
-2.90712 8.08459 -11.5864 0 0 1.5 0.352671 0.0528082 
-2.76133 7.81537 -11.7278 0 0 1.5 0.42206 0.0281024 
-2.63634 7.51968 -11.8335 0 0 1.5 0.455859 0.0166331 
-2.52487 7.21195 -11.9102 0 0 1.5 0.486512 0.00543359 
-2.42755 6.89164 -11.9566 0 0 1.5 0.511681 -0.00532621 
-2.35957 6.56223 -11.9347 0 0 1.5 0.536905 -0.0245918 
-2.31032 6.23731 -11.8709 0 0 1.5 0.534071 -0.0329265 
-2.28417 5.92053 -11.7561 0 0 1.5 0.520645 -0.040216 
-2.29764 5.6422 -11.566 0 0 1.5 0.467686 -0.0514885 
-2.33174 5.39331 -11.3444 0 0 1.5 0.432505 -0.0557734 
-2.38556 5.1736 -11.0933 0 0 1.5 0.394584 -0.059518 
-2.46792 5.00686 -10.8116 0 0 1.5 0.35592 -0.0630159 
-2.55824 4.85637 -10.5237 0 0 1.5 0.281871 -0.0704278 
-2.66398 4.73816 -10.2253 0 0 1.5 0.248054 -0.0751152 
-2.7769 4.636 -9.92401 0 0 1.5 0.216847 -0.0811197 
-2.89639 4.54854 -9.6202 0 0 1.5 0.18831 -0.0889672 
-3.02034 4.47233 -9.31527 0 0 1.5 0.138831 -0.113779 
-3.14635 4.4013 -9.00981 0 0 1.5 0.117541 -0.134099 
-3.27152 4.33305 -8.70339 0 0 1.5 0.0983094 -0.163573 
-3.39651 4.26538 -8.39676 0 0 1.5 0.0809887 -0.207789 
-3.51209 4.1897 -8.08832 0 0 1.5 0.0518533 -0.392392 
-3.6234 4.11013 -7.77946 0 0 1.5 0.0403054 -0.584301 
-3.72013 4.01719 -7.46925 0 0 1.5 0.0314994 -0.87372 
-3.80258 3.91239 -7.15919 0 0 1.5 0.0264426 -1.09272 
-3.87244 3.79712 -6.84926 0 0 1.5 0.0302009 -0.809362 
-3.91441 3.66124 -6.54286 0 0 1.5 0.0360067 -0.560308 
-3.94436 3.51698 -6.23914 0 0 1.5 0.0425259 -0.402511 
-3.95516 3.35959 -5.94025 0 0 1.5 0.0553891 -0.24943 
-3.95024 3.19084 -5.6477 0 0 1.5 0.0612274 -0.212871 
-3.93811 3.01627 -5.35864 0 0 1.5 0.066497 -0.189512 
-3.91649 2.83217 -5.07604 0 0 1.5 0.0711461 -0.174351 
-3.89292 2.64199 -4.79771 0 0 1.5 0.0784627 -0.158332 
-3.86809 2.4476 -4.52237 0 0 1.5 0.0810882 -0.154678 
-3.8457 2.2436 -4.25383 0 0 1.5 0.0830332 -0.152668 
-3.82567 2.03493 -3.98883 0 0 1.5 0.0849854 -0.15089 
-3.80859 1.82036 -3.72826 0 0 1.5 0.085058 -0.150278 
-3.79679 1.59579 -3.47603 0 0 1.5 0.0845882 -0.149467 
-3.78755 1.36613 -3.22837 0 0 1.5 0.0836295 -0.14794 
-3.78231 1.12838 -2.98821 0 0 1.5 0.0804662 -0.140986 
-3.78145 0.882744 -2.75619 0 0 1.5 0.0783709 -0.135236 
-3.78317 0.633146 -2.52838 0 0 1.5 0.0760041 -0.127327 
-3.79056 0.376975 -2.30805 0 0 1.5 0.0734154 -0.116599 
-3.80236 0.118643 -2.09051 0 0 1.5 0.0677398 -0.0869527 
-3.81787 -0.141508 -1.87532 0 0 1.5 0.0647215 -0.0674544 
-3.84159 -0.401793 -1.66106 0 0 1.5 0.0616282 -0.0437632 
-3.86814 -0.661523 -1.44648 0 0 1.5 0.0584932 -0.0158747 
-3.90194 -0.918998 -1.23018 0 0 1.5 0.052212 0.0532307 
-3.93912 -1.17455 -1.01219 0 0 1.5 0.049145 0.0964259 
-3.98001 -1.428 -0.792387 0 0 1.5 0.0462018 0.145647 
-4.02313 -1.6792 -0.570443 0 0 1.5 0.0409716 0.259055 
-4.06707 -1.92956 -0.347703 0 0 1.5 0.0388797 0.319457 
-4.10848 -2.17966 -0.124188 0 0 1.5 0.0372999 0.375377 
-4.14785 -2.43053 0.0987954 0 0 1.5 0.0363545 0.41881 
-4.17986 -2.68433 0.319669 0 0 1.5 0.0367509 0.442007 
-4.20452 -2.94161 0.537236 0 0 1.5 0.0381743 0.419617 
-4.22078 -3.20288 0.751014 0 0 1.5 0.0403765 0.38195 
-4.2221 -3.47127 0.956119 0 0 1.5 0.043276 0.337262 
-4.21764 -3.74239 1.15781 0 0 1.5 0.0507714 0.250872 
-4.19268 -4.02278 1.34484 0 0 1.5 0.0551807 0.214789 
-4.16221 -4.30552 1.5271 0 0 1.5 0.0599259 0.184375 
-4.11908 -4.59366 1.69839 0 0 1.5 0.0701694 0.138598 
-4.06859 -4.88479 1.86218 0 0 1.5 0.0755625 0.121497 
-4.01227 -5.17828 2.02003 0 0 1.5 0.0810749 0.107378 
-3.94927 -5.47415 2.17066 0 0 1.5 0.0866619 0.0957338 
-3.88442 -5.77068 2.31929 0 0 1.5 0.0978834 0.0776673 
-3.81344 -6.06794 2.46358 0 0 1.5 0.103427 0.0705295 
-3.74102 -6.36488 2.60778 0 0 1.5 0.108859 0.0643748 
-3.66246 -6.6603 2.75195 0 0 1.5 0.114126 0.0590223 
-3.57904 -6.95371 2.89731 0 0 1.5 0.123943 0.0501568 
-3.48789 -7.24393 3.04457 0 0 1.5 0.128373 0.0464491 
-3.38363 -7.52799 3.19469 0 0 1.5 0.132405 0.0432042 
-3.27169 -7.80844 3.3465 0 0 1.5 0.139062 0.0380543 
-3.13205 -8.07411 3.50163 0 0 1.5 0.141593 0.0360358 
-2.98033 -8.33234 3.65704 0 0 1.5 0.143536 0.0344475 
-2.80197 -8.57368 3.81251 0 0 1.5 0.144873 0.0333611 
-2.59968 -8.79639 3.96478 0 0 1.5 0.145696 0.0325797 
-2.38375 -9.00842 4.11518 0 0 1.5 0.14519 0.0329229 
-2.13638 -9.19043 4.25627 0 0 1.5 0.14411 0.0338281 
-1.88101 -9.36325 4.39347 0 0 1.5 0.142498 0.0353005 
-1.61006 -9.51817 4.52312 0 0 1.5 0.137883 0.0400301 
-1.32949 -9.66031 4.64603 0 0 1.5 0.134992 0.0433415 
-1.04269 -9.79418 4.76457 0 0 1.5 0.131796 0.0473437 
-0.747757 -9.91617 4.87545 0 0 1.5 0.128354 0.0520994 
-0.450948 -10.0354 4.98458 0 0 1.5 0.120971 0.0637086 
-0.148126 -10.1454 5.08666 0 0 1.5 0.117145 0.0705741 
0.155254 -10.2545 5.18804 0 0 1.5 0.113299 0.078228 
0.462182 -10.3579 5.28467 0 0 1.5 0.105714 0.0954627 
0.769682 -10.4601 5.38057 0 0 1.5 0.102037 0.104957 
1.07939 -10.5583 5.47368 0 0 1.5 0.0984682 0.115072 
1.38993 -10.6545 5.56605 0 0 1.5 0.0950247 0.125663 
1.70217 -10.7466 5.65688 0 0 1.5 0.0885284 0.147873 
2.01575 -10.8346 5.74703 0 0 1.5 0.085472 0.159543 
2.33085 -10.9179 5.83642 0 0 1.5 0.0825347 0.171551 
2.64806 -10.9933 5.92521 0 0 1.5 0.0797026 0.183888 
2.9665 -11.064 6.01366 0 0 1.5 0.0742906 0.210103 
3.28771 -11.1211 6.10164 0 0 1.5 0.0716785 0.224323 
3.60959 -11.1748 6.18952 0 0 1.5 0.0691115 0.23954 
3.93411 -11.2093 6.27741 0 0 1.5 0.0640791 0.274279 
4.25891 -11.2389 6.36556 0 0 1.5 0.0616099 0.294586 
4.58467 -11.2524 6.45458 0 0 1.5 0.0591922 0.317197 
4.91015 -11.2569 6.54494 0 0 1.5 0.0568557 0.342189 
5.23528 -11.2503 6.63698 0 0 1.5 0.0525899 0.398346 
5.5588 -11.2325 6.73273 0 0 1.5 0.0507741 0.427478 
5.88141 -11.2086 6.83057 0 0 1.5 0.0492617 0.454986 
6.20058 -11.1739 6.93597 0 0 1.5 0.0481223 0.478534 
6.519 -11.1368 7.04304 0 0 1.5 0.0472222 0.501224 
6.83182 -11.092 7.16285 0 0 1.5 0.0475614 0.495628 
7.14349 -11.0467 7.28531 0 0 1.5 0.0484406 0.478653 
7.44919 -10.9997 7.42155 0 0 1.5 0.0516773 0.418106 
7.75216 -10.9541 7.56387 0 0 1.5 0.0539109 0.380284 
8.04943 -10.9111 7.71881 0 0 1.5 0.0564436 0.341374 
8.34173 -10.8734 7.88379 0 0 1.5 0.059186 0.303152 
8.62927 -10.8406 8.05834 0 0 1.5 0.0649859 0.232073 
8.90914 -10.8189 8.24619 0 0 1.5 0.0679017 0.199977 
9.18601 -10.8016 8.43925 0 0 1.5 0.0707485 0.170131 
9.45255 -10.8026 8.64695 0 0 1.5 0.0734871 0.142191 
9.7166 -10.8085 8.85758 0 0 1.5 0.0785396 0.0902293 
9.97249 -10.8313 9.07719 0 0 1.5 0.0808326 0.0656131 
10.2249 -10.8626 9.29943 0 0 1.5 0.0829841 0.0416838 
10.473 -10.9049 9.52501 0 0 1.5 0.0850236 0.0179654 
10.7179 -10.9587 9.75155 0 0 1.5 0.0889564 -0.0296832 
10.9614 -11.0173 9.9785 0 0 1.5 0.0909878 -0.052843 
11.204 -11.0875 10.203 0 0 1.5 0.0931811 -0.0755731 
11.4471 -11.1602 10.4262 0 0 1.5 0.0984878 -0.119009 
11.6918 -11.2398 10.6454 0 0 1.5 0.10184 -0.138213 
11.9383 -11.3233 10.8609 0 0 1.5 0.105821 -0.155298 
12.1866 -11.4106 11.0729 0 0 1.5 0.110556 -0.170092 
12.4374 -11.5056 11.2786 0 0 1.5 0.122743 -0.189678 
12.6888 -11.6039 11.4818 0 0 1.5 0.130368 -0.194354 
12.9405 -11.7161 11.6775 0 0 1.5 0.139089 -0.196329 
13.1902 -11.8367 11.8704 0 0 1.5 0.148928 -0.195814 
13.437 -11.9702 12.0589 0 0 1.5 0.171822 -0.188923 
13.6743 -12.1233 12.244 0 0 1.5 0.184682 -0.183815 
13.9057 -12.2867 12.4279 0 0 1.5 0.198254 -0.178057 
14.1181 -12.4747 12.6118 0 0 1.5 0.226428 -0.165218 
14.3124 -12.6762 12.8 0 0 1.5 0.240258 -0.158498 
14.4901 -12.8893 12.9927 0 0 1.5 0.253264 -0.151746 
14.6245 -13.1162 13.2041 0 0 1.5 0.26491 -0.144955 
14.7179 -13.3398 13.4369 0 0 1.5 0.281903 -0.13098 
14.7602 -13.5487 13.6945 0 0 1.5 0.286233 -0.123977 
14.7378 -13.7258 13.9807 0 0 1.5 0.287353 -0.117187 
14.6209 -13.8166 14.2846 0 0 1.5 0.285163 -0.110509 
14.4613 -13.8424 14.5755 0 0 1.5 0.271301 -0.0976098 
14.278 -13.8321 14.8592 0 0 1.5 0.260293 -0.0918497 
14.0947 -13.8217 15.143 0 0 1.5 0.247218 -0.086554 
13.9114 -13.8114 15.4268 0 0 1.5 0.232606 -0.0816753 
13.7281 -13.8011 15.7105 0 0 1.5 0.200803 -0.0738976 
13.5448 -13.7908 15.9943 0 0 1.5 0.184517 -0.0710743 
13.3615 -13.7804 16.278 0 0 1.5 0.16844 -0.0688565 
13.1782 -13.7701 16.5618 0 0 1.5 0.137825 -0.0668898 
12.9949 -13.7598 16.8456 0 0 1.5 0.123583 -0.0673287 
12.8116 -13.7495 17.1293 0 0 1.5 0.110162 -0.068734 
12.6283 -13.7391 17.4131 0 0 1.5 0.0975947 -0.0713595 
12.445 -13.7288 17.6968 0 0 1.5 0.0750031 -0.0818968 
12.2617 -13.7185 17.9806 0 0 1.5 0.0649419 -0.0907416 
12.0784 -13.7082 18.2644 0 0 1.5 0.0556732 -0.103272 
11.8951 -13.6979 18.5481 0 0 1.5 0.0471598 -0.121424 
11.7118 -13.6875 18.8319 0 0 1.5 0.0322981 -0.188292 
11.5285 -13.6772 19.1156 0 0 1.5 0.0259428 -0.251403 
11.3452 -13.6669 19.3994 0 0 1.5 0.0203312 -0.355515 
11.1619 -13.6566 19.6831 0 0 1.5 0.0118234 -0.807974 
10.9786 -13.6462 19.9669 0 0 1.5 0.00953658 -1.09786 
10.7953 -13.6359 20.2507 0 0 1.5 0.0090253 -1.09168 
10.612 -13.6256 20.5344 0 0 1.5 0.00998911 -0.798491 
10.4287 -13.6153 20.8182 0 0 1.5 0.0135301 -0.353694 
10.2454 -13.6049 21.1019 0 0 1.5 0.0152817 -0.251666 
10.0621 -13.5946 21.3857 0 0 1.5 0.0168109 -0.189361 
9.87877 -13.5843 21.6695 0 0 1.5 0.0180644 -0.14946 
9.69546 -13.574 21.9532 0 0 1.5 0.0196787 -0.105284 
9.51216 -13.5636 22.237 0 0 1.5 0.020048 -0.0930094 
9.32886 -13.5533 22.5207 0 0 1.5 0.0201436 -0.0843734 
9.14556 -13.543 22.8045 0 0 1.5 0.0195905 -0.0749042 
8.96226 -13.5327 23.0882 0 0 1.5 0.0189875 -0.0731172 
8.77896 -13.5223 23.372 0 0 1.5 0.0182013 -0.0727856 
8.59566 -13.512 23.6558 0 0 1.5 0.0172597 -0.0739441 
8.41236 -13.5017 23.9395 0 0 1.5 0.0150113 -0.0816237 
8.22905 -13.4914 24.2233 0 0 1.5 0.0137578 -0.0884955 
8.04575 -13.4811 24.507 0 0 1.5 0.0124541 -0.0981958 
7.86245 -13.4707 24.7908 0 0 1.5 0.0111226 -0.112048 
7.67915 -13.4604 25.0746 0 0 1.5 0.00846477 -0.159742 
7.49585 -13.4501 25.3583 0 0 1.5 0.00718498 -0.201119 
7.31255 -13.4398 25.6421 0 0 1.5 0.00596609 -0.265088 
7.12925 -13.4294 25.9258 0 0 1.5 0.00483252 -0.367443 
6.94595 -13.4191 26.2096 0 0 1.5 0.00298233 -0.797242 
6.76264 -13.4088 26.4933 0 0 1.5 0.00240727 -1.11715 
6.57934 -13.3985 26.7771 0 0 1.5 0.0021947 -1.23044 
6.39604 -13.3881 27.0609 0 0 1.5 0.0027254 -0.671501 
6.21274 -13.3778 27.3446 0 0 1.5 0.00319412 -0.450283 
6.02944 -13.3675 27.6284 0 0 1.5 0.00367379 -0.314012 
5.84614 -13.3572 27.9121 0 0 1.5 0.00412677 -0.229524 
5.66284 -13.3468 28.1959 0 0 1.5 0.00489508 -0.139201 
5.47953 -13.3365 28.4797 0 0 1.5 0.00520395 -0.113895 
5.29623 -13.3262 28.7634 0 0 1.5 0.00546439 -0.0953093 
5.11293 -13.3159 29.0472 0 0 1.5 0.00567968 -0.08125 
4.92963 -13.3056 29.3309 0 0 1.5 0.00599173 -0.0616983 
4.74633 -13.2952 29.6147 0 0 1.5 0.006098 -0.0544361 
4.56303 -13.2849 29.8984 0 0 1.5 0.00617758 -0.0482713 
4.37973 -13.2746 30.1822 0 0 1.5 0.00627274 -0.0384066 
4.19643 -13.2643 30.466 0 0 1.5 0.00629618 -0.0342481 
4.01312 -13.2539 30.7497 0 0 1.5 0.00630853 -0.0304954 
3.82982 -13.2436 31.0335 0 0 1.5 0.00631217 -0.0271583 
3.64652 -13.2333 31.3172 0 0 1.5 0.00630184 -0.021467 
3.46322 -13.223 31.601 0 0 1.5 0.0062919 -0.0190639 
3.27992 -13.2126 31.8848 0 0 1.5 0.00628025 -0.0169852 
3.09662 -13.2023 32.1685 0 0 1.5 0.0062675 -0.0152185 
2.91332 -13.192 32.4523 0 0 1.5 0.00624112 -0.0125821 
2.73002 -13.1817 32.736 0 0 1.5 0.00622812 -0.0116985 
2.54671 -13.1713 33.0198 0 0 1.5 0.00621526 -0.0111017 
0 1 0 
1 2 0 
2 3 0 
3 4 0 
4 5 0 
5 6 0 
6 7 0 
7 8 0 
8 9 0 
9 10 0 
10 11 0 
11 12 0 
12 13 0 
13 14 0 
14 15 0 
15 16 0 
16 17 0 
17 18 0 
18 19 0 
19 20 0 
20 21 0 
21 22 0 
22 23 0 
23 24 0 
24 25 0 
25 26 0 
26 27 0 
27 28 0 
28 29 0 
29 30 0 
30 31 0 
31 32 0 
32 33 0 
33 34 0 
34 35 0 
35 36 0 
36 37 0 
37 38 0 
38 39 0 
39 40 0 
40 41 0 
41 42 0 
42 43 0 
43 44 0 
44 45 0 
45 46 0 
46 47 0 
47 48 0 
48 49 0 
49 50 0 
50 51 0 
51 52 0 
52 53 0 
53 54 0 
54 55 0 
55 56 0 
56 57 0 
57 58 0 
58 59 0 
59 60 0 
60 61 0 
61 62 0 
62 63 0 
63 64 0 
64 65 0 
65 66 0 
66 67 0 
67 68 0 
68 69 0 
69 70 0 
70 71 0 
71 72 0 
72 73 0 
73 74 0 
74 75 0 
75 76 0 
76 77 0 
77 78 0 
78 79 0 
79 80 0 
80 81 0 
81 82 0 
82 83 0 
83 84 0 
84 85 0 
85 86 0 
86 87 0 
87 88 0 
88 89 0 
89 90 0 
90 91 0 
91 92 0 
92 93 0 
93 94 0 
94 95 0 
95 96 0 
96 97 0 
97 98 0 
98 99 0 
99 100 0 
100 101 0 
101 102 0 
102 103 0 
103 104 0 
104 105 0 
105 106 0 
106 107 0 
107 108 0 
108 109 0 
109 110 0 
110 111 0 
111 112 0 
112 113 0 
113 114 0 
114 115 0 
115 116 0 
116 117 0 
117 118 0 
118 119 0 
119 120 0 
120 121 0 
121 122 0 
122 123 0 
123 124 0 
124 125 0 
125 126 0 
126 127 0 
127 128 0 
128 129 0 
129 130 0 
130 131 0 
131 132 0 
132 133 0 
133 134 0 
134 135 0 
135 136 0 
136 137 0 
137 138 0 
138 139 0 
139 140 0 
140 141 0 
141 142 0 
142 143 0 
143 144 0 
144 145 0 
145 146 0 
146 147 0 
147 148 0 
148 149 0 
149 150 0 
150 151 0 
151 152 0 
152 153 0 
153 154 0 
154 155 0 
155 156 0 
156 157 0 
157 158 0 
158 159 0 
159 160 0 
160 161 0 
161 162 0 
162 163 0 
163 164 0 
164 165 0 
165 166 0 
166 167 0 
167 168 0 
168 169 0 
169 170 0 
170 171 0 
171 172 0 
172 173 0 
173 174 0 
174 175 0 
175 176 0 
176 177 0 
177 178 0 
178 179 0 
179 180 0 
180 181 0 
181 182 0 
182 183 0 
183 184 0 
184 185 0 
185 186 0 
186 187 0 
187 188 0 
188 189 0 
189 190 0 
190 191 0 
191 192 0 
192 193 0 
193 194 0 
194 195 0 
195 196 0 
196 197 0 
197 198 0 
198 199 0 
199 200 0 
200 201 0 
201 202 0 
202 203 0 
203 204 0 
204 205 0 
205 206 0 
206 207 0 
207 208 0 
208 209 0 
209 210 0 
210 211 0 
211 212 0 
212 213 0 
213 214 0 
214 215 0 
215 216 0 
216 217 0 
217 218 0 
218 219 0 
219 220 0 
220 221 0 
221 222 0 
222 223 0 
223 224 0 
224 225 0 
225 226 0 
226 227 0 
227 228 0 
228 229 0 
229 230 0 
230 231 0 
231 232 0 
232 233 0 
233 234 0 
234 235 0 
235 236 0 
236 237 0 
237 238 0 
238 239 0 
239 240 0 
240 241 0 
241 242 0 
242 243 0 
243 244 0 
244 245 0 
245 246 0 
246 247 0 
247 248 0 
248 249 0 
249 250 0 
250 251 0 
251 252 0 
252 253 0 
253 254 0 
254 255 0 
255 256 0 
256 257 0 
257 258 0 
258 259 0 
259 260 0 
260 261 0 
261 262 0 
262 263 0 
263 264 0 
264 265 0 
265 266 0 
266 267 0 
267 268 0 
268 269 0 
269 270 0 
270 271 0 
271 272 0 
272 273 0 
273 274 0 
274 275 0 
275 276 0 
276 277 0 
277 278 0 
278 279 0 
279 280 0 
280 281 0 
281 282 0 
282 283 0 
283 284 0 
284 285 0 
285 286 0 
286 287 0 
287 288 0 
288 289 0 
289 290 0 
290 291 0 
291 292 0 
292 293 0 
293 294 0 
294 295 0 
295 296 0 
296 297 0 
297 298 0 
298 299 0 
-1 -1 0 
-1 300 0 1 2 3 4 5 6 7 8 9 10 11 12 13 14 15 16 17 18 19 20 21 22 23 24 25 26 27 28 29 30 31 32 33 34 35 36 37 38 39 40 41 42 43 44 45 46 47 48 49 50 51 52 53 54 55 56 57 58 59 60 61 62 63 64 65 66 67 68 69 70 71 72 73 74 75 76 77 78 79 80 81 82 83 84 85 86 87 88 89 90 91 92 93 94 95 96 97 98 99 100 101 102 103 104 105 106 107 108 109 110 111 112 113 114 115 116 117 118 119 120 121 122 123 124 125 126 127 128 129 130 131 132 133 134 135 136 137 138 139 140 141 142 143 144 145 146 147 148 149 150 151 152 153 154 155 156 157 158 159 160 161 162 163 164 165 166 167 168 169 170 171 172 173 174 175 176 177 178 179 180 181 182 183 184 185 186 187 188 189 190 191 192 193 194 195 196 197 198 199 200 201 202 203 204 205 206 207 208 209 210 211 212 213 214 215 216 217 218 219 220 221 222 223 224 225 226 227 228 229 230 231 232 233 234 235 236 237 238 239 240 241 242 243 244 245 246 247 248 249 250 251 252 253 254 255 256 257 258 259 260 261 262 263 264 265 266 267 268 269 270 271 272 273 274 275 276 277 278 279 280 281 282 283 284 285 286 287 288 289 290 291 292 293 294 295 296 297 298 299 
