ply
format ascii 1.0
comment written by koba@oshima.lab
element vertex 300
property float x
property float y
property float z
property int label
property int attribute
property float radius
property float curvature
property float torsion
element edge 300
property int vertex1
property int vertex2
property int label
element vertex_seq 1
property int label
property list int int vertex_indices
end_header
2.45742 28.9653 -7.04292 0 0 1.5 0.0191985 0.0289004 
2.38052 28.6533 -6.97183 0 0 1.5 0.0191065 0.0297179 
2.30362 28.3414 -6.90073 0 0 1.5 0.0190113 0.030936 
2.22671 28.0295 -6.82963 0 0 1.5 0.0189115 0.0325773 
2.14981 27.7175 -6.75853 0 0 1.5 0.0186922 0.0372125 
2.07291 27.4056 -6.68744 0 0 1.5 0.0185687 0.0402341 
1.996 27.0937 -6.61634 0 0 1.5 0.018433 0.0437781 
1.9191 26.7817 -6.54524 0 0 1.5 0.0182826 0.0478988 
1.8422 26.4698 -6.47415 0 0 1.5 0.0179256 0.0577968 
1.7653 26.1579 -6.40305 0 0 1.5 0.0177101 0.0637073 
1.68839 25.8459 -6.33195 0 0 1.5 0.017464 0.0704595 
1.61149 25.534 -6.26085 0 0 1.5 0.0171827 0.0780674 
1.53459 25.2221 -6.18976 0 0 1.5 0.0164881 0.0965057 
1.45768 24.9101 -6.11866 0 0 1.5 0.016062 0.108194 
1.38078 24.5982 -6.04756 0 0 1.5 0.0155758 0.122051 
1.30388 24.2863 -5.97646 0 0 1.5 0.0143988 0.159318 
1.22697 23.9743 -5.90537 0 0 1.5 0.0136996 0.185745 
1.15007 23.6624 -5.83427 0 0 1.5 0.0129257 0.220032 
1.07317 23.3505 -5.76317 0 0 1.5 0.0120816 0.265325 
0.996263 23.0385 -5.69207 0 0 1.5 0.0102444 0.412004 
0.91936 22.7266 -5.62098 0 0 1.5 0.00932337 0.527906 
0.842457 22.4147 -5.54988 0 0 1.5 0.0084991 0.675943 
0.765553 22.1028 -5.47878 0 0 1.5 0.00790011 0.836198 
0.68865 21.7908 -5.40768 0 0 1.5 0.00804004 0.938845 
0.611747 21.4789 -5.33659 0 0 1.5 0.0089929 0.816377 
0.534844 21.167 -5.26549 0 0 1.5 0.0105006 0.656036 
0.457941 20.855 -5.19439 0 0 1.5 0.014796 0.405116 
0.381037 20.5431 -5.12329 0 0 1.5 0.017423 0.325949 
0.304134 20.2312 -5.0522 0 0 1.5 0.020294 0.269409 
0.227231 19.9192 -4.9811 0 0 1.5 0.0233731 0.228931 
0.150328 19.6073 -4.91 0 0 1.5 0.030045 0.177715 
0.0734246 19.2954 -4.8389 0 0 1.5 0.0335834 0.161733 
-0.00347855 18.9834 -4.76781 0 0 1.5 0.0372261 0.150064 
-0.0803818 18.6715 -4.69671 0 0 1.5 0.0409526 0.141509 
-0.157285 18.3596 -4.62561 0 0 1.5 0.0485531 0.131163 
-0.234188 18.0476 -4.55451 0 0 1.5 0.0523781 0.128737 
-0.311091 17.7357 -4.48342 0 0 1.5 0.0561897 0.127652 
-0.387995 17.4238 -4.41232 0 0 1.5 0.0599631 0.127671 
-0.464898 17.1118 -4.34122 0 0 1.5 0.0673046 0.131008 
-0.552669 16.8018 -4.27492 0 0 1.5 0.0708351 0.134082 
-0.644323 16.4924 -4.21034 0 0 1.5 0.0742528 0.137834 
-0.751255 16.1867 -4.15275 0 0 1.5 0.0807142 0.147758 
-0.861523 15.8818 -4.09675 0 0 1.5 0.0837534 0.153767 
-0.987685 15.5818 -4.04838 0 0 1.5 0.0866765 0.160153 
-1.12001 15.2841 -4.00317 0 0 1.5 0.0895007 0.166996 
-1.26563 14.9916 -3.96477 0 0 1.5 0.0949482 0.181954 
-1.42173 14.704 -3.93228 0 0 1.5 0.0976382 0.18951 
-1.58747 14.421 -3.90522 0 0 1.5 0.10036 0.197039 
-1.76763 14.1465 -3.88751 0 0 1.5 0.10316 0.204528 
-1.95296 13.875 -3.87315 0 0 1.5 0.109208 0.217345 
-2.15522 13.6155 -3.87238 0 0 1.5 0.112569 0.22216 
-2.36098 13.3589 -3.87532 0 0 1.5 0.116223 0.225926 
-2.57796 13.1121 -3.89077 0 0 1.5 0.124582 0.22918 
-2.79915 12.8698 -3.91425 0 0 1.5 0.129348 0.228631 
-3.02536 12.6332 -3.94732 0 0 1.5 0.13452 0.226936 
-3.25401 12.4016 -3.99489 0 0 1.5 0.140091 0.224115 
-3.48349 12.1719 -4.04842 0 0 1.5 0.152306 0.215615 
-3.70968 11.9452 -4.12394 0 0 1.5 0.158837 0.210572 
-3.93219 11.7183 -4.20815 0 0 1.5 0.165537 0.205254 
-4.14784 11.4909 -4.30859 0 0 1.5 0.172301 0.19978 
-4.35126 11.2618 -4.4277 0 0 1.5 0.185494 0.189216 
-4.54754 11.0318 -4.55703 0 0 1.5 0.19162 0.184403 
-4.72321 10.7998 -4.71068 0 0 1.5 0.197229 0.179956 
-4.88611 10.5681 -4.87716 0 0 1.5 0.206287 0.172471 
-5.036 10.3367 -5.05669 0 0 1.5 0.209456 0.169526 
-5.16124 10.1093 -5.25862 0 0 1.5 0.211579 0.167095 
-5.27471 9.88533 -5.47059 0 0 1.5 0.212593 0.165227 
-5.37019 9.66718 -5.69767 0 0 1.5 0.211197 0.163347 
-5.44332 9.45946 -5.94167 0 0 1.5 0.208852 0.163214 
-5.50306 9.2588 -6.19495 0 0 1.5 0.20552 0.163668 
-5.54036 9.07111 -6.46263 0 0 1.5 0.201317 0.164809 
-5.55533 8.89805 -6.74151 0 0 1.5 0.190898 0.168833 
-5.55537 8.73508 -7.02692 0 0 1.5 0.185043 0.171614 
-5.53105 8.58929 -7.3209 0 0 1.5 0.179001 0.174949 
-5.48682 8.45781 -7.61881 0 0 1.5 0.172949 0.178714 
-5.42911 8.33569 -7.91863 0 0 1.5 0.161575 0.186656 
-5.3495 8.22787 -8.21913 0 0 1.5 0.156608 0.190439 
-5.25368 8.12751 -8.5172 0 0 1.5 0.152351 0.193688 
-5.1459 8.03166 -8.81282 0 0 1.5 0.146694 0.19668 
-5.01651 7.93896 -9.1008 0 0 1.5 0.14565 0.195475 
-4.87137 7.84265 -9.37958 0 0 1.5 0.146026 0.192088 
-4.7137 7.74229 -9.65014 0 0 1.5 0.148003 0.186426 
-4.53426 7.62808 -9.90119 0 0 1.5 0.157448 0.168595 
-4.34242 7.49975 -10.1348 0 0 1.5 0.16525 0.157474 
-4.14171 7.36062 -10.3551 0 0 1.5 0.175352 0.145909 
-3.92861 7.19665 -10.5447 0 0 1.5 0.187966 0.134333 
-3.71305 7.02161 -10.7201 0 0 1.5 0.221715 0.112759 
-3.49445 6.83285 -10.8778 0 0 1.5 0.243455 0.103576 
-3.27569 6.6289 -11.0141 0 0 1.5 0.268925 0.0955718 
-3.05687 6.41971 -11.143 0 0 1.5 0.332715 0.0830299 
-2.83989 6.19559 -11.2475 0 0 1.5 0.371873 0.0786454 
-2.62319 5.96936 -11.3478 0 0 1.5 0.416302 0.0753939 
-2.40781 5.73322 -11.426 0 0 1.5 0.46602 0.0731477 
-2.19233 5.49463 -11.4946 0 0 1.5 0.57879 0.0715546 
-1.97665 5.25089 -11.543 0 0 1.5 0.638447 0.0720252 
-1.75952 5.00544 -11.5644 0 0 1.5 0.696002 0.0731348 
-1.54151 4.76017 -11.5606 0 0 1.5 0.746647 0.0746267 
-1.3232 4.522 -11.4983 0 0 1.5 0.805716 0.0775873 
-1.11977 4.31688 -11.3448 0 0 1.5 0.80572 0.0786889 
-0.964427 4.18368 -11.0931 0 0 1.5 0.784474 0.079267 
-0.877955 4.13555 -10.7833 0 0 1.5 0.691236 0.0788136 
-0.841326 4.1397 -10.4586 0 0 1.5 0.629737 0.0783901 
-0.833505 4.17015 -10.1316 0 0 1.5 0.565288 0.0781096 
-0.854316 4.22115 -9.80716 0 0 1.5 0.501836 0.078105 
-0.88978 4.27718 -9.48514 0 0 1.5 0.386987 0.0802023 
-0.936011 4.33693 -9.16489 0 0 1.5 0.337457 0.0828436 
-0.997729 4.39543 -8.84714 0 0 1.5 0.293341 0.0868588 
-1.06418 4.45356 -8.53016 0 0 1.5 0.25431 0.0926495 
-1.14629 4.5046 -8.21572 0 0 1.5 0.18952 0.112025 
-1.23103 4.55446 -7.9017 0 0 1.5 0.162723 0.127585 
-1.33231 4.59256 -7.59102 0 0 1.5 0.139036 0.14921 
-1.43519 4.62951 -7.28067 0 0 1.5 0.118083 0.179633 
-1.55618 4.65049 -6.9754 0 0 1.5 0.0833633 0.286304 
-1.68009 4.66847 -6.67126 0 0 1.5 0.0694302 0.37711 
-1.81893 4.6711 -6.37295 0 0 1.5 0.0579916 0.501435 
-1.96434 4.66541 -6.07813 0 0 1.5 0.0446853 0.759305 
-2.11904 4.64793 -5.78825 0 0 1.5 0.0439064 0.760034 
-2.28265 4.61382 -5.50502 0 0 1.5 0.0468495 0.651536 
-2.44993 4.56934 -5.22537 0 0 1.5 0.0525299 0.510074 
-2.62057 4.50706 -4.95101 0 0 1.5 0.0683386 0.29644 
-2.78673 4.42467 -4.67941 0 0 1.5 0.077271 0.230162 
-2.94384 4.32527 -4.40839 0 0 1.5 0.0864339 0.182005 
-3.08679 4.20731 -4.13685 0 0 1.5 0.0956375 0.146113 
-3.20581 4.06834 -3.86337 0 0 1.5 0.113604 0.0955983 
-3.29528 3.91206 -3.58826 0 0 1.5 0.122109 0.0766449 
-3.36301 3.74678 -3.31241 0 0 1.5 0.130147 0.060322 
-3.41295 3.5756 -3.03603 0 0 1.5 0.144387 0.0315679 
-3.44313 3.40054 -2.75906 0 0 1.5 0.150373 0.0181713 
-3.46163 3.22539 -2.48123 0 0 1.5 0.155482 0.0052846 
-3.47364 3.05041 -2.20285 0 0 1.5 0.159641 -0.00751013 
-3.47483 2.87709 -1.92316 0 0 1.5 0.164925 -0.0337034 
-3.47132 2.70437 -1.64316 0 0 1.5 0.166023 -0.0467536 
-3.46188 2.53241 -1.36278 0 0 1.5 0.166119 -0.0598758 
-3.44404 2.35948 -1.08346 0 0 1.5 0.165269 -0.0732025 
-3.42294 2.18619 -0.804541 0 0 1.5 0.161059 -0.0990187 
-3.38825 2.00732 -0.530554 0 0 1.5 0.157907 -0.111053 
-3.3496 1.82578 -0.259015 0 0 1.5 0.154208 -0.122416 
-3.29849 1.63546 0.00449446 0 0 1.5 0.150077 -0.132798 
-3.23943 1.43681 0.259669 0 0 1.5 0.140927 -0.14941 
-3.17214 1.22958 0.506237 0 0 1.5 0.136081 -0.155271 
-3.09434 1.00583 0.734176 0 0 1.5 0.131144 -0.159316 
-3.01293 0.775295 0.954104 0 0 1.5 0.121165 -0.161484 
-2.92473 0.52426 1.14769 0 0 1.5 0.116163 -0.159305 
-2.8366 0.264042 1.32776 0 0 1.5 0.111156 -0.155097 
-2.74855 -0.00872642 1.48936 0 0 1.5 0.106134 -0.149065 
-2.66614 -0.295066 1.62802 0 0 1.5 0.0959707 -0.13092 
-2.58614 -0.586668 1.75765 0 0 1.5 0.0907769 -0.118974 
-2.51887 -0.891769 1.8609 0 0 1.5 0.08548 -0.10551 
-2.45624 -1.19963 1.95787 0 0 1.5 0.0800641 -0.0900132 
-2.40473 -1.51413 2.03978 0 0 1.5 0.0688198 -0.0499708 
-2.36132 -1.83155 2.114 0 0 1.5 0.0629825 -0.0238235 
-2.3252 -2.15161 2.1813 0 0 1.5 0.0570129 0.00935776 
-2.29828 -2.47367 2.24279 0 0 1.5 0.0447775 0.116191 
-2.27475 -2.79646 2.30216 0 0 1.5 0.0386296 0.207468 
-2.25861 -3.12001 2.3598 0 0 1.5 0.0326291 0.349251 
-2.24336 -3.44356 2.41765 0 0 1.5 0.027043 0.576185 
-2.23025 -3.76667 2.4785 0 0 1.5 0.0196084 1.25895 
-2.21601 -4.08928 2.54157 0 0 1.5 0.0197322 1.28193 
-2.19912 -4.41071 2.60987 0 0 1.5 0.0229192 0.960909 
-2.17725 -4.73061 2.68338 0 0 1.5 0.028309 0.626214 
-2.15054 -5.04902 2.76195 0 0 1.5 0.0425273 0.262146 
-2.11284 -5.36398 2.84899 0 0 1.5 0.0505547 0.176094 
-2.07112 -5.67768 2.93911 0 0 1.5 0.0589477 0.12102 
-2.01122 -5.98501 3.04019 0 0 1.5 0.0764742 0.0598889 
-1.94642 -6.29042 3.14364 0 0 1.5 0.0854764 0.0424997 
-1.86509 -6.58924 3.25482 0 0 1.5 0.0945564 0.03018 
-1.77436 -6.88384 3.36926 0 0 1.5 0.103652 0.0214843 
-1.67156 -7.17302 3.48791 0 0 1.5 0.121595 0.0111698 
-1.55483 -7.45519 3.60994 0 0 1.5 0.130263 0.00843883 
-1.43071 -7.73364 3.73377 0 0 1.5 0.138602 0.00688601 
-1.28866 -8.00192 3.86044 0 0 1.5 0.146506 0.00631483 
-1.14263 -8.26786 3.9877 0 0 1.5 0.16054 0.00759469 
-0.976558 -8.52074 4.11709 0 0 1.5 0.166429 0.00919417 
-0.805541 -8.76981 4.24694 0 0 1.5 0.171413 0.0113922 
-0.618203 -9.00631 4.37825 0 0 1.5 0.175384 0.0142026 
-0.421508 -9.23407 4.51049 0 0 1.5 0.179962 0.0212783 
-0.21251 -9.45036 4.64396 0 0 1.5 0.180485 0.0255186 
0.0106017 -9.65027 4.77914 0 0 1.5 0.179815 0.0303214 
0.241216 -9.84149 4.91524 0 0 1.5 0.175033 0.0412871 
0.490258 -10.0054 5.05405 0 0 1.5 0.171069 0.0474881 
0.74436 -10.1603 5.19365 0 0 1.5 0.166187 0.054347 
1.01292 -10.2868 5.33562 0 0 1.5 0.160501 0.0618546 
1.28741 -10.3968 5.47864 0 0 1.5 0.147239 0.0790122 
1.56888 -10.4876 5.62289 0 0 1.5 0.139926 0.0891176 
1.85612 -10.5537 5.76839 0 0 1.5 0.13232 0.10047 
2.14538 -10.6111 5.91433 0 0 1.5 0.124542 0.113232 
2.43787 -10.6422 6.06182 0 0 1.5 0.108894 0.144546 
2.73043 -10.6685 6.20987 0 0 1.5 0.101211 0.163956 
3.02321 -10.6813 6.3595 0 0 1.5 0.0937368 0.186441 
3.31518 -10.6895 6.51094 0 0 1.5 0.079731 0.242893 
3.6063 -10.6928 6.66426 0 0 1.5 0.0733569 0.277874 
3.89539 -10.6953 6.82136 0 0 1.5 0.0675113 0.317606 
4.18363 -10.6975 6.98006 0 0 1.5 0.0622853 0.361279 
4.46796 -10.7046 7.14551 0 0 1.5 0.0540857 0.450295 
4.75105 -10.7135 7.3129 0 0 1.5 0.0513013 0.486686 
5.02922 -10.7305 7.48785 0 0 1.5 0.0494888 0.509847 
5.30435 -10.7518 7.66688 0 0 1.5 0.0486698 0.515339 
5.57493 -10.7796 7.85204 0 0 1.5 0.0498334 0.475161 
5.83956 -10.8137 8.04444 0 0 1.5 0.0516216 0.43803 
6.10113 -10.8509 8.24058 0 0 1.5 0.0540418 0.396885 
6.35345 -10.8935 8.44738 0 0 1.5 0.06027 0.318096 
6.60298 -10.9368 8.65736 0 0 1.5 0.0638718 0.284003 
6.84406 -10.9812 8.87687 0 0 1.5 0.0676876 0.254068 
7.07991 -11.0242 9.10208 0 0 1.5 0.0716524 0.227874 
7.30973 -11.0658 9.33387 0 0 1.5 0.079844 0.18423 
7.53052 -11.1034 9.57478 0 0 1.5 0.0839938 0.165822 
7.74791 -11.1395 9.81914 0 0 1.5 0.0881343 0.148946 
7.95142 -11.1695 10.076 0 0 1.5 0.0922351 0.13308 
8.15093 -11.1981 10.3359 0 0 1.5 0.100197 0.103224 
8.33828 -11.2226 10.6053 0 0 1.5 0.103995 0.0887405 
8.51726 -11.2462 10.8802 0 0 1.5 0.107628 0.074258 
8.68751 -11.2687 11.1609 0 0 1.5 0.111062 0.0595684 
8.84524 -11.2934 11.4485 0 0 1.5 0.117203 0.0290501 
8.99838 -11.3192 11.7385 0 0 1.5 0.119852 0.0134104 
9.13781 -11.3548 12.0344 0 0 1.5 0.122189 -0.00269803 
9.27401 -11.3973 12.3308 0 0 1.5 0.125869 -0.036898 
9.40417 -11.4524 12.6279 0 0 1.5 0.127198 -0.0546863 
9.53216 -11.5295 12.9207 0 0 1.5 0.12819 -0.0731147 
9.65975 -11.6215 13.2093 0 0 1.5 0.128862 -0.0924005 
9.78974 -11.7477 13.484 0 0 1.5 0.129353 -0.131221 
9.9232 -11.9031 13.7403 0 0 1.5 0.129258 -0.150137 
10.0591 -12.0812 13.9804 0 0 1.5 0.129001 -0.1687 
10.1976 -12.2926 14.1911 0 0 1.5 0.128634 -0.186207 
10.3345 -12.5242 14.3794 0 0 1.5 0.127772 -0.215419 
10.469 -12.7681 14.5543 0 0 1.5 0.127354 -0.226689 
10.5951 -13.0274 14.7127 0 0 1.5 0.126975 -0.235227 
10.7096 -13.292 14.8711 0 0 1.5 0.126348 -0.242908 
10.8148 -13.5598 15.0305 0 0 1.5 0.126054 -0.24216 
10.8886 -13.8247 15.2112 0 0 1.5 0.125713 -0.238846 
10.9339 -14.0758 15.4157 0 0 1.5 0.125272 -0.233407 
10.9505 -14.3117 15.6432 0 0 1.5 0.123843 -0.217254 
10.9008 -14.4898 15.9153 0 0 1.5 0.122715 -0.207665 
10.8183 -14.6241 16.1988 0 0 1.5 0.121243 -0.197994 
10.7035 -14.7149 16.4934 0 0 1.5 0.119391 -0.188298 
10.5886 -14.8058 16.7881 0 0 1.5 0.114437 -0.169432 
10.4738 -14.8966 17.0828 0 0 1.5 0.111321 -0.161074 
10.3589 -14.9875 17.3774 0 0 1.5 0.1078 -0.153433 
10.244 -15.0784 17.6721 0 0 1.5 0.103895 -0.146402 
10.1292 -15.1692 17.9667 0 0 1.5 0.0950747 -0.13516 
10.0143 -15.2601 18.2614 0 0 1.5 0.0902588 -0.131028 
9.89948 -15.3509 18.5561 0 0 1.5 0.0852411 -0.127709 
9.78462 -15.4418 18.8507 0 0 1.5 0.0748045 -0.124446 
9.66976 -15.5327 19.1454 0 0 1.5 0.0694917 -0.124734 
9.5549 -15.6235 19.44 0 0 1.5 0.0641821 -0.12627 
9.44005 -15.7144 19.7347 0 0 1.5 0.0589199 -0.129353 
9.32519 -15.8053 20.0293 0 0 1.5 0.048686 -0.141855 
9.21033 -15.8961 20.324 0 0 1.5 0.0437828 -0.151963 
9.09547 -15.987 20.6187 0 0 1.5 0.0390639 -0.165678 
8.98061 -16.0778 20.9133 0 0 1.5 0.0345521 -0.184437 
8.86576 -16.1687 21.208 0 0 1.5 0.0262452 -0.24438 
8.7509 -16.2596 21.5026 0 0 1.5 0.0225049 -0.291737 
8.63604 -16.3504 21.7973 0 0 1.5 0.019077 -0.35791 
8.52118 -16.4413 22.0919 0 0 1.5 0.0133277 -0.575083 
8.40633 -16.5321 22.3866 0 0 1.5 0.0111386 -0.732299 
8.29147 -16.623 22.6813 0 0 1.5 0.0095211 -0.895865 
8.17661 -16.7139 22.9759 0 0 1.5 0.00855483 -0.99584 
8.06175 -16.8047 23.2706 0 0 1.5 0.00845772 -0.826943 
7.9469 -16.8956 23.5652 0 0 1.5 0.00900405 -0.660651 
7.83204 -16.9864 23.8599 0 0 1.5 0.0096987 -0.516758 
7.71718 -17.0773 24.1545 0 0 1.5 0.010413 -0.407064 
7.60232 -17.1682 24.4492 0 0 1.5 0.0116167 -0.271192 
7.48746 -17.259 24.7439 0 0 1.5 0.0120399 -0.23049 
7.37261 -17.3499 25.0385 0 0 1.5 0.0123266 -0.2006 
7.25775 -17.4407 25.3332 0 0 1.5 0.0124872 -0.163081 
7.14289 -17.5316 25.6278 0 0 1.5 0.0123725 -0.151954 
7.02803 -17.6225 25.9225 0 0 1.5 0.0121402 -0.144153 
6.91318 -17.7133 26.2172 0 0 1.5 0.0118015 -0.13928 
6.79832 -17.8042 26.5118 0 0 1.5 0.0108528 -0.137734 
6.68346 -17.895 26.8065 0 0 1.5 0.0102686 -0.140474 
6.5686 -17.9859 27.1011 0 0 1.5 0.00962921 -0.145823 
6.45375 -18.0768 27.3958 0 0 1.5 0.00894661 -0.154497 
6.33889 -18.1676 27.6904 0 0 1.5 0.00750088 -0.183993 
6.22403 -18.2585 27.9851 0 0 1.5 0.0067631 -0.207149 
6.10917 -18.3493 28.2798 0 0 1.5 0.00603045 -0.239155 
5.99431 -18.4402 28.5744 0 0 1.5 0.00531433 -0.283199 
5.87946 -18.5311 28.8691 0 0 1.5 0.00398547 -0.427192 
5.7646 -18.6219 29.1637 0 0 1.5 0.00340345 -0.542586 
5.64974 -18.7128 29.4584 0 0 1.5 0.00290306 -0.693143 
5.53488 -18.8036 29.753 0 0 1.5 0.0022624 -0.992534 
5.42003 -18.8945 30.0477 0 0 1.5 0.00217104 -1.00987 
5.30517 -18.9854 30.3424 0 0 1.5 0.00222877 -0.89974 
5.19031 -19.0762 30.637 0 0 1.5 0.00239866 -0.729752 
5.07545 -19.1671 30.9317 0 0 1.5 0.0029068 -0.44052 
4.9606 -19.2579 31.2263 0 0 1.5 0.00318691 -0.345616 
4.84574 -19.3488 31.521 0 0 1.5 0.00346264 -0.275726 
4.73088 -19.4397 31.8156 0 0 1.5 0.00372572 -0.224095 
4.61602 -19.5305 32.1103 0 0 1.5 0.00419911 -0.156003 
4.50116 -19.6214 32.405 0 0 1.5 0.00440702 -0.132692 
4.38631 -19.7122 32.6996 0 0 1.5 0.00459592 -0.114036 
4.27145 -19.8031 32.9943 0 0 1.5 0.00492052 -0.0865558 
4.15659 -19.894 33.2889 0 0 1.5 0.00505906 -0.0760509 
4.04173 -19.9848 33.5836 0 0 1.5 0.00518394 -0.0671383 
3.92688 -20.0757 33.8783 0 0 1.5 0.00529656 -0.0596171 
3.81202 -20.1665 34.1729 0 0 1.5 0.00549083 -0.047654 
3.69716 -20.2574 34.4676 0 0 1.5 0.0055755 -0.042902 
3.5823 -20.3483 34.7622 0 0 1.5 0.00565345 -0.0388971 
3.46745 -20.4391 35.0569 0 0 1.5 0.00572571 -0.0355383 
3.35259 -20.53 35.3515 0 0 1.5 0.00585742 -0.0304633 
3.23773 -20.6208 35.6462 0 0 1.5 0.00591875 -0.028661 
3.12287 -20.7117 35.9409 0 0 1.5 0.00597813 -0.0272945 
0 1 0 
1 2 0 
2 3 0 
3 4 0 
4 5 0 
5 6 0 
6 7 0 
7 8 0 
8 9 0 
9 10 0 
10 11 0 
11 12 0 
12 13 0 
13 14 0 
14 15 0 
15 16 0 
16 17 0 
17 18 0 
18 19 0 
19 20 0 
20 21 0 
21 22 0 
22 23 0 
23 24 0 
24 25 0 
25 26 0 
26 27 0 
27 28 0 
28 29 0 
29 30 0 
30 31 0 
31 32 0 
32 33 0 
33 34 0 
34 35 0 
35 36 0 
36 37 0 
37 38 0 
38 39 0 
39 40 0 
40 41 0 
41 42 0 
42 43 0 
43 44 0 
44 45 0 
45 46 0 
46 47 0 
47 48 0 
48 49 0 
49 50 0 
50 51 0 
51 52 0 
52 53 0 
53 54 0 
54 55 0 
55 56 0 
56 57 0 
57 58 0 
58 59 0 
59 60 0 
60 61 0 
61 62 0 
62 63 0 
63 64 0 
64 65 0 
65 66 0 
66 67 0 
67 68 0 
68 69 0 
69 70 0 
70 71 0 
71 72 0 
72 73 0 
73 74 0 
74 75 0 
75 76 0 
76 77 0 
77 78 0 
78 79 0 
79 80 0 
80 81 0 
81 82 0 
82 83 0 
83 84 0 
84 85 0 
85 86 0 
86 87 0 
87 88 0 
88 89 0 
89 90 0 
90 91 0 
91 92 0 
92 93 0 
93 94 0 
94 95 0 
95 96 0 
96 97 0 
97 98 0 
98 99 0 
99 100 0 
100 101 0 
101 102 0 
102 103 0 
103 104 0 
104 105 0 
105 106 0 
106 107 0 
107 108 0 
108 109 0 
109 110 0 
110 111 0 
111 112 0 
112 113 0 
113 114 0 
114 115 0 
115 116 0 
116 117 0 
117 118 0 
118 119 0 
119 120 0 
120 121 0 
121 122 0 
122 123 0 
123 124 0 
124 125 0 
125 126 0 
126 127 0 
127 128 0 
128 129 0 
129 130 0 
130 131 0 
131 132 0 
132 133 0 
133 134 0 
134 135 0 
135 136 0 
136 137 0 
137 138 0 
138 139 0 
139 140 0 
140 141 0 
141 142 0 
142 143 0 
143 144 0 
144 145 0 
145 146 0 
146 147 0 
147 148 0 
148 149 0 
149 150 0 
150 151 0 
151 152 0 
152 153 0 
153 154 0 
154 155 0 
155 156 0 
156 157 0 
157 158 0 
158 159 0 
159 160 0 
160 161 0 
161 162 0 
162 163 0 
163 164 0 
164 165 0 
165 166 0 
166 167 0 
167 168 0 
168 169 0 
169 170 0 
170 171 0 
171 172 0 
172 173 0 
173 174 0 
174 175 0 
175 176 0 
176 177 0 
177 178 0 
178 179 0 
179 180 0 
180 181 0 
181 182 0 
182 183 0 
183 184 0 
184 185 0 
185 186 0 
186 187 0 
187 188 0 
188 189 0 
189 190 0 
190 191 0 
191 192 0 
192 193 0 
193 194 0 
194 195 0 
195 196 0 
196 197 0 
197 198 0 
198 199 0 
199 200 0 
200 201 0 
201 202 0 
202 203 0 
203 204 0 
204 205 0 
205 206 0 
206 207 0 
207 208 0 
208 209 0 
209 210 0 
210 211 0 
211 212 0 
212 213 0 
213 214 0 
214 215 0 
215 216 0 
216 217 0 
217 218 0 
218 219 0 
219 220 0 
220 221 0 
221 222 0 
222 223 0 
223 224 0 
224 225 0 
225 226 0 
226 227 0 
227 228 0 
228 229 0 
229 230 0 
230 231 0 
231 232 0 
232 233 0 
233 234 0 
234 235 0 
235 236 0 
236 237 0 
237 238 0 
238 239 0 
239 240 0 
240 241 0 
241 242 0 
242 243 0 
243 244 0 
244 245 0 
245 246 0 
246 247 0 
247 248 0 
248 249 0 
249 250 0 
250 251 0 
251 252 0 
252 253 0 
253 254 0 
254 255 0 
255 256 0 
256 257 0 
257 258 0 
258 259 0 
259 260 0 
260 261 0 
261 262 0 
262 263 0 
263 264 0 
264 265 0 
265 266 0 
266 267 0 
267 268 0 
268 269 0 
269 270 0 
270 271 0 
271 272 0 
272 273 0 
273 274 0 
274 275 0 
275 276 0 
276 277 0 
277 278 0 
278 279 0 
279 280 0 
280 281 0 
281 282 0 
282 283 0 
283 284 0 
284 285 0 
285 286 0 
286 287 0 
287 288 0 
288 289 0 
289 290 0 
290 291 0 
291 292 0 
292 293 0 
293 294 0 
294 295 0 
295 296 0 
296 297 0 
297 298 0 
298 299 0 
-1 -1 0 
-1 300 0 1 2 3 4 5 6 7 8 9 10 11 12 13 14 15 16 17 18 19 20 21 22 23 24 25 26 27 28 29 30 31 32 33 34 35 36 37 38 39 40 41 42 43 44 45 46 47 48 49 50 51 52 53 54 55 56 57 58 59 60 61 62 63 64 65 66 67 68 69 70 71 72 73 74 75 76 77 78 79 80 81 82 83 84 85 86 87 88 89 90 91 92 93 94 95 96 97 98 99 100 101 102 103 104 105 106 107 108 109 110 111 112 113 114 115 116 117 118 119 120 121 122 123 124 125 126 127 128 129 130 131 132 133 134 135 136 137 138 139 140 141 142 143 144 145 146 147 148 149 150 151 152 153 154 155 156 157 158 159 160 161 162 163 164 165 166 167 168 169 170 171 172 173 174 175 176 177 178 179 180 181 182 183 184 185 186 187 188 189 190 191 192 193 194 195 196 197 198 199 200 201 202 203 204 205 206 207 208 209 210 211 212 213 214 215 216 217 218 219 220 221 222 223 224 225 226 227 228 229 230 231 232 233 234 235 236 237 238 239 240 241 242 243 244 245 246 247 248 249 250 251 252 253 254 255 256 257 258 259 260 261 262 263 264 265 266 267 268 269 270 271 272 273 274 275 276 277 278 279 280 281 282 283 284 285 286 287 288 289 290 291 292 293 294 295 296 297 298 299 
