ply
format ascii 1.0
comment written by koba@oshima.lab
element vertex 300
property float x
property float y
property float z
property int label
property int attribute
property float radius
property float curvature
property float torsion
element edge 300
property int vertex1
property int vertex2
property int label
element vertex_seq 1
property int label
property list int int vertex_indices
end_header
-6.1393 26.0947 -6.96513 0 0 1.5 0.0392197 0.00538649 
-6.0262 25.7553 -6.99991 0 0 1.5 0.0388683 0.00553012 
-5.9131 25.4159 -7.03469 0 0 1.5 0.0385118 0.00584642 
-5.8 25.0765 -7.06948 0 0 1.5 0.0381491 0.00633222 
-5.6869 24.737 -7.10426 0 0 1.5 0.0374003 0.00779754 
-5.57381 24.3976 -7.13904 0 0 1.5 0.0370048 0.00877118 
-5.46071 24.0582 -7.17382 0 0 1.5 0.0365847 0.00991246 
-5.34761 23.7188 -7.20861 0 0 1.5 0.0361324 0.0112319 
-5.23451 23.3794 -7.24339 0 0 1.5 0.0350819 0.0143257 
-5.12142 23.0399 -7.27817 0 0 1.5 0.0344429 0.0161568 
-5.00832 22.7005 -7.31296 0 0 1.5 0.0337012 0.0182754 
-4.89522 22.3611 -7.34774 0 0 1.5 0.0328356 0.0207046 
-4.78212 22.0217 -7.38252 0 0 1.5 0.0306108 0.027009 
-4.66902 21.6823 -7.41731 0 0 1.5 0.0291917 0.0315078 
-4.55593 21.3428 -7.45209 0 0 1.5 0.0275306 0.03747 
-4.44283 21.0034 -7.48687 0 0 1.5 0.0233641 0.0579315 
-4.32973 20.664 -7.52166 0 0 1.5 0.0208066 0.0774764 
-4.21663 20.3246 -7.55644 0 0 1.5 0.0179112 0.111296 
-4.10353 19.9851 -7.59122 0 0 1.5 0.0146905 0.176858 
-3.99044 19.6457 -7.626 0 0 1.5 0.00781559 0.734285 
-3.87734 19.3063 -7.66079 0 0 1.5 0.00582526 1.45572 
-3.76424 18.9669 -7.69557 0 0 1.5 0.00772999 0.919274 
-3.65114 18.6275 -7.73035 0 0 1.5 0.0125076 0.395262 
-3.53805 18.288 -7.76514 0 0 1.5 0.0255183 0.125353 
-3.42495 17.9486 -7.79992 0 0 1.5 0.0332135 0.0866681 
-3.31185 17.6092 -7.8347 0 0 1.5 0.0416428 0.0654803 
-3.19875 17.2698 -7.86949 0 0 1.5 0.0607817 0.0450912 
-3.08565 16.9303 -7.90427 0 0 1.5 0.0715144 0.0400344 
-2.97256 16.5909 -7.93905 0 0 1.5 0.0830071 0.0368792 
-2.85946 16.2515 -7.97384 0 0 1.5 0.0952403 0.0350948 
-2.74636 15.9121 -8.00862 0 0 1.5 0.121694 0.034299 
-2.63326 15.5727 -8.0434 0 0 1.5 0.135651 0.035058 
-2.52016 15.2332 -8.07819 0 0 1.5 0.149828 0.0365765 
-2.40707 14.8938 -8.11297 0 0 1.5 0.163939 0.0387922 
-2.29397 14.5544 -8.14775 0 0 1.5 0.190384 0.0454599 
-2.18087 14.215 -8.18253 0 0 1.5 0.201739 0.050244 
-2.07355 13.874 -8.21479 0 0 1.5 0.211119 0.0561169 
-2.01878 13.5189 -8.22401 0 0 1.5 0.218015 0.0631885 
-1.96401 13.1637 -8.23323 0 0 1.5 0.222656 0.0826808 
-1.98248 12.8057 -8.20775 0 0 1.5 0.21987 0.0960919 
-2.01611 12.4512 -8.17457 0 0 1.5 0.213703 0.112683 
-2.11575 12.1123 -8.10777 0 0 1.5 0.192374 0.161857 
-2.25369 11.7954 -8.01995 0 0 1.5 0.178077 0.199435 
-2.42455 11.4974 -7.91406 0 0 1.5 0.16217 0.250684 
-2.64278 11.2458 -7.78006 0 0 1.5 0.145368 0.322768 
-2.87363 11.0109 -7.63841 0 0 1.5 0.112411 0.57385 
-3.12449 10.8045 -7.48456 0 0 1.5 0.0986796 0.767583 
-3.38675 10.6174 -7.3259 0 0 1.5 0.0892445 0.970677 
-3.65458 10.4398 -7.16489 0 0 1.5 0.0863761 1.07812 
-3.93308 10.275 -7.00839 0 0 1.5 0.104301 0.814296 
-4.2145 10.1088 -6.85912 0 0 1.5 0.12307 0.618079 
-4.50087 9.94009 -6.72222 0 0 1.5 0.146137 0.464563 
-4.78989 9.75255 -6.62107 0 0 1.5 0.200275 0.277857 
-5.07268 9.54253 -6.56269 0 0 1.5 0.229447 0.222397 
-5.33367 9.30134 -6.57055 0 0 1.5 0.258655 0.18113 
-5.54529 9.02946 -6.6614 0 0 1.5 0.286624 0.149631 
-5.68923 8.74206 -6.82148 0 0 1.5 0.333076 0.104602 
-5.75355 8.45317 -7.02548 0 0 1.5 0.348522 0.087276 
-5.77147 8.16575 -7.23857 0 0 1.5 0.357086 0.072577 
-5.7603 7.87881 -7.45387 0 0 1.5 0.358227 0.0603424 
-5.7138 7.5916 -7.66495 0 0 1.5 0.339419 0.0413192 
-5.64803 7.30299 -7.86816 0 0 1.5 0.321468 0.0343641 
-5.56947 7.01344 -8.06615 0 0 1.5 0.299746 0.0293344 
-5.47353 6.72199 -8.25318 0 0 1.5 0.250744 0.0242069 
-5.37425 6.43018 -8.43811 0 0 1.5 0.225729 0.0240166 
-5.26355 6.1382 -8.61615 0 0 1.5 0.2014 0.0256137 
-5.15215 5.84681 -8.79472 0 0 1.5 0.178195 0.0292832 
-5.03671 5.55892 -8.97637 0 0 1.5 0.135955 0.0454424 
-4.9212 5.27438 -9.16297 0 0 1.5 0.11704 0.0602731 
-4.80556 4.9977 -9.36117 0 0 1.5 0.0996086 0.0831962 
-4.69098 4.73173 -9.57335 0 0 1.5 0.0837332 0.119613 
-4.57749 4.47668 -9.79981 0 0 1.5 0.0581084 0.262209 
-4.46572 4.24627 -10.0512 0 0 1.5 0.0504077 0.362589 
-4.35456 4.02465 -10.3114 0 0 1.5 0.0485422 0.412359 
-4.24384 3.84413 -10.6019 0 0 1.5 0.0537258 0.359409 
-4.13239 3.6733 -10.8972 0 0 1.5 0.0819575 0.183365 
-4.01869 3.53265 -11.2079 0 0 1.5 0.103035 0.129879 
-3.90191 3.40522 -11.5226 0 0 1.5 0.128647 0.0952611 
-3.78122 3.29471 -11.8427 0 0 1.5 0.19697 0.0571283 
-3.65403 3.19357 -12.1632 0 0 1.5 0.242989 0.0463585 
-3.52247 3.09871 -12.484 0 0 1.5 0.300491 0.0385954 
-3.37955 3.00253 -12.7994 0 0 1.5 0.373702 0.0328089 
-3.23222 2.90466 -13.1122 0 0 1.5 0.595159 0.0242914 
-3.06691 2.78538 -13.4083 0 0 1.5 0.766692 0.0205601 
-2.88865 2.63832 -13.6814 0 0 1.5 1.00479 0.0165614 
-2.6938 2.44184 -13.9021 0 0 1.5 1.34051 0.011347 
-2.49837 2.16828 -13.9775 0 0 1.5 2.44671 -0.00922127 
-2.36819 1.88264 -13.8341 0 0 1.5 3.17651 -0.0282556 
-2.31551 1.65776 -13.5663 0 0 1.5 3.72611 -0.0516469 
-2.30783 1.48437 -13.2536 0 0 1.5 3.17453 -0.0774721 
-2.33622 1.36037 -12.9174 0 0 1.5 2.45146 -0.0738768 
-2.38954 1.27619 -12.5734 0 0 1.5 1.82495 -0.0666359 
-2.45356 1.20914 -12.2262 0 0 1.5 1.35794 -0.0596573 
-2.54816 1.19825 -11.8795 0 0 1.5 0.789116 -0.0499055 
-2.64899 1.20099 -11.5357 0 0 1.5 0.618735 -0.0472092 
-2.77073 1.24956 -11.201 0 0 1.5 0.493186 -0.0459093 
-2.90229 1.32655 -10.8773 0 0 1.5 0.39849 -0.0459328 
-3.04563 1.43759 -10.5669 0 0 1.5 0.267789 -0.0502633 
-3.19769 1.59085 -10.2813 0 0 1.5 0.221345 -0.0553953 
-3.35338 1.76163 -10.006 0 0 1.5 0.183121 -0.0635681 
-3.51032 1.98045 -9.76809 0 0 1.5 0.123578 -0.0965925 
-3.66552 2.20845 -9.53843 0 0 1.5 0.0996861 -0.13066 
-3.81497 2.46236 -9.33252 0 0 1.5 0.0786185 -0.191818 
-3.95872 2.72512 -9.13425 0 0 1.5 0.0600389 -0.310827 
-4.09601 2.99789 -8.94463 0 0 1.5 0.033118 -1.00899 
-4.22393 3.27468 -8.75441 0 0 1.5 0.0307505 -1.22189 
-4.34741 3.55338 -8.56391 0 0 1.5 0.0386972 -0.830496 
-4.45789 3.82718 -8.35903 0 0 1.5 0.0529102 -0.492575 
-4.56499 4.09869 -8.14948 0 0 1.5 0.0900695 -0.227566 
-4.65723 4.35542 -7.91542 0 0 1.5 0.111809 -0.17714 
-4.74266 4.60294 -7.67013 0 0 1.5 0.135659 -0.147347 
-4.81538 4.83324 -7.4039 0 0 1.5 0.161746 -0.129297 
-4.8733 5.04113 -7.11755 0 0 1.5 0.220919 -0.111808 
-4.92278 5.23624 -6.81974 0 0 1.5 0.253803 -0.108308 
-4.94623 5.38889 -6.49529 0 0 1.5 0.288253 -0.106993 
-4.95809 5.52009 -6.16231 0 0 1.5 0.357311 -0.107926 
-4.95192 5.61763 -5.8164 0 0 1.5 0.38844 -0.108831 
-4.92142 5.65644 -5.46128 0 0 1.5 0.414236 -0.109313 
-4.87753 5.64981 -5.10714 0 0 1.5 0.432289 -0.10896 
-4.82066 5.59001 -4.75807 0 0 1.5 0.438876 -0.104229 
-4.75619 5.44794 -4.43423 0 0 1.5 0.426888 -0.0994649 
-4.69796 5.25242 -4.14091 0 0 1.5 0.406248 -0.0934966 
-4.64844 5.02022 -3.87294 0 0 1.5 0.379184 -0.0867487 
-4.61368 4.75219 -3.63596 0 0 1.5 0.31526 -0.0711737 
-4.59844 4.46245 -3.42485 0 0 1.5 0.282308 -0.0628729 
-4.59187 4.16469 -3.22389 0 0 1.5 0.250502 -0.0547523 
-4.60646 3.85574 -3.04074 0 0 1.5 0.192999 -0.0374476 
-4.62776 3.54568 -2.86041 0 0 1.5 0.167812 -0.0275502 
-4.66127 3.2336 -2.68521 0 0 1.5 0.144994 -0.0164168 
-4.70075 2.9227 -2.50927 0 0 1.5 0.124408 -0.00288173 
-4.74584 2.6129 -2.33264 0 0 1.5 0.0892502 0.0387566 
-4.79275 2.30618 -2.15123 0 0 1.5 0.0743258 0.072257 
-4.8407 2.00119 -1.96713 0 0 1.5 0.0609828 0.122167 
-4.88388 1.70022 -1.77548 0 0 1.5 0.0491734 0.200537 
-4.92553 1.40053 -1.58142 0 0 1.5 0.0306062 0.529472 
-4.95418 1.10476 -1.37924 0 0 1.5 0.0246726 0.795499 
-4.98023 0.8096 -1.1758 0 0 1.5 0.0220118 0.95735 
-4.98679 0.517053 -0.96704 0 0 1.5 0.022889 0.834044 
-4.98808 0.224729 -0.758092 0 0 1.5 0.0311143 0.382017 
-4.9717 -0.0668525 -0.548521 0 0 1.5 0.0363788 0.249389 
-4.94609 -0.358554 -0.340333 0 0 1.5 0.0417087 0.165316 
-4.90776 -0.650423 -0.134052 0 0 1.5 0.051846 0.0745918 
-4.85802 -0.942792 0.0688337 0 0 1.5 0.0564827 0.0493384 
-4.80095 -1.23548 0.269542 0 0 1.5 0.0607656 0.0314818 
-4.732 -1.52846 0.46595 0 0 1.5 0.0646758 0.0187903 
-4.65986 -1.82151 0.661206 0 0 1.5 0.0713349 0.00394849 
-4.57591 -2.11366 0.853051 0 0 1.5 0.074069 0.000251895 
-4.49015 -2.40543 1.04465 0 0 1.5 0.0764089 -0.0017032 
-4.39446 -2.69459 1.23553 0 0 1.5 0.0783648 -0.00206469 
-4.2957 -2.98234 1.4269 0 0 1.5 0.081187 0.00148056 
-4.18844 -3.26618 1.61962 0 0 1.5 0.0820948 0.00484213 
-4.0758 -3.54682 1.81379 0 0 1.5 0.0827023 0.00919704 
-3.95568 -3.82302 2.00998 0 0 1.5 0.0831572 0.0206596 
-3.82723 -4.09374 2.20834 0 0 1.5 0.0830845 0.0271789 
-3.69262 -4.36039 2.4083 0 0 1.5 0.0828706 0.0341186 
-3.54642 -4.61914 2.61031 0 0 1.5 0.0825661 0.0414491 
-3.39603 -4.87503 2.81308 0 0 1.5 0.0818949 0.0558664 
-3.23097 -5.1209 3.01672 0 0 1.5 0.0816261 0.0625049 
-3.06337 -5.36505 3.22042 0 0 1.5 0.0814699 0.0686248 
-2.88031 -5.59861 3.42326 0 0 1.5 0.0814771 0.0738503 
-2.69427 -5.83004 3.6257 0 0 1.5 0.0821407 0.080537 
-2.49585 -6.0526 3.82646 0 0 1.5 0.0828657 0.0819111 
-2.2928 -6.27143 4.02652 0 0 1.5 0.0838894 0.0818321 
-2.08033 -6.48262 4.22516 0 0 1.5 0.0868641 0.0773585 
-1.86211 -6.68807 4.4234 0 0 1.5 0.0888083 0.0733197 
-1.63704 -6.88667 4.62117 0 0 1.5 0.0910385 0.0683622 
-1.40541 -7.07661 4.81964 0 0 1.5 0.0935249 0.0627141 
-1.16899 -7.26024 5.01863 0 0 1.5 0.0991034 0.05009 
-0.925218 -7.43063 5.22025 0 0 1.5 0.102098 0.0435488 
-0.678351 -7.59545 5.42298 0 0 1.5 0.105155 0.0371618 
-0.423292 -7.74039 5.63047 0 0 1.5 0.108213 0.0309464 
-0.166683 -7.88158 5.83886 0 0 1.5 0.114065 0.0191604 
0.0987084 -7.99386 6.05372 0 0 1.5 0.11672 0.0138662 
0.365411 -8.10027 6.26954 0 0 1.5 0.119103 0.00893583 
0.638322 -8.17863 6.48997 0 0 1.5 0.121142 0.00429244 
0.913246 -8.24379 6.71146 0 0 1.5 0.123928 -0.00356382 
1.19176 -8.28543 6.93486 0 0 1.5 0.124575 -0.00670984 
1.47219 -8.3069 7.15795 0 0 1.5 0.124666 -0.00942003 
1.7542 -8.31201 7.38079 0 0 1.5 0.123056 -0.0132479 
2.03762 -8.29242 7.6005 0 0 1.5 0.121337 -0.01429 
2.32155 -8.26402 7.8191 0 0 1.5 0.11901 -0.0147478 
2.60658 -8.21005 8.03119 0 0 1.5 0.116085 -0.0146234 
2.89179 -8.15221 8.2421 0 0 1.5 0.108563 -0.0124804 
3.17827 -8.07341 8.44442 0 0 1.5 0.104041 -0.010266 
3.4651 -7.9916 8.64488 0 0 1.5 0.0990701 -0.00729657 
3.75349 -7.89653 8.83724 0 0 1.5 0.0936971 -0.00359641 
4.04267 -7.79803 9.02654 0 0 1.5 0.0819468 0.00705807 
4.33361 -7.69183 9.20897 0 0 1.5 0.0756681 0.0144798 
4.62574 -7.58253 9.38755 0 0 1.5 0.0691819 0.0235672 
4.91942 -7.46915 9.56105 0 0 1.5 0.0557628 0.0507681 
5.21441 -7.35339 9.73067 0 0 1.5 0.0489168 0.0723446 
5.51041 -7.23576 9.89727 0 0 1.5 0.0420378 0.103728 
5.80729 -7.11647 10.0611 0 0 1.5 0.03518 0.15317 
6.10453 -6.99649 10.2238 0 0 1.5 0.0219475 0.403008 
6.4015 -6.87575 10.3864 0 0 1.5 0.0161372 0.745071 
6.69836 -6.75489 10.5491 0 0 1.5 0.012088 1.32485 
6.99316 -6.63424 10.7156 0 0 1.5 0.0118604 1.37725 
7.28714 -6.5139 10.8838 0 0 1.5 0.021579 0.425733 
7.57809 -6.39468 11.058 0 0 1.5 0.0283247 0.25378 
7.86706 -6.27666 11.2362 0 0 1.5 0.0355052 0.168027 
8.15298 -6.16044 11.4204 0 0 1.5 0.0506598 0.091242 
8.4358 -6.04703 11.611 0 0 1.5 0.0585527 0.0721071 
8.71629 -5.93575 11.8063 0 0 1.5 0.0666458 0.0588633 
8.9931 -5.82985 12.0096 0 0 1.5 0.074944 0.0488831 
9.26854 -5.72599 12.2159 0 0 1.5 0.0921488 0.0337401 
9.54039 -5.63135 12.4311 0 0 1.5 0.101045 0.0276322 
9.81168 -5.53817 12.6478 0 0 1.5 0.110124 0.0219196 
10.0797 -5.45957 12.874 0 0 1.5 0.119355 0.0162803 
10.3474 -5.38312 13.1013 0 0 1.5 0.138081 0.00487094 
10.6123 -5.32515 13.3373 0 0 1.5 0.147449 -0.00104041 
10.8764 -5.27294 13.5752 0 0 1.5 0.156712 -0.00717078 
11.1372 -5.24246 13.8206 0 0 1.5 0.165764 -0.0136304 
11.3958 -5.22454 14.069 0 0 1.5 0.182738 -0.0278233 
11.6501 -5.22995 14.323 0 0 1.5 0.190398 -0.0354543 
11.8983 -5.2591 14.5803 0 0 1.5 0.197328 -0.0435812 
12.1412 -5.30937 14.8405 0 0 1.5 0.208483 -0.0616627 
12.37 -5.39884 15.1018 0 0 1.5 0.21251 -0.0713323 
12.5938 -5.50191 15.3634 0 0 1.5 0.215427 -0.0815434 
12.7906 -5.6587 15.6201 0 0 1.5 0.217207 -0.0924802 
12.9773 -5.83013 15.8734 0 0 1.5 0.217481 -0.11536 
13.1392 -6.03739 16.1185 0 0 1.5 0.216175 -0.127052 
13.2791 -6.26714 16.3551 0 0 1.5 0.214073 -0.139036 
13.4013 -6.51517 16.5847 0 0 1.5 0.211322 -0.150953 
13.492 -6.78553 16.8025 0 0 1.5 0.204588 -0.173007 
13.5735 -7.06244 17.0167 0 0 1.5 0.200933 -0.182923 
13.6177 -7.35581 17.2194 0 0 1.5 0.197263 -0.19165 
13.657 -7.65068 17.4209 0 0 1.5 0.190329 -0.203792 
13.6606 -7.95271 17.6158 0 0 1.5 0.187185 -0.206854 
13.658 -8.25455 17.8104 0 0 1.5 0.184263 -0.207838 
13.6236 -8.55541 18.0041 0 0 1.5 0.181538 -0.206731 
13.579 -8.85359 18.199 0 0 1.5 0.176403 -0.198472 
13.505 -9.14408 18.3974 0 0 1.5 0.173779 -0.192094 
13.4151 -9.4264 18.5995 0 0 1.5 0.170977 -0.18498 
13.2987 -9.69526 18.8078 0 0 1.5 0.167899 -0.177205 
13.158 -9.94439 19.0233 0 0 1.5 0.160525 -0.16047 
12.9962 -10.1765 19.245 0 0 1.5 0.156091 -0.152532 
12.8014 -10.3679 19.4765 0 0 1.5 0.151113 -0.14495 
12.5947 -10.5447 19.7115 0 0 1.5 0.145579 -0.137635 
12.3526 -10.6521 19.9537 0 0 1.5 0.132903 -0.125479 
12.1082 -10.7554 20.1963 0 0 1.5 0.125884 -0.120821 
11.8639 -10.8586 20.439 0 0 1.5 0.118508 -0.116865 
11.6196 -10.9618 20.6816 0 0 1.5 0.103009 -0.112379 
11.3753 -11.065 20.9242 0 0 1.5 0.0950707 -0.112151 
11.1309 -11.1682 21.1668 0 0 1.5 0.0871245 -0.11317 
10.8866 -11.2714 21.4094 0 0 1.5 0.0792509 -0.115802 
10.6423 -11.3746 21.652 0 0 1.5 0.0639863 -0.128077 
10.398 -11.4778 21.8947 0 0 1.5 0.0567211 -0.138545 
10.1536 -11.581 22.1373 0 0 1.5 0.0497783 -0.153212 
9.90932 -11.6842 22.3799 0 0 1.5 0.0431974 -0.174072 
9.665 -11.7874 22.6225 0 0 1.5 0.0312984 -0.245105 
9.42067 -11.8906 22.8651 0 0 1.5 0.0260929 -0.304542 
9.17635 -11.9938 23.1077 0 0 1.5 0.0214647 -0.390763 
8.93203 -12.097 23.3503 0 0 1.5 0.0143515 -0.665844 
8.6877 -12.2002 23.593 0 0 1.5 0.0121657 -0.812157 
8.44338 -12.3034 23.8356 0 0 1.5 0.0110439 -0.869 
8.19905 -12.4067 24.0782 0 0 1.5 0.0108951 -0.790849 
7.95473 -12.5099 24.3208 0 0 1.5 0.012269 -0.492313 
7.71041 -12.6131 24.5634 0 0 1.5 0.0131801 -0.380922 
7.46608 -12.7163 24.806 0 0 1.5 0.0139969 -0.302115 
7.22176 -12.8195 25.0487 0 0 1.5 0.0146344 -0.246893 
6.97744 -12.9227 25.2913 0 0 1.5 0.0152352 -0.18251 
6.73311 -13.0259 25.5339 0 0 1.5 0.0151933 -0.164653 
6.48879 -13.1291 25.7765 0 0 1.5 0.0149411 -0.152372 
6.24447 -13.2323 26.0191 0 0 1.5 0.0138927 -0.1412 
6.00014 -13.3355 26.2617 0 0 1.5 0.0131463 -0.141291 
5.75582 -13.4387 26.5044 0 0 1.5 0.0122892 -0.144408 
5.51149 -13.5419 26.747 0 0 1.5 0.0113502 -0.15097 
5.26717 -13.6451 26.9896 0 0 1.5 0.0093264 -0.17831 
5.02285 -13.7483 27.2322 0 0 1.5 0.0082927 -0.200615 
4.77852 -13.8515 27.4748 0 0 1.5 0.00727849 -0.231256 
4.5342 -13.9547 27.7174 0 0 1.5 0.00630416 -0.274217 
4.28988 -14.058 27.9601 0 0 1.5 0.00456354 -0.412566 
4.04555 -14.1612 28.2027 0 0 1.5 0.00384847 -0.513757 
3.80123 -14.2644 28.4453 0 0 1.5 0.00327185 -0.631007 
3.55691 -14.3676 28.6879 0 0 1.5 0.00285977 -0.73367 
3.31258 -14.4708 28.9305 0 0 1.5 0.00255984 -0.720149 
3.06826 -14.574 29.1731 0 0 1.5 0.00261506 -0.615179 
2.82394 -14.6772 29.4157 0 0 1.5 0.00274122 -0.500871 
2.57961 -14.7804 29.6584 0 0 1.5 0.0030465 -0.326401 
2.33529 -14.8836 29.901 0 0 1.5 0.00317824 -0.27084 
2.09096 -14.9868 30.1436 0 0 1.5 0.00328123 -0.230289 
1.84664 -15.09 30.3862 0 0 1.5 0.00335159 -0.200266 
1.60232 -15.1932 30.6288 0 0 1.5 0.00339456 -0.162507 
1.35799 -15.2964 30.8714 0 0 1.5 0.00337291 -0.151016 
1.11367 -15.3996 31.1141 0 0 1.5 0.00332821 -0.142268 
0.869346 -15.5028 31.3567 0 0 1.5 0.00326517 -0.13563 
0.625023 -15.606 31.5993 0 0 1.5 0.0031003 -0.127075 
0.380699 -15.7093 31.8419 0 0 1.5 0.00300679 -0.123638 
0.136376 -15.8125 32.0845 0 0 1.5 0.00291123 -0.120267 
-0.107948 -15.9157 32.3271 0 0 1.5 0.00272363 -0.113362 
-0.352272 -16.0189 32.5698 0 0 1.5 0.00263602 -0.108898 
-0.596595 -16.1221 32.8124 0 0 1.5 0.00255513 -0.103636 
-0.840919 -16.2253 33.055 0 0 1.5 0.00248139 -0.0979244 
-1.08524 -16.3285 33.2976 0 0 1.5 0.00235598 -0.084988 
-1.32957 -16.4317 33.5402 0 0 1.5 0.00230461 -0.0780484 
-1.57389 -16.5349 33.7828 0 0 1.5 0.00226002 -0.0714022 
-1.81821 -16.6381 34.0255 0 0 1.5 0.00222133 -0.0652743 
-2.06254 -16.7413 34.2681 0 0 1.5 0.00215859 -0.0553752 
-2.30686 -16.8445 34.5107 0 0 1.5 0.00213291 -0.0520134 
-2.55118 -16.9477 34.7533 0 0 1.5 0.0021098 -0.049949 
0 1 0 
1 2 0 
2 3 0 
3 4 0 
4 5 0 
5 6 0 
6 7 0 
7 8 0 
8 9 0 
9 10 0 
10 11 0 
11 12 0 
12 13 0 
13 14 0 
14 15 0 
15 16 0 
16 17 0 
17 18 0 
18 19 0 
19 20 0 
20 21 0 
21 22 0 
22 23 0 
23 24 0 
24 25 0 
25 26 0 
26 27 0 
27 28 0 
28 29 0 
29 30 0 
30 31 0 
31 32 0 
32 33 0 
33 34 0 
34 35 0 
35 36 0 
36 37 0 
37 38 0 
38 39 0 
39 40 0 
40 41 0 
41 42 0 
42 43 0 
43 44 0 
44 45 0 
45 46 0 
46 47 0 
47 48 0 
48 49 0 
49 50 0 
50 51 0 
51 52 0 
52 53 0 
53 54 0 
54 55 0 
55 56 0 
56 57 0 
57 58 0 
58 59 0 
59 60 0 
60 61 0 
61 62 0 
62 63 0 
63 64 0 
64 65 0 
65 66 0 
66 67 0 
67 68 0 
68 69 0 
69 70 0 
70 71 0 
71 72 0 
72 73 0 
73 74 0 
74 75 0 
75 76 0 
76 77 0 
77 78 0 
78 79 0 
79 80 0 
80 81 0 
81 82 0 
82 83 0 
83 84 0 
84 85 0 
85 86 0 
86 87 0 
87 88 0 
88 89 0 
89 90 0 
90 91 0 
91 92 0 
92 93 0 
93 94 0 
94 95 0 
95 96 0 
96 97 0 
97 98 0 
98 99 0 
99 100 0 
100 101 0 
101 102 0 
102 103 0 
103 104 0 
104 105 0 
105 106 0 
106 107 0 
107 108 0 
108 109 0 
109 110 0 
110 111 0 
111 112 0 
112 113 0 
113 114 0 
114 115 0 
115 116 0 
116 117 0 
117 118 0 
118 119 0 
119 120 0 
120 121 0 
121 122 0 
122 123 0 
123 124 0 
124 125 0 
125 126 0 
126 127 0 
127 128 0 
128 129 0 
129 130 0 
130 131 0 
131 132 0 
132 133 0 
133 134 0 
134 135 0 
135 136 0 
136 137 0 
137 138 0 
138 139 0 
139 140 0 
140 141 0 
141 142 0 
142 143 0 
143 144 0 
144 145 0 
145 146 0 
146 147 0 
147 148 0 
148 149 0 
149 150 0 
150 151 0 
151 152 0 
152 153 0 
153 154 0 
154 155 0 
155 156 0 
156 157 0 
157 158 0 
158 159 0 
159 160 0 
160 161 0 
161 162 0 
162 163 0 
163 164 0 
164 165 0 
165 166 0 
166 167 0 
167 168 0 
168 169 0 
169 170 0 
170 171 0 
171 172 0 
172 173 0 
173 174 0 
174 175 0 
175 176 0 
176 177 0 
177 178 0 
178 179 0 
179 180 0 
180 181 0 
181 182 0 
182 183 0 
183 184 0 
184 185 0 
185 186 0 
186 187 0 
187 188 0 
188 189 0 
189 190 0 
190 191 0 
191 192 0 
192 193 0 
193 194 0 
194 195 0 
195 196 0 
196 197 0 
197 198 0 
198 199 0 
199 200 0 
200 201 0 
201 202 0 
202 203 0 
203 204 0 
204 205 0 
205 206 0 
206 207 0 
207 208 0 
208 209 0 
209 210 0 
210 211 0 
211 212 0 
212 213 0 
213 214 0 
214 215 0 
215 216 0 
216 217 0 
217 218 0 
218 219 0 
219 220 0 
220 221 0 
221 222 0 
222 223 0 
223 224 0 
224 225 0 
225 226 0 
226 227 0 
227 228 0 
228 229 0 
229 230 0 
230 231 0 
231 232 0 
232 233 0 
233 234 0 
234 235 0 
235 236 0 
236 237 0 
237 238 0 
238 239 0 
239 240 0 
240 241 0 
241 242 0 
242 243 0 
243 244 0 
244 245 0 
245 246 0 
246 247 0 
247 248 0 
248 249 0 
249 250 0 
250 251 0 
251 252 0 
252 253 0 
253 254 0 
254 255 0 
255 256 0 
256 257 0 
257 258 0 
258 259 0 
259 260 0 
260 261 0 
261 262 0 
262 263 0 
263 264 0 
264 265 0 
265 266 0 
266 267 0 
267 268 0 
268 269 0 
269 270 0 
270 271 0 
271 272 0 
272 273 0 
273 274 0 
274 275 0 
275 276 0 
276 277 0 
277 278 0 
278 279 0 
279 280 0 
280 281 0 
281 282 0 
282 283 0 
283 284 0 
284 285 0 
285 286 0 
286 287 0 
287 288 0 
288 289 0 
289 290 0 
290 291 0 
291 292 0 
292 293 0 
293 294 0 
294 295 0 
295 296 0 
296 297 0 
297 298 0 
298 299 0 
-1 -1 0 
-1 300 0 1 2 3 4 5 6 7 8 9 10 11 12 13 14 15 16 17 18 19 20 21 22 23 24 25 26 27 28 29 30 31 32 33 34 35 36 37 38 39 40 41 42 43 44 45 46 47 48 49 50 51 52 53 54 55 56 57 58 59 60 61 62 63 64 65 66 67 68 69 70 71 72 73 74 75 76 77 78 79 80 81 82 83 84 85 86 87 88 89 90 91 92 93 94 95 96 97 98 99 100 101 102 103 104 105 106 107 108 109 110 111 112 113 114 115 116 117 118 119 120 121 122 123 124 125 126 127 128 129 130 131 132 133 134 135 136 137 138 139 140 141 142 143 144 145 146 147 148 149 150 151 152 153 154 155 156 157 158 159 160 161 162 163 164 165 166 167 168 169 170 171 172 173 174 175 176 177 178 179 180 181 182 183 184 185 186 187 188 189 190 191 192 193 194 195 196 197 198 199 200 201 202 203 204 205 206 207 208 209 210 211 212 213 214 215 216 217 218 219 220 221 222 223 224 225 226 227 228 229 230 231 232 233 234 235 236 237 238 239 240 241 242 243 244 245 246 247 248 249 250 251 252 253 254 255 256 257 258 259 260 261 262 263 264 265 266 267 268 269 270 271 272 273 274 275 276 277 278 279 280 281 282 283 284 285 286 287 288 289 290 291 292 293 294 295 296 297 298 299 
