ply
format ascii 1.0
comment written by koba@oshima.lab
element vertex 300
property float x
property float y
property float z
property int label
property int attribute
property float radius
property float curvature
property float torsion
element edge 300
property int vertex1
property int vertex2
property int label
element vertex_seq 1
property int label
property list int int vertex_indices
end_header
6.20169 23.8287 -9.30712 0 0 1.5 0.024017 -0.0116119 
5.92278 23.6682 -9.19114 0 0 1.5 0.0238821 -0.0119436 
5.64387 23.5078 -9.07517 0 0 1.5 0.0237407 -0.0124365 
5.36496 23.3473 -8.95919 0 0 1.5 0.0235908 -0.0131003 
5.08605 23.1869 -8.84322 0 0 1.5 0.0232566 -0.014972 
4.80714 23.0264 -8.72724 0 0 1.5 0.0230655 -0.0161826 
4.52823 22.866 -8.61127 0 0 1.5 0.0228524 -0.0176024 
4.24932 22.7055 -8.49529 0 0 1.5 0.0226127 -0.0192609 
3.97041 22.5451 -8.37932 0 0 1.5 0.0220277 -0.023253 
3.6915 22.3846 -8.26334 0 0 1.5 0.0216632 -0.0256732 
3.41259 22.2242 -8.14737 0 0 1.5 0.0212376 -0.0285078 
3.13368 22.0637 -8.03139 0 0 1.5 0.0207401 -0.031798 
2.85477 21.9033 -7.91541 0 0 1.5 0.0194711 -0.0403555 
2.57586 21.7428 -7.79944 0 0 1.5 0.0186699 -0.0463378 
2.29695 21.5824 -7.68346 0 0 1.5 0.0177386 -0.0540779 
2.01804 21.4219 -7.56749 0 0 1.5 0.0154264 -0.0790058 
1.73913 21.2615 -7.45151 0 0 1.5 0.014021 -0.10084 
1.46022 21.101 -7.33554 0 0 1.5 0.0124419 -0.135326 
1.18131 20.9406 -7.21956 0 0 1.5 0.0106985 -0.193878 
0.902404 20.7801 -7.10359 0 0 1.5 0.00694494 -0.526134 
0.623495 20.6197 -6.98761 0 0 1.5 0.00538373 -0.946698 
0.344585 20.4593 -6.87164 0 0 1.5 0.00495438 -1.21692 
0.0656749 20.2988 -6.75566 0 0 1.5 0.00630989 -0.823679 
-0.213235 20.1384 -6.63969 0 0 1.5 0.0123263 -0.267445 
-0.492145 19.9779 -6.52371 0 0 1.5 0.0161623 -0.17532 
-0.771055 19.8175 -6.40774 0 0 1.5 0.0203662 -0.125502 
-1.04996 19.657 -6.29176 0 0 1.5 0.0297166 -0.077842 
-1.32887 19.4966 -6.17579 0 0 1.5 0.0348053 -0.0656196 
-1.60778 19.3361 -6.05981 0 0 1.5 0.0401296 -0.0572992 
-1.88669 19.1757 -5.94384 0 0 1.5 0.045663 -0.0515507 
-2.1656 19.0152 -5.82786 0 0 1.5 0.0572382 -0.0446434 
-2.44451 18.8548 -5.71188 0 0 1.5 0.0632011 -0.0427257 
-2.72342 18.6943 -5.59591 0 0 1.5 0.0692264 -0.0415675 
-3.00233 18.5339 -5.47993 0 0 1.5 0.0752718 -0.0409586 
-3.28124 18.3734 -5.36396 0 0 1.5 0.0872262 -0.0409896 
-3.56015 18.213 -5.24798 0 0 1.5 0.0930333 -0.0416149 
-3.83906 18.0525 -5.13201 0 0 1.5 0.0986607 -0.0425302 
-4.11797 17.8921 -5.01603 0 0 1.5 0.104066 -0.0436476 
-4.38185 17.6941 -4.92618 0 0 1.5 0.114061 -0.0466431 
-4.64174 17.4892 -4.84201 0 0 1.5 0.118587 -0.0484238 
-4.8829 17.2538 -4.78353 0 0 1.5 0.122789 -0.0502114 
-5.11218 17.0052 -4.73879 0 0 1.5 0.130258 -0.0539292 
-5.32622 16.7398 -4.71166 0 0 1.5 0.133565 -0.0557209 
-5.51766 16.4571 -4.70755 0 0 1.5 0.136648 -0.0572292 
-5.69909 16.1676 -4.71334 0 0 1.5 0.139568 -0.0584421 
-5.85538 15.8647 -4.74254 0 0 1.5 0.145178 -0.0597345 
-6.0004 15.5579 -4.78173 0 0 1.5 0.14801 -0.059421 
-6.13142 15.2462 -4.83331 0 0 1.5 0.150957 -0.0583763 
-6.24686 14.9312 -4.89872 0 0 1.5 0.154081 -0.0565846 
-6.35684 14.6151 -4.96897 0 0 1.5 0.161042 -0.0503896 
-6.45077 14.2975 -5.05456 0 0 1.5 0.164922 -0.0459473 
-6.54186 13.9801 -5.14338 0 0 1.5 0.169056 -0.0406694 
-6.62383 13.6632 -5.24253 0 0 1.5 0.177875 -0.0281497 
-6.70211 13.3473 -5.34725 0 0 1.5 0.182356 -0.0210951 
-6.77559 13.0325 -5.45918 0 0 1.5 0.186702 -0.0135563 
-6.84518 12.72 -5.57925 0 0 1.5 0.190743 -0.00575641 
-6.91236 12.4088 -5.70435 0 0 1.5 0.197092 0.0101267 
-6.97491 12.1018 -5.84128 0 0 1.5 0.198975 0.0183608 
-7.03628 11.7958 -5.9812 0 0 1.5 0.199729 0.0266467 
-7.09013 11.497 -6.13871 0 0 1.5 0.19918 0.0348548 
-7.14106 11.2007 -6.30145 0 0 1.5 0.193698 0.0518961 
-7.183 10.9122 -6.48021 0 0 1.5 0.188663 0.0609712 
-7.21425 10.6318 -6.67282 0 0 1.5 0.182152 0.070448 
-7.23694 10.3579 -6.87647 0 0 1.5 0.165195 0.0925004 
-7.23223 10.104 -7.10532 0 0 1.5 0.155081 0.106174 
-7.20989 9.86302 -7.34555 0 0 1.5 0.14416 0.12248 
-7.16457 9.639 -7.6 0 0 1.5 0.132657 0.142741 
-7.07711 9.44771 -7.86931 0 0 1.5 0.108757 0.203584 
-6.96569 9.27601 -8.14184 0 0 1.5 0.096823 0.250323 
-6.83119 9.1233 -8.41675 0 0 1.5 0.0852651 0.314739 
-6.66048 9.00101 -8.6867 0 0 1.5 0.0744386 0.404048 
-6.47777 8.88793 -8.95228 0 0 1.5 0.0573745 0.66056 
-6.28112 8.78552 -9.21271 0 0 1.5 0.0530728 0.767915 
-6.07137 8.68877 -9.46487 0 0 1.5 0.0530393 0.771084 
-5.85829 8.59162 -9.71411 0 0 1.5 0.0576796 0.659744 
-5.64047 8.48869 -9.9569 0 0 1.5 0.0787825 0.372093 
-5.42415 8.37587 -10.1964 0 0 1.5 0.093847 0.272565 
-5.20941 8.25255 -10.4323 0 0 1.5 0.111452 0.202734 
-5.00377 8.10493 -10.6618 0 0 1.5 0.15452 0.118951 
-4.80193 7.94791 -10.8887 0 0 1.5 0.180578 0.0930413 
-4.61922 7.75362 -11.1029 0 0 1.5 0.210313 0.0733179 
-4.44574 7.54494 -11.3095 0 0 1.5 0.244412 0.0578491 
-4.28971 7.30906 -11.5018 0 0 1.5 0.329102 0.0337751 
-4.15348 7.04783 -11.6733 0 0 1.5 0.381653 0.0235058 
-4.02775 6.77314 -11.8337 0 0 1.5 0.442402 0.0138469 
-3.93273 6.46672 -11.9519 0 0 1.5 0.512178 0.00415946 
-3.8489 6.15178 -12.0507 0 0 1.5 0.678411 -0.0171975 
-3.78579 5.82145 -12.113 0 0 1.5 0.770806 -0.0291542 
-3.74633 5.48346 -12.1244 0 0 1.5 0.862373 -0.0420144 
-3.72256 5.14518 -12.0996 0 0 1.5 1.00352 -0.0686356 
-3.72329 4.81386 -12.0147 0 0 1.5 1.03107 -0.0802075 
-3.75093 4.51216 -11.8605 0 0 1.5 1.02087 -0.0893162 
-3.7985 4.24679 -11.6566 0 0 1.5 0.974747 -0.0955636 
-3.86545 4.02611 -11.4059 0 0 1.5 0.811834 -0.100506 
-3.95446 3.8814 -11.1091 0 0 1.5 0.717432 -0.100724 
-4.05528 3.79656 -10.7961 0 0 1.5 0.625724 -0.100676 
-4.16323 3.75216 -10.4759 0 0 1.5 0.541177 -0.101088 
-4.27911 3.76259 -10.1543 0 0 1.5 0.399897 -0.105447 
-4.39889 3.80593 -9.83796 0 0 1.5 0.34289 -0.110542 
-4.52101 3.86904 -9.52476 0 0 1.5 0.293775 -0.11839 
-4.64668 3.96582 -9.22192 0 0 1.5 0.215089 -0.14581 
-4.77291 4.06875 -8.92128 0 0 1.5 0.183647 -0.168445 
-4.90074 4.19206 -8.62898 0 0 1.5 0.156465 -0.200155 
-5.0283 4.31955 -8.33845 0 0 1.5 0.133034 -0.244305 
-5.15528 4.45629 -8.0518 0 0 1.5 0.0964699 -0.386867 
-5.27977 4.59552 -7.76529 0 0 1.5 0.0834947 -0.486941 
-5.40168 4.73734 -7.47892 0 0 1.5 0.0746221 -0.58672 
-5.5157 4.87745 -7.18854 0 0 1.5 0.0704169 -0.646692 
-5.62642 5.01686 -6.8965 0 0 1.5 0.0761739 -0.562701 
-5.71833 5.14622 -6.59352 0 0 1.5 0.0847783 -0.470361 
-5.80055 5.26922 -6.28563 0 0 1.5 0.0959723 -0.385883 
-5.86402 5.37977 -5.96824 0 0 1.5 0.109028 -0.318707 
-5.90061 5.46994 -5.64098 0 0 1.5 0.138833 -0.23133 
-5.91982 5.54614 -5.30879 0 0 1.5 0.154957 -0.204026 
-5.9078 5.5957 -4.97059 0 0 1.5 0.171512 -0.183813 
-5.86978 5.61973 -4.63241 0 0 1.5 0.204578 -0.157884 
-5.81526 5.62664 -4.29529 0 0 1.5 0.220329 -0.149629 
-5.73387 5.60192 -3.964 0 0 1.5 0.234928 -0.143347 
-5.63862 5.55632 -3.63943 0 0 1.5 0.247842 -0.138565 
-5.53331 5.49554 -3.31974 0 0 1.5 0.26668 -0.131725 
-5.41184 5.40044 -3.01455 0 0 1.5 0.271792 -0.128885 
-5.2864 5.29224 -2.71595 0 0 1.5 0.273689 -0.126235 
-5.15423 5.16086 -2.42915 0 0 1.5 0.272356 -0.123696 
-5.01877 5.00456 -2.15742 0 0 1.5 0.26079 -0.118208 
-4.88194 4.83579 -1.89343 0 0 1.5 0.251278 -0.115298 
-4.74563 4.63445 -1.65288 0 0 1.5 0.239921 -0.112513 
-4.61141 4.42057 -1.42306 0 0 1.5 0.213709 -0.10686 
-4.48033 4.18805 -1.20921 0 0 1.5 0.199758 -0.104049 
-4.35575 3.93643 -1.01458 0 0 1.5 0.185737 -0.101482 
-4.23404 3.67701 -0.827976 0 0 1.5 0.171926 -0.0990116 
-4.12259 3.39894 -0.662935 0 0 1.5 0.145694 -0.0939152 
-4.01483 3.11628 -0.503745 0 0 1.5 0.133509 -0.0915439 
-3.91434 2.82462 -0.35603 0 0 1.5 0.12203 -0.0890908 
-3.81967 2.52782 -0.21511 0 0 1.5 0.111282 -0.0862324 
-3.72893 2.22754 -0.0787742 0 0 1.5 0.0919628 -0.0794974 
-3.64438 1.92331 0.0526185 0 0 1.5 0.0833424 -0.0753468 
-3.56134 1.61817 0.182915 0 0 1.5 0.0753759 -0.0700418 
-3.48246 1.31114 0.311355 0 0 1.5 0.0680296 -0.0633452 
-3.40388 1.00406 0.43984 0 0 1.5 0.0550195 -0.0445321 
-3.32603 0.696833 0.568433 0 0 1.5 0.0492792 -0.0307764 
-3.24691 0.389995 0.697173 0 0 1.5 0.0440056 -0.0128971 
-3.16661 0.0835199 0.82605 0 0 1.5 0.0347192 0.0402233 
-3.08203 -0.222161 0.954054 0 0 1.5 0.0306653 0.0794925 
-2.99602 -0.527579 1.08175 0 0 1.5 0.0270003 0.130785 
-2.90204 -0.832147 1.20581 0 0 1.5 0.0237384 0.197059 
-2.8056 -1.13658 1.3282 0 0 1.5 0.0186487 0.374019 
-2.70244 -1.44065 1.44602 0 0 1.5 0.0170293 0.464257 
-2.59459 -1.74468 1.55954 0 0 1.5 0.0161985 0.521456 
-2.4827 -2.04867 1.66933 0 0 1.5 0.0162404 0.519776 
-2.36525 -2.35288 1.77244 0 0 1.5 0.0187545 0.380356 
-2.24619 -2.65718 1.87347 0 0 1.5 0.0209403 0.299275 
-2.1234 -2.96208 1.96805 0 0 1.5 0.0235426 0.232209 
-2.00033 -3.26725 2.06134 0 0 1.5 0.0295696 0.143616 
-1.87668 -3.57301 2.15192 0 0 1.5 0.0328491 0.116463 
-1.75408 -3.87924 2.24235 0 0 1.5 0.0362405 0.0970534 
-1.6323 -4.18583 2.33268 0 0 1.5 0.039711 0.0833515 
-1.51326 -4.49261 2.42592 0 0 1.5 0.0467864 0.0669103 
-1.395 -4.7994 2.52012 0 0 1.5 0.0503444 0.0623384 
-1.27994 -5.10529 2.62102 0 0 1.5 0.0538931 0.0594734 
-1.16516 -5.41045 2.72433 0 0 1.5 0.0574204 0.0578218 
-1.05119 -5.71361 2.83426 0 0 1.5 0.0643511 0.0570045 
-0.935543 -6.01425 2.94914 0 0 1.5 0.0677325 0.0575957 
-0.81829 -6.31245 3.06877 0 0 1.5 0.0710484 0.0585564 
-0.693858 -6.60484 3.19515 0 0 1.5 0.0774569 0.0610257 
-0.566478 -6.89496 3.32386 0 0 1.5 0.0805395 0.062564 
-0.423686 -7.17498 3.45871 0 0 1.5 0.0835376 0.0640292 
-0.273047 -7.45003 3.59465 0 0 1.5 0.0864509 0.0651885 
-0.107931 -7.71591 3.73261 0 0 1.5 0.0920194 0.0668761 
0.0745508 -7.96992 3.87026 0 0 1.5 0.0946725 0.0671936 
0.265496 -8.21815 4.00775 0 0 1.5 0.097241 0.0668157 
0.481865 -8.44638 4.14221 0 0 1.5 0.0997261 0.0658195 
0.705074 -8.66813 4.27561 0 0 1.5 0.104432 0.0620003 
0.94307 -8.87588 4.4067 0 0 1.5 0.106639 0.0588432 
1.19072 -9.07207 4.53714 0 0 1.5 0.108733 0.0548615 
1.44457 -9.26084 4.66718 0 0 1.5 0.110698 0.0501023 
1.70701 -9.43507 4.80028 0 0 1.5 0.114154 0.0381287 
1.9712 -9.60543 4.93493 0 0 1.5 0.115598 0.0308629 
2.23921 -9.76285 5.07767 0 0 1.5 0.116817 0.022715 
2.50712 -9.91502 5.22583 0 0 1.5 0.118458 0.0044925 
2.77487 -10.058 5.38351 0 0 1.5 0.118821 -0.00554302 
3.04016 -10.1911 5.55299 0 0 1.5 0.118844 -0.0163746 
3.30392 -10.3181 5.72987 0 0 1.5 0.118501 -0.0277287 
3.56199 -10.4283 5.92522 0 0 1.5 0.116656 -0.0514625 
3.81808 -10.5324 6.12632 0 0 1.5 0.115136 -0.0643011 
4.0684 -10.6182 6.34302 0 0 1.5 0.113214 -0.0776449 
4.31622 -10.6922 6.56638 0 0 1.5 0.110902 -0.0912567 
4.56139 -10.7537 6.7968 0 0 1.5 0.105178 -0.120425 
4.80568 -10.7958 7.03225 0 0 1.5 0.101815 -0.136256 
5.05029 -10.8304 7.26868 0 0 1.5 0.098164 -0.152832 
5.29855 -10.8458 7.50344 0 0 1.5 0.0901624 -0.189657 
5.55091 -10.8533 7.73393 0 0 1.5 0.0858993 -0.210689 
5.80834 -10.8508 7.95911 0 0 1.5 0.0815333 -0.233939 
6.07528 -10.8383 8.17235 0 0 1.5 0.0771252 -0.259877 
6.34608 -10.8222 8.38056 0 0 1.5 0.0684383 -0.321888 
6.62924 -10.7981 8.57088 0 0 1.5 0.0643062 -0.358821 
6.91659 -10.7722 8.75425 0 0 1.5 0.0604293 -0.3997 
7.2115 -10.7432 8.92504 0 0 1.5 0.0569028 -0.443776 
7.51193 -10.7123 9.08532 0 0 1.5 0.0513452 -0.531868 
7.81567 -10.6803 9.23927 0 0 1.5 0.0495622 -0.56668 
8.1243 -10.6462 9.3826 0 0 1.5 0.0485829 -0.588067 
8.43392 -10.6115 9.52372 0 0 1.5 0.0492384 -0.577371 
8.74591 -10.5744 9.65888 0 0 1.5 0.050853 -0.547575 
9.05802 -10.5365 9.79354 0 0 1.5 0.0532262 -0.508354 
9.37041 -10.4971 9.92712 0 0 1.5 0.0562446 -0.465326 
9.68224 -10.4572 10.0619 0 0 1.5 0.0637451 -0.383508 
9.99358 -10.4169 10.1976 0 0 1.5 0.0680026 -0.349125 
10.3039 -10.3789 10.3364 0 0 1.5 0.0724685 -0.319881 
10.6138 -10.3419 10.4762 0 0 1.5 0.0770674 -0.295457 
10.9231 -10.3138 10.6195 0 0 1.5 0.0864174 -0.259456 
11.2325 -10.2918 10.7633 0 0 1.5 0.0910701 -0.246823 
11.5423 -10.2816 10.908 0 0 1.5 0.0956703 -0.236921 
11.8527 -10.2902 11.0509 0 0 1.5 0.100202 -0.229348 
12.1632 -10.3101 11.1924 0 0 1.5 0.109024 -0.2198 
12.4731 -10.362 11.3276 0 0 1.5 0.113327 -0.216809 
12.7807 -10.4329 11.4577 0 0 1.5 0.117587 -0.214591 
13.0861 -10.5231 11.5826 0 0 1.5 0.126054 -0.211528 
13.3837 -10.6454 11.6982 0 0 1.5 0.130309 -0.209824 
13.6772 -10.7793 11.8108 0 0 1.5 0.134606 -0.207773 
13.9625 -10.9343 11.9185 0 0 1.5 0.138954 -0.20534 
14.24 -11.1024 12.0258 0 0 1.5 0.147793 -0.198149 
14.5127 -11.279 12.1329 0 0 1.5 0.152256 -0.193126 
14.7734 -11.4692 12.2461 0 0 1.5 0.156694 -0.18724 
15.0304 -11.6625 12.3622 0 0 1.5 0.161041 -0.180597 
15.2749 -11.8644 12.4904 0 0 1.5 0.169133 -0.165359 
15.5121 -12.0691 12.6269 0 0 1.5 0.172667 -0.156933 
15.7384 -12.2778 12.7759 0 0 1.5 0.175695 -0.148287 
15.9493 -12.4892 12.9418 0 0 1.5 0.179774 -0.13097 
16.1519 -12.7021 13.1168 0 0 1.5 0.1806 -0.122272 
16.3254 -12.9169 13.3183 0 0 1.5 0.180484 -0.113835 
16.4876 -13.1319 13.5281 0 0 1.5 0.179373 -0.105884 
16.6175 -13.3466 13.7606 0 0 1.5 0.174077 -0.0910377 
16.721 -13.5593 14.006 0 0 1.5 0.169905 -0.0842822 
16.7999 -13.7701 14.2635 0 0 1.5 0.164796 -0.0782404 
16.8318 -13.9741 14.535 0 0 1.5 0.158847 -0.0727831 
16.8501 -14.176 14.8103 0 0 1.5 0.144848 -0.0633663 
16.8092 -14.3648 15.0926 0 0 1.5 0.137039 -0.0595817 
16.7682 -14.5536 15.3748 0 0 1.5 0.128861 -0.0563486 
16.7273 -14.7424 15.6571 0 0 1.5 0.120431 -0.0535836 
16.6863 -14.9312 15.9393 0 0 1.5 0.103234 -0.0497311 
16.6453 -15.12 16.2215 0 0 1.5 0.0946601 -0.0487 
16.6044 -15.3088 16.5038 0 0 1.5 0.0862109 -0.0482376 
16.5634 -15.4976 16.786 0 0 1.5 0.0699345 -0.0495666 
16.5225 -15.6864 17.0683 0 0 1.5 0.0622036 -0.0517207 
16.4815 -15.8752 17.3505 0 0 1.5 0.0547998 -0.0551654 
16.4406 -16.064 17.6327 0 0 1.5 0.0477589 -0.0603623 
16.3996 -16.2528 17.915 0 0 1.5 0.0348515 -0.0796735 
16.3587 -16.4416 18.1972 0 0 1.5 0.0290376 -0.0970754 
16.3177 -16.6304 18.4795 0 0 1.5 0.0236985 -0.124108 
16.2768 -16.8192 18.7617 0 0 1.5 0.0188771 -0.167967 
16.2358 -17.008 19.044 0 0 1.5 0.0111902 -0.360724 
16.1948 -17.1968 19.3262 0 0 1.5 0.00877594 -0.515053 
16.1539 -17.3856 19.6084 0 0 1.5 0.00775905 -0.583714 
16.1129 -17.5744 19.8907 0 0 1.5 0.00932695 -0.323109 
16.072 -17.7632 20.1729 0 0 1.5 0.010792 -0.217487 
16.031 -17.952 20.4552 0 0 1.5 0.0122139 -0.154122 
15.9901 -18.1408 20.7374 0 0 1.5 0.0134545 -0.115854 
15.9491 -18.3296 21.0196 0 0 1.5 0.015191 -0.0760298 
15.9082 -18.5184 21.3019 0 0 1.5 0.0156621 -0.0657185 
15.8672 -18.7073 21.5841 0 0 1.5 0.0158762 -0.0588245 
15.8263 -18.8961 21.8664 0 0 1.5 0.0158482 -0.0541799 
15.7853 -19.0849 22.1486 0 0 1.5 0.0151451 -0.0499719 
15.7444 -19.2737 22.4309 0 0 1.5 0.0145185 -0.049897 
15.7034 -19.4625 22.7131 0 0 1.5 0.0137444 -0.0508825 
15.6624 -19.6513 22.9953 0 0 1.5 0.0118626 -0.0568474 
15.6215 -19.8401 23.2776 0 0 1.5 0.0108059 -0.0624343 
15.5805 -20.0289 23.5598 0 0 1.5 0.00970692 -0.0702191 
15.5396 -20.2177 23.8421 0 0 1.5 0.00859153 -0.0811634 
15.4986 -20.4065 24.1243 0 0 1.5 0.00639657 -0.120045 
15.4577 -20.5953 24.4066 0 0 1.5 0.0053621 -0.154006 
15.4167 -20.7841 24.6888 0 0 1.5 0.00440376 -0.20548 
15.3758 -20.9729 24.971 0 0 1.5 0.00355003 -0.284908 
15.3348 -21.1617 25.2533 0 0 1.5 0.00233938 -0.530974 
15.2939 -21.3505 25.5355 0 0 1.5 0.00210128 -0.591034 
15.2529 -21.5393 25.8178 0 0 1.5 0.00212826 -0.518735 
15.2119 -21.7281 26.1 0 0 1.5 0.00233872 -0.38723 
15.171 -21.9169 26.3822 0 0 1.5 0.00293763 -0.199537 
15.13 -22.1057 26.6645 0 0 1.5 0.00322018 -0.150658 
15.0891 -22.2945 26.9467 0 0 1.5 0.00346255 -0.118715 
15.0481 -22.4833 27.229 0 0 1.5 0.00380297 -0.0824223 
15.0072 -22.6721 27.5112 0 0 1.5 0.00389997 -0.0722631 
14.9662 -22.8609 27.7935 0 0 1.5 0.00395142 -0.0651785 
14.9253 -23.0497 28.0757 0 0 1.5 0.00396112 -0.0601972 
14.8843 -23.2386 28.3579 0 0 1.5 0.00387338 -0.054897 
14.8434 -23.4274 28.6402 0 0 1.5 0.00378631 -0.0539521 
14.8024 -23.6162 28.9224 0 0 1.5 0.00367771 -0.0537384 
14.7614 -23.805 29.2047 0 0 1.5 0.0035529 -0.0541723 
14.7205 -23.9938 29.4869 0 0 1.5 0.00327184 -0.056822 
14.6795 -24.1826 29.7691 0 0 1.5 0.00312392 -0.0586764 
14.6386 -24.3714 30.0514 0 0 1.5 0.0029763 -0.0607631 
14.5976 -24.5602 30.3336 0 0 1.5 0.0026917 -0.0655419 
14.5567 -24.749 30.6159 0 0 1.5 0.00255908 -0.0678232 
14.5157 -24.9378 30.8981 0 0 1.5 0.00243544 -0.069893 
14.4748 -25.1266 31.1804 0 0 1.5 0.00232137 -0.0718202 
14.4338 -25.3154 31.4626 0 0 1.5 0.00212301 -0.0747188 
14.3929 -25.5042 31.7448 0 0 1.5 0.00203904 -0.0756006 
14.3519 -25.693 32.0271 0 0 1.5 0.00196455 -0.0763288 
14.3109 -25.8818 32.3093 0 0 1.5 0.00189878 -0.0769656 
14.27 -26.0706 32.5916 0 0 1.5 0.00179055 -0.0783328 
14.229 -26.2594 32.8738 0 0 1.5 0.00174665 -0.0794261 
14.1881 -26.4482 33.156 0 0 1.5 0.00170863 -0.0809969 
0 1 0 
1 2 0 
2 3 0 
3 4 0 
4 5 0 
5 6 0 
6 7 0 
7 8 0 
8 9 0 
9 10 0 
10 11 0 
11 12 0 
12 13 0 
13 14 0 
14 15 0 
15 16 0 
16 17 0 
17 18 0 
18 19 0 
19 20 0 
20 21 0 
21 22 0 
22 23 0 
23 24 0 
24 25 0 
25 26 0 
26 27 0 
27 28 0 
28 29 0 
29 30 0 
30 31 0 
31 32 0 
32 33 0 
33 34 0 
34 35 0 
35 36 0 
36 37 0 
37 38 0 
38 39 0 
39 40 0 
40 41 0 
41 42 0 
42 43 0 
43 44 0 
44 45 0 
45 46 0 
46 47 0 
47 48 0 
48 49 0 
49 50 0 
50 51 0 
51 52 0 
52 53 0 
53 54 0 
54 55 0 
55 56 0 
56 57 0 
57 58 0 
58 59 0 
59 60 0 
60 61 0 
61 62 0 
62 63 0 
63 64 0 
64 65 0 
65 66 0 
66 67 0 
67 68 0 
68 69 0 
69 70 0 
70 71 0 
71 72 0 
72 73 0 
73 74 0 
74 75 0 
75 76 0 
76 77 0 
77 78 0 
78 79 0 
79 80 0 
80 81 0 
81 82 0 
82 83 0 
83 84 0 
84 85 0 
85 86 0 
86 87 0 
87 88 0 
88 89 0 
89 90 0 
90 91 0 
91 92 0 
92 93 0 
93 94 0 
94 95 0 
95 96 0 
96 97 0 
97 98 0 
98 99 0 
99 100 0 
100 101 0 
101 102 0 
102 103 0 
103 104 0 
104 105 0 
105 106 0 
106 107 0 
107 108 0 
108 109 0 
109 110 0 
110 111 0 
111 112 0 
112 113 0 
113 114 0 
114 115 0 
115 116 0 
116 117 0 
117 118 0 
118 119 0 
119 120 0 
120 121 0 
121 122 0 
122 123 0 
123 124 0 
124 125 0 
125 126 0 
126 127 0 
127 128 0 
128 129 0 
129 130 0 
130 131 0 
131 132 0 
132 133 0 
133 134 0 
134 135 0 
135 136 0 
136 137 0 
137 138 0 
138 139 0 
139 140 0 
140 141 0 
141 142 0 
142 143 0 
143 144 0 
144 145 0 
145 146 0 
146 147 0 
147 148 0 
148 149 0 
149 150 0 
150 151 0 
151 152 0 
152 153 0 
153 154 0 
154 155 0 
155 156 0 
156 157 0 
157 158 0 
158 159 0 
159 160 0 
160 161 0 
161 162 0 
162 163 0 
163 164 0 
164 165 0 
165 166 0 
166 167 0 
167 168 0 
168 169 0 
169 170 0 
170 171 0 
171 172 0 
172 173 0 
173 174 0 
174 175 0 
175 176 0 
176 177 0 
177 178 0 
178 179 0 
179 180 0 
180 181 0 
181 182 0 
182 183 0 
183 184 0 
184 185 0 
185 186 0 
186 187 0 
187 188 0 
188 189 0 
189 190 0 
190 191 0 
191 192 0 
192 193 0 
193 194 0 
194 195 0 
195 196 0 
196 197 0 
197 198 0 
198 199 0 
199 200 0 
200 201 0 
201 202 0 
202 203 0 
203 204 0 
204 205 0 
205 206 0 
206 207 0 
207 208 0 
208 209 0 
209 210 0 
210 211 0 
211 212 0 
212 213 0 
213 214 0 
214 215 0 
215 216 0 
216 217 0 
217 218 0 
218 219 0 
219 220 0 
220 221 0 
221 222 0 
222 223 0 
223 224 0 
224 225 0 
225 226 0 
226 227 0 
227 228 0 
228 229 0 
229 230 0 
230 231 0 
231 232 0 
232 233 0 
233 234 0 
234 235 0 
235 236 0 
236 237 0 
237 238 0 
238 239 0 
239 240 0 
240 241 0 
241 242 0 
242 243 0 
243 244 0 
244 245 0 
245 246 0 
246 247 0 
247 248 0 
248 249 0 
249 250 0 
250 251 0 
251 252 0 
252 253 0 
253 254 0 
254 255 0 
255 256 0 
256 257 0 
257 258 0 
258 259 0 
259 260 0 
260 261 0 
261 262 0 
262 263 0 
263 264 0 
264 265 0 
265 266 0 
266 267 0 
267 268 0 
268 269 0 
269 270 0 
270 271 0 
271 272 0 
272 273 0 
273 274 0 
274 275 0 
275 276 0 
276 277 0 
277 278 0 
278 279 0 
279 280 0 
280 281 0 
281 282 0 
282 283 0 
283 284 0 
284 285 0 
285 286 0 
286 287 0 
287 288 0 
288 289 0 
289 290 0 
290 291 0 
291 292 0 
292 293 0 
293 294 0 
294 295 0 
295 296 0 
296 297 0 
297 298 0 
298 299 0 
-1 -1 0 
-1 300 0 1 2 3 4 5 6 7 8 9 10 11 12 13 14 15 16 17 18 19 20 21 22 23 24 25 26 27 28 29 30 31 32 33 34 35 36 37 38 39 40 41 42 43 44 45 46 47 48 49 50 51 52 53 54 55 56 57 58 59 60 61 62 63 64 65 66 67 68 69 70 71 72 73 74 75 76 77 78 79 80 81 82 83 84 85 86 87 88 89 90 91 92 93 94 95 96 97 98 99 100 101 102 103 104 105 106 107 108 109 110 111 112 113 114 115 116 117 118 119 120 121 122 123 124 125 126 127 128 129 130 131 132 133 134 135 136 137 138 139 140 141 142 143 144 145 146 147 148 149 150 151 152 153 154 155 156 157 158 159 160 161 162 163 164 165 166 167 168 169 170 171 172 173 174 175 176 177 178 179 180 181 182 183 184 185 186 187 188 189 190 191 192 193 194 195 196 197 198 199 200 201 202 203 204 205 206 207 208 209 210 211 212 213 214 215 216 217 218 219 220 221 222 223 224 225 226 227 228 229 230 231 232 233 234 235 236 237 238 239 240 241 242 243 244 245 246 247 248 249 250 251 252 253 254 255 256 257 258 259 260 261 262 263 264 265 266 267 268 269 270 271 272 273 274 275 276 277 278 279 280 281 282 283 284 285 286 287 288 289 290 291 292 293 294 295 296 297 298 299 
