ply
format ascii 1.0
comment written by koba@oshima.lab
element vertex 300
property float x
property float y
property float z
property int label
property int attribute
property float radius
property float curvature
property float torsion
element edge 300
property int vertex1
property int vertex2
property int label
element vertex_seq 1
property int label
property list int int vertex_indices
end_header
4.7619 19.4731 -13.4099 0 0 1.5 0.0388033 -0.0248977 
4.53699 19.3752 -13.1985 0 0 1.5 0.0378844 -0.0262304 
4.31207 19.2773 -12.9871 0 0 1.5 0.0369514 -0.0278293 
4.08715 19.1793 -12.7757 0 0 1.5 0.0360009 -0.0297371 
3.86224 19.0814 -12.5643 0 0 1.5 0.0340347 -0.0346808 
3.63732 18.9834 -12.3529 0 0 1.5 0.0330125 -0.0378299 
3.41241 18.8855 -12.1416 0 0 1.5 0.03196 -0.0415439 
3.18749 18.7876 -11.9302 0 0 1.5 0.0308748 -0.0459372 
2.96258 18.6896 -11.7188 0 0 1.5 0.0285984 -0.0571974 
2.73766 18.5917 -11.5074 0 0 1.5 0.0274034 -0.0644368 
2.51274 18.4937 -11.296 0 0 1.5 0.0261702 -0.0731282 
2.28783 18.3958 -11.0846 0 0 1.5 0.0249008 -0.0835693 
2.06291 18.2979 -10.8732 0 0 1.5 0.0222684 -0.111566 
1.838 18.1999 -10.6619 0 0 1.5 0.0209221 -0.13058 
1.61308 18.102 -10.4505 0 0 1.5 0.019576 -0.154031 
1.38817 18.004 -10.2391 0 0 1.5 0.0169931 -0.217747 
1.16325 17.9061 -10.0277 0 0 1.5 0.0158426 -0.258872 
0.938335 17.8082 -9.81631 0 0 1.5 0.0148724 -0.303774 
0.713419 17.7102 -9.60492 0 0 1.5 0.0141693 -0.34635 
0.488504 17.6123 -9.39354 0 0 1.5 0.0139361 -0.385796 
0.263588 17.5143 -9.18215 0 0 1.5 0.0145431 -0.368966 
0.0386724 17.4164 -8.97077 0 0 1.5 0.0156508 -0.332331 
-0.186243 17.3185 -8.75938 0 0 1.5 0.017218 -0.287091 
-0.411159 17.2205 -8.548 0 0 1.5 0.0214911 -0.203112 
-0.636074 17.1226 -8.33661 0 0 1.5 0.024083 -0.170344 
-0.86099 17.0246 -8.12522 0 0 1.5 0.0269188 -0.143953 
-1.08591 16.9267 -7.91384 0 0 1.5 0.0332134 -0.106145 
-1.31082 16.8288 -7.70245 0 0 1.5 0.0366342 -0.0924176 
-1.53574 16.7308 -7.49107 0 0 1.5 0.0402184 -0.0812171 
-1.76065 16.6329 -7.27968 0 0 1.5 0.043958 -0.0720471 
-1.98557 16.5349 -7.06829 0 0 1.5 0.0518877 -0.0576483 
-2.21048 16.437 -6.85691 0 0 1.5 0.056072 -0.051858 
-2.4354 16.339 -6.64552 0 0 1.5 0.0604035 -0.046822 
-2.66032 16.2411 -6.43414 0 0 1.5 0.0648863 -0.042269 
-2.88523 16.1432 -6.22275 0 0 1.5 0.0743252 -0.0340005 
-3.11015 16.0452 -6.01136 0 0 1.5 0.0792956 -0.0302443 
-3.33506 15.9473 -5.79998 0 0 1.5 0.0844469 -0.0265765 
-3.55998 15.8493 -5.58859 0 0 1.5 0.0897917 -0.0228724 
-3.78489 15.7514 -5.37721 0 0 1.5 0.101118 -0.0153898 
-4.01273 15.6387 -5.17997 0 0 1.5 0.107131 -0.0115322 
-4.24984 15.4792 -5.02767 0 0 1.5 0.113403 -0.00749764 
-4.48539 15.2912 -4.9145 0 0 1.5 0.126796 0.00110641 
-4.71957 15.0867 -4.82496 0 0 1.5 0.133951 0.00569477 
-4.94587 14.8598 -4.77818 0 0 1.5 0.14143 0.0104953 
-5.1693 14.6286 -4.743 0 0 1.5 0.149243 0.0155295 
-5.38859 14.391 -4.72459 0 0 1.5 0.165865 0.026347 
-5.6061 14.1514 -4.71517 0 0 1.5 0.174642 0.032085 
-5.82275 13.9108 -4.71016 0 0 1.5 0.183683 0.0380812 
-6.04098 13.6715 -4.70701 0 0 1.5 0.192931 0.0443815 
-6.25971 13.4328 -4.70386 0 0 1.5 0.211702 0.0573741 
-6.48334 13.1987 -4.69549 0 0 1.5 0.220985 0.064011 
-6.7088 12.9666 -4.68466 0 0 1.5 0.229995 0.0708226 
-6.93955 12.7401 -4.66678 0 0 1.5 0.24643 0.0843131 
-7.17468 12.5188 -4.64367 0 0 1.5 0.253423 0.0908997 
-7.41345 12.3018 -4.61623 0 0 1.5 0.259297 0.0974668 
-7.66049 12.0949 -4.58416 0 0 1.5 0.263839 0.103829 
-7.91306 11.8943 -4.55649 0 0 1.5 0.268245 0.115451 
-8.17256 11.7016 -4.5474 0 0 1.5 0.267882 0.120875 
-8.43102 11.5194 -4.60359 0 0 1.5 0.265754 0.125951 
-8.61212 11.3712 -4.81552 0 0 1.5 0.261917 0.130559 
-8.69522 11.2526 -5.10377 0 0 1.5 0.249624 0.138878 
-8.73773 11.1346 -5.402 0 0 1.5 0.241537 0.142772 
-8.76351 11.008 -5.6988 0 0 1.5 0.232473 0.146504 
-8.78051 10.8722 -5.99229 0 0 1.5 0.212427 0.154016 
-8.78693 10.7201 -6.27807 0 0 1.5 0.201917 0.158051 
-8.78744 10.5599 -6.55923 0 0 1.5 0.19137 0.16239 
-8.78102 10.3902 -6.83496 0 0 1.5 0.18097 0.167133 
-8.76123 10.2065 -7.10074 0 0 1.5 0.161212 0.17821 
-8.73582 10.0177 -7.36237 0 0 1.5 0.152112 0.184651 
-8.69281 9.81471 -7.61101 0 0 1.5 0.143685 0.19158 
-8.64019 9.60568 -7.85215 0 0 1.5 0.13603 0.198797 
-8.57435 9.3883 -8.08296 0 0 1.5 0.123422 0.213207 
-8.49224 9.16283 -8.2999 0 0 1.5 0.11868 0.219353 
-8.40331 8.93397 -8.51105 0 0 1.5 0.115121 0.223761 
-8.2938 8.69737 -8.70308 0 0 1.5 0.112853 0.225786 
-8.17976 8.45956 -8.89067 0 0 1.5 0.112622 0.220575 
-8.05255 8.21832 -9.06527 0 0 1.5 0.114839 0.212933 
-7.91909 7.97619 -9.2336 0 0 1.5 0.118702 0.202559 
-7.77848 7.73303 -9.39473 0 0 1.5 0.131566 0.177184 
-7.63129 7.4896 -9.5493 0 0 1.5 0.140652 0.163887 
-7.48057 7.24602 -9.70036 0 0 1.5 0.151568 0.151178 
-7.32361 7.00259 -9.8451 0 0 1.5 0.164376 0.139538 
-7.16501 6.75919 -9.98816 0 0 1.5 0.195957 0.120193 
-7.00046 6.51577 -10.1242 0 0 1.5 0.214885 0.112604 
-6.83517 6.27234 -10.2595 0 0 1.5 0.236002 0.106376 
-6.66382 6.0281 -10.3853 0 0 1.5 0.25934 0.101372 
-6.49195 5.78373 -10.5102 0 0 1.5 0.312377 0.0944997 
-6.31399 5.53738 -10.6221 0 0 1.5 0.341552 0.092382 
-6.13479 5.29041 -10.7302 0 0 1.5 0.371775 0.0909834 
-5.95006 5.04067 -10.8216 0 0 1.5 0.431338 0.0898915 
-5.76239 4.78919 -10.9001 0 0 1.5 0.457864 0.0899558 
-5.57068 4.5353 -10.9605 0 0 1.5 0.479944 0.0902437 
-5.37424 4.27943 -10.9817 0 0 1.5 0.495791 0.0906476 
-5.17692 4.02582 -10.9643 0 0 1.5 0.503278 0.0914779 
-4.98357 3.78217 -10.8843 0 0 1.5 0.493823 0.0918649 
-4.81073 3.57049 -10.7148 0 0 1.5 0.476135 0.0923556 
-4.68067 3.41628 -10.4623 0 0 1.5 0.451503 0.0930946 
-4.60376 3.32606 -10.161 0 0 1.5 0.38852 0.096068 
-4.56615 3.27585 -9.84419 0 0 1.5 0.353722 0.098886 
-4.55207 3.24444 -9.5229 0 0 1.5 0.318682 0.103059 
-4.55564 3.22557 -9.19964 0 0 1.5 0.251856 0.117218 
-4.58493 3.21423 -8.8774 0 0 1.5 0.221247 0.128545 
-4.62196 3.20213 -8.5561 0 0 1.5 0.192874 0.144099 
-4.67549 3.18704 -8.23708 0 0 1.5 0.166829 0.165481 
-4.7392 3.16497 -7.92058 0 0 1.5 0.12173 0.236208 
-4.8121 3.13661 -7.60634 0 0 1.5 0.102658 0.294147 
-4.89579 3.09276 -7.29682 0 0 1.5 0.0859845 0.375417 
-4.98326 3.04348 -6.98895 0 0 1.5 0.0719364 0.485166 
-5.0777 2.96775 -6.68865 0 0 1.5 0.0536227 0.734254 
-5.17157 2.88336 -6.39079 0 0 1.5 0.0504494 0.770402 
-5.26286 2.77395 -6.1 0 0 1.5 0.0512999 0.696652 
-5.34446 2.64384 -5.81565 0 0 1.5 0.0552891 0.563666 
-5.41884 2.49826 -5.53612 0 0 1.5 0.0682306 0.332086 
-5.46273 2.31844 -5.27051 0 0 1.5 0.0755723 0.258048 
-5.48772 2.12561 -5.0129 0 0 1.5 0.0828484 0.205109 
-5.48944 1.91713 -4.76511 0 0 1.5 0.096151 0.140687 
-5.4513 1.69372 -4.53422 0 0 1.5 0.101856 0.121402 
-5.39581 1.46697 -4.31064 0 0 1.5 0.106775 0.10743 
-5.31732 1.23687 -4.09673 0 0 1.5 0.11082 0.0976367 
-5.21898 1.00758 -3.8906 0 0 1.5 0.116128 0.0876456 
-5.11337 0.778808 -3.68725 0 0 1.5 0.117356 0.0863184 
-4.99659 0.551965 -3.48783 0 0 1.5 0.117643 0.0871577 
-4.87923 0.32504 -3.28885 0 0 1.5 0.117033 0.0901249 
-4.76114 0.0980133 -3.09041 0 0 1.5 0.1134 0.102377 
-4.64954 -0.132436 -2.89221 0 0 1.5 0.110552 0.111758 
-4.54079 -0.364393 -2.69417 0 0 1.5 0.10716 0.123387 
-4.44811 -0.6051 -2.49837 0 0 1.5 0.0992363 0.154171 
-4.36257 -0.849763 -2.3046 0 0 1.5 0.0949645 0.173502 
-4.2909 -1.10212 -2.11476 0 0 1.5 0.09066 0.195311 
-4.23271 -1.36199 -1.9309 0 0 1.5 0.0864552 0.21942 
-4.18159 -1.62579 -1.75017 0 0 1.5 0.078888 0.271622 
-4.14526 -1.89828 -1.57906 0 0 1.5 0.0757882 0.296615 
-4.11107 -2.17248 -1.41029 0 0 1.5 0.0733037 0.318106 
-4.08135 -2.45045 -1.24684 0 0 1.5 0.0715378 0.333634 
-4.04913 -2.72912 -1.0851 0 0 1.5 0.0704238 0.339207 
-4.01511 -3.00831 -0.924605 0 0 1.5 0.0711008 0.32829 
-3.96841 -3.2846 -0.762369 0 0 1.5 0.0725554 0.309624 
-3.9161 -3.55911 -0.598999 0 0 1.5 0.0747134 0.285644 
-3.84484 -3.82674 -0.431205 0 0 1.5 0.0807319 0.23165 
-3.76087 -4.08842 -0.260629 0 0 1.5 0.0843719 0.205033 
-3.66197 -4.3431 -0.0867905 0 0 1.5 0.0882873 0.18029 
-3.54153 -4.58571 0.0901042 0 0 1.5 0.0965495 0.138342 
-3.41334 -4.82393 0.268042 0 0 1.5 0.100715 0.121005 
-3.25835 -5.04518 0.446616 0 0 1.5 0.104791 0.105969 
-3.09697 -5.2621 0.624383 0 0 1.5 0.108709 0.0930848 
-2.91762 -5.46678 0.799879 0 0 1.5 0.115803 0.0726103 
-2.72795 -5.66411 0.972424 0 0 1.5 0.118861 0.0645942 
-2.52725 -5.85356 1.14181 0 0 1.5 0.121532 0.057851 
-2.31373 -6.03311 1.30583 0 0 1.5 0.123782 0.0522026 
-2.09438 -6.20816 1.46741 0 0 1.5 0.126904 0.0436262 
-1.86062 -6.37021 1.622 0 0 1.5 0.127743 0.0404218 
-1.62375 -6.52916 1.77515 0 0 1.5 0.128091 0.0378303 
-1.37415 -6.67342 1.92262 0 0 1.5 0.127331 0.0342674 
-1.121 -6.81206 2.06911 0 0 1.5 0.126253 0.0331526 
-0.859799 -6.9379 2.21334 0 0 1.5 0.124748 0.0324378 
-0.59377 -7.05244 2.35771 0 0 1.5 0.122847 0.0321121 
-0.323613 -7.15732 2.5022 0 0 1.5 0.118004 0.0324122 
-0.0486374 -7.24411 2.64925 0 0 1.5 0.115145 0.0329847 
0.227792 -7.32487 2.79724 0 0 1.5 0.11205 0.0338451 
0.50735 -7.38356 2.94977 0 0 1.5 0.10876 0.0349712 
0.787258 -7.43543 3.10378 0 0 1.5 0.101743 0.037964 
1.06793 -7.47249 3.26099 0 0 1.5 0.0980867 0.0398569 
1.34859 -7.49934 3.42002 0 0 1.5 0.0943724 0.04202 
1.62924 -7.51853 3.58042 0 0 1.5 0.0868647 0.0471945 
1.90987 -7.52713 3.7417 0 0 1.5 0.083111 0.0502571 
2.19053 -7.533 3.90313 0 0 1.5 0.0793782 0.0536682 
2.47182 -7.53139 4.06355 0 0 1.5 0.075675 0.0574627 
2.75349 -7.52887 4.22328 0 0 1.5 0.0683803 0.0664372 
3.03625 -7.5237 4.38102 0 0 1.5 0.064796 0.0717877 
3.31994 -7.51817 4.53707 0 0 1.5 0.0612523 0.0778951 
3.60469 -7.51224 4.69116 0 0 1.5 0.0577461 0.0849332 
3.8907 -7.50615 4.84289 0 0 1.5 0.0508375 0.102797 
4.17732 -7.49998 4.99348 0 0 1.5 0.0474284 0.114403 
4.4651 -7.49212 5.14174 0 0 1.5 0.0440449 0.128561 
4.75307 -7.48344 5.28959 0 0 1.5 0.0406867 0.146129 
5.04135 -7.47024 5.4365 0 0 1.5 0.0340625 0.19738 
5.32929 -7.45379 5.58368 0 0 1.5 0.0308178 0.235647 
5.61664 -7.43163 5.73134 0 0 1.5 0.0276475 0.287082 
5.90248 -7.4022 5.88052 0 0 1.5 0.0217185 0.452794 
6.18741 -7.36835 6.03064 0 0 1.5 0.0191283 0.579539 
6.46906 -7.32345 6.18394 0 0 1.5 0.0169765 0.733394 
6.74959 -7.27552 6.33838 0 0 1.5 0.0154731 0.882985 
7.02651 -7.21915 6.49649 0 0 1.5 0.0152176 0.919245 
7.3016 -7.16038 6.65686 0 0 1.5 0.0165431 0.781867 
7.57435 -7.09855 6.8201 0 0 1.5 0.0186284 0.619399 
7.84456 -7.03701 6.98759 0 0 1.5 0.0212574 0.476646 
8.11372 -6.97558 7.15683 0 0 1.5 0.0275076 0.282521 
8.37983 -6.92025 7.33285 0 0 1.5 0.0309321 0.220635 
8.64512 -6.86752 7.51082 0 0 1.5 0.0344803 0.173811 
8.90792 -6.82294 7.69471 0 0 1.5 0.0418349 0.109291 
9.16889 -6.78468 7.88241 0 0 1.5 0.0456146 0.0864949 
9.42786 -6.75329 8.07427 0 0 1.5 0.049457 0.0679091 
9.68382 -6.73151 8.27131 0 0 1.5 0.053365 0.0524597 
9.93861 -6.71344 8.47036 0 0 1.5 0.0614103 0.0282175 
10.1896 -6.70689 8.67482 0 0 1.5 0.0655707 0.0186407 
10.44 -6.70274 8.88009 0 0 1.5 0.0698415 0.0103059 
10.6884 -6.70699 9.0878 0 0 1.5 0.0742402 0.00295193 
10.9369 -6.71495 9.29527 0 0 1.5 0.0834997 -0.00875825 
11.1855 -6.72845 9.50235 0 0 1.5 0.0883969 -0.0133057 
11.436 -6.74799 9.70646 0 0 1.5 0.0934969 -0.0172032 
11.6878 -6.77104 9.90884 0 0 1.5 0.104372 -0.0227878 
11.9444 -6.80448 10.1035 0 0 1.5 0.110169 -0.024566 
12.2025 -6.84173 10.2953 0 0 1.5 0.116216 -0.0258298 
12.4657 -6.89201 10.4772 0 0 1.5 0.122514 -0.0265265 
12.7305 -6.95139 10.6534 0 0 1.5 0.13583 -0.0261762 
12.9974 -7.02145 10.823 0 0 1.5 0.14281 -0.0252953 
13.2633 -7.11019 10.9847 0 0 1.5 0.149964 -0.0239691 
13.5278 -7.20782 11.1437 0 0 1.5 0.157249 -0.022189 
13.7853 -7.32732 11.2994 0 0 1.5 0.171967 -0.0173864 
14.0338 -7.46145 11.4571 0 0 1.5 0.179245 -0.0144503 
14.2747 -7.60778 11.6166 0 0 1.5 0.18635 -0.0112294 
14.4901 -7.77904 11.7872 0 0 1.5 0.193176 -0.0077038 
14.6899 -7.96057 11.9645 0 0 1.5 0.205516 0.000216476 
14.8681 -8.156 12.1514 0 0 1.5 0.21079 0.00437811 
15.0094 -8.36735 12.3512 0 0 1.5 0.215313 0.00867986 
15.131 -8.58552 12.5561 0 0 1.5 0.221671 0.0177164 
15.2193 -8.81378 12.7681 0 0 1.5 0.223331 0.022218 
15.2775 -9.04914 12.9817 0 0 1.5 0.223899 0.0267148 
15.3206 -9.28807 13.1959 0 0 1.5 0.223341 0.031255 
15.325 -9.53558 13.4047 0 0 1.5 0.218875 0.0399028 
15.3191 -9.78567 13.6096 0 0 1.5 0.215068 0.0439029 
15.2899 -10.0415 13.806 0 0 1.5 0.210313 0.0477452 
15.2455 -10.302 13.9924 0 0 1.5 0.204706 0.0513847 
15.1884 -10.5664 14.1705 0 0 1.5 0.191415 0.0579132 
15.1141 -10.8374 14.3307 0 0 1.5 0.183972 0.0608675 
15.0342 -11.1106 14.4851 0 0 1.5 0.176151 0.063665 
14.9368 -11.392 14.612 0 0 1.5 0.159823 0.0688688 
14.8365 -11.675 14.7328 0 0 1.5 0.151509 0.0712923 
14.7236 -11.965 14.8221 0 0 1.5 0.143202 0.0737053 
14.6076 -12.2568 14.8984 0 0 1.5 0.134968 0.0762076 
14.4846 -12.5528 14.9449 0 0 1.5 0.118941 0.0814255 
14.3594 -12.8496 14.9662 0 0 1.5 0.111224 0.0842915 
14.2319 -13.1473 14.9627 0 0 1.5 0.103744 0.0875788 
14.1045 -13.4449 14.9592 0 0 1.5 0.0965224 0.0912852 
13.977 -13.7426 14.9556 0 0 1.5 0.0829084 0.100112 
13.8495 -14.0402 14.9521 0 0 1.5 0.0765317 0.105686 
13.722 -14.3379 14.9486 0 0 1.5 0.0704475 0.112178 
13.5946 -14.6356 14.945 0 0 1.5 0.0646585 0.119636 
13.4671 -14.9332 14.9415 0 0 1.5 0.0539717 0.138798 
13.3396 -15.2309 14.938 0 0 1.5 0.049076 0.151111 
13.2121 -15.5285 14.9344 0 0 1.5 0.0444833 0.165466 
13.0847 -15.8262 14.9309 0 0 1.5 0.0362256 0.202591 
12.9572 -16.1238 14.9274 0 0 1.5 0.0325714 0.226324 
12.8297 -16.4215 14.9238 0 0 1.5 0.029247 0.25354 
12.7022 -16.7192 14.9203 0 0 1.5 0.0262655 0.284223 
12.5747 -17.0168 14.9168 0 0 1.5 0.0213746 0.352766 
12.4473 -17.3145 14.9132 0 0 1.5 0.019486 0.38516 
12.3198 -17.6121 14.9097 0 0 1.5 0.0179721 0.411267 
12.1923 -17.9098 14.9062 0 0 1.5 0.016818 0.4275 
12.0648 -18.2075 14.9026 0 0 1.5 0.0154544 0.420698 
11.9374 -18.5051 14.8991 0 0 1.5 0.0151409 0.399945 
11.8099 -18.8028 14.8956 0 0 1.5 0.01499 0.373051 
11.6824 -19.1004 14.892 0 0 1.5 0.0149438 0.314337 
11.5549 -19.3981 14.8885 0 0 1.5 0.0149534 0.287478 
11.4274 -19.6957 14.885 0 0 1.5 0.0149385 0.26437 
11.3 -19.9934 14.8814 0 0 1.5 0.0148774 0.244966 
11.1725 -20.2911 14.8779 0 0 1.5 0.0145679 0.215932 
11.045 -20.5887 14.8744 0 0 1.5 0.0143077 0.206078 
10.9175 -20.8864 14.8708 0 0 1.5 0.013976 0.198846 
10.7901 -21.184 14.8673 0 0 1.5 0.0135758 0.193784 
10.6626 -21.4817 14.8638 0 0 1.5 0.0125931 0.190445 
10.5351 -21.7793 14.8602 0 0 1.5 0.0120262 0.19206 
10.4076 -22.077 14.8567 0 0 1.5 0.0114218 0.195481 
10.2801 -22.3747 14.8532 0 0 1.5 0.0101414 0.208858 
10.1527 -22.6723 14.8496 0 0 1.5 0.00948498 0.219165 
10.0252 -22.97 14.8461 0 0 1.5 0.00883166 0.231641 
9.89771 -23.2676 14.8426 0 0 1.5 0.00819177 0.246579 
9.77023 -23.5653 14.839 0 0 1.5 0.0069872 0.284962 
9.64275 -23.863 14.8355 0 0 1.5 0.00644012 0.307254 
9.51528 -24.1606 14.832 0 0 1.5 0.00594087 0.33082 
9.3878 -24.4583 14.8284 0 0 1.5 0.0054956 0.354988 
9.26032 -24.7559 14.8249 0 0 1.5 0.00478677 0.395702 
9.13284 -25.0536 14.8214 0 0 1.5 0.00452853 0.407315 
9.00537 -25.3512 14.8178 0 0 1.5 0.00433303 0.411299 
8.87789 -25.6489 14.8143 0 0 1.5 0.00419597 0.406574 
8.75041 -25.9466 14.8108 0 0 1.5 0.00406895 0.373932 
8.62293 -26.2442 14.8072 0 0 1.5 0.00406141 0.351308 
8.49546 -26.5419 14.8037 0 0 1.5 0.0040798 0.327184 
8.36798 -26.8395 14.8002 0 0 1.5 0.00416587 0.27963 
8.2405 -27.1372 14.7967 0 0 1.5 0.00422203 0.258368 
8.11302 -27.4349 14.7931 0 0 1.5 0.00428131 0.239096 
7.98555 -27.7325 14.7896 0 0 1.5 0.0043409 0.221625 
7.85807 -28.0302 14.7861 0 0 1.5 0.0044541 0.192329 
7.73059 -28.3278 14.7825 0 0 1.5 0.00450633 0.180041 
7.60311 -28.6255 14.779 0 0 1.5 0.00455566 0.168759 
7.47564 -28.9231 14.7755 0 0 1.5 0.00460245 0.158418 
7.34816 -29.2208 14.7719 0 0 1.5 0.00468962 0.140284 
7.22068 -29.5185 14.7684 0 0 1.5 0.00473108 0.131972 
7.0932 -29.8161 14.7649 0 0 1.5 0.00477199 0.124103 
6.96572 -30.1138 14.7613 0 0 1.5 0.00485329 0.109825 
6.83825 -30.4114 14.7578 0 0 1.5 0.00489448 0.103166 
6.71077 -30.7091 14.7543 0 0 1.5 0.00493661 0.0968646 
6.58329 -31.0067 14.7507 0 0 1.5 0.00497974 0.091034 
6.45581 -31.3044 14.7472 0 0 1.5 0.00506938 0.0805733 
6.32834 -31.6021 14.7437 0 0 1.5 0.00511628 0.0759441 
6.20086 -31.8997 14.7401 0 0 1.5 0.00516459 0.0718045 
6.07338 -32.1974 14.7366 0 0 1.5 0.00521431 0.0681262 
5.9459 -32.495 14.7331 0 0 1.5 0.00531834 0.0620648 
5.81843 -32.7927 14.7295 0 0 1.5 0.00537287 0.0596868 
5.69095 -33.0904 14.726 0 0 1.5 0.00542924 0.0577211 
0 1 0 
1 2 0 
2 3 0 
3 4 0 
4 5 0 
5 6 0 
6 7 0 
7 8 0 
8 9 0 
9 10 0 
10 11 0 
11 12 0 
12 13 0 
13 14 0 
14 15 0 
15 16 0 
16 17 0 
17 18 0 
18 19 0 
19 20 0 
20 21 0 
21 22 0 
22 23 0 
23 24 0 
24 25 0 
25 26 0 
26 27 0 
27 28 0 
28 29 0 
29 30 0 
30 31 0 
31 32 0 
32 33 0 
33 34 0 
34 35 0 
35 36 0 
36 37 0 
37 38 0 
38 39 0 
39 40 0 
40 41 0 
41 42 0 
42 43 0 
43 44 0 
44 45 0 
45 46 0 
46 47 0 
47 48 0 
48 49 0 
49 50 0 
50 51 0 
51 52 0 
52 53 0 
53 54 0 
54 55 0 
55 56 0 
56 57 0 
57 58 0 
58 59 0 
59 60 0 
60 61 0 
61 62 0 
62 63 0 
63 64 0 
64 65 0 
65 66 0 
66 67 0 
67 68 0 
68 69 0 
69 70 0 
70 71 0 
71 72 0 
72 73 0 
73 74 0 
74 75 0 
75 76 0 
76 77 0 
77 78 0 
78 79 0 
79 80 0 
80 81 0 
81 82 0 
82 83 0 
83 84 0 
84 85 0 
85 86 0 
86 87 0 
87 88 0 
88 89 0 
89 90 0 
90 91 0 
91 92 0 
92 93 0 
93 94 0 
94 95 0 
95 96 0 
96 97 0 
97 98 0 
98 99 0 
99 100 0 
100 101 0 
101 102 0 
102 103 0 
103 104 0 
104 105 0 
105 106 0 
106 107 0 
107 108 0 
108 109 0 
109 110 0 
110 111 0 
111 112 0 
112 113 0 
113 114 0 
114 115 0 
115 116 0 
116 117 0 
117 118 0 
118 119 0 
119 120 0 
120 121 0 
121 122 0 
122 123 0 
123 124 0 
124 125 0 
125 126 0 
126 127 0 
127 128 0 
128 129 0 
129 130 0 
130 131 0 
131 132 0 
132 133 0 
133 134 0 
134 135 0 
135 136 0 
136 137 0 
137 138 0 
138 139 0 
139 140 0 
140 141 0 
141 142 0 
142 143 0 
143 144 0 
144 145 0 
145 146 0 
146 147 0 
147 148 0 
148 149 0 
149 150 0 
150 151 0 
151 152 0 
152 153 0 
153 154 0 
154 155 0 
155 156 0 
156 157 0 
157 158 0 
158 159 0 
159 160 0 
160 161 0 
161 162 0 
162 163 0 
163 164 0 
164 165 0 
165 166 0 
166 167 0 
167 168 0 
168 169 0 
169 170 0 
170 171 0 
171 172 0 
172 173 0 
173 174 0 
174 175 0 
175 176 0 
176 177 0 
177 178 0 
178 179 0 
179 180 0 
180 181 0 
181 182 0 
182 183 0 
183 184 0 
184 185 0 
185 186 0 
186 187 0 
187 188 0 
188 189 0 
189 190 0 
190 191 0 
191 192 0 
192 193 0 
193 194 0 
194 195 0 
195 196 0 
196 197 0 
197 198 0 
198 199 0 
199 200 0 
200 201 0 
201 202 0 
202 203 0 
203 204 0 
204 205 0 
205 206 0 
206 207 0 
207 208 0 
208 209 0 
209 210 0 
210 211 0 
211 212 0 
212 213 0 
213 214 0 
214 215 0 
215 216 0 
216 217 0 
217 218 0 
218 219 0 
219 220 0 
220 221 0 
221 222 0 
222 223 0 
223 224 0 
224 225 0 
225 226 0 
226 227 0 
227 228 0 
228 229 0 
229 230 0 
230 231 0 
231 232 0 
232 233 0 
233 234 0 
234 235 0 
235 236 0 
236 237 0 
237 238 0 
238 239 0 
239 240 0 
240 241 0 
241 242 0 
242 243 0 
243 244 0 
244 245 0 
245 246 0 
246 247 0 
247 248 0 
248 249 0 
249 250 0 
250 251 0 
251 252 0 
252 253 0 
253 254 0 
254 255 0 
255 256 0 
256 257 0 
257 258 0 
258 259 0 
259 260 0 
260 261 0 
261 262 0 
262 263 0 
263 264 0 
264 265 0 
265 266 0 
266 267 0 
267 268 0 
268 269 0 
269 270 0 
270 271 0 
271 272 0 
272 273 0 
273 274 0 
274 275 0 
275 276 0 
276 277 0 
277 278 0 
278 279 0 
279 280 0 
280 281 0 
281 282 0 
282 283 0 
283 284 0 
284 285 0 
285 286 0 
286 287 0 
287 288 0 
288 289 0 
289 290 0 
290 291 0 
291 292 0 
292 293 0 
293 294 0 
294 295 0 
295 296 0 
296 297 0 
297 298 0 
298 299 0 
-1 -1 0 
-1 300 0 1 2 3 4 5 6 7 8 9 10 11 12 13 14 15 16 17 18 19 20 21 22 23 24 25 26 27 28 29 30 31 32 33 34 35 36 37 38 39 40 41 42 43 44 45 46 47 48 49 50 51 52 53 54 55 56 57 58 59 60 61 62 63 64 65 66 67 68 69 70 71 72 73 74 75 76 77 78 79 80 81 82 83 84 85 86 87 88 89 90 91 92 93 94 95 96 97 98 99 100 101 102 103 104 105 106 107 108 109 110 111 112 113 114 115 116 117 118 119 120 121 122 123 124 125 126 127 128 129 130 131 132 133 134 135 136 137 138 139 140 141 142 143 144 145 146 147 148 149 150 151 152 153 154 155 156 157 158 159 160 161 162 163 164 165 166 167 168 169 170 171 172 173 174 175 176 177 178 179 180 181 182 183 184 185 186 187 188 189 190 191 192 193 194 195 196 197 198 199 200 201 202 203 204 205 206 207 208 209 210 211 212 213 214 215 216 217 218 219 220 221 222 223 224 225 226 227 228 229 230 231 232 233 234 235 236 237 238 239 240 241 242 243 244 245 246 247 248 249 250 251 252 253 254 255 256 257 258 259 260 261 262 263 264 265 266 267 268 269 270 271 272 273 274 275 276 277 278 279 280 281 282 283 284 285 286 287 288 289 290 291 292 293 294 295 296 297 298 299 
