ply
format ascii 1.0
comment written by koba@oshima.lab
element vertex 300
property float x
property float y
property float z
property int label
property int attribute
property float radius
property float curvature
property float torsion
element edge 300
property int vertex1
property int vertex2
property int label
element vertex_seq 1
property int label
property list int int vertex_indices
end_header
-0.153252 26.3699 -7.04614 0 0 1.5 0.0182796 0.111249 
-0.241735 26.0459 -7.03753 0 0 1.5 0.0180082 0.115244 
-0.330217 25.722 -7.02893 0 0 1.5 0.0177512 0.120698 
-0.4187 25.3981 -7.02033 0 0 1.5 0.0175077 0.127693 
-0.507183 25.0741 -7.01172 0 0 1.5 0.0170646 0.146436 
-0.595666 24.7502 -7.00312 0 0 1.5 0.0168683 0.158101 
-0.684148 24.4263 -6.99452 0 0 1.5 0.0166931 0.171232 
-0.772631 24.1023 -6.98591 0 0 1.5 0.016544 0.1857 
-0.861114 23.7784 -6.97731 0 0 1.5 0.0163502 0.216517 
-0.949597 23.4544 -6.96871 0 0 1.5 0.0163197 0.231978 
-1.03808 23.1305 -6.96011 0 0 1.5 0.0163452 0.246915 
-1.12656 22.8066 -6.9515 0 0 1.5 0.0164369 0.26029 
-1.21504 22.4826 -6.9429 0 0 1.5 0.0168476 0.279685 
-1.30353 22.1587 -6.9343 0 0 1.5 0.0171796 0.285457 
-1.39201 21.8348 -6.92569 0 0 1.5 0.0176029 0.288113 
-1.48049 21.5108 -6.91709 0 0 1.5 0.0187165 0.285025 
-1.56898 21.1869 -6.90849 0 0 1.5 0.019398 0.280912 
-1.65746 20.8629 -6.89989 0 0 1.5 0.0201544 0.275646 
-1.74594 20.539 -6.89128 0 0 1.5 0.020973 0.269781 
-1.83442 20.2151 -6.88268 0 0 1.5 0.022741 0.259902 
-1.92291 19.8911 -6.87408 0 0 1.5 0.0236646 0.256684 
-2.01139 19.5672 -6.86547 0 0 1.5 0.0245972 0.254761 
-2.09987 19.2433 -6.85687 0 0 1.5 0.0255263 0.254644 
-2.18836 18.9193 -6.84827 0 0 1.5 0.0273401 0.260904 
-2.27684 18.5954 -6.83967 0 0 1.5 0.0282126 0.267323 
-2.36532 18.2714 -6.83106 0 0 1.5 0.0290586 0.276303 
-2.4538 17.9475 -6.82246 0 0 1.5 0.0307003 0.301997 
-2.54229 17.6236 -6.81386 0 0 1.5 0.0315316 0.317404 
-2.63077 17.2996 -6.80525 0 0 1.5 0.0324074 0.334106 
-2.71925 16.9757 -6.79665 0 0 1.5 0.0333677 0.351648 
-2.80773 16.6518 -6.78805 0 0 1.5 0.0357565 0.382726 
-2.89622 16.3278 -6.77945 0 0 1.5 0.037312 0.393587 
-2.9847 16.0039 -6.77084 0 0 1.5 0.039199 0.400229 
-3.07318 15.6799 -6.76224 0 0 1.5 0.0414874 0.401158 
-3.16167 15.356 -6.75364 0 0 1.5 0.0475093 0.384945 
-3.25015 15.0321 -6.74503 0 0 1.5 0.0513326 0.370373 
-3.33863 14.7081 -6.73643 0 0 1.5 0.0557375 0.352627 
-3.42711 14.3842 -6.72783 0 0 1.5 0.0607339 0.33266 
-3.55136 14.0745 -6.69575 0 0 1.5 0.0724637 0.292524 
-3.69098 13.7721 -6.65475 0 0 1.5 0.0791497 0.273762 
-3.85108 13.4813 -6.60355 0 0 1.5 0.0863263 0.256013 
-4.02208 13.1971 -6.55117 0 0 1.5 0.10188 0.225534 
-4.19942 12.9168 -6.4981 0 0 1.5 0.110083 0.212841 
-4.38635 12.6413 -6.45381 0 0 1.5 0.118426 0.201489 
-4.57482 12.3659 -6.41622 0 0 1.5 0.126777 0.191533 
-4.76597 12.0906 -6.39356 0 0 1.5 0.142884 0.175599 
-4.95479 11.8133 -6.39545 0 0 1.5 0.150297 0.169198 
-5.14032 11.5348 -6.4168 0 0 1.5 0.157044 0.163759 
-5.31425 11.2546 -6.48092 0 0 1.5 0.162942 0.159279 
-5.4681 10.9782 -6.58967 0 0 1.5 0.171566 0.152522 
-5.60077 10.7083 -6.73535 0 0 1.5 0.174074 0.150048 
-5.70729 10.4484 -6.91958 0 0 1.5 0.175287 0.148203 
-5.77303 10.208 -7.14436 0 0 1.5 0.173838 0.146161 
-5.81838 9.97707 -7.38295 0 0 1.5 0.171309 0.145911 
-5.84557 9.75463 -7.63319 0 0 1.5 0.167724 0.146254 
-5.84754 9.54035 -7.89182 0 0 1.5 0.163221 0.147177 
-5.84329 9.32621 -8.15049 0 0 1.5 0.152153 0.150698 
-5.82876 9.11174 -8.40862 0 0 1.5 0.145932 0.153431 
-5.81011 8.89271 -8.66256 0 0 1.5 0.139474 0.15685 
-5.78927 8.67125 -8.91428 0 0 1.5 0.132937 0.160931 
-5.76906 8.44081 -9.15783 0 0 1.5 0.120205 0.171104 
-5.74976 8.2081 -9.39926 0 0 1.5 0.114275 0.1771 
-5.73413 7.96857 -9.63425 0 0 1.5 0.108811 0.183477 
-5.7205 7.72719 -9.86743 0 0 1.5 0.0998186 0.195709 
-5.70938 7.48347 -10.0983 0 0 1.5 0.0965773 0.200341 
-5.69866 7.24079 -10.3303 0 0 1.5 0.0943816 0.202957 
-5.6881 6.99856 -10.5628 0 0 1.5 0.093398 0.202697 
-5.67109 6.76324 -10.8019 0 0 1.5 0.0957404 0.19158 
-5.65024 6.53085 -11.0434 0 0 1.5 0.099395 0.181051 
-5.61658 6.3079 -11.2924 0 0 1.5 0.104911 0.168262 
-5.5702 6.09205 -11.5451 0 0 1.5 0.112441 0.154383 
-5.51013 5.88386 -11.8018 0 0 1.5 0.134297 0.127632 
-5.42417 5.68664 -12.0592 0 0 1.5 0.149132 0.116153 
-5.32933 5.49319 -12.317 0 0 1.5 0.167051 0.106403 
-5.19509 5.31146 -12.5655 0 0 1.5 0.188566 0.0984605 
-5.05152 5.13127 -12.8092 0 0 1.5 0.245332 0.0877567 
-4.87722 4.95612 -13.0368 0 0 1.5 0.282645 0.0848592 
-4.68668 4.78111 -13.2497 0 0 1.5 0.327827 0.0835382 
-4.47619 4.60629 -13.4445 0 0 1.5 0.450293 0.08563 
-4.24597 4.42777 -13.6099 0 0 1.5 0.533288 0.0892357 
-4.00603 4.24745 -13.7607 0 0 1.5 0.63564 0.0948013 
-3.74733 4.05828 -13.8601 0 0 1.5 0.761514 0.102542 
-3.48498 3.86587 -13.9379 0 0 1.5 1.09524 0.125013 
-3.21633 3.6659 -13.964 0 0 1.5 1.29746 0.139245 
-2.95367 3.46285 -13.9313 0 0 1.5 1.50205 0.153859 
-2.70331 3.26173 -13.845 0 0 1.5 1.67347 0.166097 
-2.47815 3.06928 -13.6866 0 0 1.5 1.75147 0.171229 
-2.32281 2.91852 -13.4298 0 0 1.5 1.63128 0.162502 
-2.24585 2.82616 -13.1207 0 0 1.5 1.44321 0.149277 
-2.24212 2.79421 -12.7916 0 0 1.5 1.02904 0.122062 
-2.29211 2.80943 -12.4622 0 0 1.5 0.851018 0.111696 
-2.38954 2.86888 -12.1462 0 0 1.5 0.701751 0.104282 
-2.51724 2.95775 -11.8497 0 0 1.5 0.579355 0.0998714 
-2.65623 3.05747 -11.5608 0 0 1.5 0.398876 0.0996719 
-2.81808 3.17758 -11.292 0 0 1.5 0.332822 0.104023 
-2.98308 3.29948 -11.0262 0 0 1.5 0.278555 0.111879 
-3.15927 3.42768 -10.7705 0 0 1.5 0.233648 0.123923 
-3.33801 3.55479 -10.5161 0 0 1.5 0.164994 0.165208 
-3.52222 3.67956 -10.2645 0 0 1.5 0.138888 0.198093 
-3.70767 3.79837 -10.0109 0 0 1.5 0.117295 0.24179 
-3.89483 3.90899 -9.75487 0 0 1.5 0.0866286 0.357885 
-4.08069 4.00552 -9.49256 0 0 1.5 0.0776772 0.41114 
-4.2656 4.09179 -9.22572 0 0 1.5 0.0731738 0.435007 
-4.44389 4.15118 -8.94765 0 0 1.5 0.0729408 0.417255 
-4.61885 4.19941 -8.66535 0 0 1.5 0.0825675 0.306734 
-4.78179 4.21462 -8.372 0 0 1.5 0.0907053 0.250532 
-4.93548 4.21001 -8.07414 0 0 1.5 0.10012 0.204693 
-5.08031 4.18646 -7.77197 0 0 1.5 0.110339 0.169033 
-5.20673 4.1301 -7.46609 0 0 1.5 0.131858 0.120884 
-5.32476 4.06021 -7.15996 0 0 1.5 0.142648 0.105176 
-5.42988 3.97002 -6.85393 0 0 1.5 0.153161 0.0931756 
-5.52087 3.85896 -6.55056 0 0 1.5 0.163163 0.0839159 
-5.60448 3.73684 -6.24925 0 0 1.5 0.18069 0.0718785 
-5.67496 3.59464 -5.95319 0 0 1.5 0.187779 0.068363 
-5.73672 3.43714 -5.66335 0 0 1.5 0.193477 0.0661137 
-5.79258 3.26907 -5.378 0 0 1.5 0.200068 0.0651407 
-5.83721 3.07667 -5.10629 0 0 1.5 0.200798 0.0663042 
-5.87732 2.87227 -4.84326 0 0 1.5 0.199803 0.0685186 
-5.91234 2.65443 -4.58996 0 0 1.5 0.197152 0.0717845 
-5.94039 2.41591 -4.35533 0 0 1.5 0.187474 0.0816138 
-5.96568 2.16948 -4.12882 0 0 1.5 0.180843 0.0883699 
-5.98609 1.90927 -3.91737 0 0 1.5 0.17332 0.0964458 
-6.00251 1.64045 -3.71692 0 0 1.5 0.165142 0.105913 
-6.01655 1.36651 -3.52303 0 0 1.5 0.147726 0.129854 
-6.02435 1.0844 -3.34088 0 0 1.5 0.138901 0.144673 
-6.03022 0.800798 -3.16102 0 0 1.5 0.130235 0.16152 
-6.02988 0.513356 -2.98719 0 0 1.5 0.113979 0.201773 
-6.02571 0.225127 -2.81479 0 0 1.5 0.106649 0.224971 
-6.01613 -0.0642181 -2.64442 0 0 1.5 0.0999961 0.249632 
-5.99964 -0.353583 -2.4747 0 0 1.5 0.0941138 0.274855 
-5.97873 -0.642959 -2.3054 0 0 1.5 0.0849832 0.320881 
-5.94671 -0.931401 -2.13634 0 0 1.5 0.0818471 0.337837 
-5.91181 -1.2196 -1.96734 0 0 1.5 0.0796932 0.348225 
-5.86021 -1.50573 -1.79911 0 0 1.5 0.0785022 0.350864 
-5.80482 -1.79123 -1.63119 0 0 1.5 0.0787492 0.334084 
-5.73247 -2.07388 -1.46471 0 0 1.5 0.0799844 0.317284 
-5.65155 -2.35448 -1.29912 0 0 1.5 0.0817927 0.297232 
-5.5561 -2.6316 -1.13501 0 0 1.5 0.0840377 0.275761 
-5.44594 -2.90358 -0.972011 0 0 1.5 0.0893292 0.233529 
-5.32574 -3.17203 -0.809769 0 0 1.5 0.0921381 0.214089 
-5.18501 -3.43 -0.647351 0 0 1.5 0.0949111 0.196212 
-5.03808 -3.6843 -0.484519 0 0 1.5 0.100009 0.165052 
-4.87089 -3.92346 -0.318124 0 0 1.5 0.102187 0.151441 
-4.69678 -4.15486 -0.148471 0 0 1.5 0.104031 0.138915 
-4.51115 -4.37331 0.0266172 0 0 1.5 0.105501 0.127255 
-4.31682 -4.5759 0.210548 0 0 1.5 0.107191 0.105544 
-4.11818 -4.77063 0.398863 0 0 1.5 0.107371 0.0952061 
-3.91298 -4.94105 0.602988 0 0 1.5 0.107107 0.0851165 
-3.70743 -5.10415 0.812305 0 0 1.5 0.106412 0.0750378 
-3.5014 -5.2503 1.03374 0 0 1.5 0.103821 0.0541496 
-3.29773 -5.38494 1.26411 0 0 1.5 0.101989 0.043186 
-3.09574 -5.51143 1.50084 0 0 1.5 0.0998544 0.0316229 
-2.89959 -5.62584 1.74829 0 0 1.5 0.0948643 0.00605882 
-2.70537 -5.73738 1.9986 0 0 1.5 0.0921139 -0.00777694 
-2.51728 -5.8424 2.25634 0 0 1.5 0.0892692 -0.022468 
-2.33167 -5.94616 2.51635 0 0 1.5 0.0863902 -0.0381721 
-2.14956 -6.04815 2.77955 0 0 1.5 0.0807696 -0.0716497 
-1.96981 -6.14943 3.04462 0 0 1.5 0.0781428 -0.0889803 
-1.79118 -6.25038 3.31059 0 0 1.5 0.0757159 -0.106416 
-1.61269 -6.3493 3.57741 0 0 1.5 0.0735454 -0.123336 
-1.43348 -6.44672 3.84429 0 0 1.5 0.0701552 -0.152761 
-1.25167 -6.53928 4.11116 0 0 1.5 0.0690122 -0.163967 
-1.06669 -6.6256 4.37784 0 0 1.5 0.0682747 -0.171992 
-0.878693 -6.70603 4.64435 0 0 1.5 0.0680341 -0.177159 
-0.684134 -6.77128 4.91019 0 0 1.5 0.0685087 -0.174266 
-0.48689 -6.82981 5.17558 0 0 1.5 0.069345 -0.168264 
-0.282528 -6.86918 5.43925 0 0 1.5 0.0704997 -0.159845 
-0.074084 -6.89695 5.7009 0 0 1.5 0.0735538 -0.138078 
0.138616 -6.91261 5.96042 0 0 1.5 0.0753367 -0.126083 
0.358291 -6.91125 6.21438 0 0 1.5 0.0772097 -0.114265 
0.580701 -6.90412 6.46593 0 0 1.5 0.0791127 -0.102851 
0.811409 -6.88341 6.70921 0 0 1.5 0.0827741 -0.0819173 
1.04649 -6.85897 6.94774 0 0 1.5 0.0844196 -0.0728707 
1.28794 -6.8291 7.17935 0 0 1.5 0.0858709 -0.064798 
1.53717 -6.79667 7.40207 0 0 1.5 0.0870777 -0.0576446 
1.79017 -6.76301 7.62047 0 0 1.5 0.0885811 -0.046839 
2.05355 -6.72866 7.82606 0 0 1.5 0.0888061 -0.0433067 
2.31937 -6.69414 8.02842 0 0 1.5 0.0886405 -0.040971 
2.59313 -6.659 8.21988 0 0 1.5 0.0870576 -0.040313 
2.86967 -6.62244 8.40692 0 0 1.5 0.0856205 -0.0422053 
3.15031 -6.58377 8.58744 0 0 1.5 0.08375 -0.0457522 
3.43334 -6.53988 8.76285 0 0 1.5 0.0814515 -0.0510924 
3.71775 -6.49301 8.93534 0 0 1.5 0.0756382 -0.0682556 
4.00259 -6.43442 9.10342 0 0 1.5 0.072171 -0.0811357 
4.28722 -6.37213 9.27049 0 0 1.5 0.0683711 -0.0976316 
4.56973 -6.29446 9.43479 0 0 1.5 0.0642811 -0.118546 
4.85065 -6.20994 9.59816 0 0 1.5 0.0554377 -0.18057 
5.1288 -6.11343 9.7599 0 0 1.5 0.0508155 -0.226435 
5.4041 -6.00654 9.91973 0 0 1.5 0.0461808 -0.286358 
5.67761 -5.89313 10.0784 0 0 1.5 0.0374355 -0.46665 
5.94858 -5.76917 10.2334 0 0 1.5 0.0337506 -0.589425 
6.21918 -5.64295 10.3873 0 0 1.5 0.0309404 -0.716371 
6.4901 -5.51185 10.5364 0 0 1.5 0.0293873 -0.808325 
6.76247 -5.3815 10.6836 0 0 1.5 0.0311057 -0.743869 
7.03751 -5.25252 10.8269 0 0 1.5 0.0343102 -0.620382 
7.31689 -5.12936 10.9669 0 0 1.5 0.0387154 -0.495031 
7.59914 -5.01006 11.1045 0 0 1.5 0.0440155 -0.390138 
7.88865 -4.90446 11.238 0 0 1.5 0.0564006 -0.249369 
8.18024 -4.80338 11.3705 0 0 1.5 0.063181 -0.205146 
8.47859 -4.71998 11.5004 0 0 1.5 0.0702174 -0.172591 
8.77876 -4.64408 11.6303 0 0 1.5 0.084782 -0.130635 
9.08219 -4.58156 11.7601 0 0 1.5 0.0921959 -0.117395 
9.38673 -4.53049 11.892 0 0 1.5 0.0996258 -0.107705 
9.69202 -4.48712 12.0252 0 0 1.5 0.107018 -0.100734 
9.99629 -4.45753 12.1643 0 0 1.5 0.121471 -0.0927741 
10.3002 -4.43155 12.3051 0 0 1.5 0.128413 -0.0911698 
10.6003 -4.41977 12.4555 0 0 1.5 0.13508 -0.0908035 
10.8987 -4.41233 12.6092 0 0 1.5 0.141411 -0.091467 
11.1926 -4.41625 12.7718 0 0 1.5 0.152822 -0.0956614 
11.482 -4.43066 12.9413 0 0 1.5 0.157782 -0.0990182 
11.7676 -4.45416 13.1167 0 0 1.5 0.162187 -0.10302 
12.0439 -4.50011 13.3018 0 0 1.5 0.166005 -0.107682 
12.3154 -4.55728 13.4904 0 0 1.5 0.171796 -0.11894 
12.5752 -4.64227 13.6857 0 0 1.5 0.173773 -0.125204 
12.823 -4.75211 13.8829 0 0 1.5 0.175171 -0.131836 
13.0619 -4.87977 14.0812 0 0 1.5 0.176384 -0.146029 
13.2778 -5.04625 14.2775 0 0 1.5 0.176308 -0.153144 
13.481 -5.22912 14.4715 0 0 1.5 0.175863 -0.160145 
13.6704 -5.42986 14.663 0 0 1.5 0.175115 -0.16699 
13.8376 -5.65213 14.851 0 0 1.5 0.172969 -0.178939 
13.9965 -5.8808 15.0385 0 0 1.5 0.171706 -0.183559 
14.1372 -6.12139 15.226 0 0 1.5 0.170382 -0.187146 
14.2669 -6.36575 15.4162 0 0 1.5 0.16903 -0.189555 
14.386 -6.61381 15.6088 0 0 1.5 0.166311 -0.190368 
14.4887 -6.86288 15.8092 0 0 1.5 0.164934 -0.188753 
14.5861 -7.11221 16.0121 0 0 1.5 0.16351 -0.185952 
14.6607 -7.35749 16.2292 0 0 1.5 0.160375 -0.17731 
14.7278 -7.6 16.4512 0 0 1.5 0.158565 -0.171625 
14.7758 -7.83527 16.6861 0 0 1.5 0.156518 -0.165407 
14.8057 -8.06023 16.933 0 0 1.5 0.154187 -0.158946 
14.8224 -8.27781 17.1883 0 0 1.5 0.148511 -0.145393 
14.804 -8.46833 17.4641 0 0 1.5 0.145094 -0.138686 
14.7677 -8.64134 17.7481 0 0 1.5 0.141276 -0.132445 
14.7043 -8.78693 18.0441 0 0 1.5 0.137064 -0.126596 
14.6025 -8.88249 18.3483 0 0 1.5 0.127513 -0.116036 
14.4931 -8.96811 18.6542 0 0 1.5 0.122232 -0.111693 
14.3837 -9.05373 18.96 0 0 1.5 0.116669 -0.107943 
14.2743 -9.13935 19.2658 0 0 1.5 0.110868 -0.104694 
14.1649 -9.22497 19.5717 0 0 1.5 0.0987374 -0.100333 
14.0555 -9.31059 19.8775 0 0 1.5 0.0925126 -0.0993322 
13.9461 -9.39621 20.1834 0 0 1.5 0.0862482 -0.0990448 
13.8367 -9.48183 20.4892 0 0 1.5 0.0737803 -0.101509 
13.7273 -9.56746 20.795 0 0 1.5 0.0676604 -0.104644 
13.6179 -9.65308 21.1009 0 0 1.5 0.0616689 -0.109206 
13.5084 -9.7387 21.4067 0 0 1.5 0.0558408 -0.115607 
13.399 -9.82432 21.7126 0 0 1.5 0.044782 -0.136513 
13.2896 -9.90994 22.0184 0 0 1.5 0.0396055 -0.152525 
13.1802 -9.99556 22.3242 0 0 1.5 0.0347016 -0.174082 
13.0708 -10.0812 22.6301 0 0 1.5 0.0300929 -0.203658 
12.9614 -10.1668 22.9359 0 0 1.5 0.0218821 -0.300947 
12.852 -10.2524 23.2418 0 0 1.5 0.0183694 -0.379146 
12.7426 -10.338 23.5476 0 0 1.5 0.0153324 -0.485314 
12.6332 -10.4237 23.8534 0 0 1.5 0.0110697 -0.747058 
12.5238 -10.5093 24.1593 0 0 1.5 0.0100454 -0.815884 
12.4144 -10.5949 24.4651 0 0 1.5 0.00976803 -0.779617 
12.305 -10.6805 24.771 0 0 1.5 0.0100781 -0.664046 
12.1956 -10.7662 25.0768 0 0 1.5 0.0115656 -0.416915 
12.0862 -10.8518 25.3826 0 0 1.5 0.0123959 -0.331336 
11.9768 -10.9374 25.6885 0 0 1.5 0.0131501 -0.269193 
11.8674 -11.023 25.9943 0 0 1.5 0.0137779 -0.224125 
11.758 -11.1086 26.3002 0 0 1.5 0.0145618 -0.168105 
11.6485 -11.1943 26.606 0 0 1.5 0.0147067 -0.151055 
11.5391 -11.2799 26.9118 0 0 1.5 0.0146918 -0.138494 
11.4297 -11.3655 27.2177 0 0 1.5 0.0142211 -0.123756 
11.3203 -11.4511 27.5235 0 0 1.5 0.0137912 -0.12045 
11.2109 -11.5367 27.8294 0 0 1.5 0.0132521 -0.119144 
11.1015 -11.6224 28.1352 0 0 1.5 0.01262 -0.119874 
10.9921 -11.708 28.441 0 0 1.5 0.0111384 -0.128335 
10.8827 -11.7936 28.7469 0 0 1.5 0.010321 -0.136195 
10.7733 -11.8792 29.0527 0 0 1.5 0.00947399 -0.147198 
10.6639 -11.9648 29.3586 0 0 1.5 0.00861108 -0.162538 
10.5545 -12.0505 29.6644 0 0 1.5 0.00689331 -0.211116 
10.4451 -12.1361 29.9702 0 0 1.5 0.00606788 -0.248625 
10.3357 -12.2217 30.2761 0 0 1.5 0.0052833 -0.300121 
10.2263 -12.3073 30.5819 0 0 1.5 0.00455531 -0.370145 
10.1169 -12.393 30.8878 0 0 1.5 0.0033526 -0.576375 
10.0075 -12.4786 31.1936 0 0 1.5 0.0029291 -0.697487 
9.89805 -12.5642 31.4994 0 0 1.5 0.00266016 -0.783948 
9.78864 -12.6498 31.8053 0 0 1.5 0.00261136 -0.704178 
9.67924 -12.7354 32.1111 0 0 1.5 0.00277754 -0.581991 
9.56983 -12.8211 32.417 0 0 1.5 0.00301345 -0.463387 
9.46042 -12.9067 32.7228 0 0 1.5 0.00328294 -0.366177 
9.35102 -12.9923 33.0286 0 0 1.5 0.00383318 -0.237472 
9.24161 -13.0779 33.3345 0 0 1.5 0.00409061 -0.196444 
9.13221 -13.1635 33.6403 0 0 1.5 0.00432895 -0.165061 
9.0228 -13.2492 33.9462 0 0 1.5 0.00454605 -0.14074 
8.91339 -13.3348 34.252 0 0 1.5 0.00491589 -0.106351 
8.80399 -13.4204 34.5578 0 0 1.5 0.00507061 -0.0936385 
8.69458 -13.506 34.8637 0 0 1.5 0.00520733 -0.0829864 
8.58517 -13.5917 35.1695 0 0 1.5 0.00543339 -0.0663478 
8.47577 -13.6773 35.4754 0 0 1.5 0.0055265 -0.0595904 
8.36636 -13.7629 35.7812 0 0 1.5 0.00560893 -0.053653 
8.25696 -13.8485 36.087 0 0 1.5 0.0056821 -0.0484935 
8.14755 -13.9341 36.3929 0 0 1.5 0.00580616 -0.0399596 
8.03814 -14.0198 36.6987 0 0 1.5 0.00585984 -0.0364497 
7.92874 -14.1054 37.0046 0 0 1.5 0.00590924 -0.0334448 
7.81933 -14.191 37.3104 0 0 1.5 0.00595513 -0.0308944 
7.70993 -14.2766 37.6162 0 0 1.5 0.0060395 -0.0270083 
7.60052 -14.3622 37.9221 0 0 1.5 0.00607929 -0.0256388 
7.49111 -14.4479 38.2279 0 0 1.5 0.00611813 -0.0246255 
0 1 0 
1 2 0 
2 3 0 
3 4 0 
4 5 0 
5 6 0 
6 7 0 
7 8 0 
8 9 0 
9 10 0 
10 11 0 
11 12 0 
12 13 0 
13 14 0 
14 15 0 
15 16 0 
16 17 0 
17 18 0 
18 19 0 
19 20 0 
20 21 0 
21 22 0 
22 23 0 
23 24 0 
24 25 0 
25 26 0 
26 27 0 
27 28 0 
28 29 0 
29 30 0 
30 31 0 
31 32 0 
32 33 0 
33 34 0 
34 35 0 
35 36 0 
36 37 0 
37 38 0 
38 39 0 
39 40 0 
40 41 0 
41 42 0 
42 43 0 
43 44 0 
44 45 0 
45 46 0 
46 47 0 
47 48 0 
48 49 0 
49 50 0 
50 51 0 
51 52 0 
52 53 0 
53 54 0 
54 55 0 
55 56 0 
56 57 0 
57 58 0 
58 59 0 
59 60 0 
60 61 0 
61 62 0 
62 63 0 
63 64 0 
64 65 0 
65 66 0 
66 67 0 
67 68 0 
68 69 0 
69 70 0 
70 71 0 
71 72 0 
72 73 0 
73 74 0 
74 75 0 
75 76 0 
76 77 0 
77 78 0 
78 79 0 
79 80 0 
80 81 0 
81 82 0 
82 83 0 
83 84 0 
84 85 0 
85 86 0 
86 87 0 
87 88 0 
88 89 0 
89 90 0 
90 91 0 
91 92 0 
92 93 0 
93 94 0 
94 95 0 
95 96 0 
96 97 0 
97 98 0 
98 99 0 
99 100 0 
100 101 0 
101 102 0 
102 103 0 
103 104 0 
104 105 0 
105 106 0 
106 107 0 
107 108 0 
108 109 0 
109 110 0 
110 111 0 
111 112 0 
112 113 0 
113 114 0 
114 115 0 
115 116 0 
116 117 0 
117 118 0 
118 119 0 
119 120 0 
120 121 0 
121 122 0 
122 123 0 
123 124 0 
124 125 0 
125 126 0 
126 127 0 
127 128 0 
128 129 0 
129 130 0 
130 131 0 
131 132 0 
132 133 0 
133 134 0 
134 135 0 
135 136 0 
136 137 0 
137 138 0 
138 139 0 
139 140 0 
140 141 0 
141 142 0 
142 143 0 
143 144 0 
144 145 0 
145 146 0 
146 147 0 
147 148 0 
148 149 0 
149 150 0 
150 151 0 
151 152 0 
152 153 0 
153 154 0 
154 155 0 
155 156 0 
156 157 0 
157 158 0 
158 159 0 
159 160 0 
160 161 0 
161 162 0 
162 163 0 
163 164 0 
164 165 0 
165 166 0 
166 167 0 
167 168 0 
168 169 0 
169 170 0 
170 171 0 
171 172 0 
172 173 0 
173 174 0 
174 175 0 
175 176 0 
176 177 0 
177 178 0 
178 179 0 
179 180 0 
180 181 0 
181 182 0 
182 183 0 
183 184 0 
184 185 0 
185 186 0 
186 187 0 
187 188 0 
188 189 0 
189 190 0 
190 191 0 
191 192 0 
192 193 0 
193 194 0 
194 195 0 
195 196 0 
196 197 0 
197 198 0 
198 199 0 
199 200 0 
200 201 0 
201 202 0 
202 203 0 
203 204 0 
204 205 0 
205 206 0 
206 207 0 
207 208 0 
208 209 0 
209 210 0 
210 211 0 
211 212 0 
212 213 0 
213 214 0 
214 215 0 
215 216 0 
216 217 0 
217 218 0 
218 219 0 
219 220 0 
220 221 0 
221 222 0 
222 223 0 
223 224 0 
224 225 0 
225 226 0 
226 227 0 
227 228 0 
228 229 0 
229 230 0 
230 231 0 
231 232 0 
232 233 0 
233 234 0 
234 235 0 
235 236 0 
236 237 0 
237 238 0 
238 239 0 
239 240 0 
240 241 0 
241 242 0 
242 243 0 
243 244 0 
244 245 0 
245 246 0 
246 247 0 
247 248 0 
248 249 0 
249 250 0 
250 251 0 
251 252 0 
252 253 0 
253 254 0 
254 255 0 
255 256 0 
256 257 0 
257 258 0 
258 259 0 
259 260 0 
260 261 0 
261 262 0 
262 263 0 
263 264 0 
264 265 0 
265 266 0 
266 267 0 
267 268 0 
268 269 0 
269 270 0 
270 271 0 
271 272 0 
272 273 0 
273 274 0 
274 275 0 
275 276 0 
276 277 0 
277 278 0 
278 279 0 
279 280 0 
280 281 0 
281 282 0 
282 283 0 
283 284 0 
284 285 0 
285 286 0 
286 287 0 
287 288 0 
288 289 0 
289 290 0 
290 291 0 
291 292 0 
292 293 0 
293 294 0 
294 295 0 
295 296 0 
296 297 0 
297 298 0 
298 299 0 
-1 -1 0 
-1 300 0 1 2 3 4 5 6 7 8 9 10 11 12 13 14 15 16 17 18 19 20 21 22 23 24 25 26 27 28 29 30 31 32 33 34 35 36 37 38 39 40 41 42 43 44 45 46 47 48 49 50 51 52 53 54 55 56 57 58 59 60 61 62 63 64 65 66 67 68 69 70 71 72 73 74 75 76 77 78 79 80 81 82 83 84 85 86 87 88 89 90 91 92 93 94 95 96 97 98 99 100 101 102 103 104 105 106 107 108 109 110 111 112 113 114 115 116 117 118 119 120 121 122 123 124 125 126 127 128 129 130 131 132 133 134 135 136 137 138 139 140 141 142 143 144 145 146 147 148 149 150 151 152 153 154 155 156 157 158 159 160 161 162 163 164 165 166 167 168 169 170 171 172 173 174 175 176 177 178 179 180 181 182 183 184 185 186 187 188 189 190 191 192 193 194 195 196 197 198 199 200 201 202 203 204 205 206 207 208 209 210 211 212 213 214 215 216 217 218 219 220 221 222 223 224 225 226 227 228 229 230 231 232 233 234 235 236 237 238 239 240 241 242 243 244 245 246 247 248 249 250 251 252 253 254 255 256 257 258 259 260 261 262 263 264 265 266 267 268 269 270 271 272 273 274 275 276 277 278 279 280 281 282 283 284 285 286 287 288 289 290 291 292 293 294 295 296 297 298 299 
