ply
format ascii 1.0
comment written by koba@oshima.lab
element vertex 300
property float x
property float y
property float z
property int label
property int attribute
property float radius
property float curvature
property float torsion
element edge 300
property int vertex1
property int vertex2
property int label
element vertex_seq 1
property int label
property list int int vertex_indices
end_header
-1.17125 26.1282 -6.20061 0 0 1.5 0.0343467 -0.000716949 
-1.25112 25.8212 -6.35154 0 0 1.5 0.034131 -0.000761862 
-1.33099 25.5143 -6.50248 0 0 1.5 0.0339095 -0.000855874 
-1.41086 25.2074 -6.65341 0 0 1.5 0.0336807 -0.000998433 
-1.49073 24.9005 -6.80435 0 0 1.5 0.0331923 -0.00142939 
-1.57059 24.5936 -6.95529 0 0 1.5 0.03292 -0.0017224 
-1.65046 24.2866 -7.10622 0 0 1.5 0.0326151 -0.00207094 
-1.73033 23.9797 -7.25716 0 0 1.5 0.0322671 -0.00247945 
-1.8102 23.6728 -7.40809 0 0 1.5 0.0313787 -0.00345916 
-1.89006 23.3659 -7.55903 0 0 1.5 0.0307876 -0.00405467 
-1.96993 23.059 -7.70996 0 0 1.5 0.0300644 -0.00476027 
-2.0498 22.752 -7.8609 0 0 1.5 0.0291824 -0.00559068 
-2.12967 22.4451 -8.01184 0 0 1.5 0.026795 -0.00786566 
-2.20954 22.1382 -8.16277 0 0 1.5 0.0252161 -0.0096098 
-2.2894 21.8313 -8.31371 0 0 1.5 0.023333 -0.0120814 
-2.36927 21.5244 -8.46464 0 0 1.5 0.0185122 -0.0220368 
-2.44914 21.2174 -8.61558 0 0 1.5 0.0155088 -0.033837 
-2.52901 20.9105 -8.76651 0 0 1.5 0.012083 -0.0603351 
-2.60887 20.6036 -8.91745 0 0 1.5 0.00827422 -0.140026 
-2.68874 20.2967 -9.06839 0 0 1.5 0.00370588 -0.858304 
-2.76861 19.9898 -9.21932 0 0 1.5 0.00827993 -0.194833 
-2.84848 19.6828 -9.37026 0 0 1.5 0.0143076 -0.074993 
-2.92835 19.3759 -9.52119 0 0 1.5 0.0211121 -0.040254 
-3.00821 19.069 -9.67213 0 0 1.5 0.0368049 -0.0190416 
-3.08808 18.7621 -9.82307 0 0 1.5 0.0456709 -0.0151933 
-3.16795 18.4552 -9.974 0 0 1.5 0.055196 -0.0129737 
-3.24782 18.1482 -10.1249 0 0 1.5 0.076167 -0.0109786 
-3.32768 17.8413 -10.2759 0 0 1.5 0.0875043 -0.0106962 
-3.40755 17.5344 -10.4268 0 0 1.5 0.0992652 -0.0107502 
-3.48742 17.2275 -10.5777 0 0 1.5 0.111306 -0.0110935 
-3.56729 16.9206 -10.7287 0 0 1.5 0.135394 -0.0126254 
-3.64716 16.6136 -10.8796 0 0 1.5 0.14685 -0.013863 
-3.72702 16.3067 -11.0306 0 0 1.5 0.157431 -0.0154779 
-3.80689 15.9998 -11.1815 0 0 1.5 0.166723 -0.0175335 
-3.88676 15.6929 -11.3324 0 0 1.5 0.17975 -0.023414 
-3.96663 15.3859 -11.4834 0 0 1.5 0.182685 -0.0276351 
-4.04649 15.079 -11.6343 0 0 1.5 0.182808 -0.0330668 
-4.16474 14.7605 -11.7112 0 0 1.5 0.179994 -0.0401176 
-4.29378 14.4387 -11.7673 0 0 1.5 0.165605 -0.0625548 
-4.45901 14.1317 -11.7249 0 0 1.5 0.154295 -0.0809973 
-4.62922 13.8334 -11.6613 0 0 1.5 0.140674 -0.107949 
-4.81212 13.5577 -11.5436 0 0 1.5 0.108227 -0.218469 
-4.99775 13.2961 -11.403 0 0 1.5 0.090466 -0.339782 
-5.18615 13.0491 -11.2393 0 0 1.5 0.0730178 -0.564553 
-5.37475 12.813 -11.0608 0 0 1.5 0.0582066 -0.961608 
-5.56346 12.5839 -10.873 0 0 1.5 0.0563574 -1.21173 
-5.75102 12.3586 -10.6797 0 0 1.5 0.0739229 -0.767282 
-5.93797 12.1353 -10.4833 0 0 1.5 0.0989802 -0.466628 
-6.12262 11.9076 -10.2899 0 0 1.5 0.128724 -0.300405 
-6.30617 11.6779 -10.0977 0 0 1.5 0.197568 -0.148064 
-6.48462 11.434 -9.91918 0 0 1.5 0.234977 -0.109928 
-6.6615 11.1857 -9.74479 0 0 1.5 0.272829 -0.0827361 
-6.82434 10.9071 -9.60614 0 0 1.5 0.342239 -0.0462708 
-6.97502 10.6132 -9.49322 0 0 1.5 0.368902 -0.0328829 
-7.10749 10.2967 -9.41852 0 0 1.5 0.386679 -0.0210899 
-7.18648 9.95492 -9.43519 0 0 1.5 0.393556 -0.0107492 
-7.21325 9.62055 -9.52423 0 0 1.5 0.373361 0.00603903 
-7.19271 9.30617 -9.67089 0 0 1.5 0.348822 0.0133542 
-7.13597 9.01415 -9.85735 0 0 1.5 0.317719 0.020299 
-7.03669 8.76064 -10.0792 0 0 1.5 0.282725 0.0271937 
-6.92637 8.51774 -10.3068 0 0 1.5 0.209444 0.0446408 
-6.80004 8.29023 -10.5427 0 0 1.5 0.173752 0.0587053 
-6.66373 8.06944 -10.7792 0 0 1.5 0.1396 0.0815518 
-6.52117 7.85287 -11.0162 0 0 1.5 0.0764584 0.222201 
-6.37265 7.63474 -11.2479 0 0 1.5 0.0475014 0.533968 
-6.22145 7.41592 -11.4773 0 0 1.5 0.0224519 2.27343 
-6.06874 7.18794 -11.6963 0 0 1.5 0.0221036 2.29412 
-5.91539 6.95605 -11.911 0 0 1.5 0.0772677 0.196861 
-5.76534 6.70881 -12.1098 0 0 1.5 0.109819 0.104313 
-5.61662 6.45544 -12.3022 0 0 1.5 0.145477 0.0652879 
-5.478 6.18047 -12.4702 0 0 1.5 0.185092 0.0452887 
-5.34206 5.89975 -12.6317 0 0 1.5 0.280592 0.0255852 
-5.22896 5.5898 -12.7518 0 0 1.5 0.339017 0.0195812 
-5.12794 5.27092 -12.8534 0 0 1.5 0.406134 0.0143832 
-5.05306 4.93339 -12.9152 0 0 1.5 0.48262 0.0093113 
-5.02155 4.58564 -12.9188 0 0 1.5 0.660755 -0.00264716 
-5.02963 4.24167 -12.8728 0 0 1.5 0.754852 -0.0105292 
-5.08532 3.91218 -12.7702 0 0 1.5 0.841367 -0.0198268 
-5.20244 3.62756 -12.601 0 0 1.5 0.943819 -0.0411584 
-5.36125 3.39766 -12.3922 0 0 1.5 0.940763 -0.052124 
-5.54463 3.21035 -12.1619 0 0 1.5 0.900348 -0.062012 
-5.74801 3.06473 -11.9153 0 0 1.5 0.831609 -0.0701239 
-5.9674 2.9746 -11.6569 0 0 1.5 0.657604 -0.0825165 
-6.19026 2.90719 -11.3951 0 0 1.5 0.571436 -0.0878646 
-6.41691 2.87382 -11.1289 0 0 1.5 0.492841 -0.0932369 
-6.6407 2.87278 -10.859 0 0 1.5 0.423539 -0.0994074 
-6.86208 2.88851 -10.5871 0 0 1.5 0.312239 -0.117187 
-7.07138 2.94225 -10.3102 0 0 1.5 0.268432 -0.130289 
-7.26895 3.01708 -10.0306 0 0 1.5 0.231103 -0.147703 
-7.45537 3.11196 -9.74845 0 0 1.5 0.172175 -0.202508 
-7.61116 3.24609 -9.46375 0 0 1.5 0.14925 -0.243895 
-7.74901 3.39841 -9.17997 0 0 1.5 0.130216 -0.297156 
-7.86859 3.56903 -8.89726 0 0 1.5 0.115028 -0.362019 
-7.95615 3.76559 -8.61967 0 0 1.5 0.0971926 -0.491178 
-8.03071 3.96984 -8.34423 0 0 1.5 0.0953363 -0.518724 
-8.09293 4.18138 -8.07086 0 0 1.5 0.0983911 -0.504877 
-8.13835 4.39607 -7.79663 0 0 1.5 0.106023 -0.45916 
-8.17888 4.60755 -7.51927 0 0 1.5 0.132722 -0.342327 
-8.21225 4.81352 -7.23674 0 0 1.5 0.150697 -0.29238 
-8.23914 5.00265 -6.94225 0 0 1.5 0.171199 -0.251981 
-8.26256 5.18019 -6.64055 0 0 1.5 0.218476 -0.195111 
-8.27902 5.32756 -6.32216 0 0 1.5 0.244423 -0.174949 
-8.28823 5.44149 -5.99123 0 0 1.5 0.271065 -0.158931 
-8.29079 5.52635 -5.6513 0 0 1.5 0.297525 -0.146353 
-8.27862 5.55289 -5.30129 0 0 1.5 0.345059 -0.12732 
-8.24981 5.52629 -4.9542 0 0 1.5 0.363219 -0.119971 
-8.20581 5.45665 -4.61472 0 0 1.5 0.375799 -0.114064 
-8.14071 5.33411 -4.29207 0 0 1.5 0.381806 -0.109211 
-8.05062 5.16248 -4.00058 0 0 1.5 0.372846 -0.102135 
-7.9467 4.96742 -3.72932 0 0 1.5 0.358887 -0.100159 
-7.82464 4.7445 -3.48689 0 0 1.5 0.340151 -0.0992765 
-7.68751 4.50287 -3.27323 0 0 1.5 0.31807 -0.0995633 
-7.54424 4.25369 -3.07152 0 0 1.5 0.269313 -0.103651 
-7.38814 3.99016 -2.89963 0 0 1.5 0.244879 -0.107516 
-7.23031 3.72404 -2.73377 0 0 1.5 0.221445 -0.112721 
-7.06797 3.45115 -2.58365 0 0 1.5 0.179193 -0.126639 
-6.90576 3.17508 -2.43949 0 0 1.5 0.160735 -0.135175 
-6.7437 2.89523 -2.30246 0 0 1.5 0.144113 -0.144622 
-6.58535 2.61145 -2.16932 0 0 1.5 0.129282 -0.154703 
-6.42935 2.32517 -2.03866 0 0 1.5 0.104515 -0.175232 
-6.28149 2.03394 -1.9096 0 0 1.5 0.0943096 -0.184448 
-6.13606 1.74124 -1.78102 0 0 1.5 0.0853605 -0.19232 
-6.0034 1.4424 -1.65278 0 0 1.5 0.0774859 -0.198721 
-5.87353 1.1423 -1.52469 0 0 1.5 0.0642393 -0.205361 
-5.75601 0.836807 -1.39733 0 0 1.5 0.0585172 -0.206242 
-5.64339 0.529176 -1.27089 0 0 1.5 0.0531763 -0.207609 
-5.53968 0.217662 -1.14613 0 0 1.5 0.0431439 -0.216818 
-5.44283 -0.0969525 -1.02386 0 0 1.5 0.0383198 -0.229876 
-5.35128 -0.413964 -0.903523 0 0 1.5 0.0336811 -0.254768 
-5.2674 -0.734606 -0.787399 0 0 1.5 0.0294628 -0.295621 
-5.18597 -1.05641 -0.672622 0 0 1.5 0.0246327 -0.391293 
-5.11202 -1.38169 -0.562718 0 0 1.5 0.0257678 -0.375726 
-5.03901 -1.70739 -0.453421 0 0 1.5 0.0298656 -0.308093 
-4.97162 -2.03549 -0.347762 0 0 1.5 0.0365043 -0.234695 
-4.90469 -2.36376 -0.242308 0 0 1.5 0.0552072 -0.137815 
-4.84047 -2.69295 -0.138039 0 0 1.5 0.0665446 -0.109684 
-4.77607 -3.02198 -0.0334077 0 0 1.5 0.0789348 -0.0893213 
-4.711 -3.35047 0.072522 0 0 1.5 0.0922425 -0.0739943 
-4.64393 -3.67809 0.17982 0 0 1.5 0.120981 -0.0522848 
-4.57202 -4.00359 0.290453 0 0 1.5 0.136023 -0.0440268 
-4.49386 -4.32641 0.404263 0 0 1.5 0.151173 -0.0368846 
-4.4064 -4.64525 0.522808 0 0 1.5 0.180405 -0.0248082 
-4.30274 -4.95633 0.647683 0 0 1.5 0.193619 -0.0192685 
-4.18789 -5.26205 0.776931 0 0 1.5 0.205241 -0.0139823 
-4.03598 -5.5457 0.916918 0 0 1.5 0.214806 -0.00895774 
-3.86264 -5.81297 1.06134 0 0 1.5 0.226138 0.00103365 
-3.65367 -6.05147 1.21237 0 0 1.5 0.227333 0.00605161 
-3.40042 -6.23837 1.36562 0 0 1.5 0.225492 0.0109355 
-3.12425 -6.38933 1.51701 0 0 1.5 0.220792 0.0158297 
-2.82625 -6.50156 1.66519 0 0 1.5 0.20409 0.0260948 
-2.51084 -6.56389 1.80571 0 0 1.5 0.19297 0.0314378 
-2.19167 -6.61022 1.94373 0 0 1.5 0.180667 0.0370814 
-1.86792 -6.6329 2.07802 0 0 1.5 0.154289 0.0499417 
-1.54361 -6.64414 2.21212 0 0 1.5 0.140989 0.0572937 
-1.21898 -6.64875 2.34611 0 0 1.5 0.128046 0.0653957 
-0.896199 -6.64894 2.48455 0 0 1.5 0.115701 0.0743017 
-0.573811 -6.64839 2.62392 0 0 1.5 0.0934815 0.0949314 
-0.255754 -6.651 2.7729 0 0 1.5 0.0838393 0.10621 
0.0613231 -6.65478 2.92381 0 0 1.5 0.0753045 0.116927 
0.373196 -6.66476 3.08505 0 0 1.5 0.0679588 0.126028 
0.682881 -6.67696 3.25013 0 0 1.5 0.056996 0.132827 
0.987572 -6.69423 3.42398 0 0 1.5 0.0534361 0.125346 
1.2892 -6.71331 3.60279 0 0 1.5 0.0511504 0.109559 
1.58724 -6.7345 3.78741 0 0 1.5 0.0499898 0.0622181 
1.88241 -6.75472 3.97663 0 0 1.5 0.0508305 0.0359015 
2.17587 -6.77436 4.16861 0 0 1.5 0.0524092 0.0120577 
2.46817 -6.78787 4.36286 0 0 1.5 0.0545532 -0.00713067 
2.76018 -6.79987 4.55766 0 0 1.5 0.0599425 -0.0315478 
3.05362 -6.79858 4.75065 0 0 1.5 0.0629411 -0.0378639 
3.34768 -6.79387 4.94252 0 0 1.5 0.0659884 -0.0411493 
3.64447 -6.77423 5.12931 0 0 1.5 0.0689718 -0.041994 
3.94254 -6.74657 5.31267 0 0 1.5 0.0742975 -0.0385499 
4.24276 -6.70544 5.49025 0 0 1.5 0.0764116 -0.0357314 
4.54398 -6.65086 5.66196 0 0 1.5 0.0780061 -0.0324859 
4.84595 -6.58609 5.82923 0 0 1.5 0.0789669 -0.0288439 
5.14706 -6.50292 5.9894 0 0 1.5 0.0786019 -0.0225167 
5.44789 -6.41397 6.14734 0 0 1.5 0.0771491 -0.0202984 
5.74419 -6.30277 6.29957 0 0 1.5 0.0747899 -0.0186927 
6.03915 -6.18752 6.45129 0 0 1.5 0.0673337 -0.0185455 
6.32691 -6.0537 6.60177 0 0 1.5 0.062327 -0.0207404 
6.61112 -5.91419 6.7535 0 0 1.5 0.0565548 -0.0252546 
6.88768 -5.76246 6.90795 0 0 1.5 0.0501081 -0.0328621 
7.15783 -5.60419 7.06678 0 0 1.5 0.0358227 -0.0666084 
7.42165 -5.43947 7.22996 0 0 1.5 0.0284605 -0.107124 
7.67685 -5.26999 7.40152 0 0 1.5 0.0216078 -0.186394 
7.92827 -5.09843 7.57679 0 0 1.5 0.0165966 -0.314246 
8.171 -4.92689 7.76384 0 0 1.5 0.0200513 -0.225777 
8.41225 -4.75598 7.9534 0 0 1.5 0.0270943 -0.135975 
8.64922 -4.5914 8.15369 0 0 1.5 0.0353137 -0.0946118 
8.88678 -4.43074 8.35634 0 0 1.5 0.052897 -0.0700983 
9.12573 -4.27958 8.56469 0 0 1.5 0.0618206 -0.0690162 
9.36909 -4.13782 8.77429 0 0 1.5 0.0707187 -0.0711563 
9.61692 -4.00564 8.98516 0 0 1.5 0.0795588 -0.0755356 
9.87469 -3.88993 9.1934 0 0 1.5 0.097035 -0.0889811 
10.1368 -3.78142 9.40049 0 0 1.5 0.105709 -0.0969442 
10.4136 -3.69687 9.59915 0 0 1.5 0.114396 -0.105785 
10.6933 -3.61711 9.79595 0 0 1.5 0.123151 -0.115665 
10.9874 -3.56462 9.98053 0 0 1.5 0.141203 -0.135297 
11.284 -3.51843 10.1624 0 0 1.5 0.150716 -0.144586 
11.5896 -3.49615 10.334 0 0 1.5 0.160698 -0.153802 
11.8972 -3.48444 10.5025 0 0 1.5 0.182497 -0.169206 
12.2086 -3.49359 10.6646 0 0 1.5 0.194486 -0.174963 
12.5196 -3.51818 10.8252 0 0 1.5 0.207246 -0.179728 
12.8299 -3.56098 10.984 0 0 1.5 0.220743 -0.183137 
13.1343 -3.62654 11.1454 0 0 1.5 0.249445 -0.185045 
13.4348 -3.70676 11.3085 0 0 1.5 0.264123 -0.18403 
13.7173 -3.8218 11.4817 0 0 1.5 0.278466 -0.181773 
13.9908 -3.95028 11.6594 0 0 1.5 0.291951 -0.178147 
14.23 -4.11936 11.8532 0 0 1.5 0.313764 -0.167155 
14.437 -4.31247 12.0574 0 0 1.5 0.320695 -0.160111 
14.6148 -4.52715 12.2709 0 0 1.5 0.324209 -0.152167 
14.7154 -4.77585 12.4976 0 0 1.5 0.32393 -0.143305 
14.7751 -5.03278 12.7258 0 0 1.5 0.311482 -0.123359 
14.7947 -5.29776 12.9555 0 0 1.5 0.299723 -0.1129 
14.7484 -5.56283 13.1808 0 0 1.5 0.284935 -0.102092 
14.6828 -5.82489 13.4039 0 0 1.5 0.248755 -0.0792096 
14.5821 -6.08047 13.6228 0 0 1.5 0.228658 -0.0673044 
14.4612 -6.32816 13.8397 0 0 1.5 0.208015 -0.0544986 
14.3254 -6.57005 14.0551 0 0 1.5 0.187269 -0.0399371 
14.1724 -6.80032 14.2714 0 0 1.5 0.146714 -0.0030712 
14.0138 -7.0268 14.488 0 0 1.5 0.127352 0.0229772 
13.8432 -7.23914 14.7097 0 0 1.5 0.108776 0.0598043 
13.671 -7.4496 14.9319 0 0 1.5 0.0910738 0.114918 
13.4921 -7.64446 15.163 0 0 1.5 0.0588456 0.357871 
13.313 -7.83761 15.3952 0 0 1.5 0.0450846 0.646776 
13.1327 -8.01892 15.636 0 0 1.5 0.0344039 1.14501 
12.9534 -8.19794 15.8792 0 0 1.5 0.0324066 1.28612 
12.7765 -8.37109 16.1284 0 0 1.5 0.0411361 0.77493 
12.6034 -8.54484 16.3798 0 0 1.5 0.052525 0.453209 
12.4344 -8.71923 16.6335 0 0 1.5 0.0648747 0.27824 
12.2757 -8.90484 16.8858 0 0 1.5 0.0896094 0.118725 
12.1225 -9.09716 17.1363 0 0 1.5 0.101181 0.0799284 
11.989 -9.31734 17.3752 0 0 1.5 0.11184 0.0539178 
11.873 -9.56041 17.5983 0 0 1.5 0.121329 0.0356562 
11.7736 -9.82527 17.8065 0 0 1.5 0.135746 0.0123937 
11.7185 -10.1337 17.9641 0 0 1.5 0.140263 0.00472303 
11.6821 -10.4541 18.0971 0 0 1.5 0.142824 -0.00126764 
11.6793 -10.7941 18.185 0 0 1.5 0.143371 -0.00595779 
11.6765 -11.1341 18.273 0 0 1.5 0.138612 -0.0130548 
11.6737 -11.4741 18.361 0 0 1.5 0.133645 -0.0158748 
11.6709 -11.8142 18.4489 0 0 1.5 0.127258 -0.0182673 
11.6682 -12.1542 18.5369 0 0 1.5 0.1113 -0.0228794 
11.6654 -12.4942 18.6249 0 0 1.5 0.102292 -0.0254191 
11.6626 -12.8342 18.7128 0 0 1.5 0.092947 -0.0281342 
11.6598 -13.1742 18.8008 0 0 1.5 0.0834886 -0.0313263 
11.657 -13.5143 18.8888 0 0 1.5 0.064908 -0.04081 
11.6543 -13.8543 18.9767 0 0 1.5 0.0560574 -0.0478144 
11.6515 -14.1943 19.0647 0 0 1.5 0.0476416 -0.0575098 
11.6487 -14.5343 19.1527 0 0 1.5 0.0397165 -0.071868 
11.6459 -14.8744 19.2406 0 0 1.5 0.0255103 -0.130339 
11.6431 -15.2144 19.3286 0 0 1.5 0.0193143 -0.195982 
11.6403 -15.5544 19.4166 0 0 1.5 0.0137675 -0.333229 
11.6376 -15.8944 19.5045 0 0 1.5 0.00522322 -1.72682 
11.6348 -16.2344 19.5925 0 0 1.5 0.00387625 -2.70619 
11.632 -16.5745 19.6804 0 0 1.5 0.00547339 -1.17582 
11.6292 -16.9145 19.7684 0 0 1.5 0.00782019 -0.500141 
11.6264 -17.2545 19.8564 0 0 1.5 0.0118131 -0.165493 
11.6237 -17.5945 19.9443 0 0 1.5 0.0132376 -0.114923 
11.6209 -17.9346 20.0323 0 0 1.5 0.0142767 -0.0862764 
11.6181 -18.2746 20.1203 0 0 1.5 0.0149495 -0.068642 
11.6153 -18.6146 20.2082 0 0 1.5 0.0153048 -0.0500721 
11.6125 -18.9546 20.2962 0 0 1.5 0.0150556 -0.0453993 
11.6098 -19.2946 20.3842 0 0 1.5 0.0145707 -0.0424842 
11.607 -19.6347 20.4721 0 0 1.5 0.0130387 -0.0409232 
11.6042 -19.9747 20.5601 0 0 1.5 0.0120591 -0.0421488 
11.6014 -20.3147 20.6481 0 0 1.5 0.0109829 -0.0447001 
11.5986 -20.6547 20.736 0 0 1.5 0.00984331 -0.0489484 
11.5959 -20.9947 20.824 0 0 1.5 0.0074769 -0.0660666 
11.5931 -21.3348 20.912 0 0 1.5 0.00629986 -0.0819601 
11.5903 -21.6748 20.9999 0 0 1.5 0.00515891 -0.107561 
11.5875 -22.0148 21.0879 0 0 1.5 0.00407028 -0.152457 
11.5847 -22.3548 21.1759 0 0 1.5 0.00212007 -0.436682 
11.5819 -22.6949 21.2638 0 0 1.5 0.0013198 -0.991132 
11.5792 -23.0349 21.3518 0 0 1.5 0.000777059 -2.52164 
11.5764 -23.3749 21.4398 0 0 1.5 0.000812711 -2.03447 
11.5736 -23.7149 21.5277 0 0 1.5 0.00169162 -0.364133 
11.5708 -24.0549 21.6157 0 0 1.5 0.00209479 -0.210095 
11.568 -24.395 21.7037 0 0 1.5 0.00242863 -0.138719 
11.5653 -24.735 21.7916 0 0 1.5 0.00288432 -0.077711 
11.5625 -25.075 21.8796 0 0 1.5 0.00301365 -0.063651 
11.5597 -25.415 21.9676 0 0 1.5 0.0030851 -0.0544732 
11.5569 -25.7551 22.0555 0 0 1.5 0.00310511 -0.0482411 
11.5541 -26.0951 22.1435 0 0 1.5 0.00301791 -0.0414829 
11.5514 -26.4351 22.2314 0 0 1.5 0.00292487 -0.04 
11.5486 -26.7751 22.3194 0 0 1.5 0.00280843 -0.0392501 
11.5458 -27.1151 22.4074 0 0 1.5 0.00267538 -0.0391063 
11.543 -27.4552 22.4953 0 0 1.5 0.00238033 -0.0404377 
11.5402 -27.7952 22.5833 0 0 1.5 0.00222821 -0.0414905 
11.5375 -28.1352 22.6713 0 0 1.5 0.00207915 -0.0426162 
11.5347 -28.4752 22.7592 0 0 1.5 0.00180047 -0.0448424 
11.5319 -28.8152 22.8472 0 0 1.5 0.00167532 -0.0453766 
11.5291 -29.1553 22.9352 0 0 1.5 0.00156219 -0.0452562 
11.5263 -29.4953 23.0231 0 0 1.5 0.00146133 -0.0445155 
11.5235 -29.8353 23.1111 0 0 1.5 0.00129589 -0.040648 
11.5208 -30.1753 23.1991 0 0 1.5 0.00123082 -0.037528 
11.518 -30.5154 23.287 0 0 1.5 0.00117623 -0.0339988 
11.5152 -30.8554 23.375 0 0 1.5 0.00113072 -0.0303366 
11.5124 -31.1954 23.463 0 0 1.5 0.00106149 -0.0237661 
11.5096 -31.5354 23.5509 0 0 1.5 0.001035 -0.0213071 
11.5069 -31.8754 23.6389 0 0 1.5 0.00101203 -0.0197248 
0 1 0 
1 2 0 
2 3 0 
3 4 0 
4 5 0 
5 6 0 
6 7 0 
7 8 0 
8 9 0 
9 10 0 
10 11 0 
11 12 0 
12 13 0 
13 14 0 
14 15 0 
15 16 0 
16 17 0 
17 18 0 
18 19 0 
19 20 0 
20 21 0 
21 22 0 
22 23 0 
23 24 0 
24 25 0 
25 26 0 
26 27 0 
27 28 0 
28 29 0 
29 30 0 
30 31 0 
31 32 0 
32 33 0 
33 34 0 
34 35 0 
35 36 0 
36 37 0 
37 38 0 
38 39 0 
39 40 0 
40 41 0 
41 42 0 
42 43 0 
43 44 0 
44 45 0 
45 46 0 
46 47 0 
47 48 0 
48 49 0 
49 50 0 
50 51 0 
51 52 0 
52 53 0 
53 54 0 
54 55 0 
55 56 0 
56 57 0 
57 58 0 
58 59 0 
59 60 0 
60 61 0 
61 62 0 
62 63 0 
63 64 0 
64 65 0 
65 66 0 
66 67 0 
67 68 0 
68 69 0 
69 70 0 
70 71 0 
71 72 0 
72 73 0 
73 74 0 
74 75 0 
75 76 0 
76 77 0 
77 78 0 
78 79 0 
79 80 0 
80 81 0 
81 82 0 
82 83 0 
83 84 0 
84 85 0 
85 86 0 
86 87 0 
87 88 0 
88 89 0 
89 90 0 
90 91 0 
91 92 0 
92 93 0 
93 94 0 
94 95 0 
95 96 0 
96 97 0 
97 98 0 
98 99 0 
99 100 0 
100 101 0 
101 102 0 
102 103 0 
103 104 0 
104 105 0 
105 106 0 
106 107 0 
107 108 0 
108 109 0 
109 110 0 
110 111 0 
111 112 0 
112 113 0 
113 114 0 
114 115 0 
115 116 0 
116 117 0 
117 118 0 
118 119 0 
119 120 0 
120 121 0 
121 122 0 
122 123 0 
123 124 0 
124 125 0 
125 126 0 
126 127 0 
127 128 0 
128 129 0 
129 130 0 
130 131 0 
131 132 0 
132 133 0 
133 134 0 
134 135 0 
135 136 0 
136 137 0 
137 138 0 
138 139 0 
139 140 0 
140 141 0 
141 142 0 
142 143 0 
143 144 0 
144 145 0 
145 146 0 
146 147 0 
147 148 0 
148 149 0 
149 150 0 
150 151 0 
151 152 0 
152 153 0 
153 154 0 
154 155 0 
155 156 0 
156 157 0 
157 158 0 
158 159 0 
159 160 0 
160 161 0 
161 162 0 
162 163 0 
163 164 0 
164 165 0 
165 166 0 
166 167 0 
167 168 0 
168 169 0 
169 170 0 
170 171 0 
171 172 0 
172 173 0 
173 174 0 
174 175 0 
175 176 0 
176 177 0 
177 178 0 
178 179 0 
179 180 0 
180 181 0 
181 182 0 
182 183 0 
183 184 0 
184 185 0 
185 186 0 
186 187 0 
187 188 0 
188 189 0 
189 190 0 
190 191 0 
191 192 0 
192 193 0 
193 194 0 
194 195 0 
195 196 0 
196 197 0 
197 198 0 
198 199 0 
199 200 0 
200 201 0 
201 202 0 
202 203 0 
203 204 0 
204 205 0 
205 206 0 
206 207 0 
207 208 0 
208 209 0 
209 210 0 
210 211 0 
211 212 0 
212 213 0 
213 214 0 
214 215 0 
215 216 0 
216 217 0 
217 218 0 
218 219 0 
219 220 0 
220 221 0 
221 222 0 
222 223 0 
223 224 0 
224 225 0 
225 226 0 
226 227 0 
227 228 0 
228 229 0 
229 230 0 
230 231 0 
231 232 0 
232 233 0 
233 234 0 
234 235 0 
235 236 0 
236 237 0 
237 238 0 
238 239 0 
239 240 0 
240 241 0 
241 242 0 
242 243 0 
243 244 0 
244 245 0 
245 246 0 
246 247 0 
247 248 0 
248 249 0 
249 250 0 
250 251 0 
251 252 0 
252 253 0 
253 254 0 
254 255 0 
255 256 0 
256 257 0 
257 258 0 
258 259 0 
259 260 0 
260 261 0 
261 262 0 
262 263 0 
263 264 0 
264 265 0 
265 266 0 
266 267 0 
267 268 0 
268 269 0 
269 270 0 
270 271 0 
271 272 0 
272 273 0 
273 274 0 
274 275 0 
275 276 0 
276 277 0 
277 278 0 
278 279 0 
279 280 0 
280 281 0 
281 282 0 
282 283 0 
283 284 0 
284 285 0 
285 286 0 
286 287 0 
287 288 0 
288 289 0 
289 290 0 
290 291 0 
291 292 0 
292 293 0 
293 294 0 
294 295 0 
295 296 0 
296 297 0 
297 298 0 
298 299 0 
-1 -1 0 
-1 300 0 1 2 3 4 5 6 7 8 9 10 11 12 13 14 15 16 17 18 19 20 21 22 23 24 25 26 27 28 29 30 31 32 33 34 35 36 37 38 39 40 41 42 43 44 45 46 47 48 49 50 51 52 53 54 55 56 57 58 59 60 61 62 63 64 65 66 67 68 69 70 71 72 73 74 75 76 77 78 79 80 81 82 83 84 85 86 87 88 89 90 91 92 93 94 95 96 97 98 99 100 101 102 103 104 105 106 107 108 109 110 111 112 113 114 115 116 117 118 119 120 121 122 123 124 125 126 127 128 129 130 131 132 133 134 135 136 137 138 139 140 141 142 143 144 145 146 147 148 149 150 151 152 153 154 155 156 157 158 159 160 161 162 163 164 165 166 167 168 169 170 171 172 173 174 175 176 177 178 179 180 181 182 183 184 185 186 187 188 189 190 191 192 193 194 195 196 197 198 199 200 201 202 203 204 205 206 207 208 209 210 211 212 213 214 215 216 217 218 219 220 221 222 223 224 225 226 227 228 229 230 231 232 233 234 235 236 237 238 239 240 241 242 243 244 245 246 247 248 249 250 251 252 253 254 255 256 257 258 259 260 261 262 263 264 265 266 267 268 269 270 271 272 273 274 275 276 277 278 279 280 281 282 283 284 285 286 287 288 289 290 291 292 293 294 295 296 297 298 299 
