ply
format ascii 1.0
comment written by koba@oshima.lab
element vertex 300
property float x
property float y
property float z
property int label
property int attribute
property float radius
property float curvature
property float torsion
element edge 300
property int vertex1
property int vertex2
property int label
element vertex_seq 1
property int label
property list int int vertex_indices
end_header
5.40835 22.0188 -13.2637 0 0 1.5 0.0126614 -0.0408098 
5.21117 21.8257 -13.0606 0 0 1.5 0.0126947 -0.0415856 
5.01399 21.6326 -12.8574 0 0 1.5 0.0127315 -0.0433664 
4.81681 21.4394 -12.6543 0 0 1.5 0.0127733 -0.0461099 
4.61964 21.2463 -12.4512 0 0 1.5 0.0128793 -0.0542765 
4.42246 21.0532 -12.248 0 0 1.5 0.0129467 -0.0595989 
4.22528 20.8601 -12.0449 0 0 1.5 0.0130258 -0.0656554 
4.0281 20.667 -11.8418 0 0 1.5 0.0131186 -0.0723508 
3.83092 20.4739 -11.6386 0 0 1.5 0.0133511 -0.0867564 
3.63375 20.2808 -11.4355 0 0 1.5 0.0134903 -0.0942456 
3.43657 20.0876 -11.2323 0 0 1.5 0.0136451 -0.101866 
3.23939 19.8945 -11.0292 0 0 1.5 0.0138156 -0.109321 
3.04221 19.7014 -10.8261 0 0 1.5 0.0141884 -0.123473 
2.84504 19.5083 -10.6229 0 0 1.5 0.014383 -0.130501 
2.64786 19.3152 -10.4198 0 0 1.5 0.0145781 -0.137443 
2.45068 19.1221 -10.2167 0 0 1.5 0.0149372 -0.151778 
2.2535 18.929 -10.0135 0 0 1.5 0.0150861 -0.160047 
2.05632 18.7358 -9.81041 0 0 1.5 0.015206 -0.169339 
1.85915 18.5427 -9.60727 0 0 1.5 0.0152884 -0.180008 
1.66197 18.3496 -9.40414 0 0 1.5 0.0153167 -0.208386 
1.46479 18.1565 -9.201 0 0 1.5 0.0152623 -0.22709 
1.26761 17.9634 -8.99787 0 0 1.5 0.0151712 -0.249132 
1.07043 17.7703 -8.79473 0 0 1.5 0.0150596 -0.274934 
0.873256 17.5771 -8.5916 0 0 1.5 0.014898 -0.336027 
0.676078 17.384 -8.38847 0 0 1.5 0.0149428 -0.367162 
0.4789 17.1909 -8.18533 0 0 1.5 0.0151579 -0.393804 
0.281722 16.9978 -7.9822 0 0 1.5 0.0164245 -0.413068 
0.0845443 16.8047 -7.77906 0 0 1.5 0.0176338 -0.398392 
-0.112634 16.6116 -7.57593 0 0 1.5 0.0193036 -0.370201 
-0.309811 16.4185 -7.37279 0 0 1.5 0.0214641 -0.334239 
-0.506989 16.2253 -7.16966 0 0 1.5 0.0272951 -0.257502 
-0.704167 16.0322 -6.96652 0 0 1.5 0.0309574 -0.223392 
-0.901345 15.8391 -6.76339 0 0 1.5 0.0351113 -0.194078 
-1.09852 15.646 -6.56026 0 0 1.5 0.0397566 -0.168993 
-1.2957 15.4529 -6.35712 0 0 1.5 0.0505179 -0.129476 
-1.49288 15.2598 -6.15399 0 0 1.5 0.0566415 -0.114446 
-1.69006 15.0667 -5.95085 0 0 1.5 0.0632732 -0.101575 
-1.8853 14.8678 -5.75196 0 0 1.5 0.0704182 -0.090262 
-2.0728 14.646 -5.57005 0 0 1.5 0.0862647 -0.0717758 
-2.25754 14.417 -5.39499 0 0 1.5 0.0949713 -0.063973 
-2.43717 14.1745 -5.23263 0 0 1.5 0.104189 -0.0566245 
-2.61417 13.925 -5.07855 0 0 1.5 0.124052 -0.0431086 
-2.78806 13.6674 -4.93426 0 0 1.5 0.134608 -0.036684 
-2.96002 13.4036 -4.79948 0 0 1.5 0.145486 -0.0302397 
-3.13045 13.1349 -4.67229 0 0 1.5 0.156582 -0.0236955 
-3.30013 12.8607 -4.55653 0 0 1.5 0.178856 -0.0099343 
-3.46946 12.584 -4.44612 0 0 1.5 0.189662 -0.0025188 
-3.64 12.3025 -4.35072 0 0 1.5 0.199947 0.00540884 
-3.81143 12.0198 -4.26078 0 0 1.5 0.209448 0.0139762 
-3.98614 11.7347 -4.18609 0 0 1.5 0.225029 0.0326624 
-4.16513 11.449 -4.12531 0 0 1.5 0.230633 0.0428346 
-4.34916 11.1638 -4.08059 0 0 1.5 0.234513 0.0537465 
-4.54134 10.881 -4.06257 0 0 1.5 0.236701 0.0767591 
-4.7444 10.6083 -4.09666 0 0 1.5 0.23505 0.0886798 
-4.94808 10.3695 -4.2253 0 0 1.5 0.231719 0.101009 
-5.12341 10.193 -4.45597 0 0 1.5 0.226905 0.113424 
-5.26242 10.0654 -4.74076 0 0 1.5 0.213946 0.137298 
-5.38062 9.955 -5.0427 0 0 1.5 0.206406 0.148657 
-5.48964 9.84535 -5.34848 0 0 1.5 0.198554 0.159145 
-5.59401 9.7281 -5.6531 0 0 1.5 0.190665 0.168206 
-5.69781 9.59385 -5.95066 0 0 1.5 0.175694 0.180891 
-5.80154 9.45089 -6.24411 0 0 1.5 0.168952 0.183954 
-5.90591 9.28315 -6.52412 0 0 1.5 0.162842 0.18461 
-6.00981 9.10311 -6.79595 0 0 1.5 0.152645 0.178319 
-6.11295 8.90393 -7.05503 0 0 1.5 0.148538 0.171817 
-6.21222 8.68645 -7.2998 0 0 1.5 0.14501 0.163875 
-6.3089 8.45677 -7.53504 0 0 1.5 0.141974 0.154829 
-6.39374 8.20579 -7.7519 0 0 1.5 0.137002 0.135192 
-6.47418 7.94859 -7.96342 0 0 1.5 0.13487 0.126079 
-6.53084 7.67337 -8.15958 0 0 1.5 0.132856 0.117885 
-6.57234 7.39464 -8.35361 0 0 1.5 0.130886 0.110763 
-6.59083 7.11056 -8.54437 0 0 1.5 0.126901 0.101076 
-6.56789 6.83191 -8.74158 0 0 1.5 0.124861 0.0988248 
-6.51771 6.5633 -8.94623 0 0 1.5 0.12281 0.0983487 
-6.43173 6.31186 -9.16261 0 0 1.5 0.120793 0.0995321 
-6.30561 6.09669 -9.39675 0 0 1.5 0.117236 0.106327 
-6.16383 5.90207 -9.63926 0 0 1.5 0.115949 0.11181 
-6.00526 5.73275 -9.8915 0 0 1.5 0.115207 0.118053 
-5.83756 5.5864 -10.1517 0 0 1.5 0.116233 0.130048 
-5.66712 5.44703 -10.4143 0 0 1.5 0.118502 0.134851 
-5.49322 5.32273 -10.6821 0 0 1.5 0.122317 0.137836 
-5.31916 5.19868 -10.95 0 0 1.5 0.127972 0.13837 
-5.14384 5.0767 -11.218 0 0 1.5 0.146026 0.132737 
-4.96813 4.95391 -11.4853 0 0 1.5 0.159091 0.127447 
-4.78916 4.82447 -11.7474 0 0 1.5 0.17535 0.121268 
-4.60967 4.69411 -12.0085 0 0 1.5 0.195257 0.114831 
-4.42223 4.55003 -12.2566 0 0 1.5 0.248372 0.10308 
-4.23421 4.40515 -12.5037 0 0 1.5 0.283093 0.098462 
-4.03227 4.24138 -12.7269 0 0 1.5 0.324512 0.0948829 
-3.82816 4.07512 -12.9457 0 0 1.5 0.431964 0.0910928 
-3.60622 3.8884 -13.1282 0 0 1.5 0.500245 0.0910957 
-3.37714 3.6944 -13.2902 0 0 1.5 0.579156 0.0922982 
-3.13316 3.48515 -13.409 0 0 1.5 0.668099 0.0945526 
-2.87891 3.26556 -13.4612 0 0 1.5 0.861971 0.101595 
-2.6232 3.04359 -13.455 0 0 1.5 0.951064 0.105463 
-2.37451 2.8262 -13.3637 0 0 1.5 1.01852 0.108596 
-2.16671 2.64072 -13.1666 0 0 1.5 1.05145 0.110313 
-2.00246 2.48886 -12.9135 0 0 1.5 0.993204 0.108382 
-1.87946 2.36843 -12.6198 0 0 1.5 0.913414 0.105471 
-1.81519 2.29159 -12.2921 0 0 1.5 0.816571 0.10223 
-1.79599 2.24637 -11.9552 0 0 1.5 0.617758 0.097533 
-1.80072 2.21782 -11.614 0 0 1.5 0.529198 0.0972825 
-1.85998 2.22442 -11.2765 0 0 1.5 0.451218 0.0988748 
-1.93292 2.2388 -10.9429 0 0 1.5 0.383874 0.102534 
-2.03734 2.27107 -10.6181 0 0 1.5 0.277325 0.118137 
-2.15837 2.31066 -10.3005 0 0 1.5 0.23566 0.131502 
-2.29618 2.35764 -9.99032 0 0 1.5 0.200206 0.149893 
-2.44848 2.40721 -9.6876 0 0 1.5 0.170035 0.174963 
-2.60828 2.45811 -9.38875 0 0 1.5 0.122887 0.253796 
-2.77735 2.50334 -9.09417 0 0 1.5 0.10515 0.310897 
-2.94835 2.54662 -8.80039 0 0 1.5 0.0911917 0.377573 
-3.12006 2.5732 -8.50501 0 0 1.5 0.0811884 0.442608 
-3.28879 2.59097 -8.20759 0 0 1.5 0.0737701 0.485057 
-3.45121 2.59017 -7.90584 0 0 1.5 0.076009 0.443693 
-3.60211 2.56705 -7.59959 0 0 1.5 0.0813587 0.380455 
-3.74651 2.53148 -7.2909 0 0 1.5 0.0981884 0.260965 
-3.86966 2.46139 -6.97889 0 0 1.5 0.108415 0.217306 
-3.98509 2.37926 -6.66738 0 0 1.5 0.119257 0.183785 
-4.0879 2.27748 -6.35673 0 0 1.5 0.130383 0.158675 
-4.18002 2.15681 -6.04982 0 0 1.5 0.152407 0.126817 
-4.26774 2.02833 -5.74448 0 0 1.5 0.162771 0.117257 
-4.34698 1.87677 -5.44752 0 0 1.5 0.172322 0.110915 
-4.42542 1.71893 -5.15387 0 0 1.5 0.18079 0.107343 
-4.50175 1.54443 -4.86898 0 0 1.5 0.193418 0.107109 
-4.5782 1.35615 -4.59347 0 0 1.5 0.197111 0.110113 
-4.65475 1.15618 -4.32591 0 0 1.5 0.198863 0.115075 
-4.73128 0.932199 -4.07852 0 0 1.5 0.196443 0.131195 
-4.80731 0.699147 -3.83952 0 0 1.5 0.192416 0.142597 
-4.87987 0.438893 -3.62872 0 0 1.5 0.186751 0.156365 
-4.94783 0.166124 -3.43419 0 0 1.5 0.179708 0.172861 
-5.00985 -0.122816 -3.26068 0 0 1.5 0.162708 0.215608 
-5.059 -0.427906 -3.11401 0 0 1.5 0.153423 0.242085 
-5.10338 -0.738995 -2.97729 0 0 1.5 0.144082 0.272081 
-5.12492 -1.06373 -2.87012 0 0 1.5 0.135018 0.305331 
-5.14132 -1.38985 -2.76694 0 0 1.5 0.118985 0.37583 
-5.13526 -1.72127 -2.67998 0 0 1.5 0.112591 0.407475 
-5.12002 -2.05267 -2.59523 0 0 1.5 0.107585 0.431377 
-5.08479 -2.38405 -2.51532 0 0 1.5 0.104106 0.443561 
-5.03653 -2.71276 -2.43278 0 0 1.5 0.10178 0.424673 
-4.97133 -3.03802 -2.3468 0 0 1.5 0.102693 0.39551 
-4.88959 -3.35591 -2.25006 0 0 1.5 0.10468 0.358527 
-4.79513 -3.66814 -2.14504 0 0 1.5 0.110734 0.277632 
-4.68128 -3.96442 -2.01744 0 0 1.5 0.114228 0.238489 
-4.56049 -4.255 -1.88177 0 0 1.5 0.117682 0.202473 
-4.42023 -4.5154 -1.70896 0 0 1.5 0.120893 0.170274 
-4.27652 -4.7651 -1.52503 0 0 1.5 0.125945 0.115056 
-4.12435 -4.98526 -1.311 0 0 1.5 0.127545 0.0914971 
-3.97112 -5.18265 -1.078 0 0 1.5 0.12845 0.0707073 
-3.81704 -5.36176 -0.829771 0 0 1.5 0.12865 0.0519771 
-3.66647 -5.51004 -0.560404 0 0 1.5 0.127015 0.0189054 
-3.51722 -5.64962 -0.285509 0 0 1.5 0.125285 0.00458338 
-3.37211 -5.76844 0.00129924 0 0 1.5 0.123054 -0.00853263 
-3.2275 -5.88218 0.290344 0 0 1.5 0.117468 -0.031489 
-3.08356 -5.98919 0.582349 0 0 1.5 0.11432 -0.040705 
-2.93598 -6.09617 0.872527 0 0 1.5 0.111078 -0.0481602 
-2.78676 -6.20312 1.16189 0 0 1.5 0.107841 -0.0536335 
-2.62587 -6.31751 1.44198 0 0 1.5 0.10172 -0.0582326 
-2.46064 -6.43446 1.71829 0 0 1.5 0.0989534 -0.05695 
-2.28141 -6.55962 1.9822 0 0 1.5 0.0964428 -0.0528687 
-2.09273 -6.68822 2.23733 0 0 1.5 0.094216 -0.0463539 
-1.89315 -6.82078 2.48235 0 0 1.5 0.0906089 -0.0274971 
-1.67935 -6.95363 2.71455 0 0 1.5 0.0892047 -0.0150791 
-1.45948 -7.08661 2.94129 0 0 1.5 0.0880406 -0.00152315 
-1.22286 -7.21208 3.15497 0 0 1.5 0.0862877 0.0261278 
-0.983135 -7.33515 3.36655 0 0 1.5 0.0856231 0.0400993 
-0.729861 -7.44319 3.57055 0 0 1.5 0.08505 0.0534213 
-0.473669 -7.54461 3.77396 0 0 1.5 0.0845283 0.065374 
-0.209695 -7.62841 3.97578 0 0 1.5 0.083478 0.0853394 
0.0566061 -7.69903 4.17901 0 0 1.5 0.0828703 0.0932041 
0.325875 -7.75284 4.38403 0 0 1.5 0.0821609 0.0993462 
0.594781 -7.78662 4.59311 0 0 1.5 0.0813166 0.103836 
0.863451 -7.80737 4.80482 0 0 1.5 0.0790824 0.10816 
1.12759 -7.80293 5.02263 0 0 1.5 0.0776294 0.108091 
1.39037 -7.79095 5.24226 0 0 1.5 0.0759152 0.106534 
1.64464 -7.75177 5.46849 0 0 1.5 0.0739103 0.103448 
1.89763 -7.70897 5.69556 0 0 1.5 0.0689401 0.0934144 
2.14115 -7.64346 5.9276 0 0 1.5 0.0659587 0.0862574 
2.38325 -7.575 6.16015 0 0 1.5 0.0626395 0.0771162 
2.61814 -7.49145 6.39528 0 0 1.5 0.0549983 0.0526117 
2.85147 -7.40479 6.63075 0 0 1.5 0.0507097 0.0357742 
3.08025 -7.30902 6.86723 0 0 1.5 0.0461371 0.0134258 
3.30782 -7.21082 7.10385 0 0 1.5 0.0413074 -0.0167533 
3.53301 -7.10789 7.34077 0 0 1.5 0.0310578 -0.12324 
3.75736 -7.00391 7.57802 0 0 1.5 0.0257685 -0.229964 
3.98063 -6.89857 7.8157 0 0 1.5 0.0205205 -0.423378 
4.203 -6.79445 8.05475 0 0 1.5 0.0155677 -0.806302 
4.42471 -6.69124 8.29481 0 0 1.5 0.00976569 -2.18548 
4.64454 -6.59291 8.53859 0 0 1.5 0.0114722 -1.56658 
4.86367 -6.4964 8.78374 0 0 1.5 0.0155095 -0.830894 
5.07883 -6.41001 9.03609 0 0 1.5 0.0257315 -0.27354 
5.2919 -6.32878 9.29176 0 0 1.5 0.0310191 -0.179046 
5.50156 -6.25593 9.55286 0 0 1.5 0.0361958 -0.127421 
5.70744 -6.1952 9.81991 0 0 1.5 0.0411713 -0.0984477 
5.91237 -6.14156 10.0892 0 0 1.5 0.050247 -0.0751504 
6.11711 -6.09757 10.3605 0 0 1.5 0.0542404 -0.0736211 
6.3281 -6.06256 10.6282 0 0 1.5 0.0578139 -0.0765906 
6.54624 -6.03174 10.8905 0 0 1.5 0.0609314 -0.0833612 
6.77384 -6.00486 11.1452 0 0 1.5 0.0657201 -0.105588 
7.01989 -5.98041 11.3824 0 0 1.5 0.0674017 -0.120795 
7.27529 -5.95657 11.6091 0 0 1.5 0.0686349 -0.139119 
7.54334 -5.93336 11.8214 0 0 1.5 0.0699457 -0.182816 
7.82384 -5.91113 12.0166 0 0 1.5 0.0701799 -0.207661 
8.1088 -5.88933 12.2057 0 0 1.5 0.0702642 -0.234426 
8.40543 -5.87099 12.3763 0 0 1.5 0.0703186 -0.261547 
8.70358 -5.85407 12.5442 0 0 1.5 0.070896 -0.309136 
9.00785 -5.84289 12.7015 0 0 1.5 0.0716968 -0.326608 
9.31322 -5.8351 12.8567 0 0 1.5 0.073005 -0.33713 
9.62125 -5.83552 13.0069 0 0 1.5 0.074912 -0.33916 
9.92923 -5.84151 13.1568 0 0 1.5 0.0806765 -0.319587 
10.2371 -5.85826 13.3064 0 0 1.5 0.0845023 -0.300715 
10.5432 -5.883 13.4581 0 0 1.5 0.0888688 -0.278127 
10.8463 -5.92082 13.6134 0 0 1.5 0.0936686 -0.253665 
11.1448 -5.96963 13.774 0 0 1.5 0.104025 -0.204631 
11.4372 -6.0323 13.9412 0 0 1.5 0.109285 -0.181914 
11.7197 -6.10991 14.1181 0 0 1.5 0.114396 -0.160736 
11.9941 -6.19954 14.3028 0 0 1.5 0.123534 -0.122933 
12.2493 -6.3082 14.5031 0 0 1.5 0.127264 -0.106351 
12.4973 -6.42404 14.7093 0 0 1.5 0.130262 -0.0909288 
12.7129 -6.56123 14.9375 0 0 1.5 0.13241 -0.076316 
12.9183 -6.70294 15.1715 0 0 1.5 0.133821 -0.0497871 
13.0937 -6.85689 15.4224 0 0 1.5 0.133021 -0.0374951 
13.2493 -7.01488 15.6828 0 0 1.5 0.131215 -0.0253433 
13.3861 -7.17677 15.9521 0 0 1.5 0.128431 -0.0133789 
13.4953 -7.33976 16.2327 0 0 1.5 0.120247 0.0102221 
13.5955 -7.50284 16.5168 0 0 1.5 0.115045 0.0226395 
13.6706 -7.66353 16.81 0 0 1.5 0.109247 0.035681 
13.7394 -7.8232 17.1052 0 0 1.5 0.0963797 0.0642567 
13.7959 -7.98085 17.4042 0 0 1.5 0.0895606 0.0807561 
13.8467 -8.13851 17.7041 0 0 1.5 0.0826397 0.0993489 
13.8935 -8.29618 18.0048 0 0 1.5 0.0757264 0.120521 
13.9397 -8.45886 18.3028 0 0 1.5 0.0623243 0.173485 
13.9866 -8.62397 18.5993 0 0 1.5 0.0560193 0.207196 
14.0409 -8.80123 18.8876 0 0 1.5 0.0500857 0.247414 
14.102 -8.98707 19.1685 0 0 1.5 0.0446006 0.294766 
14.1733 -9.18569 19.4385 0 0 1.5 0.035289 0.408476 
14.2625 -9.40351 19.6866 0 0 1.5 0.031606 0.470067 
14.3587 -9.62888 19.9262 0 0 1.5 0.0286487 0.524975 
14.455 -9.85426 20.1657 0 0 1.5 0.0264425 0.561431 
14.5512 -10.0796 20.4052 0 0 1.5 0.024122 0.552438 
14.6474 -10.305 20.6448 0 0 1.5 0.0237947 0.510755 
14.7437 -10.5304 20.8843 0 0 1.5 0.023823 0.455797 
14.8399 -10.7558 21.1239 0 0 1.5 0.0243522 0.345609 
14.9362 -10.9811 21.3634 0 0 1.5 0.0246295 0.299641 
15.0324 -11.2065 21.6029 0 0 1.5 0.0248121 0.260823 
15.1287 -11.4319 21.8425 0 0 1.5 0.0248512 0.229062 
15.2249 -11.6573 22.082 0 0 1.5 0.0244085 0.183605 
15.3212 -11.8826 22.3216 0 0 1.5 0.0239129 0.167655 
15.4174 -12.108 22.5611 0 0 1.5 0.0232386 0.15536 
15.5137 -12.3334 22.8006 0 0 1.5 0.0223974 0.146393 
15.6099 -12.5588 23.0402 0 0 1.5 0.0202827 0.136591 
15.7062 -12.7841 23.2797 0 0 1.5 0.0190502 0.135386 
15.8024 -13.0095 23.5192 0 0 1.5 0.0177289 0.136887 
15.8986 -13.2349 23.7588 0 0 1.5 0.0149092 0.148782 
15.9949 -13.4603 23.9983 0 0 1.5 0.0134573 0.160341 
16.0911 -13.6857 24.2379 0 0 1.5 0.0120043 0.177523 
16.1874 -13.911 24.4774 0 0 1.5 0.0105693 0.202324 
16.2836 -14.1364 24.7169 0 0 1.5 0.00783607 0.28891 
16.3799 -14.3618 24.9565 0 0 1.5 0.00657824 0.364712 
16.4761 -14.5872 25.196 0 0 1.5 0.00542211 0.478542 
16.5724 -14.8125 25.4355 0 0 1.5 0.00439912 0.648266 
16.6686 -15.0379 25.6751 0 0 1.5 0.0029425 1.15892 
16.7649 -15.2633 25.9146 0 0 1.5 0.00262595 1.30555 
16.8611 -15.4887 26.1542 0 0 1.5 0.00260944 1.18551 
16.9574 -15.714 26.3937 0 0 1.5 0.0031202 0.669096 
17.0536 -15.9394 26.6332 0 0 1.5 0.00345517 0.491265 
17.1498 -16.1648 26.8728 0 0 1.5 0.00376914 0.371201 
17.2461 -16.3902 27.1123 0 0 1.5 0.00403736 0.290869 
17.3423 -16.6155 27.3519 0 0 1.5 0.00439977 0.19892 
17.4386 -16.8409 27.5914 0 0 1.5 0.00448997 0.171894 
17.5348 -17.0663 27.8309 0 0 1.5 0.0045215 0.152518 
17.6311 -17.2917 28.0705 0 0 1.5 0.00449822 0.138983 
17.7273 -17.517 28.31 0 0 1.5 0.00430724 0.123397 
17.8236 -17.7424 28.5495 0 0 1.5 0.00415059 0.11991 
17.9198 -17.9678 28.7891 0 0 1.5 0.00396057 0.119201 
18.0161 -18.1932 29.0286 0 0 1.5 0.0037428 0.121036 
18.1123 -18.4185 29.2682 0 0 1.5 0.003247 0.132522 
18.2085 -18.6439 29.5077 0 0 1.5 0.00297935 0.143706 
18.3048 -18.8693 29.7472 0 0 1.5 0.0027048 0.159757 
18.401 -19.0947 29.9868 0 0 1.5 0.0021544 0.212728 
18.4973 -19.3201 30.2263 0 0 1.5 0.00188741 0.256015 
18.5935 -19.5454 30.4658 0 0 1.5 0.00163158 0.317129 
18.6898 -19.7708 30.7054 0 0 1.5 0.00139215 0.403297 
18.786 -19.9962 30.9449 0 0 1.5 0.000989163 0.687752 
18.8823 -20.2216 31.1845 0 0 1.5 0.000843443 0.879054 
18.9785 -20.4469 31.424 0 0 1.5 0.000750089 0 
19.0748 -20.6723 31.6635 0 0 1.5 0.000716386 0 
19.171 -20.8977 31.9031 0 0 1.5 0.000798477 0.720059 
19.2673 -21.1231 32.1426 0 0 1.5 0.00088187 0.542656 
19.3635 -21.3484 32.3821 0 0 1.5 0.000974721 0.406665 
19.4597 -21.5738 32.6217 0 0 1.5 0.00115989 0.238474 
19.556 -21.7992 32.8612 0 0 1.5 0.00124518 0.18705 
19.6522 -22.0246 33.1008 0 0 1.5 0.00132358 0.148903 
19.7485 -22.2499 33.3403 0 0 1.5 0.00139472 0.120309 
19.8447 -22.4753 33.5798 0 0 1.5 0.00151602 0.0812288 
19.941 -22.7007 33.8194 0 0 1.5 0.00156723 0.0677064 
20.0372 -22.9261 34.0589 0 0 1.5 0.001613 0.0570932 
20.1335 -23.1514 34.2985 0 0 1.5 0.00165404 0.0487534 
20.2297 -23.3768 34.538 0 0 1.5 0.00172512 0.0372045 
20.326 -23.6022 34.7775 0 0 1.5 0.00175666 0.0334296 
20.4222 -23.8276 35.0171 0 0 1.5 0.00178648 0.0307383 
0 1 0 
1 2 0 
2 3 0 
3 4 0 
4 5 0 
5 6 0 
6 7 0 
7 8 0 
8 9 0 
9 10 0 
10 11 0 
11 12 0 
12 13 0 
13 14 0 
14 15 0 
15 16 0 
16 17 0 
17 18 0 
18 19 0 
19 20 0 
20 21 0 
21 22 0 
22 23 0 
23 24 0 
24 25 0 
25 26 0 
26 27 0 
27 28 0 
28 29 0 
29 30 0 
30 31 0 
31 32 0 
32 33 0 
33 34 0 
34 35 0 
35 36 0 
36 37 0 
37 38 0 
38 39 0 
39 40 0 
40 41 0 
41 42 0 
42 43 0 
43 44 0 
44 45 0 
45 46 0 
46 47 0 
47 48 0 
48 49 0 
49 50 0 
50 51 0 
51 52 0 
52 53 0 
53 54 0 
54 55 0 
55 56 0 
56 57 0 
57 58 0 
58 59 0 
59 60 0 
60 61 0 
61 62 0 
62 63 0 
63 64 0 
64 65 0 
65 66 0 
66 67 0 
67 68 0 
68 69 0 
69 70 0 
70 71 0 
71 72 0 
72 73 0 
73 74 0 
74 75 0 
75 76 0 
76 77 0 
77 78 0 
78 79 0 
79 80 0 
80 81 0 
81 82 0 
82 83 0 
83 84 0 
84 85 0 
85 86 0 
86 87 0 
87 88 0 
88 89 0 
89 90 0 
90 91 0 
91 92 0 
92 93 0 
93 94 0 
94 95 0 
95 96 0 
96 97 0 
97 98 0 
98 99 0 
99 100 0 
100 101 0 
101 102 0 
102 103 0 
103 104 0 
104 105 0 
105 106 0 
106 107 0 
107 108 0 
108 109 0 
109 110 0 
110 111 0 
111 112 0 
112 113 0 
113 114 0 
114 115 0 
115 116 0 
116 117 0 
117 118 0 
118 119 0 
119 120 0 
120 121 0 
121 122 0 
122 123 0 
123 124 0 
124 125 0 
125 126 0 
126 127 0 
127 128 0 
128 129 0 
129 130 0 
130 131 0 
131 132 0 
132 133 0 
133 134 0 
134 135 0 
135 136 0 
136 137 0 
137 138 0 
138 139 0 
139 140 0 
140 141 0 
141 142 0 
142 143 0 
143 144 0 
144 145 0 
145 146 0 
146 147 0 
147 148 0 
148 149 0 
149 150 0 
150 151 0 
151 152 0 
152 153 0 
153 154 0 
154 155 0 
155 156 0 
156 157 0 
157 158 0 
158 159 0 
159 160 0 
160 161 0 
161 162 0 
162 163 0 
163 164 0 
164 165 0 
165 166 0 
166 167 0 
167 168 0 
168 169 0 
169 170 0 
170 171 0 
171 172 0 
172 173 0 
173 174 0 
174 175 0 
175 176 0 
176 177 0 
177 178 0 
178 179 0 
179 180 0 
180 181 0 
181 182 0 
182 183 0 
183 184 0 
184 185 0 
185 186 0 
186 187 0 
187 188 0 
188 189 0 
189 190 0 
190 191 0 
191 192 0 
192 193 0 
193 194 0 
194 195 0 
195 196 0 
196 197 0 
197 198 0 
198 199 0 
199 200 0 
200 201 0 
201 202 0 
202 203 0 
203 204 0 
204 205 0 
205 206 0 
206 207 0 
207 208 0 
208 209 0 
209 210 0 
210 211 0 
211 212 0 
212 213 0 
213 214 0 
214 215 0 
215 216 0 
216 217 0 
217 218 0 
218 219 0 
219 220 0 
220 221 0 
221 222 0 
222 223 0 
223 224 0 
224 225 0 
225 226 0 
226 227 0 
227 228 0 
228 229 0 
229 230 0 
230 231 0 
231 232 0 
232 233 0 
233 234 0 
234 235 0 
235 236 0 
236 237 0 
237 238 0 
238 239 0 
239 240 0 
240 241 0 
241 242 0 
242 243 0 
243 244 0 
244 245 0 
245 246 0 
246 247 0 
247 248 0 
248 249 0 
249 250 0 
250 251 0 
251 252 0 
252 253 0 
253 254 0 
254 255 0 
255 256 0 
256 257 0 
257 258 0 
258 259 0 
259 260 0 
260 261 0 
261 262 0 
262 263 0 
263 264 0 
264 265 0 
265 266 0 
266 267 0 
267 268 0 
268 269 0 
269 270 0 
270 271 0 
271 272 0 
272 273 0 
273 274 0 
274 275 0 
275 276 0 
276 277 0 
277 278 0 
278 279 0 
279 280 0 
280 281 0 
281 282 0 
282 283 0 
283 284 0 
284 285 0 
285 286 0 
286 287 0 
287 288 0 
288 289 0 
289 290 0 
290 291 0 
291 292 0 
292 293 0 
293 294 0 
294 295 0 
295 296 0 
296 297 0 
297 298 0 
298 299 0 
-1 -1 0 
-1 300 0 1 2 3 4 5 6 7 8 9 10 11 12 13 14 15 16 17 18 19 20 21 22 23 24 25 26 27 28 29 30 31 32 33 34 35 36 37 38 39 40 41 42 43 44 45 46 47 48 49 50 51 52 53 54 55 56 57 58 59 60 61 62 63 64 65 66 67 68 69 70 71 72 73 74 75 76 77 78 79 80 81 82 83 84 85 86 87 88 89 90 91 92 93 94 95 96 97 98 99 100 101 102 103 104 105 106 107 108 109 110 111 112 113 114 115 116 117 118 119 120 121 122 123 124 125 126 127 128 129 130 131 132 133 134 135 136 137 138 139 140 141 142 143 144 145 146 147 148 149 150 151 152 153 154 155 156 157 158 159 160 161 162 163 164 165 166 167 168 169 170 171 172 173 174 175 176 177 178 179 180 181 182 183 184 185 186 187 188 189 190 191 192 193 194 195 196 197 198 199 200 201 202 203 204 205 206 207 208 209 210 211 212 213 214 215 216 217 218 219 220 221 222 223 224 225 226 227 228 229 230 231 232 233 234 235 236 237 238 239 240 241 242 243 244 245 246 247 248 249 250 251 252 253 254 255 256 257 258 259 260 261 262 263 264 265 266 267 268 269 270 271 272 273 274 275 276 277 278 279 280 281 282 283 284 285 286 287 288 289 290 291 292 293 294 295 296 297 298 299 
