ply
format ascii 1.0
comment written by koba@oshima.lab
element vertex 300
property float x
property float y
property float z
property int label
property int attribute
property float radius
property float curvature
property float torsion
element edge 300
property int vertex1
property int vertex2
property int label
element vertex_seq 1
property int label
property list int int vertex_indices
end_header
8.14519 26.3522 -10.1662 0 0 1.5 0.0351265 0.0277959 
7.86562 26.1761 -10.0527 0 0 1.5 0.0344801 0.0287737 
7.58606 26.0001 -9.93908 0 0 1.5 0.0338279 0.0299765 
7.30649 25.824 -9.82551 0 0 1.5 0.0331679 0.0314285 
7.02692 25.648 -9.71193 0 0 1.5 0.0318161 0.0351761 
6.74736 25.4719 -9.59835 0 0 1.5 0.0311199 0.0375073 
6.46779 25.2959 -9.48477 0 0 1.5 0.0304068 0.0401956 
6.18822 25.1198 -9.3712 0 0 1.5 0.0296748 0.0432934 
5.90866 24.9438 -9.25762 0 0 1.5 0.0281439 0.0507578 
5.62909 24.7677 -9.14404 0 0 1.5 0.0273383 0.0552518 
5.34953 24.5917 -9.03046 0 0 1.5 0.0265021 0.0604144 
5.06996 24.4156 -8.91689 0 0 1.5 0.025633 0.0662946 
4.79039 24.2396 -8.80331 0 0 1.5 0.0237818 0.0807727 
4.51083 24.0635 -8.68973 0 0 1.5 0.022795 0.0899834 
4.23126 23.8875 -8.57615 0 0 1.5 0.0217665 0.100909 
3.95169 23.7114 -8.46258 0 0 1.5 0.0195882 0.129958 
3.67213 23.5354 -8.349 0 0 1.5 0.0184482 0.149871 
3.39256 23.3593 -8.23542 0 0 1.5 0.0172898 0.174749 
3.113 23.1833 -8.12185 0 0 1.5 0.0161337 0.205839 
2.83343 23.0072 -8.00827 0 0 1.5 0.0139753 0.291854 
2.55386 22.8312 -7.89469 0 0 1.5 0.0130962 0.345277 
2.2743 22.6551 -7.78111 0 0 1.5 0.0124736 0.397368 
1.99473 22.479 -7.66754 0 0 1.5 0.0122222 0.434862 
1.71516 22.303 -7.55396 0 0 1.5 0.0132161 0.419843 
1.4356 22.1269 -7.44038 0 0 1.5 0.0145288 0.373408 
1.15603 21.9509 -7.3268 0 0 1.5 0.0163437 0.319869 
0.876466 21.7748 -7.21323 0 0 1.5 0.0212509 0.227878 
0.596899 21.5988 -7.09965 0 0 1.5 0.0242437 0.194055 
0.317333 21.4227 -6.98607 0 0 1.5 0.0275475 0.167648 
0.0377668 21.2467 -6.87249 0 0 1.5 0.031141 0.147255 
-0.241799 21.0706 -6.75892 0 0 1.5 0.0391493 0.119031 
-0.521366 20.8946 -6.64534 0 0 1.5 0.0435468 0.109408 
-0.800932 20.7185 -6.53176 0 0 1.5 0.0482022 0.101976 
-1.0805 20.5425 -6.41819 0 0 1.5 0.0531159 0.0961677 
-1.36006 20.3664 -6.30461 0 0 1.5 0.0637064 0.0881374 
-1.63963 20.1904 -6.19103 0 0 1.5 0.0693778 0.0856193 
-1.9192 20.0143 -6.07745 0 0 1.5 0.0752963 0.0838133 
-2.20204 19.8329 -5.98211 0 0 1.5 0.0814534 0.0825585 
-2.48547 19.6499 -5.89164 0 0 1.5 0.0944309 0.0816927 
-2.77036 19.4612 -5.81891 0 0 1.5 0.101215 0.0819149 
-3.05519 19.2698 -5.7546 0 0 1.5 0.108161 0.0823985 
-3.33991 19.0738 -5.70376 0 0 1.5 0.122384 0.0843307 
-3.6233 18.8729 -5.66885 0 0 1.5 0.129559 0.0856917 
-3.906 18.6693 -5.64225 0 0 1.5 0.136695 0.0871613 
-4.18491 18.459 -5.64269 0 0 1.5 0.143716 0.0887886 
-4.46166 18.2467 -5.65492 0 0 1.5 0.157055 0.0925401 
-4.73446 18.0311 -5.68841 0 0 1.5 0.163171 0.0944648 
-5.00065 17.8139 -5.7499 0 0 1.5 0.168772 0.0964406 
-5.26201 17.5967 -5.8291 0 0 1.5 0.173743 0.0985164 
-5.51431 17.3808 -5.9377 0 0 1.5 0.181374 0.102454 
-5.75531 17.1681 -6.07344 0 0 1.5 0.183858 0.104238 
-5.98796 16.9576 -6.22629 0 0 1.5 0.185365 0.105977 
-6.2066 16.7504 -6.40322 0 0 1.5 0.185313 0.109179 
-6.41053 16.5441 -6.59739 0 0 1.5 0.183764 0.110679 
-6.60494 16.3376 -6.80112 0 0 1.5 0.181247 0.112226 
-6.77984 16.1279 -7.01905 0 0 1.5 0.177826 0.113881 
-6.94003 15.913 -7.24258 0 0 1.5 0.168656 0.117762 
-7.08879 15.6939 -7.47046 0 0 1.5 0.163126 0.120208 
-7.20938 15.4615 -7.70167 0 0 1.5 0.157122 0.123182 
-7.31806 15.2233 -7.93232 0 0 1.5 0.150769 0.126821 
-7.40344 14.9736 -8.1612 0 0 1.5 0.137504 0.136628 
-7.46526 14.7132 -8.38494 0 0 1.5 0.13082 0.143156 
-7.51457 14.4472 -8.60597 0 0 1.5 0.124256 0.150994 
-7.5277 14.1682 -8.81576 0 0 1.5 0.11196 0.170838 
-7.52984 13.8865 -9.02172 0 0 1.5 0.10646 0.182792 
-7.50736 13.5991 -9.21904 0 0 1.5 0.101567 0.195756 
-7.46639 13.31 -9.41016 0 0 1.5 0.097426 0.209078 
-7.41211 13.0197 -9.59681 0 0 1.5 0.0920347 0.232406 
-7.3352 12.7309 -9.77731 0 0 1.5 0.0911252 0.239388 
-7.2529 12.4424 -9.95641 0 0 1.5 0.0916276 0.241373 
-7.14912 12.1586 -10.1316 0 0 1.5 0.0936795 0.237713 
-7.04223 11.8757 -10.3065 0 0 1.5 0.102821 0.215238 
-6.92185 11.5974 -10.48 0 0 1.5 0.110028 0.199091 
-6.79819 11.3204 -10.6532 0 0 1.5 0.119042 0.181793 
-6.66682 11.0464 -10.8256 0 0 1.5 0.129899 0.164642 
-6.53335 10.7728 -10.9969 0 0 1.5 0.157326 0.133762 
-6.3963 10.4997 -11.1664 0 0 1.5 0.174022 0.120548 
-6.25888 10.2252 -11.333 0 0 1.5 0.192798 0.108896 
-6.12094 9.94852 -11.4958 0 0 1.5 0.236733 0.0897728 
-5.98471 9.66744 -11.652 0 0 1.5 0.261798 0.0817651 
-5.85028 9.38172 -11.8015 0 0 1.5 0.288662 0.0746024 
-5.72057 9.08728 -11.9369 0 0 1.5 0.31689 0.0681924 
-5.5939 8.78722 -12.0633 0 0 1.5 0.374278 0.0566821 
-5.4777 8.47211 -12.1581 0 0 1.5 0.401029 0.0514031 
-5.36741 8.15056 -12.2344 0 0 1.5 0.424421 0.0465305 
-5.272 7.81571 -12.2631 0 0 1.5 0.442733 0.0419754 
-5.1959 7.47886 -12.2279 0 0 1.5 0.458097 0.0338343 
-5.13988 7.1538 -12.1269 0 0 1.5 0.453441 0.0305186 
-5.10697 6.85705 -11.9507 0 0 1.5 0.440667 0.0278196 
-5.09747 6.61336 -11.7006 0 0 1.5 0.395242 0.0245893 
-5.10384 6.43747 -11.4003 0 0 1.5 0.365875 0.024266 
-5.11573 6.30224 -11.0803 0 0 1.5 0.334381 0.0248977 
-5.13126 6.19978 -10.7467 0 0 1.5 0.302212 0.0265827 
-5.14752 6.14398 -10.4023 0 0 1.5 0.23997 0.0334361 
-5.16304 6.09999 -10.0564 0 0 1.5 0.21118 0.0391029 
-5.17682 6.07859 -9.708 0 0 1.5 0.184349 0.0469548 
-5.18813 6.06808 -9.35912 0 0 1.5 0.159551 0.0577009 
-5.19766 6.06548 -9.0099 0 0 1.5 0.11591 0.0936064 
-5.20222 6.06809 -8.66059 0 0 1.5 0.0968896 0.124777 
-5.2047 6.07101 -8.31127 0 0 1.5 0.0796333 0.172538 
-5.19953 6.06876 -7.96196 0 0 1.5 0.0506328 0.37437 
-5.18796 6.05751 -7.61316 0 0 1.5 0.0396436 0.573246 
-5.16963 6.03679 -7.2649 0 0 1.5 0.0323885 0.806723 
-5.13418 5.98778 -6.92092 0 0 1.5 0.0304186 0.859385 
-5.08774 5.91881 -6.58237 0 0 1.5 0.0408419 0.418725 
-5.02935 5.82774 -6.25028 0 0 1.5 0.0495641 0.265202 
-4.95267 5.69685 -5.93558 0 0 1.5 0.0590127 0.174058 
-4.86972 5.54441 -5.63314 0 0 1.5 0.0686996 0.118928 
-4.78238 5.374 -5.34111 0 0 1.5 0.0878462 0.0609454 
-4.69527 5.17693 -5.06611 0 0 1.5 0.097023 0.0452762 
-4.61401 4.96796 -4.79857 0 0 1.5 0.105785 0.0342734 
-4.53797 4.74841 -4.53768 0 0 1.5 0.114014 0.0263632 
-4.47985 4.51385 -4.28552 0 0 1.5 0.128381 0.0167013 
-4.42901 4.27509 -4.03588 0 0 1.5 0.134294 0.0140272 
-4.39938 4.02642 -3.7923 0 0 1.5 0.139209 0.0124202 
-4.38274 3.7737 -3.55216 0 0 1.5 0.145657 0.0116093 
-4.38201 3.51601 -3.31626 0 0 1.5 0.147064 0.0122271 
-4.39951 3.2536 -3.08672 0 0 1.5 0.147217 0.0135265 
-4.42601 2.98884 -2.86033 0 0 1.5 0.146122 0.0154177 
-4.47129 2.71803 -2.64449 0 0 1.5 0.140402 0.0208421 
-4.52015 2.44584 -2.43106 0 0 1.5 0.135952 0.0245679 
-4.58174 2.16548 -2.23192 0 0 1.5 0.130593 0.0290307 
-4.6442 1.88252 -2.03698 0 0 1.5 0.124457 0.0342802 
-4.70943 1.59112 -1.85564 0 0 1.5 0.110417 0.0481111 
-4.77193 1.29411 -1.68308 0 0 1.5 0.102781 0.0573365 
-4.83085 0.989749 -1.52201 0 0 1.5 0.0949046 0.0686894 
-4.88003 0.67693 -1.37512 0 0 1.5 0.07888 0.101093 
-4.92393 0.359519 -1.23593 0 0 1.5 0.0709333 0.124805 
-4.94939 0.0325764 -1.11593 0 0 1.5 0.063152 0.156408 
-4.96972 -0.296475 -1.00073 0 0 1.5 0.0556276 0.199342 
-4.96927 -0.631841 -0.902853 0 0 1.5 0.0417916 0.34122 
-4.96151 -0.968258 -0.809807 0 0 1.5 0.0357909 0.454815 
-4.93905 -1.30679 -0.726492 0 0 1.5 0.0307243 0.600799 
-4.90682 -1.64542 -0.647429 0 0 1.5 0.0269563 0.755797 
-4.86626 -1.98411 -0.571997 0 0 1.5 0.0247585 0.824254 
-4.81627 -2.32152 -0.496666 0 0 1.5 0.0264098 0.685813 
-4.76285 -2.65846 -0.421373 0 0 1.5 0.0293887 0.517656 
-4.70282 -2.99255 -0.338763 0 0 1.5 0.0332039 0.373114 
-4.64205 -3.32582 -0.253569 0 0 1.5 0.0419968 0.184363 
-4.57996 -3.65514 -0.154844 0 0 1.5 0.0465866 0.125738 
-4.51906 -3.98211 -0.0484653 0 0 1.5 0.0511637 0.0819747 
-4.46033 -4.30478 0.0718786 0 0 1.5 0.0600869 0.0225148 
-4.40555 -4.62187 0.207252 0 0 1.5 0.0643837 0.00119456 
-4.35336 -4.93531 0.352448 0 0 1.5 0.0685559 -0.016309 
-4.30719 -5.23887 0.518839 0 0 1.5 0.0726039 -0.0306689 
-4.26247 -5.53928 0.691279 0 0 1.5 0.0803493 -0.0529834 
-4.2211 -5.8298 0.880858 0 0 1.5 0.0840648 -0.0615697 
-4.17885 -6.11621 1.07621 0 0 1.5 0.0876917 -0.0684609 
-4.13537 -6.39689 1.27964 0 0 1.5 0.0912426 -0.0739106 
-4.08518 -6.67295 1.48767 0 0 1.5 0.0981607 -0.0810752 
-4.03177 -6.94681 1.69792 0 0 1.5 0.101544 -0.082855 
-3.9615 -7.2167 1.90826 0 0 1.5 0.10488 -0.0835405 
-3.88552 -7.48566 2.11764 0 0 1.5 0.111405 -0.0819518 
-3.78852 -7.75164 2.32234 0 0 1.5 0.114579 -0.079819 
-3.67893 -8.01541 2.52287 0 0 1.5 0.117678 -0.0768692 
-3.55169 -8.27609 2.71756 0 0 1.5 0.120682 -0.0731489 
-3.4032 -8.53077 2.90426 0 0 1.5 0.126321 -0.0641079 
-3.24362 -8.7823 3.08678 0 0 1.5 0.128908 -0.0589522 
-3.05561 -9.02131 3.25839 0 0 1.5 0.131302 -0.0533737 
-2.86063 -9.25652 3.4274 0 0 1.5 0.133477 -0.047562 
-2.63927 -9.47472 3.5869 0 0 1.5 0.137066 -0.0357085 
-2.40882 -9.68478 3.74346 0 0 1.5 0.138432 -0.0295917 
-2.16048 -9.87881 3.89423 0 0 1.5 0.139482 -0.0234792 
-1.89912 -10.0571 4.04121 0 0 1.5 0.140585 -0.0116162 
-1.62736 -10.2229 4.18517 0 0 1.5 0.140618 -0.00576194 
-1.34044 -10.3644 4.32468 0 0 1.5 0.140296 -2.97042e-05 
-1.04914 -10.4989 4.46292 0 0 1.5 0.139623 0.0054922 
-0.742746 -10.6012 4.59593 0 0 1.5 0.137243 0.0160976 
-0.433964 -10.6967 4.72785 0 0 1.5 0.135553 0.0211789 
-0.116942 -10.7684 4.85596 0 0 1.5 0.13355 0.0260405 
0.203062 -10.8281 4.98202 0 0 1.5 0.13125 0.0307207 
0.526803 -10.8728 5.10548 0 0 1.5 0.125836 0.039677 
0.852943 -10.9033 5.22646 0 0 1.5 0.122756 0.0440106 
1.18035 -10.9264 5.34614 0 0 1.5 0.119448 0.0483056 
1.50921 -10.9358 5.46356 0 0 1.5 0.115927 0.0526165 
1.83833 -10.9424 5.58052 0 0 1.5 0.108302 0.0614887 
2.16797 -10.9386 5.69617 0 0 1.5 0.104226 0.066191 
2.49759 -10.9331 5.81177 0 0 1.5 0.0999892 0.0712036 
2.82713 -10.9219 5.92722 0 0 1.5 0.0910814 0.0829283 
3.15649 -10.9083 6.04287 0 0 1.5 0.0864302 0.0901045 
3.4856 -10.8912 6.15882 0 0 1.5 0.0816606 0.0985536 
3.81433 -10.8701 6.27517 0 0 1.5 0.0767828 0.108772 
4.14279 -10.8463 6.39177 0 0 1.5 0.0667561 0.137387 
4.47056 -10.8152 6.50856 0 0 1.5 0.0616403 0.157882 
4.79814 -10.7821 6.62539 0 0 1.5 0.0564866 0.184767 
5.1243 -10.7361 6.74181 0 0 1.5 0.0513321 0.220711 
5.44995 -10.6865 6.85798 0 0 1.5 0.0412585 0.33676 
5.77371 -10.6236 6.9732 0 0 1.5 0.0365372 0.429216 
6.09586 -10.5525 7.08771 0 0 1.5 0.0322592 0.552661 
6.41579 -10.47 7.20125 0 0 1.5 0.026304 0.848005 
6.73237 -10.375 7.31398 0 0 1.5 0.0254543 0.919755 
7.04693 -10.2726 7.42622 0 0 1.5 0.0264214 0.869274 
7.35638 -10.1557 7.53838 0 0 1.5 0.0291159 0.730593 
7.66469 -10.0356 7.65053 0 0 1.5 0.0382888 0.442343 
7.96702 -9.903 7.76483 0 0 1.5 0.044093 0.341625 
8.26861 -9.76948 7.87998 0 0 1.5 0.0504017 0.267783 
8.56647 -9.63148 7.9995 0 0 1.5 0.0570742 0.213798 
8.86369 -9.49465 8.12186 0 0 1.5 0.0711384 0.143646 
9.15957 -9.36021 8.25004 0 0 1.5 0.0783905 0.120434 
9.45586 -9.23311 8.38429 0 0 1.5 0.085711 0.102218 
9.75253 -9.11289 8.52424 0 0 1.5 0.100344 0.0760658 
10.051 -9.012 8.67461 0 0 1.5 0.107551 0.0665165 
10.3502 -8.91878 8.82896 0 0 1.5 0.114611 0.0585667 
10.6511 -8.86229 8.99712 0 0 1.5 0.121467 0.0519414 
10.9514 -8.82277 9.16968 0 0 1.5 0.13436 0.0417978 
11.2505 -8.81297 9.34994 0 0 1.5 0.140294 0.0378561 
11.5441 -8.83924 9.53622 0 0 1.5 0.145822 0.034552 
11.8341 -8.88362 9.72526 0 0 1.5 0.150909 0.0318451 
12.1127 -8.9673 9.91878 0 0 1.5 0.159658 0.0278488 
12.3835 -9.06785 10.1143 0 0 1.5 0.163285 0.0264611 
12.646 -9.18657 10.3119 0 0 1.5 0.166417 0.025455 
12.8938 -9.32599 10.5145 0 0 1.5 0.169068 0.0247894 
13.1356 -9.47246 10.7196 0 0 1.5 0.173019 0.0243418 
13.3617 -9.63301 10.9321 0 0 1.5 0.174389 0.0244676 
13.5774 -9.79948 11.1503 0 0 1.5 0.175413 0.0247956 
13.783 -9.97168 11.3743 0 0 1.5 0.176597 0.0259577 
13.9685 -10.1522 11.6087 0 0 1.5 0.176841 0.0266644 
14.1448 -10.3364 11.8471 0 0 1.5 0.176902 0.02743 
14.3022 -10.5281 12.0932 0 0 1.5 0.176807 0.0282528 
14.4432 -10.7275 12.3426 0 0 1.5 0.176233 0.0297699 
14.5741 -10.9318 12.5939 0 0 1.5 0.175778 0.03039 
14.6822 -11.1499 12.8445 0 0 1.5 0.175212 0.0309227 
14.7814 -11.375 13.0922 0 0 1.5 0.174524 0.0313293 
14.8684 -11.6097 13.336 0 0 1.5 0.172708 0.0316554 
14.9405 -11.8586 13.57 0 0 1.5 0.171527 0.031594 
15.006 -12.1139 13.799 0 0 1.5 0.17012 0.0313945 
15.0553 -12.3855 14.0132 0 0 1.5 0.166508 0.0305998 
15.0946 -12.6658 14.2172 0 0 1.5 0.164243 0.0300182 
15.1225 -12.9561 14.4094 0 0 1.5 0.161634 0.0293543 
15.1302 -13.2599 14.5811 0 0 1.5 0.158668 0.0286399 
15.1296 -13.5685 14.7443 0 0 1.5 0.151629 0.0270492 
15.0996 -13.8898 14.8782 0 0 1.5 0.147553 0.0262219 
15.0563 -14.2137 14.9991 0 0 1.5 0.143126 0.0254377 
14.989 -14.5424 15.0964 0 0 1.5 0.138372 0.0246847 
14.8974 -14.8703 15.1694 0 0 1.5 0.127999 0.0232723 
14.7895 -15.1977 15.2263 0 0 1.5 0.122451 0.0226856 
14.6504 -15.5163 15.251 0 0 1.5 0.116716 0.0221785 
14.502 -15.8322 15.2661 0 0 1.5 0.110834 0.0217384 
14.3537 -16.1481 15.2812 0 0 1.5 0.0987832 0.0211784 
14.2054 -16.4641 15.2963 0 0 1.5 0.0926953 0.0210844 
14.057 -16.78 15.3114 0 0 1.5 0.0866146 0.0211052 
13.9087 -17.096 15.3265 0 0 1.5 0.0746028 0.0216722 
13.7603 -17.4119 15.3417 0 0 1.5 0.0687308 0.0222932 
13.612 -17.7278 15.3568 0 0 1.5 0.0629842 0.0231697 
13.4637 -18.0438 15.3719 0 0 1.5 0.0573866 0.0243764 
13.3153 -18.3597 15.387 0 0 1.5 0.0467109 0.0282337 
13.167 -18.6757 15.4021 0 0 1.5 0.041668 0.03115 
13.0186 -18.9916 15.4172 0 0 1.5 0.0368458 0.0350517 
12.8703 -19.3075 15.4323 0 0 1.5 0.0322573 0.0403797 
12.7219 -19.6235 15.4475 0 0 1.5 0.0238499 0.0580961 
12.5736 -19.9394 15.4626 0 0 1.5 0.02008 0.0730083 
12.4253 -20.2554 15.4777 0 0 1.5 0.0166419 0.0950802 
12.2769 -20.5713 15.4928 0 0 1.5 0.0110138 0.175435 
12.1286 -20.8872 15.5079 0 0 1.5 0.00905208 0.234596 
11.9802 -21.2032 15.523 0 0 1.5 0.00787085 0.281626 
11.8319 -21.5191 15.5381 0 0 1.5 0.0075576 0.278337 
11.6836 -21.8351 15.5532 0 0 1.5 0.00883829 0.170387 
11.5352 -22.151 15.5684 0 0 1.5 0.00987618 0.125447 
11.3869 -22.4669 15.5835 0 0 1.5 0.0109247 0.0944506 
11.2385 -22.7829 15.5986 0 0 1.5 0.0118907 0.0734947 
11.0902 -23.0988 15.6137 0 0 1.5 0.0134005 0.0493945 
10.9419 -23.4148 15.6288 0 0 1.5 0.0139109 0.0424259 
10.7935 -23.7307 15.6439 0 0 1.5 0.0142535 0.0373669 
10.6452 -24.0466 15.659 0 0 1.5 0.0144527 0.0311071 
10.4968 -24.3626 15.6742 0 0 1.5 0.0143272 0.0293029 
10.3485 -24.6785 15.6893 0 0 1.5 0.0140673 0.02809 
10.2002 -24.9945 15.7044 0 0 1.5 0.0136861 0.0274082 
10.0518 -25.3104 15.7195 0 0 1.5 0.0126131 0.0275779 
9.90348 -25.6263 15.7346 0 0 1.5 0.01195 0.0283573 
9.75514 -25.9423 15.7497 0 0 1.5 0.0112217 0.0296755 
9.6068 -26.2582 15.7648 0 0 1.5 0.0104414 0.0316871 
9.45846 -26.5742 15.78 0 0 1.5 0.0087773 0.0383757 
9.31012 -26.8901 15.7951 0 0 1.5 0.0079203 0.0436414 
9.16178 -27.206 15.8102 0 0 1.5 0.00706273 0.0509716 
9.01344 -27.522 15.8253 0 0 1.5 0.00621671 0.0612318 
8.8651 -27.8379 15.8404 0 0 1.5 0.00461706 0.096629 
8.71676 -28.1539 15.8555 0 0 1.5 0.0038982 0.127195 
8.56842 -28.4698 15.8706 0 0 1.5 0.00326651 0.170576 
8.42008 -28.7857 15.8858 0 0 1.5 0.00243717 0.27375 
8.27174 -29.1017 15.9009 0 0 1.5 0.00233416 0.283437 
8.1234 -29.4176 15.916 0 0 1.5 0.00244919 0.245059 
7.97506 -29.7336 15.9311 0 0 1.5 0.00272642 0.188446 
7.82672 -30.0495 15.9462 0 0 1.5 0.00351408 0.10355 
7.67838 -30.3654 15.9613 0 0 1.5 0.00394424 0.0786907 
7.53003 -30.6814 15.9764 0 0 1.5 0.00437107 0.0613123 
7.38169 -30.9973 15.9915 0 0 1.5 0.00478466 0.0489614 
7.23335 -31.3133 16.0067 0 0 1.5 0.00555462 0.0332908 
7.08501 -31.6292 16.0218 0 0 1.5 0.00590775 0.0281235 
6.93667 -31.9451 16.0369 0 0 1.5 0.00623945 0.0240708 
6.78833 -32.2611 16.052 0 0 1.5 0.00684196 0.0182384 
6.63999 -32.577 16.0671 0 0 1.5 0.00711541 0.01607 
6.49165 -32.893 16.0822 0 0 1.5 0.0073724 0.0142593 
6.34331 -33.2089 16.0973 0 0 1.5 0.0076144 0.012747 
6.19497 -33.5248 16.1125 0 0 1.5 0.00805963 0.0103729 
6.04663 -33.8408 16.1276 0 0 1.5 0.00826605 0.0094372 
5.89829 -34.1567 16.1427 0 0 1.5 0.00846352 0.00864395 
5.74995 -34.4727 16.1578 0 0 1.5 0.0086533 0.00796959 
5.60161 -34.7886 16.1729 0 0 1.5 0.00901504 0.00690888 
5.45327 -35.1045 16.188 0 0 1.5 0.00918941 0.00650152 
5.30493 -35.4205 16.2031 0 0 1.5 0.00936092 0.00616277 
0 1 0 
1 2 0 
2 3 0 
3 4 0 
4 5 0 
5 6 0 
6 7 0 
7 8 0 
8 9 0 
9 10 0 
10 11 0 
11 12 0 
12 13 0 
13 14 0 
14 15 0 
15 16 0 
16 17 0 
17 18 0 
18 19 0 
19 20 0 
20 21 0 
21 22 0 
22 23 0 
23 24 0 
24 25 0 
25 26 0 
26 27 0 
27 28 0 
28 29 0 
29 30 0 
30 31 0 
31 32 0 
32 33 0 
33 34 0 
34 35 0 
35 36 0 
36 37 0 
37 38 0 
38 39 0 
39 40 0 
40 41 0 
41 42 0 
42 43 0 
43 44 0 
44 45 0 
45 46 0 
46 47 0 
47 48 0 
48 49 0 
49 50 0 
50 51 0 
51 52 0 
52 53 0 
53 54 0 
54 55 0 
55 56 0 
56 57 0 
57 58 0 
58 59 0 
59 60 0 
60 61 0 
61 62 0 
62 63 0 
63 64 0 
64 65 0 
65 66 0 
66 67 0 
67 68 0 
68 69 0 
69 70 0 
70 71 0 
71 72 0 
72 73 0 
73 74 0 
74 75 0 
75 76 0 
76 77 0 
77 78 0 
78 79 0 
79 80 0 
80 81 0 
81 82 0 
82 83 0 
83 84 0 
84 85 0 
85 86 0 
86 87 0 
87 88 0 
88 89 0 
89 90 0 
90 91 0 
91 92 0 
92 93 0 
93 94 0 
94 95 0 
95 96 0 
96 97 0 
97 98 0 
98 99 0 
99 100 0 
100 101 0 
101 102 0 
102 103 0 
103 104 0 
104 105 0 
105 106 0 
106 107 0 
107 108 0 
108 109 0 
109 110 0 
110 111 0 
111 112 0 
112 113 0 
113 114 0 
114 115 0 
115 116 0 
116 117 0 
117 118 0 
118 119 0 
119 120 0 
120 121 0 
121 122 0 
122 123 0 
123 124 0 
124 125 0 
125 126 0 
126 127 0 
127 128 0 
128 129 0 
129 130 0 
130 131 0 
131 132 0 
132 133 0 
133 134 0 
134 135 0 
135 136 0 
136 137 0 
137 138 0 
138 139 0 
139 140 0 
140 141 0 
141 142 0 
142 143 0 
143 144 0 
144 145 0 
145 146 0 
146 147 0 
147 148 0 
148 149 0 
149 150 0 
150 151 0 
151 152 0 
152 153 0 
153 154 0 
154 155 0 
155 156 0 
156 157 0 
157 158 0 
158 159 0 
159 160 0 
160 161 0 
161 162 0 
162 163 0 
163 164 0 
164 165 0 
165 166 0 
166 167 0 
167 168 0 
168 169 0 
169 170 0 
170 171 0 
171 172 0 
172 173 0 
173 174 0 
174 175 0 
175 176 0 
176 177 0 
177 178 0 
178 179 0 
179 180 0 
180 181 0 
181 182 0 
182 183 0 
183 184 0 
184 185 0 
185 186 0 
186 187 0 
187 188 0 
188 189 0 
189 190 0 
190 191 0 
191 192 0 
192 193 0 
193 194 0 
194 195 0 
195 196 0 
196 197 0 
197 198 0 
198 199 0 
199 200 0 
200 201 0 
201 202 0 
202 203 0 
203 204 0 
204 205 0 
205 206 0 
206 207 0 
207 208 0 
208 209 0 
209 210 0 
210 211 0 
211 212 0 
212 213 0 
213 214 0 
214 215 0 
215 216 0 
216 217 0 
217 218 0 
218 219 0 
219 220 0 
220 221 0 
221 222 0 
222 223 0 
223 224 0 
224 225 0 
225 226 0 
226 227 0 
227 228 0 
228 229 0 
229 230 0 
230 231 0 
231 232 0 
232 233 0 
233 234 0 
234 235 0 
235 236 0 
236 237 0 
237 238 0 
238 239 0 
239 240 0 
240 241 0 
241 242 0 
242 243 0 
243 244 0 
244 245 0 
245 246 0 
246 247 0 
247 248 0 
248 249 0 
249 250 0 
250 251 0 
251 252 0 
252 253 0 
253 254 0 
254 255 0 
255 256 0 
256 257 0 
257 258 0 
258 259 0 
259 260 0 
260 261 0 
261 262 0 
262 263 0 
263 264 0 
264 265 0 
265 266 0 
266 267 0 
267 268 0 
268 269 0 
269 270 0 
270 271 0 
271 272 0 
272 273 0 
273 274 0 
274 275 0 
275 276 0 
276 277 0 
277 278 0 
278 279 0 
279 280 0 
280 281 0 
281 282 0 
282 283 0 
283 284 0 
284 285 0 
285 286 0 
286 287 0 
287 288 0 
288 289 0 
289 290 0 
290 291 0 
291 292 0 
292 293 0 
293 294 0 
294 295 0 
295 296 0 
296 297 0 
297 298 0 
298 299 0 
-1 -1 0 
-1 300 0 1 2 3 4 5 6 7 8 9 10 11 12 13 14 15 16 17 18 19 20 21 22 23 24 25 26 27 28 29 30 31 32 33 34 35 36 37 38 39 40 41 42 43 44 45 46 47 48 49 50 51 52 53 54 55 56 57 58 59 60 61 62 63 64 65 66 67 68 69 70 71 72 73 74 75 76 77 78 79 80 81 82 83 84 85 86 87 88 89 90 91 92 93 94 95 96 97 98 99 100 101 102 103 104 105 106 107 108 109 110 111 112 113 114 115 116 117 118 119 120 121 122 123 124 125 126 127 128 129 130 131 132 133 134 135 136 137 138 139 140 141 142 143 144 145 146 147 148 149 150 151 152 153 154 155 156 157 158 159 160 161 162 163 164 165 166 167 168 169 170 171 172 173 174 175 176 177 178 179 180 181 182 183 184 185 186 187 188 189 190 191 192 193 194 195 196 197 198 199 200 201 202 203 204 205 206 207 208 209 210 211 212 213 214 215 216 217 218 219 220 221 222 223 224 225 226 227 228 229 230 231 232 233 234 235 236 237 238 239 240 241 242 243 244 245 246 247 248 249 250 251 252 253 254 255 256 257 258 259 260 261 262 263 264 265 266 267 268 269 270 271 272 273 274 275 276 277 278 279 280 281 282 283 284 285 286 287 288 289 290 291 292 293 294 295 296 297 298 299 
