ply
format ascii 1.0
comment written by koba@oshima.lab
element vertex 300
property float x
property float y
property float z
property int label
property int attribute
property float radius
property float curvature
property float torsion
element edge 300
property int vertex1
property int vertex2
property int label
element vertex_seq 1
property int label
property list int int vertex_indices
end_header
3.32199 26.4382 -1.62265 0 0 1.5 0.0578961 0.0253584 
3.07545 26.1038 -1.73593 0 0 1.5 0.0541818 0.0299319 
2.82891 25.7695 -1.84921 0 0 1.5 0.0503192 0.0357319 
2.58236 25.4351 -1.96248 0 0 1.5 0.0463301 0.0432426 
2.33582 25.1007 -2.07576 0 0 1.5 0.0380583 0.0667748 
2.08928 24.7664 -2.18904 0 0 1.5 0.0338191 0.0858441 
1.84273 24.432 -2.30231 0 0 1.5 0.029543 0.113832 
1.59619 24.0976 -2.41559 0 0 1.5 0.0252601 0.157145 
1.34965 23.7632 -2.52887 0 0 1.5 0.0168808 0.354632 
1.10311 23.4289 -2.64214 0 0 1.5 0.0130121 0.596444 
0.856564 23.0945 -2.75542 0 0 1.5 0.00976023 1.05763 
0.610021 22.7601 -2.8687 0 0 1.5 0.00793427 1.59362 
0.363478 22.4257 -2.98198 0 0 1.5 0.0110003 0.819112 
0.116935 22.0914 -3.09525 0 0 1.5 0.0144244 0.474405 
-0.129607 21.757 -3.20853 0 0 1.5 0.0181703 0.298389 
-0.37615 21.4226 -3.32181 0 0 1.5 0.0257125 0.150069 
-0.622693 21.0882 -3.43508 0 0 1.5 0.0292884 0.117206 
-0.869235 20.7539 -3.54836 0 0 1.5 0.0326393 0.0962657 
-1.11578 20.4195 -3.66164 0 0 1.5 0.0356991 0.0825595 
-1.36232 20.0851 -3.77491 0 0 1.5 0.0407026 0.0683866 
-1.60886 19.7507 -3.88819 0 0 1.5 0.0425382 0.0655894 
-1.85541 19.4164 -4.00147 0 0 1.5 0.0438668 0.0647635 
-2.10195 19.082 -4.11474 0 0 1.5 0.0446484 0.0658522 
-2.34849 18.7476 -4.22802 0 0 1.5 0.0444399 0.0743963 
-2.59503 18.4133 -4.3413 0 0 1.5 0.0434026 0.082469 
-2.84158 18.0789 -4.45458 0 0 1.5 0.0417234 0.0944575 
-3.08812 17.7445 -4.56785 0 0 1.5 0.0364278 0.139662 
-3.33466 17.4101 -4.68113 0 0 1.5 0.0328627 0.181863 
-3.58121 17.0758 -4.79441 0 0 1.5 0.0287737 0.251781 
-3.82775 16.7414 -4.90768 0 0 1.5 0.0242935 0.376608 
-4.07443 16.407 -5.02065 0 0 1.5 0.0158058 1.02212 
-4.3501 16.0795 -5.06723 0 0 1.5 0.0141718 1.37445 
-4.62593 15.7522 -5.11338 0 0 1.5 0.0165175 1.1049 
-4.92043 15.438 -5.10977 0 0 1.5 0.0223813 0.663603 
-5.21619 15.1253 -5.10315 0 0 1.5 0.0398384 0.262839 
-5.52271 14.8246 -5.07069 0 0 1.5 0.0503901 0.187872 
-5.83158 14.5266 -5.03667 0 0 1.5 0.0619511 0.144044 
-6.14614 14.235 -4.99889 0 0 1.5 0.0744693 0.116899 
-6.46306 13.9448 -4.97338 0 0 1.5 0.102249 0.0885149 
-6.78149 13.6554 -4.95761 0 0 1.5 0.117423 0.0814002 
-7.09531 13.3623 -4.98999 0 0 1.5 0.133335 0.0769231 
-7.39563 13.066 -5.06693 0 0 1.5 0.16661 0.0736424 
-7.67496 12.7674 -5.1954 0 0 1.5 0.183357 0.0740139 
-7.91871 12.4687 -5.38717 0 0 1.5 0.199613 0.0752103 
-8.10393 12.1764 -5.64205 0 0 1.5 0.21483 0.0771256 
-8.25005 11.8896 -5.92526 0 0 1.5 0.239579 0.0826818 
-8.36385 11.6074 -6.23001 0 0 1.5 0.247859 0.0858922 
-8.41821 11.3337 -6.55783 0 0 1.5 0.252746 0.0893028 
-8.45387 11.0625 -6.88935 0 0 1.5 0.253971 0.0929448 
-8.45165 10.7965 -7.22794 0 0 1.5 0.245653 0.100379 
-8.42109 10.5347 -7.56738 0 0 1.5 0.236868 0.104184 
-8.36602 10.2765 -7.90758 0 0 1.5 0.225763 0.108299 
-8.27608 10.0245 -8.24408 0 0 1.5 0.199212 0.117917 
-8.16912 9.77564 -8.57878 0 0 1.5 0.18501 0.123806 
-8.02374 9.53489 -8.90405 0 0 1.5 0.170866 0.13082 
-7.86599 9.29677 -9.22628 0 0 1.5 0.157156 0.139147 
-7.66984 9.06784 -9.53306 0 0 1.5 0.132185 0.160238 
-7.46462 8.84107 -9.83618 0 0 1.5 0.121333 0.173219 
-7.22533 8.62276 -10.1193 0 0 1.5 0.111778 0.187464 
-6.97934 8.40611 -10.3986 0 0 1.5 0.103674 0.202042 
-6.70741 8.19513 -10.6569 0 0 1.5 0.0924379 0.226005 
-6.43018 7.98531 -10.9109 0 0 1.5 0.0896114 0.231108 
-6.13668 7.77705 -11.147 0 0 1.5 0.0888254 0.229029 
-5.83874 7.56922 -11.3783 0 0 1.5 0.0936261 0.203625 
-5.53296 7.35892 -11.5964 0 0 1.5 0.0992025 0.184145 
-5.22387 7.14757 -11.8091 0 0 1.5 0.106845 0.163542 
-4.91261 6.93082 -12.0127 0 0 1.5 0.116525 0.143705 
-4.59989 6.71042 -12.2103 0 0 1.5 0.142057 0.110099 
-4.28795 6.48281 -12.4006 0 0 1.5 0.158064 0.0968728 
-3.9768 6.24805 -12.5836 0 0 1.5 0.176401 0.0857681 
-3.66783 6.00412 -12.7576 0 0 1.5 0.197223 0.0764386 
-3.36137 5.74958 -12.921 0 0 1.5 0.246935 0.0621468 
-3.0585 5.48143 -13.0671 0 0 1.5 0.276008 0.0565786 
-2.75869 5.2016 -13.1984 0 0 1.5 0.307777 0.051644 
-2.46682 4.89852 -13.286 0 0 1.5 0.341851 0.0471523 
-2.18218 4.58268 -13.3398 0 0 1.5 0.41357 0.0386569 
-1.91395 4.24626 -13.3225 0 0 1.5 0.448295 0.0341785 
-1.68951 3.90736 -13.1871 0 0 1.5 0.479489 0.0293463 
-1.52924 3.59917 -12.9441 0 0 1.5 0.522041 0.0183038 
-1.44428 3.34386 -12.6163 0 0 1.5 0.529574 0.0120686 
-1.42471 3.1419 -12.2396 0 0 1.5 0.526777 0.00549684 
-1.46737 2.99419 -11.8373 0 0 1.5 0.514237 -0.00124955 
-1.56186 2.88855 -11.4322 0 0 1.5 0.466691 -0.0147634 
-1.67953 2.80064 -11.0282 0 0 1.5 0.436035 -0.0212278 
-1.8422 2.74406 -10.6336 0 0 1.5 0.403632 -0.0272928 
-2.02485 2.69982 -10.2472 0 0 1.5 0.371145 -0.033057 
-2.23498 2.67258 -9.87237 0 0 1.5 0.310071 -0.0441631 
-2.4688 2.66095 -9.51201 0 0 1.5 0.282544 -0.0496352 
-2.72036 2.66101 -9.16253 0 0 1.5 0.257255 -0.0553274 
-2.99462 2.68148 -8.83219 0 0 1.5 0.213061 -0.0683589 
-3.28033 2.71222 -8.51149 0 0 1.5 0.193834 -0.0759409 
-3.58377 2.77012 -8.21245 0 0 1.5 0.176279 -0.0847208 
-3.89384 2.83816 -7.92151 0 0 1.5 0.160207 -0.0952789 
-4.21305 2.94067 -7.65223 0 0 1.5 0.131844 -0.124188 
-4.53492 3.0532 -7.38924 0 0 1.5 0.11933 -0.144418 
-4.85457 3.20552 -7.14515 0 0 1.5 0.107837 -0.17045 
-5.17371 3.36724 -6.90553 0 0 1.5 0.0973603 -0.204004 
-5.47874 3.56924 -6.67938 0 0 1.5 0.079954 -0.298792 
-5.78072 3.77994 -6.45615 0 0 1.5 0.0735377 -0.358346 
-6.05959 4.02524 -6.23925 0 0 1.5 0.0691852 -0.416517 
-6.33273 4.2791 -6.02393 0 0 1.5 0.0686462 -0.465913 
-6.57943 4.55721 -5.80771 0 0 1.5 0.0730494 -0.440402 
-6.81654 4.84411 -5.59117 0 0 1.5 0.0805039 -0.392865 
-7.02974 5.14377 -5.36826 0 0 1.5 0.0907308 -0.338532 
-7.22817 5.45131 -5.14141 0 0 1.5 0.118261 -0.244561 
-7.40845 5.76245 -4.90552 0 0 1.5 0.135029 -0.209523 
-7.56852 6.07759 -4.65959 0 0 1.5 0.153483 -0.181433 
-7.71594 6.3906 -4.40421 0 0 1.5 0.173342 -0.158694 
-7.83874 6.69946 -4.13045 0 0 1.5 0.215528 -0.123979 
-7.95123 7.00209 -3.84667 0 0 1.5 0.236563 -0.110199 
-8.03637 7.28819 -3.53631 0 0 1.5 0.256381 -0.0977076 
-8.10745 7.55892 -3.21106 0 0 1.5 0.273902 -0.0858769 
-8.15099 7.79951 -2.8566 0 0 1.5 0.29784 -0.0640075 
-8.16578 7.99542 -2.47678 0 0 1.5 0.30274 -0.0536545 
-8.15941 8.15839 -2.07826 0 0 1.5 0.302533 -0.0433804 
-8.0957 8.2108 -1.65588 0 0 1.5 0.288365 -0.0243691 
-8.00338 8.20065 -1.24082 0 0 1.5 0.276143 -0.0157601 
-7.88345 8.12988 -0.83337 0 0 1.5 0.261915 -0.00750086 
-7.72223 7.96608 -0.469228 0 0 1.5 0.246743 0.000220859 
-7.55052 7.78255 -0.121425 0 0 1.5 0.217342 0.0135112 
-7.36117 7.56592 0.198944 0 0 1.5 0.204592 0.0192085 
-7.15969 7.33644 0.501782 0 0 1.5 0.193888 0.023992 
-6.94923 7.09747 0.791634 0 0 1.5 0.185662 0.0274356 
-6.72756 6.85635 1.07091 0 0 1.5 0.177858 0.029168 
-6.49908 6.61392 1.34377 0 0 1.5 0.178638 0.0272075 
-6.26103 6.37546 1.6117 0 0 1.5 0.182596 0.023568 
-6.01587 6.13994 1.87599 0 0 1.5 0.199562 0.0122817 
-5.7622 5.90971 2.13667 0 0 1.5 0.212068 0.00547484 
-5.50027 5.68463 2.39387 0 0 1.5 0.226745 -0.00153762 
-5.2287 5.46333 2.64397 0 0 1.5 0.243051 -0.00880822 
-4.94787 5.24568 2.88725 0 0 1.5 0.27748 -0.0244066 
-4.65128 5.02634 3.10858 0 0 1.5 0.293575 -0.0324682 
-4.34519 4.80488 3.3142 0 0 1.5 0.307296 -0.0408953 
-4.0146 4.56581 3.45195 0 0 1.5 0.317318 -0.0499125 
-3.6796 4.30511 3.48599 0 0 1.5 0.321959 -0.0688956 
-3.37802 4.03358 3.37535 0 0 1.5 0.315601 -0.0788421 
-3.14232 3.77152 3.13963 0 0 1.5 0.3037 -0.0895049 
-2.96364 3.52508 2.83621 0 0 1.5 0.287067 -0.101089 
-2.84745 3.29729 2.48975 0 0 1.5 0.244484 -0.128779 
-2.75042 3.07228 2.13641 0 0 1.5 0.221013 -0.146911 
-2.67742 2.85076 1.77445 0 0 1.5 0.197487 -0.169628 
-2.61812 2.62624 1.41209 0 0 1.5 0.153447 -0.236039 
-2.57206 2.39881 1.04935 0 0 1.5 0.134089 -0.284854 
-2.5328 2.16554 0.68975 0 0 1.5 0.117149 -0.347018 
-2.50483 1.92256 0.335353 0 0 1.5 0.103191 -0.420739 
-2.47875 1.67622 -0.016684 0 0 1.5 0.0869838 -0.546571 
-2.46434 1.40926 -0.354242 0 0 1.5 0.0859606 -0.550958 
-2.44992 1.1423 -0.6918 0 0 1.5 0.0898113 -0.505878 
-2.44582 0.847304 -1.00517 0 0 1.5 0.0979734 -0.43351 
-2.44299 0.548855 -1.31556 0 0 1.5 0.123988 -0.295524 
-2.44784 0.224379 -1.5974 0 0 1.5 0.140456 -0.24631 
-2.45603 -0.111447 -1.8668 0 0 1.5 0.158543 -0.209409 
-2.47068 -0.470794 -2.10102 0 0 1.5 0.197663 -0.162276 
-2.48961 -0.845731 -2.31194 0 0 1.5 0.217618 -0.14797 
-2.51432 -1.24124 -2.47534 0 0 1.5 0.236941 -0.137697 
-2.54262 -1.64949 -2.60932 0 0 1.5 0.254763 -0.130418 
-2.57502 -2.0714 -2.67763 0 0 1.5 0.282092 -0.12235 
-2.60898 -2.49844 -2.72125 0 0 1.5 0.289915 -0.12054 
-2.64236 -2.92493 -2.68161 0 0 1.5 0.293051 -0.119765 
-2.67504 -3.35001 -2.62561 0 0 1.5 0.291332 -0.119846 
-2.69962 -3.75798 -2.49004 0 0 1.5 0.274828 -0.122002 
-2.72 -4.15852 -2.33708 0 0 1.5 0.261524 -0.124044 
-2.72722 -4.53577 -2.1296 0 0 1.5 0.24607 -0.126791 
-2.72459 -4.89889 -1.90079 0 0 1.5 0.212372 -0.134437 
-2.70623 -5.23943 -1.63789 0 0 1.5 0.19561 -0.139393 
-2.67171 -5.56152 -1.35589 0 0 1.5 0.179611 -0.145103 
-2.62099 -5.86509 -1.05474 0 0 1.5 0.164732 -0.151414 
-2.54871 -6.14961 -0.740826 0 0 1.5 0.139183 -0.164375 
-2.46115 -6.42064 -0.417878 0 0 1.5 0.128721 -0.170057 
-2.3488 -6.67563 -0.0903301 0 0 1.5 0.119843 -0.174414 
-2.22286 -6.92183 0.23974 0 0 1.5 0.112531 -0.176482 
-2.07168 -7.15695 0.566737 0 0 1.5 0.102369 -0.170489 
-1.90879 -7.38693 0.892308 0 0 1.5 0.0993103 -0.161999 
-1.72265 -7.61062 1.20925 0 0 1.5 0.0974146 -0.149916 
-1.52649 -7.83159 1.52248 0 0 1.5 0.0965141 -0.134651 
-1.31032 -8.0492 1.82431 0 0 1.5 0.0969686 -0.0993668 
-1.08543 -8.26533 2.12118 0 0 1.5 0.097974 -0.0808914 
-0.84345 -8.47825 2.40637 0 0 1.5 0.0992849 -0.0621673 
-0.593501 -8.68966 2.6861 0 0 1.5 0.102269 -0.026321 
-0.328028 -8.89531 2.95528 0 0 1.5 0.103718 -0.00940725 
-0.0547147 -9.09806 3.21912 0 0 1.5 0.105017 0.00721817 
0.234022 -9.29034 3.47379 0 0 1.5 0.106097 0.0233417 
0.530829 -9.47714 3.72365 0 0 1.5 0.107412 0.0535269 
0.84379 -9.6469 3.96521 0 0 1.5 0.10759 0.0679559 
1.16473 -9.80824 4.20268 0 0 1.5 0.107432 0.0817846 
1.50205 -9.94481 4.43201 0 0 1.5 0.106937 0.0947102 
1.84612 -10.0712 4.65798 0 0 1.5 0.104975 0.117492 
2.20493 -10.1653 4.87572 0 0 1.5 0.103536 0.127047 
2.56823 -10.2496 5.09095 0 0 1.5 0.101809 0.135134 
2.94211 -10.2974 5.29842 0 0 1.5 0.0975355 0.146068 
3.31815 -10.3377 5.50431 0 0 1.5 0.0949975 0.148887 
3.69924 -10.3418 5.70429 0 0 1.5 0.0921894 0.150258 
4.081 -10.3411 5.90348 0 0 1.5 0.0891042 0.150142 
4.46272 -10.3092 6.09995 0 0 1.5 0.0820578 0.145961 
4.84443 -10.2743 6.29616 0 0 1.5 0.0780733 0.143039 
5.22268 -10.2156 6.4933 0 0 1.5 0.0737703 0.139943 
5.60062 -10.155 6.69053 0 0 1.5 0.069142 0.136892 
5.97339 -10.0784 6.89194 0 0 1.5 0.0589136 0.135507 
6.34567 -10.0002 7.09375 0 0 1.5 0.0533458 0.139566 
6.71241 -9.91285 7.30175 0 0 1.5 0.0475044 0.148951 
7.07853 -9.82442 7.51045 0 0 1.5 0.0351446 0.20482 
7.43954 -9.7315 7.72598 0 0 1.5 0.0287664 0.276492 
7.7999 -9.63802 7.94236 0 0 1.5 0.0224399 0.42454 
8.15612 -9.5431 8.16487 0 0 1.5 0.0165406 0.754554 
8.5118 -9.448 8.38818 0 0 1.5 0.011639 1.5322 
8.86481 -9.35314 8.61578 0 0 1.5 0.0156663 0.865492 
9.21748 -9.25831 8.84394 0 0 1.5 0.022052 0.447648 
9.56936 -9.16544 9.0741 0 0 1.5 0.0294329 0.255524 
9.92113 -9.07284 9.30454 0 0 1.5 0.045544 0.104231 
10.2744 -8.98524 9.53469 0 0 1.5 0.0540011 0.0698107 
10.6278 -8.89846 9.76479 0 0 1.5 0.0626399 0.0463615 
10.9848 -8.82182 9.99297 0 0 1.5 0.0714132 0.02909 
11.3426 -8.74729 10.2208 0 0 1.5 0.0891683 0.0042364 
11.7052 -8.69013 10.4456 0 0 1.5 0.0980356 -0.00520607 
12.0692 -8.63758 10.6697 0 0 1.5 0.1068 -0.0136318 
12.4377 -8.61127 10.8902 0 0 1.5 0.123644 -0.0289929 
12.8078 -8.59319 11.1097 0 0 1.5 0.131509 -0.035985 
13.1798 -8.61204 11.3247 0 0 1.5 0.138845 -0.0428135 
13.5524 -8.64253 11.5384 0 0 1.5 0.145524 -0.0497123 
13.9201 -8.72267 11.7461 0 0 1.5 0.156445 -0.0630523 
14.2867 -8.81491 11.9524 0 0 1.5 0.160516 -0.0694563 
14.6357 -8.96967 12.1503 0 0 1.5 0.163573 -0.0758619 
14.9819 -9.13323 12.3469 0 0 1.5 0.165588 -0.0821185 
15.2938 -9.36439 12.5332 0 0 1.5 0.166619 -0.0936171 
15.5983 -9.6048 12.7181 0 0 1.5 0.165763 -0.0989373 
15.8626 -9.89504 12.895 0 0 1.5 0.164115 -0.103862 
16.1124 -10.1971 13.0706 0 0 1.5 0.158981 -0.111888 
16.3235 -10.5307 13.2426 0 0 1.5 0.155766 -0.114859 
16.516 -10.874 13.4151 0 0 1.5 0.152285 -0.117047 
16.6746 -11.2347 13.5887 0 0 1.5 0.148662 -0.118332 
16.8141 -11.6007 13.7658 0 0 1.5 0.141378 -0.117668 
16.925 -11.9747 13.9482 0 0 1.5 0.13785 -0.115731 
17.0187 -12.3498 14.1366 0 0 1.5 0.134458 -0.112891 
17.0884 -12.7263 14.3335 0 0 1.5 0.131225 -0.109053 
17.1434 -13.1008 14.5379 0 0 1.5 0.125224 -0.0984101 
17.1784 -13.4724 14.7526 0 0 1.5 0.122413 -0.0921391 
17.2006 -13.84 14.9751 0 0 1.5 0.119683 -0.0852907 
17.2058 -14.2022 15.2078 0 0 1.5 0.116991 -0.0778244 
17.1987 -14.5595 15.4475 0 0 1.5 0.111529 -0.0623789 
17.1766 -14.9108 15.6956 0 0 1.5 0.108677 -0.0546522 
17.1406 -15.2569 15.9487 0 0 1.5 0.105694 -0.0468008 
17.0902 -15.5978 16.207 0 0 1.5 0.0992114 -0.0316784 
17.0212 -15.9335 16.467 0 0 1.5 0.0956809 -0.0245454 
16.9381 -16.2654 16.7285 0 0 1.5 0.0919471 -0.0175447 
16.8284 -16.5921 16.986 0 0 1.5 0.0880094 -0.0107199 
16.7061 -16.9163 17.2416 0 0 1.5 0.0795762 0.00229735 
16.5456 -17.234 17.4832 0 0 1.5 0.0751206 0.0086708 
16.3771 -17.5504 17.7218 0 0 1.5 0.0705378 0.0151183 
16.1577 -17.8565 17.9306 0 0 1.5 0.0658585 0.0217861 
15.9381 -18.1626 18.1392 0 0 1.5 0.0563472 0.0361952 
15.7185 -18.4687 18.3478 0 0 1.5 0.0515859 0.0444004 
15.4989 -18.7748 18.5564 0 0 1.5 0.0468671 0.0538927 
15.2794 -19.0808 18.765 0 0 1.5 0.0377011 0.0782003 
15.0598 -19.3869 18.9736 0 0 1.5 0.0333273 0.0945446 
14.8402 -19.693 19.1822 0 0 1.5 0.0291345 0.115844 
14.6206 -19.9991 19.3908 0 0 1.5 0.0251539 0.144099 
14.401 -20.3052 19.5994 0 0 1.5 0.0179828 0.235161 
14.1814 -20.6112 19.808 0 0 1.5 0.0148805 0.310726 
13.9618 -20.9173 20.0166 0 0 1.5 0.0121788 0.416981 
13.7422 -21.2234 20.2252 0 0 1.5 0.00996665 0.555238 
13.5226 -21.5295 20.4338 0 0 1.5 0.00742687 0.785044 
13.3031 -21.8356 20.6424 0 0 1.5 0.0071708 0.743146 
13.0835 -22.1416 20.851 0 0 1.5 0.00741595 0.610688 
12.8639 -22.4477 21.0597 0 0 1.5 0.00850614 0.357523 
12.6443 -22.7538 21.2683 0 0 1.5 0.00904237 0.277906 
12.4247 -23.0599 21.4769 0 0 1.5 0.00946924 0.222504 
12.2051 -23.366 21.6855 0 0 1.5 0.00975519 0.18432 
11.9855 -23.672 21.8941 0 0 1.5 0.00987794 0.140368 
11.7659 -23.9781 22.1027 0 0 1.5 0.00972677 0.128291 
11.5463 -24.2842 22.3113 0 0 1.5 0.00945027 0.120766 
11.3268 -24.5903 22.5199 0 0 1.5 0.00906396 0.117192 
11.1072 -24.8964 22.7285 0 0 1.5 0.00803271 0.119751 
10.8876 -25.2024 22.9371 0 0 1.5 0.00742509 0.125849 
10.668 -25.5085 23.1457 0 0 1.5 0.00677883 0.136108 
10.4484 -25.8146 23.3543 0 0 1.5 0.00611053 0.151303 
10.2288 -26.1207 23.5629 0 0 1.5 0.00477764 0.202124 
10.0092 -26.4268 23.7715 0 0 1.5 0.00414562 0.244132 
9.78963 -26.7328 23.9801 0 0 1.5 0.00355926 0.302441 
9.57004 -27.0389 24.1887 0 0 1.5 0.00261738 0.470823 
9.35045 -27.345 24.3974 0 0 1.5 0.00231766 0.556519 
9.13086 -27.6511 24.606 0 0 1.5 0.00216557 0.595011 
8.91127 -27.9571 24.8146 0 0 1.5 0.00216352 0.559954 
8.69168 -28.2632 25.0232 0 0 1.5 0.00248763 0.385098 
8.47209 -28.5693 25.2318 0 0 1.5 0.00273723 0.308286 
8.2525 -28.8754 25.4404 0 0 1.5 0.00300789 0.249533 
8.03291 -29.1815 25.649 0 0 1.5 0.00328388 0.206446 
7.81332 -29.4875 25.8576 0 0 1.5 0.00382369 0.151865 
7.59374 -29.7936 26.0662 0 0 1.5 0.00408274 0.134037 
7.37415 -30.0997 26.2748 0 0 1.5 0.00433448 0.120077 
7.15456 -30.4058 26.4834 0 0 1.5 0.0048212 0.099683 
6.93497 -30.7119 26.692 0 0 1.5 0.00505998 0.0916963 
6.71538 -31.0179 26.9006 0 0 1.5 0.00529844 0.0846738 
6.49579 -31.324 27.1092 0 0 1.5 0.00553796 0.0784608 
6.2762 -31.6301 27.3178 0 0 1.5 0.00602527 0.0676143 
6.05661 -31.9362 27.5265 0 0 1.5 0.00627556 0.0627911 
5.83702 -32.2423 27.7351 0 0 1.5 0.006531 0.0583839 
5.61743 -32.5483 27.9437 0 0 1.5 0.00679176 0.0543303 
5.39784 -32.8544 28.1523 0 0 1.5 0.00733011 0.0471246 
5.17825 -33.1605 28.3609 0 0 1.5 0.00760768 0.0439773 
4.95867 -33.4666 28.5695 0 0 1.5 0.00789057 0.0411058 
0 1 0 
1 2 0 
2 3 0 
3 4 0 
4 5 0 
5 6 0 
6 7 0 
7 8 0 
8 9 0 
9 10 0 
10 11 0 
11 12 0 
12 13 0 
13 14 0 
14 15 0 
15 16 0 
16 17 0 
17 18 0 
18 19 0 
19 20 0 
20 21 0 
21 22 0 
22 23 0 
23 24 0 
24 25 0 
25 26 0 
26 27 0 
27 28 0 
28 29 0 
29 30 0 
30 31 0 
31 32 0 
32 33 0 
33 34 0 
34 35 0 
35 36 0 
36 37 0 
37 38 0 
38 39 0 
39 40 0 
40 41 0 
41 42 0 
42 43 0 
43 44 0 
44 45 0 
45 46 0 
46 47 0 
47 48 0 
48 49 0 
49 50 0 
50 51 0 
51 52 0 
52 53 0 
53 54 0 
54 55 0 
55 56 0 
56 57 0 
57 58 0 
58 59 0 
59 60 0 
60 61 0 
61 62 0 
62 63 0 
63 64 0 
64 65 0 
65 66 0 
66 67 0 
67 68 0 
68 69 0 
69 70 0 
70 71 0 
71 72 0 
72 73 0 
73 74 0 
74 75 0 
75 76 0 
76 77 0 
77 78 0 
78 79 0 
79 80 0 
80 81 0 
81 82 0 
82 83 0 
83 84 0 
84 85 0 
85 86 0 
86 87 0 
87 88 0 
88 89 0 
89 90 0 
90 91 0 
91 92 0 
92 93 0 
93 94 0 
94 95 0 
95 96 0 
96 97 0 
97 98 0 
98 99 0 
99 100 0 
100 101 0 
101 102 0 
102 103 0 
103 104 0 
104 105 0 
105 106 0 
106 107 0 
107 108 0 
108 109 0 
109 110 0 
110 111 0 
111 112 0 
112 113 0 
113 114 0 
114 115 0 
115 116 0 
116 117 0 
117 118 0 
118 119 0 
119 120 0 
120 121 0 
121 122 0 
122 123 0 
123 124 0 
124 125 0 
125 126 0 
126 127 0 
127 128 0 
128 129 0 
129 130 0 
130 131 0 
131 132 0 
132 133 0 
133 134 0 
134 135 0 
135 136 0 
136 137 0 
137 138 0 
138 139 0 
139 140 0 
140 141 0 
141 142 0 
142 143 0 
143 144 0 
144 145 0 
145 146 0 
146 147 0 
147 148 0 
148 149 0 
149 150 0 
150 151 0 
151 152 0 
152 153 0 
153 154 0 
154 155 0 
155 156 0 
156 157 0 
157 158 0 
158 159 0 
159 160 0 
160 161 0 
161 162 0 
162 163 0 
163 164 0 
164 165 0 
165 166 0 
166 167 0 
167 168 0 
168 169 0 
169 170 0 
170 171 0 
171 172 0 
172 173 0 
173 174 0 
174 175 0 
175 176 0 
176 177 0 
177 178 0 
178 179 0 
179 180 0 
180 181 0 
181 182 0 
182 183 0 
183 184 0 
184 185 0 
185 186 0 
186 187 0 
187 188 0 
188 189 0 
189 190 0 
190 191 0 
191 192 0 
192 193 0 
193 194 0 
194 195 0 
195 196 0 
196 197 0 
197 198 0 
198 199 0 
199 200 0 
200 201 0 
201 202 0 
202 203 0 
203 204 0 
204 205 0 
205 206 0 
206 207 0 
207 208 0 
208 209 0 
209 210 0 
210 211 0 
211 212 0 
212 213 0 
213 214 0 
214 215 0 
215 216 0 
216 217 0 
217 218 0 
218 219 0 
219 220 0 
220 221 0 
221 222 0 
222 223 0 
223 224 0 
224 225 0 
225 226 0 
226 227 0 
227 228 0 
228 229 0 
229 230 0 
230 231 0 
231 232 0 
232 233 0 
233 234 0 
234 235 0 
235 236 0 
236 237 0 
237 238 0 
238 239 0 
239 240 0 
240 241 0 
241 242 0 
242 243 0 
243 244 0 
244 245 0 
245 246 0 
246 247 0 
247 248 0 
248 249 0 
249 250 0 
250 251 0 
251 252 0 
252 253 0 
253 254 0 
254 255 0 
255 256 0 
256 257 0 
257 258 0 
258 259 0 
259 260 0 
260 261 0 
261 262 0 
262 263 0 
263 264 0 
264 265 0 
265 266 0 
266 267 0 
267 268 0 
268 269 0 
269 270 0 
270 271 0 
271 272 0 
272 273 0 
273 274 0 
274 275 0 
275 276 0 
276 277 0 
277 278 0 
278 279 0 
279 280 0 
280 281 0 
281 282 0 
282 283 0 
283 284 0 
284 285 0 
285 286 0 
286 287 0 
287 288 0 
288 289 0 
289 290 0 
290 291 0 
291 292 0 
292 293 0 
293 294 0 
294 295 0 
295 296 0 
296 297 0 
297 298 0 
298 299 0 
-1 -1 0 
-1 300 0 1 2 3 4 5 6 7 8 9 10 11 12 13 14 15 16 17 18 19 20 21 22 23 24 25 26 27 28 29 30 31 32 33 34 35 36 37 38 39 40 41 42 43 44 45 46 47 48 49 50 51 52 53 54 55 56 57 58 59 60 61 62 63 64 65 66 67 68 69 70 71 72 73 74 75 76 77 78 79 80 81 82 83 84 85 86 87 88 89 90 91 92 93 94 95 96 97 98 99 100 101 102 103 104 105 106 107 108 109 110 111 112 113 114 115 116 117 118 119 120 121 122 123 124 125 126 127 128 129 130 131 132 133 134 135 136 137 138 139 140 141 142 143 144 145 146 147 148 149 150 151 152 153 154 155 156 157 158 159 160 161 162 163 164 165 166 167 168 169 170 171 172 173 174 175 176 177 178 179 180 181 182 183 184 185 186 187 188 189 190 191 192 193 194 195 196 197 198 199 200 201 202 203 204 205 206 207 208 209 210 211 212 213 214 215 216 217 218 219 220 221 222 223 224 225 226 227 228 229 230 231 232 233 234 235 236 237 238 239 240 241 242 243 244 245 246 247 248 249 250 251 252 253 254 255 256 257 258 259 260 261 262 263 264 265 266 267 268 269 270 271 272 273 274 275 276 277 278 279 280 281 282 283 284 285 286 287 288 289 290 291 292 293 294 295 296 297 298 299 
