ply
format ascii 1.0
comment written by koba@oshima.lab
element vertex 300
property float x
property float y
property float z
property int label
property int attribute
property float radius
property float curvature
property float torsion
element edge 300
property int vertex1
property int vertex2
property int label
element vertex_seq 1
property int label
property list int int vertex_indices
end_header
-1.1098 25.6541 -17.1957 0 0 1.5 0.0263364 0.0269778 
-1.19696 25.3839 -16.9953 0 0 1.5 0.0256705 0.0285884 
-1.28413 25.1137 -16.7949 0 0 1.5 0.0249953 0.0307149 
-1.3713 24.8436 -16.5946 0 0 1.5 0.0243044 0.0334496 
-1.45847 24.5734 -16.3942 0 0 1.5 0.0228511 0.0412094 
-1.54564 24.3032 -16.1938 0 0 1.5 0.0220768 0.0465257 
-1.6328 24.033 -15.9934 0 0 1.5 0.0212632 0.0531064 
-1.71997 23.7628 -15.7931 0 0 1.5 0.020406 0.0612853 
-1.80714 23.4926 -15.5927 0 0 1.5 0.0185497 0.0838851 
-1.89431 23.2224 -15.3923 0 0 1.5 0.0175488 0.0995915 
-1.98148 22.9523 -15.1919 0 0 1.5 0.0165035 0.119624 
-2.06864 22.6821 -14.9915 0 0 1.5 0.0154232 0.145168 
-2.15581 22.4119 -14.7912 0 0 1.5 0.0132346 0.21953 
-2.24298 22.1417 -14.5908 0 0 1.5 0.012197 0.272299 
-2.33015 21.8715 -14.3904 0 0 1.5 0.0112776 0.334973 
-2.41732 21.6013 -14.19 0 0 1.5 0.010182 0.452857 
-2.50449 21.3311 -13.9896 0 0 1.5 0.0102276 0.472099 
-2.59165 21.061 -13.7893 0 0 1.5 0.0107724 0.448378 
-2.67882 20.7908 -13.5889 0 0 1.5 0.0118115 0.393824 
-2.76599 20.5206 -13.3885 0 0 1.5 0.0151081 0.2724 
-2.85316 20.2504 -13.1881 0 0 1.5 0.0172113 0.225264 
-2.94033 19.9802 -12.9877 0 0 1.5 0.0195282 0.188895 
-3.02749 19.71 -12.7874 0 0 1.5 0.0220068 0.161691 
-3.11466 19.4399 -12.587 0 0 1.5 0.0272991 0.127022 
-3.20183 19.1697 -12.3866 0 0 1.5 0.030049 0.116585 
-3.289 18.8995 -12.1862 0 0 1.5 0.0328294 0.109436 
-3.37617 18.6293 -11.9858 0 0 1.5 0.0383928 0.102379 
-3.46333 18.3591 -11.7855 0 0 1.5 0.0411331 0.101514 
-3.5505 18.0889 -11.5851 0 0 1.5 0.0438177 0.102171 
-3.63767 17.8187 -11.3847 0 0 1.5 0.0464299 0.10426 
-3.72484 17.5486 -11.1843 0 0 1.5 0.0513897 0.112176 
-3.81201 17.2784 -10.9839 0 0 1.5 0.0537211 0.118007 
-3.89918 17.0082 -10.7836 0 0 1.5 0.0559517 0.125209 
-3.98634 16.738 -10.5832 0 0 1.5 0.0580896 0.133662 
-4.07351 16.4678 -10.3828 0 0 1.5 0.0621687 0.154115 
-4.16068 16.1976 -10.1824 0 0 1.5 0.0641735 0.166291 
-4.24785 15.9274 -9.98205 0 0 1.5 0.0662178 0.179416 
-4.37115 15.6568 -9.8027 0 0 1.5 0.0683703 0.19301 
-4.5076 15.3873 -9.63174 0 0 1.5 0.0733368 0.220707 
-4.66408 15.1203 -9.47384 0 0 1.5 0.0763499 0.233544 
-4.83697 14.8572 -9.32727 0 0 1.5 0.0798727 0.244369 
-5.01743 14.5961 -9.18593 0 0 1.5 0.0889414 0.258778 
-5.21531 14.3414 -9.05662 0 0 1.5 0.0947299 0.261599 
-5.41594 14.088 -8.92912 0 0 1.5 0.101507 0.261037 
-5.62963 13.8413 -8.80994 0 0 1.5 0.109367 0.257691 
-5.84578 13.5961 -8.6921 0 0 1.5 0.128629 0.245153 
-6.07126 13.357 -8.57934 0 0 1.5 0.140113 0.236724 
-6.29942 13.1199 -8.4678 0 0 1.5 0.152827 0.227717 
-6.53488 12.8884 -8.35961 0 0 1.5 0.166716 0.218685 
-6.77335 12.6593 -8.25284 0 0 1.5 0.197504 0.20094 
-7.01793 12.4354 -8.14898 0 0 1.5 0.213944 0.192456 
-7.26676 12.2149 -8.0481 0 0 1.5 0.230612 0.184394 
-7.52065 11.9985 -7.95078 0 0 1.5 0.262586 0.169432 
-7.78201 11.7874 -7.86259 0 0 1.5 0.276647 0.162406 
-8.04863 11.5794 -7.78339 0 0 1.5 0.288501 0.155632 
-8.32418 11.3759 -7.72487 0 0 1.5 0.297484 0.149228 
-8.60359 11.1731 -7.73426 0 0 1.5 0.305016 0.137589 
-8.77569 10.9768 -7.93316 0 0 1.5 0.30315 0.13228 
-8.68195 10.8273 -8.22758 0 0 1.5 0.297637 0.127499 
-8.51827 10.6682 -8.48856 0 0 1.5 0.288848 0.123422 
-8.33852 10.4853 -8.72261 0 0 1.5 0.263651 0.117671 
-8.16128 10.2691 -8.92896 0 0 1.5 0.248495 0.116318 
-7.99725 10.0282 -9.11689 0 0 1.5 0.23249 0.116216 
-7.84182 9.77346 -9.29444 0 0 1.5 0.200075 0.119977 
-7.7132 9.49171 -9.452 0 0 1.5 0.184481 0.124079 
-7.59587 9.20297 -9.60438 0 0 1.5 0.169682 0.129922 
-7.50043 8.90069 -9.74674 0 0 1.5 0.155879 0.13764 
-7.42022 8.59289 -9.88562 0 0 1.5 0.131889 0.158903 
-7.35598 8.2793 -10.0208 0 0 1.5 0.121994 0.172096 
-7.30556 7.96391 -10.1572 0 0 1.5 0.113711 0.18616 
-7.26531 7.64717 -10.2943 0 0 1.5 0.107225 0.199742 
-7.23307 7.33294 -10.4389 0 0 1.5 0.100449 0.217268 
-7.20503 7.02002 -10.5874 0 0 1.5 0.100515 0.217503 
-7.17406 6.71539 -10.7514 0 0 1.5 0.10304 0.21132 
-7.14228 6.41306 -10.9198 0 0 1.5 0.108063 0.199842 
-7.08776 6.12929 -11.1127 0 0 1.5 0.125535 0.169674 
-7.02029 5.85432 -11.3126 0 0 1.5 0.137946 0.155084 
-6.92418 5.59872 -11.5275 0 0 1.5 0.152848 0.142254 
-6.79077 5.36787 -11.7484 0 0 1.5 0.190598 0.123003 
-6.63454 5.15206 -11.9704 0 0 1.5 0.213812 0.116742 
-6.43251 4.96603 -12.1833 0 0 1.5 0.240226 0.112441 
-6.20496 4.79484 -12.3803 0 0 1.5 0.270082 0.109804 
-5.9575 4.63523 -12.5648 0 0 1.5 0.340701 0.109152 
-5.67577 4.49055 -12.7074 0 0 1.5 0.381292 0.110884 
-5.38355 4.3486 -12.8269 0 0 1.5 0.424766 0.113684 
-5.07599 4.21037 -12.9109 0 0 1.5 0.469998 0.117361 
-4.75909 4.07253 -12.9346 0 0 1.5 0.557503 0.126301 
-4.44327 3.935 -12.9155 0 0 1.5 0.593852 0.130806 
-4.13301 3.79793 -12.84 0 0 1.5 0.62066 0.134767 
-3.85544 3.66823 -12.6776 0 0 1.5 0.634555 0.139828 
-3.61397 3.54988 -12.4633 0 0 1.5 0.619804 0.140722 
-3.41164 3.44529 -12.2036 0 0 1.5 0.592369 0.140677 
-3.26396 3.36287 -11.9001 0 0 1.5 0.555265 0.140067 
-3.1669 3.30501 -11.5731 0 0 1.5 0.46592 0.139256 
-3.09769 3.26167 -11.2364 0 0 1.5 0.419738 0.139984 
-3.06832 3.24065 -10.8908 0 0 1.5 0.375337 0.14204 
-3.06408 3.2352 -10.5441 0 0 1.5 0.333873 0.145809 
-3.0751 3.23919 -10.1968 0 0 1.5 0.261834 0.159852 
-3.11216 3.25979 -9.85211 0 0 1.5 0.231432 0.170954 
-3.15408 3.2834 -9.50803 0 0 1.5 0.204581 0.185333 
-3.21383 3.31748 -9.16742 0 0 1.5 0.160661 0.225239 
-3.27655 3.3526 -8.82749 0 0 1.5 0.14318 0.251051 
-3.34863 3.39103 -8.48974 0 0 1.5 0.128474 0.280069 
-3.42317 3.42833 -8.15241 0 0 1.5 0.116445 0.310467 
-3.50207 3.46364 -7.81584 0 0 1.5 0.100181 0.361417 
-3.58251 3.49391 -7.47919 0 0 1.5 0.0957984 0.373408 
-3.66463 3.51866 -7.14245 0 0 1.5 0.0937166 0.372643 
-3.74758 3.53195 -6.80539 0 0 1.5 0.093685 0.359585 
-3.83105 3.53802 -6.46813 0 0 1.5 0.0984403 0.310412 
-3.91522 3.52281 -6.13151 0 0 1.5 0.10251 0.282604 
-3.99957 3.50173 -5.79508 0 0 1.5 0.10726 0.256319 
-4.08492 3.44537 -5.46298 0 0 1.5 0.112392 0.232829 
-4.17043 3.37818 -5.13349 0 0 1.5 0.122784 0.19651 
-4.25641 3.27944 -4.81161 0 0 1.5 0.127634 0.183369 
-4.34187 3.15588 -4.49922 0 0 1.5 0.132014 0.173038 
-4.42689 3.01151 -4.19478 0 0 1.5 0.138791 0.160022 
-4.50862 2.82985 -3.91063 0 0 1.5 0.140992 0.156773 
-4.58876 2.63625 -3.63389 0 0 1.5 0.14231 0.155349 
-4.66271 2.41028 -3.38048 0 0 1.5 0.142716 0.155655 
-4.73275 2.17303 -3.13721 0 0 1.5 0.140899 0.160946 
-4.79681 1.91845 -2.90954 0 0 1.5 0.138803 0.165641 
-4.85398 1.65221 -2.69418 0 0 1.5 0.136042 0.171563 
-4.90654 1.37821 -2.48703 0 0 1.5 0.132744 0.178553 
-4.94985 1.09544 -2.28998 0 0 1.5 0.125107 0.194824 
-4.99017 0.80985 -2.09617 0 0 1.5 0.121062 0.203558 
-5.0195 0.519675 -1.90732 0 0 1.5 0.117057 0.212235 
-5.04727 0.228852 -1.71917 0 0 1.5 0.109697 0.227078 
-5.06244 -0.0620906 -1.52978 0 0 1.5 0.106572 0.232014 
-5.07624 -0.352716 -1.33983 0 0 1.5 0.103934 0.234625 
-5.07754 -0.639627 -1.1438 0 0 1.5 0.101844 0.234334 
-5.07597 -0.925157 -0.945897 0 0 1.5 0.0994635 0.223832 
-5.06257 -1.205 -0.740325 0 0 1.5 0.0991903 0.214169 
-5.04379 -1.48195 -0.531516 0 0 1.5 0.0995064 0.202016 
-5.01416 -1.75304 -0.316158 0 0 1.5 0.100379 0.187811 
-4.9758 -2.01994 -0.097233 0 0 1.5 0.103607 0.15697 
-4.92819 -2.28241 0.125472 0 0 1.5 0.10585 0.141675 
-4.86758 -2.5404 0.350009 0 0 1.5 0.108434 0.126904 
-4.80015 -2.79604 0.575508 0 0 1.5 0.111304 0.113143 
-4.71448 -3.04809 0.798705 0 0 1.5 0.117681 0.0897623 
-4.62452 -3.29937 1.02118 0 0 1.5 0.121083 0.0801019 
-4.51152 -3.54858 1.23536 0 0 1.5 0.124562 0.0718143 
-4.39223 -3.79731 1.4463 0 0 1.5 0.131565 0.0592894 
-4.25311 -4.04452 1.64701 0 0 1.5 0.134997 0.0548666 
-4.10083 -4.28964 1.83987 0 0 1.5 0.138322 0.0515119 
-3.93323 -4.53234 2.0236 0 0 1.5 0.141495 0.0491083 
-3.74444 -4.76827 2.19436 0 0 1.5 0.147214 0.0469792 
-3.54648 -5.00128 2.35949 0 0 1.5 0.149672 0.0470446 
-3.31926 -5.21853 2.5073 0 0 1.5 0.151814 0.0476337 
-3.08456 -5.43017 2.65084 0 0 1.5 0.153606 0.0487411 
-2.8265 -5.62296 2.78118 0 0 1.5 0.156027 0.0523849 
-2.55724 -5.80292 2.90551 0 0 1.5 0.156605 0.0546514 
-2.2741 -5.96698 3.02241 0 0 1.5 0.156731 0.057193 
-1.97791 -6.11023 3.13282 0 0 1.5 0.155571 0.0630795 
-1.67541 -6.24342 3.24009 0 0 1.5 0.154272 0.0661894 
-1.36126 -6.35051 3.3424 0 0 1.5 0.1525 0.0694008 
-1.04511 -6.45284 3.44391 0 0 1.5 0.150263 0.0727527 
-0.720891 -6.52876 3.54323 0 0 1.5 0.144454 0.0797951 
-0.39592 -6.60073 3.64264 0 0 1.5 0.140924 0.0835233 
-0.0671084 -6.65235 3.74248 0 0 1.5 0.137007 0.0874801 
0.26223 -6.69813 3.84296 0 0 1.5 0.132731 0.0917611 
0.593001 -6.728 3.94518 0 0 1.5 0.123227 0.101754 
0.923801 -6.75046 4.0487 0 0 1.5 0.118063 0.107757 
1.25465 -6.7599 4.15453 0 0 1.5 0.112669 0.114761 
1.58487 -6.75999 4.26222 0 0 1.5 0.101342 0.1331 
1.91433 -6.74886 4.37214 0 0 1.5 0.0954863 0.145221 
2.24221 -6.72577 4.48435 0 0 1.5 0.0895567 0.160111 
2.56881 -6.69302 4.59841 0 0 1.5 0.0836028 0.178574 
2.89237 -6.64491 4.71509 0 0 1.5 0.0718519 0.230161 
3.21439 -6.58898 4.83311 0 0 1.5 0.0661919 0.265815 
3.53133 -6.51427 4.95397 0 0 1.5 0.0607991 0.309771 
3.84687 -6.43433 5.07561 0 0 1.5 0.0557966 0.362718 
4.15501 -6.33351 5.20043 0 0 1.5 0.0476031 0.488525 
4.46213 -6.22996 5.3257 0 0 1.5 0.0448068 0.547505 
4.76067 -6.10763 5.45477 0 0 1.5 0.0431514 0.586901 
5.05798 -5.98327 5.5846 0 0 1.5 0.0427845 0.594077 
5.34839 -5.84752 5.7187 0 0 1.5 0.0459627 0.50921 
5.63722 -5.71038 5.85472 0 0 1.5 0.0492596 0.439937 
5.9218 -5.56954 5.99589 0 0 1.5 0.0534326 0.370046 
6.2053 -5.4307 6.14105 0 0 1.5 0.0636404 0.253064 
6.48724 -5.29473 6.29195 0 0 1.5 0.069368 0.208446 
6.7694 -5.16819 6.45013 0 0 1.5 0.0753584 0.171753 
7.05172 -5.04848 6.61357 0 0 1.5 0.0815272 0.141835 
7.33566 -4.9513 6.78829 0 0 1.5 0.0941461 0.097585 
7.62005 -4.86236 6.96677 0 0 1.5 0.100496 0.0809617 
7.9052 -4.8091 7.1581 0 0 1.5 0.106816 0.067218 
8.18931 -4.77165 7.35348 0 0 1.5 0.113075 0.0560045 
8.47169 -4.76105 7.55572 0 0 1.5 0.125287 0.0391286 
8.74947 -4.77746 7.76299 0 0 1.5 0.131182 0.0329618 
9.0251 -4.80645 7.97259 0 0 1.5 0.136903 0.028225 
9.29175 -4.86519 8.18747 0 0 1.5 0.14772 0.0222596 
9.55575 -4.92934 8.4039 0 0 1.5 0.152762 0.0207888 
9.81196 -5.0085 8.6249 0 0 1.5 0.157524 0.0202359 
10.0627 -5.09235 8.85021 0 0 1.5 0.161977 0.0205426 
10.3074 -5.18142 9.0803 0 0 1.5 0.169832 0.0234834 
10.5418 -5.27235 9.31997 0 0 1.5 0.173162 0.0258526 
10.7722 -5.36403 9.56345 0 0 1.5 0.176043 0.0287904 
10.9828 -5.45421 9.82473 0 0 1.5 0.178433 0.0323169 
11.1842 -5.54355 10.0929 0 0 1.5 0.181586 0.0401531 
11.3666 -5.63112 10.3754 0 0 1.5 0.182286 0.04426 
11.5226 -5.71833 10.6728 0 0 1.5 0.182362 0.0485526 
11.6607 -5.80626 10.9788 0 0 1.5 0.180569 0.0566861 
11.762 -5.89855 11.2982 0 0 1.5 0.178687 0.0603147 
11.8332 -5.99985 11.622 0 0 1.5 0.176151 0.0637179 
11.882 -6.1096 11.9476 0 0 1.5 0.17297 0.0667446 
11.8963 -6.2387 12.2699 0 0 1.5 0.164805 0.0711589 
11.8893 -6.38778 12.5829 0 0 1.5 0.159896 0.0725862 
11.8685 -6.55105 12.8887 0 0 1.5 0.154492 0.073492 
11.8279 -6.74504 13.1741 0 0 1.5 0.148651 0.0738303 
11.7809 -6.95557 13.4456 0 0 1.5 0.135888 0.072598 
11.7275 -7.18275 13.703 0 0 1.5 0.129073 0.0710906 
11.6697 -7.43346 13.9361 0 0 1.5 0.122045 0.0691299 
11.6109 -7.69085 14.1618 0 0 1.5 0.114862 0.0665554 
11.5515 -7.96931 14.361 0 0 1.5 0.100218 0.0589975 
11.4927 -8.25181 14.5542 0 0 1.5 0.0928417 0.0541657 
11.4354 -8.5467 14.7289 0 0 1.5 0.0854814 0.048263 
11.3794 -8.84563 14.8966 0 0 1.5 0.0709331 0.0312646 
11.3255 -9.15154 15.0524 0 0 1.5 0.0638016 0.0194282 
11.2733 -9.46035 15.2027 0 0 1.5 0.0568028 0.00383284 
11.2231 -9.77262 15.3467 0 0 1.5 0.0499654 -0.0177578 
11.1749 -10.0861 15.4886 0 0 1.5 0.036905 -0.0926863 
11.1285 -10.4008 15.6286 0 0 1.5 0.0307704 -0.161416 
11.0841 -10.7144 15.7714 0 0 1.5 0.0249999 -0.274396 
11.041 -11.0276 15.9157 0 0 1.5 0.0197385 -0.469242 
10.9998 -11.3367 16.0688 0 0 1.5 0.0121126 -1.26984 
10.9592 -11.6446 16.2247 0 0 1.5 0.0110749 -1.46739 
10.9197 -11.9442 16.3962 0 0 1.5 0.0123198 -1.116 
10.88 -12.2415 16.5715 0 0 1.5 0.0182368 -0.417112 
10.8394 -12.5287 16.7629 0 0 1.5 0.0215778 -0.257043 
10.7971 -12.811 16.9607 0 0 1.5 0.0247898 -0.161421 
10.7523 -13.0852 17.1695 0 0 1.5 0.0277616 -0.101451 
10.7027 -13.352 17.3863 0 0 1.5 0.0327572 -0.0339345 
10.65 -13.6139 17.6086 0 0 1.5 0.0347122 -0.0138144 
10.588 -13.8677 17.8375 0 0 1.5 0.0362887 0.00125911 
10.5239 -14.1197 18.068 0 0 1.5 0.0374863 0.0129128 
10.4452 -14.3651 18.3011 0 0 1.5 0.0387577 0.02981 
10.3645 -14.6101 18.5339 0 0 1.5 0.0388529 0.0364821 
10.2683 -14.8517 18.7644 0 0 1.5 0.0386118 0.0424141 
10.172 -15.0933 18.9949 0 0 1.5 0.0380548 0.0477652 
10.0758 -15.3349 19.2253 0 0 1.5 0.0360903 0.0580918 
9.97958 -15.5765 19.4558 0 0 1.5 0.0347433 0.0634125 
9.88336 -15.8181 19.6863 0 0 1.5 0.0331951 0.0688554 
9.78713 -16.0597 19.9167 0 0 1.5 0.0296232 0.081636 
9.69091 -16.3013 20.1472 0 0 1.5 0.0276642 0.0895147 
9.59469 -16.5429 20.3777 0 0 1.5 0.0256328 0.098524 
9.49846 -16.7845 20.6082 0 0 1.5 0.0235594 0.109263 
9.40224 -17.0262 20.8386 0 0 1.5 0.0193939 0.139183 
9.30602 -17.2678 21.0691 0 0 1.5 0.0173539 0.159774 
9.20979 -17.5094 21.2996 0 0 1.5 0.0153758 0.186098 
9.11357 -17.751 21.53 0 0 1.5 0.0134804 0.220823 
9.01735 -17.9926 21.7605 0 0 1.5 0.0100272 0.328095 
8.92112 -18.2342 21.991 0 0 1.5 0.00852009 0.409775 
8.8249 -18.4758 22.2214 0 0 1.5 0.00719732 0.517369 
8.72868 -18.7174 22.4519 0 0 1.5 0.0052561 0.782195 
8.63245 -18.959 22.6824 0 0 1.5 0.00471449 0.870556 
8.53623 -19.2007 22.9128 0 0 1.5 0.00447249 0.86707 
8.44 -19.4423 23.1433 0 0 1.5 0.0044845 0.773286 
8.34378 -19.6839 23.3738 0 0 1.5 0.0049447 0.51057 
8.24756 -19.9255 23.6042 0 0 1.5 0.0052451 0.406993 
8.15133 -20.1671 23.8347 0 0 1.5 0.00552886 0.328607 
8.05511 -20.4087 24.0652 0 0 1.5 0.00577019 0.270392 
7.95889 -20.6503 24.2956 0 0 1.5 0.00607503 0.196411 
7.86266 -20.8919 24.5261 0 0 1.5 0.00613087 0.173362 
7.76644 -21.1335 24.7566 0 0 1.5 0.0061232 0.156149 
7.67022 -21.3751 24.987 0 0 1.5 0.00593118 0.134769 
7.57399 -21.6168 25.2175 0 0 1.5 0.00575685 0.12901 
7.47777 -21.8584 25.448 0 0 1.5 0.00553819 0.125654 
7.38155 -22.1 25.6785 0 0 1.5 0.00528152 0.124614 
7.28532 -22.3416 25.9089 0 0 1.5 0.00467805 0.129951 
7.1891 -22.5832 26.1394 0 0 1.5 0.00434366 0.13636 
7.09287 -22.8248 26.3699 0 0 1.5 0.00399582 0.145898 
6.99665 -23.0664 26.6003 0 0 1.5 0.00363977 0.159662 
6.90043 -23.308 26.8308 0 0 1.5 0.0029244 0.204711 
6.8042 -23.5496 27.0613 0 0 1.5 0.00257629 0.240414 
6.70798 -23.7913 27.2917 0 0 1.5 0.00224151 0.290535 
6.61176 -24.0329 27.5222 0 0 1.5 0.00192585 0.361003 
6.51553 -24.2745 27.7527 0 0 1.5 0.00138359 0.591612 
6.41931 -24.5161 27.9831 0 0 1.5 0.00117816 0.755299 
6.32309 -24.7577 28.2136 0 0 1.5 0.00103489 0.909801 
6.22686 -24.9993 28.4441 0 0 1.5 0.000972412 0.897281 
6.13064 -25.2409 28.6745 0 0 1.5 0.00103823 0.738322 
6.03442 -25.4825 28.905 0 0 1.5 0.00114166 0.574115 
5.93819 -25.7241 29.1355 0 0 1.5 0.00126374 0.440868 
5.84197 -25.9657 29.3659 0 0 1.5 0.0015175 0.272055 
5.74574 -26.2074 29.5964 0 0 1.5 0.00163742 0.220817 
5.64952 -26.449 29.8269 0 0 1.5 0.00174907 0.18266 
5.5533 -26.6906 30.0573 0 0 1.5 0.00185136 0.153749 
5.45707 -26.9322 30.2878 0 0 1.5 0.00202731 0.11392 
5.36085 -27.1738 30.5183 0 0 1.5 0.00210171 0.0995492 
5.26463 -27.4154 30.7488 0 0 1.5 0.00216793 0.0876634 
5.1684 -27.657 30.9792 0 0 1.5 0.00227867 0.0693847 
5.07218 -27.8986 31.2097 0 0 1.5 0.00232483 0.0620699 
4.97596 -28.1402 31.4402 0 0 1.5 0.00236597 0.0556942 
4.87973 -28.3819 31.6706 0 0 1.5 0.00240273 0.05019 
4.78351 -28.6235 31.9011 0 0 1.5 0.00246559 0.0411613 
4.68729 -28.8651 32.1316 0 0 1.5 0.00249294 0.037474 
4.59106 -29.1067 32.362 0 0 1.5 0.00251818 0.0343273 
4.49484 -29.3483 32.5925 0 0 1.5 0.00254166 0.0316633 
4.39861 -29.5899 32.823 0 0 1.5 0.00258484 0.0276127 
4.30239 -29.8315 33.0534 0 0 1.5 0.00260516 0.026185 
4.20617 -30.0731 33.2839 0 0 1.5 0.00262496 0.0251259 
0 1 0 
1 2 0 
2 3 0 
3 4 0 
4 5 0 
5 6 0 
6 7 0 
7 8 0 
8 9 0 
9 10 0 
10 11 0 
11 12 0 
12 13 0 
13 14 0 
14 15 0 
15 16 0 
16 17 0 
17 18 0 
18 19 0 
19 20 0 
20 21 0 
21 22 0 
22 23 0 
23 24 0 
24 25 0 
25 26 0 
26 27 0 
27 28 0 
28 29 0 
29 30 0 
30 31 0 
31 32 0 
32 33 0 
33 34 0 
34 35 0 
35 36 0 
36 37 0 
37 38 0 
38 39 0 
39 40 0 
40 41 0 
41 42 0 
42 43 0 
43 44 0 
44 45 0 
45 46 0 
46 47 0 
47 48 0 
48 49 0 
49 50 0 
50 51 0 
51 52 0 
52 53 0 
53 54 0 
54 55 0 
55 56 0 
56 57 0 
57 58 0 
58 59 0 
59 60 0 
60 61 0 
61 62 0 
62 63 0 
63 64 0 
64 65 0 
65 66 0 
66 67 0 
67 68 0 
68 69 0 
69 70 0 
70 71 0 
71 72 0 
72 73 0 
73 74 0 
74 75 0 
75 76 0 
76 77 0 
77 78 0 
78 79 0 
79 80 0 
80 81 0 
81 82 0 
82 83 0 
83 84 0 
84 85 0 
85 86 0 
86 87 0 
87 88 0 
88 89 0 
89 90 0 
90 91 0 
91 92 0 
92 93 0 
93 94 0 
94 95 0 
95 96 0 
96 97 0 
97 98 0 
98 99 0 
99 100 0 
100 101 0 
101 102 0 
102 103 0 
103 104 0 
104 105 0 
105 106 0 
106 107 0 
107 108 0 
108 109 0 
109 110 0 
110 111 0 
111 112 0 
112 113 0 
113 114 0 
114 115 0 
115 116 0 
116 117 0 
117 118 0 
118 119 0 
119 120 0 
120 121 0 
121 122 0 
122 123 0 
123 124 0 
124 125 0 
125 126 0 
126 127 0 
127 128 0 
128 129 0 
129 130 0 
130 131 0 
131 132 0 
132 133 0 
133 134 0 
134 135 0 
135 136 0 
136 137 0 
137 138 0 
138 139 0 
139 140 0 
140 141 0 
141 142 0 
142 143 0 
143 144 0 
144 145 0 
145 146 0 
146 147 0 
147 148 0 
148 149 0 
149 150 0 
150 151 0 
151 152 0 
152 153 0 
153 154 0 
154 155 0 
155 156 0 
156 157 0 
157 158 0 
158 159 0 
159 160 0 
160 161 0 
161 162 0 
162 163 0 
163 164 0 
164 165 0 
165 166 0 
166 167 0 
167 168 0 
168 169 0 
169 170 0 
170 171 0 
171 172 0 
172 173 0 
173 174 0 
174 175 0 
175 176 0 
176 177 0 
177 178 0 
178 179 0 
179 180 0 
180 181 0 
181 182 0 
182 183 0 
183 184 0 
184 185 0 
185 186 0 
186 187 0 
187 188 0 
188 189 0 
189 190 0 
190 191 0 
191 192 0 
192 193 0 
193 194 0 
194 195 0 
195 196 0 
196 197 0 
197 198 0 
198 199 0 
199 200 0 
200 201 0 
201 202 0 
202 203 0 
203 204 0 
204 205 0 
205 206 0 
206 207 0 
207 208 0 
208 209 0 
209 210 0 
210 211 0 
211 212 0 
212 213 0 
213 214 0 
214 215 0 
215 216 0 
216 217 0 
217 218 0 
218 219 0 
219 220 0 
220 221 0 
221 222 0 
222 223 0 
223 224 0 
224 225 0 
225 226 0 
226 227 0 
227 228 0 
228 229 0 
229 230 0 
230 231 0 
231 232 0 
232 233 0 
233 234 0 
234 235 0 
235 236 0 
236 237 0 
237 238 0 
238 239 0 
239 240 0 
240 241 0 
241 242 0 
242 243 0 
243 244 0 
244 245 0 
245 246 0 
246 247 0 
247 248 0 
248 249 0 
249 250 0 
250 251 0 
251 252 0 
252 253 0 
253 254 0 
254 255 0 
255 256 0 
256 257 0 
257 258 0 
258 259 0 
259 260 0 
260 261 0 
261 262 0 
262 263 0 
263 264 0 
264 265 0 
265 266 0 
266 267 0 
267 268 0 
268 269 0 
269 270 0 
270 271 0 
271 272 0 
272 273 0 
273 274 0 
274 275 0 
275 276 0 
276 277 0 
277 278 0 
278 279 0 
279 280 0 
280 281 0 
281 282 0 
282 283 0 
283 284 0 
284 285 0 
285 286 0 
286 287 0 
287 288 0 
288 289 0 
289 290 0 
290 291 0 
291 292 0 
292 293 0 
293 294 0 
294 295 0 
295 296 0 
296 297 0 
297 298 0 
298 299 0 
-1 -1 0 
-1 300 0 1 2 3 4 5 6 7 8 9 10 11 12 13 14 15 16 17 18 19 20 21 22 23 24 25 26 27 28 29 30 31 32 33 34 35 36 37 38 39 40 41 42 43 44 45 46 47 48 49 50 51 52 53 54 55 56 57 58 59 60 61 62 63 64 65 66 67 68 69 70 71 72 73 74 75 76 77 78 79 80 81 82 83 84 85 86 87 88 89 90 91 92 93 94 95 96 97 98 99 100 101 102 103 104 105 106 107 108 109 110 111 112 113 114 115 116 117 118 119 120 121 122 123 124 125 126 127 128 129 130 131 132 133 134 135 136 137 138 139 140 141 142 143 144 145 146 147 148 149 150 151 152 153 154 155 156 157 158 159 160 161 162 163 164 165 166 167 168 169 170 171 172 173 174 175 176 177 178 179 180 181 182 183 184 185 186 187 188 189 190 191 192 193 194 195 196 197 198 199 200 201 202 203 204 205 206 207 208 209 210 211 212 213 214 215 216 217 218 219 220 221 222 223 224 225 226 227 228 229 230 231 232 233 234 235 236 237 238 239 240 241 242 243 244 245 246 247 248 249 250 251 252 253 254 255 256 257 258 259 260 261 262 263 264 265 266 267 268 269 270 271 272 273 274 275 276 277 278 279 280 281 282 283 284 285 286 287 288 289 290 291 292 293 294 295 296 297 298 299 
