ply
format ascii 1.0
comment written by koba@oshima.lab
element vertex 300
property float x
property float y
property float z
property int label
property int attribute
property float radius
property float curvature
property float torsion
element edge 300
property int vertex1
property int vertex2
property int label
element vertex_seq 1
property int label
property list int int vertex_indices
end_header
-3.4774 31.5921 -15.1305 0 0 1.5 0.0365247 0.0170522 
-3.54676 31.3299 -14.9021 0 0 1.5 0.0358801 0.0177077 
-3.61612 31.0677 -14.6738 0 0 1.5 0.0352274 0.0188469 
-3.68549 30.8054 -14.4454 0 0 1.5 0.0345588 0.0204998 
-3.75485 30.5432 -14.2171 0 0 1.5 0.0331444 0.0255119 
-3.82421 30.281 -13.9887 0 0 1.5 0.0323819 0.0290021 
-3.89357 30.0188 -13.7604 0 0 1.5 0.0315705 0.0332752 
-3.96294 29.7565 -13.532 0 0 1.5 0.0307024 0.0384662 
-4.0323 29.4943 -13.3037 0 0 1.5 0.0287645 0.0520926 
-4.10166 29.2321 -13.0753 0 0 1.5 0.0276766 0.0610777 
-4.17102 28.9698 -12.847 0 0 1.5 0.0265012 0.0721346 
-4.24039 28.7076 -12.6186 0 0 1.5 0.0252356 0.0857477 
-4.30975 28.4454 -12.3903 0 0 1.5 0.0224366 0.124295 
-4.37911 28.1832 -12.1619 0 0 1.5 0.0209231 0.152497 
-4.44847 27.9209 -11.9336 0 0 1.5 0.0193683 0.189385 
-4.51784 27.6587 -11.7052 0 0 1.5 0.0163728 0.298629 
-4.5872 27.3965 -11.4769 0 0 1.5 0.015149 0.371028 
-4.65656 27.1342 -11.2485 0 0 1.5 0.0143435 0.440971 
-4.72592 26.872 -11.0202 0 0 1.5 0.0141811 0.481716 
-4.79529 26.6098 -10.7918 0 0 1.5 0.016409 0.416748 
-4.86465 26.3475 -10.5635 0 0 1.5 0.0188092 0.344519 
-4.93401 26.0853 -10.3351 0 0 1.5 0.021926 0.277 
-5.00337 25.8231 -10.1068 0 0 1.5 0.0256404 0.222953 
-5.07274 25.5609 -9.87842 0 0 1.5 0.0345413 0.152594 
-5.1421 25.2986 -9.65007 0 0 1.5 0.0396262 0.130789 
-5.21146 25.0364 -9.42172 0 0 1.5 0.045091 0.114926 
-5.28082 24.7742 -9.19336 0 0 1.5 0.0571103 0.0950028 
-5.35019 24.5119 -8.96501 0 0 1.5 0.0636436 0.0888293 
-5.41955 24.2497 -8.73666 0 0 1.5 0.0705078 0.0845047 
-5.48891 23.9875 -8.50831 0 0 1.5 0.0776929 0.0817199 
-5.55827 23.7252 -8.27996 0 0 1.5 0.0929786 0.0793968 
-5.62764 23.463 -8.05161 0 0 1.5 0.101038 0.0795938 
-5.697 23.2008 -7.82326 0 0 1.5 0.109343 0.0806734 
-5.76636 22.9386 -7.59491 0 0 1.5 0.117862 0.0824349 
-5.83572 22.6763 -7.36656 0 0 1.5 0.135392 0.0876438 
-5.90509 22.4141 -7.13821 0 0 1.5 0.144304 0.091245 
-5.99172 22.1452 -6.92764 0 0 1.5 0.153236 0.0953532 
-6.119 21.8605 -6.75891 0 0 1.5 0.162129 0.0997863 
-6.27374 21.5708 -6.63167 0 0 1.5 0.179527 0.109933 
-6.44668 21.2777 -6.53194 0 0 1.5 0.187869 0.115468 
-6.64671 20.9875 -6.49612 0 0 1.5 0.19588 0.120932 
-6.85161 20.6998 -6.48086 0 0 1.5 0.210598 0.131676 
-7.06468 20.4173 -6.50392 0 0 1.5 0.217134 0.136709 
-7.2778 20.1398 -6.5566 0 0 1.5 0.223019 0.141135 
-7.49095 19.865 -6.62564 0 0 1.5 0.228173 0.144913 
-7.69606 19.5953 -6.72956 0 0 1.5 0.235949 0.15027 
-7.89763 19.3265 -6.84213 0 0 1.5 0.238407 0.151509 
-8.08653 19.0603 -6.98051 0 0 1.5 0.23981 0.151756 
-8.26587 18.7947 -7.13121 0 0 1.5 0.240085 0.151075 
-8.43309 18.5299 -7.29754 0 0 1.5 0.237045 0.147259 
-8.5811 18.266 -7.48163 0 0 1.5 0.233686 0.144335 
-8.72109 18.0025 -7.67315 0 0 1.5 0.229109 0.140932 
-8.82937 17.7413 -7.88705 0 0 1.5 0.216484 0.13392 
-8.92667 17.4815 -8.10704 0 0 1.5 0.208607 0.130766 
-8.99905 17.2249 -8.34075 0 0 1.5 0.199836 0.128081 
-9.04786 16.9729 -8.58457 0 0 1.5 0.190301 0.126217 
-9.08278 16.7237 -8.83435 0 0 1.5 0.16954 0.126166 
-9.08129 16.4845 -9.09604 0 0 1.5 0.158613 0.128484 
-9.06739 16.2498 -9.36081 0 0 1.5 0.1475 0.132929 
-9.02924 16.0239 -9.63146 0 0 1.5 0.136338 0.140047 
-8.96985 15.8079 -9.90571 0 0 1.5 0.114351 0.165279 
-8.8995 15.5969 -10.1818 0 0 1.5 0.103737 0.185672 
-8.80216 15.4012 -10.461 0 0 1.5 0.0935361 0.213335 
-8.69823 15.2099 -10.7406 0 0 1.5 0.0749996 0.29932 
-8.57878 15.0292 -11.0213 0 0 1.5 0.0671085 0.361033 
-8.45083 14.8553 -11.3025 0 0 1.5 0.0606001 0.432033 
-8.31597 14.687 -11.5839 0 0 1.5 0.0559774 0.499355 
-8.17396 14.5252 -11.8656 0 0 1.5 0.0545484 0.528014 
-8.03 14.3653 -12.1474 0 0 1.5 0.0583422 0.469383 
-7.88289 14.2082 -12.4291 0 0 1.5 0.064995 0.388276 
-7.73608 14.0505 -12.7108 0 0 1.5 0.0741678 0.308942 
-7.59106 13.8899 -12.9916 0 0 1.5 0.0990473 0.191308 
-7.44829 13.7256 -13.2715 0 0 1.5 0.114578 0.152248 
-7.31003 13.554 -13.5492 0 0 1.5 0.132272 0.122521 
-7.17729 13.3728 -13.8233 0 0 1.5 0.152347 0.0997733 
-7.0497 13.1825 -14.094 0 0 1.5 0.200929 0.0681648 
-6.93258 12.9727 -14.3543 0 0 1.5 0.230262 0.0566223 
-6.81972 12.7549 -14.6101 0 0 1.5 0.263598 0.0469204 
-6.72331 12.5051 -14.8427 0 0 1.5 0.344264 0.031082 
-6.63529 12.2397 -15.0588 0 0 1.5 0.392308 0.0239359 
-6.55885 11.9526 -15.2523 0 0 1.5 0.445489 0.0169332 
-6.50281 11.6331 -15.3939 0 0 1.5 0.503118 0.00991698 
-6.46052 11.2982 -15.4938 0 0 1.5 0.623841 -0.00510045 
-6.43366 10.9494 -15.5445 0 0 1.5 0.679633 -0.0131958 
-6.42885 10.5959 -15.5163 0 0 1.5 0.72555 -0.0214063 
-6.44082 10.2562 -15.4236 0 0 1.5 0.756044 -0.0294673 
-6.46582 9.935 -15.2813 0 0 1.5 0.756106 -0.04379 
-6.50284 9.63666 -15.0933 0 0 1.5 0.725591 -0.0495321 
-6.55644 9.38545 -14.8493 0 0 1.5 0.67951 -0.0542665 
-6.61841 9.16332 -14.5823 0 0 1.5 0.562618 -0.0615588 
-6.68828 8.96892 -14.2941 0 0 1.5 0.501587 -0.0646446 
-6.77234 8.83092 -13.9787 0 0 1.5 0.443273 -0.0678621 
-6.86194 8.71717 -13.6564 0 0 1.5 0.389341 -0.0716434 
-6.95929 8.63764 -13.3249 0 0 1.5 0.296823 -0.08248 
-7.06467 8.59852 -12.9893 0 0 1.5 0.258083 -0.090559 
-7.17308 8.57562 -12.6528 0 0 1.5 0.223815 -0.101454 
-7.28773 8.59228 -12.3177 0 0 1.5 0.193505 -0.116221 
-7.4036 8.62212 -11.9843 0 0 1.5 0.142908 -0.164377 
-7.52141 8.67302 -11.6538 0 0 1.5 0.121865 -0.204084 
-7.63871 8.73935 -11.3261 0 0 1.5 0.103325 -0.261032 
-7.75572 8.81446 -10.9999 0 0 1.5 0.0738216 -0.455501 
-7.86844 8.9027 -10.6755 0 0 1.5 0.0635543 -0.595361 
-7.97935 8.99364 -10.3513 0 0 1.5 0.0572385 -0.72314 
-8.08239 9.09029 -10.0261 0 0 1.5 0.0556204 -0.766548 
-8.17957 9.1864 -9.69899 0 0 1.5 0.0658369 -0.573123 
-8.2691 9.28182 -9.36945 0 0 1.5 0.0757495 -0.452541 
-8.34427 9.37031 -9.03454 0 0 1.5 0.0876008 -0.358272 
-8.41031 9.45301 -8.69636 0 0 1.5 0.100792 -0.289752 
-8.45921 9.52304 -8.35223 0 0 1.5 0.129678 -0.206023 
-8.48708 9.57303 -8.00267 0 0 1.5 0.144807 -0.180958 
-8.49637 9.60264 -7.65024 0 0 1.5 0.160027 -0.162722 
-8.48349 9.60559 -7.29637 0 0 1.5 0.175005 -0.149375 
-8.44082 9.56697 -6.94651 0 0 1.5 0.202656 -0.132648 
-8.37001 9.48161 -6.61044 0 0 1.5 0.214497 -0.127535 
-8.27797 9.35498 -6.29385 0 0 1.5 0.224419 -0.12381 
-8.16982 9.19207 -5.99944 0 0 1.5 0.236956 -0.119382 
-8.05056 8.99983 -5.72656 0 0 1.5 0.239094 -0.118115 
-7.92308 8.77469 -5.48411 0 0 1.5 0.238373 -0.11718 
-7.79457 8.53575 -5.25649 0 0 1.5 0.234897 -0.116531 
-7.66531 8.28672 -5.03971 0 0 1.5 0.220868 -0.115773 
-7.53868 8.02125 -4.84169 0 0 1.5 0.211117 -0.115423 
-7.4137 7.75224 -4.64762 0 0 1.5 0.200129 -0.115114 
-7.29249 7.47518 -4.46252 0 0 1.5 0.188335 -0.114891 
-7.17496 7.19373 -4.28184 0 0 1.5 0.163825 -0.114169 
-7.06092 6.90813 -4.10535 0 0 1.5 0.151693 -0.113607 
-6.95236 6.61804 -3.93287 0 0 1.5 0.139919 -0.113055 
-6.84665 6.32563 -3.76247 0 0 1.5 0.117932 -0.111048 
-6.74779 6.02868 -3.59591 0 0 1.5 0.107858 -0.109304 
-6.65105 5.73032 -3.43054 0 0 1.5 0.0984183 -0.107114 
-6.56216 5.42717 -3.26962 0 0 1.5 0.0896004 -0.104117 
-6.4746 5.1232 -3.10944 0 0 1.5 0.0737149 -0.094098 
-6.39541 4.81398 -2.95509 0 0 1.5 0.0665583 -0.0868533 
-6.31716 4.50413 -2.80151 0 0 1.5 0.0598552 -0.0773414 
-6.24618 4.18926 -2.65477 0 0 1.5 0.0535556 -0.0644514 
-6.1764 3.87337 -2.50971 0 0 1.5 0.0419748 -0.0245065 
-6.11142 3.55346 -2.37129 0 0 1.5 0.0366088 0.00709962 
-6.04772 3.232 -2.23602 0 0 1.5 0.0314951 0.0531778 
-5.98631 2.90776 -2.10634 0 0 1.5 0.0266421 0.123086 
-5.92521 2.58176 -1.98108 0 0 1.5 0.0180366 0.412874 
-5.8644 2.25422 -1.85968 0 0 1.5 0.0147744 0.682091 
-5.80174 1.92522 -1.74329 0 0 1.5 0.0129307 0.948773 
-5.73835 1.59566 -1.62889 0 0 1.5 0.0153585 0.706767 
-5.66992 1.26553 -1.51914 0 0 1.5 0.0189287 0.464973 
-5.60025 0.935406 -1.41015 0 0 1.5 0.0232664 0.304176 
-5.52304 0.606041 -1.30395 0 0 1.5 0.0280373 0.2055 
-5.44318 0.277253 -1.19803 0 0 1.5 0.038236 0.105768 
-5.35563 -0.0498585 -1.0929 0 0 1.5 0.0434885 0.080376 
-5.26313 -0.375465 -0.987516 0 0 1.5 0.0487678 0.063221 
-5.16365 -0.698951 -0.88178 0 0 1.5 0.0540301 0.0514782 
-5.05673 -1.01962 -0.774972 0 0 1.5 0.06434 0.0378473 
-4.94404 -1.33811 -0.66733 0 0 1.5 0.0693098 0.0338711 
-4.82124 -1.65206 -0.557689 0 0 1.5 0.074106 0.0311139 
-4.69414 -1.96408 -0.447195 0 0 1.5 0.08303 0.0281172 
-4.55394 -2.2693 -0.333792 0 0 1.5 0.087092 0.0272836 
-4.41119 -2.5732 -0.219822 0 0 1.5 0.0908501 0.0267456 
-4.25171 -2.86709 -0.101919 0 0 1.5 0.0942797 0.02646 
-4.0894 -3.15907 0.0166654 0 0 1.5 0.100084 0.0261069 
-3.91093 -3.4399 0.139172 0 0 1.5 0.102442 0.0259075 
-3.72646 -3.71587 0.263211 0 0 1.5 0.104436 0.0256828 
-3.52823 -3.98074 0.390755 0 0 1.5 0.106068 0.0253824 
-3.31994 -4.23597 0.521112 0 0 1.5 0.108312 0.0243843 
-3.10155 -4.4815 0.65429 0 0 1.5 0.108962 0.0236629 
-2.86935 -4.71102 0.791921 0 0 1.5 0.109328 0.0227975 
-2.63165 -4.93413 0.931331 0 0 1.5 0.109332 0.0206227 
-2.37791 -5.13421 1.07713 0 0 1.5 0.109032 0.0192714 
-2.12085 -5.32857 1.22458 0 0 1.5 0.10857 0.0177976 
-1.85263 -5.50252 1.37794 0 0 1.5 0.107977 0.0162615 
-1.5806 -5.66724 1.53422 0 0 1.5 0.106502 0.0129251 
-1.30281 -5.81803 1.69488 0 0 1.5 0.105664 0.0112148 
-1.02142 -5.95671 1.85979 0 0 1.5 0.10478 0.00962503 
-0.737674 -6.08742 2.02748 0 0 1.5 0.103861 0.00814872 
-0.451307 -6.20518 2.20009 0 0 1.5 0.101936 0.00561683 
-0.164226 -6.31941 2.37403 0 0 1.5 0.100923 0.0047586 
0.124642 -6.42107 2.55272 0 0 1.5 0.0998612 0.0042128 
0.413754 -6.52099 2.73199 0 0 1.5 0.0987331 0.00398842 
0.704279 -6.61083 2.91432 0 0 1.5 0.0961931 0.00484644 
0.995328 -6.69818 3.09697 0 0 1.5 0.0947277 0.00605333 
1.28809 -6.77739 3.28065 0 0 1.5 0.0930948 0.00783329 
1.58217 -6.85195 3.46404 0 0 1.5 0.0892138 0.0132413 
1.87838 -6.91912 3.64699 0 0 1.5 0.08691 0.0170278 
2.1772 -6.97787 3.8284 0 0 1.5 0.0843314 0.0217264 
2.47808 -7.03004 4.0086 0 0 1.5 0.0814585 0.0274055 
2.78306 -7.06769 4.18528 0 0 1.5 0.0747843 0.0424308 
3.08934 -7.10071 4.36082 0 0 1.5 0.0709727 0.052647 
3.4005 -7.11122 4.5305 0 0 1.5 0.0668474 0.0653163 
3.7126 -7.11465 4.69832 0 0 1.5 0.0624246 0.0811602 
4.02706 -7.10037 4.86152 0 0 1.5 0.052785 0.128899 
4.34208 -7.07223 5.02133 0 0 1.5 0.0476379 0.166217 
4.65752 -7.03416 5.17872 0 0 1.5 0.0423499 0.218726 
4.97186 -6.97864 5.33295 0 0 1.5 0.0317509 0.412379 
5.28559 -6.91848 5.48674 0 0 1.5 0.0267923 0.591624 
5.59729 -6.84797 5.64032 0 0 1.5 0.0225243 0.851243 
5.90758 -6.77522 5.79567 0 0 1.5 0.0195917 1.14074 
6.21636 -6.70005 5.95293 0 0 1.5 0.0204992 1.06637 
6.52283 -6.62764 6.11584 0 0 1.5 0.0242637 0.769326 
6.82849 -6.55636 6.28077 0 0 1.5 0.0293514 0.531675 
7.13092 -6.49578 6.45567 0 0 1.5 0.0352202 0.37395 
7.43221 -6.43979 6.63377 0 0 1.5 0.048176 0.205957 
7.73053 -6.39587 6.82031 0 0 1.5 0.0549785 0.16094 
8.02614 -6.36228 7.01283 0 0 1.5 0.0618931 0.129497 
8.31912 -6.33866 7.21112 0 0 1.5 0.075885 0.089968 
8.60728 -6.33083 7.41726 0 0 1.5 0.0829048 0.0771169 
8.89358 -6.32913 7.62643 0 0 1.5 0.0899077 0.0671049 
9.17273 -6.34764 7.84413 0 0 1.5 0.096871 0.059111 
9.45052 -6.36981 8.06327 0 0 1.5 0.110602 0.0470721 
9.72012 -6.4125 8.28957 0 0 1.5 0.117324 0.0423894 
9.98758 -6.46009 8.51719 0 0 1.5 0.123913 0.038306 
10.2475 -6.52503 8.74947 0 0 1.5 0.130344 0.0346621 
10.5036 -6.59829 8.98315 0 0 1.5 0.14259 0.0282542 
10.7529 -6.68638 9.21936 0 0 1.5 0.148324 0.025361 
10.9964 -6.78695 9.45634 0 0 1.5 0.153739 0.022629 
11.2339 -6.89994 9.69407 0 0 1.5 0.158789 0.0200023 
11.4626 -7.03082 9.9309 0 0 1.5 0.167567 0.0149545 
11.6867 -7.17099 10.1673 0 0 1.5 0.171188 0.0125851 
11.8974 -7.33589 10.3996 0 0 1.5 0.174229 0.0102907 
12.1045 -7.50719 10.6307 0 0 1.5 0.178365 0.00586945 
12.2935 -7.70785 10.8537 0 0 1.5 0.179378 0.00381611 
12.4754 -7.91798 11.0731 0 0 1.5 0.179646 0.00185365 
12.6411 -8.14991 11.284 0 0 1.5 0.179146 -4.25327e-05 
12.7906 -8.3989 11.4862 0 0 1.5 0.175831 -0.0034437 
12.9285 -8.6603 11.6821 0 0 1.5 0.173058 -0.00491868 
13.0384 -8.94416 11.8634 0 0 1.5 0.169587 -0.00626807 
13.138 -9.23482 12.0395 0 0 1.5 0.165459 -0.00748273 
13.2094 -9.54195 12.2017 0 0 1.5 0.155498 -0.00947341 
13.264 -9.85566 12.3563 0 0 1.5 0.149802 -0.0102635 
13.3004 -10.1765 12.5028 0 0 1.5 0.143719 -0.0109421 
13.3121 -10.5034 12.6388 0 0 1.5 0.130703 -0.0120139 
13.3157 -10.8321 12.7716 0 0 1.5 0.123912 -0.0123894 
13.2913 -11.1642 12.8934 0 0 1.5 0.117014 -0.0126997 
13.2621 -11.4964 13.0135 0 0 1.5 0.11007 -0.0129926 
13.2156 -11.829 13.1272 0 0 1.5 0.0962538 -0.0134508 
13.163 -12.1614 13.2385 0 0 1.5 0.0894662 -0.0136471 
13.1008 -12.4935 13.3462 0 0 1.5 0.0828061 -0.0139114 
13.0337 -12.8254 13.4511 0 0 1.5 0.0763032 -0.0142325 
12.9623 -13.1572 13.5537 0 0 1.5 0.0638698 -0.0150424 
12.8885 -13.4895 13.6531 0 0 1.5 0.0579764 -0.0156628 
12.8134 -13.8219 13.7508 0 0 1.5 0.0523175 -0.0164734 
12.7392 -14.1559 13.8437 0 0 1.5 0.0469079 -0.0174955 
12.6652 -14.4903 13.9355 0 0 1.5 0.0368885 -0.0205933 
12.5911 -14.8247 14.0272 0 0 1.5 0.0323001 -0.0229522 
12.5171 -15.1591 14.119 0 0 1.5 0.0280132 -0.0260775 
12.4431 -15.4935 14.2107 0 0 1.5 0.0204207 -0.03611 
12.3691 -15.8279 14.3024 0 0 1.5 0.017161 -0.0441382 
12.295 -16.1624 14.3942 0 0 1.5 0.0143114 -0.054992 
12.221 -16.4968 14.4859 0 0 1.5 0.0119323 -0.0688665 
12.147 -16.8312 14.5777 0 0 1.5 0.00887061 -0.0961937 
12.073 -17.1656 14.6694 0 0 1.5 0.00827748 -0.0978183 
11.999 -17.5 14.7611 0 0 1.5 0.00822745 -0.0881451 
11.9249 -17.8344 14.8529 0 0 1.5 0.00854455 -0.0732512 
11.8509 -18.1688 14.9446 0 0 1.5 0.00959219 -0.0473628 
11.7769 -18.5032 15.0363 0 0 1.5 0.0100939 -0.038812 
11.7029 -18.8376 15.1281 0 0 1.5 0.0105 -0.0327088 
11.6289 -19.172 15.2198 0 0 1.5 0.0109382 -0.025206 
11.5548 -19.5064 15.3116 0 0 1.5 0.0109587 -0.0229861 
11.4808 -19.8408 15.4033 0 0 1.5 0.0108518 -0.0215257 
11.4068 -20.1752 15.495 0 0 1.5 0.0106272 -0.0206319 
11.3328 -20.5096 15.5868 0 0 1.5 0.00987734 -0.0200904 
11.2587 -20.844 15.6785 0 0 1.5 0.00937961 -0.020444 
11.1847 -21.1784 15.7703 0 0 1.5 0.00881835 -0.0212019 
11.1107 -21.5128 15.862 0 0 1.5 0.00820835 -0.0223528 
11.0367 -21.8472 15.9537 0 0 1.5 0.0068998 -0.0263012 
10.9627 -22.1816 16.0455 0 0 1.5 0.0062276 -0.0293959 
10.8886 -22.516 16.1372 0 0 1.5 0.00556169 -0.0334249 
10.8146 -22.8504 16.229 0 0 1.5 0.00430104 -0.0457864 
10.7406 -23.1848 16.3207 0 0 1.5 0.00373004 -0.0550473 
10.6666 -23.5192 16.4124 0 0 1.5 0.00321664 -0.066709 
10.5926 -23.8536 16.5042 0 0 1.5 0.00277582 -0.0805911 
10.5185 -24.188 16.5959 0 0 1.5 0.00216628 -0.10721 
10.4445 -24.5224 16.6876 0 0 1.5 0.00201529 -0.111182 
10.3705 -24.8568 16.7794 0 0 1.5 0.00196008 -0.105396 
10.2965 -25.1912 16.8711 0 0 1.5 0.00197875 -0.0928992 
10.2225 -25.5256 16.9629 0 0 1.5 0.00213171 -0.064579 
10.1484 -25.86 17.0546 0 0 1.5 0.00222239 -0.0533621 
10.0744 -26.1944 17.1463 0 0 1.5 0.00230408 -0.0447198 
10.0004 -26.5288 17.2381 0 0 1.5 0.00236964 -0.0381559 
9.92637 -26.8632 17.3298 0 0 1.5 0.00243909 -0.0294144 
9.85235 -27.1976 17.4216 0 0 1.5 0.00244141 -0.026692 
9.77832 -27.532 17.5133 0 0 1.5 0.00242342 -0.0247242 
9.7043 -27.8664 17.605 0 0 1.5 0.00233446 -0.0223603 
9.63028 -28.2008 17.6968 0 0 1.5 0.00226797 -0.0218211 
9.55626 -28.5352 17.7885 0 0 1.5 0.00218993 -0.0216121 
9.48224 -28.8696 17.8803 0 0 1.5 0.00210288 -0.0216577 
9.40822 -29.204 17.972 0 0 1.5 0.00191165 -0.0224956 
9.3342 -29.5384 18.0637 0 0 1.5 0.00181203 -0.0232423 
9.26018 -29.8728 18.1555 0 0 1.5 0.0017128 -0.0241082 
9.18615 -30.2072 18.2472 0 0 1.5 0.00161613 -0.0250618 
9.11213 -30.5416 18.3389 0 0 1.5 0.00143608 -0.0271175 
9.03811 -30.876 18.4307 0 0 1.5 0.00135522 -0.0279926 
8.96409 -31.2104 18.5224 0 0 1.5 0.00128187 -0.028649 
8.89007 -31.5448 18.6142 0 0 1.5 0.00115869 -0.0291352 
8.81605 -31.8792 18.7059 0 0 1.5 0.00110893 -0.028767 
8.74203 -32.2136 18.7976 0 0 1.5 0.00106683 -0.0279723 
8.66801 -32.548 18.8894 0 0 1.5 0.0010317 -0.026849 
8.59398 -32.8824 18.9811 0 0 1.5 0.000979295 -0.0238028 
8.51996 -33.2168 19.0729 0 0 1.5 0.000960578 -0.0220534 
8.44594 -33.5512 19.1646 0 0 1.5 0.000945785 -0.0203346 
8.37192 -33.8856 19.2563 0 0 1.5 0.000934172 -0.0187303 
8.2979 -34.22 19.3481 0 0 1.5 0.000918184 -0.0161202 
8.22388 -34.5545 19.4398 0 0 1.5 0.00091289 -0.0152065 
8.14986 -34.8889 19.5316 0 0 1.5 0.000908917 -0.0146001 
0 1 0 
1 2 0 
2 3 0 
3 4 0 
4 5 0 
5 6 0 
6 7 0 
7 8 0 
8 9 0 
9 10 0 
10 11 0 
11 12 0 
12 13 0 
13 14 0 
14 15 0 
15 16 0 
16 17 0 
17 18 0 
18 19 0 
19 20 0 
20 21 0 
21 22 0 
22 23 0 
23 24 0 
24 25 0 
25 26 0 
26 27 0 
27 28 0 
28 29 0 
29 30 0 
30 31 0 
31 32 0 
32 33 0 
33 34 0 
34 35 0 
35 36 0 
36 37 0 
37 38 0 
38 39 0 
39 40 0 
40 41 0 
41 42 0 
42 43 0 
43 44 0 
44 45 0 
45 46 0 
46 47 0 
47 48 0 
48 49 0 
49 50 0 
50 51 0 
51 52 0 
52 53 0 
53 54 0 
54 55 0 
55 56 0 
56 57 0 
57 58 0 
58 59 0 
59 60 0 
60 61 0 
61 62 0 
62 63 0 
63 64 0 
64 65 0 
65 66 0 
66 67 0 
67 68 0 
68 69 0 
69 70 0 
70 71 0 
71 72 0 
72 73 0 
73 74 0 
74 75 0 
75 76 0 
76 77 0 
77 78 0 
78 79 0 
79 80 0 
80 81 0 
81 82 0 
82 83 0 
83 84 0 
84 85 0 
85 86 0 
86 87 0 
87 88 0 
88 89 0 
89 90 0 
90 91 0 
91 92 0 
92 93 0 
93 94 0 
94 95 0 
95 96 0 
96 97 0 
97 98 0 
98 99 0 
99 100 0 
100 101 0 
101 102 0 
102 103 0 
103 104 0 
104 105 0 
105 106 0 
106 107 0 
107 108 0 
108 109 0 
109 110 0 
110 111 0 
111 112 0 
112 113 0 
113 114 0 
114 115 0 
115 116 0 
116 117 0 
117 118 0 
118 119 0 
119 120 0 
120 121 0 
121 122 0 
122 123 0 
123 124 0 
124 125 0 
125 126 0 
126 127 0 
127 128 0 
128 129 0 
129 130 0 
130 131 0 
131 132 0 
132 133 0 
133 134 0 
134 135 0 
135 136 0 
136 137 0 
137 138 0 
138 139 0 
139 140 0 
140 141 0 
141 142 0 
142 143 0 
143 144 0 
144 145 0 
145 146 0 
146 147 0 
147 148 0 
148 149 0 
149 150 0 
150 151 0 
151 152 0 
152 153 0 
153 154 0 
154 155 0 
155 156 0 
156 157 0 
157 158 0 
158 159 0 
159 160 0 
160 161 0 
161 162 0 
162 163 0 
163 164 0 
164 165 0 
165 166 0 
166 167 0 
167 168 0 
168 169 0 
169 170 0 
170 171 0 
171 172 0 
172 173 0 
173 174 0 
174 175 0 
175 176 0 
176 177 0 
177 178 0 
178 179 0 
179 180 0 
180 181 0 
181 182 0 
182 183 0 
183 184 0 
184 185 0 
185 186 0 
186 187 0 
187 188 0 
188 189 0 
189 190 0 
190 191 0 
191 192 0 
192 193 0 
193 194 0 
194 195 0 
195 196 0 
196 197 0 
197 198 0 
198 199 0 
199 200 0 
200 201 0 
201 202 0 
202 203 0 
203 204 0 
204 205 0 
205 206 0 
206 207 0 
207 208 0 
208 209 0 
209 210 0 
210 211 0 
211 212 0 
212 213 0 
213 214 0 
214 215 0 
215 216 0 
216 217 0 
217 218 0 
218 219 0 
219 220 0 
220 221 0 
221 222 0 
222 223 0 
223 224 0 
224 225 0 
225 226 0 
226 227 0 
227 228 0 
228 229 0 
229 230 0 
230 231 0 
231 232 0 
232 233 0 
233 234 0 
234 235 0 
235 236 0 
236 237 0 
237 238 0 
238 239 0 
239 240 0 
240 241 0 
241 242 0 
242 243 0 
243 244 0 
244 245 0 
245 246 0 
246 247 0 
247 248 0 
248 249 0 
249 250 0 
250 251 0 
251 252 0 
252 253 0 
253 254 0 
254 255 0 
255 256 0 
256 257 0 
257 258 0 
258 259 0 
259 260 0 
260 261 0 
261 262 0 
262 263 0 
263 264 0 
264 265 0 
265 266 0 
266 267 0 
267 268 0 
268 269 0 
269 270 0 
270 271 0 
271 272 0 
272 273 0 
273 274 0 
274 275 0 
275 276 0 
276 277 0 
277 278 0 
278 279 0 
279 280 0 
280 281 0 
281 282 0 
282 283 0 
283 284 0 
284 285 0 
285 286 0 
286 287 0 
287 288 0 
288 289 0 
289 290 0 
290 291 0 
291 292 0 
292 293 0 
293 294 0 
294 295 0 
295 296 0 
296 297 0 
297 298 0 
298 299 0 
-1 -1 0 
-1 300 0 1 2 3 4 5 6 7 8 9 10 11 12 13 14 15 16 17 18 19 20 21 22 23 24 25 26 27 28 29 30 31 32 33 34 35 36 37 38 39 40 41 42 43 44 45 46 47 48 49 50 51 52 53 54 55 56 57 58 59 60 61 62 63 64 65 66 67 68 69 70 71 72 73 74 75 76 77 78 79 80 81 82 83 84 85 86 87 88 89 90 91 92 93 94 95 96 97 98 99 100 101 102 103 104 105 106 107 108 109 110 111 112 113 114 115 116 117 118 119 120 121 122 123 124 125 126 127 128 129 130 131 132 133 134 135 136 137 138 139 140 141 142 143 144 145 146 147 148 149 150 151 152 153 154 155 156 157 158 159 160 161 162 163 164 165 166 167 168 169 170 171 172 173 174 175 176 177 178 179 180 181 182 183 184 185 186 187 188 189 190 191 192 193 194 195 196 197 198 199 200 201 202 203 204 205 206 207 208 209 210 211 212 213 214 215 216 217 218 219 220 221 222 223 224 225 226 227 228 229 230 231 232 233 234 235 236 237 238 239 240 241 242 243 244 245 246 247 248 249 250 251 252 253 254 255 256 257 258 259 260 261 262 263 264 265 266 267 268 269 270 271 272 273 274 275 276 277 278 279 280 281 282 283 284 285 286 287 288 289 290 291 292 293 294 295 296 297 298 299 
