ply
format ascii 1.0
comment written by koba@oshima.lab
element vertex 300
property float x
property float y
property float z
property int label
property int attribute
property float radius
property float curvature
property float torsion
element edge 300
property int vertex1
property int vertex2
property int label
element vertex_seq 1
property int label
property list int int vertex_indices
end_header
0.894539 25.6038 -17.19 0 0 1.5 0.0574917 0.0284809 
0.830018 25.2822 -17.0007 0 0 1.5 0.0559066 0.0311487 
0.765497 24.9606 -16.8113 0 0 1.5 0.0542383 0.0341353 
0.700976 24.639 -16.622 0 0 1.5 0.0524934 0.0374946 
0.636455 24.3174 -16.4326 0 0 1.5 0.0487999 0.0455723 
0.571934 23.9958 -16.2433 0 0 1.5 0.0468613 0.0503976 
0.507413 23.6741 -16.0539 0 0 1.5 0.0448655 0.0558967 
0.442892 23.3525 -15.8646 0 0 1.5 0.0428154 0.0622378 
0.378371 23.0309 -15.6752 0 0 1.5 0.0385531 0.0779947 
0.31385 22.7093 -15.4859 0 0 1.5 0.0363316 0.0880443 
0.249329 22.3877 -15.2965 0 0 1.5 0.0340432 0.10032 
0.184808 22.0661 -15.1071 0 0 1.5 0.0316822 0.115569 
0.120287 21.7445 -14.9178 0 0 1.5 0.0267085 0.160986 
0.0557664 21.4229 -14.7284 0 0 1.5 0.0240837 0.197332 
-0.00875457 21.1013 -14.5391 0 0 1.5 0.0213692 0.250466 
-0.0732755 20.7797 -14.3497 0 0 1.5 0.0157769 0.465565 
-0.137796 20.4581 -14.1604 0 0 1.5 0.0130604 0.69317 
-0.202317 20.1365 -13.971 0 0 1.5 0.0106956 1.06559 
-0.266838 19.8149 -13.7817 0 0 1.5 0.00922558 1.49248 
-0.331359 19.4933 -13.5923 0 0 1.5 0.0113147 1.12153 
-0.39588 19.1717 -13.403 0 0 1.5 0.014538 0.735812 
-0.460401 18.8501 -13.2136 0 0 1.5 0.0185224 0.495205 
-0.524922 18.5285 -13.0243 0 0 1.5 0.0229689 0.354804 
-0.589443 18.2068 -12.8349 0 0 1.5 0.0326636 0.217402 
-0.653964 17.8852 -12.6456 0 0 1.5 0.0377172 0.182397 
-0.718485 17.5636 -12.4562 0 0 1.5 0.0427934 0.158929 
-0.783006 17.242 -12.2668 0 0 1.5 0.0527084 0.13222 
-0.847527 16.9204 -12.0775 0 0 1.5 0.0573782 0.124728 
-0.912048 16.5988 -11.8881 0 0 1.5 0.061732 0.120089 
-0.976569 16.2772 -11.6988 0 0 1.5 0.0656828 0.117941 
-1.04109 15.9556 -11.5094 0 0 1.5 0.0720573 0.119177 
-1.10561 15.634 -11.3201 0 0 1.5 0.0743369 0.122502 
-1.17013 15.3124 -11.1307 0 0 1.5 0.0759384 0.127992 
-1.23465 14.9908 -10.9414 0 0 1.5 0.0768318 0.135572 
-1.31682 14.6806 -10.7412 0 0 1.5 0.0765078 0.157912 
-1.41082 14.378 -10.5337 0 0 1.5 0.0753523 0.174247 
-1.52552 14.0913 -10.3147 0 0 1.5 0.073623 0.194704 
-1.64472 13.8081 -10.0933 0 0 1.5 0.0714464 0.21963 
-1.7848 13.5435 -9.86142 0 0 1.5 0.0664541 0.286507 
-1.92656 13.2804 -9.62882 0 0 1.5 0.0641262 0.327563 
-2.08508 13.0337 -9.38911 0 0 1.5 0.062374 0.368902 
-2.24502 12.7884 -9.14896 0 0 1.5 0.062352 0.42565 
-2.41871 12.5571 -8.90451 0 0 1.5 0.0649756 0.425547 
-2.59328 12.3265 -8.65997 0 0 1.5 0.0698299 0.403064 
-2.77999 12.1072 -8.41408 0 0 1.5 0.0770928 0.365527 
-2.96689 11.8879 -8.16823 0 0 1.5 0.099076 0.2811 
-3.16528 11.6758 -7.92516 0 0 1.5 0.113861 0.244827 
-3.36367 11.4636 -7.68209 0 0 1.5 0.131263 0.21521 
-3.57298 11.2521 -7.44777 0 0 1.5 0.15142 0.192139 
-3.78258 11.0406 -7.2137 0 0 1.5 0.200729 0.161635 
-4.00337 10.8211 -6.99806 0 0 1.5 0.230186 0.15253 
-4.22573 10.5985 -6.78771 0 0 1.5 0.262873 0.146769 
-4.45671 10.3595 -6.60611 0 0 1.5 0.336517 0.142924 
-4.68972 10.1049 -6.45394 0 0 1.5 0.375623 0.143898 
-4.92432 9.83285 -6.33529 0 0 1.5 0.413909 0.146336 
-5.1441 9.52546 -6.30962 0 0 1.5 0.448726 0.149632 
-5.32726 9.20511 -6.37236 0 0 1.5 0.49581 0.156105 
-5.46182 8.88734 -6.51551 0 0 1.5 0.502786 0.158515 
-5.54926 8.5814 -6.71827 0 0 1.5 0.497088 0.159948 
-5.57882 8.30016 -6.97022 0 0 1.5 0.479611 0.160271 
-5.57485 8.03509 -7.23889 0 0 1.5 0.419172 0.159537 
-5.55098 7.77961 -7.51747 0 0 1.5 0.382243 0.159596 
-5.48743 7.54179 -7.80503 0 0 1.5 0.344507 0.160441 
-5.41787 7.30648 -8.09335 0 0 1.5 0.273634 0.166845 
-5.31336 7.08472 -8.38205 0 0 1.5 0.242365 0.173415 
-5.2044 6.86459 -8.67007 0 0 1.5 0.214398 0.182683 
-5.06424 6.65585 -8.95332 0 0 1.5 0.189803 0.195074 
-4.91981 6.44878 -9.23537 0 0 1.5 0.1505 0.230025 
-4.74524 6.25354 -9.50896 0 0 1.5 0.135724 0.251206 
-4.5675 6.05971 -9.78129 0 0 1.5 0.124269 0.272162 
-4.36086 5.87891 -10.0422 0 0 1.5 0.116264 0.289154 
-4.1524 5.69901 -10.3021 0 0 1.5 0.111266 0.293961 
-3.91771 5.53234 -10.5482 0 0 1.5 0.114494 0.278181 
-3.68226 5.36605 -10.7939 0 0 1.5 0.121506 0.254012 
-3.42461 5.21057 -11.0238 0 0 1.5 0.132209 0.226696 
-3.16648 5.05523 -11.2533 0 0 1.5 0.164754 0.177148 
-2.89072 4.90489 -11.465 0 0 1.5 0.186978 0.158062 
-2.61379 4.75421 -11.6747 0 0 1.5 0.213739 0.143187 
-2.32375 4.59973 -11.8631 0 0 1.5 0.284081 0.124271 
-2.03096 4.44102 -12.0426 0 0 1.5 0.329856 0.119182 
-1.73007 4.26987 -12.1963 0 0 1.5 0.38454 0.116585 
-1.42668 4.07954 -12.3152 0 0 1.5 0.449768 0.116172 
-1.12451 3.86934 -12.3948 0 0 1.5 0.617302 0.120282 
-0.836154 3.62379 -12.3946 0 0 1.5 0.719716 0.124008 
-0.606053 3.35202 -12.2707 0 0 1.5 0.830637 0.127964 
-0.460803 3.0907 -12.0468 0 0 1.5 0.941593 0.130768 
-0.393511 2.85803 -11.7621 0 0 1.5 1.10321 0.126417 
-0.382384 2.65328 -11.4459 0 0 1.5 1.12106 0.117084 
-0.431974 2.48645 -11.1095 0 0 1.5 1.08718 0.103271 
-0.522314 2.3498 -10.7701 0 0 1.5 0.905698 0.0695401 
-0.634739 2.22952 -10.429 0 0 1.5 0.792102 0.0535255 
-0.801439 2.15459 -10.0976 0 0 1.5 0.681729 0.0392793 
-0.980824 2.09143 -9.77149 0 0 1.5 0.581477 0.0268496 
-1.20253 2.06844 -9.46528 0 0 1.5 0.41895 0.00677351 
-1.44255 2.066 -9.17487 0 0 1.5 0.355484 -0.00187258 
-1.70972 2.09403 -8.90788 0 0 1.5 0.301807 -0.010496 
-1.99642 2.14946 -8.66955 0 0 1.5 0.256233 -0.0196437 
-2.29687 2.2242 -8.45139 0 0 1.5 0.183745 -0.0430304 
-2.61149 2.32559 -8.26868 0 0 1.5 0.15454 -0.0607134 
-2.93134 2.43681 -8.09906 0 0 1.5 0.128845 -0.0862994 
-3.25846 2.56739 -7.96098 0 0 1.5 0.0858293 -0.190715 
-3.58724 2.70237 -7.83007 0 0 1.5 0.0681263 -0.304917 
-3.91885 2.84736 -7.71889 0 0 1.5 0.0535888 -0.503472 
-4.251 2.99422 -7.61137 0 0 1.5 0.0441245 -0.769834 
-4.58394 3.14291 -7.50897 0 0 1.5 0.0504214 -0.667849 
-4.91702 3.29193 -7.4075 0 0 1.5 0.0647052 -0.444269 
-5.24898 3.43581 -7.29556 0 0 1.5 0.0832772 -0.299753 
-5.58077 3.57894 -7.1821 0 0 1.5 0.105121 -0.214509 
-5.90612 3.70991 -7.03921 0 0 1.5 0.157977 -0.13098 
-6.22781 3.83706 -6.88638 0 0 1.5 0.189258 -0.110329 
-6.53526 3.94988 -6.69615 0 0 1.5 0.22394 -0.0968161 
-6.82294 4.05104 -6.47434 0 0 1.5 0.26187 -0.0880058 
-7.09373 4.14238 -6.22593 0 0 1.5 0.344419 -0.0798898 
-7.30698 4.21207 -5.92078 0 0 1.5 0.385737 -0.0790982 
-7.47912 4.27091 -5.59161 0 0 1.5 0.423389 -0.0797821 
-7.6083 4.31883 -5.23983 0 0 1.5 0.473421 -0.0843852 
-7.66327 4.35092 -4.86647 0 0 1.5 0.479965 -0.0877443 
-7.66596 4.37144 -4.49036 0 0 1.5 0.472762 -0.0916147 
-7.62852 4.38231 -4.1147 0 0 1.5 0.453197 -0.0959458 
-7.52915 4.37547 -3.74928 0 0 1.5 0.389569 -0.106459 
-7.39002 4.35253 -3.39955 0 0 1.5 0.352431 -0.11341 
-7.22559 4.31911 -3.06018 0 0 1.5 0.315484 -0.121937 
-7.0123 4.25738 -2.75335 0 0 1.5 0.280589 -0.132273 
-6.78701 4.18557 -2.45874 0 0 1.5 0.220992 -0.159719 
-6.53925 4.09488 -2.18701 0 0 1.5 0.197226 -0.176599 
-6.28062 3.98924 -1.93222 0 0 1.5 0.177774 -0.194152 
-6.01365 3.87211 -1.69045 0 0 1.5 0.152312 -0.221335 
-5.74225 3.73925 -1.4626 0 0 1.5 0.146427 -0.224442 
-5.4687 3.59879 -1.2415 0 0 1.5 0.145001 -0.217803 
-5.19747 3.44347 -1.02788 0 0 1.5 0.147742 -0.20234 
-4.92727 3.28153 -0.817608 0 0 1.5 0.163806 -0.157782 
-4.66499 3.10506 -0.609336 0 0 1.5 0.175965 -0.135321 
-4.40672 2.92124 -0.402075 0 0 1.5 0.190056 -0.114942 
-4.16181 2.72124 -0.194165 0 0 1.5 0.205416 -0.0969553 
-3.92402 2.51259 0.0140919 0 0 1.5 0.236929 -0.0687701 
-3.70837 2.28164 0.222002 0 0 1.5 0.251357 -0.0579103 
-3.50121 2.04213 0.429779 0 0 1.5 0.263574 -0.0485323 
-3.33492 1.76582 0.627854 0 0 1.5 0.272538 -0.0406208 
-3.19097 1.47198 0.814709 0 0 1.5 0.277423 -0.0291788 
-3.08697 1.14746 0.97999 0 0 1.5 0.272386 -0.0253587 
-3.04624 0.788203 1.08806 0 0 1.5 0.262339 -0.0228834 
-3.04816 0.417051 1.14092 0 0 1.5 0.229623 -0.0227313 
-3.08525 0.0418242 1.13839 0 0 1.5 0.208668 -0.0256747 
-3.14972 -0.325413 1.07185 0 0 1.5 0.185847 -0.0312947 
-3.21804 -0.680854 0.963261 0 0 1.5 0.161997 -0.0406442 
-3.28574 -1.03097 0.836245 0 0 1.5 0.113671 -0.0833939 
-3.34107 -1.37251 0.682161 0 0 1.5 0.0899628 -0.134101 
-3.38701 -1.7134 0.524193 0 0 1.5 0.0668954 -0.242541 
-3.41735 -2.05325 0.359776 0 0 1.5 0.0447869 -0.538894 
-3.43246 -2.39563 0.199301 0 0 1.5 0.0162234 -4.0353 
-3.43308 -2.74043 0.0425719 0 0 1.5 0.0300789 -1.15835 
-3.41554 -3.09052 -0.0994955 0 0 1.5 0.0503883 -0.406071 
-3.38566 -3.44422 -0.231615 0 0 1.5 0.0941475 -0.110968 
-3.33649 -3.80418 -0.335972 0 0 1.5 0.116689 -0.0704087 
-3.27802 -4.16715 -0.426964 0 0 1.5 0.139475 -0.0479979 
-3.20004 -4.53404 -0.472919 0 0 1.5 0.16228 -0.0344836 
-3.11684 -4.90197 -0.506851 0 0 1.5 0.206485 -0.0206998 
-3.01493 -5.26498 -0.473998 0 0 1.5 0.226894 -0.0174715 
-2.90974 -5.6242 -0.424736 0 0 1.5 0.245288 -0.0157393 
-2.79331 -5.96717 -0.314001 0 0 1.5 0.26092 -0.0151002 
-2.67305 -6.29532 -0.173306 0 0 1.5 0.281434 -0.0162049 
-2.5477 -6.60377 0.00722926 0 0 1.5 0.285488 -0.0177992 
-2.41788 -6.88306 0.225121 0 0 1.5 0.285264 -0.0198703 
-2.28586 -7.14791 0.46149 0 0 1.5 0.273438 -0.0249101 
-2.1473 -7.37371 0.731405 0 0 1.5 0.263062 -0.0279379 
-2.00764 -7.59315 1.00666 0 0 1.5 0.250693 -0.0312043 
-1.85752 -7.77235 1.30465 0 0 1.5 0.237092 -0.0345911 
-1.70598 -7.94819 1.6037 0 0 1.5 0.208809 -0.0419018 
-1.54143 -8.09318 1.91249 0 0 1.5 0.195134 -0.0458347 
-1.37422 -8.23396 2.22157 0 0 1.5 0.182248 -0.0498776 
-1.19187 -8.35071 2.53232 0 0 1.5 0.170383 -0.0539809 
-1.00589 -8.46289 2.84235 0 0 1.5 0.150255 -0.0620122 
-0.803918 -8.55493 3.14924 0 0 1.5 0.142098 -0.0657811 
-0.597495 -8.64144 3.45449 0 0 1.5 0.135199 -0.0691833 
-0.376116 -8.70934 3.75421 0 0 1.5 0.129504 -0.0720432 
-0.149701 -8.76918 4.05149 0 0 1.5 0.121342 -0.0762161 
0.0884665 -8.81023 4.34311 0 0 1.5 0.118622 -0.0775874 
0.33156 -8.83822 4.63168 0 0 1.5 0.116611 -0.0785206 
0.581742 -8.84742 4.91589 0 0 1.5 0.114047 -0.0801145 
0.834999 -8.83553 5.19661 0 0 1.5 0.113159 -0.0812198 
1.09063 -8.80735 5.47465 0 0 1.5 0.11232 -0.0827508 
1.34495 -8.74845 5.7485 0 0 1.5 0.111377 -0.0849158 
1.59885 -8.67975 6.02101 0 0 1.5 0.108679 -0.0919515 
1.84561 -8.57316 6.28777 0 0 1.5 0.106721 -0.0972526 
2.09043 -8.45941 6.55308 0 0 1.5 0.104253 -0.104029 
2.32797 -8.31998 6.81305 0 0 1.5 0.101235 -0.112523 
2.56315 -8.17185 7.07007 0 0 1.5 0.093517 -0.136417 
2.79478 -8.01061 7.32265 0 0 1.5 0.0888636 -0.152957 
3.02686 -7.84296 7.5705 0 0 1.5 0.0837579 -0.173524 
3.25928 -7.6707 7.81497 0 0 1.5 0.0725796 -0.231431 
3.49823 -7.49743 8.05223 0 0 1.5 0.0667646 -0.271855 
3.73932 -7.32382 8.28714 0 0 1.5 0.0610148 -0.322267 
3.9944 -7.15619 8.51131 0 0 1.5 0.0555304 -0.383752 
4.25236 -6.99014 8.7333 0 0 1.5 0.0463291 -0.531226 
4.52687 -6.83466 8.94286 0 0 1.5 0.043154 -0.599055 
4.8059 -6.6827 9.1487 0 0 1.5 0.0412609 -0.640109 
5.09758 -6.54064 9.34412 0 0 1.5 0.0407801 -0.639279 
5.39481 -6.40375 9.53452 0 0 1.5 0.0437795 -0.526729 
5.69948 -6.27379 9.71818 0 0 1.5 0.0468236 -0.448364 
6.00863 -6.14909 9.89785 0 0 1.5 0.0505518 -0.374372 
6.32103 -6.02823 10.0746 0 0 1.5 0.0592671 -0.257937 
6.63542 -5.9121 10.251 0 0 1.5 0.0640008 -0.215348 
6.9506 -5.79785 10.4272 0 0 1.5 0.0688953 -0.181005 
7.26492 -5.68892 10.6083 0 0 1.5 0.0739282 -0.15335 
7.57908 -5.58093 10.7902 0 0 1.5 0.0844259 -0.113009 
7.88993 -5.48189 10.9825 0 0 1.5 0.0899376 -0.0982265 
8.20021 -5.38483 11.1767 0 0 1.5 0.0956753 -0.0862247 
8.50677 -5.30105 11.3828 0 0 1.5 0.10168 -0.0766318 
8.81219 -5.22336 11.5925 0 0 1.5 0.114648 -0.0629891 
9.11452 -5.16235 11.8123 0 0 1.5 0.121691 -0.0584346 
9.41508 -5.11421 12.0371 0 0 1.5 0.129149 -0.0552218 
9.7132 -5.08383 12.2687 0 0 1.5 0.137035 -0.0531818 
10.0085 -5.07435 12.5049 0 0 1.5 0.154087 -0.0521342 
10.3017 -5.08057 12.7446 0 0 1.5 0.163208 -0.0529186 
10.5901 -5.11516 12.987 0 0 1.5 0.172656 -0.05453 
10.8766 -5.16129 13.2304 0 0 1.5 0.192132 -0.0601785 
11.1547 -5.2418 13.4741 0 0 1.5 0.201878 -0.064056 
11.4312 -5.32909 13.7177 0 0 1.5 0.211379 -0.0687045 
11.6934 -5.4561 13.9595 0 0 1.5 0.220394 -0.0742409 
11.9533 -5.58836 14.2009 0 0 1.5 0.235915 -0.0873719 
12.1921 -5.76076 14.439 0 0 1.5 0.241904 -0.0949484 
12.4232 -5.94352 14.6758 0 0 1.5 0.246371 -0.103424 
12.628 -6.16125 14.9084 0 0 1.5 0.249102 -0.112663 
12.8113 -6.39878 15.1371 0 0 1.5 0.248964 -0.13306 
12.9669 -6.66189 15.3607 0 0 1.5 0.246069 -0.144637 
13.0768 -6.95265 15.5742 0 0 1.5 0.2414 -0.157128 
13.1672 -7.2552 15.7833 0 0 1.5 0.227678 -0.184426 
13.1825 -7.58297 15.9725 0 0 1.5 0.219194 -0.19962 
13.1764 -7.91274 16.1553 0 0 1.5 0.210035 -0.215779 
13.118 -8.24737 16.3229 0 0 1.5 0.200548 -0.232493 
13.0268 -8.57751 16.4812 0 0 1.5 0.181852 -0.266594 
12.9063 -8.90365 16.6314 0 0 1.5 0.173154 -0.283097 
12.7529 -9.21742 16.776 0 0 1.5 0.165179 -0.298092 
12.585 -9.5257 16.9182 0 0 1.5 0.158088 -0.310517 
12.3905 -9.81566 17.0641 0 0 1.5 0.146841 -0.324016 
12.1893 -10.1009 17.2109 0 0 1.5 0.142674 -0.324174 
11.9698 -10.3613 17.3762 0 0 1.5 0.139379 -0.319577 
11.7478 -10.6177 17.5447 0 0 1.5 0.136808 -0.310489 
11.52 -10.8367 17.7535 0 0 1.5 0.133064 -0.283889 
11.2971 -11.0399 17.9792 0 0 1.5 0.131505 -0.26819 
11.0876 -11.1996 18.2513 0 0 1.5 0.129888 -0.251653 
10.916 -11.3012 18.5671 0 0 1.5 0.125791 -0.22081 
10.7664 -11.3688 18.9084 0 0 1.5 0.123085 -0.207269 
10.6169 -11.4364 19.2498 0 0 1.5 0.119838 -0.194782 
10.4673 -11.504 19.5911 0 0 1.5 0.116005 -0.183938 
10.3177 -11.5717 19.9324 0 0 1.5 0.106654 -0.168197 
10.1681 -11.6393 20.2737 0 0 1.5 0.101231 -0.162632 
10.0186 -11.7069 20.6151 0 0 1.5 0.0953904 -0.158878 
9.86899 -11.7746 20.9564 0 0 1.5 0.0892178 -0.157405 
9.71942 -11.8422 21.2977 0 0 1.5 0.0762429 -0.160838 
9.56984 -11.9098 21.639 0 0 1.5 0.0696194 -0.166266 
9.42027 -11.9774 21.9804 0 0 1.5 0.0630147 -0.175351 
9.2707 -12.0451 22.3217 0 0 1.5 0.0501771 -0.20708 
9.12112 -12.1127 22.663 0 0 1.5 0.0440969 -0.232566 
8.97155 -12.1803 23.0043 0 0 1.5 0.0383274 -0.268577 
8.82198 -12.2479 23.3457 0 0 1.5 0.0329354 -0.318828 
8.6724 -12.3156 23.687 0 0 1.5 0.0236355 -0.480566 
8.52283 -12.3832 24.0283 0 0 1.5 0.0199415 -0.599396 
8.37326 -12.4508 24.3696 0 0 1.5 0.0170628 -0.729874 
8.22368 -12.5185 24.711 0 0 1.5 0.015135 -0.828464 
8.07411 -12.5861 25.0523 0 0 1.5 0.0141284 -0.768245 
7.92454 -12.6537 25.3936 0 0 1.5 0.014657 -0.646059 
7.77496 -12.7213 25.7349 0 0 1.5 0.0154958 -0.523594 
7.62539 -12.789 26.0763 0 0 1.5 0.0172499 -0.350093 
7.47581 -12.8566 26.4176 0 0 1.5 0.0179264 -0.296547 
7.32624 -12.9242 26.7589 0 0 1.5 0.0183912 -0.2576 
7.17667 -12.9918 27.1002 0 0 1.5 0.0186206 -0.229971 
7.02709 -13.0595 27.4415 0 0 1.5 0.0183757 -0.19926 
6.87752 -13.1271 27.7829 0 0 1.5 0.0179289 -0.19192 
6.72795 -13.1947 28.1242 0 0 1.5 0.0172935 -0.189021 
6.57837 -13.2624 28.4655 0 0 1.5 0.0164943 -0.190765 
6.4288 -13.33 28.8068 0 0 1.5 0.01452 -0.206621 
6.27923 -13.3976 29.1482 0 0 1.5 0.0134061 -0.221351 
6.12965 -13.4652 29.4895 0 0 1.5 0.0122456 -0.242572 
5.98008 -13.5329 29.8308 0 0 1.5 0.0110671 -0.271332 
5.83051 -13.6005 30.1721 0 0 1.5 0.00877827 -0.357569 
5.68093 -13.6681 30.5135 0 0 1.5 0.00772579 -0.421849 
5.53136 -13.7357 30.8548 0 0 1.5 0.0067748 -0.502654 
5.38178 -13.8034 31.1961 0 0 1.5 0.00532323 -0.687741 
5.23221 -13.871 31.5374 0 0 1.5 0.00489012 -0.755713 
5.08264 -13.9386 31.8788 0 0 1.5 0.0046767 -0.771299 
4.93306 -14.0062 32.2201 0 0 1.5 0.00467007 -0.726369 
4.78349 -14.0739 32.5614 0 0 1.5 0.00510726 -0.551636 
4.63392 -14.1415 32.9027 0 0 1.5 0.00545744 -0.467905 
4.48434 -14.2091 33.2441 0 0 1.5 0.00584725 -0.398074 
4.33477 -14.2768 33.5854 0 0 1.5 0.00625392 -0.342833 
4.1852 -14.3444 33.9267 0 0 1.5 0.00707311 -0.266576 
4.03562 -14.412 34.268 0 0 1.5 0.00747725 -0.239597 
3.88605 -14.4796 34.6094 0 0 1.5 0.00787713 -0.217528 
3.73648 -14.5473 34.9507 0 0 1.5 0.00867081 -0.183408 
3.5869 -14.6149 35.292 0 0 1.5 0.00907009 -0.169297 
3.43733 -14.6825 35.6333 0 0 1.5 0.00947495 -0.156527 
3.28775 -14.7501 35.9747 0 0 1.5 0.00988705 -0.144962 
3.13818 -14.8178 36.316 0 0 1.5 0.010739 -0.124274 
2.98861 -14.8854 36.6573 0 0 1.5 0.0111817 -0.114936 
2.83903 -14.953 36.9986 0 0 1.5 0.0116357 -0.106356 
2.68946 -15.0207 37.34 0 0 1.5 0.0121008 -0.0984447 
2.53989 -15.0883 37.6813 0 0 1.5 0.0130627 -0.0843895 
2.39031 -15.1559 38.0226 0 0 1.5 0.0135583 -0.0782652 
2.24074 -15.2235 38.3639 0 0 1.5 0.0140623 -0.0726917 
0 1 0 
1 2 0 
2 3 0 
3 4 0 
4 5 0 
5 6 0 
6 7 0 
7 8 0 
8 9 0 
9 10 0 
10 11 0 
11 12 0 
12 13 0 
13 14 0 
14 15 0 
15 16 0 
16 17 0 
17 18 0 
18 19 0 
19 20 0 
20 21 0 
21 22 0 
22 23 0 
23 24 0 
24 25 0 
25 26 0 
26 27 0 
27 28 0 
28 29 0 
29 30 0 
30 31 0 
31 32 0 
32 33 0 
33 34 0 
34 35 0 
35 36 0 
36 37 0 
37 38 0 
38 39 0 
39 40 0 
40 41 0 
41 42 0 
42 43 0 
43 44 0 
44 45 0 
45 46 0 
46 47 0 
47 48 0 
48 49 0 
49 50 0 
50 51 0 
51 52 0 
52 53 0 
53 54 0 
54 55 0 
55 56 0 
56 57 0 
57 58 0 
58 59 0 
59 60 0 
60 61 0 
61 62 0 
62 63 0 
63 64 0 
64 65 0 
65 66 0 
66 67 0 
67 68 0 
68 69 0 
69 70 0 
70 71 0 
71 72 0 
72 73 0 
73 74 0 
74 75 0 
75 76 0 
76 77 0 
77 78 0 
78 79 0 
79 80 0 
80 81 0 
81 82 0 
82 83 0 
83 84 0 
84 85 0 
85 86 0 
86 87 0 
87 88 0 
88 89 0 
89 90 0 
90 91 0 
91 92 0 
92 93 0 
93 94 0 
94 95 0 
95 96 0 
96 97 0 
97 98 0 
98 99 0 
99 100 0 
100 101 0 
101 102 0 
102 103 0 
103 104 0 
104 105 0 
105 106 0 
106 107 0 
107 108 0 
108 109 0 
109 110 0 
110 111 0 
111 112 0 
112 113 0 
113 114 0 
114 115 0 
115 116 0 
116 117 0 
117 118 0 
118 119 0 
119 120 0 
120 121 0 
121 122 0 
122 123 0 
123 124 0 
124 125 0 
125 126 0 
126 127 0 
127 128 0 
128 129 0 
129 130 0 
130 131 0 
131 132 0 
132 133 0 
133 134 0 
134 135 0 
135 136 0 
136 137 0 
137 138 0 
138 139 0 
139 140 0 
140 141 0 
141 142 0 
142 143 0 
143 144 0 
144 145 0 
145 146 0 
146 147 0 
147 148 0 
148 149 0 
149 150 0 
150 151 0 
151 152 0 
152 153 0 
153 154 0 
154 155 0 
155 156 0 
156 157 0 
157 158 0 
158 159 0 
159 160 0 
160 161 0 
161 162 0 
162 163 0 
163 164 0 
164 165 0 
165 166 0 
166 167 0 
167 168 0 
168 169 0 
169 170 0 
170 171 0 
171 172 0 
172 173 0 
173 174 0 
174 175 0 
175 176 0 
176 177 0 
177 178 0 
178 179 0 
179 180 0 
180 181 0 
181 182 0 
182 183 0 
183 184 0 
184 185 0 
185 186 0 
186 187 0 
187 188 0 
188 189 0 
189 190 0 
190 191 0 
191 192 0 
192 193 0 
193 194 0 
194 195 0 
195 196 0 
196 197 0 
197 198 0 
198 199 0 
199 200 0 
200 201 0 
201 202 0 
202 203 0 
203 204 0 
204 205 0 
205 206 0 
206 207 0 
207 208 0 
208 209 0 
209 210 0 
210 211 0 
211 212 0 
212 213 0 
213 214 0 
214 215 0 
215 216 0 
216 217 0 
217 218 0 
218 219 0 
219 220 0 
220 221 0 
221 222 0 
222 223 0 
223 224 0 
224 225 0 
225 226 0 
226 227 0 
227 228 0 
228 229 0 
229 230 0 
230 231 0 
231 232 0 
232 233 0 
233 234 0 
234 235 0 
235 236 0 
236 237 0 
237 238 0 
238 239 0 
239 240 0 
240 241 0 
241 242 0 
242 243 0 
243 244 0 
244 245 0 
245 246 0 
246 247 0 
247 248 0 
248 249 0 
249 250 0 
250 251 0 
251 252 0 
252 253 0 
253 254 0 
254 255 0 
255 256 0 
256 257 0 
257 258 0 
258 259 0 
259 260 0 
260 261 0 
261 262 0 
262 263 0 
263 264 0 
264 265 0 
265 266 0 
266 267 0 
267 268 0 
268 269 0 
269 270 0 
270 271 0 
271 272 0 
272 273 0 
273 274 0 
274 275 0 
275 276 0 
276 277 0 
277 278 0 
278 279 0 
279 280 0 
280 281 0 
281 282 0 
282 283 0 
283 284 0 
284 285 0 
285 286 0 
286 287 0 
287 288 0 
288 289 0 
289 290 0 
290 291 0 
291 292 0 
292 293 0 
293 294 0 
294 295 0 
295 296 0 
296 297 0 
297 298 0 
298 299 0 
-1 -1 0 
-1 300 0 1 2 3 4 5 6 7 8 9 10 11 12 13 14 15 16 17 18 19 20 21 22 23 24 25 26 27 28 29 30 31 32 33 34 35 36 37 38 39 40 41 42 43 44 45 46 47 48 49 50 51 52 53 54 55 56 57 58 59 60 61 62 63 64 65 66 67 68 69 70 71 72 73 74 75 76 77 78 79 80 81 82 83 84 85 86 87 88 89 90 91 92 93 94 95 96 97 98 99 100 101 102 103 104 105 106 107 108 109 110 111 112 113 114 115 116 117 118 119 120 121 122 123 124 125 126 127 128 129 130 131 132 133 134 135 136 137 138 139 140 141 142 143 144 145 146 147 148 149 150 151 152 153 154 155 156 157 158 159 160 161 162 163 164 165 166 167 168 169 170 171 172 173 174 175 176 177 178 179 180 181 182 183 184 185 186 187 188 189 190 191 192 193 194 195 196 197 198 199 200 201 202 203 204 205 206 207 208 209 210 211 212 213 214 215 216 217 218 219 220 221 222 223 224 225 226 227 228 229 230 231 232 233 234 235 236 237 238 239 240 241 242 243 244 245 246 247 248 249 250 251 252 253 254 255 256 257 258 259 260 261 262 263 264 265 266 267 268 269 270 271 272 273 274 275 276 277 278 279 280 281 282 283 284 285 286 287 288 289 290 291 292 293 294 295 296 297 298 299 
