ply
format ascii 1.0
comment written by koba@oshima.lab
element vertex 300
property float x
property float y
property float z
property int label
property int attribute
property float radius
property float curvature
property float torsion
element edge 300
property int vertex1
property int vertex2
property int label
element vertex_seq 1
property int label
property list int int vertex_indices
end_header
4.43994 27.6733 -6.57686 0 0 1.5 0.00968725 0.220437 
4.23046 27.3508 -6.58808 0 0 1.5 0.00960006 0.223517 
4.02097 27.0283 -6.59931 0 0 1.5 0.00959116 0.223154 
3.81149 26.7058 -6.61053 0 0 1.5 0.00966005 0.219385 
3.60201 26.3833 -6.62176 0 0 1.5 0.0100206 0.20301 
3.39252 26.0608 -6.63298 0 0 1.5 0.0103006 0.191428 
3.18304 25.7383 -6.64421 0 0 1.5 0.0106351 0.178794 
2.97356 25.4158 -6.65543 0 0 1.5 0.0110145 0.16594 
2.76408 25.0933 -6.66666 0 0 1.5 0.0118572 0.141071 
2.55459 24.7708 -6.67788 0 0 1.5 0.0122855 0.130169 
2.34511 24.4483 -6.68911 0 0 1.5 0.0126945 0.120897 
2.13563 24.1258 -6.70034 0 0 1.5 0.0130653 0.113264 
1.92614 23.8033 -6.71156 0 0 1.5 0.0135916 0.103836 
1.71666 23.4808 -6.72279 0 0 1.5 0.0136951 0.102932 
1.50718 23.1583 -6.73401 0 0 1.5 0.0136579 0.105079 
1.29769 22.8358 -6.74524 0 0 1.5 0.0130535 0.122508 
1.08821 22.5133 -6.75646 0 0 1.5 0.0124359 0.142462 
0.878729 22.1908 -6.76769 0 0 1.5 0.0115819 0.175676 
0.669246 21.8683 -6.77891 0 0 1.5 0.0104888 0.231551 
0.459763 21.5458 -6.79014 0 0 1.5 0.00770023 0.520476 
0.25028 21.2233 -6.80136 0 0 1.5 0.00625373 0.879638 
0.0407966 20.9008 -6.81259 0 0 1.5 0.00532237 1.35616 
-0.168686 20.5783 -6.82382 0 0 1.5 0.00567728 1.33487 
-0.378169 20.2558 -6.83504 0 0 1.5 0.010337 0.508511 
-0.587652 19.9333 -6.84627 0 0 1.5 0.0137288 0.32295 
-0.797135 19.6108 -6.85749 0 0 1.5 0.0174703 0.22329 
-1.00662 19.2883 -6.86872 0 0 1.5 0.0255155 0.131053 
-1.2161 18.9658 -6.87994 0 0 1.5 0.0296046 0.108022 
-1.42558 18.6433 -6.89117 0 0 1.5 0.0335846 0.0928201 
-1.63507 18.3208 -6.90239 0 0 1.5 0.0373456 0.0829273 
-1.84455 17.9983 -6.91362 0 0 1.5 0.0437654 0.0725396 
-2.05403 17.6758 -6.92484 0 0 1.5 0.0461906 0.0708941 
-2.26352 17.3533 -6.93607 0 0 1.5 0.0479504 0.0715646 
-2.47343 17.031 -6.94531 0 0 1.5 0.0489543 0.074401 
-2.6848 16.7096 -6.94789 0 0 1.5 0.0484178 0.0880987 
-2.89896 16.39 -6.94512 0 0 1.5 0.0467733 0.10162 
-3.11509 16.0718 -6.93856 0 0 1.5 0.0441719 0.122535 
-3.33749 15.7582 -6.92393 0 0 1.5 0.0406344 0.155384 
-3.56169 15.446 -6.90731 0 0 1.5 0.0309806 0.310756 
-3.79394 15.1403 -6.8832 0 0 1.5 0.0251764 0.51083 
-4.02884 14.8367 -6.8575 0 0 1.5 0.0194458 0.932471 
-4.27108 14.5394 -6.82739 0 0 1.5 0.0169634 1.48971 
-4.51693 14.2451 -6.79654 0 0 1.5 0.0241055 0.825572 
-4.76898 13.9562 -6.76441 0 0 1.5 0.0347279 0.448944 
-5.02441 13.6702 -6.73374 0 0 1.5 0.0475523 0.273411 
-5.28443 13.3881 -6.70503 0 0 1.5 0.0786011 0.136038 
-5.54628 13.1073 -6.68097 0 0 1.5 0.0967954 0.106597 
-5.81025 12.8281 -6.66231 0 0 1.5 0.116836 0.0881517 
-6.07267 12.547 -6.65296 0 0 1.5 0.138777 0.0763683 
-6.33367 12.2644 -6.65227 0 0 1.5 0.188144 0.0638994 
-6.58549 11.9745 -6.6693 0 0 1.5 0.215002 0.0611534 
-6.83215 11.6804 -6.69632 0 0 1.5 0.242476 0.0600978 
-7.0504 11.3701 -6.75771 0 0 1.5 0.294638 0.0617556 
-7.25025 11.0528 -6.8363 0 0 1.5 0.316149 0.0640958 
-7.40542 10.7206 -6.95301 0 0 1.5 0.332157 0.0673645 
-7.4986 10.3837 -7.10753 0 0 1.5 0.341021 0.0714199 
-7.54493 10.049 -7.28609 0 0 1.5 0.334385 0.0816792 
-7.52342 9.72544 -7.4931 0 0 1.5 0.319555 0.0883824 
-7.44802 9.42216 -7.71455 0 0 1.5 0.298747 0.096478 
-7.34988 9.12792 -7.94179 0 0 1.5 0.273833 0.10635 
-7.20555 8.85926 -8.17632 0 0 1.5 0.218688 0.136182 
-7.05507 8.59495 -8.41148 0 0 1.5 0.191119 0.1596 
-6.8817 8.34686 -8.64899 0 0 1.5 0.164809 0.192049 
-6.70487 8.10179 -8.88692 0 0 1.5 0.118258 0.306517 
-6.51555 7.86767 -9.12642 0 0 1.5 0.0990682 0.404337 
-6.32526 7.63463 -9.36618 0 0 1.5 0.0837667 0.532167 
-6.12804 7.40931 -9.60773 0 0 1.5 0.0739036 0.655844 
-5.93081 7.18399 -9.84929 0 0 1.5 0.0767513 0.597312 
-5.73031 6.96323 -10.0924 0 0 1.5 0.0893875 0.451432 
-5.52979 6.74249 -10.3354 0 0 1.5 0.107653 0.326515 
-5.3284 6.52155 -10.5776 0 0 1.5 0.13049 0.238586 
-5.12693 6.30059 -10.8197 0 0 1.5 0.188846 0.140737 
-4.92537 6.07269 -11.0551 0 0 1.5 0.224844 0.113836 
-4.72393 5.8412 -11.287 0 0 1.5 0.265974 0.094742 
-4.52313 5.59366 -11.5024 0 0 1.5 0.312647 0.0807761 
-4.3257 5.32287 -11.6892 0 0 1.5 0.422989 0.0612942 
-4.13848 5.0204 -11.8262 0 0 1.5 0.484962 0.0533146 
-3.9839 4.67707 -11.8616 0 0 1.5 0.54824 0.0453946 
-3.89564 4.32318 -11.7599 0 0 1.5 0.659971 0.0271268 
-3.875 3.99884 -11.5584 0 0 1.5 0.696328 0.0158978 
-3.90351 3.71246 -11.303 0 0 1.5 0.712591 0.00337918 
-3.97246 3.46627 -11.0162 0 0 1.5 0.707033 -0.0099587 
-4.05999 3.24112 -10.7181 0 0 1.5 0.641082 -0.0376519 
-4.16726 3.03899 -10.4088 0 0 1.5 0.591377 -0.0510907 
-4.29956 2.87173 -10.0893 0 0 1.5 0.538121 -0.0636902 
-4.441 2.71826 -9.76666 0 0 1.5 0.48554 -0.0758112 
-4.60944 2.61181 -9.43755 0 0 1.5 0.39157 -0.100208 
-4.78829 2.52934 -9.10879 0 0 1.5 0.351958 -0.112742 
-4.9845 2.48682 -8.78059 0 0 1.5 0.317326 -0.126191 
-5.19441 2.49175 -8.46031 0 0 1.5 0.261309 -0.158058 
-5.41172 2.52232 -8.14431 0 0 1.5 0.238996 -0.176303 
-5.63728 2.62041 -7.8493 0 0 1.5 0.219955 -0.196592 
-5.86289 2.73374 -7.56003 0 0 1.5 0.203836 -0.219557 
-6.08368 2.90386 -7.29484 0 0 1.5 0.179443 -0.271651 
-6.29889 3.08913 -7.03675 0 0 1.5 0.171058 -0.298915 
-6.50033 3.31181 -6.79623 0 0 1.5 0.165236 -0.325584 
-6.6898 3.54946 -6.56176 0 0 1.5 0.162057 -0.349369 
-6.85954 3.81177 -6.33728 0 0 1.5 0.16435 -0.377292 
-7.01006 4.08615 -6.11501 0 0 1.5 0.170084 -0.379446 
-7.13562 4.37616 -5.89559 0 0 1.5 0.178927 -0.374514 
-7.23104 4.67362 -5.67307 0 0 1.5 0.205966 -0.3492 
-7.29813 4.97807 -5.44763 0 0 1.5 0.223937 -0.333049 
-7.31553 5.27942 -5.21176 0 0 1.5 0.244554 -0.317166 
-7.30864 5.57926 -4.97079 0 0 1.5 0.267545 -0.30222 
-7.22127 5.84835 -4.71107 0 0 1.5 0.318732 -0.275045 
-7.10264 6.09456 -4.44501 0 0 1.5 0.345396 -0.26294 
-6.92598 6.29414 -4.16757 0 0 1.5 0.371513 -0.251567 
-6.70327 6.42307 -3.88592 0 0 1.5 0.395946 -0.239964 
-6.4596 6.50887 -3.60385 0 0 1.5 0.434704 -0.213693 
-6.19294 6.50898 -3.32653 0 0 1.5 0.446914 -0.198915 
-5.9285 6.45425 -3.05681 0 0 1.5 0.453525 -0.18244 
-5.66575 6.35765 -2.79291 0 0 1.5 0.454411 -0.16397 
-5.42637 6.18923 -2.54478 0 0 1.5 0.440842 -0.124602 
-5.19518 6.00296 -2.30153 0 0 1.5 0.428248 -0.104368 
-4.99799 5.7607 -2.07693 0 0 1.5 0.413134 -0.0836448 
-4.81513 5.50233 -1.86079 0 0 1.5 0.378846 -0.0448092 
-4.66176 5.2108 -1.66204 0 0 1.5 0.361064 -0.0274859 
-4.53008 4.90051 -1.47947 0 0 1.5 0.343408 -0.0113462 
-4.41973 4.57178 -1.31281 0 0 1.5 0.326038 0.00303908 
-4.33675 4.22366 -1.17459 0 0 1.5 0.292372 0.0252078 
-4.26563 3.86714 -1.0487 0 0 1.5 0.275965 0.0334854 
-4.22664 3.49267 -0.971036 0 0 1.5 0.259672 0.0399933 
-4.1966 3.11493 -0.911157 0 0 1.5 0.243404 0.0447006 
-4.18819 2.73054 -0.897508 0 0 1.5 0.210682 0.0493213 
-4.19239 2.34799 -0.921332 0 0 1.5 0.194109 0.0497914 
-4.20537 1.96673 -0.971215 0 0 1.5 0.177398 0.0495248 
-4.23057 1.59719 -1.07445 0 0 1.5 0.143722 0.0459262 
-4.25754 1.23244 -1.19214 0 0 1.5 0.126809 0.0424333 
-4.28744 0.878349 -1.33959 0 0 1.5 0.109887 0.0379212 
-4.31524 0.530478 -1.50095 0 0 1.5 0.0929828 0.0310317 
-4.34137 0.187576 -1.67344 0 0 1.5 0.0593077 -0.00487652 
-4.35986 -0.151787 -1.85363 0 0 1.5 0.0427308 -0.0584649 
-4.37604 -0.490082 -2.03614 0 0 1.5 0.0270309 -0.228712 
-4.37922 -0.830384 -2.21554 0 0 1.5 0.0157944 -0.808203 
-4.38043 -1.17134 -2.39367 0 0 1.5 0.0351683 -0.159422 
-4.36727 -1.51949 -2.55688 0 0 1.5 0.0526857 -0.0590247 
-4.35139 -1.86981 -2.71454 0 0 1.5 0.0711374 -0.0221926 
-4.32426 -2.22911 -2.84941 0 0 1.5 0.0900904 -0.00601156 
-4.29365 -2.59243 -2.97043 0 0 1.5 0.12858 0.00423153 
-4.25629 -2.96357 -3.06465 0 0 1.5 0.14757 0.00461446 
-4.21622 -3.33923 -3.13243 0 0 1.5 0.165901 0.00325433 
-4.17357 -3.71921 -3.17498 0 0 1.5 0.19889 -0.00358159 
-4.13031 -4.10055 -3.17536 0 0 1.5 0.21261 -0.00899123 
-4.08681 -4.48244 -3.15849 0 0 1.5 0.223888 -0.0154178 
-4.04457 -4.85728 -3.08467 0 0 1.5 0.232444 -0.0226074 
-4.00247 -5.22926 -2.99836 0 0 1.5 0.241001 -0.0399762 
-3.96061 -5.58648 -2.86177 0 0 1.5 0.241224 -0.0498854 
-3.91751 -5.93587 -2.70881 0 0 1.5 0.239202 -0.0599834 
-3.87182 -6.26901 -2.52186 0 0 1.5 0.235426 -0.0703726 
-3.82136 -6.58824 -2.3147 0 0 1.5 0.224728 -0.0918134 
-3.76598 -6.89307 -2.08661 0 0 1.5 0.218829 -0.101986 
-3.70046 -7.17828 -1.8379 0 0 1.5 0.21315 -0.111496 
-3.62916 -7.45227 -1.5774 0 0 1.5 0.203709 -0.127474 
-3.54123 -7.70077 -1.29784 0 0 1.5 0.200354 -0.132914 
-3.44845 -7.94181 -1.01269 0 0 1.5 0.198023 -0.136361 
-3.33183 -8.14979 -0.71104 0 0 1.5 0.196671 -0.137835 
-3.21037 -8.35104 -0.40685 0 0 1.5 0.196313 -0.135975 
-3.06247 -8.51558 -0.0920969 0 0 1.5 0.196877 -0.133239 
-2.90477 -8.6655 0.224104 0 0 1.5 0.197564 -0.129716 
-2.72547 -8.7832 0.543499 0 0 1.5 0.198059 -0.125953 
-2.52789 -8.8702 0.860446 0 0 1.5 0.197405 -0.119026 
-2.31673 -8.9344 1.17558 0 0 1.5 0.195774 -0.116102 
-2.08005 -8.9486 1.47774 0 0 1.5 0.193007 -0.113904 
-1.83543 -8.9456 1.77364 0 0 1.5 0.183852 -0.112243 
-1.57154 -8.89716 2.04938 0 0 1.5 0.177499 -0.112785 
-1.30032 -8.82731 2.31159 0 0 1.5 0.170063 -0.114428 
-1.02044 -8.73221 2.55784 0 0 1.5 0.161719 -0.117261 
-0.73396 -8.61351 2.78457 0 0 1.5 0.143136 -0.126368 
-0.44446 -8.48403 3.00238 0 0 1.5 0.1333 -0.132784 
-0.150077 -8.33595 3.2006 0 0 1.5 0.123368 -0.140615 
0.145187 -8.18451 3.39528 0 0 1.5 0.113524 -0.149706 
0.444491 -8.02287 3.57497 0 0 1.5 0.0947143 -0.170559 
0.744078 -7.86068 3.75373 0 0 1.5 0.0859723 -0.181931 
1.04802 -7.69749 3.92404 0 0 1.5 0.0777705 -0.192884 
1.35237 -7.53488 4.09416 0 0 1.5 0.0701544 -0.201843 
1.66173 -7.37934 4.26184 0 0 1.5 0.0566761 -0.212341 
1.97208 -7.22606 4.42969 0 0 1.5 0.0507176 -0.212209 
2.28785 -7.08526 4.59845 0 0 1.5 0.045193 -0.205513 
2.60541 -6.94954 4.76777 0 0 1.5 0.0350824 -0.176571 
2.92792 -6.82787 4.93864 0 0 1.5 0.0302923 -0.155739 
3.25304 -6.71413 5.10975 0 0 1.5 0.0255749 -0.12784 
3.58186 -6.61162 5.28117 0 0 1.5 0.0208805 -0.092842 
3.91379 -6.51728 5.45112 0 0 1.5 0.011488 0.0122333 
4.2479 -6.42866 5.62003 0 0 1.5 0.00683968 0.167517 
4.58506 -6.34333 5.78449 0 0 1.5 0.00240543 1.54253 
4.9231 -6.25896 5.94767 0 0 1.5 0.00257828 1.30908 
5.26297 -6.16797 6.10329 0 0 1.5 0.0106919 0.174536 
5.60276 -6.07444 6.25747 0 0 1.5 0.0144117 0.180818 
5.94161 -5.96707 6.40467 0 0 1.5 0.0178441 0.204757 
6.27905 -5.85339 6.55001 0 0 1.5 0.0240017 0.272714 
6.6132 -5.72506 6.69105 0 0 1.5 0.026927 0.304198 
6.9441 -5.58808 6.8312 0 0 1.5 0.0299588 0.325052 
7.27069 -5.4396 6.97016 0 0 1.5 0.0332825 0.334859 
7.59278 -5.28353 7.11101 0 0 1.5 0.0415627 0.319308 
7.9108 -5.12057 7.25357 0 0 1.5 0.0468229 0.294475 
8.2244 -4.95462 7.40219 0 0 1.5 0.0529429 0.264622 
8.53495 -4.78662 7.55499 0 0 1.5 0.0599612 0.233986 
8.84218 -4.62323 7.71884 0 0 1.5 0.0766882 0.175699 
9.14763 -4.4623 7.8886 0 0 1.5 0.0862949 0.150469 
9.45093 -4.31713 8.07502 0 0 1.5 0.0966344 0.128619 
9.75345 -4.17773 8.26756 0 0 1.5 0.119155 0.093107 
10.0536 -4.07054 8.48243 0 0 1.5 0.131103 0.0785248 
10.3532 -3.97034 8.70183 0 0 1.5 0.143304 0.065549 
10.647 -3.92185 8.94545 0 0 1.5 0.155568 0.0538692 
10.9378 -3.88871 9.19342 0 0 1.5 0.179438 0.0330092 
11.2196 -3.90366 9.455 0 0 1.5 0.190514 0.0231312 
11.4927 -3.94867 9.72006 0 0 1.5 0.200614 0.0135182 
11.7558 -4.02838 9.98915 0 0 1.5 0.209457 0.00414958 
12.004 -4.14639 10.2568 0 0 1.5 0.222288 -0.0149933 
12.2444 -4.28433 10.5236 0 0 1.5 0.225805 -0.0248252 
12.4651 -4.46056 10.7839 0 0 1.5 0.227227 -0.0345591 
12.6809 -4.64649 11.0425 0 0 1.5 0.226536 -0.0444436 
12.8744 -4.86606 11.2918 0 0 1.5 0.219098 -0.0653255 
13.0648 -5.09023 11.5398 0 0 1.5 0.212692 -0.0760697 
13.2302 -5.34242 11.7784 0 0 1.5 0.204819 -0.0873045 
13.3934 -5.59712 12.0161 0 0 1.5 0.185739 -0.112611 
13.5282 -5.87491 12.2454 0 0 1.5 0.175073 -0.126973 
13.6611 -6.15422 12.4742 0 0 1.5 0.164002 -0.143149 
13.7603 -6.45242 12.696 0 0 1.5 0.152739 -0.161957 
13.8575 -6.7516 12.9174 0 0 1.5 0.130394 -0.21073 
13.9165 -7.06427 13.1337 0 0 1.5 0.119691 -0.242791 
13.9707 -7.37778 13.3496 0 0 1.5 0.109534 -0.281849 
13.9886 -7.69738 13.563 0 0 1.5 0.10011 -0.329258 
13.9967 -8.0168 13.7766 0 0 1.5 0.0845066 -0.447245 
13.9755 -8.33563 13.9909 0 0 1.5 0.0789521 -0.509418 
13.9409 -8.65109 14.2077 0 0 1.5 0.0753362 -0.56085 
13.8868 -8.96161 14.4283 0 0 1.5 0.0749359 -0.583108 
13.8192 -9.26346 14.6566 0 0 1.5 0.078166 -0.549365 
13.7422 -9.5592 14.8903 0 0 1.5 0.0833293 -0.49849 
13.6566 -9.83901 15.1398 0 0 1.5 0.0900263 -0.442129 
13.5689 -10.1142 15.3939 0 0 1.5 0.106264 -0.341027 
13.4836 -10.3647 15.6732 0 0 1.5 0.114938 -0.301483 
13.4026 -10.6077 15.9596 0 0 1.5 0.123482 -0.268967 
13.3336 -10.8292 16.2665 0 0 1.5 0.131557 -0.242125 
13.2797 -11.0343 16.5866 0 0 1.5 0.144956 -0.201271 
13.2395 -11.2244 16.9186 0 0 1.5 0.149705 -0.185944 
13.2306 -11.3898 17.2651 0 0 1.5 0.152866 -0.172909 
13.2308 -11.5481 17.6158 0 0 1.5 0.154281 -0.161544 
13.2785 -11.6773 17.975 0 0 1.5 0.151646 -0.143936 
13.3352 -11.802 18.3338 0 0 1.5 0.147749 -0.137168 
13.4352 -11.9055 18.6906 0 0 1.5 0.142331 -0.131229 
13.5474 -12.0042 19.0443 0 0 1.5 0.127785 -0.123377 
13.6997 -12.0868 19.3878 0 0 1.5 0.119187 -0.121566 
13.8519 -12.1694 19.7313 0 0 1.5 0.110045 -0.120835 
14.0042 -12.2521 20.0748 0 0 1.5 0.100582 -0.121703 
14.1565 -12.3347 20.4183 0 0 1.5 0.0814799 -0.130564 
14.3088 -12.4173 20.7618 0 0 1.5 0.0721655 -0.138952 
14.4611 -12.5 21.1054 0 0 1.5 0.0631787 -0.15131 
14.6134 -12.5826 21.4489 0 0 1.5 0.0546058 -0.169802 
14.7656 -12.6652 21.7924 0 0 1.5 0.0390089 -0.235623 
14.9179 -12.7479 22.1359 0 0 1.5 0.0321413 -0.293313 
15.0702 -12.8305 22.4794 0 0 1.5 0.0259933 -0.381871 
15.2225 -12.9131 22.8229 0 0 1.5 0.0163866 -0.706873 
15.3748 -12.9958 23.1664 0 0 1.5 0.0133797 -0.915625 
15.5271 -13.0784 23.5099 0 0 1.5 0.0118796 -1.01233 
15.6794 -13.161 23.8534 0 0 1.5 0.0118088 -0.899418 
15.8316 -13.2437 24.1969 0 0 1.5 0.0139422 -0.503602 
15.9839 -13.3263 24.5404 0 0 1.5 0.0152039 -0.377675 
16.1362 -13.4089 24.8839 0 0 1.5 0.0162679 -0.295392 
16.2885 -13.4915 25.2274 0 0 1.5 0.0170342 -0.241251 
16.4408 -13.5742 25.5709 0 0 1.5 0.0175368 -0.184255 
16.5931 -13.6568 25.9145 0 0 1.5 0.0172886 -0.171335 
16.7453 -13.7394 26.258 0 0 1.5 0.0167431 -0.164631 
16.8976 -13.8221 26.6015 0 0 1.5 0.0149086 -0.169142 
17.0499 -13.9047 26.945 0 0 1.5 0.0137055 -0.181054 
17.2022 -13.9873 27.2885 0 0 1.5 0.0123761 -0.200075 
17.3545 -14.07 27.632 0 0 1.5 0.0109707 -0.229174 
17.5068 -14.1526 27.9755 0 0 1.5 0.00811796 -0.341307 
17.659 -14.2352 28.319 0 0 1.5 0.00677729 -0.440457 
17.8113 -14.3179 28.6625 0 0 1.5 0.00557886 -0.584037 
17.9636 -14.4005 29.006 0 0 1.5 0.00459731 -0.775302 
18.1159 -14.4831 29.3495 0 0 1.5 0.00362779 -1.00844 
18.2682 -14.5657 29.693 0 0 1.5 0.00368547 -0.87678 
18.4205 -14.6484 30.0365 0 0 1.5 0.00397472 -0.678297 
18.5728 -14.731 30.3801 0 0 1.5 0.00436236 -0.506544 
18.725 -14.8136 30.7236 0 0 1.5 0.00509097 -0.298191 
18.8773 -14.8963 31.0671 0 0 1.5 0.00534886 -0.24268 
19.0296 -14.9789 31.4106 0 0 1.5 0.00551641 -0.205268 
19.1819 -15.0615 31.7541 0 0 1.5 0.0055737 -0.162387 
19.3342 -15.1442 32.0976 0 0 1.5 0.00546998 -0.152387 
19.4865 -15.2268 32.4411 0 0 1.5 0.00528666 -0.148027 
19.6387 -15.3094 32.7846 0 0 1.5 0.00503177 -0.148615 
19.791 -15.3921 33.1281 0 0 1.5 0.00434289 -0.169468 
19.9433 -15.4747 33.4716 0 0 1.5 0.00392892 -0.194272 
20.0956 -15.5573 33.8151 0 0 1.5 0.00348402 -0.234108 
20.2479 -15.64 34.1586 0 0 1.5 0.00302173 -0.298655 
20.4002 -15.7226 34.5021 0 0 1.5 0.00211648 -0.584927 
20.5524 -15.8052 34.8456 0 0 1.5 0.00174091 -0.86016 
20.7047 -15.8878 35.1892 0 0 1.5 0.00150334 -1.15693 
20.857 -15.9705 35.5327 0 0 1.5 0.00170703 -0.919876 
21.0093 -16.0531 35.8762 0 0 1.5 0.00209613 -0.619505 
21.1616 -16.1357 36.2197 0 0 1.5 0.00258132 -0.414982 
21.3139 -16.2184 36.5632 0 0 1.5 0.00311978 -0.288796 
21.4661 -16.301 36.9067 0 0 1.5 0.00427969 -0.157788 
21.6184 -16.3836 37.2502 0 0 1.5 0.00488355 -0.122449 
21.7707 -16.4663 37.5937 0 0 1.5 0.00549778 -0.0975764 
21.923 -16.5489 37.9372 0 0 1.5 0.00612043 -0.0794265 
22.0753 -16.6315 38.2807 0 0 1.5 0.00738705 -0.0552571 
22.2276 -16.7142 38.6242 0 0 1.5 0.00802995 -0.047073 
22.3799 -16.7968 38.9677 0 0 1.5 0.00867884 -0.0405763 
0 1 0 
1 2 0 
2 3 0 
3 4 0 
4 5 0 
5 6 0 
6 7 0 
7 8 0 
8 9 0 
9 10 0 
10 11 0 
11 12 0 
12 13 0 
13 14 0 
14 15 0 
15 16 0 
16 17 0 
17 18 0 
18 19 0 
19 20 0 
20 21 0 
21 22 0 
22 23 0 
23 24 0 
24 25 0 
25 26 0 
26 27 0 
27 28 0 
28 29 0 
29 30 0 
30 31 0 
31 32 0 
32 33 0 
33 34 0 
34 35 0 
35 36 0 
36 37 0 
37 38 0 
38 39 0 
39 40 0 
40 41 0 
41 42 0 
42 43 0 
43 44 0 
44 45 0 
45 46 0 
46 47 0 
47 48 0 
48 49 0 
49 50 0 
50 51 0 
51 52 0 
52 53 0 
53 54 0 
54 55 0 
55 56 0 
56 57 0 
57 58 0 
58 59 0 
59 60 0 
60 61 0 
61 62 0 
62 63 0 
63 64 0 
64 65 0 
65 66 0 
66 67 0 
67 68 0 
68 69 0 
69 70 0 
70 71 0 
71 72 0 
72 73 0 
73 74 0 
74 75 0 
75 76 0 
76 77 0 
77 78 0 
78 79 0 
79 80 0 
80 81 0 
81 82 0 
82 83 0 
83 84 0 
84 85 0 
85 86 0 
86 87 0 
87 88 0 
88 89 0 
89 90 0 
90 91 0 
91 92 0 
92 93 0 
93 94 0 
94 95 0 
95 96 0 
96 97 0 
97 98 0 
98 99 0 
99 100 0 
100 101 0 
101 102 0 
102 103 0 
103 104 0 
104 105 0 
105 106 0 
106 107 0 
107 108 0 
108 109 0 
109 110 0 
110 111 0 
111 112 0 
112 113 0 
113 114 0 
114 115 0 
115 116 0 
116 117 0 
117 118 0 
118 119 0 
119 120 0 
120 121 0 
121 122 0 
122 123 0 
123 124 0 
124 125 0 
125 126 0 
126 127 0 
127 128 0 
128 129 0 
129 130 0 
130 131 0 
131 132 0 
132 133 0 
133 134 0 
134 135 0 
135 136 0 
136 137 0 
137 138 0 
138 139 0 
139 140 0 
140 141 0 
141 142 0 
142 143 0 
143 144 0 
144 145 0 
145 146 0 
146 147 0 
147 148 0 
148 149 0 
149 150 0 
150 151 0 
151 152 0 
152 153 0 
153 154 0 
154 155 0 
155 156 0 
156 157 0 
157 158 0 
158 159 0 
159 160 0 
160 161 0 
161 162 0 
162 163 0 
163 164 0 
164 165 0 
165 166 0 
166 167 0 
167 168 0 
168 169 0 
169 170 0 
170 171 0 
171 172 0 
172 173 0 
173 174 0 
174 175 0 
175 176 0 
176 177 0 
177 178 0 
178 179 0 
179 180 0 
180 181 0 
181 182 0 
182 183 0 
183 184 0 
184 185 0 
185 186 0 
186 187 0 
187 188 0 
188 189 0 
189 190 0 
190 191 0 
191 192 0 
192 193 0 
193 194 0 
194 195 0 
195 196 0 
196 197 0 
197 198 0 
198 199 0 
199 200 0 
200 201 0 
201 202 0 
202 203 0 
203 204 0 
204 205 0 
205 206 0 
206 207 0 
207 208 0 
208 209 0 
209 210 0 
210 211 0 
211 212 0 
212 213 0 
213 214 0 
214 215 0 
215 216 0 
216 217 0 
217 218 0 
218 219 0 
219 220 0 
220 221 0 
221 222 0 
222 223 0 
223 224 0 
224 225 0 
225 226 0 
226 227 0 
227 228 0 
228 229 0 
229 230 0 
230 231 0 
231 232 0 
232 233 0 
233 234 0 
234 235 0 
235 236 0 
236 237 0 
237 238 0 
238 239 0 
239 240 0 
240 241 0 
241 242 0 
242 243 0 
243 244 0 
244 245 0 
245 246 0 
246 247 0 
247 248 0 
248 249 0 
249 250 0 
250 251 0 
251 252 0 
252 253 0 
253 254 0 
254 255 0 
255 256 0 
256 257 0 
257 258 0 
258 259 0 
259 260 0 
260 261 0 
261 262 0 
262 263 0 
263 264 0 
264 265 0 
265 266 0 
266 267 0 
267 268 0 
268 269 0 
269 270 0 
270 271 0 
271 272 0 
272 273 0 
273 274 0 
274 275 0 
275 276 0 
276 277 0 
277 278 0 
278 279 0 
279 280 0 
280 281 0 
281 282 0 
282 283 0 
283 284 0 
284 285 0 
285 286 0 
286 287 0 
287 288 0 
288 289 0 
289 290 0 
290 291 0 
291 292 0 
292 293 0 
293 294 0 
294 295 0 
295 296 0 
296 297 0 
297 298 0 
298 299 0 
-1 -1 0 
-1 300 0 1 2 3 4 5 6 7 8 9 10 11 12 13 14 15 16 17 18 19 20 21 22 23 24 25 26 27 28 29 30 31 32 33 34 35 36 37 38 39 40 41 42 43 44 45 46 47 48 49 50 51 52 53 54 55 56 57 58 59 60 61 62 63 64 65 66 67 68 69 70 71 72 73 74 75 76 77 78 79 80 81 82 83 84 85 86 87 88 89 90 91 92 93 94 95 96 97 98 99 100 101 102 103 104 105 106 107 108 109 110 111 112 113 114 115 116 117 118 119 120 121 122 123 124 125 126 127 128 129 130 131 132 133 134 135 136 137 138 139 140 141 142 143 144 145 146 147 148 149 150 151 152 153 154 155 156 157 158 159 160 161 162 163 164 165 166 167 168 169 170 171 172 173 174 175 176 177 178 179 180 181 182 183 184 185 186 187 188 189 190 191 192 193 194 195 196 197 198 199 200 201 202 203 204 205 206 207 208 209 210 211 212 213 214 215 216 217 218 219 220 221 222 223 224 225 226 227 228 229 230 231 232 233 234 235 236 237 238 239 240 241 242 243 244 245 246 247 248 249 250 251 252 253 254 255 256 257 258 259 260 261 262 263 264 265 266 267 268 269 270 271 272 273 274 275 276 277 278 279 280 281 282 283 284 285 286 287 288 289 290 291 292 293 294 295 296 297 298 299 
